M48
;Layer_Color=9474304
;FILE_FORMAT=2:5
INCH,TZ
;TYPE=PLATED
T1F00S00C0.01181
T2F00S00C0.03937
T3F00S00C0.09055
%
T01
X-88189Y-5512
X-80315
X-88189Y10236
Y25984
X-84252Y33858
X-76378
X-60630
X-64567Y41732
X-60630Y49606
X-39370Y56102
X-32480
X-21260Y49606
X-13386
X-17323Y41732
X-13386Y33858
X-21260
X-17323Y25984
X-13386Y18110
X-21260
X-17323Y10236
X-13386Y2362
X-21260
X-17323Y-5512
X-21260Y-29134
X-37008
X-88189Y41732
X-9449
X-5512Y49606
X2362
X10236
X18110
X25984
X33465Y52165
X36909Y54626
X40354Y52165
X45669Y41732
Y25984
X49606Y18110
X45669Y10236
X49606Y2362
X54165Y0
X52165Y-3937
X36417
X25984Y2362
X18110
X10236
X2362
X-5512
X-9449Y10236
X-5512Y18110
X2362
X10236
X18110
X25984
Y33858
X18110
X10236
X2362
X-5512
X-9449Y25984
X6299
X14173
Y41732
X6299
Y10236
X14173
Y-5512
X6299
X-9449
X2362Y-29134
X53543Y-37008
X61417
X73229Y-29134
X81103
X85040Y-21260
Y-37008
Y25984
Y41732
Y57480
Y73228
X73229Y65354
X57500Y78300
X57492Y88308
X61417Y104725
X77166
X85040
X61417Y136221
X57480Y144095
X49606
X41732
X33858
X25984
X18110
X10236
X2362
X-5512
X-1575Y136221
X6299
X14173
X22047
X25984Y128347
X18110
X10236
X2362
X-5512
X-1575Y120473
X6299
X14173
X22047
X25984Y112599
X18110
X10236
X2362
X-5512
X-1575Y104725
X6299
X14173
X22047
X25984Y96851
X18110
X10236
X2362
X-5512
X-9449Y104725
Y120473
Y136221
X6299Y88977
X14173
X22047
X25984Y81103
X18110
X10236
X2362
Y65354
X10236
X18110
X22047Y73228
X45100Y73000
X42600Y68200
X40354Y57087
X33465
X14173Y57480
X6299
X-9449
X-5512Y65354
X-9449Y73228
X-17323
X-13386Y81103
X-21260
X-29134
X-25197Y88977
X-13386Y96851
Y112599
X-21260
X-29134
X-25197Y120473
X-17323
X-13386Y128347
X-21260
X-29134
X-25197Y136221
X-17323
X-13386Y144095
X-21260
X-29134
X-37008
X-44882
X-52756
X-60630
X-64567Y136221
X-60630Y128347
X-64567Y120473
X-72441Y104725
X-88189
X-84252Y96851
X-88189Y88977
Y73228
X-84252Y65354
X-76378
X-88189Y57480
X-39370Y60039
X-35925Y58071
X-32480Y60039
X-21260Y65354
X-13386
X-17323Y57480
X-41900Y68400
X-44900Y73500
X-57390Y78690
X-57600Y88000
X-88189Y120473
Y136221
T02
X-83661Y-30512
X-73819
X-63976
X-54134
X-44291
X-70000Y0
X-80000
Y10000
Y20000
Y30000
Y40000
Y50000
X-70000
Y40000
Y30000
Y20000
Y10000
X70000
X80000
Y20000
Y30000
Y40000
Y50000
X70000
Y40000
Y30000
Y20000
Y0
X80000
X79882Y-10827
X69882
Y-22312
X79882
X79724Y-33797
X69724
X70000Y60000
X80000
Y70000
Y80000
Y90000
Y100000
Y110000
Y120000
Y130000
Y140000
X70000
Y130000
Y120000
Y110000
Y100000
Y90000
Y80000
Y70000
X-70000
X-80000
Y60000
X-70000
Y80000
X-80000
Y90000
Y100000
Y110000
Y120000
Y130000
Y140000
X-70000
Y130000
Y120000
Y110000
Y100000
Y90000
T03
X-55118Y11811
X55118Y153543
X-55118
M30
