M48
;Layer_Color=9474304
;FILE_FORMAT=2:5
INCH,TZ
;TYPE=PLATED
T1F00S00C0.01181
T2F00S00C0.09055
%
T01
X23622Y7874
X31496
X32283Y11811
X30709Y14961
X32283Y18110
X30700Y27500
X27559Y31496
X27685Y37244
X37402Y40551
X45734Y38326
Y45228
X49573Y49066
X51181Y62992
X49434Y65692
X43307Y66535
Y63779
Y61024
X34646Y63386
X31299Y63425
X27559Y63386
X27685Y57244
X27953Y52362
X19685Y47244
X18504Y60236
X14961
X11417
X7874
X9449Y64173
X6890Y74705
X7229Y83524
X7087Y89370
Y95669
Y100787
X6473Y104958
X7150Y112850
X24919Y113370
X24674Y103470
X26974Y98670
X23678Y95509
X23228Y90945
X22843Y83524
X31102Y78347
X31299Y73425
X34074Y68570
X23622Y70866
X31774Y88670
X29074Y94070
X38974Y90377
X42913Y101575
X49213Y104724
X51968Y111024
X52256Y96943
X49544Y84055
X45734Y31425
X49573Y27587
X50394Y23228
Y19291
Y14961
X47305Y14968
X48819Y12205
X47244Y7874
X39370
X35433Y31496
X19685
X11685Y33406
X7874Y23622
X15748
X55512Y27165
X59055Y23228
X59449Y31496
X62263Y34764
Y38764
X59055Y38189
X55512Y41732
Y48425
X55118Y55118
X63236Y58482
X70137Y58382
X76378Y57480
X74803Y62992
X77038Y65692
X82284Y66142
X86221
X88386Y63681
X84252Y63386
X81890Y55118
X82677Y46457
X85433Y43307
X79528
Y36220
X85316Y36189
Y28894
X79528Y28740
Y25197
X75197Y27165
Y32677
X70263Y34764
Y38764
X66263Y36764
X75591Y39764
X70223Y48819
X63236Y48738
X59449Y45276
X55512Y34646
X55478Y13453
X56693Y9055
X53150
X55118Y6299
X56693Y3543
X53150
X77067Y13386
X103347Y14862
X102362Y7874
X110236
X114173Y15748
X122047
X129921
X125985Y23622
X118110
X114173Y31496
X106299Y33858
X101417
X96535
X98976Y38740
X103858
X106299Y43622
X113091Y44579
X115157Y49213
X122047Y47244
X129921
X129921Y62992
X124803
X127362Y65748
X124803Y68504
X120374Y68270
X120474Y73270
X120574Y78470
X124803Y83465
X125985Y86614
X116174Y88370
X116074Y93270
Y98570
Y103470
X125985Y102362
X125591Y109055
X129921Y94488
Y78740
X129921Y68504
X110236Y70866
X110630Y59449
X106299Y55118
X102756
X98819
X98976Y48504
X96535Y43622
X96457Y83465
X86647Y83833
X80974Y81070
X79324Y89820
X74774Y89570
X69574
X66929Y96457
X76772
X82724Y94499
X82677Y110236
X76772Y106299
Y116142
X66929
Y106299
X57087
Y116142
Y96457
X53445Y93020
X53874Y87970
X59449Y90945
X61282Y80844
X63236Y65692
X66929Y62992
X70137Y65692
X59055Y62992
X56335Y65692
X106135Y113570
X106135Y118870
X106299Y123228
X105905Y128347
X110351Y132965
X125985Y133858
X128740Y118898
X94980Y128740
X90551Y125984
X86614Y133858
X83120Y134779
X84200Y131850
X81601Y137779
X79342Y140269
X76526Y142105
X73325Y143133
X69969Y143345
X66628Y143719
X63282Y144050
X59923Y144208
X56561
X53214Y143888
X55179Y137319
X58541
X59023Y131119
X62205Y123622
X68504
X74803
X79747Y124818
X77366Y134269
X75058Y136713
X71882Y137815
X68520Y137868
X71674Y133070
X70866Y173228
X78740
X86614
X94488
X102362
X94488Y192913
X86614
X78740
X70866
X62992
X55118
Y173228
X62992
X47244
X39370
Y192913
X31496
X47244
X46590Y143458
X43228
X39865
X36567Y144112
X38412Y137981
X41774
X45136
X47244Y133858
X38525Y134621
X40615Y125730
X24919Y123450
Y118350
X7274Y118570
X7330Y129977
X7874Y133858
X7330Y141591
X13950Y136300
X20716Y141591
X28723Y144697
X49867Y144208
T02
X11811Y11811
X122047Y153543
X11811
M30
