G04*
G04 #@! TF.GenerationSoftware,Altium Limited,Altium Designer,21.0.8 (223)*
G04*
G04 Layer_Physical_Order=2*
G04 Layer_Color=16711680*
%FSLAX25Y25*%
%MOIN*%
G70*
G04*
G04 #@! TF.SameCoordinates,E8E4A7BE-DB6F-4252-8793-17DB4AC6D9EE*
G04*
G04*
G04 #@! TF.FilePolarity,Positive*
G04*
G01*
G75*
%ADD16C,0.01000*%
%ADD35R,0.07087X0.07087*%
%ADD36C,0.07087*%
%ADD37R,0.07087X0.07087*%
%ADD38C,0.17717*%
%ADD39C,0.02362*%
G36*
X89691Y-35000D02*
Y-35462D01*
X89511Y-36368D01*
X89157Y-37222D01*
X88644Y-37990D01*
X87990Y-38644D01*
X87222Y-39157D01*
X86368Y-39511D01*
X85462Y-39691D01*
X43070D01*
X42918Y-39191D01*
X43044Y-39107D01*
X57808Y-24343D01*
X58029Y-24012D01*
X58106Y-23622D01*
Y-2922D01*
X58029Y-2532D01*
X57808Y-2201D01*
X55846Y-239D01*
Y334D01*
X55590Y952D01*
X55117Y1425D01*
X54499Y1681D01*
X53830D01*
X53212Y1425D01*
X52740Y952D01*
X52483Y334D01*
Y-334D01*
X52740Y-952D01*
X53212Y-1425D01*
X53830Y-1681D01*
X54404D01*
X56067Y-3344D01*
Y-23200D01*
X41901Y-37366D01*
X37617D01*
X37410Y-36866D01*
X52886Y-21390D01*
X53107Y-21059D01*
X53185Y-20669D01*
Y-5295D01*
X53591Y-4889D01*
X53847Y-4271D01*
Y-3603D01*
X53591Y-2985D01*
X53118Y-2512D01*
X52500Y-2256D01*
X51831D01*
X51213Y-2512D01*
X50740Y-2985D01*
X50484Y-3603D01*
Y-4271D01*
X50740Y-4889D01*
X51146Y-5295D01*
Y-20247D01*
X35995Y-35398D01*
X-39048D01*
X-39147Y-34898D01*
X-38987Y-34832D01*
X-38829Y-34449D01*
Y-23179D01*
X42323D01*
X42706Y-23020D01*
X42864Y-22638D01*
Y65841D01*
X43326Y66032D01*
X47209Y62149D01*
Y31772D01*
X47286Y31381D01*
X47507Y31051D01*
X66512Y12046D01*
X66232Y11561D01*
X65957Y10532D01*
Y9468D01*
X66232Y8439D01*
X66764Y7517D01*
X67517Y6764D01*
X68439Y6232D01*
X69468Y5957D01*
X70532D01*
X71561Y6232D01*
X72483Y6764D01*
X73235Y7517D01*
X73768Y8439D01*
X74043Y9468D01*
Y10532D01*
X73768Y11561D01*
X73235Y12483D01*
X72483Y13236D01*
X71561Y13768D01*
X70532Y14043D01*
X69468D01*
X68439Y13768D01*
X67954Y13488D01*
X49248Y32194D01*
Y62572D01*
X49170Y62962D01*
X48949Y63293D01*
X44281Y67961D01*
Y68534D01*
X44025Y69152D01*
X43552Y69625D01*
X42934Y69881D01*
X42266D01*
X41648Y69625D01*
X41175Y69152D01*
X40919Y68534D01*
Y67866D01*
X40655Y67470D01*
X30512D01*
X30129Y67312D01*
X29971Y66929D01*
Y-14223D01*
X-49213D01*
X-49595Y-14381D01*
X-49754Y-14764D01*
Y-22638D01*
Y-29304D01*
X-50254Y-29370D01*
X-50366Y-28951D01*
X-50898Y-28029D01*
X-51651Y-27276D01*
X-52573Y-26744D01*
X-53601Y-26469D01*
X-53884D01*
Y-30512D01*
Y-34555D01*
X-53601D01*
X-52573Y-34280D01*
X-51651Y-33747D01*
X-50898Y-32994D01*
X-50366Y-32072D01*
X-50254Y-31653D01*
X-49754Y-31719D01*
Y-34449D01*
X-49595Y-34832D01*
X-49435Y-34898D01*
X-49535Y-35398D01*
X-61586D01*
X-62258Y-34725D01*
X-62150Y-34126D01*
X-61494Y-33747D01*
X-60741Y-32994D01*
X-60209Y-32072D01*
X-59933Y-31044D01*
Y-29980D01*
X-60105Y-29340D01*
X-59899Y-28767D01*
X-59787Y-28681D01*
X-59657Y-28627D01*
X-59629Y-28559D01*
X-59571Y-28515D01*
X-59552Y-28375D01*
X-59498Y-28244D01*
Y-4478D01*
X-27559D01*
X-27176Y-4320D01*
X-27018Y-3937D01*
Y65945D01*
X-27176Y66328D01*
X-27559Y66486D01*
X-40354D01*
X-40729Y66839D01*
X-40753Y67170D01*
X-40475Y67448D01*
X-40219Y68066D01*
Y68734D01*
X-40475Y69352D01*
X-40948Y69825D01*
X-41566Y70081D01*
X-42234D01*
X-42852Y69825D01*
X-43325Y69352D01*
X-43380Y69219D01*
X-43880Y69318D01*
Y72142D01*
X-43475Y72548D01*
X-43219Y73166D01*
Y73834D01*
X-43475Y74452D01*
X-43948Y74925D01*
X-44566Y75181D01*
X-45234D01*
X-45852Y74925D01*
X-46325Y74452D01*
X-46581Y73834D01*
Y73166D01*
X-46325Y72548D01*
X-45920Y72142D01*
Y45522D01*
X-67954Y23488D01*
X-68439Y23768D01*
X-69468Y24043D01*
X-70532D01*
X-71561Y23768D01*
X-72483Y23235D01*
X-73235Y22483D01*
X-73768Y21561D01*
X-74043Y20532D01*
Y19468D01*
X-73768Y18439D01*
X-73235Y17517D01*
X-72483Y16765D01*
X-71561Y16232D01*
X-70532Y15957D01*
X-69468D01*
X-68651Y16176D01*
X-68392Y15727D01*
X-69911Y14208D01*
X-70021Y14043D01*
X-70532D01*
X-71561Y13768D01*
X-72483Y13236D01*
X-73235Y12483D01*
X-73768Y11561D01*
X-74043Y10532D01*
Y9468D01*
X-73768Y8439D01*
X-73235Y7517D01*
X-72483Y6764D01*
X-71561Y6232D01*
X-70532Y5957D01*
X-69468D01*
X-68439Y6232D01*
X-67517Y6764D01*
X-66764Y7517D01*
X-66232Y8439D01*
X-65957Y9468D01*
Y10532D01*
X-66232Y11561D01*
X-66764Y12483D01*
X-67517Y13235D01*
X-67573Y13662D01*
X-41396Y39840D01*
X-40936Y39688D01*
X-40896Y39657D01*
Y4478D01*
X-48509D01*
X-48716Y4978D01*
X-47849Y5846D01*
X-46825Y7378D01*
X-46119Y9081D01*
X-45760Y10889D01*
Y12733D01*
X-46119Y14541D01*
X-46825Y16244D01*
X-47849Y17777D01*
X-49153Y19080D01*
X-50685Y20104D01*
X-52388Y20810D01*
X-54196Y21169D01*
X-56040D01*
X-57848Y20810D01*
X-59551Y20104D01*
X-61084Y19080D01*
X-62387Y17777D01*
X-63411Y16244D01*
X-64117Y14541D01*
X-64476Y12733D01*
Y10889D01*
X-64117Y9081D01*
X-63411Y7378D01*
X-62387Y5846D01*
X-61520Y4978D01*
X-61727Y4478D01*
X-67733D01*
X-67863Y4424D01*
X-68003Y4406D01*
X-68048Y4348D01*
X-68115Y4320D01*
X-68169Y4189D01*
X-68255Y4077D01*
X-68828Y3872D01*
X-69468Y4043D01*
X-70532D01*
X-71172Y3872D01*
X-71745Y4077D01*
X-71831Y4189D01*
X-71885Y4320D01*
X-71952Y4348D01*
X-71997Y4406D01*
X-72137Y4424D01*
X-72268Y4478D01*
X-77732D01*
X-77863Y4424D01*
X-78003Y4406D01*
X-78048Y4348D01*
X-78115Y4320D01*
X-78169Y4189D01*
X-78255Y4077D01*
X-78828Y3872D01*
X-79468Y4043D01*
X-80532D01*
X-81172Y3872D01*
X-81745Y4077D01*
X-81831Y4189D01*
X-81885Y4320D01*
X-81952Y4348D01*
X-81997Y4406D01*
X-82137Y4424D01*
X-82267Y4478D01*
X-86614D01*
X-86997Y4320D01*
X-87155Y3937D01*
Y-3937D01*
X-86997Y-4320D01*
X-86614Y-4478D01*
X-82267D01*
X-82137Y-4424D01*
X-81997Y-4406D01*
X-81952Y-4348D01*
X-81885Y-4320D01*
X-81831Y-4189D01*
X-81745Y-4077D01*
X-81172Y-3872D01*
X-80532Y-4043D01*
X-79468D01*
X-78828Y-3872D01*
X-78255Y-4077D01*
X-78169Y-4189D01*
X-78115Y-4320D01*
X-78048Y-4348D01*
X-78003Y-4406D01*
X-77863Y-4424D01*
X-77732Y-4478D01*
X-72268D01*
X-72137Y-4424D01*
X-71997Y-4406D01*
X-71952Y-4348D01*
X-71885Y-4320D01*
X-71831Y-4189D01*
X-71745Y-4077D01*
X-71172Y-3872D01*
X-70532Y-4043D01*
X-69468D01*
X-69439Y-4065D01*
Y-29304D01*
X-69939Y-29370D01*
X-70051Y-28951D01*
X-70583Y-28029D01*
X-71336Y-27276D01*
X-72258Y-26744D01*
X-73287Y-26469D01*
X-73569D01*
Y-30512D01*
Y-34555D01*
X-73287D01*
X-72258Y-34280D01*
X-71336Y-33747D01*
X-70583Y-32994D01*
X-70051Y-32072D01*
X-69939Y-31653D01*
X-69439Y-31719D01*
Y-34449D01*
X-69280Y-34832D01*
X-68898Y-34990D01*
X-66244D01*
X-66113Y-34936D01*
X-65973Y-34918D01*
X-65929Y-34859D01*
X-65861Y-34832D01*
X-65842Y-34785D01*
X-65345Y-34574D01*
X-64925Y-34805D01*
X-64918Y-34839D01*
X-64697Y-35170D01*
X-63001Y-36866D01*
X-63208Y-37366D01*
X-75365D01*
X-80174Y-32558D01*
X-79894Y-32072D01*
X-79618Y-31044D01*
Y-29980D01*
X-79894Y-28951D01*
X-80426Y-28029D01*
X-81179Y-27276D01*
X-82101Y-26744D01*
X-83129Y-26469D01*
X-84194D01*
X-85222Y-26744D01*
X-86144Y-27276D01*
X-86897Y-28029D01*
X-87429Y-28951D01*
X-87705Y-29980D01*
Y-31044D01*
X-87429Y-32072D01*
X-86897Y-32994D01*
X-86144Y-33747D01*
X-85222Y-34280D01*
X-84194Y-34555D01*
X-83129D01*
X-82101Y-34280D01*
X-81616Y-33999D01*
X-76508Y-39107D01*
X-76383Y-39191D01*
X-76534Y-39691D01*
X-85462D01*
X-86368Y-39511D01*
X-87222Y-39157D01*
X-87990Y-38644D01*
X-88644Y-37990D01*
X-89157Y-37222D01*
X-89511Y-36368D01*
X-89691Y-35462D01*
Y-35000D01*
Y150494D01*
X-80749D01*
X-59722Y150494D01*
X-59529Y150159D01*
X-58502Y149133D01*
X-57246Y148407D01*
X-55844Y148031D01*
X-54392D01*
X-52991Y148407D01*
X-51734Y149133D01*
X-50708Y150159D01*
X-50514Y150494D01*
X50514Y150494D01*
X50708Y150159D01*
X51734Y149133D01*
X52991Y148407D01*
X54392Y148031D01*
X55844D01*
X57246Y148407D01*
X58502Y149133D01*
X59529Y150159D01*
X59722Y150494D01*
X89691Y150494D01*
Y-35000D01*
D02*
G37*
G36*
X-43325Y67448D02*
X-43020Y67142D01*
Y41100D01*
X-65727Y18392D01*
X-66176Y18651D01*
X-65957Y19468D01*
Y20532D01*
X-66232Y21561D01*
X-66512Y22046D01*
X-44179Y44379D01*
X-43958Y44710D01*
X-43880Y45100D01*
Y67482D01*
X-43380Y67581D01*
X-43325Y67448D01*
D02*
G37*
G36*
X-27559Y-3937D02*
X-60039D01*
Y-28244D01*
X-60539Y-28378D01*
X-60741Y-28029D01*
X-61494Y-27276D01*
X-62416Y-26744D01*
X-63444Y-26469D01*
X-63726D01*
Y-30512D01*
X-63976D01*
Y-30762D01*
X-68020D01*
Y-31044D01*
X-67744Y-32072D01*
X-67212Y-32994D01*
X-66459Y-33747D01*
X-66110Y-33949D01*
X-66244Y-34449D01*
X-68898D01*
Y-3937D01*
X-67733D01*
X-67866Y-3437D01*
X-67517Y-3235D01*
X-66764Y-2483D01*
X-66232Y-1561D01*
X-65957Y-532D01*
Y-250D01*
X-70000D01*
X-74043D01*
Y-532D01*
X-73768Y-1561D01*
X-73235Y-2483D01*
X-72483Y-3235D01*
X-72133Y-3437D01*
X-72268Y-3937D01*
X-77732D01*
X-77867Y-3437D01*
X-77517Y-3235D01*
X-76765Y-2483D01*
X-76232Y-1561D01*
X-75957Y-532D01*
Y-250D01*
X-80000D01*
X-84043D01*
Y-532D01*
X-83768Y-1561D01*
X-83236Y-2483D01*
X-82483Y-3235D01*
X-82134Y-3437D01*
X-82267Y-3937D01*
X-86614D01*
Y3937D01*
X-82267D01*
X-82134Y3437D01*
X-82483Y3235D01*
X-83236Y2483D01*
X-83768Y1561D01*
X-84043Y532D01*
Y250D01*
X-80000D01*
X-75957D01*
Y532D01*
X-76232Y1561D01*
X-76765Y2483D01*
X-77517Y3235D01*
X-77867Y3437D01*
X-77732Y3937D01*
X-72268D01*
X-72133Y3437D01*
X-72483Y3235D01*
X-73235Y2483D01*
X-73768Y1561D01*
X-74043Y532D01*
Y250D01*
X-70000D01*
X-65957D01*
Y532D01*
X-66232Y1561D01*
X-66764Y2483D01*
X-67517Y3235D01*
X-67866Y3437D01*
X-67733Y3937D01*
X-60178D01*
X-59551Y3518D01*
X-57848Y2812D01*
X-56040Y2453D01*
X-54196D01*
X-52388Y2812D01*
X-50685Y3518D01*
X-50058Y3937D01*
X-40354D01*
Y65945D01*
X-27559D01*
Y-3937D01*
D02*
G37*
G36*
X41648Y66775D02*
X42266Y66519D01*
X42323D01*
Y-22638D01*
X-39370D01*
Y-34449D01*
X-40248D01*
Y-30762D01*
X-48335D01*
Y-34449D01*
X-49213D01*
Y-22638D01*
Y-14764D01*
X30512D01*
Y66929D01*
X41493D01*
X41648Y66775D01*
D02*
G37*
%LPC*%
G36*
X-65957Y144043D02*
X-69750D01*
Y140250D01*
X-65957D01*
Y144043D01*
D02*
G37*
G36*
X-75957D02*
X-79750D01*
Y140250D01*
X-75957D01*
Y144043D01*
D02*
G37*
G36*
X-70250D02*
X-74043D01*
Y140250D01*
X-70250D01*
Y144043D01*
D02*
G37*
G36*
X-80250D02*
X-84043D01*
Y140250D01*
X-80250D01*
Y144043D01*
D02*
G37*
G36*
X84043D02*
X80250D01*
Y140250D01*
X84043D01*
Y144043D01*
D02*
G37*
G36*
X74043D02*
X70250D01*
Y140250D01*
X74043D01*
Y144043D01*
D02*
G37*
G36*
X79750D02*
X75957D01*
Y140250D01*
X79750D01*
Y144043D01*
D02*
G37*
G36*
X69750D02*
X65957D01*
Y140250D01*
X69750D01*
Y144043D01*
D02*
G37*
G36*
X84043Y139750D02*
X80250D01*
Y135957D01*
X84043D01*
Y139750D01*
D02*
G37*
G36*
X79750D02*
X75957D01*
Y135957D01*
X79750D01*
Y139750D01*
D02*
G37*
G36*
X74043D02*
X70250D01*
Y135957D01*
X74043D01*
Y139750D01*
D02*
G37*
G36*
X69750D02*
X65957D01*
Y135957D01*
X69750D01*
Y139750D01*
D02*
G37*
G36*
X-65957Y139750D02*
X-69750D01*
Y135957D01*
X-65957D01*
Y139750D01*
D02*
G37*
G36*
X-70250D02*
X-74043D01*
Y135957D01*
X-70250D01*
Y139750D01*
D02*
G37*
G36*
X-75957D02*
X-79750D01*
Y135957D01*
X-75957D01*
Y139750D01*
D02*
G37*
G36*
X-80250D02*
X-84043D01*
Y135957D01*
X-80250D01*
Y139750D01*
D02*
G37*
G36*
X80532Y134043D02*
X79468D01*
X78439Y133768D01*
X77517Y133235D01*
X76765Y132483D01*
X76232Y131561D01*
X75957Y130532D01*
Y129468D01*
X76232Y128439D01*
X76765Y127517D01*
X77517Y126765D01*
X78439Y126232D01*
X79468Y125957D01*
X80532D01*
X81561Y126232D01*
X82483Y126765D01*
X83236Y127517D01*
X83768Y128439D01*
X84043Y129468D01*
Y130532D01*
X83768Y131561D01*
X83236Y132483D01*
X82483Y133235D01*
X81561Y133768D01*
X80532Y134043D01*
D02*
G37*
G36*
X70532D02*
X69468D01*
X68439Y133768D01*
X67517Y133235D01*
X66764Y132483D01*
X66232Y131561D01*
X65957Y130532D01*
Y129468D01*
X66232Y128439D01*
X66764Y127517D01*
X67517Y126765D01*
X68439Y126232D01*
X69468Y125957D01*
X70532D01*
X71561Y126232D01*
X72483Y126765D01*
X73235Y127517D01*
X73768Y128439D01*
X74043Y129468D01*
Y130532D01*
X73768Y131561D01*
X73235Y132483D01*
X72483Y133235D01*
X71561Y133768D01*
X70532Y134043D01*
D02*
G37*
G36*
X-69468D02*
X-70532D01*
X-71561Y133768D01*
X-72483Y133235D01*
X-73235Y132483D01*
X-73768Y131561D01*
X-74043Y130532D01*
Y129468D01*
X-73768Y128439D01*
X-73235Y127517D01*
X-72483Y126765D01*
X-71561Y126232D01*
X-70532Y125957D01*
X-69468D01*
X-68439Y126232D01*
X-67517Y126765D01*
X-66764Y127517D01*
X-66232Y128439D01*
X-65957Y129468D01*
Y130532D01*
X-66232Y131561D01*
X-66764Y132483D01*
X-67517Y133235D01*
X-68439Y133768D01*
X-69468Y134043D01*
D02*
G37*
G36*
X-79468D02*
X-80532D01*
X-81561Y133768D01*
X-82483Y133235D01*
X-83236Y132483D01*
X-83768Y131561D01*
X-84043Y130532D01*
Y129468D01*
X-83768Y128439D01*
X-83236Y127517D01*
X-82483Y126765D01*
X-81561Y126232D01*
X-80532Y125957D01*
X-79468D01*
X-78439Y126232D01*
X-77517Y126765D01*
X-76765Y127517D01*
X-76232Y128439D01*
X-75957Y129468D01*
Y130532D01*
X-76232Y131561D01*
X-76765Y132483D01*
X-77517Y133235D01*
X-78439Y133768D01*
X-79468Y134043D01*
D02*
G37*
G36*
X80532Y124043D02*
X79468D01*
X78439Y123768D01*
X77517Y123235D01*
X76765Y122483D01*
X76232Y121561D01*
X75957Y120532D01*
Y119468D01*
X76232Y118439D01*
X76765Y117517D01*
X77517Y116765D01*
X78439Y116232D01*
X79468Y115957D01*
X80532D01*
X81561Y116232D01*
X82483Y116765D01*
X83236Y117517D01*
X83768Y118439D01*
X84043Y119468D01*
Y120532D01*
X83768Y121561D01*
X83236Y122483D01*
X82483Y123235D01*
X81561Y123768D01*
X80532Y124043D01*
D02*
G37*
G36*
X70532D02*
X69468D01*
X68439Y123768D01*
X67517Y123235D01*
X66764Y122483D01*
X66232Y121561D01*
X65957Y120532D01*
Y119468D01*
X66232Y118439D01*
X66764Y117517D01*
X67517Y116765D01*
X68439Y116232D01*
X69468Y115957D01*
X70532D01*
X71561Y116232D01*
X72483Y116765D01*
X73235Y117517D01*
X73768Y118439D01*
X74043Y119468D01*
Y120532D01*
X73768Y121561D01*
X73235Y122483D01*
X72483Y123235D01*
X71561Y123768D01*
X70532Y124043D01*
D02*
G37*
G36*
X-69468D02*
X-70532D01*
X-71561Y123768D01*
X-72483Y123235D01*
X-73235Y122483D01*
X-73768Y121561D01*
X-74043Y120532D01*
Y119468D01*
X-73768Y118439D01*
X-73235Y117517D01*
X-72483Y116765D01*
X-71561Y116232D01*
X-70532Y115957D01*
X-69468D01*
X-68439Y116232D01*
X-67517Y116765D01*
X-66764Y117517D01*
X-66232Y118439D01*
X-65957Y119468D01*
Y120532D01*
X-66232Y121561D01*
X-66764Y122483D01*
X-67517Y123235D01*
X-68439Y123768D01*
X-69468Y124043D01*
D02*
G37*
G36*
X-79468D02*
X-80532D01*
X-81561Y123768D01*
X-82483Y123235D01*
X-83236Y122483D01*
X-83768Y121561D01*
X-84043Y120532D01*
Y119468D01*
X-83768Y118439D01*
X-83236Y117517D01*
X-82483Y116765D01*
X-81561Y116232D01*
X-80532Y115957D01*
X-79468D01*
X-78439Y116232D01*
X-77517Y116765D01*
X-76765Y117517D01*
X-76232Y118439D01*
X-75957Y119468D01*
Y120532D01*
X-76232Y121561D01*
X-76765Y122483D01*
X-77517Y123235D01*
X-78439Y123768D01*
X-79468Y124043D01*
D02*
G37*
G36*
X80532Y114043D02*
X79468D01*
X78439Y113768D01*
X77517Y113235D01*
X76765Y112483D01*
X76232Y111561D01*
X75957Y110532D01*
Y109468D01*
X76232Y108439D01*
X76765Y107517D01*
X77517Y106765D01*
X78439Y106232D01*
X79468Y105957D01*
X80532D01*
X81561Y106232D01*
X82483Y106765D01*
X83236Y107517D01*
X83768Y108439D01*
X84043Y109468D01*
Y110532D01*
X83768Y111561D01*
X83236Y112483D01*
X82483Y113235D01*
X81561Y113768D01*
X80532Y114043D01*
D02*
G37*
G36*
X70532D02*
X69468D01*
X68439Y113768D01*
X67517Y113235D01*
X66764Y112483D01*
X66232Y111561D01*
X65957Y110532D01*
Y109468D01*
X66232Y108439D01*
X66764Y107517D01*
X67517Y106765D01*
X68439Y106232D01*
X69468Y105957D01*
X70532D01*
X71561Y106232D01*
X72483Y106765D01*
X73235Y107517D01*
X73768Y108439D01*
X74043Y109468D01*
Y110532D01*
X73768Y111561D01*
X73235Y112483D01*
X72483Y113235D01*
X71561Y113768D01*
X70532Y114043D01*
D02*
G37*
G36*
X-69468D02*
X-70532D01*
X-71561Y113768D01*
X-72483Y113235D01*
X-73235Y112483D01*
X-73768Y111561D01*
X-74043Y110532D01*
Y109468D01*
X-73768Y108439D01*
X-73235Y107517D01*
X-72483Y106765D01*
X-71561Y106232D01*
X-70532Y105957D01*
X-69468D01*
X-68439Y106232D01*
X-67517Y106765D01*
X-66764Y107517D01*
X-66232Y108439D01*
X-65957Y109468D01*
Y110532D01*
X-66232Y111561D01*
X-66764Y112483D01*
X-67517Y113235D01*
X-68439Y113768D01*
X-69468Y114043D01*
D02*
G37*
G36*
X-79468D02*
X-80532D01*
X-81561Y113768D01*
X-82483Y113235D01*
X-83236Y112483D01*
X-83768Y111561D01*
X-84043Y110532D01*
Y109468D01*
X-83768Y108439D01*
X-83236Y107517D01*
X-82483Y106765D01*
X-81561Y106232D01*
X-80532Y105957D01*
X-79468D01*
X-78439Y106232D01*
X-77517Y106765D01*
X-76765Y107517D01*
X-76232Y108439D01*
X-75957Y109468D01*
Y110532D01*
X-76232Y111561D01*
X-76765Y112483D01*
X-77517Y113235D01*
X-78439Y113768D01*
X-79468Y114043D01*
D02*
G37*
G36*
X80532Y104043D02*
X79468D01*
X78439Y103768D01*
X77517Y103235D01*
X76765Y102483D01*
X76232Y101561D01*
X75957Y100532D01*
Y99468D01*
X76232Y98439D01*
X76765Y97517D01*
X77517Y96764D01*
X78439Y96232D01*
X79468Y95957D01*
X80532D01*
X81561Y96232D01*
X82483Y96764D01*
X83236Y97517D01*
X83768Y98439D01*
X84043Y99468D01*
Y100532D01*
X83768Y101561D01*
X83236Y102483D01*
X82483Y103235D01*
X81561Y103768D01*
X80532Y104043D01*
D02*
G37*
G36*
X70532D02*
X69468D01*
X68439Y103768D01*
X67517Y103235D01*
X66764Y102483D01*
X66232Y101561D01*
X65957Y100532D01*
Y99468D01*
X66232Y98439D01*
X66764Y97517D01*
X67517Y96764D01*
X68439Y96232D01*
X69468Y95957D01*
X70532D01*
X71561Y96232D01*
X72483Y96764D01*
X73235Y97517D01*
X73768Y98439D01*
X74043Y99468D01*
Y100532D01*
X73768Y101561D01*
X73235Y102483D01*
X72483Y103235D01*
X71561Y103768D01*
X70532Y104043D01*
D02*
G37*
G36*
X-69468D02*
X-70532D01*
X-71561Y103768D01*
X-72483Y103235D01*
X-73235Y102483D01*
X-73768Y101561D01*
X-74043Y100532D01*
Y99468D01*
X-73768Y98439D01*
X-73235Y97517D01*
X-72483Y96764D01*
X-71561Y96232D01*
X-70532Y95957D01*
X-69468D01*
X-68439Y96232D01*
X-67517Y96764D01*
X-66764Y97517D01*
X-66232Y98439D01*
X-65957Y99468D01*
Y100532D01*
X-66232Y101561D01*
X-66764Y102483D01*
X-67517Y103235D01*
X-68439Y103768D01*
X-69468Y104043D01*
D02*
G37*
G36*
X-79468D02*
X-80532D01*
X-81561Y103768D01*
X-82483Y103235D01*
X-83236Y102483D01*
X-83768Y101561D01*
X-84043Y100532D01*
Y99468D01*
X-83768Y98439D01*
X-83236Y97517D01*
X-82483Y96764D01*
X-81561Y96232D01*
X-80532Y95957D01*
X-79468D01*
X-78439Y96232D01*
X-77517Y96764D01*
X-76765Y97517D01*
X-76232Y98439D01*
X-75957Y99468D01*
Y100532D01*
X-76232Y101561D01*
X-76765Y102483D01*
X-77517Y103235D01*
X-78439Y103768D01*
X-79468Y104043D01*
D02*
G37*
G36*
X-69468Y94043D02*
X-69750D01*
Y90250D01*
X-65957D01*
Y90532D01*
X-66232Y91561D01*
X-66764Y92483D01*
X-67517Y93235D01*
X-68439Y93768D01*
X-69468Y94043D01*
D02*
G37*
G36*
X-79468D02*
X-79750D01*
Y90250D01*
X-75957D01*
Y90532D01*
X-76232Y91561D01*
X-76765Y92483D01*
X-77517Y93235D01*
X-78439Y93768D01*
X-79468Y94043D01*
D02*
G37*
G36*
X-70250D02*
X-70532D01*
X-71561Y93768D01*
X-72483Y93235D01*
X-73235Y92483D01*
X-73768Y91561D01*
X-74043Y90532D01*
Y90250D01*
X-70250D01*
Y94043D01*
D02*
G37*
G36*
X-80250D02*
X-80532D01*
X-81561Y93768D01*
X-82483Y93235D01*
X-83236Y92483D01*
X-83768Y91561D01*
X-84043Y90532D01*
Y90250D01*
X-80250D01*
Y94043D01*
D02*
G37*
G36*
X80532D02*
X80250D01*
Y90250D01*
X84043D01*
Y90532D01*
X83768Y91561D01*
X83236Y92483D01*
X82483Y93235D01*
X81561Y93768D01*
X80532Y94043D01*
D02*
G37*
G36*
X70532D02*
X70250D01*
Y90250D01*
X74043D01*
Y90532D01*
X73768Y91561D01*
X73235Y92483D01*
X72483Y93235D01*
X71561Y93768D01*
X70532Y94043D01*
D02*
G37*
G36*
X79750D02*
X79468D01*
X78439Y93768D01*
X77517Y93235D01*
X76765Y92483D01*
X76232Y91561D01*
X75957Y90532D01*
Y90250D01*
X79750D01*
Y94043D01*
D02*
G37*
G36*
X69750D02*
X69468D01*
X68439Y93768D01*
X67517Y93235D01*
X66764Y92483D01*
X66232Y91561D01*
X65957Y90532D01*
Y90250D01*
X69750D01*
Y94043D01*
D02*
G37*
G36*
X84043Y89750D02*
X80250D01*
Y85957D01*
X80532D01*
X81561Y86232D01*
X82483Y86765D01*
X83236Y87517D01*
X83768Y88439D01*
X84043Y89468D01*
Y89750D01*
D02*
G37*
G36*
X79750D02*
X75957D01*
Y89468D01*
X76232Y88439D01*
X76765Y87517D01*
X77517Y86765D01*
X78439Y86232D01*
X79468Y85957D01*
X79750D01*
Y89750D01*
D02*
G37*
G36*
X74043D02*
X70250D01*
Y85957D01*
X70532D01*
X71561Y86232D01*
X72483Y86765D01*
X73235Y87517D01*
X73768Y88439D01*
X74043Y89468D01*
Y89750D01*
D02*
G37*
G36*
X69750D02*
X65957D01*
Y89468D01*
X66232Y88439D01*
X66764Y87517D01*
X67517Y86765D01*
X68439Y86232D01*
X69468Y85957D01*
X69750D01*
Y89750D01*
D02*
G37*
G36*
X-65957Y89750D02*
X-69750D01*
Y85957D01*
X-69468D01*
X-68439Y86232D01*
X-67517Y86765D01*
X-66764Y87517D01*
X-66232Y88439D01*
X-65957Y89468D01*
Y89750D01*
D02*
G37*
G36*
X-70250D02*
X-74043D01*
Y89468D01*
X-73768Y88439D01*
X-73235Y87517D01*
X-72483Y86765D01*
X-71561Y86232D01*
X-70532Y85957D01*
X-70250D01*
Y89750D01*
D02*
G37*
G36*
X-75957D02*
X-79750D01*
Y85957D01*
X-79468D01*
X-78439Y86232D01*
X-77517Y86765D01*
X-76765Y87517D01*
X-76232Y88439D01*
X-75957Y89468D01*
Y89750D01*
D02*
G37*
G36*
X-80250D02*
X-84043D01*
Y89468D01*
X-83768Y88439D01*
X-83236Y87517D01*
X-82483Y86765D01*
X-81561Y86232D01*
X-80532Y85957D01*
X-80250D01*
Y89750D01*
D02*
G37*
G36*
X80532Y84043D02*
X79468D01*
X78439Y83768D01*
X77517Y83236D01*
X76765Y82483D01*
X76232Y81561D01*
X75957Y80532D01*
Y79468D01*
X76232Y78439D01*
X76765Y77517D01*
X77517Y76765D01*
X78439Y76232D01*
X79468Y75957D01*
X80532D01*
X81561Y76232D01*
X82483Y76765D01*
X83236Y77517D01*
X83768Y78439D01*
X84043Y79468D01*
Y80532D01*
X83768Y81561D01*
X83236Y82483D01*
X82483Y83236D01*
X81561Y83768D01*
X80532Y84043D01*
D02*
G37*
G36*
X70532D02*
X69468D01*
X68439Y83768D01*
X67517Y83236D01*
X66764Y82483D01*
X66232Y81561D01*
X65957Y80532D01*
Y79468D01*
X66232Y78439D01*
X66764Y77517D01*
X67517Y76765D01*
X68439Y76232D01*
X69468Y75957D01*
X70532D01*
X71561Y76232D01*
X72483Y76765D01*
X73235Y77517D01*
X73768Y78439D01*
X74043Y79468D01*
Y80532D01*
X73768Y81561D01*
X73235Y82483D01*
X72483Y83236D01*
X71561Y83768D01*
X70532Y84043D01*
D02*
G37*
G36*
X-69468D02*
X-70532D01*
X-71561Y83768D01*
X-72483Y83236D01*
X-73235Y82483D01*
X-73768Y81561D01*
X-74043Y80532D01*
Y79468D01*
X-73768Y78439D01*
X-73235Y77517D01*
X-72483Y76765D01*
X-71561Y76232D01*
X-70532Y75957D01*
X-69468D01*
X-68439Y76232D01*
X-67517Y76765D01*
X-66764Y77517D01*
X-66232Y78439D01*
X-65957Y79468D01*
Y80532D01*
X-66232Y81561D01*
X-66764Y82483D01*
X-67517Y83236D01*
X-68439Y83768D01*
X-69468Y84043D01*
D02*
G37*
G36*
X-79468D02*
X-80532D01*
X-81561Y83768D01*
X-82483Y83236D01*
X-83236Y82483D01*
X-83768Y81561D01*
X-84043Y80532D01*
Y79468D01*
X-83768Y78439D01*
X-83236Y77517D01*
X-82483Y76765D01*
X-81561Y76232D01*
X-80532Y75957D01*
X-79468D01*
X-78439Y76232D01*
X-77517Y76765D01*
X-76765Y77517D01*
X-76232Y78439D01*
X-75957Y79468D01*
Y80532D01*
X-76232Y81561D01*
X-76765Y82483D01*
X-77517Y83236D01*
X-78439Y83768D01*
X-79468Y84043D01*
D02*
G37*
G36*
X80532Y74043D02*
X79468D01*
X78439Y73768D01*
X77517Y73235D01*
X76765Y72483D01*
X76232Y71561D01*
X75957Y70532D01*
Y69468D01*
X76232Y68439D01*
X76765Y67517D01*
X77517Y66764D01*
X78439Y66232D01*
X79468Y65957D01*
X80532D01*
X81561Y66232D01*
X82483Y66764D01*
X83236Y67517D01*
X83768Y68439D01*
X84043Y69468D01*
Y70532D01*
X83768Y71561D01*
X83236Y72483D01*
X82483Y73235D01*
X81561Y73768D01*
X80532Y74043D01*
D02*
G37*
G36*
X70532D02*
X69468D01*
X68439Y73768D01*
X67517Y73235D01*
X66764Y72483D01*
X66232Y71561D01*
X65957Y70532D01*
Y69468D01*
X66232Y68439D01*
X66764Y67517D01*
X67517Y66764D01*
X68439Y66232D01*
X69468Y65957D01*
X70532D01*
X71561Y66232D01*
X72483Y66764D01*
X73235Y67517D01*
X73768Y68439D01*
X74043Y69468D01*
Y70532D01*
X73768Y71561D01*
X73235Y72483D01*
X72483Y73235D01*
X71561Y73768D01*
X70532Y74043D01*
D02*
G37*
G36*
X-69468D02*
X-70532D01*
X-71561Y73768D01*
X-72483Y73235D01*
X-73235Y72483D01*
X-73768Y71561D01*
X-74043Y70532D01*
Y69468D01*
X-73768Y68439D01*
X-73235Y67517D01*
X-72483Y66764D01*
X-71561Y66232D01*
X-70532Y65957D01*
X-69468D01*
X-68439Y66232D01*
X-67517Y66764D01*
X-66764Y67517D01*
X-66232Y68439D01*
X-65957Y69468D01*
Y70532D01*
X-66232Y71561D01*
X-66764Y72483D01*
X-67517Y73235D01*
X-68439Y73768D01*
X-69468Y74043D01*
D02*
G37*
G36*
X-79468D02*
X-80532D01*
X-81561Y73768D01*
X-82483Y73235D01*
X-83236Y72483D01*
X-83768Y71561D01*
X-84043Y70532D01*
Y69468D01*
X-83768Y68439D01*
X-83236Y67517D01*
X-82483Y66764D01*
X-81561Y66232D01*
X-80532Y65957D01*
X-79468D01*
X-78439Y66232D01*
X-77517Y66764D01*
X-76765Y67517D01*
X-76232Y68439D01*
X-75957Y69468D01*
Y70532D01*
X-76232Y71561D01*
X-76765Y72483D01*
X-77517Y73235D01*
X-78439Y73768D01*
X-79468Y74043D01*
D02*
G37*
G36*
X80532Y64043D02*
X79468D01*
X78439Y63768D01*
X77517Y63235D01*
X76765Y62483D01*
X76232Y61561D01*
X75957Y60532D01*
Y59468D01*
X76232Y58439D01*
X76765Y57517D01*
X77517Y56765D01*
X78439Y56232D01*
X79468Y55957D01*
X80532D01*
X81561Y56232D01*
X82483Y56765D01*
X83236Y57517D01*
X83768Y58439D01*
X84043Y59468D01*
Y60532D01*
X83768Y61561D01*
X83236Y62483D01*
X82483Y63235D01*
X81561Y63768D01*
X80532Y64043D01*
D02*
G37*
G36*
X70532D02*
X69468D01*
X68439Y63768D01*
X67517Y63235D01*
X66764Y62483D01*
X66232Y61561D01*
X65957Y60532D01*
Y59468D01*
X66232Y58439D01*
X66764Y57517D01*
X67517Y56765D01*
X68439Y56232D01*
X69468Y55957D01*
X70532D01*
X71561Y56232D01*
X72483Y56765D01*
X73235Y57517D01*
X73768Y58439D01*
X74043Y59468D01*
Y60532D01*
X73768Y61561D01*
X73235Y62483D01*
X72483Y63235D01*
X71561Y63768D01*
X70532Y64043D01*
D02*
G37*
G36*
X-69468D02*
X-70532D01*
X-71561Y63768D01*
X-72483Y63235D01*
X-73235Y62483D01*
X-73768Y61561D01*
X-74043Y60532D01*
Y59468D01*
X-73768Y58439D01*
X-73235Y57517D01*
X-72483Y56765D01*
X-71561Y56232D01*
X-70532Y55957D01*
X-69468D01*
X-68439Y56232D01*
X-67517Y56765D01*
X-66764Y57517D01*
X-66232Y58439D01*
X-65957Y59468D01*
Y60532D01*
X-66232Y61561D01*
X-66764Y62483D01*
X-67517Y63235D01*
X-68439Y63768D01*
X-69468Y64043D01*
D02*
G37*
G36*
X-79468D02*
X-80532D01*
X-81561Y63768D01*
X-82483Y63235D01*
X-83236Y62483D01*
X-83768Y61561D01*
X-84043Y60532D01*
Y59468D01*
X-83768Y58439D01*
X-83236Y57517D01*
X-82483Y56765D01*
X-81561Y56232D01*
X-80532Y55957D01*
X-79468D01*
X-78439Y56232D01*
X-77517Y56765D01*
X-76765Y57517D01*
X-76232Y58439D01*
X-75957Y59468D01*
Y60532D01*
X-76232Y61561D01*
X-76765Y62483D01*
X-77517Y63235D01*
X-78439Y63768D01*
X-79468Y64043D01*
D02*
G37*
G36*
X-57266Y89681D02*
X-57934D01*
X-58552Y89425D01*
X-59025Y88952D01*
X-59281Y88334D01*
Y87761D01*
X-62889Y84153D01*
X-63110Y83822D01*
X-63188Y83432D01*
Y58254D01*
X-67954Y53488D01*
X-68439Y53768D01*
X-69468Y54043D01*
X-70532D01*
X-71561Y53768D01*
X-72483Y53236D01*
X-73235Y52483D01*
X-73768Y51561D01*
X-74043Y50532D01*
Y49468D01*
X-73768Y48439D01*
X-73235Y47517D01*
X-72483Y46765D01*
X-71561Y46232D01*
X-70532Y45957D01*
X-69468D01*
X-68439Y46232D01*
X-67517Y46765D01*
X-66764Y47517D01*
X-66232Y48439D01*
X-65957Y49468D01*
Y50532D01*
X-66232Y51561D01*
X-66512Y52046D01*
X-61447Y57111D01*
X-61226Y57442D01*
X-61149Y57832D01*
Y83009D01*
X-57839Y86319D01*
X-57266D01*
X-56648Y86575D01*
X-56175Y87048D01*
X-55919Y87666D01*
Y88334D01*
X-56175Y88952D01*
X-56648Y89425D01*
X-57266Y89681D01*
D02*
G37*
G36*
X80532Y54043D02*
X79468D01*
X78439Y53768D01*
X77517Y53236D01*
X76765Y52483D01*
X76232Y51561D01*
X75957Y50532D01*
Y49468D01*
X76232Y48439D01*
X76765Y47517D01*
X77517Y46765D01*
X78439Y46232D01*
X79468Y45957D01*
X80532D01*
X81561Y46232D01*
X82483Y46765D01*
X83236Y47517D01*
X83768Y48439D01*
X84043Y49468D01*
Y50532D01*
X83768Y51561D01*
X83236Y52483D01*
X82483Y53236D01*
X81561Y53768D01*
X80532Y54043D01*
D02*
G37*
G36*
X57826Y89989D02*
X57157D01*
X56539Y89733D01*
X56067Y89261D01*
X55811Y88643D01*
Y87974D01*
X56067Y87356D01*
X56539Y86883D01*
X57157Y86627D01*
X57731D01*
X60321Y84037D01*
Y59722D01*
X60399Y59332D01*
X60620Y59001D01*
X66952Y52670D01*
X66764Y52483D01*
X66232Y51561D01*
X65957Y50532D01*
Y49468D01*
X66232Y48439D01*
X66764Y47517D01*
X67517Y46765D01*
X68439Y46232D01*
X69468Y45957D01*
X70532D01*
X71561Y46232D01*
X72483Y46765D01*
X73235Y47517D01*
X73768Y48439D01*
X74043Y49468D01*
Y50532D01*
X73768Y51561D01*
X73235Y52483D01*
X72483Y53236D01*
X71561Y53768D01*
X70532Y54043D01*
X69468D01*
X68674Y53831D01*
X62361Y60144D01*
Y84459D01*
X62283Y84849D01*
X62062Y85180D01*
X59173Y88069D01*
Y88643D01*
X58917Y89261D01*
X58444Y89733D01*
X57826Y89989D01*
D02*
G37*
G36*
X-79468Y54043D02*
X-80532D01*
X-81561Y53768D01*
X-82483Y53236D01*
X-83236Y52483D01*
X-83768Y51561D01*
X-84043Y50532D01*
Y49468D01*
X-83768Y48439D01*
X-83236Y47517D01*
X-82483Y46765D01*
X-81561Y46232D01*
X-80532Y45957D01*
X-79468D01*
X-78439Y46232D01*
X-77517Y46765D01*
X-76765Y47517D01*
X-76232Y48439D01*
X-75957Y49468D01*
Y50532D01*
X-76232Y51561D01*
X-76765Y52483D01*
X-77517Y53236D01*
X-78439Y53768D01*
X-79468Y54043D01*
D02*
G37*
G36*
X-69468Y44043D02*
X-69750D01*
Y40250D01*
X-65957D01*
Y40532D01*
X-66232Y41561D01*
X-66764Y42483D01*
X-67517Y43235D01*
X-68439Y43768D01*
X-69468Y44043D01*
D02*
G37*
G36*
X-79468D02*
X-79750D01*
Y40250D01*
X-75957D01*
Y40532D01*
X-76232Y41561D01*
X-76765Y42483D01*
X-77517Y43235D01*
X-78439Y43768D01*
X-79468Y44043D01*
D02*
G37*
G36*
X-70250D02*
X-70532D01*
X-71561Y43768D01*
X-72483Y43235D01*
X-73235Y42483D01*
X-73768Y41561D01*
X-74043Y40532D01*
Y40250D01*
X-70250D01*
Y44043D01*
D02*
G37*
G36*
X-80250D02*
X-80532D01*
X-81561Y43768D01*
X-82483Y43235D01*
X-83236Y42483D01*
X-83768Y41561D01*
X-84043Y40532D01*
Y40250D01*
X-80250D01*
Y44043D01*
D02*
G37*
G36*
X80532D02*
X80250D01*
Y40250D01*
X84043D01*
Y40532D01*
X83768Y41561D01*
X83236Y42483D01*
X82483Y43235D01*
X81561Y43768D01*
X80532Y44043D01*
D02*
G37*
G36*
X70532D02*
X70250D01*
Y40250D01*
X74043D01*
Y40532D01*
X73768Y41561D01*
X73235Y42483D01*
X72483Y43235D01*
X71561Y43768D01*
X70532Y44043D01*
D02*
G37*
G36*
X79750D02*
X79468D01*
X78439Y43768D01*
X77517Y43235D01*
X76765Y42483D01*
X76232Y41561D01*
X75957Y40532D01*
Y40250D01*
X79750D01*
Y44043D01*
D02*
G37*
G36*
X69750D02*
X69468D01*
X68439Y43768D01*
X67517Y43235D01*
X66764Y42483D01*
X66232Y41561D01*
X65957Y40532D01*
Y40250D01*
X69750D01*
Y44043D01*
D02*
G37*
G36*
X84043Y39750D02*
X80250D01*
Y35957D01*
X80532D01*
X81561Y36232D01*
X82483Y36765D01*
X83236Y37517D01*
X83768Y38439D01*
X84043Y39468D01*
Y39750D01*
D02*
G37*
G36*
X79750D02*
X75957D01*
Y39468D01*
X76232Y38439D01*
X76765Y37517D01*
X77517Y36765D01*
X78439Y36232D01*
X79468Y35957D01*
X79750D01*
Y39750D01*
D02*
G37*
G36*
X74043D02*
X70250D01*
Y35957D01*
X70532D01*
X71561Y36232D01*
X72483Y36765D01*
X73235Y37517D01*
X73768Y38439D01*
X74043Y39468D01*
Y39750D01*
D02*
G37*
G36*
X69750D02*
X65957D01*
Y39468D01*
X66232Y38439D01*
X66764Y37517D01*
X67517Y36765D01*
X68439Y36232D01*
X69468Y35957D01*
X69750D01*
Y39750D01*
D02*
G37*
G36*
X-65957Y39750D02*
X-69750D01*
Y35957D01*
X-69468D01*
X-68439Y36232D01*
X-67517Y36765D01*
X-66764Y37517D01*
X-66232Y38439D01*
X-65957Y39468D01*
Y39750D01*
D02*
G37*
G36*
X-70250D02*
X-74043D01*
Y39468D01*
X-73768Y38439D01*
X-73235Y37517D01*
X-72483Y36765D01*
X-71561Y36232D01*
X-70532Y35957D01*
X-70250D01*
Y39750D01*
D02*
G37*
G36*
X-75957D02*
X-79750D01*
Y35957D01*
X-79468D01*
X-78439Y36232D01*
X-77517Y36765D01*
X-76765Y37517D01*
X-76232Y38439D01*
X-75957Y39468D01*
Y39750D01*
D02*
G37*
G36*
X-80250D02*
X-84043D01*
Y39468D01*
X-83768Y38439D01*
X-83236Y37517D01*
X-82483Y36765D01*
X-81561Y36232D01*
X-80532Y35957D01*
X-80250D01*
Y39750D01*
D02*
G37*
G36*
X-57055Y80371D02*
X-57724D01*
X-58342Y80115D01*
X-58815Y79642D01*
X-59071Y79024D01*
Y78355D01*
X-58815Y77737D01*
X-58409Y77332D01*
Y43033D01*
X-67954Y33488D01*
X-68439Y33768D01*
X-69468Y34043D01*
X-70532D01*
X-71561Y33768D01*
X-72483Y33235D01*
X-73235Y32483D01*
X-73768Y31561D01*
X-74043Y30532D01*
Y29468D01*
X-73768Y28439D01*
X-73235Y27517D01*
X-72483Y26765D01*
X-71561Y26232D01*
X-70532Y25957D01*
X-69468D01*
X-68439Y26232D01*
X-67517Y26765D01*
X-66764Y27517D01*
X-66232Y28439D01*
X-65957Y29468D01*
Y30532D01*
X-66232Y31561D01*
X-66512Y32046D01*
X-56669Y41889D01*
X-56448Y42220D01*
X-56370Y42610D01*
Y77332D01*
X-55965Y77737D01*
X-55709Y78355D01*
Y79024D01*
X-55965Y79642D01*
X-56437Y80115D01*
X-57055Y80371D01*
D02*
G37*
G36*
X80532Y34043D02*
X79468D01*
X78439Y33768D01*
X77517Y33235D01*
X76765Y32483D01*
X76232Y31561D01*
X75957Y30532D01*
Y29468D01*
X76232Y28439D01*
X76765Y27517D01*
X77517Y26765D01*
X78439Y26232D01*
X79468Y25957D01*
X80532D01*
X81561Y26232D01*
X82483Y26765D01*
X83236Y27517D01*
X83768Y28439D01*
X84043Y29468D01*
Y30532D01*
X83768Y31561D01*
X83236Y32483D01*
X82483Y33235D01*
X81561Y33768D01*
X80532Y34043D01*
D02*
G37*
G36*
X57834Y79981D02*
X57166D01*
X56548Y79725D01*
X56075Y79252D01*
X55819Y78634D01*
Y77966D01*
X56075Y77348D01*
X56480Y76942D01*
Y42500D01*
X56558Y42110D01*
X56779Y41779D01*
X66512Y32046D01*
X66232Y31561D01*
X65957Y30532D01*
Y29468D01*
X66232Y28439D01*
X66764Y27517D01*
X67517Y26765D01*
X68439Y26232D01*
X69468Y25957D01*
X70532D01*
X71561Y26232D01*
X72483Y26765D01*
X73235Y27517D01*
X73768Y28439D01*
X74043Y29468D01*
Y30532D01*
X73768Y31561D01*
X73235Y32483D01*
X72483Y33235D01*
X71561Y33768D01*
X70532Y34043D01*
X69468D01*
X68439Y33768D01*
X67954Y33488D01*
X58520Y42922D01*
Y76942D01*
X58925Y77348D01*
X59181Y77966D01*
Y78634D01*
X58925Y79252D01*
X58452Y79725D01*
X57834Y79981D01*
D02*
G37*
G36*
X-79468Y34043D02*
X-80532D01*
X-81561Y33768D01*
X-82483Y33235D01*
X-83236Y32483D01*
X-83768Y31561D01*
X-84043Y30532D01*
Y29468D01*
X-83768Y28439D01*
X-83236Y27517D01*
X-82483Y26765D01*
X-81561Y26232D01*
X-80532Y25957D01*
X-79468D01*
X-78439Y26232D01*
X-77517Y26765D01*
X-76765Y27517D01*
X-76232Y28439D01*
X-75957Y29468D01*
Y30532D01*
X-76232Y31561D01*
X-76765Y32483D01*
X-77517Y33235D01*
X-78439Y33768D01*
X-79468Y34043D01*
D02*
G37*
G36*
X80532Y24043D02*
X79468D01*
X78439Y23768D01*
X77517Y23235D01*
X76765Y22483D01*
X76232Y21561D01*
X75957Y20532D01*
Y19468D01*
X76232Y18439D01*
X76765Y17517D01*
X77517Y16765D01*
X78439Y16232D01*
X79468Y15957D01*
X80532D01*
X81561Y16232D01*
X82483Y16765D01*
X83236Y17517D01*
X83768Y18439D01*
X84043Y19468D01*
Y20532D01*
X83768Y21561D01*
X83236Y22483D01*
X82483Y23235D01*
X81561Y23768D01*
X80532Y24043D01*
D02*
G37*
G36*
X45434Y74681D02*
X44766D01*
X44148Y74425D01*
X43675Y73952D01*
X43419Y73334D01*
Y72666D01*
X43675Y72048D01*
X44148Y71575D01*
X44766Y71319D01*
X45339D01*
X51146Y65512D01*
Y37835D01*
X51223Y37444D01*
X51444Y37114D01*
X66512Y22046D01*
X66232Y21561D01*
X65957Y20532D01*
Y19468D01*
X66232Y18439D01*
X66764Y17517D01*
X67517Y16765D01*
X68439Y16232D01*
X69468Y15957D01*
X70532D01*
X71561Y16232D01*
X72483Y16765D01*
X73235Y17517D01*
X73768Y18439D01*
X74043Y19468D01*
Y20532D01*
X73768Y21561D01*
X73235Y22483D01*
X72483Y23235D01*
X71561Y23768D01*
X70532Y24043D01*
X69468D01*
X68439Y23768D01*
X67954Y23488D01*
X53185Y38257D01*
Y65935D01*
X53107Y66325D01*
X52886Y66656D01*
X46781Y72761D01*
Y73334D01*
X46525Y73952D01*
X46052Y74425D01*
X45434Y74681D01*
D02*
G37*
G36*
X-79468Y24043D02*
X-80532D01*
X-81561Y23768D01*
X-82483Y23235D01*
X-83236Y22483D01*
X-83768Y21561D01*
X-84043Y20532D01*
Y19468D01*
X-83768Y18439D01*
X-83236Y17517D01*
X-82483Y16765D01*
X-81561Y16232D01*
X-80532Y15957D01*
X-79468D01*
X-78439Y16232D01*
X-77517Y16765D01*
X-76765Y17517D01*
X-76232Y18439D01*
X-75957Y19468D01*
Y20532D01*
X-76232Y21561D01*
X-76765Y22483D01*
X-77517Y23235D01*
X-78439Y23768D01*
X-79468Y24043D01*
D02*
G37*
G36*
X80532Y14043D02*
X79468D01*
X78439Y13768D01*
X77517Y13236D01*
X76765Y12483D01*
X76232Y11561D01*
X75957Y10532D01*
Y9468D01*
X76232Y8439D01*
X76765Y7517D01*
X77517Y6764D01*
X78439Y6232D01*
X79468Y5957D01*
X80532D01*
X81561Y6232D01*
X82483Y6764D01*
X83236Y7517D01*
X83768Y8439D01*
X84043Y9468D01*
Y10532D01*
X83768Y11561D01*
X83236Y12483D01*
X82483Y13236D01*
X81561Y13768D01*
X80532Y14043D01*
D02*
G37*
G36*
X-79468D02*
X-80532D01*
X-81561Y13768D01*
X-82483Y13236D01*
X-83236Y12483D01*
X-83768Y11561D01*
X-84043Y10532D01*
Y9468D01*
X-83768Y8439D01*
X-83236Y7517D01*
X-82483Y6764D01*
X-81561Y6232D01*
X-80532Y5957D01*
X-79468D01*
X-78439Y6232D01*
X-77517Y6764D01*
X-76765Y7517D01*
X-76232Y8439D01*
X-75957Y9468D01*
Y10532D01*
X-76232Y11561D01*
X-76765Y12483D01*
X-77517Y13236D01*
X-78439Y13768D01*
X-79468Y14043D01*
D02*
G37*
G36*
X80532Y4043D02*
X79468D01*
X78439Y3768D01*
X77517Y3235D01*
X76765Y2483D01*
X76232Y1561D01*
X75957Y532D01*
Y-532D01*
X76232Y-1561D01*
X76765Y-2483D01*
X77517Y-3235D01*
X78439Y-3768D01*
X79468Y-4043D01*
X80532D01*
X81561Y-3768D01*
X82483Y-3235D01*
X83236Y-2483D01*
X83768Y-1561D01*
X84043Y-532D01*
Y532D01*
X83768Y1561D01*
X83236Y2483D01*
X82483Y3235D01*
X81561Y3768D01*
X80532Y4043D01*
D02*
G37*
G36*
X70532D02*
X69468D01*
X68439Y3768D01*
X67517Y3235D01*
X66764Y2483D01*
X66232Y1561D01*
X65957Y532D01*
Y-532D01*
X66232Y-1561D01*
X66764Y-2483D01*
X67517Y-3235D01*
X68439Y-3768D01*
X69468Y-4043D01*
X70532D01*
X71561Y-3768D01*
X72483Y-3235D01*
X73235Y-2483D01*
X73768Y-1561D01*
X74043Y-532D01*
Y532D01*
X73768Y1561D01*
X73235Y2483D01*
X72483Y3235D01*
X71561Y3768D01*
X70532Y4043D01*
D02*
G37*
G36*
X83925Y-6784D02*
X80132D01*
Y-10577D01*
X83925D01*
Y-6784D01*
D02*
G37*
G36*
X79632D02*
X75839D01*
Y-10577D01*
X79632D01*
Y-6784D01*
D02*
G37*
G36*
X83925Y-11077D02*
X80132D01*
Y-14870D01*
X83925D01*
Y-11077D01*
D02*
G37*
G36*
X79632D02*
X75839D01*
Y-14870D01*
X79632D01*
Y-11077D01*
D02*
G37*
G36*
X70414Y-6784D02*
X69350D01*
X68321Y-7059D01*
X67399Y-7591D01*
X66646Y-8344D01*
X66114Y-9266D01*
X65839Y-10294D01*
Y-11359D01*
X66114Y-12387D01*
X66646Y-13309D01*
X67399Y-14062D01*
X68321Y-14594D01*
X69350Y-14870D01*
X70414D01*
X71443Y-14594D01*
X72364Y-14062D01*
X73117Y-13309D01*
X73650Y-12387D01*
X73925Y-11359D01*
Y-10294D01*
X73650Y-9266D01*
X73117Y-8344D01*
X72364Y-7591D01*
X71443Y-7059D01*
X70414Y-6784D01*
D02*
G37*
G36*
X83925Y-18269D02*
X80132D01*
Y-22062D01*
X83925D01*
Y-18269D01*
D02*
G37*
G36*
X79632D02*
X75839D01*
Y-22062D01*
X79632D01*
Y-18269D01*
D02*
G37*
G36*
X83925Y-22562D02*
X80132D01*
Y-26355D01*
X83925D01*
Y-22562D01*
D02*
G37*
G36*
X79632D02*
X75839D01*
Y-26355D01*
X79632D01*
Y-22562D01*
D02*
G37*
G36*
X70414Y-18269D02*
X69350D01*
X68321Y-18544D01*
X67399Y-19077D01*
X66646Y-19829D01*
X66114Y-20751D01*
X65839Y-21780D01*
Y-22844D01*
X66114Y-23873D01*
X66646Y-24795D01*
X67399Y-25548D01*
X68321Y-26080D01*
X69350Y-26355D01*
X70414D01*
X71443Y-26080D01*
X72364Y-25548D01*
X73117Y-24795D01*
X73650Y-23873D01*
X73925Y-22844D01*
Y-21780D01*
X73650Y-20751D01*
X73117Y-19829D01*
X72364Y-19077D01*
X71443Y-18544D01*
X70414Y-18269D01*
D02*
G37*
G36*
X-54384Y-26469D02*
X-54666D01*
X-55695Y-26744D01*
X-56616Y-27276D01*
X-57369Y-28029D01*
X-57902Y-28951D01*
X-58177Y-29980D01*
Y-30262D01*
X-54384D01*
Y-26469D01*
D02*
G37*
G36*
X-74069D02*
X-74351D01*
X-75380Y-26744D01*
X-76301Y-27276D01*
X-77054Y-28029D01*
X-77587Y-28951D01*
X-77862Y-29980D01*
Y-30262D01*
X-74069D01*
Y-26469D01*
D02*
G37*
G36*
X83768Y-29754D02*
X79974D01*
Y-33547D01*
X83768D01*
Y-29754D01*
D02*
G37*
G36*
X79474D02*
X75681D01*
Y-33547D01*
X79474D01*
Y-29754D01*
D02*
G37*
G36*
X-54384Y-30762D02*
X-58177D01*
Y-31044D01*
X-57902Y-32072D01*
X-57369Y-32994D01*
X-56616Y-33747D01*
X-55695Y-34280D01*
X-54666Y-34555D01*
X-54384D01*
Y-30762D01*
D02*
G37*
G36*
X-74069D02*
X-77862D01*
Y-31044D01*
X-77587Y-32072D01*
X-77054Y-32994D01*
X-76301Y-33747D01*
X-75380Y-34280D01*
X-74351Y-34555D01*
X-74069D01*
Y-30762D01*
D02*
G37*
G36*
X83768Y-34047D02*
X79974D01*
Y-37841D01*
X83768D01*
Y-34047D01*
D02*
G37*
G36*
X79474D02*
X75681D01*
Y-37841D01*
X79474D01*
Y-34047D01*
D02*
G37*
G36*
X70257Y-29754D02*
X69192D01*
X68164Y-30029D01*
X67242Y-30562D01*
X66489Y-31315D01*
X65957Y-32237D01*
X65681Y-33265D01*
Y-34330D01*
X65957Y-35358D01*
X66489Y-36280D01*
X67242Y-37033D01*
X68164Y-37565D01*
X69192Y-37841D01*
X70257D01*
X71285Y-37565D01*
X72207Y-37033D01*
X72960Y-36280D01*
X73492Y-35358D01*
X73768Y-34330D01*
Y-33265D01*
X73492Y-32237D01*
X72960Y-31315D01*
X72207Y-30562D01*
X71285Y-30029D01*
X70257Y-29754D01*
D02*
G37*
G36*
X-64226Y-26469D02*
X-64509D01*
X-65537Y-26744D01*
X-66459Y-27276D01*
X-67212Y-28029D01*
X-67744Y-28951D01*
X-68020Y-29980D01*
Y-30262D01*
X-64226D01*
Y-26469D01*
D02*
G37*
G36*
X-40248D02*
X-44041D01*
Y-30262D01*
X-40248D01*
Y-26469D01*
D02*
G37*
G36*
X-44541D02*
X-48335D01*
Y-30262D01*
X-44541D01*
Y-26469D01*
D02*
G37*
%LPD*%
D16*
X-69190Y10810D02*
Y13487D01*
X-42000Y40677D02*
Y68300D01*
X-70000Y10000D02*
X-69190Y10810D01*
Y13487D02*
X-42000Y40677D01*
X57087Y-23622D02*
Y-2922D01*
X54165Y0D02*
X57087Y-2922D01*
X-63976Y-34449D02*
Y-30512D01*
X-62008Y-36417D02*
X36417D01*
X-63976Y-34449D02*
X-62008Y-36417D01*
X42323Y-38386D02*
X57087Y-23622D01*
X-83661Y-30512D02*
X-75787Y-38386D01*
X42323D01*
X36417Y-36417D02*
X52165Y-20669D01*
Y-3937D01*
X48228Y31772D02*
X70000Y10000D01*
X42600Y68200D02*
X48228Y62572D01*
Y31772D02*
Y62572D01*
X52165Y37835D02*
X70000Y20000D01*
X45100Y73000D02*
X52165Y65935D01*
Y37835D02*
Y65935D01*
X-42000Y68300D02*
X-41900Y68400D01*
X-44900Y45100D02*
Y73500D01*
X-70000Y20000D02*
X-44900Y45100D01*
X-57390Y42610D02*
Y78690D01*
X-70000Y30000D02*
X-57390Y42610D01*
X-62168Y83432D02*
X-57600Y88000D01*
X-70000Y50000D02*
X-62168Y57832D01*
Y83432D01*
X57500Y42500D02*
X70000Y30000D01*
X57500Y42500D02*
Y78300D01*
X57492Y88308D02*
X61341Y84459D01*
Y59722D02*
Y84459D01*
Y59722D02*
X69882Y51181D01*
D35*
X79724Y-33797D02*
D03*
X79882Y-10827D02*
D03*
Y-22312D02*
D03*
X-44291Y-30512D02*
D03*
D36*
X69724Y-33797D02*
D03*
X69882Y-10827D02*
D03*
Y-22312D02*
D03*
X80000Y30000D02*
D03*
Y20000D02*
D03*
Y10000D02*
D03*
Y0D02*
D03*
Y40000D02*
D03*
Y80000D02*
D03*
Y70000D02*
D03*
Y60000D02*
D03*
Y50000D02*
D03*
Y100000D02*
D03*
Y110000D02*
D03*
Y120000D02*
D03*
Y130000D02*
D03*
Y90000D02*
D03*
X-80000D02*
D03*
Y130000D02*
D03*
Y120000D02*
D03*
Y110000D02*
D03*
Y100000D02*
D03*
Y50000D02*
D03*
Y60000D02*
D03*
Y70000D02*
D03*
Y80000D02*
D03*
Y40000D02*
D03*
Y0D02*
D03*
Y10000D02*
D03*
Y20000D02*
D03*
Y30000D02*
D03*
X70000D02*
D03*
Y20000D02*
D03*
Y10000D02*
D03*
Y0D02*
D03*
Y40000D02*
D03*
Y80000D02*
D03*
Y70000D02*
D03*
Y60000D02*
D03*
Y50000D02*
D03*
Y100000D02*
D03*
Y110000D02*
D03*
Y120000D02*
D03*
Y130000D02*
D03*
Y90000D02*
D03*
X-70000Y30000D02*
D03*
Y20000D02*
D03*
Y10000D02*
D03*
Y0D02*
D03*
Y40000D02*
D03*
Y80000D02*
D03*
Y70000D02*
D03*
Y60000D02*
D03*
Y50000D02*
D03*
Y100000D02*
D03*
Y110000D02*
D03*
Y120000D02*
D03*
Y130000D02*
D03*
Y90000D02*
D03*
X-54134Y-30512D02*
D03*
X-63976D02*
D03*
X-73819D02*
D03*
X-83661D02*
D03*
D37*
X80000Y140000D02*
D03*
X-80000D02*
D03*
X70000D02*
D03*
X-70000D02*
D03*
D38*
X-55118Y11811D02*
D03*
D39*
X85040Y104725D02*
D03*
Y73228D02*
D03*
Y57480D02*
D03*
Y41732D02*
D03*
Y25984D02*
D03*
Y-21260D02*
D03*
Y-37008D02*
D03*
X77166Y104725D02*
D03*
X81103Y-29134D02*
D03*
X73229Y65354D02*
D03*
Y-29134D02*
D03*
X61417Y136221D02*
D03*
Y104725D02*
D03*
Y-37008D02*
D03*
X57480Y144095D02*
D03*
X53543Y-37008D02*
D03*
X49606Y144095D02*
D03*
X45669Y41732D02*
D03*
Y25984D02*
D03*
X49606Y18110D02*
D03*
X45669Y10236D02*
D03*
X49606Y2362D02*
D03*
X41732Y144095D02*
D03*
X33858D02*
D03*
X25984D02*
D03*
X22047Y136221D02*
D03*
X25984Y128347D02*
D03*
X22047Y120473D02*
D03*
X25984Y112599D02*
D03*
X22047Y104725D02*
D03*
X25984Y96851D02*
D03*
X22047Y88977D02*
D03*
X25984Y81103D02*
D03*
X22047Y73228D02*
D03*
X25984Y49606D02*
D03*
Y33858D02*
D03*
Y18110D02*
D03*
Y2362D02*
D03*
X18110Y144095D02*
D03*
X14173Y136221D02*
D03*
X18110Y128347D02*
D03*
X14173Y120473D02*
D03*
X18110Y112599D02*
D03*
X14173Y104725D02*
D03*
X18110Y96851D02*
D03*
X14173Y88977D02*
D03*
X18110Y81103D02*
D03*
Y65354D02*
D03*
X14173Y57480D02*
D03*
X18110Y49606D02*
D03*
X14173Y41732D02*
D03*
X18110Y33858D02*
D03*
X14173Y25984D02*
D03*
X18110Y18110D02*
D03*
X14173Y10236D02*
D03*
X18110Y2362D02*
D03*
X14173Y-5512D02*
D03*
X10236Y144095D02*
D03*
X6299Y136221D02*
D03*
X10236Y128347D02*
D03*
X6299Y120473D02*
D03*
X10236Y112599D02*
D03*
X6299Y104725D02*
D03*
X10236Y96851D02*
D03*
X6299Y88977D02*
D03*
X10236Y81103D02*
D03*
Y65354D02*
D03*
X6299Y57480D02*
D03*
X10236Y49606D02*
D03*
X6299Y41732D02*
D03*
X10236Y33858D02*
D03*
X6299Y25984D02*
D03*
X10236Y18110D02*
D03*
X6299Y10236D02*
D03*
X10236Y2362D02*
D03*
X6299Y-5512D02*
D03*
X2362Y144095D02*
D03*
X-1575Y136221D02*
D03*
X2362Y128347D02*
D03*
X-1575Y120473D02*
D03*
X2362Y112599D02*
D03*
X-1575Y104725D02*
D03*
X2362Y96851D02*
D03*
Y81103D02*
D03*
Y65354D02*
D03*
Y49606D02*
D03*
Y33858D02*
D03*
Y18110D02*
D03*
Y2362D02*
D03*
Y-29134D02*
D03*
X-5512Y144095D02*
D03*
X-9449Y136221D02*
D03*
X-5512Y128347D02*
D03*
X-9449Y120473D02*
D03*
X-5512Y112599D02*
D03*
X-9449Y104725D02*
D03*
X-5512Y96851D02*
D03*
X-9449Y73228D02*
D03*
X-5512Y65354D02*
D03*
X-9449Y57480D02*
D03*
X-5512Y49606D02*
D03*
X-9449Y41732D02*
D03*
X-5512Y33858D02*
D03*
X-9449Y25984D02*
D03*
X-5512Y18110D02*
D03*
X-9449Y10236D02*
D03*
X-5512Y2362D02*
D03*
X-9449Y-5512D02*
D03*
X-13386Y144095D02*
D03*
X-17323Y136221D02*
D03*
X-13386Y128347D02*
D03*
X-17323Y120473D02*
D03*
X-13386Y112599D02*
D03*
Y96851D02*
D03*
Y81103D02*
D03*
X-17323Y73228D02*
D03*
X-13386Y65354D02*
D03*
X-17323Y57480D02*
D03*
X-13386Y49606D02*
D03*
X-17323Y41732D02*
D03*
X-13386Y33858D02*
D03*
X-17323Y25984D02*
D03*
X-13386Y18110D02*
D03*
X-17323Y10236D02*
D03*
X-13386Y2362D02*
D03*
X-17323Y-5512D02*
D03*
X-21260Y144095D02*
D03*
X-25197Y136221D02*
D03*
X-21260Y128347D02*
D03*
X-25197Y120473D02*
D03*
X-21260Y112599D02*
D03*
X-25197Y88977D02*
D03*
X-21260Y81103D02*
D03*
Y65354D02*
D03*
Y49606D02*
D03*
Y33858D02*
D03*
Y18110D02*
D03*
Y2362D02*
D03*
Y-29134D02*
D03*
X-29134Y144095D02*
D03*
Y128347D02*
D03*
Y112599D02*
D03*
Y81103D02*
D03*
X-37008Y144095D02*
D03*
Y-29134D02*
D03*
X-44882Y144095D02*
D03*
X-52756D02*
D03*
X-60630D02*
D03*
X-64567Y136221D02*
D03*
X-60630Y128347D02*
D03*
X-64567Y120473D02*
D03*
X-60630Y49606D02*
D03*
X-64567Y41732D02*
D03*
X-60630Y33858D02*
D03*
X-72441Y104725D02*
D03*
X-76378Y65354D02*
D03*
Y33858D02*
D03*
X-80315Y-5512D02*
D03*
X-88189Y136221D02*
D03*
Y120473D02*
D03*
Y104725D02*
D03*
X-84252Y96851D02*
D03*
X-88189Y88977D02*
D03*
Y73228D02*
D03*
X-84252Y65354D02*
D03*
X-88189Y57480D02*
D03*
Y41732D02*
D03*
X-84252Y33858D02*
D03*
X-88189Y25984D02*
D03*
Y10236D02*
D03*
Y-5512D02*
D03*
X54165Y0D02*
D03*
X52165Y-3937D02*
D03*
X-35925Y58071D02*
D03*
X-32480Y56102D02*
D03*
X-32480Y60039D02*
D03*
X-39370Y56102D02*
D03*
Y60039D02*
D03*
X36417Y-3937D02*
D03*
X36909Y54626D02*
D03*
X40354Y52165D02*
D03*
X33465D02*
D03*
X40354Y57087D02*
D03*
X33465D02*
D03*
X-41900Y68400D02*
D03*
X-44900Y73500D02*
D03*
X-57600Y88000D02*
D03*
X-57390Y78690D02*
D03*
X45100Y73000D02*
D03*
X42600Y68200D02*
D03*
X57500Y78300D02*
D03*
X57492Y88308D02*
D03*
M02*
