G04*
G04 #@! TF.GenerationSoftware,Altium Limited,Altium Designer,21.0.8 (223)*
G04*
G04 Layer_Color=16711935*
%FSLAX25Y25*%
%MOIN*%
G70*
G04*
G04 #@! TF.SameCoordinates,E8E4A7BE-DB6F-4252-8793-17DB4AC6D9EE*
G04*
G04*
G04 #@! TF.FilePolarity,Positive*
G04*
G01*
G75*
%ADD11C,0.00984*%
D11*
X-90000Y-35000D02*
X-89904Y-35976D01*
X-89619Y-36913D01*
X-89157Y-37778D01*
X-88535Y-38535D01*
X-87778Y-39157D01*
X-86913Y-39619D01*
X-85975Y-39904D01*
X-85000Y-40000D01*
X85000D02*
X85975Y-39904D01*
X86913Y-39619D01*
X87778Y-39157D01*
X88535Y-38535D01*
X89157Y-37778D01*
X89619Y-36913D01*
X89904Y-35976D01*
X90000Y-35000D01*
X-85000Y165748D02*
X-85975Y165652D01*
X-86913Y165367D01*
X-87778Y164905D01*
X-88535Y164284D01*
X-89157Y163526D01*
X-89619Y162662D01*
X-89904Y161723D01*
X-90000Y160748D01*
X90000D02*
X89904Y161723D01*
X89619Y162662D01*
X89157Y163526D01*
X88535Y164284D01*
X87778Y164905D01*
X86913Y165367D01*
X85975Y165652D01*
X85000Y165748D01*
X-85000Y-40000D02*
X85000D01*
X90000Y-35000D02*
Y145000D01*
X-90000D02*
Y160748D01*
X90000Y143715D02*
Y160748D01*
X-85000Y165748D02*
X85000Y165748D01*
X-90000Y-35000D02*
Y145000D01*
M02*
