G04*
G04 #@! TF.GenerationSoftware,Altium Limited,Altium Designer,21.0.8 (223)*
G04*
G04 Layer_Color=16711935*
%FSLAX25Y25*%
%MOIN*%
G70*
G04*
G04 #@! TF.SameCoordinates,E8E4A7BE-DB6F-4252-8793-17DB4AC6D9EE*
G04*
G04*
G04 #@! TF.FilePolarity,Positive*
G04*
G01*
G75*
%ADD13C,0.00100*%
%ADD41C,0.00700*%
%ADD42C,0.00394*%
D13*
X65000Y-3006D02*
X67000Y-5006D01*
X73000Y-5005D02*
X75000Y-3005D01*
X72999Y4994D02*
X74999Y2994D01*
X65000Y2994D02*
X67000Y4994D01*
X73000D01*
X75000Y-3006D02*
Y2994D01*
X67000Y-5006D02*
X73000D01*
X65000Y-3006D02*
Y2994D01*
X65000Y6994D02*
X67000Y4994D01*
X73000Y4995D02*
X75000Y6995D01*
X72999Y14994D02*
X74999Y12994D01*
X65000Y12994D02*
X67000Y14994D01*
X73000D01*
X75000Y6994D02*
Y12994D01*
X67000Y4994D02*
X73000D01*
X65000Y6994D02*
Y12994D01*
X65000Y16994D02*
X67000Y14994D01*
X73000Y14995D02*
X75000Y16995D01*
X72999Y24994D02*
X74999Y22994D01*
X65000Y22994D02*
X67000Y24994D01*
X73000D01*
X75000Y16994D02*
Y22994D01*
X67000Y14994D02*
X73000D01*
X65000Y16994D02*
Y22994D01*
X65000Y26994D02*
X67000Y24994D01*
X73000Y24995D02*
X75000Y26995D01*
X72999Y34994D02*
X74999Y32994D01*
X65000Y32994D02*
X67000Y34994D01*
X73000D01*
X75000Y26994D02*
Y32994D01*
X67000Y24994D02*
X73000D01*
X65000Y26994D02*
Y32994D01*
X65000Y36994D02*
X67000Y34994D01*
X73000Y34995D02*
X75000Y36995D01*
X72999Y44994D02*
X74999Y42994D01*
X65000Y42994D02*
X67000Y44994D01*
X73000D01*
X75000Y36994D02*
Y42994D01*
X67000Y34994D02*
X73000D01*
X65000Y36994D02*
Y42994D01*
X65000Y46994D02*
X67000Y44994D01*
X73000Y44995D02*
X75000Y46995D01*
X72999Y54994D02*
X74999Y52994D01*
X65000Y52994D02*
X67000Y54994D01*
X73000D01*
X75000Y46994D02*
Y52994D01*
X67000Y44994D02*
X73000D01*
X65000Y46994D02*
Y52994D01*
X65000Y56994D02*
X67000Y54994D01*
X73000Y54995D02*
X75000Y56995D01*
X72999Y64994D02*
X74999Y62994D01*
X65000Y62994D02*
X67000Y64994D01*
X73000D01*
X75000Y56994D02*
Y62994D01*
X67000Y54994D02*
X73000D01*
X65000Y56994D02*
Y62994D01*
X65000Y66994D02*
X67000Y64994D01*
X73000Y64995D02*
X75000Y66995D01*
X72999Y74994D02*
X74999Y72994D01*
X65000Y72994D02*
X67000Y74994D01*
X73000D01*
X75000Y66994D02*
Y72994D01*
X67000Y64994D02*
X73000D01*
X65000Y66994D02*
Y72994D01*
X65000Y76994D02*
X67000Y74994D01*
X73000Y74995D02*
X75000Y76995D01*
X72999Y84994D02*
X74999Y82994D01*
X65000Y82994D02*
X67000Y84994D01*
X73000D01*
X75000Y76994D02*
Y82994D01*
X67000Y74994D02*
X73000D01*
X65000Y76994D02*
Y82994D01*
X65000Y86994D02*
X67000Y84994D01*
X73000Y84995D02*
X75000Y86995D01*
X72999Y94994D02*
X74999Y92994D01*
X65000Y92994D02*
X67000Y94994D01*
X73000D01*
X75000Y86994D02*
Y92994D01*
X67000Y84994D02*
X73000D01*
X65000Y86994D02*
Y92994D01*
X65000Y96994D02*
X67000Y94994D01*
X73000Y94995D02*
X75000Y96995D01*
X72999Y104994D02*
X74999Y102994D01*
X65000Y102994D02*
X67000Y104994D01*
X73000D01*
X75000Y96994D02*
Y102994D01*
X67000Y94994D02*
X73000D01*
X65000Y96994D02*
Y102994D01*
X65000Y106994D02*
X67000Y104994D01*
X73000Y104995D02*
X75000Y106995D01*
X72999Y114994D02*
X74999Y112994D01*
X65000Y112994D02*
X67000Y114994D01*
X73000D01*
X75000Y106994D02*
Y112994D01*
X67000Y104994D02*
X73000D01*
X65000Y106994D02*
Y112994D01*
X65000Y116994D02*
X67000Y114994D01*
X73000Y114995D02*
X75000Y116995D01*
X72999Y124994D02*
X74999Y122994D01*
X65000Y122994D02*
X67000Y124994D01*
X73000D01*
X75000Y116994D02*
Y122994D01*
X67000Y114994D02*
X73000D01*
X65000Y116994D02*
Y122994D01*
X65000Y126994D02*
X67000Y124994D01*
X73000Y124995D02*
X75000Y126995D01*
X72999Y134994D02*
X74999Y132994D01*
X65000Y132994D02*
X67000Y134994D01*
X73000D01*
X75000Y126994D02*
Y132994D01*
X67000Y124994D02*
X73000D01*
X65000Y126994D02*
Y132994D01*
X65000Y136994D02*
X67000Y134994D01*
X73000Y134995D02*
X75000Y136995D01*
X72999Y144994D02*
X74999Y142994D01*
X65000Y142994D02*
X67000Y144994D01*
X73000D01*
X75000Y136994D02*
Y142994D01*
X67000Y134994D02*
X73000D01*
X65000Y136994D02*
Y142994D01*
X-75000Y-3006D02*
X-73000Y-5006D01*
X-67000Y-5005D02*
X-65000Y-3005D01*
X-67001Y4994D02*
X-65001Y2994D01*
X-75000Y2994D02*
X-73000Y4994D01*
X-67000D01*
X-65000Y-3006D02*
Y2994D01*
X-73000Y-5006D02*
X-67000D01*
X-75000Y-3006D02*
Y2994D01*
X-75000Y6994D02*
X-73000Y4994D01*
X-67000Y4995D02*
X-65000Y6995D01*
X-67001Y14994D02*
X-65001Y12994D01*
X-75000Y12994D02*
X-73000Y14994D01*
X-67000D01*
X-65000Y6994D02*
Y12994D01*
X-73000Y4994D02*
X-67000D01*
X-75000Y6994D02*
Y12994D01*
X-75000Y16994D02*
X-73000Y14994D01*
X-67000Y14995D02*
X-65000Y16995D01*
X-67001Y24994D02*
X-65001Y22994D01*
X-75000Y22994D02*
X-73000Y24994D01*
X-67000D01*
X-65000Y16994D02*
Y22994D01*
X-73000Y14994D02*
X-67000D01*
X-75000Y16994D02*
Y22994D01*
X-75000Y26994D02*
X-73000Y24994D01*
X-67000Y24995D02*
X-65000Y26995D01*
X-67001Y34994D02*
X-65001Y32994D01*
X-75000Y32994D02*
X-73000Y34994D01*
X-67000D01*
X-65000Y26994D02*
Y32994D01*
X-73000Y24994D02*
X-67000D01*
X-75000Y26994D02*
Y32994D01*
X-75000Y36994D02*
X-73000Y34994D01*
X-67000Y34995D02*
X-65000Y36995D01*
X-67001Y44994D02*
X-65001Y42994D01*
X-75000Y42994D02*
X-73000Y44994D01*
X-67000D01*
X-65000Y36994D02*
Y42994D01*
X-73000Y34994D02*
X-67000D01*
X-75000Y36994D02*
Y42994D01*
X-75000Y46994D02*
X-73000Y44994D01*
X-67000Y44995D02*
X-65000Y46995D01*
X-67001Y54994D02*
X-65001Y52994D01*
X-75000Y52994D02*
X-73000Y54994D01*
X-67000D01*
X-65000Y46994D02*
Y52994D01*
X-73000Y44994D02*
X-67000D01*
X-75000Y46994D02*
Y52994D01*
X-75000Y56994D02*
X-73000Y54994D01*
X-67000Y54995D02*
X-65000Y56995D01*
X-67001Y64994D02*
X-65001Y62994D01*
X-75000Y62994D02*
X-73000Y64994D01*
X-67000D01*
X-65000Y56994D02*
Y62994D01*
X-73000Y54994D02*
X-67000D01*
X-75000Y56994D02*
Y62994D01*
X-75000Y66994D02*
X-73000Y64994D01*
X-67000Y64995D02*
X-65000Y66995D01*
X-67001Y74994D02*
X-65001Y72994D01*
X-75000Y72994D02*
X-73000Y74994D01*
X-67000D01*
X-65000Y66994D02*
Y72994D01*
X-73000Y64994D02*
X-67000D01*
X-75000Y66994D02*
Y72994D01*
X-75000Y76994D02*
X-73000Y74994D01*
X-67000Y74995D02*
X-65000Y76995D01*
X-67001Y84994D02*
X-65001Y82994D01*
X-75000Y82994D02*
X-73000Y84994D01*
X-67000D01*
X-65000Y76994D02*
Y82994D01*
X-73000Y74994D02*
X-67000D01*
X-75000Y76994D02*
Y82994D01*
X-75000Y86994D02*
X-73000Y84994D01*
X-67000Y84995D02*
X-65000Y86995D01*
X-67001Y94994D02*
X-65001Y92994D01*
X-75000Y92994D02*
X-73000Y94994D01*
X-67000D01*
X-65000Y86994D02*
Y92994D01*
X-73000Y84994D02*
X-67000D01*
X-75000Y86994D02*
Y92994D01*
X-75000Y96994D02*
X-73000Y94994D01*
X-67000Y94995D02*
X-65000Y96995D01*
X-67001Y104994D02*
X-65001Y102994D01*
X-75000Y102994D02*
X-73000Y104994D01*
X-67000D01*
X-65000Y96994D02*
Y102994D01*
X-73000Y94994D02*
X-67000D01*
X-75000Y96994D02*
Y102994D01*
X-75000Y106994D02*
X-73000Y104994D01*
X-67000Y104995D02*
X-65000Y106995D01*
X-67001Y114994D02*
X-65001Y112994D01*
X-75000Y112994D02*
X-73000Y114994D01*
X-67000D01*
X-65000Y106994D02*
Y112994D01*
X-73000Y104994D02*
X-67000D01*
X-75000Y106994D02*
Y112994D01*
X-75000Y116994D02*
X-73000Y114994D01*
X-67000Y114995D02*
X-65000Y116995D01*
X-67001Y124994D02*
X-65001Y122994D01*
X-75000Y122994D02*
X-73000Y124994D01*
X-67000D01*
X-65000Y116994D02*
Y122994D01*
X-73000Y114994D02*
X-67000D01*
X-75000Y116994D02*
Y122994D01*
X-75000Y126994D02*
X-73000Y124994D01*
X-67000Y124995D02*
X-65000Y126995D01*
X-67001Y134994D02*
X-65001Y132994D01*
X-75000Y132994D02*
X-73000Y134994D01*
X-67000D01*
X-65000Y126994D02*
Y132994D01*
X-73000Y124994D02*
X-67000D01*
X-75000Y126994D02*
Y132994D01*
X-75000Y136994D02*
X-73000Y134994D01*
X-67000Y134995D02*
X-65000Y136995D01*
X-67001Y144994D02*
X-65001Y142994D01*
X-75000Y142994D02*
X-73000Y144994D01*
X-67000D01*
X-65000Y136994D02*
Y142994D01*
X-73000Y134994D02*
X-67000D01*
X-75000Y136994D02*
Y142994D01*
D41*
X-31102Y-20866D02*
X-14567D01*
X-31102Y-31890D02*
Y-20866D01*
Y-31890D02*
X-14567D01*
Y-20866D01*
X-6299D02*
X10236D01*
X-6299Y-31890D02*
Y-20866D01*
Y-31890D02*
X10236D01*
Y-20866D01*
D42*
X19298Y-28051D02*
Y-21161D01*
X23038Y-28051D02*
Y-21161D01*
X19298Y-28051D02*
X23038D01*
X19298Y-21161D02*
X23038D01*
X53810Y-14698D02*
Y-7809D01*
X50070Y-14698D02*
Y-7809D01*
X53810D01*
X50070Y-14698D02*
X53810D01*
X38424D02*
Y-7809D01*
X34684Y-14698D02*
Y-7809D01*
X38424D01*
X34684Y-14698D02*
X38424D01*
X42377Y-28051D02*
Y-21161D01*
X46117Y-28051D02*
Y-21161D01*
X42377Y-28051D02*
X46117D01*
X42377Y-21161D02*
X46117D01*
X50070Y-28051D02*
Y-21161D01*
X53810Y-28051D02*
Y-21161D01*
X50070Y-28051D02*
X53810D01*
X50070Y-21161D02*
X53810D01*
X61503Y-14698D02*
Y-7809D01*
X57763Y-14698D02*
Y-7809D01*
X61503D01*
X57763Y-14698D02*
X61503D01*
X46117D02*
Y-7809D01*
X42377Y-14698D02*
Y-7809D01*
X46117D01*
X42377Y-14698D02*
X46117D01*
X34684Y-28051D02*
Y-21161D01*
X38424Y-28051D02*
Y-21161D01*
X34684Y-28051D02*
X38424D01*
X34684Y-21161D02*
X38424D01*
X57763Y-28051D02*
Y-21161D01*
X61503Y-28051D02*
Y-21161D01*
X57763Y-28051D02*
X61503D01*
X57763Y-21161D02*
X61503D01*
X26991Y-28051D02*
Y-21161D01*
X30731Y-28051D02*
Y-21161D01*
X26991Y-28051D02*
X30731D01*
X26991Y-21161D02*
X30731D01*
X23038Y-14698D02*
Y-7809D01*
X19298Y-14698D02*
Y-7809D01*
X23038D01*
X19298Y-14698D02*
X23038D01*
X30731D02*
Y-7809D01*
X26991Y-14698D02*
Y-7809D01*
X30731D01*
X26991Y-14698D02*
X30731D01*
X-6398Y-13858D02*
X492D01*
X-6398Y-17598D02*
X492D01*
X-6398D02*
Y-13858D01*
X492Y-17598D02*
Y-13858D01*
X-31004D02*
X-24114D01*
X-31004Y-17598D02*
X-24114D01*
X-31004D02*
Y-13858D01*
X-24114Y-17598D02*
Y-13858D01*
M02*
