G04*
G04 #@! TF.GenerationSoftware,Altium Limited,Altium Designer,21.0.8 (223)*
G04*
G04 Layer_Color=32768*
%FSLAX25Y25*%
%MOIN*%
G70*
G04*
G04 #@! TF.SameCoordinates,E8E4A7BE-DB6F-4252-8793-17DB4AC6D9EE*
G04*
G04*
G04 #@! TF.FilePolarity,Positive*
G04*
G01*
G75*
%ADD11C,0.00984*%
%ADD42C,0.00394*%
%ADD43C,0.00200*%
%ADD44C,0.00197*%
D11*
X-61929Y196850D02*
X-62905Y196754D01*
X-63843Y196470D01*
X-64707Y196008D01*
X-65465Y195386D01*
X-66087Y194628D01*
X-66549Y193764D01*
X-66833Y192826D01*
X-66929Y191850D01*
X66929Y192913D02*
X66795Y193932D01*
X66402Y194882D01*
X65776Y195697D01*
X64961Y196323D01*
X64011Y196716D01*
X62992Y196850D01*
X62992Y0D02*
X64011Y134D01*
X64961Y527D01*
X65776Y1153D01*
X66402Y1969D01*
X66795Y2918D01*
X66929Y3937D01*
X-66929D02*
X-66795Y2918D01*
X-66402Y1969D01*
X-65776Y1153D01*
X-64961Y527D01*
X-64011Y134D01*
X-62992Y0D01*
X-55118D02*
Y11811D01*
Y0D02*
X0D01*
X80000Y150000D02*
X85000D01*
X-66929Y145669D02*
X66929Y145669D01*
Y3937D02*
Y192913D01*
X-66929Y3937D02*
Y191850D01*
X66929Y145669D02*
Y192913D01*
X-66398Y51181D02*
X67461Y51181D01*
X-66929Y145669D02*
Y191850D01*
X-61929Y196850D02*
X62992D01*
X0Y0D02*
X62992D01*
X-62992D02*
X0D01*
D42*
X19298Y-24606D02*
X23038D01*
X21168Y-26476D02*
Y-22736D01*
X50070Y-11254D02*
X53810D01*
X51940Y-13124D02*
Y-9384D01*
X34684Y-11254D02*
X38424D01*
X36554Y-13124D02*
Y-9384D01*
X42377Y-24606D02*
X46117D01*
X44247Y-26476D02*
Y-22736D01*
X50070Y-24606D02*
X53810D01*
X51940Y-26476D02*
Y-22736D01*
X57763Y-11254D02*
X61503D01*
X59633Y-13124D02*
Y-9384D01*
X42377Y-11254D02*
X46117D01*
X44247Y-13124D02*
Y-9384D01*
X34684Y-24606D02*
X38424D01*
X36554Y-26476D02*
Y-22736D01*
X57763Y-24606D02*
X61503D01*
X59633Y-26476D02*
Y-22736D01*
X26991Y-24606D02*
X30731D01*
X28861Y-26476D02*
Y-22736D01*
X19298Y-11254D02*
X23038D01*
X21168Y-13124D02*
Y-9384D01*
X26991Y-11254D02*
X30731D01*
X28861Y-13124D02*
Y-9384D01*
X-2953Y-17598D02*
Y-13858D01*
X-4823Y-15728D02*
X-1083D01*
X-27559Y-17598D02*
Y-13858D01*
X-29429Y-15728D02*
X-25689D01*
D43*
X-33858Y-34252D02*
Y-20079D01*
Y-34252D02*
X-11811D01*
X-33858Y-20079D02*
X-11811D01*
Y-34252D02*
Y-20079D01*
X-9055Y-34252D02*
Y-20079D01*
Y-34252D02*
X12992D01*
X-9055Y-20079D02*
X12992D01*
Y-34252D02*
Y-20079D01*
D44*
X18215Y-30512D02*
Y-18701D01*
X24121Y-30512D02*
Y-18701D01*
X18215Y-30512D02*
X24121D01*
X18215Y-18701D02*
X24121D01*
X54893Y-17159D02*
Y-5348D01*
X48987Y-17159D02*
Y-5348D01*
X54893D01*
X48987Y-17159D02*
X54893D01*
X39507D02*
Y-5348D01*
X33601Y-17159D02*
Y-5348D01*
X39507D01*
X33601Y-17159D02*
X39507D01*
X41294Y-30512D02*
Y-18701D01*
X47200Y-30512D02*
Y-18701D01*
X41294Y-30512D02*
X47200D01*
X41294Y-18701D02*
X47200D01*
X48987Y-30512D02*
Y-18701D01*
X54893Y-30512D02*
Y-18701D01*
X48987Y-30512D02*
X54893D01*
X48987Y-18701D02*
X54893D01*
X62586Y-17159D02*
Y-5348D01*
X56680Y-17159D02*
Y-5348D01*
X62586D01*
X56680Y-17159D02*
X62586D01*
X47200D02*
Y-5348D01*
X41294Y-17159D02*
Y-5348D01*
X47200D01*
X41294Y-17159D02*
X47200D01*
X33601Y-30512D02*
Y-18701D01*
X39507Y-30512D02*
Y-18701D01*
X33601Y-30512D02*
X39507D01*
X33601Y-18701D02*
X39507D01*
X56680Y-30512D02*
Y-18701D01*
X62586Y-30512D02*
Y-18701D01*
X56680Y-30512D02*
X62586D01*
X56680Y-18701D02*
X62586D01*
X25908Y-30512D02*
Y-18701D01*
X31814Y-30512D02*
Y-18701D01*
X25908Y-30512D02*
X31814D01*
X25908Y-18701D02*
X31814D01*
X24121Y-17159D02*
Y-5348D01*
X18215Y-17159D02*
Y-5348D01*
X24121D01*
X18215Y-17159D02*
X24121D01*
X31814D02*
Y-5348D01*
X25908Y-17159D02*
Y-5348D01*
X31814D01*
X25908Y-17159D02*
X31814D01*
X-8858Y-12775D02*
X2953D01*
X-8858Y-18680D02*
X2953D01*
X-8858D02*
Y-12775D01*
X2953Y-18680D02*
Y-12775D01*
X-33465D02*
X-21654D01*
X-33465Y-18680D02*
X-21654D01*
X-33465D02*
Y-12775D01*
X-21654Y-18680D02*
Y-12775D01*
M02*
