G04*
G04 #@! TF.GenerationSoftware,Altium Limited,Altium Designer,21.0.8 (223)*
G04*
G04 Layer_Color=8388736*
%FSLAX25Y25*%
%MOIN*%
G70*
G04*
G04 #@! TF.SameCoordinates,E8E4A7BE-DB6F-4252-8793-17DB4AC6D9EE*
G04*
G04*
G04 #@! TF.FilePolarity,Negative*
G04*
G01*
G75*
%ADD23R,0.10039X0.03583*%
%ADD24R,0.04134X0.04528*%
%ADD25R,0.07284X0.02756*%
%ADD26R,0.04528X0.04724*%
%ADD27R,0.04331X0.04528*%
%ADD28R,0.04724X0.04528*%
%ADD29R,0.07677X0.07677*%
%ADD30C,0.07677*%
%ADD31R,0.07677X0.07677*%
%ADD32C,0.00591*%
%ADD33C,0.18307*%
%ADD34C,0.02953*%
D23*
X50984Y63425D02*
D03*
X35630D02*
D03*
X50984Y68425D02*
D03*
X35630D02*
D03*
X50984Y73425D02*
D03*
X35630D02*
D03*
X50984Y78425D02*
D03*
X35630D02*
D03*
X50984Y83425D02*
D03*
X35630D02*
D03*
X50984Y88425D02*
D03*
X35630D02*
D03*
X50984Y93425D02*
D03*
X35630D02*
D03*
X50984Y98425D02*
D03*
X35630D02*
D03*
X50984Y103425D02*
D03*
X35630D02*
D03*
X50984Y108425D02*
D03*
X35630D02*
D03*
X50984Y113425D02*
D03*
X35630D02*
D03*
X50984Y118425D02*
D03*
X35630D02*
D03*
X50984Y123425D02*
D03*
X35630D02*
D03*
X50984Y128425D02*
D03*
X35630D02*
D03*
X50984Y133425D02*
D03*
X35630D02*
D03*
X-35630Y63425D02*
D03*
X-50984D02*
D03*
X-35630Y68425D02*
D03*
X-50984D02*
D03*
X-35630Y73425D02*
D03*
X-50984D02*
D03*
X-35630Y78425D02*
D03*
X-50984D02*
D03*
X-35630Y83425D02*
D03*
X-50984D02*
D03*
X-35630Y88425D02*
D03*
X-50984D02*
D03*
X-35630Y93425D02*
D03*
X-50984D02*
D03*
X-35630Y98425D02*
D03*
X-50984D02*
D03*
X-35630Y103425D02*
D03*
X-50984D02*
D03*
X-35630Y108425D02*
D03*
X-50984D02*
D03*
X-35630Y113425D02*
D03*
X-50984D02*
D03*
X-35630Y118425D02*
D03*
X-50984D02*
D03*
X-35630Y123425D02*
D03*
X-50984D02*
D03*
X-35630Y128425D02*
D03*
X-50984D02*
D03*
X-35630Y133425D02*
D03*
X-50984D02*
D03*
D24*
X-14764Y-23228D02*
D03*
X-30906Y-29528D02*
D03*
X-14764D02*
D03*
X-30906Y-23228D02*
D03*
X10039D02*
D03*
X-6102Y-29528D02*
D03*
X10039D02*
D03*
X-6102Y-23228D02*
D03*
D25*
X-22833Y-31988D02*
D03*
X1970D02*
D03*
D26*
X21168Y-27559D02*
D03*
Y-21654D02*
D03*
X44247Y-27559D02*
D03*
Y-21654D02*
D03*
X51940Y-27559D02*
D03*
Y-21654D02*
D03*
X36554Y-27559D02*
D03*
Y-21654D02*
D03*
X59633Y-27559D02*
D03*
Y-21654D02*
D03*
X28861Y-27559D02*
D03*
Y-21654D02*
D03*
D27*
X51940Y-8399D02*
D03*
Y-14108D02*
D03*
X36554Y-8399D02*
D03*
Y-14108D02*
D03*
X59633Y-8399D02*
D03*
Y-14108D02*
D03*
X44247Y-8399D02*
D03*
Y-14108D02*
D03*
X21168Y-8399D02*
D03*
Y-14108D02*
D03*
X28861Y-8399D02*
D03*
Y-14108D02*
D03*
D28*
X-5906Y-15728D02*
D03*
X0D02*
D03*
X-30512D02*
D03*
X-24606D02*
D03*
D29*
X79724Y-33797D02*
D03*
X79882Y-10827D02*
D03*
Y-22312D02*
D03*
X-44291Y-30512D02*
D03*
D30*
X69724Y-33797D02*
D03*
X69882Y-10827D02*
D03*
Y-22312D02*
D03*
X80000Y30000D02*
D03*
Y20000D02*
D03*
Y10000D02*
D03*
Y0D02*
D03*
Y40000D02*
D03*
Y80000D02*
D03*
Y70000D02*
D03*
Y60000D02*
D03*
Y50000D02*
D03*
Y100000D02*
D03*
Y110000D02*
D03*
Y120000D02*
D03*
Y130000D02*
D03*
Y90000D02*
D03*
X-80000D02*
D03*
Y130000D02*
D03*
Y120000D02*
D03*
Y110000D02*
D03*
Y100000D02*
D03*
Y50000D02*
D03*
Y60000D02*
D03*
Y70000D02*
D03*
Y80000D02*
D03*
Y40000D02*
D03*
Y0D02*
D03*
Y10000D02*
D03*
Y20000D02*
D03*
Y30000D02*
D03*
X70000D02*
D03*
Y20000D02*
D03*
Y10000D02*
D03*
Y0D02*
D03*
Y40000D02*
D03*
Y80000D02*
D03*
Y70000D02*
D03*
Y60000D02*
D03*
Y50000D02*
D03*
Y100000D02*
D03*
Y110000D02*
D03*
Y120000D02*
D03*
Y130000D02*
D03*
Y90000D02*
D03*
X-70000Y30000D02*
D03*
Y20000D02*
D03*
Y10000D02*
D03*
Y0D02*
D03*
Y40000D02*
D03*
Y80000D02*
D03*
Y70000D02*
D03*
Y60000D02*
D03*
Y50000D02*
D03*
Y100000D02*
D03*
Y110000D02*
D03*
Y120000D02*
D03*
Y130000D02*
D03*
Y90000D02*
D03*
X-54134Y-30512D02*
D03*
X-63976D02*
D03*
X-73819D02*
D03*
X-83661D02*
D03*
D31*
X80000Y140000D02*
D03*
X-80000D02*
D03*
X70000D02*
D03*
X-70000D02*
D03*
D32*
X55118Y153543D02*
D03*
X-55118D02*
D03*
D33*
Y11811D02*
D03*
D34*
X54165Y0D02*
D03*
X52165Y-3937D02*
D03*
X36417D02*
D03*
X-41900Y68400D02*
D03*
X-44900Y73500D02*
D03*
X-57600Y88000D02*
D03*
X-57390Y78690D02*
D03*
X45100Y73000D02*
D03*
X42600Y68200D02*
D03*
X57500Y78300D02*
D03*
X57492Y88308D02*
D03*
M02*
