G04*
G04 #@! TF.GenerationSoftware,Altium Limited,Altium Designer,21.0.8 (223)*
G04*
G04 Layer_Color=8421504*
%FSLAX25Y25*%
%MOIN*%
G70*
G04*
G04 #@! TF.SameCoordinates,E8E4A7BE-DB6F-4252-8793-17DB4AC6D9EE*
G04*
G04*
G04 #@! TF.FilePolarity,Positive*
G04*
G01*
G75*
%ADD17R,0.09449X0.02992*%
%ADD18R,0.03543X0.03937*%
%ADD19R,0.06693X0.02165*%
%ADD20R,0.03937X0.04134*%
%ADD21R,0.03740X0.03937*%
%ADD22R,0.04134X0.03937*%
D17*
X50984Y63425D02*
D03*
X35630D02*
D03*
X50984Y68425D02*
D03*
X35630D02*
D03*
X50984Y73425D02*
D03*
X35630D02*
D03*
X50984Y78425D02*
D03*
X35630D02*
D03*
X50984Y83425D02*
D03*
X35630D02*
D03*
X50984Y88425D02*
D03*
X35630D02*
D03*
X50984Y93425D02*
D03*
X35630D02*
D03*
X50984Y98425D02*
D03*
X35630D02*
D03*
X50984Y103425D02*
D03*
X35630D02*
D03*
X50984Y108425D02*
D03*
X35630D02*
D03*
X50984Y113425D02*
D03*
X35630D02*
D03*
X50984Y118425D02*
D03*
X35630D02*
D03*
X50984Y123425D02*
D03*
X35630D02*
D03*
X50984Y128425D02*
D03*
X35630D02*
D03*
X50984Y133425D02*
D03*
X35630D02*
D03*
X-35630Y63425D02*
D03*
X-50984D02*
D03*
X-35630Y68425D02*
D03*
X-50984D02*
D03*
X-35630Y73425D02*
D03*
X-50984D02*
D03*
X-35630Y78425D02*
D03*
X-50984D02*
D03*
X-35630Y83425D02*
D03*
X-50984D02*
D03*
X-35630Y88425D02*
D03*
X-50984D02*
D03*
X-35630Y93425D02*
D03*
X-50984D02*
D03*
X-35630Y98425D02*
D03*
X-50984D02*
D03*
X-35630Y103425D02*
D03*
X-50984D02*
D03*
X-35630Y108425D02*
D03*
X-50984D02*
D03*
X-35630Y113425D02*
D03*
X-50984D02*
D03*
X-35630Y118425D02*
D03*
X-50984D02*
D03*
X-35630Y123425D02*
D03*
X-50984D02*
D03*
X-35630Y128425D02*
D03*
X-50984D02*
D03*
X-35630Y133425D02*
D03*
X-50984D02*
D03*
D18*
X-14764Y-23228D02*
D03*
X-30906Y-29528D02*
D03*
X-14764D02*
D03*
X-30906Y-23228D02*
D03*
X10039D02*
D03*
X-6102Y-29528D02*
D03*
X10039D02*
D03*
X-6102Y-23228D02*
D03*
D19*
X-22833Y-31988D02*
D03*
X1970D02*
D03*
D20*
X21168Y-27559D02*
D03*
Y-21654D02*
D03*
X44247Y-27559D02*
D03*
Y-21654D02*
D03*
X51940Y-27559D02*
D03*
Y-21654D02*
D03*
X36554Y-27559D02*
D03*
Y-21654D02*
D03*
X59633Y-27559D02*
D03*
Y-21654D02*
D03*
X28861Y-27559D02*
D03*
Y-21654D02*
D03*
D21*
X51940Y-8399D02*
D03*
Y-14108D02*
D03*
X36554Y-8399D02*
D03*
Y-14108D02*
D03*
X59633Y-8399D02*
D03*
Y-14108D02*
D03*
X44247Y-8399D02*
D03*
Y-14108D02*
D03*
X21168Y-8399D02*
D03*
Y-14108D02*
D03*
X28861Y-8399D02*
D03*
Y-14108D02*
D03*
D22*
X-5906Y-15728D02*
D03*
X0D02*
D03*
X-30512D02*
D03*
X-24606D02*
D03*
M02*
