G04*
G04 #@! TF.GenerationSoftware,Altium Limited,Altium Designer,21.0.8 (223)*
G04*
G04 Layer_Physical_Order=1*
G04 Layer_Color=255*
%FSLAX25Y25*%
%MOIN*%
G70*
G04*
G04 #@! TF.SameCoordinates,E8E4A7BE-DB6F-4252-8793-17DB4AC6D9EE*
G04*
G04*
G04 #@! TF.FilePolarity,Positive*
G04*
G01*
G75*
%ADD12C,0.00500*%
%ADD15C,0.00787*%
%ADD16C,0.01000*%
%ADD17R,0.09449X0.02992*%
%ADD18R,0.03543X0.03937*%
%ADD19R,0.06693X0.02165*%
%ADD20R,0.03937X0.04134*%
%ADD21R,0.03740X0.03937*%
%ADD22R,0.04134X0.03937*%
%ADD35R,0.07087X0.07087*%
%ADD36C,0.07087*%
%ADD37R,0.07087X0.07087*%
%ADD38C,0.17717*%
%ADD39C,0.02362*%
G36*
X89691Y-35000D02*
Y-35462D01*
X89511Y-36368D01*
X89157Y-37222D01*
X88644Y-37990D01*
X87990Y-38644D01*
X87222Y-39157D01*
X86368Y-39511D01*
X85462Y-39691D01*
X-85462D01*
X-86368Y-39511D01*
X-87222Y-39157D01*
X-87990Y-38644D01*
X-88644Y-37990D01*
X-89157Y-37222D01*
X-89467Y-36474D01*
X-89314Y-36119D01*
X-89195Y-35974D01*
X-78740D01*
X-78357Y-35816D01*
X-78199Y-35433D01*
Y-31719D01*
X-77699Y-31653D01*
X-77587Y-32072D01*
X-77054Y-32994D01*
X-76301Y-33747D01*
X-75380Y-34280D01*
X-74351Y-34555D01*
X-74069D01*
Y-30512D01*
Y-26469D01*
X-74351D01*
X-75380Y-26744D01*
X-76301Y-27276D01*
X-77054Y-28029D01*
X-77587Y-28951D01*
X-77699Y-29370D01*
X-78199Y-29304D01*
Y-20226D01*
X-43307D01*
X-42924Y-20068D01*
X-42766Y-19685D01*
Y-541D01*
X-35433D01*
X-35050Y-383D01*
X-34892Y0D01*
Y27559D01*
X-35050Y27942D01*
X-35433Y28100D01*
X-42766D01*
Y65945D01*
X-42924Y66328D01*
X-43307Y66486D01*
X-45760D01*
Y67514D01*
X-43353D01*
X-43325Y67448D01*
X-42852Y66975D01*
X-42234Y66719D01*
X-41780D01*
X-41563Y66220D01*
X-41594Y66145D01*
X-41677Y65966D01*
X-41682Y65824D01*
X-41655Y65750D01*
X-41664Y65716D01*
X-41609Y65621D01*
X-41565Y65466D01*
X-41551Y65448D01*
X-41542Y65443D01*
X-41539Y65435D01*
X-41491Y65413D01*
X-41458Y65356D01*
X-40989Y64993D01*
X-40854Y64957D01*
Y62435D01*
X-40897Y61969D01*
X-41381Y61931D01*
X-41548Y61846D01*
X-41721Y61774D01*
X-41730Y61753D01*
X-41750Y61743D01*
X-41808Y61564D01*
X-41880Y61391D01*
Y54134D01*
X-41721Y53751D01*
X-41339Y53593D01*
X-29528D01*
X-29145Y53751D01*
X-28986Y54134D01*
Y65945D01*
X-29145Y66328D01*
X-29528Y66486D01*
X-30406D01*
Y70421D01*
X-40854D01*
Y70328D01*
X-41354Y69994D01*
X-41566Y70081D01*
X-42234D01*
X-42852Y69825D01*
X-43325Y69352D01*
X-43332Y69336D01*
X-45760D01*
Y70421D01*
X-56209D01*
Y66486D01*
X-57087D01*
X-57469Y66328D01*
X-57628Y65945D01*
Y21355D01*
X-57622Y21313D01*
X-57625Y21302D01*
X-57840Y20827D01*
X-57857Y20807D01*
X-57927Y20777D01*
X-59551Y20104D01*
X-61084Y19080D01*
X-62387Y17777D01*
X-63411Y16244D01*
X-64117Y14541D01*
X-64476Y12733D01*
Y10889D01*
X-64117Y9081D01*
X-63411Y7378D01*
X-62387Y5846D01*
X-61084Y4542D01*
X-59551Y3518D01*
X-57927Y2845D01*
X-57857Y2815D01*
X-57840Y2795D01*
X-57625Y2320D01*
X-57622Y2309D01*
X-57628Y2267D01*
Y-11270D01*
X-89691D01*
Y150494D01*
X-80749D01*
X-59722Y150494D01*
X-59529Y150159D01*
X-58502Y149133D01*
X-57246Y148407D01*
X-55844Y148031D01*
X-54392D01*
X-52991Y148407D01*
X-51734Y149133D01*
X-50708Y150159D01*
X-50514Y150494D01*
X50514Y150494D01*
X50708Y150159D01*
X51734Y149133D01*
X52991Y148407D01*
X54392Y148031D01*
X55844D01*
X57246Y148407D01*
X58502Y149133D01*
X59529Y150159D01*
X59722Y150494D01*
X89691Y150494D01*
Y-35000D01*
D02*
G37*
G36*
X-29528Y54134D02*
X-41339D01*
Y61391D01*
X-40854Y61429D01*
X-40839Y61429D01*
X-35880D01*
Y63425D01*
Y65421D01*
X-40658D01*
X-41127Y65785D01*
X-41141Y65802D01*
X-41136Y65945D01*
X-29528D01*
Y54134D01*
D02*
G37*
G36*
X-43307Y27559D02*
X-35433D01*
Y0D01*
X-43307D01*
Y-19685D01*
X-78740D01*
Y-35433D01*
X-89691D01*
Y-35000D01*
Y-11811D01*
X-57087D01*
Y2267D01*
X-56700Y2584D01*
X-56040Y2453D01*
X-54196D01*
X-52388Y2812D01*
X-50685Y3518D01*
X-49153Y4542D01*
X-47849Y5846D01*
X-46825Y7378D01*
X-46119Y9081D01*
X-45760Y10889D01*
Y12733D01*
X-46119Y14541D01*
X-46825Y16244D01*
X-47849Y17777D01*
X-49153Y19080D01*
X-50685Y20104D01*
X-52388Y20810D01*
X-54196Y21169D01*
X-56040D01*
X-56700Y21038D01*
X-57087Y21355D01*
Y65945D01*
X-43307D01*
Y27559D01*
D02*
G37*
%LPC*%
G36*
X-65957Y144043D02*
X-69750D01*
Y140250D01*
X-65957D01*
Y144043D01*
D02*
G37*
G36*
X-75957D02*
X-79750D01*
Y140250D01*
X-75957D01*
Y144043D01*
D02*
G37*
G36*
X-70250D02*
X-74043D01*
Y140250D01*
X-70250D01*
Y144043D01*
D02*
G37*
G36*
X-80250D02*
X-84043D01*
Y140250D01*
X-80250D01*
Y144043D01*
D02*
G37*
G36*
X84043D02*
X80250D01*
Y140250D01*
X84043D01*
Y144043D01*
D02*
G37*
G36*
X74043D02*
X70250D01*
Y140250D01*
X74043D01*
Y144043D01*
D02*
G37*
G36*
X79750D02*
X75957D01*
Y140250D01*
X79750D01*
Y144043D01*
D02*
G37*
G36*
X69750D02*
X65957D01*
Y140250D01*
X69750D01*
Y144043D01*
D02*
G37*
G36*
X84043Y139750D02*
X80250D01*
Y135957D01*
X84043D01*
Y139750D01*
D02*
G37*
G36*
X79750D02*
X75957D01*
Y135957D01*
X79750D01*
Y139750D01*
D02*
G37*
G36*
X74043D02*
X70250D01*
Y135957D01*
X74043D01*
Y139750D01*
D02*
G37*
G36*
X69750D02*
X65957D01*
Y135957D01*
X69750D01*
Y139750D01*
D02*
G37*
G36*
X-65957Y139750D02*
X-69750D01*
Y135957D01*
X-65957D01*
Y139750D01*
D02*
G37*
G36*
X-70250D02*
X-74043D01*
Y135957D01*
X-70250D01*
Y139750D01*
D02*
G37*
G36*
X-75957D02*
X-79750D01*
Y135957D01*
X-75957D01*
Y139750D01*
D02*
G37*
G36*
X-80250D02*
X-84043D01*
Y135957D01*
X-80250D01*
Y139750D01*
D02*
G37*
G36*
X56209Y135421D02*
X51234D01*
Y133675D01*
X56209D01*
Y135421D01*
D02*
G37*
G36*
X40854D02*
X35880D01*
Y133675D01*
X40854D01*
Y135421D01*
D02*
G37*
G36*
X-30406D02*
X-35380D01*
Y133675D01*
X-30406D01*
Y135421D01*
D02*
G37*
G36*
X-45760D02*
X-50734D01*
Y133675D01*
X-45760D01*
Y135421D01*
D02*
G37*
G36*
X50734D02*
X45760D01*
Y133675D01*
X50734D01*
Y135421D01*
D02*
G37*
G36*
X35380D02*
X30406D01*
Y133675D01*
X35380D01*
Y135421D01*
D02*
G37*
G36*
X-35880D02*
X-40854D01*
Y133675D01*
X-35880D01*
Y135421D01*
D02*
G37*
G36*
X-51234D02*
X-56209D01*
Y133675D01*
X-51234D01*
Y135421D01*
D02*
G37*
G36*
X56209Y133175D02*
X51234D01*
Y131429D01*
X56209D01*
Y133175D01*
D02*
G37*
G36*
X50734D02*
X45760D01*
Y131429D01*
X50734D01*
Y133175D01*
D02*
G37*
G36*
X40854D02*
X35880D01*
Y131429D01*
X40854D01*
Y133175D01*
D02*
G37*
G36*
X35380D02*
X30406D01*
Y131429D01*
X35380D01*
Y133175D01*
D02*
G37*
G36*
X-30406D02*
X-35380D01*
Y131429D01*
X-30406D01*
Y133175D01*
D02*
G37*
G36*
X-35880D02*
X-40854D01*
Y131429D01*
X-35880D01*
Y133175D01*
D02*
G37*
G36*
X80532Y134043D02*
X79468D01*
X78439Y133768D01*
X77517Y133235D01*
X76765Y132483D01*
X76232Y131561D01*
X76087Y131020D01*
X73913D01*
X73768Y131561D01*
X73235Y132483D01*
X72483Y133235D01*
X71561Y133768D01*
X70532Y134043D01*
X69468D01*
X68439Y133768D01*
X67517Y133235D01*
X66764Y132483D01*
X66232Y131561D01*
X65957Y130532D01*
Y129468D01*
X65877Y129364D01*
X60801D01*
X60720Y129380D01*
X56209D01*
Y130421D01*
X45760D01*
Y129336D01*
X40854D01*
Y130421D01*
X30406D01*
Y126429D01*
X40854D01*
Y127514D01*
X45760D01*
Y126429D01*
X56209D01*
Y127558D01*
X60654D01*
X60736Y127542D01*
X66751D01*
X66764Y127517D01*
X67517Y126765D01*
X68439Y126232D01*
X69468Y125957D01*
X70532D01*
X71561Y126232D01*
X72483Y126765D01*
X73235Y127517D01*
X73768Y128439D01*
X73913Y128980D01*
X76087D01*
X76232Y128439D01*
X76765Y127517D01*
X77517Y126765D01*
X78439Y126232D01*
X79468Y125957D01*
X80532D01*
X81561Y126232D01*
X82483Y126765D01*
X83236Y127517D01*
X83768Y128439D01*
X84043Y129468D01*
Y130532D01*
X83768Y131561D01*
X83236Y132483D01*
X82483Y133235D01*
X81561Y133768D01*
X80532Y134043D01*
D02*
G37*
G36*
X-69468D02*
X-70532D01*
X-71561Y133768D01*
X-72483Y133235D01*
X-73235Y132483D01*
X-73768Y131561D01*
X-73913Y131020D01*
X-76087D01*
X-76232Y131561D01*
X-76765Y132483D01*
X-77517Y133235D01*
X-78439Y133768D01*
X-79468Y134043D01*
X-80532D01*
X-81561Y133768D01*
X-82483Y133235D01*
X-83236Y132483D01*
X-83768Y131561D01*
X-84043Y130532D01*
Y129468D01*
X-83768Y128439D01*
X-83236Y127517D01*
X-82483Y126765D01*
X-81561Y126232D01*
X-80532Y125957D01*
X-79468D01*
X-78439Y126232D01*
X-77517Y126765D01*
X-76765Y127517D01*
X-76232Y128439D01*
X-76087Y128980D01*
X-73913D01*
X-73768Y128439D01*
X-73235Y127517D01*
X-72483Y126765D01*
X-71561Y126232D01*
X-70532Y125957D01*
X-69468D01*
X-68439Y126232D01*
X-67517Y126765D01*
X-66764Y127517D01*
X-66232Y128439D01*
X-65957Y129468D01*
Y129902D01*
X-56209D01*
Y126941D01*
X-64079D01*
X-64469Y126863D01*
X-64800Y126642D01*
X-67954Y123488D01*
X-68439Y123768D01*
X-69468Y124043D01*
X-70532D01*
X-71561Y123768D01*
X-72483Y123235D01*
X-73235Y122483D01*
X-73768Y121561D01*
X-73913Y121020D01*
X-76087D01*
X-76232Y121561D01*
X-76765Y122483D01*
X-77517Y123235D01*
X-78439Y123768D01*
X-79468Y124043D01*
X-80532D01*
X-81561Y123768D01*
X-82483Y123235D01*
X-83236Y122483D01*
X-83768Y121561D01*
X-84043Y120532D01*
Y119468D01*
X-83768Y118439D01*
X-83236Y117517D01*
X-82483Y116765D01*
X-81561Y116232D01*
X-80532Y115957D01*
X-79468D01*
X-78439Y116232D01*
X-77517Y116765D01*
X-76765Y117517D01*
X-76232Y118439D01*
X-76087Y118980D01*
X-73913D01*
X-73768Y118439D01*
X-73235Y117517D01*
X-72483Y116765D01*
X-71561Y116232D01*
X-70532Y115957D01*
X-69468D01*
X-68439Y116232D01*
X-67517Y116765D01*
X-66764Y117517D01*
X-66232Y118439D01*
X-65957Y119468D01*
Y120532D01*
X-66232Y121561D01*
X-66512Y122046D01*
X-63656Y124902D01*
X-56209D01*
Y121429D01*
X-45760D01*
Y124533D01*
X-45260Y124740D01*
X-43224Y122704D01*
X-42893Y122483D01*
X-42503Y122406D01*
X-40854D01*
Y121429D01*
X-30406D01*
Y125421D01*
X-40854D01*
Y124445D01*
X-42081D01*
X-44278Y126642D01*
X-44609Y126863D01*
X-44999Y126941D01*
X-45760D01*
Y129902D01*
X-44644D01*
X-42446Y127704D01*
X-42115Y127483D01*
X-41725Y127406D01*
X-40854D01*
Y126429D01*
X-30406D01*
Y130421D01*
X-40854D01*
Y129569D01*
X-41354Y129496D01*
X-43500Y131642D01*
X-43831Y131863D01*
X-44221Y131941D01*
X-45760D01*
Y133175D01*
X-50984D01*
X-56209D01*
Y131941D01*
X-66452D01*
X-66764Y132483D01*
X-67517Y133235D01*
X-68439Y133768D01*
X-69468Y134043D01*
D02*
G37*
G36*
X56209Y125421D02*
X45760D01*
Y124336D01*
X40854D01*
Y125421D01*
X30406D01*
Y121429D01*
X40854D01*
Y122514D01*
X45760D01*
Y121429D01*
X56209D01*
Y122514D01*
X66197D01*
X66568Y122143D01*
X66232Y121561D01*
X65957Y120532D01*
Y119468D01*
X66232Y118439D01*
X66764Y117517D01*
X67517Y116765D01*
X68439Y116232D01*
X69468Y115957D01*
X70532D01*
X71561Y116232D01*
X72483Y116765D01*
X73235Y117517D01*
X73768Y118439D01*
X73913Y118980D01*
X76087D01*
X76232Y118439D01*
X76765Y117517D01*
X77517Y116765D01*
X78439Y116232D01*
X79468Y115957D01*
X80532D01*
X81561Y116232D01*
X82483Y116765D01*
X83236Y117517D01*
X83768Y118439D01*
X84043Y119468D01*
Y120532D01*
X83768Y121561D01*
X83236Y122483D01*
X82483Y123235D01*
X81561Y123768D01*
X80532Y124043D01*
X79468D01*
X78439Y123768D01*
X77517Y123235D01*
X76765Y122483D01*
X76232Y121561D01*
X76087Y121020D01*
X73913D01*
X73768Y121561D01*
X73235Y122483D01*
X72483Y123235D01*
X71561Y123768D01*
X70532Y124043D01*
X69468D01*
X68439Y123768D01*
X67857Y123432D01*
X67219Y124069D01*
X66923Y124267D01*
X66575Y124336D01*
X56209D01*
Y125421D01*
D02*
G37*
G36*
X-30406Y120421D02*
X-40854D01*
Y119445D01*
X-45760D01*
Y120421D01*
X-56209D01*
Y119445D01*
X-61575D01*
X-61965Y119367D01*
X-62296Y119146D01*
X-67954Y113488D01*
X-68439Y113768D01*
X-69468Y114043D01*
X-70532D01*
X-71561Y113768D01*
X-72483Y113235D01*
X-73235Y112483D01*
X-73768Y111561D01*
X-73913Y111020D01*
X-76087D01*
X-76232Y111561D01*
X-76765Y112483D01*
X-77517Y113235D01*
X-78439Y113768D01*
X-79468Y114043D01*
X-80532D01*
X-81561Y113768D01*
X-82483Y113235D01*
X-83236Y112483D01*
X-83768Y111561D01*
X-84043Y110532D01*
Y109468D01*
X-83768Y108439D01*
X-83236Y107517D01*
X-82483Y106765D01*
X-81561Y106232D01*
X-80532Y105957D01*
X-79468D01*
X-78439Y106232D01*
X-77517Y106765D01*
X-76765Y107517D01*
X-76232Y108439D01*
X-76087Y108980D01*
X-73913D01*
X-73768Y108439D01*
X-73235Y107517D01*
X-72483Y106765D01*
X-71561Y106232D01*
X-70532Y105957D01*
X-69468D01*
X-68439Y106232D01*
X-67517Y106765D01*
X-66764Y107517D01*
X-66232Y108439D01*
X-65957Y109468D01*
Y110532D01*
X-66232Y111561D01*
X-66512Y112046D01*
X-61152Y117406D01*
X-56209D01*
Y116429D01*
X-45760D01*
Y117406D01*
X-40854D01*
Y116429D01*
X-30406D01*
Y120421D01*
D02*
G37*
G36*
X56209D02*
X45760D01*
Y119336D01*
X40854D01*
Y120421D01*
X30406D01*
Y116429D01*
X40854D01*
Y117514D01*
X45760D01*
Y116429D01*
X56209D01*
Y117514D01*
X61197D01*
X66568Y112143D01*
X66232Y111561D01*
X65957Y110532D01*
Y109468D01*
X66232Y108439D01*
X66764Y107517D01*
X67517Y106765D01*
X68439Y106232D01*
X69468Y105957D01*
X70532D01*
X71561Y106232D01*
X72483Y106765D01*
X73235Y107517D01*
X73768Y108439D01*
X73913Y108980D01*
X76087D01*
X76232Y108439D01*
X76765Y107517D01*
X77517Y106765D01*
X78439Y106232D01*
X79468Y105957D01*
X80532D01*
X81561Y106232D01*
X82483Y106765D01*
X83236Y107517D01*
X83768Y108439D01*
X84043Y109468D01*
Y110532D01*
X83768Y111561D01*
X83236Y112483D01*
X82483Y113235D01*
X81561Y113768D01*
X80532Y114043D01*
X79468D01*
X78439Y113768D01*
X77517Y113235D01*
X76765Y112483D01*
X76232Y111561D01*
X76087Y111020D01*
X73913D01*
X73768Y111561D01*
X73235Y112483D01*
X72483Y113235D01*
X71561Y113768D01*
X70532Y114043D01*
X69468D01*
X68439Y113768D01*
X67857Y113432D01*
X62219Y119070D01*
X61923Y119267D01*
X61575Y119336D01*
X56209D01*
Y120421D01*
D02*
G37*
G36*
X-30406Y115421D02*
X-40854D01*
Y114445D01*
X-45760D01*
Y115421D01*
X-56209D01*
Y114445D01*
X-57275D01*
X-57665Y114367D01*
X-57996Y114146D01*
X-68398Y103744D01*
X-68439Y103768D01*
X-69468Y104043D01*
X-70532D01*
X-71561Y103768D01*
X-72483Y103235D01*
X-73235Y102483D01*
X-73768Y101561D01*
X-73913Y101020D01*
X-76087D01*
X-76232Y101561D01*
X-76765Y102483D01*
X-77517Y103235D01*
X-78439Y103768D01*
X-79468Y104043D01*
X-80532D01*
X-81561Y103768D01*
X-82483Y103235D01*
X-83236Y102483D01*
X-83768Y101561D01*
X-84043Y100532D01*
Y99468D01*
X-83768Y98439D01*
X-83236Y97517D01*
X-82483Y96764D01*
X-81561Y96232D01*
X-80532Y95957D01*
X-79468D01*
X-78439Y96232D01*
X-77517Y96764D01*
X-76765Y97517D01*
X-76232Y98439D01*
X-76087Y98980D01*
X-73913D01*
X-73768Y98439D01*
X-73235Y97517D01*
X-72483Y96764D01*
X-71561Y96232D01*
X-70532Y95957D01*
X-69468D01*
X-68439Y96232D01*
X-67517Y96764D01*
X-66764Y97517D01*
X-66426Y98104D01*
X-66419Y98116D01*
X-65944Y97938D01*
X-65955Y97882D01*
X-65987Y97724D01*
Y92136D01*
X-66487Y92002D01*
X-66764Y92483D01*
X-67517Y93235D01*
X-68439Y93768D01*
X-69468Y94043D01*
X-69750D01*
Y90000D01*
Y85957D01*
X-69468D01*
X-68439Y86232D01*
X-67517Y86765D01*
X-66764Y87517D01*
X-66487Y87998D01*
X-65987Y87864D01*
Y85302D01*
X-67857Y83432D01*
X-68439Y83768D01*
X-69468Y84043D01*
X-70532D01*
X-71561Y83768D01*
X-72483Y83236D01*
X-73235Y82483D01*
X-73768Y81561D01*
X-73913Y81020D01*
X-76087D01*
X-76232Y81561D01*
X-76765Y82483D01*
X-77517Y83236D01*
X-78439Y83768D01*
X-79468Y84043D01*
X-80532D01*
X-81561Y83768D01*
X-82483Y83236D01*
X-83236Y82483D01*
X-83768Y81561D01*
X-84043Y80532D01*
Y79468D01*
X-83768Y78439D01*
X-83236Y77517D01*
X-82483Y76765D01*
X-81561Y76232D01*
X-80532Y75957D01*
X-79468D01*
X-78439Y76232D01*
X-77517Y76765D01*
X-76765Y77517D01*
X-76232Y78439D01*
X-76087Y78980D01*
X-73913D01*
X-73768Y78439D01*
X-73235Y77517D01*
X-72483Y76765D01*
X-71561Y76232D01*
X-70532Y75957D01*
X-69468D01*
X-68439Y76232D01*
X-67517Y76765D01*
X-66764Y77517D01*
X-66232Y78439D01*
X-65957Y79468D01*
Y80532D01*
X-66232Y81561D01*
X-66568Y82143D01*
X-64431Y84280D01*
X-64234Y84576D01*
X-64164Y84924D01*
Y97347D01*
X-58997Y102514D01*
X-56209D01*
Y101429D01*
X-45760D01*
Y102507D01*
X-40854D01*
Y101429D01*
X-30406D01*
Y102406D01*
X-16447D01*
X27841Y58117D01*
Y-5931D01*
X26491D01*
Y-10868D01*
X31231D01*
Y-5931D01*
X29880D01*
Y48671D01*
X43307D01*
X43690Y48830D01*
X43848Y49213D01*
Y65945D01*
X43690Y66328D01*
X43684Y66347D01*
X43659Y66882D01*
X44025Y67248D01*
X44044Y67293D01*
X45760D01*
Y66486D01*
X45478D01*
X45296Y66411D01*
X45111Y66342D01*
X45106Y66332D01*
X45096Y66328D01*
X45020Y66145D01*
X44938Y65966D01*
X44932Y65824D01*
X44959Y65750D01*
X44950Y65716D01*
X45005Y65621D01*
X45049Y65466D01*
X45063Y65448D01*
X45072Y65443D01*
X45075Y65435D01*
X45124Y65413D01*
X45156Y65356D01*
X45625Y64993D01*
X45760Y64957D01*
Y62434D01*
X45735Y61969D01*
X45235Y61931D01*
X45067Y61846D01*
X44893Y61774D01*
X44884Y61754D01*
X44865Y61744D01*
X44806Y61565D01*
X44734Y61391D01*
X44734Y54134D01*
X44893Y53751D01*
X45276Y53593D01*
X54564D01*
X54585Y2145D01*
X54085Y1681D01*
X53830D01*
X53212Y1425D01*
X52807Y1020D01*
X45276D01*
X44885Y942D01*
X44555Y721D01*
X43570Y-263D01*
X43349Y-594D01*
X43272Y-984D01*
Y-5931D01*
X41877D01*
Y-10868D01*
X46617D01*
Y-5931D01*
X45311D01*
Y-1407D01*
X45698Y-1020D01*
X52807D01*
X53212Y-1425D01*
X53830Y-1681D01*
X54499D01*
X54587Y-1740D01*
X54588Y-5546D01*
X54088Y-5931D01*
X53185D01*
Y-5295D01*
X53591Y-4889D01*
X53847Y-4271D01*
Y-3603D01*
X53591Y-2985D01*
X53118Y-2512D01*
X52500Y-2256D01*
X51831D01*
X51213Y-2512D01*
X50740Y-2985D01*
X50484Y-3603D01*
Y-4271D01*
X50740Y-4889D01*
X51146Y-5295D01*
Y-5931D01*
X49570D01*
Y-10868D01*
X54310D01*
Y-10440D01*
X54810Y-10251D01*
X54937Y-10303D01*
X55131Y-10384D01*
X57263D01*
Y-10868D01*
X62003D01*
Y-10384D01*
X63976D01*
X64359Y-10225D01*
X64518Y-9843D01*
Y-5463D01*
X83661D01*
X84044Y-5304D01*
X84203Y-4921D01*
Y-2661D01*
X84143Y-2518D01*
X84114Y-2365D01*
X84066Y-2332D01*
X84044Y-2279D01*
X83952Y-2241D01*
X83725Y-2025D01*
X83627Y-1805D01*
X83768Y-1561D01*
X84043Y-532D01*
Y532D01*
X83768Y1561D01*
X83627Y1805D01*
X83725Y2025D01*
X83952Y2241D01*
X84044Y2279D01*
X84066Y2332D01*
X84114Y2365D01*
X84143Y2518D01*
X84203Y2661D01*
Y4921D01*
X84044Y5304D01*
X83661Y5463D01*
X80546D01*
X80532Y5957D01*
X81561Y6232D01*
X82483Y6764D01*
X83236Y7517D01*
X83768Y8439D01*
X84043Y9468D01*
Y10532D01*
X83768Y11561D01*
X83236Y12483D01*
X82483Y13236D01*
X81561Y13768D01*
X80532Y14043D01*
X79468D01*
X78439Y13768D01*
X77517Y13236D01*
X76765Y12483D01*
X76232Y11561D01*
X76087Y11020D01*
X73913D01*
X73768Y11561D01*
X73235Y12483D01*
X72483Y13236D01*
X71561Y13768D01*
X70532Y14043D01*
X69468D01*
X68439Y13768D01*
X67517Y13236D01*
X66764Y12483D01*
X66232Y11561D01*
X65957Y10532D01*
Y9468D01*
X66232Y8439D01*
X66764Y7517D01*
X67517Y6764D01*
X68439Y6232D01*
X69468Y5957D01*
X69454Y5463D01*
X63533D01*
X63533Y64525D01*
X63995Y64716D01*
X66568Y62143D01*
X66232Y61561D01*
X65957Y60532D01*
Y59468D01*
X66232Y58439D01*
X66764Y57517D01*
X67517Y56765D01*
X68439Y56232D01*
X69468Y55957D01*
X70532D01*
X71561Y56232D01*
X72483Y56765D01*
X73235Y57517D01*
X73768Y58439D01*
X73913Y58980D01*
X76087D01*
X76232Y58439D01*
X76765Y57517D01*
X77517Y56765D01*
X78439Y56232D01*
X79468Y55957D01*
X80532D01*
X81561Y56232D01*
X82483Y56765D01*
X83236Y57517D01*
X83768Y58439D01*
X84043Y59468D01*
Y60532D01*
X83768Y61561D01*
X83236Y62483D01*
X82483Y63235D01*
X81561Y63768D01*
X80532Y64043D01*
X79468D01*
X78439Y63768D01*
X77517Y63235D01*
X76765Y62483D01*
X76232Y61561D01*
X76087Y61020D01*
X73913D01*
X73768Y61561D01*
X73235Y62483D01*
X72483Y63235D01*
X71561Y63768D01*
X70532Y64043D01*
X69468D01*
X68439Y63768D01*
X67857Y63432D01*
X60611Y70677D01*
Y91700D01*
X60542Y92049D01*
X60344Y92344D01*
X58619Y94069D01*
X58324Y94267D01*
X57975Y94336D01*
X56209D01*
Y95421D01*
X45760D01*
Y94330D01*
X40854D01*
Y95421D01*
X30406D01*
Y91429D01*
X40854D01*
Y92507D01*
X45760D01*
Y91429D01*
X56209D01*
Y92514D01*
X57597D01*
X58789Y91323D01*
Y90042D01*
X58289Y89798D01*
X57826Y89989D01*
X57157D01*
X56709Y89804D01*
X56209Y90056D01*
Y90421D01*
X45760D01*
Y89336D01*
X40854D01*
Y90421D01*
X30406D01*
Y86429D01*
X40854D01*
Y87514D01*
X45760D01*
Y86429D01*
X56209D01*
Y86561D01*
X56709Y86813D01*
X57157Y86627D01*
X57826D01*
X58289Y86819D01*
X58789Y86575D01*
Y80042D01*
X58289Y79793D01*
X57834Y79981D01*
X57166D01*
X56709Y79792D01*
X56209Y80039D01*
Y80421D01*
X45760D01*
Y79330D01*
X40854D01*
Y80421D01*
X30406D01*
Y76429D01*
X40854D01*
Y77507D01*
X45760D01*
Y76429D01*
X56209D01*
Y76561D01*
X56709Y76808D01*
X57166Y76619D01*
X57834D01*
X58289Y76807D01*
X58789Y76558D01*
Y70300D01*
X58858Y69951D01*
X59056Y69656D01*
X61763Y66948D01*
X61572Y66486D01*
X56209D01*
Y70421D01*
X45760D01*
Y69332D01*
X43845D01*
X43552Y69625D01*
X42934Y69881D01*
X42266D01*
X41648Y69625D01*
X41355Y69332D01*
X40854D01*
Y70421D01*
X30406D01*
Y66486D01*
X27559D01*
X27176Y66328D01*
X27018Y65945D01*
Y62477D01*
X26556Y62286D01*
X-15304Y104146D01*
X-15635Y104367D01*
X-16025Y104445D01*
X-30406D01*
Y105421D01*
X-40854D01*
Y104330D01*
X-45760D01*
Y105421D01*
X-56209D01*
Y104336D01*
X-59375D01*
X-59724Y104267D01*
X-60019Y104069D01*
X-65720Y98369D01*
X-65743Y98335D01*
X-66204Y98544D01*
X-66198Y98568D01*
X-65957Y99468D01*
Y100532D01*
X-66232Y101561D01*
X-66764Y102483D01*
X-66770Y102488D01*
X-56853Y112406D01*
X-56209D01*
Y111429D01*
X-45760D01*
Y112406D01*
X-40854D01*
Y111429D01*
X-30406D01*
Y115421D01*
D02*
G37*
G36*
X56209D02*
X45760D01*
Y114343D01*
X40854D01*
Y115421D01*
X30406D01*
Y111429D01*
X40854D01*
Y112521D01*
X45760D01*
Y111429D01*
X56209D01*
Y111849D01*
X56671Y112041D01*
X66568Y102143D01*
X66232Y101561D01*
X65957Y100532D01*
Y99468D01*
X66198Y98568D01*
X66204Y98544D01*
X65743Y98335D01*
X65720Y98369D01*
X60019Y104069D01*
X59724Y104267D01*
X59375Y104336D01*
X56209D01*
Y105421D01*
X45760D01*
Y104232D01*
X40854D01*
Y105421D01*
X30406D01*
Y101429D01*
X40854D01*
Y102409D01*
X45760D01*
Y101429D01*
X56209D01*
Y102514D01*
X58997D01*
X64164Y97347D01*
Y84924D01*
X64234Y84576D01*
X64431Y84280D01*
X66568Y82143D01*
X66232Y81561D01*
X65957Y80532D01*
Y79468D01*
X66232Y78439D01*
X66764Y77517D01*
X67517Y76765D01*
X68439Y76232D01*
X69468Y75957D01*
X70532D01*
X71561Y76232D01*
X72483Y76765D01*
X73235Y77517D01*
X73768Y78439D01*
X73913Y78980D01*
X76087D01*
X76232Y78439D01*
X76765Y77517D01*
X77517Y76765D01*
X78439Y76232D01*
X79468Y75957D01*
X80532D01*
X81561Y76232D01*
X82483Y76765D01*
X83236Y77517D01*
X83768Y78439D01*
X84043Y79468D01*
Y80532D01*
X83768Y81561D01*
X83236Y82483D01*
X82483Y83236D01*
X81561Y83768D01*
X80532Y84043D01*
X79468D01*
X78439Y83768D01*
X77517Y83236D01*
X76765Y82483D01*
X76232Y81561D01*
X76087Y81020D01*
X73913D01*
X73768Y81561D01*
X73235Y82483D01*
X72483Y83236D01*
X71561Y83768D01*
X70532Y84043D01*
X69468D01*
X68439Y83768D01*
X67857Y83432D01*
X65987Y85302D01*
Y87864D01*
X66487Y87998D01*
X66764Y87517D01*
X67517Y86765D01*
X68439Y86232D01*
X69468Y85957D01*
X69750D01*
Y90000D01*
Y94043D01*
X69468D01*
X68439Y93768D01*
X67517Y93235D01*
X66764Y92483D01*
X66487Y92002D01*
X65987Y92136D01*
Y97724D01*
X65955Y97882D01*
X65944Y97938D01*
X66419Y98116D01*
X66426Y98105D01*
X66764Y97517D01*
X67517Y96764D01*
X68439Y96232D01*
X69468Y95957D01*
X70532D01*
X71561Y96232D01*
X72483Y96764D01*
X73235Y97517D01*
X73768Y98439D01*
X73913Y98980D01*
X76087D01*
X76232Y98439D01*
X76765Y97517D01*
X77517Y96764D01*
X78439Y96232D01*
X79468Y95957D01*
X80532D01*
X81561Y96232D01*
X82483Y96764D01*
X83236Y97517D01*
X83768Y98439D01*
X84043Y99468D01*
Y100532D01*
X83768Y101561D01*
X83236Y102483D01*
X82483Y103235D01*
X81561Y103768D01*
X80532Y104043D01*
X79468D01*
X78439Y103768D01*
X77517Y103235D01*
X76765Y102483D01*
X76232Y101561D01*
X76087Y101020D01*
X73913D01*
X73768Y101561D01*
X73235Y102483D01*
X72483Y103235D01*
X71561Y103768D01*
X70532Y104043D01*
X69468D01*
X68439Y103768D01*
X67857Y103432D01*
X57213Y114076D01*
X56917Y114274D01*
X56568Y114343D01*
X56209D01*
Y115421D01*
D02*
G37*
G36*
Y110421D02*
X51234D01*
Y108675D01*
X56209D01*
Y110421D01*
D02*
G37*
G36*
X40854D02*
X35880D01*
Y108675D01*
X40854D01*
Y110421D01*
D02*
G37*
G36*
X-30406D02*
X-35380D01*
Y108675D01*
X-30406D01*
Y110421D01*
D02*
G37*
G36*
X-45760D02*
X-50734D01*
Y108675D01*
X-45760D01*
Y110421D01*
D02*
G37*
G36*
X-35880D02*
X-40854D01*
Y108675D01*
X-35880D01*
Y110421D01*
D02*
G37*
G36*
X50734D02*
X45760D01*
Y108675D01*
X50734D01*
Y110421D01*
D02*
G37*
G36*
X35380D02*
X30406D01*
Y108675D01*
X35380D01*
Y110421D01*
D02*
G37*
G36*
X-51234D02*
X-56209D01*
Y108675D01*
X-51234D01*
Y110421D01*
D02*
G37*
G36*
X56209Y108175D02*
X51234D01*
Y106429D01*
X56209D01*
Y108175D01*
D02*
G37*
G36*
X50734D02*
X45760D01*
Y106429D01*
X50734D01*
Y108175D01*
D02*
G37*
G36*
X40854D02*
X35880D01*
Y106429D01*
X40854D01*
Y108175D01*
D02*
G37*
G36*
X35380D02*
X30406D01*
Y106429D01*
X35380D01*
Y108175D01*
D02*
G37*
G36*
X-30406D02*
X-35380D01*
Y106429D01*
X-30406D01*
Y108175D01*
D02*
G37*
G36*
X-35880D02*
X-40854D01*
Y106429D01*
X-35880D01*
Y108175D01*
D02*
G37*
G36*
X-45760D02*
X-50734D01*
Y106429D01*
X-45760D01*
Y108175D01*
D02*
G37*
G36*
X-51234D02*
X-56209D01*
Y106429D01*
X-51234D01*
Y108175D01*
D02*
G37*
G36*
X-30406Y100421D02*
X-40854D01*
Y99336D01*
X-45760D01*
Y100421D01*
X-56209D01*
Y99336D01*
X-57045D01*
X-57394Y99267D01*
X-57689Y99069D01*
X-62721Y94038D01*
X-62919Y93742D01*
X-62988Y93393D01*
Y77976D01*
X-67651Y73313D01*
X-68439Y73768D01*
X-69468Y74043D01*
X-70532D01*
X-71561Y73768D01*
X-72483Y73235D01*
X-73235Y72483D01*
X-73768Y71561D01*
X-73913Y71020D01*
X-76087D01*
X-76232Y71561D01*
X-76765Y72483D01*
X-77517Y73235D01*
X-78439Y73768D01*
X-79468Y74043D01*
X-80532D01*
X-81561Y73768D01*
X-82483Y73235D01*
X-83236Y72483D01*
X-83768Y71561D01*
X-84043Y70532D01*
Y69468D01*
X-83768Y68439D01*
X-83236Y67517D01*
X-82483Y66764D01*
X-81561Y66232D01*
X-80532Y65957D01*
X-79468D01*
X-78439Y66232D01*
X-77517Y66764D01*
X-76765Y67517D01*
X-76232Y68439D01*
X-76087Y68980D01*
X-73913D01*
X-73768Y68439D01*
X-73235Y67517D01*
X-72483Y66764D01*
X-71561Y66232D01*
X-70532Y65957D01*
X-69468D01*
X-68439Y66232D01*
X-67517Y66764D01*
X-66764Y67517D01*
X-66232Y68439D01*
X-65957Y69468D01*
Y70532D01*
X-66232Y71561D01*
X-66449Y71937D01*
X-61433Y76954D01*
X-61235Y77249D01*
X-61166Y77598D01*
Y93016D01*
X-56709Y97473D01*
X-56209Y97415D01*
Y96429D01*
X-45760D01*
Y97514D01*
X-40854D01*
Y96429D01*
X-30406D01*
Y97406D01*
X-18647D01*
X20148Y58610D01*
Y-5931D01*
X18798D01*
Y-10868D01*
X23538D01*
Y-5931D01*
X22187D01*
Y59032D01*
X22110Y59422D01*
X21889Y59753D01*
X-17504Y99146D01*
X-17835Y99367D01*
X-18225Y99445D01*
X-30406D01*
Y100421D01*
D02*
G37*
G36*
X56209D02*
X45760D01*
Y99330D01*
X40854D01*
Y100421D01*
X30406D01*
Y96429D01*
X40854D01*
Y97416D01*
X45760D01*
Y96429D01*
X56209D01*
Y97416D01*
X57091D01*
X61589Y92918D01*
Y77500D01*
X61658Y77151D01*
X61856Y76856D01*
X66568Y72143D01*
X66232Y71561D01*
X65957Y70532D01*
Y69468D01*
X66232Y68439D01*
X66764Y67517D01*
X67517Y66764D01*
X68439Y66232D01*
X69468Y65957D01*
X70532D01*
X71561Y66232D01*
X72483Y66764D01*
X73235Y67517D01*
X73768Y68439D01*
X73913Y68980D01*
X76087D01*
X76232Y68439D01*
X76765Y67517D01*
X77517Y66764D01*
X78439Y66232D01*
X79468Y65957D01*
X80532D01*
X81561Y66232D01*
X82483Y66764D01*
X83236Y67517D01*
X83768Y68439D01*
X84043Y69468D01*
Y70532D01*
X83768Y71561D01*
X83236Y72483D01*
X82483Y73235D01*
X81561Y73768D01*
X80532Y74043D01*
X79468D01*
X78439Y73768D01*
X77517Y73235D01*
X76765Y72483D01*
X76232Y71561D01*
X76087Y71020D01*
X73913D01*
X73768Y71561D01*
X73235Y72483D01*
X72483Y73235D01*
X71561Y73768D01*
X70532Y74043D01*
X69468D01*
X68439Y73768D01*
X67857Y73432D01*
X63411Y77877D01*
Y93295D01*
X63342Y93644D01*
X63144Y93939D01*
X58112Y98971D01*
X57817Y99169D01*
X57468Y99238D01*
X56209D01*
Y100421D01*
D02*
G37*
G36*
X-30406Y95421D02*
X-40854D01*
Y94330D01*
X-45760D01*
Y95421D01*
X-56209D01*
Y94336D01*
X-57975D01*
X-58324Y94267D01*
X-58619Y94069D01*
X-60344Y92344D01*
X-60542Y92049D01*
X-60611Y91700D01*
Y70677D01*
X-67857Y63432D01*
X-68439Y63768D01*
X-69468Y64043D01*
X-70532D01*
X-71561Y63768D01*
X-72483Y63235D01*
X-73235Y62483D01*
X-73768Y61561D01*
X-73913Y61020D01*
X-76087D01*
X-76232Y61561D01*
X-76765Y62483D01*
X-77517Y63235D01*
X-78439Y63768D01*
X-79468Y64043D01*
X-80532D01*
X-81561Y63768D01*
X-82483Y63235D01*
X-83236Y62483D01*
X-83768Y61561D01*
X-84043Y60532D01*
Y59468D01*
X-83768Y58439D01*
X-83236Y57517D01*
X-82483Y56765D01*
X-81561Y56232D01*
X-80532Y55957D01*
X-79468D01*
X-78439Y56232D01*
X-77517Y56765D01*
X-76765Y57517D01*
X-76232Y58439D01*
X-76087Y58980D01*
X-73913D01*
X-73768Y58439D01*
X-73235Y57517D01*
X-72483Y56765D01*
X-71561Y56232D01*
X-70532Y55957D01*
X-69468D01*
X-68439Y56232D01*
X-67517Y56765D01*
X-66764Y57517D01*
X-66232Y58439D01*
X-65957Y59468D01*
Y60532D01*
X-66232Y61561D01*
X-66568Y62143D01*
X-59056Y69656D01*
X-58858Y69951D01*
X-58789Y70300D01*
Y77058D01*
X-58289Y77242D01*
X-57724Y77009D01*
X-57055D01*
X-56709Y77152D01*
X-56209Y76840D01*
Y76429D01*
X-45760D01*
Y77507D01*
X-40854D01*
Y76429D01*
X-30406D01*
Y80421D01*
X-40854D01*
Y79330D01*
X-45760D01*
Y80421D01*
X-56209D01*
Y80421D01*
X-56709Y80227D01*
X-57055Y80371D01*
X-57724D01*
X-58289Y80137D01*
X-58789Y80322D01*
Y86158D01*
X-58289Y86466D01*
X-57934Y86319D01*
X-57266D01*
X-56709Y86550D01*
X-56209Y86429D01*
Y86429D01*
X-45760D01*
Y87507D01*
X-40854D01*
Y86429D01*
X-30406D01*
Y90421D01*
X-40854D01*
Y89330D01*
X-45760D01*
Y90421D01*
X-56209D01*
Y89639D01*
X-56709Y89450D01*
X-57266Y89681D01*
X-57934D01*
X-58289Y89534D01*
X-58789Y89842D01*
Y91323D01*
X-57597Y92514D01*
X-56209D01*
Y91429D01*
X-45760D01*
Y92507D01*
X-40854D01*
Y91429D01*
X-30406D01*
Y92406D01*
X-21047D01*
X-1020Y72378D01*
Y-13259D01*
X-2567D01*
Y-18196D01*
X-1020D01*
Y-27137D01*
X-2391Y-28508D01*
X-3831D01*
Y-27059D01*
X-8374D01*
Y-31996D01*
X-7122D01*
Y-35653D01*
X-7044Y-36044D01*
X-6823Y-36375D01*
X-6059Y-37138D01*
X-5729Y-37359D01*
X-5339Y-37437D01*
X8547D01*
X8937Y-37359D01*
X9268Y-37138D01*
X10760Y-35646D01*
X10981Y-35315D01*
X11059Y-34925D01*
Y-31996D01*
X12311D01*
Y-27059D01*
X7768D01*
Y-31996D01*
X9020D01*
Y-34502D01*
X8124Y-35398D01*
X-4916D01*
X-5083Y-35231D01*
Y-31996D01*
X-3831D01*
Y-30547D01*
X-1969D01*
X-1876Y-30623D01*
X-1876Y-30698D01*
Y-33571D01*
X5817D01*
Y-30406D01*
X-697D01*
X-905Y-29906D01*
X721Y-28280D01*
X942Y-27949D01*
X1020Y-27559D01*
Y-18196D01*
X2567D01*
Y-13259D01*
X1020D01*
Y72800D01*
X942Y73190D01*
X721Y73521D01*
X-19904Y94146D01*
X-20235Y94367D01*
X-20625Y94445D01*
X-30406D01*
Y95421D01*
D02*
G37*
G36*
X-79468Y94043D02*
X-79750D01*
Y90250D01*
X-75957D01*
Y90532D01*
X-76232Y91561D01*
X-76765Y92483D01*
X-77517Y93235D01*
X-78439Y93768D01*
X-79468Y94043D01*
D02*
G37*
G36*
X-70250D02*
X-70532D01*
X-71561Y93768D01*
X-72483Y93235D01*
X-73235Y92483D01*
X-73768Y91561D01*
X-74043Y90532D01*
Y90250D01*
X-70250D01*
Y94043D01*
D02*
G37*
G36*
X-80250D02*
X-80532D01*
X-81561Y93768D01*
X-82483Y93235D01*
X-83236Y92483D01*
X-83768Y91561D01*
X-84043Y90532D01*
Y90250D01*
X-80250D01*
Y94043D01*
D02*
G37*
G36*
X80532D02*
X80250D01*
Y90250D01*
X84043D01*
Y90532D01*
X83768Y91561D01*
X83236Y92483D01*
X82483Y93235D01*
X81561Y93768D01*
X80532Y94043D01*
D02*
G37*
G36*
X70532D02*
X70250D01*
Y90250D01*
X74043D01*
Y90532D01*
X73768Y91561D01*
X73235Y92483D01*
X72483Y93235D01*
X71561Y93768D01*
X70532Y94043D01*
D02*
G37*
G36*
X79750D02*
X79468D01*
X78439Y93768D01*
X77517Y93235D01*
X76765Y92483D01*
X76232Y91561D01*
X75957Y90532D01*
Y90250D01*
X79750D01*
Y94043D01*
D02*
G37*
G36*
X84043Y89750D02*
X80250D01*
Y85957D01*
X80532D01*
X81561Y86232D01*
X82483Y86765D01*
X83236Y87517D01*
X83768Y88439D01*
X84043Y89468D01*
Y89750D01*
D02*
G37*
G36*
X79750D02*
X75957D01*
Y89468D01*
X76232Y88439D01*
X76765Y87517D01*
X77517Y86765D01*
X78439Y86232D01*
X79468Y85957D01*
X79750D01*
Y89750D01*
D02*
G37*
G36*
X74043D02*
X70250D01*
Y85957D01*
X70532D01*
X71561Y86232D01*
X72483Y86765D01*
X73235Y87517D01*
X73768Y88439D01*
X74043Y89468D01*
Y89750D01*
D02*
G37*
G36*
X-70250Y89750D02*
X-74043D01*
Y89468D01*
X-73768Y88439D01*
X-73235Y87517D01*
X-72483Y86765D01*
X-71561Y86232D01*
X-70532Y85957D01*
X-70250D01*
Y89750D01*
D02*
G37*
G36*
X-75957D02*
X-79750D01*
Y85957D01*
X-79468D01*
X-78439Y86232D01*
X-77517Y86765D01*
X-76765Y87517D01*
X-76232Y88439D01*
X-75957Y89468D01*
Y89750D01*
D02*
G37*
G36*
X-80250D02*
X-84043D01*
Y89468D01*
X-83768Y88439D01*
X-83236Y87517D01*
X-82483Y86765D01*
X-81561Y86232D01*
X-80532Y85957D01*
X-80250D01*
Y89750D01*
D02*
G37*
G36*
X56209Y85421D02*
X51234D01*
Y83675D01*
X56209D01*
Y85421D01*
D02*
G37*
G36*
X40854D02*
X35880D01*
Y83675D01*
X40854D01*
Y85421D01*
D02*
G37*
G36*
X-30406D02*
X-35380D01*
Y83675D01*
X-30406D01*
Y85421D01*
D02*
G37*
G36*
X-45760D02*
X-50734D01*
Y83675D01*
X-45760D01*
Y85421D01*
D02*
G37*
G36*
X50734D02*
X45760D01*
Y83675D01*
X50734D01*
Y85421D01*
D02*
G37*
G36*
X35380D02*
X30406D01*
Y83675D01*
X35380D01*
Y85421D01*
D02*
G37*
G36*
X-35880D02*
X-40854D01*
Y83675D01*
X-35880D01*
Y85421D01*
D02*
G37*
G36*
X-51234D02*
X-56209D01*
Y83675D01*
X-51234D01*
Y85421D01*
D02*
G37*
G36*
X56209Y83175D02*
X51234D01*
Y81429D01*
X56209D01*
Y83175D01*
D02*
G37*
G36*
X50734D02*
X45760D01*
Y81429D01*
X50734D01*
Y83175D01*
D02*
G37*
G36*
X40854D02*
X35880D01*
Y81429D01*
X40854D01*
Y83175D01*
D02*
G37*
G36*
X35380D02*
X30406D01*
Y81429D01*
X35380D01*
Y83175D01*
D02*
G37*
G36*
X-30406D02*
X-35380D01*
Y81429D01*
X-30406D01*
Y83175D01*
D02*
G37*
G36*
X-35880D02*
X-40854D01*
Y81429D01*
X-35880D01*
Y83175D01*
D02*
G37*
G36*
X-45760D02*
X-50734D01*
Y81429D01*
X-45760D01*
Y83175D01*
D02*
G37*
G36*
X-51234D02*
X-56209D01*
Y81429D01*
X-51234D01*
Y83175D01*
D02*
G37*
G36*
X56209Y75421D02*
X45760D01*
Y74899D01*
X45434Y74681D01*
X44766D01*
X44148Y74425D01*
X44059Y74336D01*
X40854D01*
Y75421D01*
X30406D01*
Y71429D01*
X40854D01*
Y72514D01*
X43482D01*
X43675Y72048D01*
X44148Y71575D01*
X44766Y71319D01*
X45434D01*
X45737Y71444D01*
X45760Y71429D01*
Y71429D01*
X56209D01*
Y75421D01*
D02*
G37*
G36*
X-30406D02*
X-40854D01*
Y74330D01*
X-43424D01*
X-43475Y74452D01*
X-43948Y74925D01*
X-44566Y75181D01*
X-45234D01*
X-45344Y75136D01*
X-45760Y75414D01*
Y75421D01*
X-56209D01*
Y71429D01*
X-45760D01*
Y71587D01*
X-45344Y71864D01*
X-45234Y71819D01*
X-44566D01*
X-43948Y72075D01*
X-43515Y72507D01*
X-40854D01*
Y71429D01*
X-30406D01*
Y72406D01*
X-28420D01*
X-25626Y69612D01*
Y-13259D01*
X-27173D01*
Y-18196D01*
X-25626D01*
Y-27137D01*
X-26997Y-28508D01*
X-28634D01*
Y-27059D01*
X-33177D01*
Y-31996D01*
X-31925D01*
Y-35653D01*
X-31848Y-36044D01*
X-31626Y-36375D01*
X-30863Y-37138D01*
X-30532Y-37359D01*
X-30142Y-37437D01*
X-16256D01*
X-15866Y-37359D01*
X-15536Y-37138D01*
X-14043Y-35646D01*
X-13822Y-35315D01*
X-13744Y-34925D01*
Y-31996D01*
X-12492D01*
Y-27059D01*
X-17035D01*
Y-31996D01*
X-15783D01*
Y-34502D01*
X-16679Y-35398D01*
X-29719D01*
X-29886Y-35231D01*
Y-31996D01*
X-28634D01*
Y-30547D01*
X-26680D01*
Y-33571D01*
X-18987D01*
Y-30406D01*
X-25304D01*
X-25511Y-29906D01*
X-23885Y-28280D01*
X-23664Y-27949D01*
X-23587Y-27559D01*
Y-18196D01*
X-22039D01*
Y-13259D01*
X-23587D01*
Y70034D01*
X-23664Y70424D01*
X-23885Y70755D01*
X-27277Y74146D01*
X-27608Y74367D01*
X-27998Y74445D01*
X-30406D01*
Y75421D01*
D02*
G37*
G36*
X80532Y54043D02*
X79468D01*
X78439Y53768D01*
X77517Y53236D01*
X76765Y52483D01*
X76232Y51561D01*
X76087Y51020D01*
X73913D01*
X73768Y51561D01*
X73235Y52483D01*
X72483Y53236D01*
X71561Y53768D01*
X70532Y54043D01*
X69468D01*
X68439Y53768D01*
X67517Y53236D01*
X66764Y52483D01*
X66232Y51561D01*
X65957Y50532D01*
Y49468D01*
X66232Y48439D01*
X66764Y47517D01*
X67517Y46765D01*
X68439Y46232D01*
X69468Y45957D01*
X70532D01*
X71561Y46232D01*
X72483Y46765D01*
X73235Y47517D01*
X73768Y48439D01*
X73913Y48980D01*
X76087D01*
X76232Y48439D01*
X76765Y47517D01*
X77517Y46765D01*
X78439Y46232D01*
X79468Y45957D01*
X80532D01*
X81561Y46232D01*
X82483Y46765D01*
X83236Y47517D01*
X83768Y48439D01*
X84043Y49468D01*
Y50532D01*
X83768Y51561D01*
X83236Y52483D01*
X82483Y53236D01*
X81561Y53768D01*
X80532Y54043D01*
D02*
G37*
G36*
X-69468D02*
X-70532D01*
X-71561Y53768D01*
X-72483Y53236D01*
X-73235Y52483D01*
X-73768Y51561D01*
X-73913Y51020D01*
X-76087D01*
X-76232Y51561D01*
X-76765Y52483D01*
X-77517Y53236D01*
X-78439Y53768D01*
X-79468Y54043D01*
X-80532D01*
X-81561Y53768D01*
X-82483Y53236D01*
X-83236Y52483D01*
X-83768Y51561D01*
X-84043Y50532D01*
Y49468D01*
X-83768Y48439D01*
X-83236Y47517D01*
X-82483Y46765D01*
X-81561Y46232D01*
X-80532Y45957D01*
X-79468D01*
X-78439Y46232D01*
X-77517Y46765D01*
X-76765Y47517D01*
X-76232Y48439D01*
X-76087Y48980D01*
X-73913D01*
X-73768Y48439D01*
X-73235Y47517D01*
X-72483Y46765D01*
X-71561Y46232D01*
X-70532Y45957D01*
X-69468D01*
X-68439Y46232D01*
X-67517Y46765D01*
X-66764Y47517D01*
X-66232Y48439D01*
X-65957Y49468D01*
Y50532D01*
X-66232Y51561D01*
X-66764Y52483D01*
X-67517Y53236D01*
X-68439Y53768D01*
X-69468Y54043D01*
D02*
G37*
G36*
Y44043D02*
X-69750D01*
Y40250D01*
X-65957D01*
Y40532D01*
X-66232Y41561D01*
X-66764Y42483D01*
X-67517Y43235D01*
X-68439Y43768D01*
X-69468Y44043D01*
D02*
G37*
G36*
X-79468D02*
X-79750D01*
Y40250D01*
X-75957D01*
Y40532D01*
X-76232Y41561D01*
X-76765Y42483D01*
X-77517Y43235D01*
X-78439Y43768D01*
X-79468Y44043D01*
D02*
G37*
G36*
X-70250D02*
X-70532D01*
X-71561Y43768D01*
X-72483Y43235D01*
X-73235Y42483D01*
X-73768Y41561D01*
X-74043Y40532D01*
Y40250D01*
X-70250D01*
Y44043D01*
D02*
G37*
G36*
X-80250D02*
X-80532D01*
X-81561Y43768D01*
X-82483Y43235D01*
X-83236Y42483D01*
X-83768Y41561D01*
X-84043Y40532D01*
Y40250D01*
X-80250D01*
Y44043D01*
D02*
G37*
G36*
X80532D02*
X80250D01*
Y40250D01*
X84043D01*
Y40532D01*
X83768Y41561D01*
X83236Y42483D01*
X82483Y43235D01*
X81561Y43768D01*
X80532Y44043D01*
D02*
G37*
G36*
X70532D02*
X70250D01*
Y40250D01*
X74043D01*
Y40532D01*
X73768Y41561D01*
X73235Y42483D01*
X72483Y43235D01*
X71561Y43768D01*
X70532Y44043D01*
D02*
G37*
G36*
X79750D02*
X79468D01*
X78439Y43768D01*
X77517Y43235D01*
X76765Y42483D01*
X76232Y41561D01*
X75957Y40532D01*
Y40250D01*
X79750D01*
Y44043D01*
D02*
G37*
G36*
X69750D02*
X69468D01*
X68439Y43768D01*
X67517Y43235D01*
X66764Y42483D01*
X66232Y41561D01*
X65957Y40532D01*
Y40250D01*
X69750D01*
Y44043D01*
D02*
G37*
G36*
X84043Y39750D02*
X80250D01*
Y35957D01*
X80532D01*
X81561Y36232D01*
X82483Y36765D01*
X83236Y37517D01*
X83768Y38439D01*
X84043Y39468D01*
Y39750D01*
D02*
G37*
G36*
X79750D02*
X75957D01*
Y39468D01*
X76232Y38439D01*
X76765Y37517D01*
X77517Y36765D01*
X78439Y36232D01*
X79468Y35957D01*
X79750D01*
Y39750D01*
D02*
G37*
G36*
X74043D02*
X70250D01*
Y35957D01*
X70532D01*
X71561Y36232D01*
X72483Y36765D01*
X73235Y37517D01*
X73768Y38439D01*
X74043Y39468D01*
Y39750D01*
D02*
G37*
G36*
X69750D02*
X65957D01*
Y39468D01*
X66232Y38439D01*
X66764Y37517D01*
X67517Y36765D01*
X68439Y36232D01*
X69468Y35957D01*
X69750D01*
Y39750D01*
D02*
G37*
G36*
X-65957Y39750D02*
X-69750D01*
Y35957D01*
X-69468D01*
X-68439Y36232D01*
X-67517Y36765D01*
X-66764Y37517D01*
X-66232Y38439D01*
X-65957Y39468D01*
Y39750D01*
D02*
G37*
G36*
X-70250D02*
X-74043D01*
Y39468D01*
X-73768Y38439D01*
X-73235Y37517D01*
X-72483Y36765D01*
X-71561Y36232D01*
X-70532Y35957D01*
X-70250D01*
Y39750D01*
D02*
G37*
G36*
X-75957D02*
X-79750D01*
Y35957D01*
X-79468D01*
X-78439Y36232D01*
X-77517Y36765D01*
X-76765Y37517D01*
X-76232Y38439D01*
X-75957Y39468D01*
Y39750D01*
D02*
G37*
G36*
X-80250D02*
X-84043D01*
Y39468D01*
X-83768Y38439D01*
X-83236Y37517D01*
X-82483Y36765D01*
X-81561Y36232D01*
X-80532Y35957D01*
X-80250D01*
Y39750D01*
D02*
G37*
G36*
X80532Y34043D02*
X79468D01*
X78439Y33768D01*
X77517Y33235D01*
X76765Y32483D01*
X76232Y31561D01*
X76087Y31020D01*
X73913D01*
X73768Y31561D01*
X73235Y32483D01*
X72483Y33235D01*
X71561Y33768D01*
X70532Y34043D01*
X69468D01*
X68439Y33768D01*
X67517Y33235D01*
X66764Y32483D01*
X66232Y31561D01*
X65957Y30532D01*
Y29468D01*
X66232Y28439D01*
X66764Y27517D01*
X67517Y26765D01*
X68439Y26232D01*
X69468Y25957D01*
X70532D01*
X71561Y26232D01*
X72483Y26765D01*
X73235Y27517D01*
X73768Y28439D01*
X73913Y28980D01*
X76087D01*
X76232Y28439D01*
X76765Y27517D01*
X77517Y26765D01*
X78439Y26232D01*
X79468Y25957D01*
X80532D01*
X81561Y26232D01*
X82483Y26765D01*
X83236Y27517D01*
X83768Y28439D01*
X84043Y29468D01*
Y30532D01*
X83768Y31561D01*
X83236Y32483D01*
X82483Y33235D01*
X81561Y33768D01*
X80532Y34043D01*
D02*
G37*
G36*
X-69468D02*
X-70532D01*
X-71561Y33768D01*
X-72483Y33235D01*
X-73235Y32483D01*
X-73768Y31561D01*
X-73913Y31020D01*
X-76087D01*
X-76232Y31561D01*
X-76765Y32483D01*
X-77517Y33235D01*
X-78439Y33768D01*
X-79468Y34043D01*
X-80532D01*
X-81561Y33768D01*
X-82483Y33235D01*
X-83236Y32483D01*
X-83768Y31561D01*
X-84043Y30532D01*
Y29468D01*
X-83768Y28439D01*
X-83236Y27517D01*
X-82483Y26765D01*
X-81561Y26232D01*
X-80532Y25957D01*
X-79468D01*
X-78439Y26232D01*
X-77517Y26765D01*
X-76765Y27517D01*
X-76232Y28439D01*
X-76087Y28980D01*
X-73913D01*
X-73768Y28439D01*
X-73235Y27517D01*
X-72483Y26765D01*
X-71561Y26232D01*
X-70532Y25957D01*
X-69468D01*
X-68439Y26232D01*
X-67517Y26765D01*
X-66764Y27517D01*
X-66232Y28439D01*
X-65957Y29468D01*
Y30532D01*
X-66232Y31561D01*
X-66764Y32483D01*
X-67517Y33235D01*
X-68439Y33768D01*
X-69468Y34043D01*
D02*
G37*
G36*
X80532Y24043D02*
X79468D01*
X78439Y23768D01*
X77517Y23235D01*
X76765Y22483D01*
X76232Y21561D01*
X76087Y21020D01*
X73913D01*
X73768Y21561D01*
X73235Y22483D01*
X72483Y23235D01*
X71561Y23768D01*
X70532Y24043D01*
X69468D01*
X68439Y23768D01*
X67517Y23235D01*
X66764Y22483D01*
X66232Y21561D01*
X65957Y20532D01*
Y19468D01*
X66232Y18439D01*
X66764Y17517D01*
X67517Y16765D01*
X68439Y16232D01*
X69468Y15957D01*
X70532D01*
X71561Y16232D01*
X72483Y16765D01*
X73235Y17517D01*
X73768Y18439D01*
X73913Y18980D01*
X76087D01*
X76232Y18439D01*
X76765Y17517D01*
X77517Y16765D01*
X78439Y16232D01*
X79468Y15957D01*
X80532D01*
X81561Y16232D01*
X82483Y16765D01*
X83236Y17517D01*
X83768Y18439D01*
X84043Y19468D01*
Y20532D01*
X83768Y21561D01*
X83236Y22483D01*
X82483Y23235D01*
X81561Y23768D01*
X80532Y24043D01*
D02*
G37*
G36*
X-69468D02*
X-70532D01*
X-71561Y23768D01*
X-72483Y23235D01*
X-73235Y22483D01*
X-73768Y21561D01*
X-73913Y21020D01*
X-76087D01*
X-76232Y21561D01*
X-76765Y22483D01*
X-77517Y23235D01*
X-78439Y23768D01*
X-79468Y24043D01*
X-80532D01*
X-81561Y23768D01*
X-82483Y23235D01*
X-83236Y22483D01*
X-83768Y21561D01*
X-84043Y20532D01*
Y19468D01*
X-83768Y18439D01*
X-83236Y17517D01*
X-82483Y16765D01*
X-81561Y16232D01*
X-80532Y15957D01*
X-79468D01*
X-78439Y16232D01*
X-77517Y16765D01*
X-76765Y17517D01*
X-76232Y18439D01*
X-76087Y18980D01*
X-73913D01*
X-73768Y18439D01*
X-73235Y17517D01*
X-72483Y16765D01*
X-71561Y16232D01*
X-70532Y15957D01*
X-69468D01*
X-68439Y16232D01*
X-67517Y16765D01*
X-66764Y17517D01*
X-66232Y18439D01*
X-65957Y19468D01*
Y20532D01*
X-66232Y21561D01*
X-66764Y22483D01*
X-67517Y23235D01*
X-68439Y23768D01*
X-69468Y24043D01*
D02*
G37*
G36*
Y14043D02*
X-70532D01*
X-71561Y13768D01*
X-72483Y13236D01*
X-73235Y12483D01*
X-73768Y11561D01*
X-73913Y11020D01*
X-76087D01*
X-76232Y11561D01*
X-76765Y12483D01*
X-77517Y13236D01*
X-78439Y13768D01*
X-79468Y14043D01*
X-80532D01*
X-81561Y13768D01*
X-82483Y13236D01*
X-83236Y12483D01*
X-83768Y11561D01*
X-84043Y10532D01*
Y9468D01*
X-83768Y8439D01*
X-83236Y7517D01*
X-82483Y6764D01*
X-81561Y6232D01*
X-80532Y5957D01*
X-79468D01*
X-78439Y6232D01*
X-77517Y6764D01*
X-76765Y7517D01*
X-76232Y8439D01*
X-76087Y8980D01*
X-73913D01*
X-73768Y8439D01*
X-73235Y7517D01*
X-72483Y6764D01*
X-71561Y6232D01*
X-70532Y5957D01*
X-69468D01*
X-68439Y6232D01*
X-67517Y6764D01*
X-66764Y7517D01*
X-66232Y8439D01*
X-65957Y9468D01*
Y10532D01*
X-66232Y11561D01*
X-66764Y12483D01*
X-67517Y13236D01*
X-68439Y13768D01*
X-69468Y14043D01*
D02*
G37*
G36*
Y4043D02*
X-70532D01*
X-71561Y3768D01*
X-72483Y3235D01*
X-73235Y2483D01*
X-73768Y1561D01*
X-73913Y1020D01*
X-76087D01*
X-76232Y1561D01*
X-76765Y2483D01*
X-77517Y3235D01*
X-78439Y3768D01*
X-79468Y4043D01*
X-80532D01*
X-81561Y3768D01*
X-82483Y3235D01*
X-83236Y2483D01*
X-83768Y1561D01*
X-84043Y532D01*
Y-532D01*
X-83768Y-1561D01*
X-83236Y-2483D01*
X-82483Y-3235D01*
X-81561Y-3768D01*
X-80532Y-4043D01*
X-79468D01*
X-78439Y-3768D01*
X-77517Y-3235D01*
X-76765Y-2483D01*
X-76232Y-1561D01*
X-76087Y-1020D01*
X-73913D01*
X-73768Y-1561D01*
X-73235Y-2483D01*
X-72483Y-3235D01*
X-71561Y-3768D01*
X-70532Y-4043D01*
X-69468D01*
X-68439Y-3768D01*
X-67517Y-3235D01*
X-66764Y-2483D01*
X-66232Y-1561D01*
X-65957Y-532D01*
Y532D01*
X-66232Y1561D01*
X-66764Y2483D01*
X-67517Y3235D01*
X-68439Y3768D01*
X-69468Y4043D01*
D02*
G37*
G36*
X83925Y-6784D02*
X80132D01*
Y-10577D01*
X83925D01*
Y-6784D01*
D02*
G37*
G36*
X79632D02*
X75839D01*
Y-10577D01*
X79632D01*
Y-6784D01*
D02*
G37*
G36*
X36752Y-2256D02*
X36083D01*
X35465Y-2512D01*
X34992Y-2985D01*
X34736Y-3603D01*
Y-4271D01*
X34992Y-4889D01*
X35398Y-5295D01*
Y-5931D01*
X34184D01*
Y-10868D01*
X38924D01*
Y-5931D01*
X37437D01*
Y-5295D01*
X37843Y-4889D01*
X38098Y-4271D01*
Y-3603D01*
X37843Y-2985D01*
X37370Y-2512D01*
X36752Y-2256D01*
D02*
G37*
G36*
X83925Y-11077D02*
X80132D01*
Y-14870D01*
X83925D01*
Y-11077D01*
D02*
G37*
G36*
X79632D02*
X75839D01*
Y-14870D01*
X79632D01*
Y-11077D01*
D02*
G37*
G36*
X70414Y-6784D02*
X69350D01*
X68321Y-7059D01*
X67399Y-7591D01*
X66646Y-8344D01*
X66114Y-9266D01*
X65839Y-10294D01*
Y-11359D01*
X66114Y-12387D01*
X66646Y-13309D01*
X66794Y-13457D01*
X63255Y-16996D01*
X63034Y-17326D01*
X62957Y-17717D01*
Y-26153D01*
X62601Y-26508D01*
X62101Y-26463D01*
Y-24992D01*
X57164D01*
Y-26539D01*
X54408D01*
Y-24992D01*
X49471D01*
Y-30126D01*
X49117Y-30476D01*
X48606D01*
X46715Y-28586D01*
Y-24992D01*
X41778D01*
Y-26539D01*
X39022D01*
Y-24992D01*
X34085D01*
Y-30126D01*
X39022D01*
Y-28579D01*
X41778D01*
Y-30126D01*
X45372D01*
X47463Y-32217D01*
X47794Y-32438D01*
X48184Y-32516D01*
X62008D01*
X62398Y-32438D01*
X62729Y-32217D01*
X68751Y-26195D01*
X69350Y-26355D01*
X70414D01*
X71443Y-26080D01*
X72364Y-25548D01*
X73117Y-24795D01*
X73650Y-23873D01*
X73925Y-22844D01*
Y-21780D01*
X73650Y-20751D01*
X73117Y-19829D01*
X72364Y-19077D01*
X71443Y-18544D01*
X70414Y-18269D01*
X69350D01*
X68321Y-18544D01*
X67399Y-19077D01*
X66646Y-19829D01*
X66114Y-20751D01*
X65839Y-21780D01*
Y-22844D01*
X66114Y-23873D01*
X66646Y-24795D01*
X66957Y-25105D01*
X65496Y-26566D01*
X64996Y-26359D01*
Y-18139D01*
X68494Y-14641D01*
X69350Y-14870D01*
X70414D01*
X71443Y-14594D01*
X72364Y-14062D01*
X73117Y-13309D01*
X73650Y-12387D01*
X73925Y-11359D01*
Y-10294D01*
X73650Y-9266D01*
X73117Y-8344D01*
X72364Y-7591D01*
X71443Y-7059D01*
X70414Y-6784D01*
D02*
G37*
G36*
X-3339Y-13259D02*
X-5655D01*
Y-15478D01*
X-3339D01*
Y-13259D01*
D02*
G37*
G36*
X-27945D02*
X-30262D01*
Y-15478D01*
X-27945D01*
Y-13259D01*
D02*
G37*
G36*
X-6155D02*
X-8472D01*
Y-15478D01*
X-6155D01*
Y-13259D01*
D02*
G37*
G36*
X-30762D02*
X-33079D01*
Y-15478D01*
X-30762D01*
Y-13259D01*
D02*
G37*
G36*
X-3339Y-15978D02*
X-5655D01*
Y-18196D01*
X-3339D01*
Y-15978D01*
D02*
G37*
G36*
X-6155D02*
X-8472D01*
Y-18196D01*
X-6155D01*
Y-15978D01*
D02*
G37*
G36*
X-27945D02*
X-30262D01*
Y-18196D01*
X-27945D01*
Y-15978D01*
D02*
G37*
G36*
X-30762D02*
X-33079D01*
Y-18196D01*
X-30762D01*
Y-15978D01*
D02*
G37*
G36*
X83925Y-18269D02*
X80132D01*
Y-22062D01*
X83925D01*
Y-18269D01*
D02*
G37*
G36*
X79632D02*
X75839D01*
Y-22062D01*
X79632D01*
Y-18269D01*
D02*
G37*
G36*
X-28634Y-20760D02*
X-30656D01*
Y-22978D01*
X-28634D01*
Y-20760D01*
D02*
G37*
G36*
X-3831D02*
X-5852D01*
Y-22978D01*
X-3831D01*
Y-20760D01*
D02*
G37*
G36*
X12311D02*
X10289D01*
Y-22978D01*
X12311D01*
Y-20760D01*
D02*
G37*
G36*
X9789D02*
X7768D01*
Y-22978D01*
X9789D01*
Y-20760D01*
D02*
G37*
G36*
X-12492D02*
X-14514D01*
Y-22978D01*
X-12492D01*
Y-20760D01*
D02*
G37*
G36*
X-15014D02*
X-17035D01*
Y-22978D01*
X-15014D01*
Y-20760D01*
D02*
G37*
G36*
X-31155D02*
X-33177D01*
Y-22978D01*
X-31155D01*
Y-20760D01*
D02*
G37*
G36*
X-6352D02*
X-8374D01*
Y-22978D01*
X-6352D01*
Y-20760D01*
D02*
G37*
G36*
X62003Y-11639D02*
X57263D01*
Y-16576D01*
X58613D01*
Y-19087D01*
X57164D01*
Y-24220D01*
X62101D01*
Y-19087D01*
X60653D01*
Y-16576D01*
X62003D01*
Y-11639D01*
D02*
G37*
G36*
X54310D02*
X49570D01*
Y-16576D01*
X50920D01*
Y-19087D01*
X49471D01*
Y-24220D01*
X54408D01*
Y-19087D01*
X52960D01*
Y-16576D01*
X54310D01*
Y-11639D01*
D02*
G37*
G36*
X46617D02*
X41877D01*
Y-16576D01*
X43227D01*
Y-19087D01*
X41778D01*
Y-24220D01*
X46715D01*
Y-19087D01*
X45267D01*
Y-16576D01*
X46617D01*
Y-11639D01*
D02*
G37*
G36*
X38924D02*
X34184D01*
Y-16576D01*
X35534D01*
Y-19087D01*
X34085D01*
Y-24220D01*
X39022D01*
Y-19087D01*
X37574D01*
Y-16576D01*
X38924D01*
Y-11639D01*
D02*
G37*
G36*
X31231D02*
X26491D01*
Y-16576D01*
X27841D01*
Y-19087D01*
X26392D01*
Y-24220D01*
X31329D01*
Y-19087D01*
X29880D01*
Y-16576D01*
X31231D01*
Y-11639D01*
D02*
G37*
G36*
X23538D02*
X18798D01*
Y-16576D01*
X20148D01*
Y-19087D01*
X18699D01*
Y-24220D01*
X23636D01*
Y-19087D01*
X22187D01*
Y-16576D01*
X23538D01*
Y-11639D01*
D02*
G37*
G36*
X12311Y-23478D02*
X10289D01*
Y-25697D01*
X12311D01*
Y-23478D01*
D02*
G37*
G36*
X9789D02*
X7768D01*
Y-25697D01*
X9789D01*
Y-23478D01*
D02*
G37*
G36*
X-3831D02*
X-5852D01*
Y-25697D01*
X-3831D01*
Y-23478D01*
D02*
G37*
G36*
X-6352D02*
X-8374D01*
Y-25697D01*
X-6352D01*
Y-23478D01*
D02*
G37*
G36*
X-12492D02*
X-14514D01*
Y-25697D01*
X-12492D01*
Y-23478D01*
D02*
G37*
G36*
X-15014D02*
X-17035D01*
Y-25697D01*
X-15014D01*
Y-23478D01*
D02*
G37*
G36*
X-28634D02*
X-30656D01*
Y-25697D01*
X-28634D01*
Y-23478D01*
D02*
G37*
G36*
X-31155D02*
X-33177D01*
Y-25697D01*
X-31155D01*
Y-23478D01*
D02*
G37*
G36*
X83925Y-22562D02*
X80132D01*
Y-26355D01*
X83925D01*
Y-22562D01*
D02*
G37*
G36*
X79632D02*
X75839D01*
Y-26355D01*
X79632D01*
Y-22562D01*
D02*
G37*
G36*
X31329Y-24992D02*
X26392D01*
Y-26539D01*
X23636D01*
Y-24992D01*
X18699D01*
Y-30126D01*
X23636D01*
Y-28579D01*
X26392D01*
Y-30126D01*
X29986D01*
X35362Y-35502D01*
X35693Y-35724D01*
X36083Y-35801D01*
X66212D01*
X66489Y-36280D01*
X67242Y-37033D01*
X68164Y-37565D01*
X69192Y-37841D01*
X70257D01*
X71285Y-37565D01*
X72207Y-37033D01*
X72960Y-36280D01*
X73492Y-35358D01*
X73768Y-34330D01*
Y-33265D01*
X73492Y-32237D01*
X72960Y-31315D01*
X72207Y-30562D01*
X71285Y-30029D01*
X70257Y-29754D01*
X69192D01*
X68164Y-30029D01*
X67242Y-30562D01*
X66489Y-31315D01*
X65957Y-32237D01*
X65681Y-33265D01*
Y-33762D01*
X36506D01*
X31329Y-28586D01*
Y-24992D01*
D02*
G37*
G36*
X-73287Y-26469D02*
X-73569D01*
Y-30262D01*
X-69776D01*
Y-29980D01*
X-70051Y-28951D01*
X-70583Y-28029D01*
X-71336Y-27276D01*
X-72258Y-26744D01*
X-73287Y-26469D01*
D02*
G37*
G36*
X-53601D02*
X-53884D01*
Y-30262D01*
X-50091D01*
Y-29980D01*
X-50366Y-28951D01*
X-50898Y-28029D01*
X-51651Y-27276D01*
X-52573Y-26744D01*
X-53601Y-26469D01*
D02*
G37*
G36*
X-54384D02*
X-54666D01*
X-55695Y-26744D01*
X-56616Y-27276D01*
X-57369Y-28029D01*
X-57902Y-28951D01*
X-58177Y-29980D01*
Y-30262D01*
X-54384D01*
Y-26469D01*
D02*
G37*
G36*
X83768Y-29754D02*
X79974D01*
Y-33547D01*
X83768D01*
Y-29754D01*
D02*
G37*
G36*
X79474D02*
X75681D01*
Y-33547D01*
X79474D01*
Y-29754D01*
D02*
G37*
G36*
X-40248Y-26469D02*
X-48335D01*
Y-34555D01*
X-40248D01*
Y-26469D01*
D02*
G37*
G36*
X-50091Y-30762D02*
X-53884D01*
Y-34555D01*
X-53601D01*
X-52573Y-34280D01*
X-51651Y-33747D01*
X-50898Y-32994D01*
X-50366Y-32072D01*
X-50091Y-31044D01*
Y-30762D01*
D02*
G37*
G36*
X-54384D02*
X-58177D01*
Y-31044D01*
X-57902Y-32072D01*
X-57369Y-32994D01*
X-56616Y-33747D01*
X-55695Y-34280D01*
X-54666Y-34555D01*
X-54384D01*
Y-30762D01*
D02*
G37*
G36*
X-63444Y-26469D02*
X-64509D01*
X-65537Y-26744D01*
X-66459Y-27276D01*
X-67212Y-28029D01*
X-67744Y-28951D01*
X-68020Y-29980D01*
Y-31044D01*
X-67744Y-32072D01*
X-67212Y-32994D01*
X-66459Y-33747D01*
X-65537Y-34280D01*
X-64509Y-34555D01*
X-63444D01*
X-62416Y-34280D01*
X-61494Y-33747D01*
X-60741Y-32994D01*
X-60209Y-32072D01*
X-59933Y-31044D01*
Y-29980D01*
X-60209Y-28951D01*
X-60741Y-28029D01*
X-61494Y-27276D01*
X-62416Y-26744D01*
X-63444Y-26469D01*
D02*
G37*
G36*
X-69776Y-30762D02*
X-73569D01*
Y-34555D01*
X-73287D01*
X-72258Y-34280D01*
X-71336Y-33747D01*
X-70583Y-32994D01*
X-70051Y-32072D01*
X-69776Y-31044D01*
Y-30762D01*
D02*
G37*
G36*
X83768Y-34047D02*
X79974D01*
Y-37841D01*
X83768D01*
Y-34047D01*
D02*
G37*
G36*
X79474D02*
X75681D01*
Y-37841D01*
X79474D01*
Y-34047D01*
D02*
G37*
%LPD*%
G36*
X43307Y49213D02*
X29880D01*
Y58539D01*
X29803Y58929D01*
X29582Y59260D01*
X27559Y61283D01*
Y65945D01*
X43307D01*
Y49213D01*
D02*
G37*
G36*
X62992Y65719D02*
X62992Y4921D01*
X83661D01*
Y2661D01*
X83161Y2557D01*
X82483Y3235D01*
X81561Y3768D01*
X80532Y4043D01*
X80250D01*
Y-0D01*
Y-4043D01*
X80532D01*
X81561Y-3768D01*
X82483Y-3235D01*
X83161Y-2557D01*
X83661Y-2661D01*
Y-4921D01*
X63976D01*
Y-9843D01*
X62003D01*
Y-8649D01*
X59633D01*
X57263D01*
Y-9843D01*
X55131D01*
X55128Y-1414D01*
X55590Y-952D01*
X55846Y-334D01*
Y334D01*
X55590Y952D01*
X55127Y1415D01*
X55105Y54134D01*
X45276D01*
X45276Y61391D01*
X45776Y61429D01*
X50734D01*
Y63425D01*
Y65421D01*
X45957D01*
X45487Y65785D01*
X45473Y65802D01*
X45478Y65945D01*
X62766D01*
X62992Y65719D01*
D02*
G37*
%LPC*%
G36*
X40854Y65421D02*
X35880D01*
Y63675D01*
X40854D01*
Y65421D01*
D02*
G37*
G36*
X35380D02*
X30406D01*
Y63675D01*
X35380D01*
Y65421D01*
D02*
G37*
G36*
X40854Y63175D02*
X35880D01*
Y61429D01*
X40854D01*
Y63175D01*
D02*
G37*
G36*
X35380D02*
X30406D01*
Y61429D01*
X35380D01*
Y63175D01*
D02*
G37*
G36*
X51234Y65421D02*
Y63675D01*
X56209D01*
Y65421D01*
X51234D01*
D02*
G37*
G36*
X56209Y63175D02*
X51234D01*
Y61429D01*
X56209D01*
Y63175D01*
D02*
G37*
G36*
X70532Y4043D02*
X70250D01*
Y250D01*
X74043D01*
Y532D01*
X73768Y1561D01*
X73235Y2483D01*
X72483Y3235D01*
X71561Y3768D01*
X70532Y4043D01*
D02*
G37*
G36*
X79750D02*
X79468D01*
X78439Y3768D01*
X77517Y3235D01*
X76765Y2483D01*
X76232Y1561D01*
X75957Y532D01*
Y250D01*
X79750D01*
Y4043D01*
D02*
G37*
G36*
X69750D02*
X69468D01*
X68439Y3768D01*
X67517Y3235D01*
X66764Y2483D01*
X66232Y1561D01*
X65957Y532D01*
Y250D01*
X69750D01*
Y4043D01*
D02*
G37*
G36*
X79750Y-250D02*
X75957D01*
Y-532D01*
X76232Y-1561D01*
X76765Y-2483D01*
X77517Y-3235D01*
X78439Y-3768D01*
X79468Y-4043D01*
X79750D01*
Y-250D01*
D02*
G37*
G36*
X74043D02*
X70250D01*
Y-4043D01*
X70532D01*
X71561Y-3768D01*
X72483Y-3235D01*
X73235Y-2483D01*
X73768Y-1561D01*
X74043Y-532D01*
Y-250D01*
D02*
G37*
G36*
X69750D02*
X65957D01*
Y-532D01*
X66232Y-1561D01*
X66764Y-2483D01*
X67517Y-3235D01*
X68439Y-3768D01*
X69468Y-4043D01*
X69750D01*
Y-250D01*
D02*
G37*
G36*
X62003Y-5931D02*
X59883D01*
Y-8149D01*
X62003D01*
Y-5931D01*
D02*
G37*
G36*
X59383D02*
X57263D01*
Y-8149D01*
X59383D01*
Y-5931D01*
D02*
G37*
G36*
X-35380Y65421D02*
Y63675D01*
X-30406D01*
Y65421D01*
X-35380D01*
D02*
G37*
G36*
X-30406Y63175D02*
X-35380D01*
Y61429D01*
X-30406D01*
Y63175D01*
D02*
G37*
G36*
X-45760Y65421D02*
X-50734D01*
Y63675D01*
X-45760D01*
Y65421D01*
D02*
G37*
G36*
X-51234D02*
X-56209D01*
Y63675D01*
X-51234D01*
Y65421D01*
D02*
G37*
G36*
X-45760Y63175D02*
X-50734D01*
Y61429D01*
X-45760D01*
Y63175D01*
D02*
G37*
G36*
X-51234D02*
X-56209D01*
Y61429D01*
X-51234D01*
Y63175D01*
D02*
G37*
G36*
X-83129Y-26469D02*
X-83411D01*
Y-30262D01*
X-79618D01*
Y-29980D01*
X-79894Y-28951D01*
X-80426Y-28029D01*
X-81179Y-27276D01*
X-82101Y-26744D01*
X-83129Y-26469D01*
D02*
G37*
G36*
X-83911D02*
X-84194D01*
X-85222Y-26744D01*
X-86144Y-27276D01*
X-86897Y-28029D01*
X-87429Y-28951D01*
X-87705Y-29980D01*
Y-30262D01*
X-83911D01*
Y-26469D01*
D02*
G37*
G36*
X-79618Y-30762D02*
X-83411D01*
Y-34555D01*
X-83129D01*
X-82101Y-34280D01*
X-81179Y-33747D01*
X-80426Y-32994D01*
X-79894Y-32072D01*
X-79618Y-31044D01*
Y-30762D01*
D02*
G37*
G36*
X-83911D02*
X-87705D01*
Y-31044D01*
X-87429Y-32072D01*
X-86897Y-32994D01*
X-86144Y-33747D01*
X-85222Y-34280D01*
X-84194Y-34555D01*
X-83911D01*
Y-30762D01*
D02*
G37*
%LPD*%
D12*
X-50984Y73425D02*
X-50909Y73500D01*
X-44900D01*
X-50984Y68425D02*
X-50959Y68400D01*
X-41900D01*
X-57390Y78690D02*
X-51249D01*
X-50984Y78425D01*
X-57600Y88000D02*
X-51409D01*
X-50984Y88425D01*
X45100Y73000D02*
X50559D01*
X50984Y73425D01*
X51109Y78300D02*
X57500D01*
X50984Y78425D02*
X51109Y78300D01*
X50866Y89606D02*
X52164Y88308D01*
X57492D01*
X50900Y128469D02*
X50943Y128425D01*
X50984Y113425D02*
Y113432D01*
D15*
X-50984Y73418D02*
X-35630D01*
X-50984Y108419D02*
X-35630D01*
X-50984Y103419D02*
X-35630D01*
X-50984Y98425D02*
X-35630D01*
X-50984Y93419D02*
X-35630D01*
X-50984Y88419D02*
X-35630D01*
X-50984Y83425D02*
X-35630D01*
X-50984Y78418D02*
X-35630D01*
X-50984Y68425D02*
X-35630D01*
X50900Y128469D02*
X60720D01*
X50943Y128425D02*
X50984D01*
X35630D02*
X50943D01*
X35630Y83419D02*
X50984D01*
X35630Y78418D02*
X50984D01*
X35630Y73425D02*
X50984D01*
X35630Y98418D02*
X50984D01*
X35630Y93419D02*
X50984D01*
X35630Y88425D02*
X50984D01*
X36053Y108320D02*
X51407D01*
X36053Y103320D02*
X51407D01*
X36053Y98327D02*
X51407D01*
X35630Y113432D02*
X50984D01*
X35630Y118425D02*
X50984D01*
X-57975Y93425D02*
X-50984D01*
X-70000Y60000D02*
X-59700Y70300D01*
Y91700D02*
X-57975Y93425D01*
X-59700Y70300D02*
Y91700D01*
X-57045Y98425D02*
X-50984D01*
X-62077Y77598D02*
Y93393D01*
X-57045Y98425D01*
X-69577Y70098D02*
X-62077Y77598D01*
X-65076Y84924D02*
Y97724D01*
X-59375Y103425D01*
X-70000Y80000D02*
Y80000D01*
X-65076Y84924D01*
X-59375Y103425D02*
X-50984D01*
X59700Y70300D02*
Y91700D01*
X57975Y93425D02*
X59700Y91700D01*
Y70300D02*
X70000Y60000D01*
X60736Y128453D02*
X67178D01*
X60720Y128469D02*
X60736Y128453D01*
X67178D02*
X68726Y130000D01*
X70000D01*
X66575Y123425D02*
X70000Y120000D01*
X50984Y123425D02*
X66575D01*
X61575Y118425D02*
X70000Y110000D01*
X50984Y118425D02*
X61575D01*
X50984Y113432D02*
X56568D01*
X70000Y100000D01*
X62500Y77500D02*
X70000Y70000D01*
X57468Y98327D02*
X62500Y93295D01*
Y77500D02*
Y93295D01*
X50984Y93425D02*
X57975D01*
X50984Y103425D02*
X59375D01*
X65076Y84924D02*
X70000Y80000D01*
Y80000D02*
Y80000D01*
X59375Y103425D02*
X65076Y97724D01*
Y84924D02*
Y97724D01*
X51407Y98327D02*
X57468D01*
X35630Y123425D02*
X50984D01*
D16*
X-5339Y-36417D02*
X8547D01*
X-6102Y-35653D02*
Y-29528D01*
Y-35653D02*
X-5339Y-36417D01*
X8547D02*
X10039Y-34925D01*
Y-29528D01*
X-14764Y-34925D02*
Y-29528D01*
X-35630Y73425D02*
X-27998D01*
X-24606Y70034D01*
X-16256Y-36417D02*
X-14764Y-34925D01*
X-24606Y-15728D02*
Y70034D01*
X-30906Y-35653D02*
X-30142Y-36417D01*
X-30906Y-35653D02*
Y-29528D01*
X-30142Y-36417D02*
X-16256D01*
X-24606Y-27559D02*
Y-15728D01*
X70000Y130000D02*
X80000D01*
X70000Y120000D02*
X80000D01*
X70000Y110000D02*
X80000D01*
X70000Y100000D02*
X80000D01*
X70000Y90000D02*
X80000D01*
X70000Y80000D02*
X80000D01*
X70000Y70000D02*
X80000D01*
X70000Y60000D02*
X80000D01*
X70000Y50000D02*
X80000D01*
X70000Y30000D02*
X80000D01*
X70000Y20000D02*
X80000D01*
X70000Y10000D02*
X80000D01*
X-80000D02*
X-70000D01*
X-80000Y0D02*
X-70000D01*
X-80000Y40000D02*
X-70000D01*
X-80000Y30000D02*
X-70000D01*
X-80000Y20000D02*
X-70000D01*
X-80000Y70000D02*
X-70000D01*
X-80000Y60000D02*
X-70000D01*
X-80000Y50000D02*
X-70000D01*
X-80000Y100000D02*
X-70000D01*
X-80000Y90000D02*
X-70000D01*
X-80000Y80000D02*
X-70000D01*
X-80000Y110000D02*
X-70000D01*
X-80000Y120000D02*
X-70000D01*
X-80000Y130000D02*
X-70000D01*
X-50984Y133425D02*
X-35630D01*
X-50984Y113425D02*
X-35630D01*
X-50984Y118425D02*
X-35630D01*
X35630Y133425D02*
X50984D01*
X42713Y68313D02*
X50872D01*
X50984Y68425D01*
X42600Y68200D02*
X42713Y68313D01*
X35743D02*
X42487D01*
X35630Y68425D02*
X35743Y68313D01*
X42487D02*
X42600Y68200D01*
X0Y-27559D02*
Y-15728D01*
X-6102Y-29528D02*
X-1969D01*
X0Y-27559D01*
X-26575Y-29528D02*
X-24606Y-27559D01*
X-30906Y-29528D02*
X-26575D01*
X44247Y-8399D02*
X44291Y-8355D01*
Y-984D01*
X45276Y0D01*
X54165D01*
X52165Y-8174D02*
Y-3937D01*
X51940Y-8399D02*
X52165Y-8174D01*
X36417Y-8263D02*
Y-3937D01*
Y-8263D02*
X36554Y-8399D01*
X-35630Y93425D02*
X-20625D01*
X0Y-14940D02*
Y72800D01*
X-20625Y93425D02*
X0Y72800D01*
X-35630Y103425D02*
X-16025D01*
X-18225Y98425D02*
X21168Y59032D01*
X-35630Y98425D02*
X-18225D01*
X-70000Y100000D02*
Y100700D01*
X-57275Y113425D02*
X-50984D01*
X-70000Y100700D02*
X-57275Y113425D01*
X-70000Y110000D02*
X-61575Y118425D01*
X-50984D01*
X-44221Y130921D02*
X-41725Y128425D01*
X-69079Y130921D02*
X-44221D01*
X-70000Y130000D02*
X-69079Y130921D01*
X-42503Y123425D02*
X-35630D01*
X-64079Y125921D02*
X-44999D01*
X-70000Y120000D02*
X-64079Y125921D01*
X-44999D02*
X-42503Y123425D01*
X-41725Y128425D02*
X-35630D01*
X28861Y-8399D02*
Y58539D01*
X-16025Y103425D02*
X28861Y58539D01*
X21168Y-8399D02*
Y59032D01*
X59633Y-8399D02*
X60039Y-7993D01*
Y-984D01*
X61024Y0D02*
X70000D01*
X60039Y-984D02*
X61024Y0D01*
X59633Y-21654D02*
Y-14108D01*
X51940Y-21654D02*
Y-14108D01*
X44247Y-21654D02*
Y-14108D01*
X36554Y-21654D02*
Y-14108D01*
X28861Y-21654D02*
Y-14108D01*
X21168Y-21654D02*
Y-14108D01*
X51940Y-27559D02*
X59633D01*
X36554D02*
X44247D01*
X21168D02*
X28762D01*
X30329Y-29126D01*
X30428D01*
X36083Y-34782D01*
X69724D01*
X62008Y-31496D02*
X69882Y-23622D01*
Y-23296D01*
X45715Y-29126D02*
X45814D01*
X48184Y-31496D01*
X44247Y-27657D02*
Y-27559D01*
Y-27657D02*
X45715Y-29126D01*
X48184Y-31496D02*
X62008D01*
X63976Y-17717D02*
X69882Y-11811D01*
X63976Y-26575D02*
Y-17717D01*
X62992Y-27559D02*
X63976Y-26575D01*
X59633Y-27559D02*
X62992D01*
D17*
X50984Y63425D02*
D03*
X35630D02*
D03*
X50984Y68425D02*
D03*
X35630D02*
D03*
X50984Y73425D02*
D03*
X35630D02*
D03*
X50984Y78425D02*
D03*
X35630D02*
D03*
X50984Y83425D02*
D03*
X35630D02*
D03*
X50984Y88425D02*
D03*
X35630D02*
D03*
X50984Y93425D02*
D03*
X35630D02*
D03*
X50984Y98425D02*
D03*
X35630D02*
D03*
X50984Y103425D02*
D03*
X35630D02*
D03*
X50984Y108425D02*
D03*
X35630D02*
D03*
X50984Y113425D02*
D03*
X35630D02*
D03*
X50984Y118425D02*
D03*
X35630D02*
D03*
X50984Y123425D02*
D03*
X35630D02*
D03*
X50984Y128425D02*
D03*
X35630D02*
D03*
X50984Y133425D02*
D03*
X35630D02*
D03*
X-35630Y63425D02*
D03*
X-50984D02*
D03*
X-35630Y68425D02*
D03*
X-50984D02*
D03*
X-35630Y73425D02*
D03*
X-50984D02*
D03*
X-35630Y78425D02*
D03*
X-50984D02*
D03*
X-35630Y83425D02*
D03*
X-50984D02*
D03*
X-35630Y88425D02*
D03*
X-50984D02*
D03*
X-35630Y93425D02*
D03*
X-50984D02*
D03*
X-35630Y98425D02*
D03*
X-50984D02*
D03*
X-35630Y103425D02*
D03*
X-50984D02*
D03*
X-35630Y108425D02*
D03*
X-50984D02*
D03*
X-35630Y113425D02*
D03*
X-50984D02*
D03*
X-35630Y118425D02*
D03*
X-50984D02*
D03*
X-35630Y123425D02*
D03*
X-50984D02*
D03*
X-35630Y128425D02*
D03*
X-50984D02*
D03*
X-35630Y133425D02*
D03*
X-50984D02*
D03*
D18*
X-14764Y-23228D02*
D03*
X-30906Y-29528D02*
D03*
X-14764D02*
D03*
X-30906Y-23228D02*
D03*
X10039D02*
D03*
X-6102Y-29528D02*
D03*
X10039D02*
D03*
X-6102Y-23228D02*
D03*
D19*
X-22833Y-31988D02*
D03*
X1970D02*
D03*
D20*
X21168Y-27559D02*
D03*
Y-21654D02*
D03*
X44247Y-27559D02*
D03*
Y-21654D02*
D03*
X51940Y-27559D02*
D03*
Y-21654D02*
D03*
X36554Y-27559D02*
D03*
Y-21654D02*
D03*
X59633Y-27559D02*
D03*
Y-21654D02*
D03*
X28861Y-27559D02*
D03*
Y-21654D02*
D03*
D21*
X51940Y-8399D02*
D03*
Y-14108D02*
D03*
X36554Y-8399D02*
D03*
Y-14108D02*
D03*
X59633Y-8399D02*
D03*
Y-14108D02*
D03*
X44247Y-8399D02*
D03*
Y-14108D02*
D03*
X21168Y-8399D02*
D03*
Y-14108D02*
D03*
X28861Y-8399D02*
D03*
Y-14108D02*
D03*
D22*
X-5906Y-15728D02*
D03*
X0D02*
D03*
X-30512D02*
D03*
X-24606D02*
D03*
D35*
X79724Y-33797D02*
D03*
X79882Y-10827D02*
D03*
Y-22312D02*
D03*
X-44291Y-30512D02*
D03*
D36*
X69724Y-33797D02*
D03*
X69882Y-10827D02*
D03*
Y-22312D02*
D03*
X80000Y30000D02*
D03*
Y20000D02*
D03*
Y10000D02*
D03*
Y0D02*
D03*
Y40000D02*
D03*
Y80000D02*
D03*
Y70000D02*
D03*
Y60000D02*
D03*
Y50000D02*
D03*
Y100000D02*
D03*
Y110000D02*
D03*
Y120000D02*
D03*
Y130000D02*
D03*
Y90000D02*
D03*
X-80000D02*
D03*
Y130000D02*
D03*
Y120000D02*
D03*
Y110000D02*
D03*
Y100000D02*
D03*
Y50000D02*
D03*
Y60000D02*
D03*
Y70000D02*
D03*
Y80000D02*
D03*
Y40000D02*
D03*
Y0D02*
D03*
Y10000D02*
D03*
Y20000D02*
D03*
Y30000D02*
D03*
X70000D02*
D03*
Y20000D02*
D03*
Y10000D02*
D03*
Y0D02*
D03*
Y40000D02*
D03*
Y80000D02*
D03*
Y70000D02*
D03*
Y60000D02*
D03*
Y50000D02*
D03*
Y100000D02*
D03*
Y110000D02*
D03*
Y120000D02*
D03*
Y130000D02*
D03*
Y90000D02*
D03*
X-70000Y30000D02*
D03*
Y20000D02*
D03*
Y10000D02*
D03*
Y0D02*
D03*
Y40000D02*
D03*
Y80000D02*
D03*
Y70000D02*
D03*
Y60000D02*
D03*
Y50000D02*
D03*
Y100000D02*
D03*
Y110000D02*
D03*
Y120000D02*
D03*
Y130000D02*
D03*
Y90000D02*
D03*
X-54134Y-30512D02*
D03*
X-63976D02*
D03*
X-73819D02*
D03*
X-83661D02*
D03*
D37*
X80000Y140000D02*
D03*
X-80000D02*
D03*
X70000D02*
D03*
X-70000D02*
D03*
D38*
X-55118Y11811D02*
D03*
D39*
X85040Y104725D02*
D03*
Y73228D02*
D03*
Y57480D02*
D03*
Y41732D02*
D03*
Y25984D02*
D03*
Y-21260D02*
D03*
Y-37008D02*
D03*
X77166Y104725D02*
D03*
X81103Y-29134D02*
D03*
X73229Y65354D02*
D03*
Y-29134D02*
D03*
X61417Y136221D02*
D03*
Y104725D02*
D03*
Y-37008D02*
D03*
X57480Y144095D02*
D03*
X53543Y-37008D02*
D03*
X49606Y144095D02*
D03*
X45669Y41732D02*
D03*
Y25984D02*
D03*
X49606Y18110D02*
D03*
X45669Y10236D02*
D03*
X49606Y2362D02*
D03*
X41732Y144095D02*
D03*
X33858D02*
D03*
X25984D02*
D03*
X22047Y136221D02*
D03*
X25984Y128347D02*
D03*
X22047Y120473D02*
D03*
X25984Y112599D02*
D03*
X22047Y104725D02*
D03*
X25984Y96851D02*
D03*
X22047Y88977D02*
D03*
X25984Y81103D02*
D03*
X22047Y73228D02*
D03*
X25984Y49606D02*
D03*
Y33858D02*
D03*
Y18110D02*
D03*
Y2362D02*
D03*
X18110Y144095D02*
D03*
X14173Y136221D02*
D03*
X18110Y128347D02*
D03*
X14173Y120473D02*
D03*
X18110Y112599D02*
D03*
X14173Y104725D02*
D03*
X18110Y96851D02*
D03*
X14173Y88977D02*
D03*
X18110Y81103D02*
D03*
Y65354D02*
D03*
X14173Y57480D02*
D03*
X18110Y49606D02*
D03*
X14173Y41732D02*
D03*
X18110Y33858D02*
D03*
X14173Y25984D02*
D03*
X18110Y18110D02*
D03*
X14173Y10236D02*
D03*
X18110Y2362D02*
D03*
X14173Y-5512D02*
D03*
X10236Y144095D02*
D03*
X6299Y136221D02*
D03*
X10236Y128347D02*
D03*
X6299Y120473D02*
D03*
X10236Y112599D02*
D03*
X6299Y104725D02*
D03*
X10236Y96851D02*
D03*
X6299Y88977D02*
D03*
X10236Y81103D02*
D03*
Y65354D02*
D03*
X6299Y57480D02*
D03*
X10236Y49606D02*
D03*
X6299Y41732D02*
D03*
X10236Y33858D02*
D03*
X6299Y25984D02*
D03*
X10236Y18110D02*
D03*
X6299Y10236D02*
D03*
X10236Y2362D02*
D03*
X6299Y-5512D02*
D03*
X2362Y144095D02*
D03*
X-1575Y136221D02*
D03*
X2362Y128347D02*
D03*
X-1575Y120473D02*
D03*
X2362Y112599D02*
D03*
X-1575Y104725D02*
D03*
X2362Y96851D02*
D03*
Y81103D02*
D03*
Y65354D02*
D03*
Y49606D02*
D03*
Y33858D02*
D03*
Y18110D02*
D03*
Y2362D02*
D03*
Y-29134D02*
D03*
X-5512Y144095D02*
D03*
X-9449Y136221D02*
D03*
X-5512Y128347D02*
D03*
X-9449Y120473D02*
D03*
X-5512Y112599D02*
D03*
X-9449Y104725D02*
D03*
X-5512Y96851D02*
D03*
X-9449Y73228D02*
D03*
X-5512Y65354D02*
D03*
X-9449Y57480D02*
D03*
X-5512Y49606D02*
D03*
X-9449Y41732D02*
D03*
X-5512Y33858D02*
D03*
X-9449Y25984D02*
D03*
X-5512Y18110D02*
D03*
X-9449Y10236D02*
D03*
X-5512Y2362D02*
D03*
X-9449Y-5512D02*
D03*
X-13386Y144095D02*
D03*
X-17323Y136221D02*
D03*
X-13386Y128347D02*
D03*
X-17323Y120473D02*
D03*
X-13386Y112599D02*
D03*
Y96851D02*
D03*
Y81103D02*
D03*
X-17323Y73228D02*
D03*
X-13386Y65354D02*
D03*
X-17323Y57480D02*
D03*
X-13386Y49606D02*
D03*
X-17323Y41732D02*
D03*
X-13386Y33858D02*
D03*
X-17323Y25984D02*
D03*
X-13386Y18110D02*
D03*
X-17323Y10236D02*
D03*
X-13386Y2362D02*
D03*
X-17323Y-5512D02*
D03*
X-21260Y144095D02*
D03*
X-25197Y136221D02*
D03*
X-21260Y128347D02*
D03*
X-25197Y120473D02*
D03*
X-21260Y112599D02*
D03*
X-25197Y88977D02*
D03*
X-21260Y81103D02*
D03*
Y65354D02*
D03*
Y49606D02*
D03*
Y33858D02*
D03*
Y18110D02*
D03*
Y2362D02*
D03*
Y-29134D02*
D03*
X-29134Y144095D02*
D03*
Y128347D02*
D03*
Y112599D02*
D03*
Y81103D02*
D03*
X-37008Y144095D02*
D03*
Y-29134D02*
D03*
X-44882Y144095D02*
D03*
X-52756D02*
D03*
X-60630D02*
D03*
X-64567Y136221D02*
D03*
X-60630Y128347D02*
D03*
X-64567Y120473D02*
D03*
X-60630Y49606D02*
D03*
X-64567Y41732D02*
D03*
X-60630Y33858D02*
D03*
X-72441Y104725D02*
D03*
X-76378Y65354D02*
D03*
Y33858D02*
D03*
X-80315Y-5512D02*
D03*
X-88189Y136221D02*
D03*
Y120473D02*
D03*
Y104725D02*
D03*
X-84252Y96851D02*
D03*
X-88189Y88977D02*
D03*
Y73228D02*
D03*
X-84252Y65354D02*
D03*
X-88189Y57480D02*
D03*
Y41732D02*
D03*
X-84252Y33858D02*
D03*
X-88189Y25984D02*
D03*
Y10236D02*
D03*
Y-5512D02*
D03*
X54165Y0D02*
D03*
X52165Y-3937D02*
D03*
X-35925Y58071D02*
D03*
X-32480Y56102D02*
D03*
X-32480Y60039D02*
D03*
X-39370Y56102D02*
D03*
Y60039D02*
D03*
X36417Y-3937D02*
D03*
X36909Y54626D02*
D03*
X40354Y52165D02*
D03*
X33465D02*
D03*
X40354Y57087D02*
D03*
X33465D02*
D03*
X-41900Y68400D02*
D03*
X-44900Y73500D02*
D03*
X-57600Y88000D02*
D03*
X-57390Y78690D02*
D03*
X45100Y73000D02*
D03*
X42600Y68200D02*
D03*
X57500Y78300D02*
D03*
X57492Y88308D02*
D03*
M02*
