G04*
G04 #@! TF.GenerationSoftware,Altium Limited,Altium Designer,21.0.8 (223)*
G04*
G04 Layer_Color=65535*
%FSLAX25Y25*%
%MOIN*%
G70*
G04*
G04 #@! TF.SameCoordinates,E8E4A7BE-DB6F-4252-8793-17DB4AC6D9EE*
G04*
G04*
G04 #@! TF.FilePolarity,Positive*
G04*
G01*
G75*
%ADD10C,0.00394*%
%ADD11C,0.00984*%
%ADD12C,0.00500*%
%ADD13C,0.00100*%
%ADD14C,0.00591*%
%ADD15C,0.00787*%
%ADD16C,0.01000*%
D10*
X18561Y-30461D02*
D03*
X41640D02*
D03*
X49333D02*
D03*
X33947D02*
D03*
X57026D02*
D03*
X26254D02*
D03*
D11*
X84724Y-38797D02*
Y-29097D01*
X64724Y-38497D02*
Y-28797D01*
Y-38797D02*
X84724D01*
X64724Y-28797D02*
X84724D01*
X64882Y-5827D02*
X84882D01*
X64882Y-15827D02*
X84882D01*
X64882Y-15527D02*
Y-5827D01*
X84882Y-15827D02*
Y-6127D01*
Y-27312D02*
Y-17612D01*
X64882Y-27012D02*
Y-17312D01*
Y-27312D02*
X84882D01*
X64882Y-17312D02*
X84882D01*
D12*
X58307Y133425D02*
Y137795D01*
X28307D02*
X58307D01*
X28307Y59055D02*
Y137795D01*
Y59055D02*
X58307D01*
Y63425D01*
Y133425D01*
X-28307D02*
Y137795D01*
X-58307D02*
X-28307D01*
X-58307Y59055D02*
Y137795D01*
Y59055D02*
X-28307D01*
Y63425D01*
Y133425D01*
X-38976Y-35512D02*
Y-25512D01*
X-88976D02*
X-38976D01*
X-88976Y-35512D02*
Y-25512D01*
Y-35512D02*
X-38976D01*
X-8953Y-18728D02*
Y-12728D01*
X-5953D01*
X-8953Y-18728D02*
X-5953D01*
X3047D02*
Y-12728D01*
X47Y-18728D02*
X3047D01*
X47Y-12728D02*
X3047D01*
X-33559Y-18728D02*
Y-12728D01*
X-30559D01*
X-33559Y-18728D02*
X-30559D01*
X-21559D02*
Y-12728D01*
X-24559Y-18728D02*
X-21559D01*
X-24559Y-12728D02*
X-21559D01*
D13*
X3104Y44314D02*
Y74814D01*
X904Y45714D02*
Y75114D01*
X3004Y44314D02*
Y74714D01*
X2804Y44414D02*
Y74714D01*
X2704Y44514D02*
Y74714D01*
X2604Y44614D02*
Y74714D01*
X2504Y44614D02*
Y74714D01*
X2404Y44714D02*
Y74714D01*
X2304Y44814D02*
Y74714D01*
X2204Y44814D02*
Y74714D01*
X2104Y44914D02*
Y74714D01*
X2004Y45014D02*
Y74714D01*
X1904Y45014D02*
Y74714D01*
X1804Y45114D02*
Y74714D01*
X1704Y45214D02*
Y74814D01*
X1604Y45214D02*
Y74814D01*
X1504Y45314D02*
Y74814D01*
X1404Y45414D02*
Y74814D01*
X1304Y45414D02*
Y74914D01*
X1204Y45514D02*
Y74914D01*
X1104Y45614D02*
Y74914D01*
X1004Y45614D02*
Y75014D01*
X804Y45714D02*
Y75114D01*
X704Y45814D02*
Y75114D01*
X3604Y44014D02*
Y75014D01*
X3504Y44014D02*
Y74914D01*
X3404Y44114D02*
Y74914D01*
X3304Y44114D02*
Y74814D01*
X3204Y44214D02*
Y74814D01*
X-20896Y39714D02*
Y49614D01*
X-12896Y103014D02*
Y113614D01*
X-4896Y103014D02*
Y113914D01*
X3104Y109714D02*
Y121614D01*
X-20996Y40014D02*
Y49314D01*
X-21096Y40314D02*
Y49014D01*
X-21196Y40814D02*
Y48714D01*
X-19096Y35914D02*
Y53214D01*
X-17496Y33714D02*
Y50414D01*
X-17596Y33814D02*
Y55114D01*
X-17696Y33914D02*
Y55114D01*
X-17796Y34114D02*
Y55014D01*
X-17896Y34314D02*
Y54914D01*
X-17996Y34414D02*
Y54814D01*
X-18096Y34514D02*
Y54714D01*
X-18196Y34614D02*
Y54514D01*
X-18296Y34714D02*
Y54314D01*
X-18396Y34814D02*
Y54214D01*
X-18496Y35014D02*
Y54114D01*
X-18596Y35114D02*
Y54014D01*
X-18696Y35214D02*
Y53814D01*
X-18796Y35414D02*
Y53714D01*
X-18896Y35514D02*
Y53614D01*
X-18996Y35714D02*
Y53414D01*
X-16696Y33014D02*
Y48314D01*
X-16796Y33114D02*
Y48414D01*
X-16896Y33214D02*
Y48614D01*
X-16996Y33314D02*
Y48814D01*
X-17096Y33414D02*
Y49014D01*
X-17196Y33514D02*
Y49314D01*
X-17296Y33614D02*
Y49614D01*
X-17396Y33614D02*
Y49914D01*
X-19196Y36014D02*
Y53114D01*
X-19296Y36114D02*
Y53014D01*
X-19396Y36314D02*
Y52814D01*
X-19496Y36414D02*
Y52714D01*
X-19596Y36714D02*
Y52514D01*
X-19696Y36814D02*
Y52414D01*
X-19796Y37014D02*
Y52114D01*
X-19896Y37214D02*
Y51914D01*
X-19996Y37414D02*
Y51714D01*
X-20096Y37614D02*
Y51514D01*
X-20196Y37814D02*
Y51314D01*
X-20296Y38014D02*
Y51114D01*
X-20396Y38214D02*
Y51014D01*
X-20496Y38614D02*
Y50614D01*
X-20596Y38814D02*
Y50314D01*
X-20696Y39014D02*
Y50114D01*
X-20796Y39314D02*
Y49914D01*
X-3096Y48314D02*
Y60214D01*
X604Y45914D02*
Y61414D01*
X504Y45914D02*
Y60314D01*
X404Y46014D02*
Y59314D01*
X304Y46114D02*
Y59314D01*
X204Y46114D02*
Y59314D01*
X104Y46214D02*
Y59414D01*
X4Y46314D02*
Y59414D01*
X-96Y46314D02*
Y59514D01*
X-196Y46414D02*
Y59514D01*
X-296Y46514D02*
Y59514D01*
X-396Y46514D02*
Y59514D01*
X-496Y46614D02*
Y59614D01*
X-596Y46714D02*
Y59614D01*
X-696Y46714D02*
Y59714D01*
X-796Y46814D02*
Y59714D01*
X-896Y46914D02*
Y59714D01*
X-996Y46914D02*
Y59814D01*
X-1096Y47014D02*
Y59814D01*
X-1196Y47014D02*
Y59814D01*
X-1296Y47114D02*
Y59814D01*
X-1396Y47214D02*
Y59814D01*
X-1496Y47214D02*
Y59914D01*
X-1596Y47314D02*
Y59914D01*
X-1696Y47414D02*
Y60014D01*
X-1796Y47414D02*
Y60014D01*
X-1896Y47514D02*
Y60014D01*
X-1996Y47614D02*
Y60014D01*
X-2096Y47614D02*
Y60114D01*
X-2196Y47714D02*
Y60114D01*
X-2296Y47814D02*
Y60114D01*
X-2396Y47814D02*
Y60114D01*
X-2496Y47914D02*
Y60114D01*
X-2596Y48014D02*
Y60114D01*
X-2696Y48014D02*
Y60114D01*
X-2796Y48114D02*
Y60214D01*
X-2896Y48214D02*
Y60214D01*
X-2996Y48214D02*
Y60214D01*
X4904Y32714D02*
Y56514D01*
X4804Y32614D02*
Y56614D01*
X4704Y32514D02*
Y56714D01*
X4604Y32414D02*
Y56714D01*
X4504Y32414D02*
Y56814D01*
X4404Y32314D02*
Y56914D01*
X4304Y32214D02*
Y57014D01*
X4204Y32114D02*
Y57114D01*
X4104Y32014D02*
Y57214D01*
X4004Y31914D02*
Y57314D01*
X3904Y31814D02*
Y57414D01*
X3804Y31814D02*
Y57414D01*
X3704Y31714D02*
Y57514D01*
X7704Y35914D02*
Y53314D01*
X7604Y35814D02*
Y53414D01*
X7504Y35614D02*
Y53514D01*
X7404Y35514D02*
Y53814D01*
X7304Y35414D02*
Y53914D01*
X7204Y35314D02*
Y54014D01*
X7104Y35114D02*
Y54114D01*
X7004Y34914D02*
Y54214D01*
X6904Y34814D02*
Y54414D01*
X6804Y34714D02*
Y54514D01*
X6704Y34614D02*
Y54614D01*
X6604Y34514D02*
Y54714D01*
X6504Y34314D02*
Y54814D01*
X6404Y34214D02*
Y54914D01*
X6304Y34114D02*
Y55114D01*
X6204Y34014D02*
Y55214D01*
X6104Y33914D02*
Y55314D01*
X6004Y33714D02*
Y55414D01*
X5904Y33714D02*
Y55514D01*
X5804Y33614D02*
Y55614D01*
X5704Y33514D02*
Y55714D01*
X5604Y33414D02*
Y55814D01*
X5504Y33314D02*
Y55914D01*
X5404Y33214D02*
Y56014D01*
X5304Y33114D02*
Y56114D01*
X5204Y33014D02*
Y56214D01*
X5104Y32914D02*
Y56314D01*
X5004Y32814D02*
Y56414D01*
X8904Y38114D02*
Y51014D01*
X9204Y38814D02*
Y50414D01*
X9104Y38614D02*
Y50614D01*
X9004Y38314D02*
Y50814D01*
X8804Y37914D02*
Y51314D01*
X8704Y37614D02*
Y51514D01*
X8604Y37514D02*
Y51714D01*
X8504Y37314D02*
Y52014D01*
X8404Y37114D02*
Y52114D01*
X8304Y36914D02*
Y52314D01*
X8204Y36814D02*
Y52414D01*
X8104Y36614D02*
Y52614D01*
X8004Y36414D02*
Y52814D01*
X7904Y36214D02*
Y52914D01*
X7804Y36014D02*
Y53114D01*
X9804Y40714D02*
Y48414D01*
X9704Y40414D02*
Y48814D01*
X9604Y40114D02*
Y49214D01*
X9504Y39714D02*
Y49514D01*
X9404Y39414D02*
Y49814D01*
X9304Y39214D02*
Y50014D01*
X-17496Y93014D02*
Y120414D01*
X-15896Y78014D02*
Y84314D01*
X-15996Y78014D02*
Y84414D01*
X-16096Y78014D02*
Y84414D01*
X-16196Y78014D02*
Y84514D01*
X-16296Y78014D02*
Y84514D01*
X-16396Y77914D02*
Y84614D01*
X-16496Y77914D02*
Y84714D01*
X-16596Y77914D02*
Y84714D01*
X-16696Y77814D02*
Y84814D01*
X-16796Y77814D02*
Y84914D01*
X-16896Y77714D02*
Y85014D01*
X-16996Y77714D02*
Y85014D01*
X-17096Y77714D02*
Y85114D01*
X-17196Y77614D02*
Y85214D01*
X-17296Y77514D02*
Y85214D01*
X-17396Y77514D02*
Y85114D01*
X-15096Y103014D02*
Y124114D01*
X-14496Y103014D02*
Y124514D01*
X-14596Y103014D02*
Y124414D01*
X-14696Y103014D02*
Y124314D01*
X-14796Y103014D02*
Y124314D01*
X-14896Y103014D02*
Y124314D01*
X-14996Y103014D02*
Y124214D01*
X-15196Y103014D02*
Y124014D01*
X-15296Y103014D02*
Y123914D01*
X-15396Y103014D02*
Y123814D01*
X-15496Y103014D02*
Y123814D01*
X-15596Y103014D02*
Y123714D01*
X-15696Y103014D02*
Y123614D01*
X-15796Y103014D02*
Y123514D01*
X-15896Y103014D02*
Y123414D01*
X-15996Y103014D02*
Y123314D01*
X-16096Y103014D02*
Y123214D01*
X-16196Y103014D02*
Y123014D01*
X-16296Y102914D02*
Y122914D01*
X-16396Y102914D02*
Y122814D01*
X-16496Y102914D02*
Y122714D01*
X-16596Y102814D02*
Y122614D01*
X-16696Y102714D02*
Y122414D01*
X-16796Y102714D02*
Y122214D01*
X-16896Y102614D02*
Y122114D01*
X-16996Y102514D02*
Y121914D01*
X-17096Y102414D02*
Y121614D01*
X-17196Y102214D02*
Y121414D01*
X-17296Y102014D02*
Y121114D01*
X-17396Y101914D02*
Y120814D01*
X-12996Y103014D02*
Y113514D01*
X-13096Y103014D02*
Y113414D01*
X-13196Y103014D02*
Y113414D01*
X-13296Y103014D02*
Y113414D01*
X-13396Y103014D02*
Y113414D01*
X-13496Y103014D02*
Y113314D01*
X-13596Y103014D02*
Y113314D01*
X-13696Y103014D02*
Y113314D01*
X-13796Y103014D02*
Y113214D01*
X-13896Y103014D02*
Y113214D01*
X-13996Y103014D02*
Y113214D01*
X-14096Y103014D02*
Y113114D01*
X-14196Y103014D02*
Y113114D01*
X-14296Y103014D02*
Y113014D01*
X-14396Y103014D02*
Y113014D01*
X-11096Y103014D02*
Y113914D01*
X-7096Y71414D02*
Y82414D01*
X-5496Y71114D02*
Y82514D01*
X-5596Y71114D02*
Y82514D01*
X-5696Y71214D02*
Y82514D01*
X-5796Y71214D02*
Y82514D01*
X-5896Y71314D02*
Y82514D01*
X-5996Y71314D02*
Y82514D01*
X-6096Y71314D02*
Y82414D01*
X-6196Y71414D02*
Y82414D01*
X-6296Y71414D02*
Y82414D01*
X-6396Y71414D02*
Y82414D01*
X-6496Y71414D02*
Y82414D01*
X-6596Y71414D02*
Y82414D01*
X-6696Y71414D02*
Y82414D01*
X-6796Y71414D02*
Y82414D01*
X-6996Y71414D02*
Y82414D01*
X-7196Y71414D02*
Y82414D01*
X-7296Y71414D02*
Y82414D01*
X-6896Y71414D02*
Y82314D01*
X-7396Y71414D02*
Y82314D01*
X-7496Y71414D02*
Y82314D01*
X-7596Y71414D02*
Y82314D01*
X-7696Y71314D02*
Y82314D01*
X-7796Y71314D02*
Y82314D01*
X-7896Y71314D02*
Y82314D01*
X-7996Y71214D02*
Y82314D01*
X-8096Y71214D02*
Y82314D01*
X-8196Y71114D02*
Y82314D01*
X-8296Y71114D02*
Y82314D01*
X-8396Y71114D02*
Y82314D01*
X-11196Y103014D02*
Y113914D01*
X-11296Y103014D02*
Y113914D01*
X-11396Y103014D02*
Y113914D01*
X-11496Y103014D02*
Y113914D01*
X-11596Y103014D02*
Y113914D01*
X-11696Y103014D02*
Y113814D01*
X-11796Y103014D02*
Y113814D01*
X-11896Y103014D02*
Y113814D01*
X-11996Y103014D02*
Y113814D01*
X-12096Y103014D02*
Y113714D01*
X-12196Y103014D02*
Y113714D01*
X-12296Y103014D02*
Y113714D01*
X-12396Y103014D02*
Y113714D01*
X-12496Y103014D02*
Y113614D01*
X-12596Y103014D02*
Y113614D01*
X-12696Y103014D02*
Y113614D01*
X-12796Y103014D02*
Y113614D01*
X-7096Y103014D02*
Y123414D01*
X-5596Y103014D02*
Y124414D01*
X-5696Y103014D02*
Y124314D01*
X-5796Y103014D02*
Y124314D01*
X-5896Y103014D02*
Y124214D01*
X-5996Y103014D02*
Y124114D01*
X-6096Y103014D02*
Y124014D01*
X-6196Y103014D02*
Y123914D01*
X-6296Y103014D02*
Y123814D01*
X-6396Y103014D02*
Y123714D01*
X-6496Y103014D02*
Y123614D01*
X-6596Y103014D02*
Y123514D01*
X-6696Y103014D02*
Y123414D01*
X-6796Y103014D02*
Y123414D01*
X-6896Y103014D02*
Y123314D01*
X-6996Y103014D02*
Y123314D01*
X-7196Y103014D02*
Y123514D01*
X-7296Y103014D02*
Y123614D01*
X-7396Y103014D02*
Y123614D01*
X-7496Y103014D02*
Y123714D01*
X-7596Y103014D02*
Y123814D01*
X-7696Y103014D02*
Y123914D01*
X-7796Y103014D02*
Y124014D01*
X-7896Y103014D02*
Y124114D01*
X-7996Y103014D02*
Y124214D01*
X-8096Y103014D02*
Y124314D01*
X-8196Y103014D02*
Y124314D01*
X-8296Y103014D02*
Y124414D01*
X-8396Y103014D02*
Y124514D01*
X-8496Y103014D02*
Y124514D01*
X-8596Y103014D02*
Y124614D01*
X-4996Y103014D02*
Y113914D01*
X-5096Y103014D02*
Y113914D01*
X-5196Y103014D02*
Y114014D01*
X-5296Y103014D02*
Y114014D01*
X-5396Y103014D02*
Y114014D01*
X-5496Y103014D02*
Y114014D01*
X-8696Y103014D02*
Y114214D01*
X-8796Y103014D02*
Y114214D01*
X-8896Y103014D02*
Y114214D01*
X-8996Y103014D02*
Y114214D01*
X-9096Y103014D02*
Y114214D01*
X-9196Y103014D02*
Y114214D01*
X-9296Y103014D02*
Y114214D01*
X-9396Y103014D02*
Y114214D01*
X-9496Y103014D02*
Y114214D01*
X-9596Y103014D02*
Y114214D01*
X-9696Y103014D02*
Y114214D01*
X-9796Y103014D02*
Y114214D01*
X-9896Y103014D02*
Y114114D01*
X-9996Y103014D02*
Y114114D01*
X-10096Y103014D02*
Y114114D01*
X-10196Y103014D02*
Y114114D01*
X-10296Y103014D02*
Y114114D01*
X-10396Y103014D02*
Y114114D01*
X-10496Y103014D02*
Y114114D01*
X-10596Y103014D02*
Y114114D01*
X-10696Y103014D02*
Y114014D01*
X-10796Y103014D02*
Y114014D01*
X-10896Y103014D02*
Y114014D01*
X-10996Y103014D02*
Y113914D01*
X-3096Y103014D02*
Y113414D01*
X-896Y74614D02*
Y81014D01*
X-996Y74714D02*
Y80914D01*
X-1096Y74814D02*
Y80814D01*
X-1196Y74914D02*
Y80714D01*
X-1296Y75014D02*
Y80614D01*
X-1396Y75114D02*
Y80514D01*
X-1496Y75314D02*
Y80414D01*
X-3196Y103014D02*
Y113414D01*
X-3296Y103014D02*
Y113514D01*
X-3396Y103014D02*
Y113514D01*
X-3496Y103014D02*
Y113514D01*
X-3596Y103014D02*
Y113614D01*
X-3696Y103014D02*
Y113614D01*
X-3796Y103014D02*
Y113614D01*
X-3896Y103014D02*
Y113614D01*
X-3996Y103014D02*
Y113714D01*
X-4096Y103014D02*
Y113714D01*
X-4196Y103014D02*
Y113714D01*
X-4296Y103014D02*
Y113714D01*
X-4396Y103014D02*
Y113814D01*
X-4496Y103014D02*
Y113814D01*
X-4596Y103014D02*
Y113814D01*
X-4696Y103014D02*
Y113914D01*
X-4796Y103014D02*
Y113914D01*
X904Y111514D02*
Y124314D01*
X3004Y109814D02*
Y121814D01*
X2904Y109914D02*
Y122014D01*
X2804Y110014D02*
Y122114D01*
X2704Y110114D02*
Y122414D01*
X2604Y110114D02*
Y122514D01*
X2504Y110214D02*
Y122614D01*
X2404Y110314D02*
Y122814D01*
X2304Y110414D02*
Y122914D01*
X2204Y110514D02*
Y123014D01*
X2104Y110614D02*
Y123114D01*
X2004Y110714D02*
Y123214D01*
X1904Y110714D02*
Y123314D01*
X1804Y110814D02*
Y123414D01*
X1704Y110914D02*
Y123514D01*
X1604Y111014D02*
Y123614D01*
X1504Y111114D02*
Y123714D01*
X1404Y111114D02*
Y123814D01*
X1304Y111214D02*
Y123914D01*
X1204Y111214D02*
Y124014D01*
X1104Y111314D02*
Y124114D01*
X1004Y111414D02*
Y124214D01*
X804Y111514D02*
Y124314D01*
X704Y111614D02*
Y124414D01*
X604Y111714D02*
Y124514D01*
X504Y111814D02*
Y124514D01*
X-196Y103414D02*
Y112314D01*
X-296Y103314D02*
Y112314D01*
X-396Y103314D02*
Y112414D01*
X-496Y103214D02*
Y112414D01*
X-596Y103114D02*
Y112414D01*
X-696Y103114D02*
Y112514D01*
X-796Y103114D02*
Y112514D01*
X-896Y103014D02*
Y112614D01*
X-996Y103014D02*
Y112614D01*
X-1096Y103014D02*
Y112614D01*
X-1196Y103014D02*
Y112714D01*
X-1296Y103014D02*
Y112814D01*
X-1396Y103014D02*
Y112814D01*
X-1496Y103014D02*
Y112814D01*
X-1596Y103014D02*
Y112914D01*
X-1696Y103014D02*
Y112914D01*
X-1796Y103014D02*
Y112914D01*
X-1896Y103014D02*
Y113014D01*
X-1996Y103014D02*
Y113014D01*
X-2096Y103014D02*
Y113014D01*
X-2196Y103014D02*
Y113114D01*
X-2296Y103014D02*
Y113114D01*
X-2396Y103014D02*
Y113214D01*
X-2496Y103014D02*
Y113214D01*
X-2596Y103014D02*
Y113314D01*
X-2696Y103014D02*
Y113314D01*
X-2796Y103014D02*
Y113314D01*
X-2896Y103014D02*
Y113314D01*
X-2996Y103014D02*
Y113414D01*
X6104Y75314D02*
Y80414D01*
X6004Y75214D02*
Y80614D01*
X5904Y74914D02*
Y80714D01*
X5804Y74814D02*
Y80814D01*
X5704Y74714D02*
Y80914D01*
X5604Y74614D02*
Y81014D01*
X5504Y74514D02*
Y81114D01*
X3604Y109014D02*
Y120314D01*
X3504Y109214D02*
Y120414D01*
X3404Y109314D02*
Y120814D01*
X3304Y109414D02*
Y121114D01*
X3204Y109514D02*
Y121314D01*
X-12896Y30414D02*
Y45514D01*
X-4896Y28714D02*
Y45914D01*
X3104Y31314D02*
Y39914D01*
X-12896Y49014D02*
Y58814D01*
X-4896Y49714D02*
Y60414D01*
X-12896Y76214D02*
Y78614D01*
X-20896Y88814D02*
Y107814D01*
X-12896Y83114D02*
Y94914D01*
X-4896Y82714D02*
Y93914D01*
X3104Y80914D02*
Y87014D01*
X-12896Y121914D02*
Y125114D01*
X-4896Y121114D02*
Y124714D01*
X-21296Y41114D02*
Y48114D01*
X-21396Y41714D02*
Y47814D01*
X-21496Y42414D02*
Y47214D01*
X-21596Y43214D02*
Y45814D01*
X-15096Y31714D02*
Y46614D01*
X-12996Y30414D02*
Y45514D01*
X-13096Y30414D02*
Y45614D01*
X-13196Y30514D02*
Y45614D01*
X-13296Y30514D02*
Y45614D01*
X-13396Y30614D02*
Y45614D01*
X-13496Y30714D02*
Y45714D01*
X-13596Y30714D02*
Y45714D01*
X-13696Y30714D02*
Y45814D01*
X-13796Y30814D02*
Y45814D01*
X-13896Y30914D02*
Y45814D01*
X-13996Y31014D02*
Y45914D01*
X-14096Y31014D02*
Y45914D01*
X-14196Y31114D02*
Y46014D01*
X-14296Y31214D02*
Y46114D01*
X-14396Y31214D02*
Y46114D01*
X-14496Y31314D02*
Y46214D01*
X-14596Y31414D02*
Y46314D01*
X-14696Y31414D02*
Y46314D01*
X-14796Y31514D02*
Y46414D01*
X-14896Y31514D02*
Y46414D01*
X-14996Y31614D02*
Y46514D01*
X-15196Y31814D02*
Y46714D01*
X-15296Y31814D02*
Y46814D01*
X-15396Y31914D02*
Y46914D01*
X-15496Y32014D02*
Y47014D01*
X-15596Y32114D02*
Y47114D01*
X-15696Y32214D02*
Y47214D01*
X-15796Y32314D02*
Y47314D01*
X-15896Y32414D02*
Y47414D01*
X-15996Y32414D02*
Y47414D01*
X-16096Y32514D02*
Y47514D01*
X-16196Y32514D02*
Y47614D01*
X-16296Y32614D02*
Y47714D01*
X-16396Y32714D02*
Y47814D01*
X-16496Y32814D02*
Y48114D01*
X-16596Y32914D02*
Y48214D01*
X-11096Y29614D02*
Y45414D01*
X-11196Y29614D02*
Y45314D01*
X-11296Y29714D02*
Y45414D01*
X-11396Y29714D02*
Y45314D01*
X-11496Y29714D02*
Y45314D01*
X-11596Y29814D02*
Y45414D01*
X-11696Y29814D02*
Y45414D01*
X-11796Y29814D02*
Y45414D01*
X-11896Y29914D02*
Y45414D01*
X-11996Y29914D02*
Y45414D01*
X-12096Y30014D02*
Y45414D01*
X-12196Y30014D02*
Y45414D01*
X-12296Y30014D02*
Y45414D01*
X-12396Y30114D02*
Y45414D01*
X-12496Y30114D02*
Y45414D01*
X-12596Y30214D02*
Y45514D01*
X-12696Y30314D02*
Y45514D01*
X-12796Y30314D02*
Y45514D01*
X-7096Y28714D02*
Y47314D01*
X-4996Y28714D02*
Y45914D01*
X-5096Y28614D02*
Y46014D01*
X-5196Y28614D02*
Y46114D01*
X-5296Y28614D02*
Y46214D01*
X-5396Y28614D02*
Y46214D01*
X-5496Y28614D02*
Y46314D01*
X-5596Y28614D02*
Y46414D01*
X-5696Y28614D02*
Y46514D01*
X-5796Y28614D02*
Y46514D01*
X-5896Y28614D02*
Y46614D01*
X-5996Y28614D02*
Y46714D01*
X-6096Y28714D02*
Y46814D01*
X-6196Y28714D02*
Y46814D01*
X-6296Y28714D02*
Y46914D01*
X-6396Y28714D02*
Y47014D01*
X-6496Y28714D02*
Y47114D01*
X-6596Y28714D02*
Y47114D01*
X-6696Y28714D02*
Y47214D01*
X-6796Y28714D02*
Y47314D01*
X-6896Y28714D02*
Y47414D01*
X-6996Y28714D02*
Y47414D01*
X-7196Y28714D02*
Y47214D01*
X-7296Y28714D02*
Y47014D01*
X-7396Y28714D02*
Y46914D01*
X-7496Y28714D02*
Y46814D01*
X-7596Y28714D02*
Y46714D01*
X-7696Y28814D02*
Y46714D01*
X-7796Y28814D02*
Y46614D01*
X-7896Y28814D02*
Y46514D01*
X-7996Y28814D02*
Y46414D01*
X-8096Y28814D02*
Y46414D01*
X-8196Y28814D02*
Y46314D01*
X-8296Y28914D02*
Y46314D01*
X-8396Y28914D02*
Y46214D01*
X-8496Y28914D02*
Y46214D01*
X-8596Y28914D02*
Y46114D01*
X-8696Y28914D02*
Y46014D01*
X-8796Y28914D02*
Y46014D01*
X-8896Y28914D02*
Y46014D01*
X-8996Y29014D02*
Y45914D01*
X-9096Y29014D02*
Y45914D01*
X-9196Y29014D02*
Y45814D01*
X-9296Y29014D02*
Y45814D01*
X-9396Y29114D02*
Y45814D01*
X-9496Y29114D02*
Y45714D01*
X-9596Y29114D02*
Y45714D01*
X-9696Y29114D02*
Y45614D01*
X-9796Y29214D02*
Y45614D01*
X-9896Y29214D02*
Y45614D01*
X-9996Y29214D02*
Y45614D01*
X-10096Y29314D02*
Y45514D01*
X-10196Y29314D02*
Y45514D01*
X-10296Y29314D02*
Y45514D01*
X-10396Y29414D02*
Y45514D01*
X-10496Y29414D02*
Y45414D01*
X-10596Y29414D02*
Y45414D01*
X-10696Y29414D02*
Y45414D01*
X-10796Y29414D02*
Y45414D01*
X-10896Y29514D02*
Y45414D01*
X-10996Y29514D02*
Y45414D01*
X-3096Y28814D02*
Y44514D01*
X-3196Y28814D02*
Y44614D01*
X-3296Y28814D02*
Y44714D01*
X-3396Y28814D02*
Y44714D01*
X-3496Y28814D02*
Y44814D01*
X-3596Y28814D02*
Y44914D01*
X-3696Y28714D02*
Y45014D01*
X-3796Y28714D02*
Y45014D01*
X-3896Y28714D02*
Y45114D01*
X-3996Y28714D02*
Y45214D01*
X-4096Y28714D02*
Y45314D01*
X-4196Y28714D02*
Y45314D01*
X-4296Y28714D02*
Y45414D01*
X-4396Y28714D02*
Y45514D01*
X-4496Y28714D02*
Y45614D01*
X-4596Y28714D02*
Y45614D01*
X-4696Y28714D02*
Y45714D01*
X-4796Y28714D02*
Y45814D01*
X904Y30114D02*
Y41514D01*
X3004Y31214D02*
Y40014D01*
X2904Y31114D02*
Y40014D01*
X2804Y31014D02*
Y40114D01*
X2704Y31014D02*
Y40214D01*
X2604Y31014D02*
Y40314D01*
X2504Y30914D02*
Y40314D01*
X2404Y30814D02*
Y40414D01*
X2304Y30814D02*
Y40514D01*
X2204Y30714D02*
Y40614D01*
X2104Y30714D02*
Y40614D01*
X2004Y30614D02*
Y40714D01*
X1904Y30514D02*
Y40814D01*
X1804Y30514D02*
Y40914D01*
X1704Y30514D02*
Y40914D01*
X1604Y30414D02*
Y41014D01*
X1504Y30314D02*
Y41114D01*
X1404Y30314D02*
Y41214D01*
X1304Y30214D02*
Y41214D01*
X1204Y30114D02*
Y41314D01*
X1104Y30114D02*
Y41414D01*
X1004Y30114D02*
Y41514D01*
X804Y30014D02*
Y41614D01*
X704Y30014D02*
Y41714D01*
X604Y29914D02*
Y41814D01*
X504Y29914D02*
Y41814D01*
X404Y29814D02*
Y41914D01*
X304Y29814D02*
Y42014D01*
X204Y29814D02*
Y42114D01*
X104Y29714D02*
Y42114D01*
X4Y29714D02*
Y42214D01*
X-96Y29714D02*
Y42314D01*
X-196Y29614D02*
Y42414D01*
X-296Y29614D02*
Y42414D01*
X-396Y29614D02*
Y42514D01*
X-496Y29514D02*
Y42614D01*
X-596Y29514D02*
Y42714D01*
X-696Y29414D02*
Y42714D01*
X-796Y29414D02*
Y42814D01*
X-896Y29414D02*
Y42914D01*
X-996Y29314D02*
Y43014D01*
X-1096Y29314D02*
Y43014D01*
X-1196Y29314D02*
Y43114D01*
X-1296Y29314D02*
Y43214D01*
X-1396Y29214D02*
Y43214D01*
X-1496Y29214D02*
Y43314D01*
X-1596Y29214D02*
Y43414D01*
X-1696Y29214D02*
Y43514D01*
X-1796Y29114D02*
Y43514D01*
X-1896Y29114D02*
Y43614D01*
X-1996Y29114D02*
Y43714D01*
X-2096Y29114D02*
Y43814D01*
X-2196Y29014D02*
Y43814D01*
X-2296Y29014D02*
Y43914D01*
X-2396Y29014D02*
Y44014D01*
X-2496Y29014D02*
Y44114D01*
X-2596Y28914D02*
Y44114D01*
X-2696Y28914D02*
Y44214D01*
X-2796Y28914D02*
Y44314D01*
X-2896Y28914D02*
Y44414D01*
X-2996Y28914D02*
Y44414D01*
X3604Y31714D02*
Y39514D01*
X3504Y31614D02*
Y39614D01*
X3404Y31514D02*
Y39714D01*
X3304Y31414D02*
Y39714D01*
X3204Y31314D02*
Y39814D01*
X9904Y41214D02*
Y47914D01*
X10104Y42414D02*
Y46814D01*
X10004Y41614D02*
Y47614D01*
X10204Y43114D02*
Y46014D01*
X-15096Y57614D02*
Y71914D01*
X-14496Y58014D02*
Y72014D01*
X-14596Y57914D02*
Y72014D01*
X-14696Y57914D02*
Y71914D01*
X-14796Y57814D02*
Y71914D01*
X-14896Y57714D02*
Y71914D01*
X-14996Y57714D02*
Y71914D01*
X-15196Y57514D02*
Y71814D01*
X-15296Y57414D02*
Y71814D01*
X-15396Y57314D02*
Y71814D01*
X-15496Y57314D02*
Y71814D01*
X-15596Y57214D02*
Y71814D01*
X-15696Y57114D02*
Y71814D01*
X-15796Y57014D02*
Y71814D01*
X-15896Y56914D02*
Y71814D01*
X-15996Y56914D02*
Y71814D01*
X-16096Y56814D02*
Y71814D01*
X-16196Y56714D02*
Y71914D01*
X-16296Y56614D02*
Y71914D01*
X-16396Y56614D02*
Y71914D01*
X-16496Y56514D02*
Y71914D01*
X-16596Y56414D02*
Y71914D01*
X-16696Y56314D02*
Y72014D01*
X-16796Y56214D02*
Y72014D01*
X-16896Y56114D02*
Y72014D01*
X-16996Y56014D02*
Y72114D01*
X-17096Y55914D02*
Y72214D01*
X-17196Y55814D02*
Y72214D01*
X-17296Y55714D02*
Y72214D01*
X-17396Y55514D02*
Y72314D01*
X-19096Y71814D02*
Y78014D01*
X-12996Y49014D02*
Y58714D01*
X-13096Y49114D02*
Y58714D01*
X-13196Y49114D02*
Y58714D01*
X-13296Y49214D02*
Y58614D01*
X-13396Y49314D02*
Y58614D01*
X-13496Y49414D02*
Y58514D01*
X-13596Y49514D02*
Y58514D01*
X-13696Y49614D02*
Y58414D01*
X-13796Y49814D02*
Y58414D01*
X-13896Y49914D02*
Y58314D01*
X-13996Y50014D02*
Y58214D01*
X-14096Y50214D02*
Y58214D01*
X-14196Y50414D02*
Y58114D01*
X-14296Y50714D02*
Y58014D01*
X-14396Y51114D02*
Y57914D01*
X-19196Y71914D02*
Y77914D01*
X-18896Y71614D02*
Y78214D01*
X-18996Y71714D02*
Y78114D01*
X-19296Y72014D02*
Y77814D01*
X-19396Y72114D02*
Y77714D01*
X-19496Y72214D02*
Y77614D01*
X-19596Y72414D02*
Y77414D01*
X-19696Y72614D02*
Y77214D01*
X-19796Y72814D02*
Y77014D01*
X-19896Y73014D02*
Y76814D01*
X-19996Y73214D02*
Y76514D01*
X-20096Y73514D02*
Y76314D01*
X-18496Y76214D02*
Y78614D01*
X-18596Y76014D02*
Y78514D01*
X-18696Y75714D02*
Y78414D01*
X-18796Y75114D02*
Y78314D01*
X-11096Y48414D02*
Y59514D01*
X-11196Y48414D02*
Y59514D01*
X-11296Y48414D02*
Y59414D01*
X-11396Y48414D02*
Y59314D01*
X-11496Y48414D02*
Y59314D01*
X-11596Y48414D02*
Y59314D01*
X-11696Y48414D02*
Y59314D01*
X-11796Y48414D02*
Y59314D01*
X-11896Y48414D02*
Y59314D01*
X-11996Y48514D02*
Y59314D01*
X-12096Y48514D02*
Y59214D01*
X-12196Y48514D02*
Y59214D01*
X-12296Y48614D02*
Y59114D01*
X-12396Y48614D02*
Y59114D01*
X-12496Y48714D02*
Y59014D01*
X-12596Y48714D02*
Y59014D01*
X-12696Y48814D02*
Y58914D01*
X-12796Y48914D02*
Y58914D01*
X-7096Y60214D02*
Y65314D01*
X-4996Y49914D02*
Y60414D01*
X-5096Y50114D02*
Y60414D01*
X-5196Y50314D02*
Y60414D01*
X-8496Y50414D02*
Y60114D01*
X-8596Y50214D02*
Y60114D01*
X-8696Y50014D02*
Y60114D01*
X-8796Y49914D02*
Y60114D01*
X-8896Y49814D02*
Y60114D01*
X-8996Y49714D02*
Y60114D01*
X-9096Y49514D02*
Y60114D01*
X-9196Y49414D02*
Y60014D01*
X-9296Y49314D02*
Y60014D01*
X-9396Y49314D02*
Y60014D01*
X-9496Y49214D02*
Y60014D01*
X-9596Y49214D02*
Y59914D01*
X-9696Y49114D02*
Y59914D01*
X-9796Y49014D02*
Y59914D01*
X-9896Y48914D02*
Y59914D01*
X-9996Y48914D02*
Y59814D01*
X-10096Y48814D02*
Y59814D01*
X-10196Y48714D02*
Y59814D01*
X-10296Y48714D02*
Y59814D01*
X-10396Y48714D02*
Y59714D01*
X-10496Y48614D02*
Y59714D01*
X-10596Y48614D02*
Y59614D01*
X-10696Y48514D02*
Y59614D01*
X-10796Y48514D02*
Y59614D01*
X-10896Y48414D02*
Y59614D01*
X-10996Y48414D02*
Y59514D01*
X-5396Y60214D02*
Y65614D01*
X-5496Y60214D02*
Y65614D01*
X-5596Y60214D02*
Y65514D01*
X-5696Y60214D02*
Y65514D01*
X-5796Y60214D02*
Y65514D01*
X-5896Y60214D02*
Y65414D01*
X-5996Y60214D02*
Y65414D01*
X-6096Y60214D02*
Y65414D01*
X-6196Y60214D02*
Y65314D01*
X-6296Y60214D02*
Y65314D01*
X-6396Y60214D02*
Y65314D01*
X-6496Y60214D02*
Y65314D01*
X-6596Y60214D02*
Y65314D01*
X-6696Y60214D02*
Y65314D01*
X-6796Y60214D02*
Y65314D01*
X-6896Y60214D02*
Y65314D01*
X-6996Y60214D02*
Y65314D01*
X-7196Y60214D02*
Y65314D01*
X-7296Y60214D02*
Y65314D01*
X-7396Y60214D02*
Y65314D01*
X-7496Y60214D02*
Y65314D01*
X-7596Y60214D02*
Y65314D01*
X-7696Y60214D02*
Y65414D01*
X-7796Y60214D02*
Y65414D01*
X-7896Y60214D02*
Y65414D01*
X-7996Y60214D02*
Y65514D01*
X-8096Y60214D02*
Y65514D01*
X-8196Y60214D02*
Y65614D01*
X-8296Y60214D02*
Y65614D01*
X-8396Y50614D02*
Y60114D01*
X-12196Y71914D02*
Y77914D01*
X-12296Y71814D02*
Y78014D01*
X-12396Y71714D02*
Y78114D01*
X-12496Y71614D02*
Y78214D01*
X-12596Y71514D02*
Y78314D01*
X-11096Y66214D02*
Y70414D01*
X-5296Y60214D02*
Y63814D01*
X-8396Y60214D02*
Y61814D01*
X-11196Y66514D02*
Y70214D01*
X-11296Y66714D02*
Y69914D01*
X-11396Y67114D02*
Y69614D01*
X-11496Y67514D02*
Y69314D01*
X-11596Y68114D02*
Y68514D01*
X-10096Y64914D02*
Y71714D01*
X-10196Y65014D02*
Y71614D01*
X-10296Y65114D02*
Y71514D01*
X-10396Y65214D02*
Y71414D01*
X-10496Y65314D02*
Y71314D01*
X-10596Y65414D02*
Y71214D01*
X-10696Y65614D02*
Y71114D01*
X-10796Y65814D02*
Y70914D01*
X-10896Y66014D02*
Y70714D01*
X-10996Y66114D02*
Y70514D01*
X-12696Y75614D02*
Y78414D01*
X-12796Y75914D02*
Y78514D01*
X-11396Y73314D02*
Y76514D01*
X-11496Y73014D02*
Y76714D01*
X-11596Y72814D02*
Y77014D01*
X-11696Y72614D02*
Y77214D01*
X-11796Y72514D02*
Y77314D01*
X-11896Y72314D02*
Y77514D01*
X-11996Y72114D02*
Y77714D01*
X-12096Y72014D02*
Y77814D01*
X-3196Y48414D02*
Y60214D01*
X-3296Y48414D02*
Y60314D01*
X-3396Y48514D02*
Y60314D01*
X-3496Y48614D02*
Y60314D01*
X-3596Y48614D02*
Y60314D01*
X-3696Y48714D02*
Y60314D01*
X-3796Y48714D02*
Y60314D01*
X-3896Y48814D02*
Y60314D01*
X-3996Y48914D02*
Y60314D01*
X-4096Y48914D02*
Y60314D01*
X-4196Y49014D02*
Y60314D01*
X-4296Y49014D02*
Y60414D01*
X-4396Y49114D02*
Y60414D01*
X-4496Y49214D02*
Y60414D01*
X-4596Y49314D02*
Y60414D01*
X-4696Y49414D02*
Y60414D01*
X-4796Y49514D02*
Y60414D01*
X-1596Y75414D02*
Y80214D01*
X-1696Y75514D02*
Y80114D01*
X-3096Y65814D02*
Y71014D01*
X-3196Y65614D02*
Y71114D01*
X-3296Y65514D02*
Y71214D01*
X-3396Y65414D02*
Y71414D01*
X-3496Y65314D02*
Y71514D01*
X-3596Y65214D02*
Y71614D01*
X-3696Y65114D02*
Y71714D01*
X-3796Y65014D02*
Y71814D01*
X-2796Y66214D02*
Y70514D01*
X-2896Y66114D02*
Y70614D01*
X-2996Y65914D02*
Y70814D01*
X-2296Y68214D02*
Y68614D01*
X-2396Y67414D02*
Y69314D01*
X-2496Y67014D02*
Y69714D01*
X-2596Y66714D02*
Y70014D01*
X-2696Y66514D02*
Y70314D01*
X-1796Y75814D02*
Y79814D01*
X-1896Y76014D02*
Y79614D01*
X-1996Y76314D02*
Y79414D01*
X-496Y74214D02*
Y76514D01*
X-596Y74314D02*
Y76614D01*
X-696Y74414D02*
Y76814D01*
X-796Y74514D02*
Y77214D01*
X6304Y75614D02*
Y80014D01*
X6204Y75514D02*
Y80214D01*
X6604Y76314D02*
Y79414D01*
X6504Y76114D02*
Y79614D01*
X6404Y75814D02*
Y79814D01*
X5404Y74414D02*
Y77614D01*
X5304Y74314D02*
Y76914D01*
X5204Y74214D02*
Y76714D01*
X5104Y74214D02*
Y76414D01*
X5004Y74214D02*
Y76314D01*
X-23096Y92914D02*
Y103714D01*
X-20996Y88914D02*
Y107714D01*
X-21096Y89014D02*
Y107614D01*
X-21196Y89114D02*
Y107514D01*
X-21296Y89414D02*
Y107314D01*
X-21396Y89514D02*
Y107114D01*
X-21496Y89614D02*
Y107014D01*
X-21596Y89814D02*
Y106914D01*
X-21696Y89914D02*
Y106714D01*
X-21796Y90114D02*
Y106514D01*
X-21896Y90314D02*
Y106314D01*
X-21996Y90514D02*
Y106114D01*
X-22096Y90614D02*
Y106014D01*
X-22196Y90814D02*
Y105814D01*
X-22296Y90914D02*
Y105614D01*
X-22396Y91214D02*
Y105414D01*
X-22496Y91414D02*
Y105314D01*
X-22596Y91614D02*
Y105014D01*
X-22696Y91914D02*
Y104814D01*
X-22796Y92114D02*
Y104614D01*
X-22896Y92314D02*
Y104314D01*
X-22996Y92514D02*
Y104114D01*
X-23196Y93114D02*
Y103514D01*
X-23296Y93414D02*
Y103214D01*
X-23396Y93714D02*
Y102814D01*
X-23496Y94114D02*
Y102514D01*
X-23596Y94514D02*
Y102214D01*
X-23696Y95014D02*
Y101714D01*
X-23796Y95314D02*
Y101314D01*
X-23896Y96114D02*
Y100514D01*
X-19096Y86814D02*
Y110014D01*
X-19196Y86914D02*
Y109914D01*
X-19296Y86914D02*
Y109714D01*
X-19396Y87114D02*
Y109614D01*
X-19496Y87214D02*
Y109514D01*
X-19596Y87314D02*
Y109414D01*
X-19696Y87314D02*
Y109314D01*
X-19796Y87514D02*
Y109214D01*
X-19896Y87614D02*
Y109114D01*
X-19996Y87714D02*
Y109014D01*
X-20096Y87814D02*
Y108914D01*
X-20196Y88014D02*
Y108714D01*
X-20296Y88114D02*
Y108614D01*
X-20396Y88214D02*
Y108514D01*
X-20496Y88314D02*
Y108314D01*
X-20596Y88414D02*
Y108214D01*
X-20696Y88514D02*
Y108114D01*
X-20796Y88714D02*
Y108014D01*
X-17296Y93914D02*
Y100314D01*
X-17396Y93614D02*
Y100614D01*
X-17596Y85514D02*
Y111014D01*
X-17696Y85514D02*
Y110914D01*
X-17796Y85614D02*
Y110914D01*
X-17896Y85714D02*
Y110814D01*
X-17996Y85814D02*
Y110714D01*
X-18096Y85914D02*
Y110714D01*
X-18196Y86014D02*
Y110614D01*
X-18296Y86114D02*
Y110514D01*
X-18396Y86214D02*
Y110414D01*
X-18496Y86214D02*
Y110414D01*
X-18596Y86314D02*
Y110314D01*
X-18696Y86414D02*
Y110314D01*
X-18796Y86514D02*
Y110214D01*
X-18896Y86614D02*
Y110114D01*
X-18996Y86714D02*
Y110014D01*
X-12996Y83114D02*
Y94814D01*
X-13096Y83114D02*
Y94814D01*
X-13196Y83214D02*
Y94714D01*
X-13296Y83214D02*
Y94714D01*
X-13396Y83314D02*
Y94614D01*
X-13496Y83314D02*
Y94514D01*
X-13596Y83314D02*
Y94414D01*
X-13696Y83314D02*
Y94314D01*
X-13796Y83414D02*
Y94114D01*
X-13896Y83414D02*
Y93914D01*
X-13996Y83514D02*
Y93814D01*
X-14096Y83514D02*
Y93614D01*
X-14196Y83514D02*
Y93214D01*
X-14296Y83614D02*
Y92714D01*
X-17496Y85414D02*
Y92714D01*
X-11096Y82714D02*
Y95314D01*
X-11196Y82714D02*
Y95414D01*
X-11296Y82714D02*
Y95414D01*
X-11396Y82714D02*
Y95414D01*
X-11496Y82714D02*
Y95414D01*
X-11596Y82714D02*
Y95414D01*
X-11696Y82714D02*
Y95414D01*
X-11796Y82814D02*
Y95414D01*
X-11896Y82814D02*
Y95314D01*
X-11996Y82814D02*
Y95314D01*
X-12096Y82914D02*
Y95314D01*
X-12196Y82914D02*
Y95214D01*
X-12296Y82914D02*
Y95214D01*
X-12396Y83014D02*
Y95214D01*
X-12496Y83014D02*
Y95114D01*
X-12596Y83014D02*
Y95114D01*
X-12696Y83014D02*
Y95014D01*
X-12796Y83014D02*
Y95014D01*
X-8596Y82414D02*
Y93114D01*
X-8696Y82414D02*
Y93314D01*
X-8796Y82414D02*
Y93614D01*
X-8896Y82414D02*
Y93814D01*
X-8996Y82414D02*
Y93914D01*
X-9096Y82414D02*
Y94014D01*
X-9196Y82414D02*
Y94214D01*
X-9296Y82414D02*
Y94414D01*
X-9396Y82414D02*
Y94514D01*
X-9496Y82414D02*
Y94614D01*
X-4996Y82714D02*
Y93814D01*
X-5096Y82714D02*
Y93614D01*
X-5196Y82714D02*
Y93314D01*
X-5296Y82714D02*
Y92914D01*
X-5396Y82714D02*
Y92714D01*
X-9596Y82514D02*
Y94714D01*
X-9696Y82514D02*
Y94814D01*
X-9796Y82514D02*
Y94814D01*
X-9896Y82514D02*
Y94814D01*
X-9996Y82514D02*
Y94914D01*
X-10096Y82514D02*
Y95014D01*
X-10196Y82514D02*
Y95014D01*
X-10296Y82514D02*
Y95114D01*
X-10396Y82514D02*
Y95114D01*
X-10496Y82514D02*
Y95114D01*
X-10596Y82614D02*
Y95214D01*
X-10696Y82614D02*
Y95214D01*
X-10796Y82614D02*
Y95314D01*
X-10896Y82614D02*
Y95314D01*
X-10996Y82614D02*
Y95314D01*
X-3096Y83214D02*
Y95314D01*
X-3196Y83214D02*
Y95214D01*
X-3296Y83214D02*
Y95214D01*
X-3396Y83114D02*
Y95214D01*
X-3496Y83114D02*
Y95114D01*
X-3596Y83014D02*
Y95114D01*
X-3696Y83014D02*
Y95114D01*
X-3796Y83014D02*
Y95014D01*
X-3896Y83014D02*
Y94914D01*
X-3996Y82914D02*
Y94814D01*
X-4096Y82914D02*
Y94814D01*
X-4196Y82914D02*
Y94714D01*
X-4296Y82914D02*
Y94614D01*
X-4396Y82814D02*
Y94514D01*
X-4496Y82814D02*
Y94414D01*
X-4596Y82814D02*
Y94314D01*
X-4696Y82814D02*
Y94214D01*
X-4796Y82714D02*
Y94114D01*
X504Y85014D02*
Y92614D01*
X404Y84914D02*
Y93114D01*
X304Y84814D02*
Y93414D01*
X204Y84714D02*
Y93614D01*
X104Y84714D02*
Y93714D01*
X4Y84614D02*
Y93814D01*
X-96Y84514D02*
Y94014D01*
X-196Y84514D02*
Y94214D01*
X-296Y84414D02*
Y94314D01*
X-396Y84414D02*
Y94414D01*
X-496Y84314D02*
Y94514D01*
X-596Y84314D02*
Y94614D01*
X-696Y84214D02*
Y94714D01*
X-796Y84214D02*
Y94714D01*
X-896Y84214D02*
Y94814D01*
X-996Y84114D02*
Y94814D01*
X-1096Y84014D02*
Y94914D01*
X-1196Y84014D02*
Y95014D01*
X-1296Y83914D02*
Y95014D01*
X-1396Y83914D02*
Y95114D01*
X-1496Y83814D02*
Y95214D01*
X-1596Y83814D02*
Y95214D01*
X-1696Y83714D02*
Y95214D01*
X-1796Y83714D02*
Y95314D01*
X-1896Y83614D02*
Y95314D01*
X-1996Y83614D02*
Y95314D01*
X-2096Y83614D02*
Y95314D01*
X-2196Y83614D02*
Y95314D01*
X-2296Y83514D02*
Y95414D01*
X-2396Y83514D02*
Y95414D01*
X-2496Y83414D02*
Y95414D01*
X-2596Y83414D02*
Y95414D01*
X-2696Y83314D02*
Y95414D01*
X-2796Y83314D02*
Y95414D01*
X-2896Y83314D02*
Y95314D01*
X-2996Y83214D02*
Y95314D01*
X404Y104414D02*
Y111914D01*
X304Y104114D02*
Y112014D01*
X204Y103914D02*
Y112114D01*
X104Y103714D02*
Y112114D01*
X4Y103614D02*
Y112214D01*
X-96Y103514D02*
Y112214D01*
X904Y80714D02*
Y85214D01*
X3004Y80914D02*
Y86914D01*
X2904Y80914D02*
Y86814D01*
X2804Y80914D02*
Y86714D01*
X2704Y80914D02*
Y86614D01*
X2604Y81014D02*
Y86514D01*
X2504Y81014D02*
Y86414D01*
X2404Y81014D02*
Y86314D01*
X2304Y81014D02*
Y86314D01*
X2204Y81014D02*
Y86214D01*
X2104Y81014D02*
Y86114D01*
X2004Y81014D02*
Y86014D01*
X1904Y80914D02*
Y85914D01*
X1804Y80914D02*
Y85814D01*
X1704Y80914D02*
Y85714D01*
X1604Y80914D02*
Y85714D01*
X1504Y80914D02*
Y85614D01*
X1404Y80914D02*
Y85514D01*
X1304Y80814D02*
Y85414D01*
X1204Y80814D02*
Y85314D01*
X1104Y80714D02*
Y85314D01*
X1004Y80714D02*
Y85214D01*
X804Y80614D02*
Y85114D01*
X704Y80514D02*
Y85014D01*
X604Y80414D02*
Y84914D01*
X4904Y89114D02*
Y107414D01*
X4804Y89014D02*
Y107514D01*
X4704Y88814D02*
Y107614D01*
X4604Y88714D02*
Y107814D01*
X4504Y88614D02*
Y108014D01*
X4404Y88514D02*
Y108114D01*
X4304Y88314D02*
Y108214D01*
X4204Y88114D02*
Y108414D01*
X4104Y88014D02*
Y108514D01*
X4004Y87914D02*
Y108614D01*
X3904Y87814D02*
Y108714D01*
X3804Y87714D02*
Y108714D01*
X3704Y87714D02*
Y108814D01*
X3604Y93314D02*
Y100414D01*
X7304Y94114D02*
Y102514D01*
X7204Y93814D02*
Y102814D01*
X7104Y93514D02*
Y103014D01*
X7004Y93214D02*
Y103214D01*
X6904Y92914D02*
Y103614D01*
X6804Y92714D02*
Y103814D01*
X6704Y92514D02*
Y104114D01*
X6604Y92214D02*
Y104314D01*
X6504Y91814D02*
Y104614D01*
X6404Y91714D02*
Y105014D01*
X6304Y91514D02*
Y105014D01*
X6204Y91314D02*
Y105314D01*
X6104Y91114D02*
Y105414D01*
X6004Y90914D02*
Y105614D01*
X5904Y90714D02*
Y105814D01*
X5804Y90414D02*
Y106114D01*
X5704Y90314D02*
Y106214D01*
X5604Y90114D02*
Y106514D01*
X5504Y90014D02*
Y106614D01*
X5404Y89914D02*
Y106614D01*
X5304Y89714D02*
Y106914D01*
X5204Y89614D02*
Y107014D01*
X5104Y89414D02*
Y107114D01*
X5004Y89314D02*
Y107314D01*
X7604Y95614D02*
Y101014D01*
X7504Y95014D02*
Y101614D01*
X7404Y94714D02*
Y102014D01*
X3504Y80814D02*
Y87314D01*
X3404Y80814D02*
Y87314D01*
X3304Y80814D02*
Y87214D01*
X3204Y80914D02*
Y87114D01*
X7704Y96314D02*
Y100414D01*
X-14396Y119814D02*
Y124614D01*
X-12996Y121914D02*
Y125114D01*
X-13096Y121814D02*
Y125114D01*
X-13196Y121714D02*
Y125114D01*
X-13296Y121714D02*
Y125014D01*
X-13396Y121614D02*
Y125014D01*
X-13496Y121514D02*
Y124914D01*
X-13596Y121414D02*
Y124914D01*
X-13696Y121314D02*
Y124914D01*
X-13796Y121214D02*
Y124814D01*
X-13896Y121014D02*
Y124814D01*
X-13996Y120914D02*
Y124814D01*
X-14096Y120714D02*
Y124714D01*
X-14196Y120614D02*
Y124714D01*
X-14296Y120314D02*
Y124614D01*
X-5496Y119814D02*
Y124414D01*
X-11096Y122214D02*
Y125414D01*
X-11196Y122214D02*
Y125414D01*
X-11296Y122214D02*
Y125414D01*
X-11396Y122214D02*
Y125414D01*
X-11496Y122214D02*
Y125414D01*
X-11596Y122314D02*
Y125414D01*
X-11696Y122314D02*
Y125414D01*
X-11796Y122314D02*
Y125414D01*
X-11896Y122314D02*
Y125314D01*
X-11996Y122314D02*
Y125314D01*
X-12096Y122214D02*
Y125314D01*
X-12196Y122214D02*
Y125314D01*
X-12296Y122214D02*
Y125314D01*
X-12396Y122114D02*
Y125314D01*
X-12496Y122114D02*
Y125214D01*
X-12596Y122114D02*
Y125214D01*
X-12696Y122014D02*
Y125214D01*
X-12796Y122014D02*
Y125214D01*
X-4996Y121014D02*
Y124714D01*
X-5096Y120814D02*
Y124714D01*
X-5196Y120714D02*
Y124614D01*
X-5296Y120514D02*
Y124514D01*
X-5396Y120114D02*
Y124514D01*
X-8696Y120014D02*
Y124614D01*
X-8796Y120214D02*
Y124714D01*
X-8896Y120314D02*
Y124714D01*
X-8996Y120514D02*
Y124814D01*
X-9096Y120714D02*
Y124814D01*
X-9196Y120814D02*
Y124814D01*
X-9296Y121014D02*
Y124914D01*
X-9396Y121114D02*
Y124914D01*
X-9496Y121214D02*
Y125014D01*
X-9596Y121414D02*
Y125014D01*
X-9696Y121514D02*
Y125014D01*
X-9796Y121614D02*
Y125114D01*
X-9896Y121714D02*
Y125114D01*
X-9996Y121814D02*
Y125214D01*
X-10096Y121814D02*
Y125214D01*
X-10196Y121914D02*
Y125214D01*
X-10296Y121914D02*
Y125214D01*
X-10396Y122014D02*
Y125314D01*
X-10496Y122014D02*
Y125314D01*
X-10596Y122114D02*
Y125314D01*
X-10696Y122114D02*
Y125314D01*
X-10796Y122114D02*
Y125314D01*
X-10896Y122214D02*
Y125414D01*
X-10996Y122214D02*
Y125414D01*
X404Y119914D02*
Y124614D01*
X-3096Y122214D02*
Y125314D01*
X-3196Y122214D02*
Y125214D01*
X-3296Y122214D02*
Y125214D01*
X-3396Y122214D02*
Y125214D01*
X-3496Y122114D02*
Y125214D01*
X-3596Y122114D02*
Y125114D01*
X-3696Y122114D02*
Y125214D01*
X-3796Y122014D02*
Y125114D01*
X-3896Y121914D02*
Y125114D01*
X-3996Y121914D02*
Y125114D01*
X-4096Y121814D02*
Y125014D01*
X-4196Y121814D02*
Y125014D01*
X-4296Y121714D02*
Y125014D01*
X-4396Y121614D02*
Y124914D01*
X-4496Y121514D02*
Y124914D01*
X-4596Y121414D02*
Y124814D01*
X-4696Y121314D02*
Y124814D01*
X-4796Y121214D02*
Y124814D01*
X304Y120314D02*
Y124614D01*
X204Y120414D02*
Y124714D01*
X104Y120614D02*
Y124814D01*
X4Y120714D02*
Y124814D01*
X-96Y120914D02*
Y124914D01*
X-196Y121014D02*
Y124914D01*
X-296Y121114D02*
Y124914D01*
X-396Y121314D02*
Y125014D01*
X-496Y121414D02*
Y125014D01*
X-596Y121514D02*
Y125014D01*
X-696Y121614D02*
Y125014D01*
X-796Y121714D02*
Y125114D01*
X-896Y121714D02*
Y125114D01*
X-996Y121814D02*
Y125114D01*
X-1096Y121814D02*
Y125214D01*
X-1196Y121914D02*
Y125214D01*
X-1296Y122014D02*
Y125214D01*
X-1396Y122014D02*
Y125214D01*
X-1496Y122114D02*
Y125214D01*
X-1596Y122214D02*
Y125214D01*
X-1696Y122214D02*
Y125214D01*
X-1796Y122214D02*
Y125314D01*
X-1896Y122314D02*
Y125314D01*
X-1996Y122314D02*
Y125314D01*
X-2096Y122314D02*
Y125314D01*
X-2196Y122314D02*
Y125314D01*
X-2296Y122314D02*
Y125314D01*
X-2396Y122314D02*
Y125314D01*
X-2496Y122314D02*
Y125314D01*
X-2596Y122314D02*
Y125314D01*
X-2696Y122314D02*
Y125314D01*
X-2796Y122314D02*
Y125314D01*
X-2896Y122314D02*
Y125314D01*
X-2996Y122314D02*
Y125314D01*
X-4896Y64214D02*
Y66014D01*
X-12896Y71214D02*
Y73614D01*
X-4896Y70714D02*
Y72514D01*
X-12896Y98314D02*
Y99214D01*
X-4896Y97814D02*
Y99214D01*
X3104Y95014D02*
Y99614D01*
X-21596Y46414D02*
Y46514D01*
Y46214D02*
Y46314D01*
Y46014D02*
Y46114D01*
X-8396Y62114D02*
Y62514D01*
Y62814D02*
Y63214D01*
X-4996Y64214D02*
Y65914D01*
X-5096Y64114D02*
Y65914D01*
X-5196Y64114D02*
Y65814D01*
X-5296Y64014D02*
Y65714D01*
X-8396Y64014D02*
Y65614D01*
X-8496Y64014D02*
Y65714D01*
X-8596Y64114D02*
Y65814D01*
X-8696Y64114D02*
Y65814D01*
X-8796Y64114D02*
Y65914D01*
X-8896Y64214D02*
Y66014D01*
X-8996Y64214D02*
Y66114D01*
X-9096Y64314D02*
Y66214D01*
X-9196Y64314D02*
Y66314D01*
X-9296Y64414D02*
Y66414D01*
X-9396Y64414D02*
Y66514D01*
X-9496Y64514D02*
Y66614D01*
X-9596Y64614D02*
Y66714D01*
X-9696Y64614D02*
Y66914D01*
X-9796Y64614D02*
Y67214D01*
X-9896Y64714D02*
Y67414D01*
X-9996Y64814D02*
Y67814D01*
X-3896Y64914D02*
Y67614D01*
X-3996Y64814D02*
Y67314D01*
X-4096Y64714D02*
Y67114D01*
X-4196Y64614D02*
Y66914D01*
X-4296Y64514D02*
Y66714D01*
X-4396Y64414D02*
Y66514D01*
X-4496Y64414D02*
Y66414D01*
X-4596Y64314D02*
Y66314D01*
X-4696Y64314D02*
Y66214D01*
X-4796Y64214D02*
Y66114D01*
X-12996Y71214D02*
Y73514D01*
X-13096Y71114D02*
Y73314D01*
X-13196Y71014D02*
Y73114D01*
X-13296Y70914D02*
Y73014D01*
X-13396Y70914D02*
Y72914D01*
X-13496Y70814D02*
Y72814D01*
X-13596Y70814D02*
Y72714D01*
X-13696Y70814D02*
Y72614D01*
X-13796Y70714D02*
Y72514D01*
X-13896Y70714D02*
Y72414D01*
X-13996Y70514D02*
Y72414D01*
X-14096Y70514D02*
Y72314D01*
X-14196Y70514D02*
Y72214D01*
X-14296Y70514D02*
Y72214D01*
X-14396Y70514D02*
Y72114D01*
X-17496Y70614D02*
Y72414D01*
X-17596Y70714D02*
Y72514D01*
X-17696Y70714D02*
Y72514D01*
X-17796Y70814D02*
Y72614D01*
X-17896Y70914D02*
Y72714D01*
X-17996Y70914D02*
Y72814D01*
X-18096Y70914D02*
Y72914D01*
X-18196Y71014D02*
Y73114D01*
X-18296Y71014D02*
Y73214D01*
X-18396Y71114D02*
Y73314D01*
X-18496Y71214D02*
Y73514D01*
X-18596Y71314D02*
Y73814D01*
X-18696Y71414D02*
Y74114D01*
X-18796Y71514D02*
Y74714D01*
X-20196Y73814D02*
Y76014D01*
X-20296Y74414D02*
Y75414D01*
X-18696Y75514D02*
Y75614D01*
X-12696Y71414D02*
Y74214D01*
X-12796Y71314D02*
Y73914D01*
X-9296Y70414D02*
Y72314D01*
X-9396Y70314D02*
Y72314D01*
X-9496Y70114D02*
Y72214D01*
X-9596Y70014D02*
Y72114D01*
X-9696Y69714D02*
Y72014D01*
X-9796Y69514D02*
Y72014D01*
X-9896Y69214D02*
Y71914D01*
X-4996Y70814D02*
Y72514D01*
X-5096Y70914D02*
Y72614D01*
X-5196Y70914D02*
Y72614D01*
X-5296Y71014D02*
Y72714D01*
X-5396Y71114D02*
Y72714D01*
X-8496Y71014D02*
Y72714D01*
X-8596Y70914D02*
Y72614D01*
X-8696Y70814D02*
Y72614D01*
X-8796Y70814D02*
Y72614D01*
X-8896Y70814D02*
Y72514D01*
X-8996Y70714D02*
Y72514D01*
X-9096Y70614D02*
Y72414D01*
X-9196Y70514D02*
Y72314D01*
X-11096Y75514D02*
Y75614D01*
Y74914D02*
Y75314D01*
Y74614D02*
Y74714D01*
X-9996Y68814D02*
Y71814D01*
X-11196Y74114D02*
Y75914D01*
X-11296Y73614D02*
Y76214D01*
X-3896Y69114D02*
Y71914D01*
X-3996Y69414D02*
Y72014D01*
X-4096Y69714D02*
Y72014D01*
X-4196Y69914D02*
Y72114D01*
X-4296Y70114D02*
Y72114D01*
X-4396Y70214D02*
Y72214D01*
X-4496Y70314D02*
Y72314D01*
X-4596Y70414D02*
Y72314D01*
X-4696Y70514D02*
Y72414D01*
X-4796Y70614D02*
Y72414D01*
X604Y73614D02*
Y75214D01*
X504Y73614D02*
Y75314D01*
X404Y73714D02*
Y75414D01*
X304Y73714D02*
Y75414D01*
X204Y73814D02*
Y75514D01*
X104Y73814D02*
Y75614D01*
X4Y73914D02*
Y75714D01*
X-96Y73914D02*
Y75814D01*
X-196Y74014D02*
Y75914D01*
X-296Y74114D02*
Y76114D01*
X-396Y74214D02*
Y76214D01*
X4904Y74114D02*
Y76114D01*
X4804Y74014D02*
Y76014D01*
X4704Y74014D02*
Y75914D01*
X4604Y73914D02*
Y75814D01*
X4504Y73814D02*
Y75714D01*
X4404Y73814D02*
Y75614D01*
X4304Y73714D02*
Y75514D01*
X4204Y73714D02*
Y75414D01*
X4104Y73714D02*
Y75314D01*
X4004Y73614D02*
Y75214D01*
X3904Y73514D02*
Y75214D01*
X3804Y73514D02*
Y75114D01*
X3704Y73514D02*
Y75014D01*
X-15096Y77914D02*
Y83914D01*
X-14396Y77714D02*
Y83614D01*
X-14496Y77714D02*
Y83614D01*
X-14596Y77814D02*
Y83714D01*
X-14696Y77814D02*
Y83714D01*
X-14796Y77814D02*
Y83714D01*
X-14896Y77914D02*
Y83814D01*
X-14996Y77914D02*
Y83814D01*
X-15196Y77914D02*
Y84014D01*
X-15296Y78014D02*
Y84014D01*
X-15396Y78014D02*
Y84014D01*
X-15496Y78014D02*
Y84114D01*
X-15596Y78014D02*
Y84114D01*
X-15696Y78014D02*
Y84214D01*
X-15796Y78014D02*
Y84214D01*
X-12996Y76414D02*
Y78614D01*
X-13096Y76514D02*
Y78714D01*
X-13196Y76714D02*
Y78714D01*
X-13296Y76914D02*
Y78814D01*
X-13396Y77014D02*
Y78914D01*
X-13496Y77114D02*
Y78914D01*
X-13596Y77214D02*
Y79014D01*
X-13696Y77314D02*
Y79114D01*
X-13796Y77314D02*
Y79114D01*
X-13896Y77414D02*
Y79114D01*
X-13996Y77514D02*
Y79214D01*
X-14096Y77514D02*
Y79214D01*
X-14196Y77614D02*
Y79314D01*
X-14296Y77614D02*
Y79314D01*
X-17496Y77414D02*
Y79214D01*
X-17596Y77314D02*
Y79114D01*
X-17696Y77214D02*
Y79114D01*
X-17796Y77114D02*
Y79014D01*
X-17896Y77014D02*
Y79014D01*
X-17996Y76914D02*
Y78914D01*
X-18096Y76814D02*
Y78914D01*
X-18196Y76714D02*
Y78814D01*
X-18296Y76614D02*
Y78814D01*
X-18396Y76414D02*
Y78714D01*
X-5396Y77914D02*
Y78014D01*
Y82114D02*
Y82214D01*
X-8496Y82114D02*
Y82214D01*
X-796Y78314D02*
Y81114D01*
X4Y79914D02*
Y81814D01*
X-96Y79814D02*
Y81814D01*
X-196Y79714D02*
Y81714D01*
X-296Y79514D02*
Y81614D01*
X-396Y79414D02*
Y81514D01*
X-496Y79214D02*
Y81414D01*
X-596Y79014D02*
Y81314D01*
X-696Y78714D02*
Y81214D01*
X-2096Y76514D02*
Y79114D01*
X-2196Y77014D02*
Y78514D01*
X504Y80414D02*
Y82014D01*
X404Y80314D02*
Y82014D01*
X304Y80214D02*
Y81914D01*
X204Y80114D02*
Y81914D01*
X104Y80014D02*
Y81814D01*
X4904Y79514D02*
Y81614D01*
X4804Y79714D02*
Y81714D01*
X4704Y79914D02*
Y81714D01*
X5404Y78114D02*
Y81214D01*
X5304Y78714D02*
Y81314D01*
X5204Y79014D02*
Y81414D01*
X5104Y79214D02*
Y81514D01*
X5004Y79414D02*
Y81614D01*
X6804Y77114D02*
Y78614D01*
X6704Y76614D02*
Y79114D01*
X4604Y80014D02*
Y81814D01*
X4504Y80114D02*
Y81814D01*
X4404Y80214D02*
Y81914D01*
X4304Y80314D02*
Y81914D01*
X4204Y80314D02*
Y82014D01*
X4104Y80414D02*
Y82014D01*
X4004Y80414D02*
Y82114D01*
X3904Y80514D02*
Y82114D01*
X3804Y80614D02*
Y82214D01*
X3704Y80714D02*
Y82214D01*
X3604Y80714D02*
Y82214D01*
X-23996Y96914D02*
Y99814D01*
X-17196Y94314D02*
Y100114D01*
X-17096Y94614D02*
Y99914D01*
X-16296Y95914D02*
Y99314D01*
X-16396Y95814D02*
Y99314D01*
X-16496Y95714D02*
Y99414D01*
X-16596Y95514D02*
Y99414D01*
X-16696Y95414D02*
Y99514D01*
X-16796Y95214D02*
Y99614D01*
X-16896Y95014D02*
Y99714D01*
X-16996Y94814D02*
Y99814D01*
X-15096Y97114D02*
Y99214D01*
X-12996Y98214D02*
Y99214D01*
X-13096Y98214D02*
Y99214D01*
X-13196Y98214D02*
Y99214D01*
X-13296Y98114D02*
Y99214D01*
X-13396Y98114D02*
Y99214D01*
X-13496Y98014D02*
Y99214D01*
X-13596Y98014D02*
Y99214D01*
X-13696Y98014D02*
Y99214D01*
X-13796Y98014D02*
Y99214D01*
X-13896Y97914D02*
Y99214D01*
X-13996Y97914D02*
Y99214D01*
X-14096Y97814D02*
Y99214D01*
X-14196Y97714D02*
Y99214D01*
X-14296Y97714D02*
Y99214D01*
X-14396Y97714D02*
Y99214D01*
X-14496Y97614D02*
Y99214D01*
X-14596Y97514D02*
Y99214D01*
X-14696Y97414D02*
Y99214D01*
X-14796Y97414D02*
Y99214D01*
X-14896Y97314D02*
Y99214D01*
X-14996Y97214D02*
Y99214D01*
X-15196Y97014D02*
Y99214D01*
X-15296Y97014D02*
Y99214D01*
X-15396Y96914D02*
Y99214D01*
X-15496Y96814D02*
Y99214D01*
X-15596Y96714D02*
Y99214D01*
X-15696Y96714D02*
Y99214D01*
X-15796Y96514D02*
Y99214D01*
X-15896Y96414D02*
Y99214D01*
X-15996Y96314D02*
Y99214D01*
X-16096Y96214D02*
Y99214D01*
X-16196Y96014D02*
Y99314D01*
X-11096Y98514D02*
Y99214D01*
X-11196Y98514D02*
Y99214D01*
X-11296Y98514D02*
Y99214D01*
X-11396Y98414D02*
Y99214D01*
X-11496Y98414D02*
Y99214D01*
X-11596Y98414D02*
Y99214D01*
X-11696Y98414D02*
Y99214D01*
X-11796Y98414D02*
Y99214D01*
X-11896Y98414D02*
Y99214D01*
X-11996Y98414D02*
Y99214D01*
X-12096Y98414D02*
Y99214D01*
X-12196Y98414D02*
Y99214D01*
X-12296Y98414D02*
Y99214D01*
X-12396Y98414D02*
Y99214D01*
X-12496Y98314D02*
Y99214D01*
X-12596Y98314D02*
Y99214D01*
X-12696Y98314D02*
Y99214D01*
X-12796Y98314D02*
Y99214D01*
X-7096Y96614D02*
Y99214D01*
X-4996Y97814D02*
Y99214D01*
X-5096Y97814D02*
Y99214D01*
X-5196Y97714D02*
Y99214D01*
X-5296Y97614D02*
Y99214D01*
X-5396Y97614D02*
Y99214D01*
X-5496Y97514D02*
Y99214D01*
X-5596Y97514D02*
Y99214D01*
X-5696Y97414D02*
Y99214D01*
X-5796Y97414D02*
Y99214D01*
X-5896Y97314D02*
Y99214D01*
X-5996Y97214D02*
Y99214D01*
X-6096Y97114D02*
Y99214D01*
X-6196Y97114D02*
Y99214D01*
X-6296Y97014D02*
Y99214D01*
X-6396Y96914D02*
Y99214D01*
X-6496Y96814D02*
Y99214D01*
X-6596Y96614D02*
Y99214D01*
X-6696Y96514D02*
Y99214D01*
X-6796Y96414D02*
Y99214D01*
X-6896Y96414D02*
Y99214D01*
X-6996Y96514D02*
Y99214D01*
X-7196Y96714D02*
Y99214D01*
X-7296Y96814D02*
Y99214D01*
X-7396Y96914D02*
Y99214D01*
X-7496Y96914D02*
Y99214D01*
X-7596Y97014D02*
Y99214D01*
X-7696Y97114D02*
Y99214D01*
X-7796Y97214D02*
Y99214D01*
X-7896Y97314D02*
Y99214D01*
X-7996Y97414D02*
Y99214D01*
X-8096Y97414D02*
Y99214D01*
X-8196Y97514D02*
Y99214D01*
X-8296Y97614D02*
Y99214D01*
X-8396Y97714D02*
Y99214D01*
X-8496Y97714D02*
Y99214D01*
X-8596Y97714D02*
Y99214D01*
X-8696Y97714D02*
Y99214D01*
X-8796Y97814D02*
Y99214D01*
X-8896Y97814D02*
Y99214D01*
X-8996Y97914D02*
Y99214D01*
X-9096Y97914D02*
Y99214D01*
X-9196Y98014D02*
Y99214D01*
X-9296Y98014D02*
Y99214D01*
X-9396Y98114D02*
Y99214D01*
X-9496Y98114D02*
Y99214D01*
X-9596Y98214D02*
Y99214D01*
X-9696Y98214D02*
Y99214D01*
X-9796Y98214D02*
Y99214D01*
X-9896Y98314D02*
Y99214D01*
X-9996Y98314D02*
Y99214D01*
X-10096Y98314D02*
Y99214D01*
X-10196Y98314D02*
Y99214D01*
X-10296Y98414D02*
Y99214D01*
X-10396Y98414D02*
Y99214D01*
X-10496Y98414D02*
Y99214D01*
X-10596Y98414D02*
Y99214D01*
X-10696Y98414D02*
Y99214D01*
X-10796Y98414D02*
Y99214D01*
X-10896Y98514D02*
Y99214D01*
X-10996Y98514D02*
Y99214D01*
X3004Y95214D02*
Y99514D01*
X2904Y95414D02*
Y99514D01*
X2804Y95514D02*
Y99414D01*
X2704Y95614D02*
Y99414D01*
X2604Y95714D02*
Y99314D01*
X-3096Y98414D02*
Y99214D01*
X-3196Y98414D02*
Y99214D01*
X-3296Y98314D02*
Y99214D01*
X-3396Y98314D02*
Y99214D01*
X-3496Y98314D02*
Y99214D01*
X-3596Y98314D02*
Y99214D01*
X-3696Y98314D02*
Y99214D01*
X-3796Y98314D02*
Y99214D01*
X-3896Y98214D02*
Y99214D01*
X-3996Y98214D02*
Y99214D01*
X-4096Y98214D02*
Y99214D01*
X-4196Y98114D02*
Y99214D01*
X-4296Y98114D02*
Y99214D01*
X-4396Y98014D02*
Y99214D01*
X-4496Y98014D02*
Y99214D01*
X-4596Y98014D02*
Y99214D01*
X-4696Y97914D02*
Y99214D01*
X-4796Y97914D02*
Y99214D01*
X904Y97514D02*
Y99214D01*
X2504Y96014D02*
Y99314D01*
X2404Y96114D02*
Y99214D01*
X2304Y96214D02*
Y99214D01*
X2204Y96314D02*
Y99214D01*
X2104Y96414D02*
Y99214D01*
X2004Y96514D02*
Y99214D01*
X1904Y96614D02*
Y99214D01*
X1804Y96714D02*
Y99214D01*
X1704Y96814D02*
Y99214D01*
X1604Y96914D02*
Y99214D01*
X1504Y97014D02*
Y99214D01*
X1404Y97114D02*
Y99214D01*
X1304Y97214D02*
Y99214D01*
X1204Y97314D02*
Y99214D01*
X1104Y97414D02*
Y99214D01*
X1004Y97414D02*
Y99214D01*
X804Y97514D02*
Y99214D01*
X704Y97614D02*
Y99214D01*
X604Y97714D02*
Y99214D01*
X504Y97714D02*
Y99214D01*
X404Y97814D02*
Y99214D01*
X304Y97914D02*
Y99214D01*
X204Y97914D02*
Y99214D01*
X104Y98014D02*
Y99214D01*
X4Y98014D02*
Y99214D01*
X-96Y98014D02*
Y99214D01*
X-196Y98114D02*
Y99214D01*
X-296Y98114D02*
Y99214D01*
X-396Y98214D02*
Y99214D01*
X-496Y98214D02*
Y99214D01*
X-596Y98214D02*
Y99214D01*
X-696Y98214D02*
Y99214D01*
X-796Y98314D02*
Y99214D01*
X-896Y98314D02*
Y99214D01*
X-996Y98314D02*
Y99214D01*
X-1096Y98314D02*
Y99214D01*
X-1196Y98314D02*
Y99214D01*
X-1296Y98414D02*
Y99214D01*
X-1396Y98414D02*
Y99214D01*
X-1496Y98414D02*
Y99214D01*
X-1596Y98414D02*
Y99214D01*
X-1696Y98414D02*
Y99214D01*
X-1796Y98414D02*
Y99214D01*
X-1896Y98414D02*
Y99214D01*
X-1996Y98414D02*
Y99214D01*
X-2096Y98414D02*
Y99214D01*
X-2196Y98414D02*
Y99214D01*
X-2296Y98514D02*
Y99214D01*
X-2396Y98414D02*
Y99214D01*
X-2496Y98414D02*
Y99214D01*
X-2596Y98414D02*
Y99214D01*
X-2696Y98414D02*
Y99214D01*
X-2796Y98414D02*
Y99214D01*
X-2896Y98414D02*
Y99214D01*
X-2996Y98414D02*
Y99214D01*
X3504Y93814D02*
Y100114D01*
X3404Y94214D02*
Y100014D01*
X3304Y94514D02*
Y99814D01*
X3204Y94814D02*
Y99714D01*
X7804Y97014D02*
Y99614D01*
X2904Y44414D02*
Y74714D01*
D14*
X48940Y-17155D02*
X54940D01*
X48940D02*
Y-14155D01*
X54940Y-17155D02*
Y-14155D01*
X48940Y-5352D02*
X54940D01*
Y-8352D02*
Y-5352D01*
X48940Y-8352D02*
Y-5352D01*
X33554Y-17155D02*
X39554D01*
X33554D02*
Y-14155D01*
X39554Y-17155D02*
Y-14155D01*
X33554Y-5352D02*
X39554D01*
Y-8352D02*
Y-5352D01*
X33554Y-8352D02*
Y-5352D01*
X56633Y-17155D02*
X62633D01*
X56633D02*
Y-14155D01*
X62633Y-17155D02*
Y-14155D01*
X56633Y-5352D02*
X62633D01*
Y-8352D02*
Y-5352D01*
X56633Y-8352D02*
Y-5352D01*
X41247Y-17155D02*
X47247D01*
X41247D02*
Y-14155D01*
X47247Y-17155D02*
Y-14155D01*
X41247Y-5352D02*
X47247D01*
Y-8352D02*
Y-5352D01*
X41247Y-8352D02*
Y-5352D01*
X18168Y-17155D02*
X24168D01*
X18168D02*
Y-14155D01*
X24168Y-17155D02*
Y-14155D01*
X18168Y-5352D02*
X24168D01*
Y-8352D02*
Y-5352D01*
X18168Y-8352D02*
Y-5352D01*
X25861Y-17155D02*
X31861D01*
X25861D02*
Y-14155D01*
X31861Y-17155D02*
Y-14155D01*
X25861Y-5352D02*
X31861D01*
Y-8352D02*
Y-5352D01*
X25861Y-8352D02*
Y-5352D01*
X-75632Y-21485D02*
X-75969Y-21654D01*
X-76307Y-21992D01*
X-76476Y-22329D01*
Y-23004D01*
X-76307Y-23341D01*
X-75969Y-23678D01*
X-75632Y-23847D01*
X-75126Y-24016D01*
X-74283D01*
X-73777Y-23847D01*
X-73439Y-23678D01*
X-73102Y-23341D01*
X-72933Y-23004D01*
Y-22329D01*
X-73102Y-21992D01*
X-73439Y-21654D01*
X-73777Y-21485D01*
X-74283D01*
Y-22329D02*
Y-21485D01*
X-76476Y-20676D02*
X-72933D01*
X-76476D02*
X-72933Y-18314D01*
X-76476D02*
X-72933D01*
X-76476Y-17335D02*
X-72933D01*
X-76476D02*
Y-16155D01*
X-76307Y-15649D01*
X-75969Y-15311D01*
X-75632Y-15143D01*
X-75126Y-14974D01*
X-74283D01*
X-73777Y-15143D01*
X-73439Y-15311D01*
X-73102Y-15649D01*
X-72933Y-16155D01*
Y-17335D01*
X-54963Y-21485D02*
X-55300Y-21654D01*
X-55638Y-21992D01*
X-55806Y-22329D01*
Y-23004D01*
X-55638Y-23341D01*
X-55300Y-23678D01*
X-54963Y-23847D01*
X-54457Y-24016D01*
X-53613D01*
X-53107Y-23847D01*
X-52770Y-23678D01*
X-52433Y-23341D01*
X-52264Y-23004D01*
Y-22329D01*
X-52433Y-21992D01*
X-52770Y-21654D01*
X-53107Y-21485D01*
X-53613D01*
Y-22329D02*
Y-21485D01*
X-55806Y-20676D02*
X-52264D01*
X-55806D02*
X-52264Y-18314D01*
X-55806D02*
X-52264D01*
X-55806Y-17335D02*
X-52264D01*
X-55806D02*
Y-16155D01*
X-55638Y-15649D01*
X-55300Y-15311D01*
X-54963Y-15143D01*
X-54457Y-14974D01*
X-53613D01*
X-53107Y-15143D01*
X-52770Y-15311D01*
X-52433Y-15649D01*
X-52264Y-16155D01*
Y-17335D01*
X-86304Y-22498D02*
X-83268D01*
X-84786Y-24016D02*
Y-20979D01*
X-86810Y-19933D02*
X-83268Y-18584D01*
X-86810Y-17234D02*
X-83268Y-18584D01*
X-86810Y-16442D02*
X-86642Y-16273D01*
X-86810Y-16104D01*
X-86979Y-16273D01*
X-86810Y-16442D01*
X-85629Y-16273D02*
X-83268D01*
X-85629Y-15480D02*
X-83268D01*
X-84955D02*
X-85461Y-14974D01*
X-85629Y-14636D01*
Y-14130D01*
X-85461Y-13793D01*
X-84955Y-13624D01*
X-83268D01*
X-65635Y-22498D02*
X-62598D01*
X-64117Y-24016D02*
Y-20979D01*
X-66141Y-19596D02*
Y-17740D01*
X-64791Y-18753D01*
Y-18247D01*
X-64623Y-17909D01*
X-64454Y-17740D01*
X-63948Y-17572D01*
X-63611D01*
X-63104Y-17740D01*
X-62767Y-18078D01*
X-62598Y-18584D01*
Y-19090D01*
X-62767Y-19596D01*
X-62936Y-19765D01*
X-63273Y-19933D01*
X-66141Y-16779D02*
X-62598Y-15429D01*
X-66141Y-14080D02*
X-62598Y-15429D01*
X-66141Y-13287D02*
Y-11431D01*
X-64791Y-12443D01*
Y-11937D01*
X-64623Y-11600D01*
X-64454Y-11431D01*
X-63948Y-11263D01*
X-63611D01*
X-63104Y-11431D01*
X-62767Y-11769D01*
X-62598Y-12275D01*
Y-12781D01*
X-62767Y-13287D01*
X-62936Y-13456D01*
X-63273Y-13624D01*
X-44966Y-22498D02*
X-41929D01*
X-43447Y-24016D02*
Y-20979D01*
X-45472Y-19933D02*
X-41929Y-18584D01*
X-45472Y-17234D02*
X-41929Y-18584D01*
X-45472Y-16779D02*
X-41929D01*
X-43785D02*
X-44122Y-16441D01*
X-44291Y-16104D01*
Y-15598D01*
X-44122Y-15261D01*
X-43785Y-14923D01*
X-43279Y-14754D01*
X-42941D01*
X-42435Y-14923D01*
X-42098Y-15261D01*
X-41929Y-15598D01*
Y-16104D01*
X-42098Y-16441D01*
X-42435Y-16779D01*
X-44291Y-11971D02*
X-41929D01*
X-43785D02*
X-44122Y-12308D01*
X-44291Y-12646D01*
Y-13152D01*
X-44122Y-13489D01*
X-43785Y-13827D01*
X-43279Y-13995D01*
X-42941D01*
X-42435Y-13827D01*
X-42098Y-13489D01*
X-41929Y-13152D01*
Y-12646D01*
X-42098Y-12308D01*
X-42435Y-11971D01*
X-45472Y-10520D02*
X-42604D01*
X-42098Y-10352D01*
X-41929Y-10014D01*
Y-9677D01*
X-44291Y-11026D02*
Y-9846D01*
X35707Y-31497D02*
X32165D01*
Y-33268D01*
X32756Y-33858D01*
X35117D01*
X35707Y-33268D01*
Y-31497D01*
Y-37401D02*
X35117Y-36220D01*
X33936Y-35039D01*
X32756D01*
X32165Y-35629D01*
Y-36810D01*
X32756Y-37401D01*
X33346D01*
X33936Y-36810D01*
Y-35039D01*
X43325Y-31830D02*
X39783D01*
Y-33601D01*
X40373Y-34191D01*
X42735D01*
X43325Y-33601D01*
Y-31830D01*
Y-37733D02*
Y-35372D01*
X41554D01*
X42144Y-36553D01*
Y-37143D01*
X41554Y-37733D01*
X40373D01*
X39783Y-37143D01*
Y-35962D01*
X40373Y-35372D01*
X50943Y-31830D02*
X47401D01*
Y-33601D01*
X47991Y-34191D01*
X50352D01*
X50943Y-33601D01*
Y-31830D01*
X47401Y-37143D02*
X50943D01*
X49172Y-35372D01*
Y-37733D01*
X58560Y-31830D02*
X55018D01*
Y-33601D01*
X55608Y-34191D01*
X57970D01*
X58560Y-33601D01*
Y-31830D01*
X57970Y-35372D02*
X58560Y-35962D01*
Y-37143D01*
X57970Y-37733D01*
X57380D01*
X56789Y-37143D01*
Y-36553D01*
Y-37143D01*
X56199Y-37733D01*
X55608D01*
X55018Y-37143D01*
Y-35962D01*
X55608Y-35372D01*
X20472Y-31497D02*
X16930D01*
Y-33268D01*
X17520Y-33858D01*
X19882D01*
X20472Y-33268D01*
Y-31497D01*
X16930Y-37401D02*
Y-35039D01*
X19291Y-37401D01*
X19882D01*
X20472Y-36810D01*
Y-35629D01*
X19882Y-35039D01*
X28090Y-32087D02*
X24547D01*
Y-33858D01*
X25138Y-34449D01*
X27499D01*
X28090Y-33858D01*
Y-32087D01*
X24547Y-35629D02*
Y-36810D01*
Y-36220D01*
X28090D01*
X27499Y-35629D01*
X832Y-35237D02*
X242Y-34646D01*
X-939D01*
X-1529Y-35237D01*
Y-35827D01*
X-939Y-36417D01*
X242D01*
X832Y-37008D01*
Y-37598D01*
X242Y-38188D01*
X-939D01*
X-1529Y-37598D01*
X4374Y-38188D02*
X2013D01*
X4374Y-35827D01*
Y-35237D01*
X3784Y-34646D01*
X2603D01*
X2013Y-35237D01*
X-23087D02*
X-23677Y-34646D01*
X-24858D01*
X-25448Y-35237D01*
Y-35827D01*
X-24858Y-36417D01*
X-23677D01*
X-23087Y-37008D01*
Y-37598D01*
X-23677Y-38188D01*
X-24858D01*
X-25448Y-37598D01*
X-21906Y-38188D02*
X-20725D01*
X-21316D01*
Y-34646D01*
X-21906Y-35237D01*
X38094Y-2952D02*
X34552D01*
Y-1181D01*
X35142Y-590D01*
X36323D01*
X36913Y-1181D01*
Y-2952D01*
Y-1771D02*
X38094Y-590D01*
X34552Y2952D02*
X35142Y1771D01*
X36323Y590D01*
X37503D01*
X38094Y1181D01*
Y2361D01*
X37503Y2952D01*
X36913D01*
X36323Y2361D01*
Y590D01*
X45671Y-2952D02*
X42129D01*
Y-1181D01*
X42720Y-590D01*
X43900D01*
X44491Y-1181D01*
Y-2952D01*
Y-1771D02*
X45671Y-590D01*
X42129Y2952D02*
Y590D01*
X43900D01*
X43310Y1771D01*
Y2361D01*
X43900Y2952D01*
X45081D01*
X45671Y2361D01*
Y1181D01*
X45081Y590D01*
X53249Y-2952D02*
X49707D01*
Y-1181D01*
X50297Y-590D01*
X51478D01*
X52068Y-1181D01*
Y-2952D01*
Y-1771D02*
X53249Y-590D01*
Y2361D02*
X49707D01*
X51478Y590D01*
Y2952D01*
X60826Y-2952D02*
X57284D01*
Y-1181D01*
X57874Y-590D01*
X59055D01*
X59645Y-1181D01*
Y-2952D01*
Y-1771D02*
X60826Y-590D01*
X57874Y590D02*
X57284Y1181D01*
Y2361D01*
X57874Y2952D01*
X58465D01*
X59055Y2361D01*
Y1771D01*
Y2361D01*
X59645Y2952D01*
X60236D01*
X60826Y2361D01*
Y1181D01*
X60236Y590D01*
X22939Y-2952D02*
X19397D01*
Y-1181D01*
X19987Y-590D01*
X21168D01*
X21758Y-1181D01*
Y-2952D01*
Y-1771D02*
X22939Y-590D01*
Y2952D02*
Y590D01*
X20577Y2952D01*
X19987D01*
X19397Y2361D01*
Y1181D01*
X19987Y590D01*
X30516Y-2952D02*
X26974D01*
Y-1181D01*
X27565Y-590D01*
X28745D01*
X29336Y-1181D01*
Y-2952D01*
Y-1771D02*
X30516Y-590D01*
Y590D02*
Y1771D01*
Y1181D01*
X26974D01*
X27565Y590D01*
X-36534Y-38188D02*
Y-34646D01*
X-34763D01*
X-34172Y-35237D01*
Y-36417D01*
X-34763Y-37008D01*
X-36534D01*
X-32992Y-34646D02*
X-30630D01*
Y-35237D01*
X-32992Y-37598D01*
Y-38188D01*
X-47243Y47442D02*
Y50984D01*
X-45472D01*
X-44882Y50393D01*
Y49213D01*
X-45472Y48622D01*
X-47243D01*
X-41339Y50984D02*
X-42520Y50393D01*
X-43701Y49213D01*
Y48032D01*
X-43111Y47442D01*
X-41930D01*
X-41339Y48032D01*
Y48622D01*
X-41930Y49213D01*
X-43701D01*
X41930Y47442D02*
Y50984D01*
X43701D01*
X44291Y50393D01*
Y49213D01*
X43701Y48622D01*
X41930D01*
X45472Y47442D02*
X46653D01*
X46062D01*
Y50984D01*
X45472Y50393D01*
X-2559Y-7677D02*
X-3149Y-7087D01*
X-4330D01*
X-4920Y-7677D01*
Y-10039D01*
X-4330Y-10629D01*
X-3149D01*
X-2559Y-10039D01*
X983Y-10629D02*
X-1378D01*
X983Y-8268D01*
Y-7677D01*
X393Y-7087D01*
X-788D01*
X-1378Y-7677D01*
X-27559Y-7678D02*
X-28149Y-7087D01*
X-29330D01*
X-29921Y-7678D01*
Y-10039D01*
X-29330Y-10629D01*
X-28149D01*
X-27559Y-10039D01*
X-26378Y-10629D02*
X-25198D01*
X-25788D01*
Y-7087D01*
X-26378Y-7678D01*
D15*
X46260Y56429D02*
X46916Y57085D01*
X48228D01*
X48884Y56429D01*
Y55773D01*
X48228Y55117D01*
X47572D01*
X48228D01*
X48884Y54461D01*
Y53806D01*
X48228Y53150D01*
X46916D01*
X46260Y53806D01*
X50196Y56429D02*
X50852Y57085D01*
X52163D01*
X52819Y56429D01*
Y53806D01*
X52163Y53150D01*
X50852D01*
X50196Y53806D01*
Y56429D01*
X33136Y53150D02*
X30512D01*
X33136Y55773D01*
Y56429D01*
X32480Y57085D01*
X31168D01*
X30512Y56429D01*
X34448Y53806D02*
X35103Y53150D01*
X36415D01*
X37071Y53806D01*
Y56429D01*
X36415Y57085D01*
X35103D01*
X34448Y56429D01*
Y55773D01*
X35103Y55117D01*
X37071D01*
X53805Y139764D02*
X51181D01*
X53805Y142388D01*
Y143044D01*
X53149Y143700D01*
X51837D01*
X51181Y143044D01*
X34449Y139764D02*
X35761D01*
X35105D01*
Y143700D01*
X34449Y143044D01*
X-40354Y56429D02*
X-39698Y57085D01*
X-38386D01*
X-37731Y56429D01*
Y55773D01*
X-38386Y55117D01*
X-39042D01*
X-38386D01*
X-37731Y54461D01*
Y53806D01*
X-38386Y53150D01*
X-39698D01*
X-40354Y53806D01*
X-36419Y56429D02*
X-35763Y57085D01*
X-34451D01*
X-33795Y56429D01*
Y53806D01*
X-34451Y53150D01*
X-35763D01*
X-36419Y53806D01*
Y56429D01*
X-53478Y53150D02*
X-56102D01*
X-53478Y55773D01*
Y56429D01*
X-54135Y57085D01*
X-55446D01*
X-56102Y56429D01*
X-52167Y53806D02*
X-51511Y53150D01*
X-50199D01*
X-49543Y53806D01*
Y56429D01*
X-50199Y57085D01*
X-51511D01*
X-52167Y56429D01*
Y55773D01*
X-51511Y55117D01*
X-49543D01*
X-32809Y139764D02*
X-35433D01*
X-32809Y142388D01*
Y143044D01*
X-33465Y143700D01*
X-34777D01*
X-35433Y143044D01*
X-52165Y139764D02*
X-50853D01*
X-51509D01*
Y143700D01*
X-52165Y143044D01*
D16*
X12749Y26788D02*
X18747D01*
Y30786D01*
Y33786D02*
Y35785D01*
X17747Y36785D01*
X15748D01*
X14748Y35785D01*
Y33786D01*
X15748Y32786D01*
X17747D01*
X18747Y33786D01*
Y38784D02*
X12749D01*
Y41783D01*
X13749Y42783D01*
X15748D01*
X16748Y41783D01*
Y38784D01*
Y40783D02*
X18747Y42783D01*
X14748Y45782D02*
Y47781D01*
X15748Y48781D01*
X18747D01*
Y45782D01*
X17747Y44782D01*
X16748Y45782D01*
Y48781D01*
X18747Y50780D02*
X12749D01*
X18747Y54779D01*
X12749D01*
Y59777D02*
Y57778D01*
X13749Y56778D01*
X17747D01*
X18747Y57778D01*
Y59777D01*
X17747Y60777D01*
X13749D01*
X12749Y59777D01*
Y62776D02*
X18747D01*
Y65775D01*
X17747Y66775D01*
X13749D01*
X12749Y65775D01*
Y62776D01*
Y72773D02*
Y68774D01*
X18747D01*
Y72773D01*
X15748Y68774D02*
Y70774D01*
X12749Y80770D02*
X16748D01*
X18747Y82770D01*
X16748Y84769D01*
X12749D01*
X18747Y90767D02*
Y86768D01*
X14748Y90767D01*
X13749D01*
X12749Y89767D01*
Y87768D01*
X13749Y86768D01*
X12749Y98764D02*
X18747D01*
Y101764D01*
X17747Y102763D01*
X13749D01*
X12749Y101764D01*
Y98764D01*
Y108761D02*
Y104763D01*
X18747D01*
Y108761D01*
X15748Y104763D02*
Y106762D01*
X12749Y110761D02*
X18747D01*
Y113760D01*
X17747Y114759D01*
X16748D01*
X15748Y113760D01*
Y110761D01*
Y113760D01*
X14748Y114759D01*
X13749D01*
X12749Y113760D01*
Y110761D01*
Y116759D02*
X17747D01*
X18747Y117758D01*
Y119758D01*
X17747Y120757D01*
X12749D01*
X13749Y126755D02*
X12749Y125756D01*
Y123757D01*
X13749Y122757D01*
X17747D01*
X18747Y123757D01*
Y125756D01*
X17747Y126755D01*
X15748D01*
Y124756D01*
M02*
