G04*
G04 #@! TF.GenerationSoftware,Altium Limited,Altium Designer,21.0.8 (223)*
G04*
G04 Layer_Color=32896*
%FSLAX25Y25*%
%MOIN*%
G70*
G04*
G04 #@! TF.SameCoordinates,E8E4A7BE-DB6F-4252-8793-17DB4AC6D9EE*
G04*
G04*
G04 #@! TF.FilePolarity,Positive*
G04*
G01*
G75*
%ADD14C,0.00591*%
%ADD15C,0.00787*%
%ADD40C,0.00984*%
G36*
X-9629Y-13038D02*
X-9386D01*
Y-13099D01*
X-9203D01*
Y-13160D01*
X-8960D01*
Y-13221D01*
X-8716D01*
Y-13282D01*
X-8534D01*
Y-13343D01*
X-8351D01*
Y-13404D01*
X-8107D01*
Y-13465D01*
X-7986D01*
Y-13526D01*
X-7742D01*
Y-13587D01*
X-7620D01*
Y-13647D01*
X-7438D01*
Y-13708D01*
X-7194D01*
Y-13769D01*
X-7133D01*
Y-13830D01*
X-6890D01*
Y-13891D01*
X-6829D01*
Y-13952D01*
X-6585D01*
Y-14013D01*
X-6463D01*
Y-14074D01*
X-6342D01*
Y-14134D01*
X-6159D01*
Y-14195D01*
X-5976D01*
Y-14256D01*
X-5915D01*
Y-14317D01*
X-5733D01*
Y-14378D01*
X-5611D01*
Y-14439D01*
X-5428D01*
Y-14500D01*
X-5307D01*
Y-14561D01*
X-5185D01*
Y-14622D01*
X-5063D01*
Y-14682D01*
X-4941D01*
Y-14743D01*
X-4820D01*
Y-14804D01*
X-4637D01*
Y-14865D01*
X-4515D01*
Y-14926D01*
X-4454D01*
Y-14987D01*
X-4272D01*
Y-15048D01*
X-4150D01*
Y-15109D01*
X-4028D01*
Y-15169D01*
X-3906D01*
Y-15230D01*
X-3785D01*
Y-15291D01*
X-3663D01*
Y-15352D01*
X-3602D01*
Y-15413D01*
X-3480D01*
Y-15474D01*
X-3297D01*
Y-15535D01*
X-3237D01*
Y-15596D01*
X-3115D01*
Y-15656D01*
X-2993D01*
Y-15717D01*
X-2932D01*
Y-15778D01*
X-2811D01*
Y-15839D01*
X-2689D01*
Y-15900D01*
X-2567D01*
Y-15961D01*
X-2506D01*
Y-16022D01*
X-2384D01*
Y-16083D01*
X-2262D01*
Y-16143D01*
X-2141D01*
Y-16204D01*
X-2080D01*
Y-16265D01*
X-1958D01*
Y-16326D01*
X-1836D01*
Y-16387D01*
X-1775D01*
Y-16448D01*
X-1654D01*
Y-16509D01*
X-1593D01*
Y-16570D01*
X-1471D01*
Y-16631D01*
X-1410D01*
Y-16691D01*
X-1288D01*
Y-16752D01*
X-1167D01*
Y-16813D01*
X-1106D01*
Y-16874D01*
X-984D01*
Y-16935D01*
X-923D01*
Y-16996D01*
X-801D01*
Y-17057D01*
X-740D01*
Y-17118D01*
X-679D01*
Y-17179D01*
X-558D01*
Y-17239D01*
X-497D01*
Y-17300D01*
X-375D01*
Y-17361D01*
X-314D01*
Y-17422D01*
X-192D01*
Y-17483D01*
X-132D01*
Y-17544D01*
X-10D01*
Y-17605D01*
X51D01*
Y-17666D01*
X112D01*
Y-17727D01*
X234D01*
Y-17787D01*
X295D01*
Y-17848D01*
X356D01*
Y-17909D01*
X477D01*
Y-17970D01*
X538D01*
Y-18031D01*
X599D01*
Y-18092D01*
X660D01*
Y-18153D01*
X782D01*
Y-18214D01*
X843D01*
Y-18274D01*
X903D01*
Y-18335D01*
X964D01*
Y-18396D01*
X1086D01*
Y-18457D01*
X1147D01*
Y-18518D01*
X1208D01*
Y-18579D01*
X1269D01*
Y-18640D01*
X1390D01*
Y-18701D01*
X1451D01*
Y-18762D01*
X1512D01*
Y-18822D01*
X1573D01*
Y-18883D01*
X1634D01*
Y-18944D01*
X1695D01*
Y-19005D01*
X1817D01*
Y-19066D01*
X1878D01*
Y-19127D01*
X1938D01*
Y-19188D01*
X1999D01*
Y-19249D01*
X2060D01*
Y-19309D01*
X2121D01*
Y-19370D01*
X2182D01*
Y-19431D01*
X2243D01*
Y-19492D01*
X2304D01*
Y-19553D01*
X2426D01*
Y-19614D01*
X2486D01*
Y-19675D01*
X2547D01*
Y-19736D01*
X2608D01*
Y-19796D01*
X2669D01*
Y-19857D01*
X2730D01*
Y-19918D01*
X2791D01*
Y-19979D01*
X2852D01*
Y-20040D01*
X2913D01*
Y-20101D01*
X2973D01*
Y-20162D01*
X3034D01*
Y-20223D01*
X3095D01*
Y-20284D01*
X3156D01*
Y-20345D01*
X3217D01*
Y-20405D01*
X3278D01*
Y-20466D01*
X3339D01*
Y-20527D01*
X3400D01*
Y-20588D01*
X3461D01*
Y-20649D01*
X3521D01*
Y-20710D01*
X3582D01*
Y-20771D01*
X3643D01*
Y-20831D01*
X3704D01*
Y-20892D01*
X3765D01*
Y-20953D01*
Y-21014D01*
X3887D01*
Y-21075D01*
Y-21136D01*
X3948D01*
Y-21197D01*
X4008D01*
Y-21258D01*
X4069D01*
Y-21319D01*
X4130D01*
Y-21380D01*
X4191D01*
Y-21440D01*
X4252D01*
Y-21501D01*
X4313D01*
Y-21562D01*
X4374D01*
Y-21623D01*
Y-21684D01*
X4435D01*
Y-21745D01*
X4496D01*
Y-21806D01*
X4556D01*
Y-21867D01*
X4617D01*
Y-21927D01*
Y-21988D01*
X4678D01*
Y-22049D01*
X4800D01*
Y-22110D01*
Y-22171D01*
X4861D01*
Y-22232D01*
X4922D01*
Y-22293D01*
X4983D01*
Y-22354D01*
Y-22414D01*
X5043D01*
Y-22475D01*
X5104D01*
Y-22536D01*
X5165D01*
Y-22597D01*
Y-22658D01*
X5226D01*
Y-22719D01*
X5287D01*
Y-22780D01*
X5348D01*
Y-22841D01*
Y-22902D01*
X5409D01*
Y-22963D01*
X5470D01*
Y-23023D01*
X5531D01*
Y-23084D01*
Y-23145D01*
X5591D01*
Y-23206D01*
X5652D01*
Y-23267D01*
X5713D01*
Y-23328D01*
Y-23389D01*
X5774D01*
Y-23449D01*
X5835D01*
Y-23510D01*
Y-23571D01*
X5896D01*
Y-23632D01*
X5957D01*
Y-23693D01*
Y-23754D01*
X6018D01*
Y-23815D01*
X6078D01*
Y-23876D01*
Y-23937D01*
X6139D01*
Y-23998D01*
X6200D01*
Y-24058D01*
Y-24119D01*
X6261D01*
Y-24180D01*
X6322D01*
Y-24241D01*
Y-24302D01*
X6383D01*
Y-24363D01*
X6444D01*
Y-24424D01*
Y-24485D01*
Y-24545D01*
X6505D01*
Y-24606D01*
X6566D01*
Y-24667D01*
Y-24728D01*
X6626D01*
Y-24789D01*
Y-24850D01*
X6687D01*
Y-24911D01*
X6748D01*
Y-24972D01*
X6809D01*
Y-25032D01*
Y-25093D01*
Y-25154D01*
Y-25215D01*
Y-25276D01*
X6748D01*
Y-25337D01*
Y-25398D01*
Y-25459D01*
Y-25520D01*
X6687D01*
Y-25580D01*
Y-25641D01*
X6626D01*
Y-25702D01*
Y-25763D01*
Y-25824D01*
Y-25885D01*
X6566D01*
Y-25946D01*
Y-26007D01*
Y-26068D01*
X6505D01*
Y-26128D01*
Y-26189D01*
X6444D01*
Y-26250D01*
Y-26311D01*
Y-26372D01*
Y-26433D01*
X6383D01*
Y-26494D01*
Y-26555D01*
X6322D01*
Y-26615D01*
Y-26676D01*
X6261D01*
Y-26737D01*
Y-26798D01*
Y-26859D01*
Y-26920D01*
X6200D01*
Y-26981D01*
Y-27042D01*
X6139D01*
Y-27103D01*
Y-27163D01*
X6078D01*
Y-27224D01*
Y-27285D01*
X6018D01*
Y-27346D01*
Y-27407D01*
Y-27468D01*
X5957D01*
Y-27529D01*
Y-27590D01*
X5896D01*
Y-27650D01*
Y-27711D01*
X5835D01*
Y-27772D01*
Y-27833D01*
Y-27894D01*
X5774D01*
Y-27955D01*
Y-28016D01*
X5713D01*
Y-28077D01*
Y-28137D01*
X5652D01*
Y-28198D01*
Y-28259D01*
X5591D01*
Y-28320D01*
Y-28381D01*
X5531D01*
Y-28442D01*
Y-28503D01*
X5470D01*
Y-28564D01*
Y-28625D01*
X5409D01*
Y-28686D01*
Y-28746D01*
X5348D01*
Y-28807D01*
Y-28868D01*
X5287D01*
Y-28929D01*
Y-28990D01*
X5226D01*
Y-29051D01*
X5165D01*
Y-29112D01*
Y-29173D01*
X5104D01*
Y-29233D01*
Y-29294D01*
X5043D01*
Y-29355D01*
Y-29416D01*
X4983D01*
Y-29477D01*
Y-29538D01*
X4922D01*
Y-29599D01*
X4861D01*
Y-29660D01*
Y-29721D01*
X4800D01*
Y-29781D01*
Y-29842D01*
X4739D01*
Y-29903D01*
Y-29964D01*
X4678D01*
Y-30025D01*
X4617D01*
Y-30086D01*
Y-30147D01*
X4556D01*
Y-30207D01*
X4496D01*
Y-30268D01*
Y-30329D01*
Y-30390D01*
X4435D01*
Y-30451D01*
X4374D01*
Y-30512D01*
X4313D01*
Y-30573D01*
Y-30634D01*
X4252D01*
Y-30695D01*
X4191D01*
Y-30755D01*
Y-30816D01*
X4130D01*
Y-30877D01*
Y-30938D01*
X4069D01*
Y-30999D01*
X4008D01*
Y-31060D01*
Y-31121D01*
X3948D01*
Y-31182D01*
X3887D01*
Y-31243D01*
Y-31303D01*
X3826D01*
Y-31364D01*
X3765D01*
Y-31425D01*
X3704D01*
Y-31486D01*
Y-31547D01*
X3643D01*
Y-31608D01*
X3582D01*
Y-31669D01*
X3521D01*
Y-31730D01*
Y-31791D01*
X3461D01*
Y-31851D01*
X3400D01*
Y-31912D01*
Y-31973D01*
X3339D01*
Y-32034D01*
X3278D01*
Y-32095D01*
Y-32156D01*
X3217D01*
Y-32217D01*
X3156D01*
Y-32278D01*
X3095D01*
Y-32339D01*
X3034D01*
Y-32399D01*
Y-32460D01*
X2973D01*
Y-32521D01*
X2913D01*
Y-32582D01*
X2852D01*
Y-32643D01*
X2791D01*
Y-32704D01*
Y-32765D01*
X2730D01*
Y-32825D01*
X2669D01*
Y-32886D01*
X2608D01*
Y-32947D01*
X2547D01*
Y-33008D01*
Y-33069D01*
X2486D01*
Y-33130D01*
X2426D01*
Y-33191D01*
X2365D01*
Y-33252D01*
X2304D01*
Y-33313D01*
Y-33373D01*
X2243D01*
Y-33434D01*
X2182D01*
Y-33495D01*
X2121D01*
Y-33556D01*
X2060D01*
Y-33617D01*
X1999D01*
Y-33678D01*
X1938D01*
Y-33739D01*
X1878D01*
Y-33800D01*
Y-33860D01*
X1817D01*
Y-33921D01*
X1756D01*
Y-33982D01*
X1695D01*
Y-34043D01*
X1634D01*
Y-34104D01*
X1573D01*
Y-34165D01*
X1512D01*
Y-34226D01*
X1451D01*
Y-34287D01*
X1390D01*
Y-34348D01*
X1330D01*
Y-34409D01*
X1269D01*
Y-34469D01*
X1208D01*
Y-34530D01*
X1147D01*
Y-34591D01*
X1086D01*
Y-34652D01*
Y-34713D01*
X964D01*
Y-34774D01*
Y-34835D01*
X843D01*
Y-34896D01*
X782D01*
Y-34956D01*
X721D01*
Y-35017D01*
X660D01*
Y-35078D01*
X599D01*
Y-35139D01*
X538D01*
Y-35200D01*
X477D01*
Y-35261D01*
X416D01*
Y-35322D01*
X356D01*
Y-35383D01*
X295D01*
Y-35443D01*
X234D01*
Y-35504D01*
X173D01*
Y-35565D01*
X112D01*
Y-35626D01*
X-10D01*
Y-35687D01*
Y-35748D01*
X-132D01*
Y-35809D01*
X-192D01*
Y-35870D01*
X-253D01*
Y-35931D01*
X-314D01*
Y-35991D01*
X-375D01*
Y-36052D01*
X-497D01*
Y-36113D01*
Y-36174D01*
X-619D01*
Y-36235D01*
X-679D01*
Y-36296D01*
X-740D01*
Y-36357D01*
X-801D01*
Y-36418D01*
X-862D01*
Y-36478D01*
X-984D01*
Y-36539D01*
X-1045D01*
Y-36600D01*
X-1106D01*
Y-36661D01*
X-1167D01*
Y-36722D01*
X-1288D01*
Y-36783D01*
X-1349D01*
Y-36844D01*
X-1410D01*
Y-36905D01*
X-1532D01*
Y-36966D01*
X-1593D01*
Y-37026D01*
X-1654D01*
Y-37087D01*
X-1775D01*
Y-37148D01*
X-1836D01*
Y-37209D01*
X-1897D01*
Y-37270D01*
X-2019D01*
Y-37331D01*
X-2080D01*
Y-37392D01*
X-2141D01*
Y-37453D01*
X-2262D01*
Y-37514D01*
X-2323D01*
Y-37574D01*
X-2445D01*
Y-37635D01*
X-2506D01*
Y-37696D01*
X-2628D01*
Y-37757D01*
X-2689D01*
Y-37818D01*
X-2750D01*
Y-37879D01*
X-2871D01*
Y-37940D01*
X-2932D01*
Y-38001D01*
X-3054D01*
Y-38061D01*
X-3176D01*
Y-38122D01*
X-3237D01*
Y-38183D01*
X-3297D01*
Y-38244D01*
X-3419D01*
Y-38305D01*
X-3541D01*
Y-38366D01*
X-3602D01*
Y-38427D01*
X-3724D01*
Y-38488D01*
X-3845D01*
Y-38548D01*
X-3906D01*
Y-38609D01*
X-3967D01*
Y-38670D01*
X-4150D01*
Y-38731D01*
X-4211D01*
Y-38792D01*
X-4332D01*
Y-38853D01*
X-4454D01*
Y-38914D01*
X-4515D01*
Y-38975D01*
X-4637D01*
Y-39036D01*
X-4759D01*
Y-39097D01*
X-4880D01*
Y-39157D01*
X-5002D01*
Y-39218D01*
X-5124D01*
Y-39279D01*
X-5185D01*
Y-39340D01*
X-7316D01*
Y-39279D01*
X-7194D01*
Y-39218D01*
X-7072D01*
Y-39157D01*
X-7011D01*
Y-39097D01*
X-6890D01*
Y-39036D01*
X-6768D01*
Y-38975D01*
X-6646D01*
Y-38914D01*
X-6585D01*
Y-38853D01*
X-6463D01*
Y-38792D01*
X-6342D01*
Y-38731D01*
X-6281D01*
Y-38670D01*
X-6159D01*
Y-38609D01*
X-6098D01*
Y-38548D01*
X-5976D01*
Y-38488D01*
X-5915D01*
Y-38427D01*
X-5794D01*
Y-38366D01*
X-5733D01*
Y-38305D01*
X-5611D01*
Y-38244D01*
X-5550D01*
Y-38183D01*
X-5428D01*
Y-38122D01*
X-5367D01*
Y-38061D01*
X-5307D01*
Y-38001D01*
X-5185D01*
Y-37940D01*
X-5124D01*
Y-37879D01*
X-5063D01*
Y-37818D01*
X-5002D01*
Y-37757D01*
X-4880D01*
Y-37696D01*
X-4820D01*
Y-37635D01*
X-4759D01*
Y-37574D01*
X-4698D01*
Y-37514D01*
X-4637D01*
Y-37453D01*
X-4515D01*
Y-37392D01*
X-4454D01*
Y-37331D01*
X-4393D01*
Y-37270D01*
X-4332D01*
Y-37209D01*
X-4272D01*
Y-37148D01*
X-4211D01*
Y-37087D01*
X-4150D01*
Y-37026D01*
X-4089D01*
Y-36966D01*
X-4028D01*
Y-36905D01*
X-3906D01*
Y-36844D01*
Y-36783D01*
X-3785D01*
Y-36722D01*
Y-36661D01*
X-3663D01*
Y-36600D01*
Y-36539D01*
X-3602D01*
Y-36478D01*
X-3541D01*
Y-36418D01*
X-3480D01*
Y-36357D01*
X-3419D01*
Y-36296D01*
X-3358D01*
Y-36235D01*
X-3297D01*
Y-36174D01*
X-3237D01*
Y-36113D01*
X-3176D01*
Y-36052D01*
X-3115D01*
Y-35991D01*
Y-35931D01*
X-3054D01*
Y-35870D01*
X-2993D01*
Y-35809D01*
X-2932D01*
Y-35748D01*
X-2871D01*
Y-35687D01*
X-2811D01*
Y-35626D01*
Y-35565D01*
X-2750D01*
Y-35504D01*
X-2689D01*
Y-35443D01*
X-2628D01*
Y-35383D01*
Y-35322D01*
X-2567D01*
Y-35261D01*
X-2506D01*
Y-35200D01*
X-2445D01*
Y-35139D01*
Y-35078D01*
X-2384D01*
Y-35017D01*
X-2323D01*
Y-34956D01*
Y-34896D01*
X-2262D01*
Y-34835D01*
X-2202D01*
Y-34774D01*
Y-34713D01*
X-2141D01*
Y-34652D01*
X-2080D01*
Y-34591D01*
Y-34530D01*
X-2019D01*
Y-34469D01*
Y-34409D01*
X-1958D01*
Y-34348D01*
X-1897D01*
Y-34287D01*
Y-34226D01*
X-1836D01*
Y-34165D01*
Y-34104D01*
X-1775D01*
Y-34043D01*
X-1715D01*
Y-33982D01*
Y-33921D01*
X-1654D01*
Y-33860D01*
Y-33800D01*
X-1593D01*
Y-33739D01*
Y-33678D01*
X-1532D01*
Y-33617D01*
Y-33556D01*
X-1471D01*
Y-33495D01*
Y-33434D01*
X-1410D01*
Y-33373D01*
Y-33313D01*
X-1349D01*
Y-33252D01*
Y-33191D01*
Y-33130D01*
X-1288D01*
Y-33069D01*
Y-33008D01*
X-1228D01*
Y-32947D01*
Y-32886D01*
X-1167D01*
Y-32825D01*
Y-32765D01*
Y-32704D01*
X-1106D01*
Y-32643D01*
Y-32582D01*
X-1045D01*
Y-32521D01*
Y-32460D01*
Y-32399D01*
X-984D01*
Y-32339D01*
Y-32278D01*
X-923D01*
Y-32217D01*
Y-32156D01*
Y-32095D01*
X-862D01*
Y-32034D01*
Y-31973D01*
Y-31912D01*
Y-31851D01*
X-801D01*
Y-31791D01*
Y-31730D01*
Y-31669D01*
Y-31608D01*
X-740D01*
Y-31547D01*
Y-31486D01*
Y-31425D01*
X-679D01*
Y-31364D01*
Y-31303D01*
Y-31243D01*
Y-31182D01*
Y-31121D01*
X-619D01*
Y-31060D01*
Y-30999D01*
Y-30938D01*
Y-30877D01*
X-558D01*
Y-30816D01*
Y-30755D01*
Y-30695D01*
Y-30634D01*
Y-30573D01*
Y-30512D01*
Y-30451D01*
Y-30390D01*
Y-30329D01*
Y-30268D01*
Y-30207D01*
Y-30147D01*
Y-30086D01*
Y-30025D01*
Y-29964D01*
Y-29903D01*
Y-29842D01*
Y-29781D01*
Y-29721D01*
Y-29660D01*
Y-29599D01*
Y-29538D01*
Y-29477D01*
Y-29416D01*
Y-29355D01*
Y-29294D01*
Y-29233D01*
Y-29173D01*
Y-29112D01*
Y-29051D01*
Y-28990D01*
X-619D01*
Y-28929D01*
Y-28868D01*
Y-28807D01*
Y-28746D01*
Y-28686D01*
Y-28625D01*
X-679D01*
Y-28564D01*
Y-28503D01*
Y-28442D01*
Y-28381D01*
Y-28320D01*
Y-28259D01*
X-740D01*
Y-28198D01*
Y-28137D01*
Y-28077D01*
Y-28016D01*
X-801D01*
Y-27955D01*
Y-27894D01*
Y-27833D01*
Y-27772D01*
X-862D01*
Y-27711D01*
Y-27650D01*
Y-27590D01*
Y-27529D01*
X-923D01*
Y-27468D01*
Y-27407D01*
Y-27346D01*
X-984D01*
Y-27285D01*
Y-27224D01*
Y-27163D01*
Y-27103D01*
X-1045D01*
Y-27042D01*
Y-26981D01*
Y-26920D01*
X-1106D01*
Y-26859D01*
Y-26798D01*
X-1167D01*
Y-26737D01*
Y-26676D01*
Y-26615D01*
Y-26555D01*
X-1228D01*
Y-26494D01*
Y-26433D01*
X-1288D01*
Y-26372D01*
Y-26311D01*
Y-26250D01*
X-1349D01*
Y-26189D01*
Y-26128D01*
X-1410D01*
Y-26068D01*
Y-26007D01*
Y-25946D01*
X-1471D01*
Y-25885D01*
Y-25824D01*
X-1532D01*
Y-25763D01*
Y-25702D01*
X-1593D01*
Y-25641D01*
Y-25580D01*
X-1654D01*
Y-25520D01*
Y-25459D01*
Y-25398D01*
X-1715D01*
Y-25337D01*
Y-25276D01*
X-1775D01*
Y-25215D01*
Y-25154D01*
X-1836D01*
Y-25093D01*
Y-25032D01*
X-1897D01*
Y-24972D01*
Y-24911D01*
X-1958D01*
Y-24850D01*
Y-24789D01*
X-2019D01*
Y-24728D01*
Y-24667D01*
X-2080D01*
Y-24606D01*
Y-24545D01*
X-2141D01*
Y-24485D01*
Y-24424D01*
X-2202D01*
Y-24363D01*
Y-24302D01*
X-2262D01*
Y-24241D01*
Y-24180D01*
X-2323D01*
Y-24119D01*
Y-24058D01*
X-2384D01*
Y-23998D01*
X-2445D01*
Y-23937D01*
Y-23876D01*
X-2506D01*
Y-23815D01*
Y-23754D01*
X-2567D01*
Y-23693D01*
X-2628D01*
Y-23632D01*
Y-23571D01*
X-2689D01*
Y-23510D01*
Y-23449D01*
X-2750D01*
Y-23389D01*
X-2811D01*
Y-23328D01*
Y-23267D01*
X-2871D01*
Y-23206D01*
X-2932D01*
Y-23145D01*
X-4576D01*
Y-23206D01*
X-5246D01*
Y-23267D01*
X-5794D01*
Y-23328D01*
X-6220D01*
Y-23389D01*
X-6707D01*
Y-23449D01*
X-6950D01*
Y-23510D01*
X-7377D01*
Y-23571D01*
X-7681D01*
Y-23632D01*
X-7986D01*
Y-23693D01*
X-8290D01*
Y-23754D01*
X-8594D01*
Y-23815D01*
X-8838D01*
Y-23876D01*
X-9081D01*
Y-23815D01*
Y-23754D01*
X-9142D01*
Y-23693D01*
Y-23632D01*
X-9203D01*
Y-23571D01*
Y-23510D01*
X-9264D01*
Y-23449D01*
Y-23389D01*
X-9325D01*
Y-23328D01*
X-9386D01*
Y-23267D01*
Y-23206D01*
X-9447D01*
Y-23145D01*
Y-23084D01*
X-9508D01*
Y-23023D01*
X-9568D01*
Y-22963D01*
Y-22902D01*
X-9629D01*
Y-22841D01*
X-9690D01*
Y-22780D01*
X-9751D01*
Y-22719D01*
Y-22658D01*
X-9812D01*
Y-22597D01*
X-9873D01*
Y-22536D01*
X-9934D01*
Y-22475D01*
Y-22414D01*
X-9995D01*
Y-22354D01*
X-10056D01*
Y-22293D01*
X-10116D01*
Y-22232D01*
X-10177D01*
Y-22171D01*
X-10238D01*
Y-22110D01*
X-10299D01*
Y-22049D01*
X-10360D01*
Y-21988D01*
X-10421D01*
Y-21927D01*
X-10482D01*
Y-21867D01*
X-10604D01*
Y-21806D01*
Y-21745D01*
X-10664D01*
Y-21684D01*
X-10786D01*
Y-21623D01*
X-10847D01*
Y-21562D01*
X-10908D01*
Y-21501D01*
X-10969D01*
Y-21440D01*
X-11091D01*
Y-21380D01*
X-11151D01*
Y-21319D01*
X-11212D01*
Y-21258D01*
X-11334D01*
Y-21197D01*
X-11456D01*
Y-21258D01*
Y-21319D01*
X-11395D01*
Y-21380D01*
Y-21440D01*
X-11334D01*
Y-21501D01*
X-11273D01*
Y-21562D01*
X-11212D01*
Y-21623D01*
Y-21684D01*
X-11151D01*
Y-21745D01*
X-11091D01*
Y-21806D01*
Y-21867D01*
X-11030D01*
Y-21927D01*
X-10969D01*
Y-21988D01*
Y-22049D01*
X-10908D01*
Y-22110D01*
Y-22171D01*
X-10847D01*
Y-22232D01*
Y-22293D01*
X-10786D01*
Y-22354D01*
Y-22414D01*
X-10725D01*
Y-22475D01*
Y-22536D01*
X-10664D01*
Y-22597D01*
Y-22658D01*
X-10604D01*
Y-22719D01*
Y-22780D01*
Y-22841D01*
X-10543D01*
Y-22902D01*
Y-22963D01*
X-10482D01*
Y-23023D01*
Y-23084D01*
Y-23145D01*
X-10421D01*
Y-23206D01*
Y-23267D01*
Y-23328D01*
X-10360D01*
Y-23389D01*
Y-23449D01*
Y-23510D01*
X-10299D01*
Y-23571D01*
Y-23632D01*
Y-23693D01*
Y-23754D01*
Y-23815D01*
X-10238D01*
Y-23876D01*
X-10299D01*
Y-23937D01*
X-10360D01*
Y-23998D01*
X-10725D01*
Y-24058D01*
X-11030D01*
Y-24119D01*
X-11212D01*
Y-24180D01*
X-11517D01*
Y-24241D01*
X-11699D01*
Y-24302D01*
X-11943D01*
Y-24363D01*
X-12186D01*
Y-24424D01*
X-12369D01*
Y-24485D01*
X-12552D01*
Y-24545D01*
X-12795D01*
Y-24606D01*
X-12978D01*
Y-24667D01*
X-13161D01*
Y-24728D01*
X-13343D01*
Y-24789D01*
X-13526D01*
Y-24850D01*
X-13709D01*
Y-24911D01*
X-13891D01*
Y-24972D01*
X-14074D01*
Y-25032D01*
X-14256D01*
Y-25093D01*
X-14378D01*
Y-25154D01*
X-14561D01*
Y-25215D01*
X-14743D01*
Y-25276D01*
X-14865D01*
Y-25337D01*
X-15109D01*
Y-25398D01*
X-15231D01*
Y-25459D01*
X-15413D01*
Y-25520D01*
X-15596D01*
Y-25580D01*
X-15718D01*
Y-25641D01*
X-15839D01*
Y-25702D01*
X-16022D01*
Y-25763D01*
X-16144D01*
Y-25824D01*
X-16327D01*
Y-25885D01*
X-16448D01*
Y-25946D01*
X-16631D01*
Y-26007D01*
X-16814D01*
Y-26068D01*
X-16935D01*
Y-26128D01*
X-17057D01*
Y-26189D01*
X-17240D01*
Y-26250D01*
X-17361D01*
Y-26311D01*
X-17544D01*
Y-26372D01*
X-17666D01*
Y-26433D01*
X-17788D01*
Y-26494D01*
X-17970D01*
Y-26555D01*
X-18092D01*
Y-26615D01*
X-18275D01*
Y-26676D01*
X-18396D01*
Y-26737D01*
X-18518D01*
Y-26798D01*
X-18640D01*
Y-26859D01*
X-18762D01*
Y-26920D01*
X-18945D01*
Y-26981D01*
X-19066D01*
Y-27042D01*
X-19188D01*
Y-27103D01*
X-19371D01*
Y-27163D01*
X-19492D01*
Y-27224D01*
X-19614D01*
Y-27285D01*
X-19736D01*
Y-27346D01*
X-19858D01*
Y-27407D01*
X-20101D01*
Y-27346D01*
X-20162D01*
Y-27285D01*
X-20223D01*
Y-27224D01*
X-20284D01*
Y-27163D01*
Y-27103D01*
X-20345D01*
Y-27042D01*
Y-26981D01*
X-20406D01*
Y-26920D01*
X-20467D01*
Y-26859D01*
Y-26798D01*
X-20527D01*
Y-26737D01*
Y-26676D01*
X-20588D01*
Y-26615D01*
Y-26555D01*
X-20649D01*
Y-26494D01*
Y-26433D01*
X-20710D01*
Y-26372D01*
Y-26311D01*
Y-26250D01*
X-20771D01*
Y-26189D01*
Y-26128D01*
Y-26068D01*
X-20832D01*
Y-26007D01*
Y-25946D01*
Y-25885D01*
Y-25824D01*
X-20893D01*
Y-25763D01*
Y-25702D01*
Y-25641D01*
X-20954D01*
Y-25580D01*
Y-25520D01*
Y-25459D01*
X-21014D01*
Y-25398D01*
Y-25337D01*
Y-25276D01*
Y-25215D01*
Y-25154D01*
Y-25093D01*
X-21075D01*
Y-25032D01*
Y-24972D01*
Y-24911D01*
Y-24850D01*
Y-24789D01*
Y-24728D01*
X-21136D01*
Y-24667D01*
Y-24606D01*
Y-24545D01*
Y-24485D01*
X-21258D01*
Y-24545D01*
Y-24606D01*
Y-24667D01*
Y-24728D01*
Y-24789D01*
X-21319D01*
Y-24850D01*
Y-24911D01*
Y-24972D01*
Y-25032D01*
Y-25093D01*
X-21380D01*
Y-25154D01*
Y-25215D01*
Y-25276D01*
Y-25337D01*
Y-25398D01*
Y-25459D01*
Y-25520D01*
Y-25580D01*
Y-25641D01*
Y-25702D01*
Y-25763D01*
Y-25824D01*
Y-25885D01*
Y-25946D01*
X-21441D01*
Y-26007D01*
Y-26068D01*
Y-26128D01*
Y-26189D01*
Y-26250D01*
Y-26311D01*
Y-26372D01*
Y-26433D01*
X-21380D01*
Y-26494D01*
Y-26555D01*
Y-26615D01*
Y-26676D01*
Y-26737D01*
Y-26798D01*
Y-26859D01*
Y-26920D01*
Y-26981D01*
Y-27042D01*
Y-27103D01*
X-21319D01*
Y-27163D01*
Y-27224D01*
Y-27285D01*
Y-27346D01*
Y-27407D01*
Y-27468D01*
Y-27529D01*
X-21258D01*
Y-27590D01*
Y-27650D01*
Y-27711D01*
Y-27772D01*
Y-27833D01*
X-21197D01*
Y-27894D01*
Y-27955D01*
X-21258D01*
Y-28016D01*
X-21319D01*
Y-28077D01*
X-21441D01*
Y-28137D01*
X-21562D01*
Y-28198D01*
X-21623D01*
Y-28259D01*
X-21745D01*
Y-28320D01*
X-21806D01*
Y-28381D01*
X-21928D01*
Y-28442D01*
X-21989D01*
Y-28503D01*
X-22110D01*
Y-28564D01*
X-22171D01*
Y-28625D01*
X-22293D01*
Y-28686D01*
X-22354D01*
Y-28746D01*
X-22476D01*
Y-28807D01*
Y-28868D01*
X-22598D01*
Y-28929D01*
X-22658D01*
Y-28990D01*
X-22780D01*
Y-29051D01*
X-22841D01*
Y-29112D01*
X-22963D01*
Y-29173D01*
X-23024D01*
Y-29233D01*
X-23145D01*
Y-29294D01*
X-23206D01*
Y-29355D01*
X-23267D01*
Y-29416D01*
X-23389D01*
Y-29477D01*
X-23450D01*
Y-29538D01*
X-23511D01*
Y-29599D01*
X-23572D01*
Y-29660D01*
X-23693D01*
Y-29721D01*
X-23754D01*
Y-29781D01*
X-23815D01*
Y-29842D01*
X-23937D01*
Y-29903D01*
X-23998D01*
Y-29964D01*
X-24119D01*
Y-30025D01*
X-24180D01*
Y-30086D01*
X-24241D01*
Y-30147D01*
X-24302D01*
Y-30207D01*
X-24424D01*
Y-30268D01*
X-24485D01*
Y-30329D01*
X-24546D01*
Y-30390D01*
X-24607D01*
Y-30451D01*
X-24728D01*
Y-30512D01*
X-24789D01*
Y-30573D01*
X-24850D01*
Y-30634D01*
X-24972D01*
Y-30695D01*
X-25033D01*
Y-30755D01*
X-25094D01*
Y-30816D01*
X-25215D01*
Y-30877D01*
X-25276D01*
Y-30938D01*
X-25337D01*
Y-30999D01*
X-25398D01*
Y-31060D01*
X-25459D01*
Y-31121D01*
X-25581D01*
Y-31182D01*
X-25642D01*
Y-31243D01*
X-25703D01*
Y-31303D01*
Y-31364D01*
Y-31425D01*
Y-31486D01*
Y-31547D01*
Y-31608D01*
X-25763D01*
Y-31669D01*
Y-31730D01*
Y-31791D01*
Y-31851D01*
Y-31912D01*
Y-31973D01*
Y-32034D01*
Y-32095D01*
Y-32156D01*
X-25824D01*
Y-32217D01*
Y-32278D01*
Y-32339D01*
Y-32399D01*
Y-32460D01*
Y-32521D01*
X-25885D01*
Y-32582D01*
Y-32643D01*
Y-32704D01*
Y-32765D01*
Y-32825D01*
Y-32886D01*
Y-32947D01*
Y-33008D01*
Y-33069D01*
Y-33130D01*
Y-33191D01*
Y-33252D01*
Y-33313D01*
X-25824D01*
Y-33373D01*
Y-33434D01*
Y-33495D01*
Y-33556D01*
Y-33617D01*
X-25763D01*
Y-33678D01*
Y-33739D01*
Y-33800D01*
Y-33860D01*
Y-33921D01*
Y-33982D01*
X-25703D01*
Y-34043D01*
Y-34104D01*
Y-34165D01*
Y-34226D01*
X-25642D01*
Y-34287D01*
Y-34348D01*
Y-34409D01*
Y-34469D01*
Y-34530D01*
Y-34591D01*
X-25581D01*
Y-34652D01*
Y-34713D01*
Y-34774D01*
Y-34835D01*
X-25520D01*
Y-34896D01*
Y-34956D01*
Y-35017D01*
Y-35078D01*
X-25459D01*
Y-35139D01*
Y-35200D01*
Y-35261D01*
Y-35322D01*
X-25398D01*
Y-35383D01*
Y-35443D01*
Y-35504D01*
X-25337D01*
Y-35565D01*
Y-35626D01*
Y-35687D01*
X-25276D01*
Y-35748D01*
Y-35809D01*
Y-35870D01*
X-25215D01*
Y-35931D01*
Y-35991D01*
X-25155D01*
Y-36052D01*
Y-36113D01*
Y-36174D01*
X-25094D01*
Y-36235D01*
Y-36296D01*
X-25033D01*
Y-36357D01*
Y-36418D01*
X-24972D01*
Y-36478D01*
Y-36539D01*
Y-36600D01*
X-24911D01*
Y-36661D01*
Y-36722D01*
X-24850D01*
Y-36783D01*
Y-36844D01*
X-24789D01*
Y-36905D01*
Y-36966D01*
X-24728D01*
Y-37026D01*
X-24667D01*
Y-37087D01*
Y-37148D01*
X-24607D01*
Y-37209D01*
Y-37270D01*
X-24546D01*
Y-37331D01*
Y-37392D01*
X-24485D01*
Y-37453D01*
X-24424D01*
Y-37514D01*
Y-37574D01*
X-24363D01*
Y-37635D01*
X-24302D01*
Y-37696D01*
Y-37757D01*
X-24241D01*
Y-37818D01*
Y-37879D01*
X-24180D01*
Y-37940D01*
X-24119D01*
Y-38001D01*
X-24059D01*
Y-38061D01*
X-23998D01*
Y-38122D01*
X-23937D01*
Y-38183D01*
Y-38244D01*
X-23876D01*
Y-38305D01*
X-23815D01*
Y-38366D01*
X-23754D01*
Y-38427D01*
X-23693D01*
Y-38488D01*
X-23632D01*
Y-38548D01*
X-23572D01*
Y-38609D01*
X-23511D01*
Y-38670D01*
X-23450D01*
Y-38731D01*
X-23389D01*
Y-38792D01*
X-23328D01*
Y-38853D01*
X-23267D01*
Y-38914D01*
X-23145D01*
Y-38975D01*
X-23085D01*
Y-39036D01*
X-23024D01*
Y-39097D01*
X-22963D01*
Y-39157D01*
X-22841D01*
Y-39218D01*
X-22780D01*
Y-39279D01*
X-22658D01*
Y-39340D01*
X-31608D01*
Y-39279D01*
X-31730D01*
Y-39218D01*
X-31852D01*
Y-39157D01*
X-31973D01*
Y-39097D01*
X-32034D01*
Y-39036D01*
X-32156D01*
Y-38975D01*
X-32278D01*
Y-38914D01*
X-32400D01*
Y-38853D01*
X-32460D01*
Y-38792D01*
X-32582D01*
Y-38731D01*
X-32704D01*
Y-38670D01*
X-32765D01*
Y-38609D01*
X-32887D01*
Y-38548D01*
X-32948D01*
Y-38488D01*
X-33069D01*
Y-38427D01*
X-33191D01*
Y-38366D01*
X-33252D01*
Y-38305D01*
X-33374D01*
Y-38244D01*
X-33435D01*
Y-38183D01*
X-33556D01*
Y-38122D01*
X-33617D01*
Y-38061D01*
X-33678D01*
Y-38001D01*
X-33800D01*
Y-37940D01*
X-33861D01*
Y-37879D01*
X-33983D01*
Y-37818D01*
X-34043D01*
Y-37757D01*
X-34165D01*
Y-37696D01*
X-34226D01*
Y-37635D01*
X-34348D01*
Y-37574D01*
X-34409D01*
Y-37514D01*
X-34530D01*
Y-37453D01*
X-34591D01*
Y-37392D01*
X-34652D01*
Y-37331D01*
X-34713D01*
Y-37270D01*
X-34835D01*
Y-37209D01*
X-34896D01*
Y-37148D01*
X-34957D01*
Y-37087D01*
X-35078D01*
Y-37026D01*
X-35139D01*
Y-36966D01*
X-35200D01*
Y-36905D01*
X-35322D01*
Y-36844D01*
X-35383D01*
Y-36783D01*
X-35444D01*
Y-36722D01*
X-35505D01*
Y-36661D01*
X-35626D01*
Y-36600D01*
X-35687D01*
Y-36539D01*
X-35748D01*
Y-36478D01*
X-35809D01*
Y-36418D01*
Y-36357D01*
Y-36296D01*
Y-36235D01*
X-35748D01*
Y-36174D01*
Y-36113D01*
Y-36052D01*
Y-35991D01*
Y-35931D01*
Y-35870D01*
X-35687D01*
Y-35809D01*
Y-35748D01*
Y-35687D01*
Y-35626D01*
Y-35565D01*
X-35626D01*
Y-35504D01*
Y-35443D01*
Y-35383D01*
Y-35322D01*
Y-35261D01*
Y-35200D01*
X-35566D01*
Y-35139D01*
Y-35078D01*
Y-35017D01*
Y-34956D01*
Y-34896D01*
X-35505D01*
Y-34835D01*
Y-34774D01*
Y-34713D01*
Y-34652D01*
X-35444D01*
Y-34591D01*
Y-34530D01*
Y-34469D01*
Y-34409D01*
Y-34348D01*
Y-34287D01*
Y-34226D01*
X-35383D01*
Y-34165D01*
Y-34104D01*
X-35322D01*
Y-34043D01*
Y-33982D01*
Y-33921D01*
Y-33860D01*
Y-33800D01*
Y-33739D01*
X-35261D01*
Y-33678D01*
Y-33617D01*
Y-33556D01*
Y-33495D01*
X-35200D01*
Y-33434D01*
Y-33373D01*
Y-33313D01*
X-35139D01*
Y-33252D01*
Y-33191D01*
Y-33130D01*
Y-33069D01*
Y-33008D01*
X-35078D01*
Y-32947D01*
Y-32886D01*
X-35018D01*
Y-32825D01*
Y-32765D01*
Y-32704D01*
Y-32643D01*
Y-32582D01*
X-34957D01*
Y-32521D01*
Y-32460D01*
Y-32399D01*
Y-32339D01*
Y-32278D01*
X-34896D01*
Y-32217D01*
Y-32156D01*
X-34835D01*
Y-32095D01*
Y-32034D01*
Y-31973D01*
Y-31912D01*
X-34774D01*
Y-31851D01*
Y-31791D01*
Y-31730D01*
Y-31669D01*
X-34713D01*
Y-31608D01*
Y-31547D01*
Y-31486D01*
X-34652D01*
Y-31425D01*
Y-31364D01*
Y-31303D01*
Y-31243D01*
X-34591D01*
Y-31182D01*
Y-31121D01*
X-34530D01*
Y-31060D01*
Y-30999D01*
Y-30938D01*
Y-30877D01*
X-34470D01*
Y-30816D01*
Y-30755D01*
Y-30695D01*
Y-30634D01*
X-34409D01*
Y-30573D01*
Y-30512D01*
X-34348D01*
Y-30451D01*
Y-30390D01*
Y-30329D01*
Y-30268D01*
X-34287D01*
Y-30207D01*
Y-30147D01*
X-34226D01*
Y-30086D01*
Y-30025D01*
Y-29964D01*
X-34165D01*
Y-29903D01*
Y-29842D01*
Y-29781D01*
Y-29721D01*
X-34104D01*
Y-29660D01*
X-34043D01*
Y-29599D01*
Y-29538D01*
Y-29477D01*
X-33983D01*
Y-29416D01*
Y-29355D01*
Y-29294D01*
Y-29233D01*
X-33922D01*
Y-29173D01*
X-33861D01*
Y-29112D01*
Y-29051D01*
Y-28990D01*
Y-28929D01*
X-33800D01*
Y-28868D01*
Y-28807D01*
Y-28746D01*
X-33739D01*
Y-28686D01*
Y-28625D01*
X-33678D01*
Y-28564D01*
Y-28503D01*
Y-28442D01*
X-33617D01*
Y-28381D01*
Y-28320D01*
X-33556D01*
Y-28259D01*
Y-28198D01*
Y-28137D01*
X-33496D01*
Y-28077D01*
Y-28016D01*
X-33435D01*
Y-27955D01*
Y-27894D01*
X-33374D01*
Y-27833D01*
Y-27772D01*
Y-27711D01*
X-33313D01*
Y-27650D01*
Y-27590D01*
X-33252D01*
Y-27529D01*
Y-27468D01*
Y-27407D01*
X-33191D01*
Y-27346D01*
Y-27285D01*
X-33130D01*
Y-27224D01*
Y-27163D01*
X-33069D01*
Y-27103D01*
Y-27042D01*
X-33009D01*
Y-26981D01*
Y-26920D01*
Y-26859D01*
X-32948D01*
Y-26798D01*
Y-26737D01*
X-32887D01*
Y-26676D01*
Y-26615D01*
X-32826D01*
Y-26555D01*
Y-26494D01*
X-32765D01*
Y-26433D01*
Y-26372D01*
X-32704D01*
Y-26311D01*
Y-26250D01*
Y-26189D01*
X-32643D01*
Y-26128D01*
X-32582D01*
Y-26068D01*
Y-26007D01*
Y-25946D01*
X-32521D01*
Y-25885D01*
Y-25824D01*
X-32460D01*
Y-25763D01*
X-32400D01*
Y-25702D01*
Y-25641D01*
Y-25580D01*
X-32339D01*
Y-25520D01*
X-32278D01*
Y-25459D01*
Y-25398D01*
Y-25337D01*
X-32217D01*
Y-25276D01*
Y-25215D01*
X-32156D01*
Y-25154D01*
X-32095D01*
Y-25093D01*
Y-25032D01*
X-32034D01*
Y-24972D01*
Y-24911D01*
X-31973D01*
Y-24850D01*
Y-24789D01*
X-31913D01*
Y-24728D01*
Y-24667D01*
X-31852D01*
Y-24606D01*
X-31791D01*
Y-24545D01*
Y-24485D01*
X-31730D01*
Y-24424D01*
Y-24363D01*
X-31669D01*
Y-24302D01*
Y-24241D01*
X-31608D01*
Y-24180D01*
Y-24119D01*
X-31547D01*
Y-24058D01*
Y-23998D01*
X-31486D01*
Y-23937D01*
X-31425D01*
Y-23876D01*
Y-23815D01*
X-31365D01*
Y-23754D01*
X-31304D01*
Y-23693D01*
Y-23632D01*
X-31243D01*
Y-23571D01*
Y-23510D01*
X-31182D01*
Y-23449D01*
Y-23389D01*
X-31121D01*
Y-23328D01*
X-31060D01*
Y-23267D01*
Y-23206D01*
X-30999D01*
Y-23145D01*
X-30938D01*
Y-23084D01*
Y-23023D01*
X-30878D01*
Y-22963D01*
X-30817D01*
Y-22902D01*
Y-22841D01*
X-30756D01*
Y-22780D01*
Y-22719D01*
X-30695D01*
Y-22658D01*
X-30634D01*
Y-22597D01*
Y-22536D01*
X-30573D01*
Y-22475D01*
X-30512D01*
Y-22414D01*
X-30451D01*
Y-22354D01*
Y-22293D01*
X-30391D01*
Y-22232D01*
X-30330D01*
Y-22171D01*
Y-22110D01*
X-30269D01*
Y-22049D01*
X-30208D01*
Y-21988D01*
Y-21927D01*
X-30147D01*
Y-21867D01*
X-30086D01*
Y-21806D01*
Y-21745D01*
X-30025D01*
Y-21684D01*
X-29964D01*
Y-21623D01*
X-29903D01*
Y-21562D01*
Y-21501D01*
X-29842D01*
Y-21440D01*
X-29782D01*
Y-21380D01*
X-29721D01*
Y-21319D01*
Y-21258D01*
X-29660D01*
Y-21197D01*
X-29599D01*
Y-21136D01*
Y-21075D01*
X-29477D01*
Y-21014D01*
Y-20953D01*
X-29416D01*
Y-20892D01*
X-29355D01*
Y-20831D01*
X-29295D01*
Y-20771D01*
Y-20710D01*
X-29234D01*
Y-20649D01*
X-29173D01*
Y-20588D01*
X-29112D01*
Y-20527D01*
X-29051D01*
Y-20466D01*
X-28990D01*
Y-20405D01*
Y-20345D01*
X-28929D01*
Y-20284D01*
X-28868D01*
Y-20223D01*
X-28808D01*
Y-20162D01*
X-28747D01*
Y-20101D01*
Y-20040D01*
X-28686D01*
Y-19979D01*
X-28625D01*
Y-19918D01*
X-28564D01*
Y-19857D01*
X-28503D01*
Y-19796D01*
X-28442D01*
Y-19736D01*
X-28381D01*
Y-19675D01*
X-28321D01*
Y-19614D01*
X-28260D01*
Y-19553D01*
X-28199D01*
Y-19492D01*
Y-19431D01*
X-28138D01*
Y-19370D01*
X-28077D01*
Y-19309D01*
X-28016D01*
Y-19249D01*
X-27955D01*
Y-19188D01*
X-27894D01*
Y-19127D01*
X-27833D01*
Y-19066D01*
X-27773D01*
Y-19005D01*
X-27712D01*
Y-18944D01*
X-27651D01*
Y-18883D01*
X-27590D01*
Y-18822D01*
X-27529D01*
Y-18762D01*
X-27468D01*
Y-18701D01*
X-27407D01*
Y-18640D01*
X-27346D01*
Y-18579D01*
X-27285D01*
Y-18518D01*
X-27225D01*
Y-18457D01*
X-27164D01*
Y-18396D01*
X-27103D01*
Y-18335D01*
X-27042D01*
Y-18274D01*
X-26920D01*
Y-18214D01*
X-26859D01*
Y-18153D01*
X-26798D01*
Y-18092D01*
X-26737D01*
Y-18031D01*
X-26677D01*
Y-17970D01*
X-26616D01*
Y-17909D01*
X-26555D01*
Y-17848D01*
X-26494D01*
Y-17787D01*
X-26372D01*
Y-17727D01*
X-26311D01*
Y-17666D01*
X-26250D01*
Y-17605D01*
X-26190D01*
Y-17544D01*
X-26129D01*
Y-17483D01*
X-26068D01*
Y-17422D01*
X-25946D01*
Y-17361D01*
X-25885D01*
Y-17300D01*
X-25824D01*
Y-17239D01*
X-25703D01*
Y-17179D01*
X-25520D01*
Y-17118D01*
X-25337D01*
Y-17057D01*
X-24728D01*
Y-16996D01*
X-22110D01*
Y-17057D01*
X-20954D01*
Y-16996D01*
X-20893D01*
Y-16935D01*
X-20954D01*
Y-16874D01*
X-21014D01*
Y-16813D01*
X-21075D01*
Y-16752D01*
X-21136D01*
Y-16691D01*
X-21197D01*
Y-16631D01*
Y-16570D01*
X-21319D01*
Y-16509D01*
Y-16448D01*
X-21380D01*
Y-16387D01*
X-21441D01*
Y-16326D01*
X-21502D01*
Y-16265D01*
X-21562D01*
Y-16204D01*
X-21623D01*
Y-16143D01*
Y-16083D01*
X-21684D01*
Y-16022D01*
X-21745D01*
Y-15961D01*
Y-15900D01*
X-21806D01*
Y-15839D01*
X-21867D01*
Y-15778D01*
Y-15717D01*
X-21928D01*
Y-15656D01*
X-21989D01*
Y-15596D01*
Y-15535D01*
X-22050D01*
Y-15474D01*
Y-15413D01*
X-22110D01*
Y-15352D01*
Y-15291D01*
X-22171D01*
Y-15230D01*
Y-15169D01*
X-22232D01*
Y-15109D01*
Y-15048D01*
X-22293D01*
Y-14987D01*
Y-14926D01*
Y-14865D01*
X-22354D01*
Y-14804D01*
Y-14743D01*
X-22415D01*
Y-14682D01*
Y-14622D01*
Y-14561D01*
X-22476D01*
Y-14500D01*
Y-14439D01*
Y-14378D01*
X-22537D01*
Y-14317D01*
Y-14256D01*
Y-14195D01*
Y-14134D01*
X-22598D01*
Y-14074D01*
Y-14013D01*
Y-13952D01*
Y-13891D01*
Y-13830D01*
Y-13769D01*
X-22537D01*
Y-13830D01*
Y-13891D01*
Y-13952D01*
X-22476D01*
Y-14013D01*
Y-14074D01*
Y-14134D01*
X-22415D01*
Y-14195D01*
Y-14256D01*
X-22354D01*
Y-14317D01*
Y-14378D01*
X-22293D01*
Y-14439D01*
Y-14500D01*
X-22232D01*
Y-14561D01*
Y-14622D01*
Y-14682D01*
X-22171D01*
Y-14743D01*
X-22110D01*
Y-14804D01*
Y-14865D01*
X-22050D01*
Y-14926D01*
Y-14987D01*
X-21989D01*
Y-15048D01*
Y-15109D01*
X-21928D01*
Y-15169D01*
Y-15230D01*
X-21867D01*
Y-15291D01*
X-21806D01*
Y-15352D01*
Y-15413D01*
X-21745D01*
Y-15474D01*
Y-15535D01*
X-21684D01*
Y-15596D01*
X-21623D01*
Y-15656D01*
Y-15717D01*
X-21562D01*
Y-15778D01*
X-21502D01*
Y-15839D01*
Y-15900D01*
X-21441D01*
Y-15961D01*
X-21380D01*
Y-16022D01*
Y-16083D01*
X-21319D01*
Y-16143D01*
X-21258D01*
Y-16204D01*
X-21197D01*
Y-16265D01*
X-21136D01*
Y-16326D01*
X-21075D01*
Y-16387D01*
Y-16448D01*
X-21014D01*
Y-16509D01*
X-20954D01*
Y-16570D01*
X-20893D01*
Y-16631D01*
X-20832D01*
Y-16691D01*
X-20771D01*
Y-16752D01*
X-20710D01*
Y-16813D01*
X-20588D01*
Y-16752D01*
Y-16691D01*
Y-16631D01*
Y-16570D01*
Y-16509D01*
Y-16448D01*
Y-16387D01*
X-20649D01*
Y-16326D01*
Y-16265D01*
Y-16204D01*
Y-16143D01*
Y-16083D01*
Y-16022D01*
Y-15961D01*
Y-15900D01*
Y-15839D01*
X-20710D01*
Y-15778D01*
Y-15717D01*
Y-15656D01*
Y-15596D01*
Y-15535D01*
Y-15474D01*
Y-15413D01*
Y-15352D01*
Y-15291D01*
Y-15230D01*
Y-15169D01*
Y-15109D01*
X-20771D01*
Y-15048D01*
Y-14987D01*
Y-14926D01*
Y-14865D01*
Y-14804D01*
Y-14743D01*
Y-14682D01*
Y-14622D01*
Y-14561D01*
Y-14500D01*
Y-14439D01*
Y-14378D01*
Y-14317D01*
Y-14256D01*
Y-14195D01*
Y-14134D01*
Y-14074D01*
Y-14013D01*
Y-13952D01*
X-20710D01*
Y-13891D01*
Y-13830D01*
Y-13769D01*
Y-13708D01*
Y-13647D01*
Y-13587D01*
Y-13526D01*
Y-13465D01*
Y-13404D01*
X-20649D01*
Y-13343D01*
Y-13282D01*
Y-13221D01*
Y-13160D01*
Y-13099D01*
Y-13038D01*
Y-12978D01*
X-20406D01*
Y-13038D01*
Y-13099D01*
Y-13160D01*
Y-13221D01*
Y-13282D01*
Y-13343D01*
X-20467D01*
Y-13404D01*
Y-13465D01*
Y-13526D01*
Y-13587D01*
Y-13647D01*
Y-13708D01*
Y-13769D01*
Y-13830D01*
Y-13891D01*
Y-13952D01*
Y-14013D01*
Y-14074D01*
Y-14134D01*
Y-14195D01*
Y-14256D01*
Y-14317D01*
Y-14378D01*
Y-14439D01*
Y-14500D01*
Y-14561D01*
Y-14622D01*
Y-14682D01*
Y-14743D01*
Y-14804D01*
Y-14865D01*
Y-14926D01*
Y-14987D01*
Y-15048D01*
Y-15109D01*
Y-15169D01*
Y-15230D01*
Y-15291D01*
Y-15352D01*
Y-15413D01*
Y-15474D01*
Y-15535D01*
X-20406D01*
Y-15596D01*
Y-15656D01*
Y-15717D01*
Y-15778D01*
Y-15839D01*
Y-15900D01*
Y-15961D01*
Y-16022D01*
Y-16083D01*
Y-16143D01*
Y-16204D01*
Y-16265D01*
Y-16326D01*
Y-16387D01*
Y-16448D01*
X-20345D01*
Y-16509D01*
Y-16570D01*
X-20284D01*
Y-16631D01*
X-20223D01*
Y-16570D01*
X-20162D01*
Y-16509D01*
X-20101D01*
Y-16448D01*
Y-16387D01*
X-20040D01*
Y-16326D01*
X-19979D01*
Y-16265D01*
Y-16204D01*
X-19919D01*
Y-16143D01*
Y-16083D01*
X-19858D01*
Y-16022D01*
Y-15961D01*
X-19797D01*
Y-15900D01*
X-19736D01*
Y-15839D01*
Y-15778D01*
X-19675D01*
Y-15717D01*
Y-15656D01*
X-19614D01*
Y-15596D01*
X-19553D01*
Y-15535D01*
Y-15474D01*
X-19492D01*
Y-15413D01*
X-19432D01*
Y-15352D01*
X-19371D01*
Y-15291D01*
Y-15230D01*
X-19310D01*
Y-15169D01*
X-19249D01*
Y-15109D01*
Y-15048D01*
X-19188D01*
Y-14987D01*
X-19127D01*
Y-14926D01*
Y-14865D01*
X-19066D01*
Y-14804D01*
X-19005D01*
Y-14743D01*
X-18945D01*
Y-14682D01*
X-18884D01*
Y-14622D01*
Y-14561D01*
X-18823D01*
Y-14500D01*
X-18762D01*
Y-14439D01*
X-18701D01*
Y-14378D01*
X-18640D01*
Y-14317D01*
X-18579D01*
Y-14256D01*
Y-14195D01*
X-18518D01*
Y-14134D01*
X-18457D01*
Y-14074D01*
X-18396D01*
Y-14013D01*
X-18275D01*
Y-13952D01*
Y-13891D01*
X-18214D01*
Y-13830D01*
X-18153D01*
Y-13769D01*
X-18092D01*
Y-13708D01*
X-17970D01*
Y-13647D01*
X-17910D01*
Y-13587D01*
X-17849D01*
Y-13526D01*
X-17788D01*
Y-13465D01*
X-17666D01*
Y-13404D01*
X-17605D01*
Y-13343D01*
X-17483D01*
Y-13282D01*
X-17422D01*
Y-13221D01*
X-17301D01*
Y-13160D01*
X-17179D01*
Y-13099D01*
X-17057D01*
Y-13038D01*
X-16874D01*
Y-12978D01*
X-9629D01*
Y-13038D01*
D02*
G37*
G36*
X-6220Y-24424D02*
X-5976D01*
Y-24485D01*
X-5733D01*
Y-24545D01*
X-5550D01*
Y-24606D01*
X-5428D01*
Y-24667D01*
X-5246D01*
Y-24728D01*
X-5124D01*
Y-24789D01*
X-5063D01*
Y-24850D01*
X-4941D01*
Y-24911D01*
X-4880D01*
Y-24972D01*
X-4759D01*
Y-25032D01*
X-4698D01*
Y-25093D01*
X-4637D01*
Y-25154D01*
X-4515D01*
Y-25215D01*
X-4454D01*
Y-25276D01*
X-4393D01*
Y-25337D01*
X-4332D01*
Y-25398D01*
X-4272D01*
Y-25459D01*
X-4211D01*
Y-25520D01*
X-4150D01*
Y-25580D01*
Y-25641D01*
X-4089D01*
Y-25702D01*
X-4028D01*
Y-25763D01*
X-3967D01*
Y-25824D01*
Y-25885D01*
X-3906D01*
Y-25946D01*
Y-26007D01*
X-3845D01*
Y-26068D01*
X-3785D01*
Y-26128D01*
Y-26189D01*
X-3724D01*
Y-26250D01*
Y-26311D01*
X-3663D01*
Y-26372D01*
Y-26433D01*
Y-26494D01*
X-3602D01*
Y-26555D01*
Y-26615D01*
Y-26676D01*
Y-26737D01*
X-3541D01*
Y-26798D01*
Y-26859D01*
Y-26920D01*
Y-26981D01*
X-3480D01*
Y-27042D01*
Y-27103D01*
Y-27163D01*
Y-27224D01*
Y-27285D01*
Y-27346D01*
Y-27407D01*
Y-27468D01*
Y-27529D01*
Y-27590D01*
Y-27650D01*
Y-27711D01*
Y-27772D01*
Y-27833D01*
Y-27894D01*
Y-27955D01*
Y-28016D01*
Y-28077D01*
X-3541D01*
Y-28137D01*
Y-28198D01*
X-3602D01*
Y-28259D01*
X-3724D01*
Y-28320D01*
X-3785D01*
Y-28381D01*
X-3906D01*
Y-28442D01*
X-3967D01*
Y-28503D01*
X-4089D01*
Y-28564D01*
X-4211D01*
Y-28625D01*
X-4272D01*
Y-28686D01*
X-4393D01*
Y-28746D01*
X-4515D01*
Y-28807D01*
X-4637D01*
Y-28868D01*
X-4759D01*
Y-28929D01*
X-4880D01*
Y-28990D01*
X-5002D01*
Y-29051D01*
X-5124D01*
Y-29112D01*
X-5307D01*
Y-29173D01*
X-5428D01*
Y-29233D01*
X-5611D01*
Y-29294D01*
X-5794D01*
Y-29355D01*
X-5915D01*
Y-29416D01*
X-6098D01*
Y-29477D01*
X-6342D01*
Y-29538D01*
X-6524D01*
Y-29599D01*
X-6707D01*
Y-29660D01*
X-7011D01*
Y-29721D01*
X-7255D01*
Y-29781D01*
X-7620D01*
Y-29842D01*
X-7986D01*
Y-29903D01*
X-8473D01*
Y-29964D01*
X-8716D01*
Y-29903D01*
X-8899D01*
Y-29842D01*
X-9020D01*
Y-29781D01*
X-9081D01*
Y-29721D01*
X-9142D01*
Y-29660D01*
Y-29599D01*
X-9203D01*
Y-29538D01*
X-9264D01*
Y-29477D01*
Y-29416D01*
X-9325D01*
Y-29355D01*
Y-29294D01*
Y-29233D01*
X-9386D01*
Y-29173D01*
Y-29112D01*
X-9447D01*
Y-29051D01*
Y-28990D01*
Y-28929D01*
X-9508D01*
Y-28868D01*
Y-28807D01*
Y-28746D01*
Y-28686D01*
X-9568D01*
Y-28625D01*
Y-28564D01*
Y-28503D01*
Y-28442D01*
Y-28381D01*
X-9629D01*
Y-28320D01*
Y-28259D01*
Y-28198D01*
Y-28137D01*
Y-28077D01*
Y-28016D01*
Y-27955D01*
Y-27894D01*
Y-27833D01*
Y-27772D01*
Y-27711D01*
X-9690D01*
Y-27650D01*
Y-27590D01*
X-9629D01*
Y-27529D01*
Y-27468D01*
Y-27407D01*
Y-27346D01*
Y-27285D01*
Y-27224D01*
Y-27163D01*
Y-27103D01*
Y-27042D01*
X-9568D01*
Y-26981D01*
Y-26920D01*
Y-26859D01*
Y-26798D01*
Y-26737D01*
X-9508D01*
Y-26676D01*
Y-26615D01*
Y-26555D01*
Y-26494D01*
Y-26433D01*
X-9447D01*
Y-26372D01*
X-9386D01*
Y-26311D01*
Y-26250D01*
Y-26189D01*
X-9325D01*
Y-26128D01*
Y-26068D01*
X-9264D01*
Y-26007D01*
Y-25946D01*
X-9203D01*
Y-25885D01*
Y-25824D01*
X-9142D01*
Y-25763D01*
Y-25702D01*
X-9081D01*
Y-25641D01*
X-9020D01*
Y-25580D01*
X-8960D01*
Y-25520D01*
X-8899D01*
Y-25459D01*
Y-25398D01*
X-8838D01*
Y-25337D01*
X-8777D01*
Y-25276D01*
X-8655D01*
Y-25215D01*
X-8594D01*
Y-25154D01*
X-8534D01*
Y-25093D01*
X-8473D01*
Y-25032D01*
X-8412D01*
Y-24972D01*
X-8290D01*
Y-24911D01*
X-8168D01*
Y-24850D01*
X-8107D01*
Y-24789D01*
X-7986D01*
Y-24728D01*
X-7864D01*
Y-24667D01*
X-7742D01*
Y-24606D01*
X-7620D01*
Y-24545D01*
X-7438D01*
Y-24485D01*
X-7133D01*
Y-24424D01*
X-6829D01*
Y-24363D01*
X-6220D01*
Y-24424D01*
D02*
G37*
G36*
X-9751Y-31912D02*
X-9690D01*
Y-31973D01*
Y-32034D01*
Y-32095D01*
Y-32156D01*
Y-32217D01*
Y-32278D01*
Y-32339D01*
Y-32399D01*
X-9751D01*
Y-32460D01*
Y-32521D01*
Y-32582D01*
X-9812D01*
Y-32643D01*
Y-32704D01*
X-9873D01*
Y-32765D01*
X-9934D01*
Y-32825D01*
Y-32886D01*
X-9995D01*
Y-32947D01*
X-10116D01*
Y-33008D01*
X-10177D01*
Y-33069D01*
X-10299D01*
Y-33130D01*
X-10482D01*
Y-33191D01*
X-10664D01*
Y-33130D01*
X-10604D01*
Y-33069D01*
X-10543D01*
Y-33008D01*
X-10482D01*
Y-32947D01*
X-10421D01*
Y-32886D01*
X-10360D01*
Y-32825D01*
X-10299D01*
Y-32765D01*
X-10238D01*
Y-32704D01*
Y-32643D01*
X-10177D01*
Y-32582D01*
X-10116D01*
Y-32521D01*
Y-32460D01*
X-10056D01*
Y-32399D01*
X-9995D01*
Y-32339D01*
Y-32278D01*
Y-32217D01*
X-9934D01*
Y-32156D01*
Y-32095D01*
Y-32034D01*
X-9873D01*
Y-31973D01*
Y-31912D01*
X-9812D01*
Y-31851D01*
X-9751D01*
Y-31912D01*
D02*
G37*
G36*
X-18396Y-28503D02*
X-18031D01*
Y-28564D01*
X-17849D01*
Y-28625D01*
X-17666D01*
Y-28686D01*
X-17544D01*
Y-28746D01*
X-17422D01*
Y-28807D01*
X-17240D01*
Y-28868D01*
X-17179D01*
Y-28929D01*
X-17057D01*
Y-28990D01*
X-16935D01*
Y-29051D01*
X-16874D01*
Y-29112D01*
X-16814D01*
Y-29173D01*
X-16753D01*
Y-29233D01*
X-16631D01*
Y-29294D01*
X-16570D01*
Y-29355D01*
X-16509D01*
Y-29416D01*
X-16448D01*
Y-29477D01*
X-16387D01*
Y-29538D01*
X-16327D01*
Y-29599D01*
Y-29660D01*
X-16266D01*
Y-29721D01*
X-16205D01*
Y-29781D01*
X-16144D01*
Y-29842D01*
X-16083D01*
Y-29903D01*
Y-29964D01*
X-16022D01*
Y-30025D01*
X-15961D01*
Y-30086D01*
Y-30147D01*
X-15900D01*
Y-30207D01*
X-15839D01*
Y-30268D01*
Y-30329D01*
X-15779D01*
Y-30390D01*
Y-30451D01*
X-15718D01*
Y-30512D01*
X-15657D01*
Y-30573D01*
Y-30634D01*
X-15596D01*
Y-30695D01*
Y-30755D01*
Y-30816D01*
X-15535D01*
Y-30877D01*
Y-30938D01*
X-15474D01*
Y-30999D01*
Y-31060D01*
Y-31121D01*
X-15413D01*
Y-31182D01*
Y-31243D01*
Y-31303D01*
X-15352D01*
Y-31364D01*
Y-31425D01*
Y-31486D01*
Y-31547D01*
X-15292D01*
Y-31608D01*
Y-31669D01*
Y-31730D01*
Y-31791D01*
X-15352D01*
Y-31851D01*
Y-31912D01*
X-15413D01*
Y-31973D01*
X-15474D01*
Y-32034D01*
X-15535D01*
Y-32095D01*
X-15596D01*
Y-32156D01*
X-15657D01*
Y-32217D01*
X-15718D01*
Y-32278D01*
X-15839D01*
Y-32339D01*
X-15900D01*
Y-32399D01*
X-16022D01*
Y-32460D01*
X-16083D01*
Y-32521D01*
X-16205D01*
Y-32582D01*
X-16266D01*
Y-32643D01*
X-16387D01*
Y-32704D01*
X-16509D01*
Y-32765D01*
X-16631D01*
Y-32825D01*
X-16692D01*
Y-32886D01*
X-16814D01*
Y-32947D01*
X-16935D01*
Y-33008D01*
X-17057D01*
Y-33069D01*
X-17240D01*
Y-33130D01*
X-17361D01*
Y-33191D01*
X-17483D01*
Y-33252D01*
X-17666D01*
Y-33313D01*
X-17788D01*
Y-33373D01*
X-17970D01*
Y-33434D01*
X-18153D01*
Y-33495D01*
X-18336D01*
Y-33556D01*
X-18579D01*
Y-33617D01*
X-18762D01*
Y-33678D01*
X-19066D01*
Y-33739D01*
X-19371D01*
Y-33800D01*
X-19797D01*
Y-33860D01*
X-20345D01*
Y-33921D01*
X-21136D01*
Y-33860D01*
X-21258D01*
Y-33800D01*
X-21319D01*
Y-33739D01*
X-21380D01*
Y-33678D01*
X-21441D01*
Y-33617D01*
X-21502D01*
Y-33556D01*
X-21562D01*
Y-33495D01*
X-21623D01*
Y-33434D01*
Y-33373D01*
X-21684D01*
Y-33313D01*
Y-33252D01*
X-21745D01*
Y-33191D01*
Y-33130D01*
X-21806D01*
Y-33069D01*
X-21867D01*
Y-33008D01*
Y-32947D01*
X-21928D01*
Y-32886D01*
Y-32825D01*
Y-32765D01*
X-21989D01*
Y-32704D01*
Y-32643D01*
Y-32582D01*
X-22050D01*
Y-32521D01*
Y-32460D01*
Y-32399D01*
Y-32339D01*
Y-32278D01*
X-22110D01*
Y-32217D01*
Y-32156D01*
Y-32095D01*
Y-32034D01*
Y-31973D01*
Y-31912D01*
Y-31851D01*
Y-31791D01*
Y-31730D01*
Y-31669D01*
Y-31608D01*
X-22171D01*
Y-31547D01*
Y-31486D01*
X-22110D01*
Y-31425D01*
Y-31364D01*
Y-31303D01*
Y-31243D01*
Y-31182D01*
Y-31121D01*
Y-31060D01*
Y-30999D01*
Y-30938D01*
Y-30877D01*
X-22050D01*
Y-30816D01*
Y-30755D01*
Y-30695D01*
Y-30634D01*
Y-30573D01*
X-21989D01*
Y-30512D01*
Y-30451D01*
X-21928D01*
Y-30390D01*
Y-30329D01*
Y-30268D01*
X-21867D01*
Y-30207D01*
Y-30147D01*
X-21806D01*
Y-30086D01*
Y-30025D01*
X-21745D01*
Y-29964D01*
Y-29903D01*
X-21684D01*
Y-29842D01*
X-21623D01*
Y-29781D01*
Y-29721D01*
X-21562D01*
Y-29660D01*
X-21502D01*
Y-29599D01*
X-21441D01*
Y-29538D01*
X-21380D01*
Y-29477D01*
X-21319D01*
Y-29416D01*
X-21258D01*
Y-29355D01*
X-21197D01*
Y-29294D01*
X-21136D01*
Y-29233D01*
X-21075D01*
Y-29173D01*
X-20954D01*
Y-29112D01*
X-20893D01*
Y-29051D01*
X-20771D01*
Y-28990D01*
X-20710D01*
Y-28929D01*
X-20588D01*
Y-28868D01*
X-20467D01*
Y-28807D01*
X-20345D01*
Y-28746D01*
X-20223D01*
Y-28686D01*
X-20101D01*
Y-28625D01*
X-19919D01*
Y-28564D01*
X-19675D01*
Y-28503D01*
X-19371D01*
Y-28442D01*
X-18396D01*
Y-28503D01*
D02*
G37*
G36*
X-8229Y-34409D02*
Y-34469D01*
Y-34530D01*
Y-34591D01*
X-8290D01*
Y-34652D01*
Y-34713D01*
X-8351D01*
Y-34774D01*
Y-34835D01*
X-8412D01*
Y-34896D01*
Y-34956D01*
X-8473D01*
Y-35017D01*
X-8534D01*
Y-35078D01*
X-8594D01*
Y-35139D01*
Y-35200D01*
X-8655D01*
Y-35261D01*
X-8716D01*
Y-35322D01*
X-8777D01*
Y-35383D01*
X-8838D01*
Y-35443D01*
X-8899D01*
Y-35504D01*
X-8960D01*
Y-35565D01*
X-9081D01*
Y-35626D01*
X-9142D01*
Y-35687D01*
X-9203D01*
Y-35748D01*
X-9325D01*
Y-35809D01*
X-9386D01*
Y-35870D01*
X-9508D01*
Y-35931D01*
X-9629D01*
Y-35991D01*
X-9751D01*
Y-36052D01*
X-9873D01*
Y-36113D01*
X-9995D01*
Y-36174D01*
X-10116D01*
Y-36235D01*
X-10299D01*
Y-36296D01*
X-10482D01*
Y-36357D01*
X-10604D01*
Y-36418D01*
X-10847D01*
Y-36478D01*
X-11091D01*
Y-36539D01*
X-11334D01*
Y-36600D01*
X-11638D01*
Y-36661D01*
X-12065D01*
Y-36722D01*
X-13404D01*
Y-36661D01*
X-13769D01*
Y-36600D01*
X-14013D01*
Y-36539D01*
X-14196D01*
Y-36478D01*
X-14378D01*
Y-36418D01*
X-14500D01*
Y-36357D01*
X-14622D01*
Y-36296D01*
X-14865D01*
Y-36357D01*
Y-36418D01*
X-14926D01*
Y-36478D01*
X-14987D01*
Y-36539D01*
X-15048D01*
Y-36478D01*
X-15109D01*
Y-36418D01*
Y-36357D01*
Y-36296D01*
Y-36235D01*
Y-36174D01*
Y-36113D01*
X-15048D01*
Y-36052D01*
Y-35991D01*
X-14987D01*
Y-35931D01*
X-14865D01*
Y-35870D01*
X-14804D01*
Y-35809D01*
X-14500D01*
Y-35870D01*
Y-35931D01*
X-14561D01*
Y-35991D01*
Y-36052D01*
X-14500D01*
Y-36113D01*
X-14439D01*
Y-36174D01*
X-14256D01*
Y-36235D01*
X-14135D01*
Y-36296D01*
X-13952D01*
Y-36357D01*
X-13709D01*
Y-36418D01*
X-13343D01*
Y-36478D01*
X-12065D01*
Y-36418D01*
X-11638D01*
Y-36357D01*
X-11395D01*
Y-36296D01*
X-11151D01*
Y-36235D01*
X-10908D01*
Y-36174D01*
X-10786D01*
Y-36113D01*
X-10604D01*
Y-36052D01*
X-10421D01*
Y-35991D01*
X-10238D01*
Y-35931D01*
X-10116D01*
Y-35870D01*
X-9995D01*
Y-35809D01*
X-9873D01*
Y-35748D01*
X-9751D01*
Y-35687D01*
X-9629D01*
Y-35626D01*
X-9568D01*
Y-35565D01*
X-9447D01*
Y-35504D01*
X-9325D01*
Y-35443D01*
X-9264D01*
Y-35383D01*
X-9203D01*
Y-35322D01*
X-9081D01*
Y-35261D01*
X-9020D01*
Y-35200D01*
X-8960D01*
Y-35139D01*
X-8899D01*
Y-35078D01*
X-8838D01*
Y-35017D01*
X-8777D01*
Y-34956D01*
X-8716D01*
Y-34896D01*
X-8655D01*
Y-34835D01*
X-8594D01*
Y-34774D01*
X-8534D01*
Y-34713D01*
X-8473D01*
Y-34652D01*
Y-34591D01*
X-8412D01*
Y-34530D01*
X-8351D01*
Y-34469D01*
Y-34409D01*
X-8290D01*
Y-34348D01*
X-8229D01*
Y-34409D01*
D02*
G37*
G36*
X-9934Y-37453D02*
Y-37514D01*
X-9995D01*
Y-37574D01*
X-10056D01*
Y-37635D01*
X-10116D01*
Y-37696D01*
X-10177D01*
Y-37757D01*
X-10238D01*
Y-37818D01*
X-10360D01*
Y-37879D01*
X-10543D01*
Y-37940D01*
X-10908D01*
Y-37879D01*
X-11030D01*
Y-37818D01*
X-11151D01*
Y-37757D01*
X-11212D01*
Y-37696D01*
X-10725D01*
Y-37635D01*
X-10421D01*
Y-37574D01*
X-10299D01*
Y-37514D01*
X-10116D01*
Y-37453D01*
X-9995D01*
Y-37392D01*
X-9934D01*
Y-37453D01*
D02*
G37*
%LPC*%
G36*
X-9020Y-26250D02*
X-9081D01*
Y-26311D01*
Y-26372D01*
Y-26433D01*
X-9020D01*
Y-26372D01*
Y-26311D01*
Y-26250D01*
D02*
G37*
G36*
X-9203Y-26737D02*
X-9264D01*
Y-26798D01*
Y-26859D01*
Y-26920D01*
X-9203D01*
Y-26859D01*
Y-26798D01*
Y-26737D01*
D02*
G37*
G36*
X-6402Y-26128D02*
X-6585D01*
Y-26189D01*
X-6768D01*
Y-26250D01*
X-6890D01*
Y-26311D01*
X-6950D01*
Y-26372D01*
Y-26433D01*
Y-26494D01*
X-7011D01*
Y-26555D01*
Y-26615D01*
Y-26676D01*
Y-26737D01*
Y-26798D01*
X-6950D01*
Y-26859D01*
Y-26920D01*
X-6890D01*
Y-26981D01*
X-6829D01*
Y-27042D01*
X-6768D01*
Y-27103D01*
X-6585D01*
Y-27163D01*
X-6463D01*
Y-27103D01*
X-6281D01*
Y-27042D01*
X-6220D01*
Y-26981D01*
X-6159D01*
Y-26920D01*
X-6098D01*
Y-26859D01*
X-6037D01*
Y-26798D01*
X-5976D01*
Y-26737D01*
Y-26676D01*
Y-26615D01*
Y-26555D01*
X-6037D01*
Y-26494D01*
Y-26433D01*
X-6098D01*
Y-26372D01*
Y-26311D01*
X-6159D01*
Y-26250D01*
X-6281D01*
Y-26189D01*
X-6402D01*
Y-26128D01*
D02*
G37*
G36*
X-6281Y-24667D02*
X-6768D01*
Y-24728D01*
X-7072D01*
Y-24789D01*
X-7316D01*
Y-24850D01*
X-7498D01*
Y-24911D01*
X-7681D01*
Y-24972D01*
X-7803D01*
Y-25032D01*
X-7925D01*
Y-25093D01*
X-7986D01*
Y-25154D01*
X-8107D01*
Y-25215D01*
X-8229D01*
Y-25276D01*
X-8290D01*
Y-25337D01*
X-8351D01*
Y-25398D01*
X-8412D01*
Y-25459D01*
X-8473D01*
Y-25520D01*
X-8534D01*
Y-25580D01*
X-8594D01*
Y-25641D01*
X-8655D01*
Y-25702D01*
X-8716D01*
Y-25763D01*
X-8777D01*
Y-25824D01*
X-8838D01*
Y-25885D01*
Y-25946D01*
X-8899D01*
Y-26007D01*
X-8960D01*
Y-26068D01*
Y-26128D01*
X-9020D01*
Y-26189D01*
Y-26250D01*
X-8960D01*
Y-26189D01*
X-8899D01*
Y-26128D01*
X-8838D01*
Y-26068D01*
X-8777D01*
Y-26007D01*
Y-25946D01*
X-8716D01*
Y-25885D01*
X-8655D01*
Y-25824D01*
X-8594D01*
Y-25763D01*
X-8534D01*
Y-25702D01*
X-8412D01*
Y-25641D01*
X-8351D01*
Y-25580D01*
X-8290D01*
Y-25520D01*
X-8168D01*
Y-25459D01*
X-8046D01*
Y-25398D01*
X-7986D01*
Y-25337D01*
X-7864D01*
Y-25276D01*
X-7681D01*
Y-25215D01*
X-7498D01*
Y-25154D01*
X-7011D01*
Y-25093D01*
X-6707D01*
Y-25154D01*
X-6342D01*
Y-25215D01*
X-6098D01*
Y-25276D01*
X-5915D01*
Y-25337D01*
X-5794D01*
Y-25398D01*
X-5672D01*
Y-25459D01*
X-5550D01*
Y-25520D01*
X-5489D01*
Y-25580D01*
X-5428D01*
Y-25641D01*
X-5307D01*
Y-25702D01*
X-5246D01*
Y-25763D01*
X-5185D01*
Y-25824D01*
X-5124D01*
Y-25885D01*
X-5063D01*
Y-25946D01*
X-5002D01*
Y-26007D01*
Y-26068D01*
X-4941D01*
Y-26128D01*
X-4880D01*
Y-26189D01*
X-4820D01*
Y-26250D01*
Y-26311D01*
X-4759D01*
Y-26372D01*
Y-26433D01*
X-4698D01*
Y-26494D01*
Y-26555D01*
X-4637D01*
Y-26615D01*
Y-26676D01*
Y-26737D01*
X-4576D01*
Y-26798D01*
Y-26859D01*
Y-26920D01*
X-4515D01*
Y-26981D01*
Y-27042D01*
Y-27103D01*
Y-27163D01*
Y-27224D01*
Y-27285D01*
Y-27346D01*
Y-27407D01*
Y-27468D01*
Y-27529D01*
Y-27590D01*
Y-27650D01*
Y-27711D01*
Y-27772D01*
Y-27833D01*
Y-27894D01*
Y-27955D01*
X-4576D01*
Y-28016D01*
Y-28077D01*
Y-28137D01*
X-4637D01*
Y-28198D01*
Y-28259D01*
X-4698D01*
Y-28320D01*
Y-28381D01*
Y-28442D01*
X-4759D01*
Y-28503D01*
Y-28564D01*
X-4576D01*
Y-28503D01*
X-4454D01*
Y-28442D01*
X-4393D01*
Y-28381D01*
X-4272D01*
Y-28320D01*
X-4150D01*
Y-28259D01*
X-4028D01*
Y-28198D01*
X-3967D01*
Y-28137D01*
X-3845D01*
Y-28077D01*
X-3785D01*
Y-28016D01*
Y-27955D01*
X-3724D01*
Y-27894D01*
Y-27833D01*
Y-27772D01*
Y-27711D01*
Y-27650D01*
Y-27590D01*
Y-27529D01*
Y-27468D01*
Y-27407D01*
Y-27346D01*
Y-27285D01*
Y-27224D01*
Y-27163D01*
Y-27103D01*
Y-27042D01*
X-3785D01*
Y-26981D01*
Y-26920D01*
Y-26859D01*
Y-26798D01*
Y-26737D01*
X-3845D01*
Y-26676D01*
Y-26615D01*
Y-26555D01*
X-3906D01*
Y-26494D01*
Y-26433D01*
Y-26372D01*
X-3967D01*
Y-26311D01*
Y-26250D01*
X-4028D01*
Y-26189D01*
X-4089D01*
Y-26128D01*
Y-26068D01*
X-4150D01*
Y-26007D01*
Y-25946D01*
X-4211D01*
Y-25885D01*
X-4272D01*
Y-25824D01*
X-4332D01*
Y-25763D01*
X-4393D01*
Y-25702D01*
X-4454D01*
Y-25641D01*
X-4515D01*
Y-25580D01*
X-4576D01*
Y-25520D01*
X-4637D01*
Y-25459D01*
X-4698D01*
Y-25398D01*
X-4759D01*
Y-25337D01*
X-4820D01*
Y-25276D01*
X-4941D01*
Y-25215D01*
X-5002D01*
Y-25154D01*
X-5124D01*
Y-25093D01*
X-5185D01*
Y-25032D01*
X-5307D01*
Y-24972D01*
X-5428D01*
Y-24911D01*
X-5550D01*
Y-24850D01*
X-5733D01*
Y-24789D01*
X-5976D01*
Y-24728D01*
X-6281D01*
Y-24667D01*
D02*
G37*
G36*
X-9325Y-27042D02*
X-9386D01*
Y-27103D01*
Y-27163D01*
Y-27224D01*
Y-27285D01*
Y-27346D01*
Y-27407D01*
Y-27468D01*
Y-27529D01*
X-9447D01*
Y-27590D01*
Y-27650D01*
Y-27711D01*
Y-27772D01*
Y-27833D01*
Y-27894D01*
Y-27955D01*
Y-28016D01*
Y-28077D01*
Y-28137D01*
Y-28198D01*
X-9386D01*
Y-28259D01*
Y-28320D01*
Y-28381D01*
Y-28442D01*
Y-28503D01*
Y-28564D01*
Y-28625D01*
X-9325D01*
Y-28686D01*
Y-28746D01*
Y-28807D01*
Y-28868D01*
X-9264D01*
Y-28929D01*
Y-28990D01*
Y-29051D01*
X-9203D01*
Y-29112D01*
Y-29173D01*
Y-29233D01*
X-9142D01*
Y-29294D01*
Y-29355D01*
X-9081D01*
Y-29416D01*
X-9020D01*
Y-29477D01*
X-8960D01*
Y-29538D01*
Y-29599D01*
X-8838D01*
Y-29660D01*
X-8777D01*
Y-29721D01*
X-8412D01*
Y-29660D01*
X-7986D01*
Y-29599D01*
Y-29538D01*
X-8046D01*
Y-29477D01*
X-8168D01*
Y-29416D01*
X-8229D01*
Y-29355D01*
X-8351D01*
Y-29294D01*
X-8412D01*
Y-29233D01*
X-8473D01*
Y-29173D01*
X-8534D01*
Y-29112D01*
X-8655D01*
Y-29051D01*
X-8716D01*
Y-28990D01*
Y-28929D01*
X-8777D01*
Y-28868D01*
X-8838D01*
Y-28807D01*
X-8899D01*
Y-28746D01*
Y-28686D01*
X-8960D01*
Y-28625D01*
X-9020D01*
Y-28564D01*
Y-28503D01*
X-9081D01*
Y-28442D01*
Y-28381D01*
X-9142D01*
Y-28320D01*
Y-28259D01*
Y-28198D01*
X-9203D01*
Y-28137D01*
Y-28077D01*
Y-28016D01*
X-9264D01*
Y-27955D01*
Y-27894D01*
Y-27833D01*
Y-27772D01*
Y-27711D01*
Y-27650D01*
Y-27590D01*
X-9325D01*
Y-27529D01*
Y-27468D01*
Y-27407D01*
Y-27346D01*
Y-27285D01*
Y-27224D01*
Y-27163D01*
Y-27103D01*
Y-27042D01*
D02*
G37*
G36*
X-18336Y-30025D02*
X-18396D01*
Y-30086D01*
X-18579D01*
Y-30147D01*
X-18701D01*
Y-30207D01*
X-18762D01*
Y-30268D01*
X-18823D01*
Y-30329D01*
Y-30390D01*
Y-30451D01*
X-18884D01*
Y-30512D01*
Y-30573D01*
Y-30634D01*
Y-30695D01*
X-18823D01*
Y-30755D01*
Y-30816D01*
Y-30877D01*
X-18762D01*
Y-30938D01*
X-18701D01*
Y-30999D01*
X-18579D01*
Y-31060D01*
X-18153D01*
Y-30999D01*
X-18031D01*
Y-30938D01*
X-17970D01*
Y-30877D01*
X-17910D01*
Y-30816D01*
X-17849D01*
Y-30755D01*
Y-30695D01*
Y-30634D01*
Y-30573D01*
Y-30512D01*
Y-30451D01*
Y-30390D01*
X-17910D01*
Y-30329D01*
Y-30268D01*
X-17970D01*
Y-30207D01*
X-18031D01*
Y-30147D01*
X-18214D01*
Y-30086D01*
X-18336D01*
Y-30025D01*
D02*
G37*
G36*
X-18275Y-28746D02*
X-19310D01*
Y-28807D01*
X-19553D01*
Y-28868D01*
X-19797D01*
Y-28929D01*
X-19919D01*
Y-28990D01*
X-20101D01*
Y-29051D01*
X-20223D01*
Y-29112D01*
X-20345D01*
Y-29173D01*
X-20467D01*
Y-29233D01*
X-20527D01*
Y-29294D01*
X-20649D01*
Y-29355D01*
X-20771D01*
Y-29416D01*
X-20832D01*
Y-29477D01*
X-20893D01*
Y-29538D01*
X-20954D01*
Y-29599D01*
X-21014D01*
Y-29660D01*
X-21136D01*
Y-29721D01*
X-21197D01*
Y-29781D01*
Y-29842D01*
X-21258D01*
Y-29903D01*
X-21319D01*
Y-29964D01*
X-21380D01*
Y-30025D01*
X-21441D01*
Y-30086D01*
X-21502D01*
Y-30147D01*
Y-30207D01*
X-21562D01*
Y-30268D01*
Y-30329D01*
X-21623D01*
Y-30390D01*
Y-30451D01*
X-21684D01*
Y-30512D01*
Y-30573D01*
X-21745D01*
Y-30634D01*
Y-30695D01*
Y-30755D01*
X-21806D01*
Y-30816D01*
Y-30877D01*
Y-30938D01*
X-21867D01*
Y-30999D01*
Y-31060D01*
Y-31121D01*
Y-31182D01*
Y-31243D01*
Y-31303D01*
Y-31364D01*
Y-31425D01*
X-21928D01*
Y-31486D01*
Y-31547D01*
Y-31608D01*
Y-31669D01*
Y-31730D01*
Y-31791D01*
Y-31851D01*
X-21867D01*
Y-31912D01*
Y-31973D01*
Y-32034D01*
Y-32095D01*
Y-32156D01*
Y-32217D01*
Y-32278D01*
Y-32339D01*
X-21806D01*
Y-32399D01*
Y-32460D01*
Y-32521D01*
X-21745D01*
Y-32582D01*
Y-32643D01*
Y-32704D01*
Y-32765D01*
X-21684D01*
Y-32825D01*
Y-32886D01*
X-21623D01*
Y-32947D01*
Y-33008D01*
X-21562D01*
Y-33069D01*
Y-33130D01*
X-21502D01*
Y-33191D01*
X-21441D01*
Y-33252D01*
Y-33313D01*
X-21380D01*
Y-33373D01*
Y-33434D01*
X-21319D01*
Y-33495D01*
X-21258D01*
Y-33556D01*
X-21197D01*
Y-33617D01*
X-21136D01*
Y-33678D01*
X-20162D01*
Y-33617D01*
X-20040D01*
Y-33556D01*
Y-33495D01*
X-20162D01*
Y-33434D01*
X-20223D01*
Y-33373D01*
X-20345D01*
Y-33313D01*
X-20406D01*
Y-33252D01*
X-20467D01*
Y-33191D01*
X-20527D01*
Y-33130D01*
X-20649D01*
Y-33069D01*
X-20710D01*
Y-33008D01*
Y-32947D01*
X-20771D01*
Y-32886D01*
X-20832D01*
Y-32825D01*
X-20893D01*
Y-32765D01*
X-20954D01*
Y-32704D01*
Y-32643D01*
X-21014D01*
Y-32582D01*
Y-32521D01*
X-21075D01*
Y-32460D01*
X-21136D01*
Y-32399D01*
Y-32339D01*
Y-32278D01*
X-21197D01*
Y-32217D01*
Y-32156D01*
X-21258D01*
Y-32095D01*
Y-32034D01*
Y-31973D01*
Y-31912D01*
X-21319D01*
Y-31851D01*
Y-31791D01*
Y-31730D01*
Y-31669D01*
Y-31608D01*
Y-31547D01*
Y-31486D01*
Y-31425D01*
Y-31364D01*
Y-31303D01*
Y-31243D01*
Y-31182D01*
Y-31121D01*
Y-31060D01*
Y-30999D01*
Y-30938D01*
Y-30877D01*
X-21258D01*
Y-30816D01*
Y-30755D01*
Y-30695D01*
Y-30634D01*
X-21197D01*
Y-30573D01*
Y-30512D01*
X-21136D01*
Y-30451D01*
Y-30390D01*
Y-30329D01*
X-21075D01*
Y-30268D01*
X-21014D01*
Y-30207D01*
Y-30147D01*
X-20954D01*
Y-30086D01*
X-20893D01*
Y-30025D01*
Y-29964D01*
X-20832D01*
Y-29903D01*
X-20771D01*
Y-29842D01*
X-20710D01*
Y-29781D01*
X-20649D01*
Y-29721D01*
X-20588D01*
Y-29660D01*
X-20527D01*
Y-29599D01*
X-20467D01*
Y-29538D01*
X-20345D01*
Y-29477D01*
X-20284D01*
Y-29416D01*
X-20223D01*
Y-29355D01*
X-20101D01*
Y-29294D01*
X-19979D01*
Y-29233D01*
X-19858D01*
Y-29173D01*
X-19675D01*
Y-29112D01*
X-19432D01*
Y-29051D01*
X-19127D01*
Y-28990D01*
X-18518D01*
Y-29051D01*
X-18275D01*
Y-29112D01*
X-18031D01*
Y-29173D01*
X-17849D01*
Y-29233D01*
X-17727D01*
Y-29294D01*
X-17605D01*
Y-29355D01*
X-17483D01*
Y-29416D01*
X-17422D01*
Y-29477D01*
X-17301D01*
Y-29538D01*
X-17240D01*
Y-29599D01*
X-17179D01*
Y-29660D01*
X-17118D01*
Y-29721D01*
X-17057D01*
Y-29781D01*
X-16996D01*
Y-29842D01*
X-16935D01*
Y-29903D01*
X-16874D01*
Y-29964D01*
X-16814D01*
Y-30025D01*
X-16753D01*
Y-30086D01*
Y-30147D01*
X-16692D01*
Y-30207D01*
Y-30268D01*
X-16631D01*
Y-30329D01*
X-16570D01*
Y-30390D01*
Y-30451D01*
X-16509D01*
Y-30512D01*
Y-30573D01*
Y-30634D01*
X-16448D01*
Y-30695D01*
Y-30755D01*
Y-30816D01*
X-16387D01*
Y-30877D01*
Y-30938D01*
Y-30999D01*
Y-31060D01*
Y-31121D01*
Y-31182D01*
X-16327D01*
Y-31243D01*
Y-31303D01*
Y-31364D01*
Y-31425D01*
Y-31486D01*
Y-31547D01*
Y-31608D01*
X-16387D01*
Y-31669D01*
Y-31730D01*
Y-31791D01*
Y-31851D01*
Y-31912D01*
Y-31973D01*
X-16448D01*
Y-32034D01*
Y-32095D01*
Y-32156D01*
X-16509D01*
Y-32217D01*
Y-32278D01*
Y-32339D01*
Y-32399D01*
X-16387D01*
Y-32339D01*
X-16266D01*
Y-32278D01*
X-16205D01*
Y-32217D01*
X-16083D01*
Y-32156D01*
X-16022D01*
Y-32095D01*
X-15900D01*
Y-32034D01*
X-15839D01*
Y-31973D01*
X-15718D01*
Y-31912D01*
X-15657D01*
Y-31851D01*
X-15596D01*
Y-31791D01*
Y-31730D01*
Y-31669D01*
X-15535D01*
Y-31608D01*
Y-31547D01*
Y-31486D01*
X-15596D01*
Y-31425D01*
Y-31364D01*
Y-31303D01*
X-15657D01*
Y-31243D01*
Y-31182D01*
Y-31121D01*
X-15718D01*
Y-31060D01*
Y-30999D01*
Y-30938D01*
X-15779D01*
Y-30877D01*
Y-30816D01*
X-15839D01*
Y-30755D01*
Y-30695D01*
X-15900D01*
Y-30634D01*
Y-30573D01*
X-15961D01*
Y-30512D01*
Y-30451D01*
X-16022D01*
Y-30390D01*
Y-30329D01*
X-16083D01*
Y-30268D01*
X-16144D01*
Y-30207D01*
Y-30147D01*
X-16205D01*
Y-30086D01*
X-16266D01*
Y-30025D01*
X-16327D01*
Y-29964D01*
Y-29903D01*
X-16387D01*
Y-29842D01*
X-16448D01*
Y-29781D01*
X-16509D01*
Y-29721D01*
X-16570D01*
Y-29660D01*
X-16631D01*
Y-29599D01*
X-16692D01*
Y-29538D01*
X-16753D01*
Y-29477D01*
X-16814D01*
Y-29416D01*
X-16874D01*
Y-29355D01*
X-16996D01*
Y-29294D01*
X-17057D01*
Y-29233D01*
X-17179D01*
Y-29173D01*
X-17301D01*
Y-29112D01*
X-17361D01*
Y-29051D01*
X-17483D01*
Y-28990D01*
X-17666D01*
Y-28929D01*
X-17788D01*
Y-28868D01*
X-18031D01*
Y-28807D01*
X-18275D01*
Y-28746D01*
D02*
G37*
%LPD*%
D14*
X47882Y140927D02*
X48051Y141265D01*
X48388Y141602D01*
X48726Y141771D01*
X49400D01*
X49738Y141602D01*
X50075Y141265D01*
X50244Y140927D01*
X50413Y140421D01*
Y139578D01*
X50244Y139072D01*
X50075Y138734D01*
X49738Y138397D01*
X49400Y138228D01*
X48726D01*
X48388Y138397D01*
X48051Y138734D01*
X47882Y139072D01*
Y139578D01*
X48726D02*
X47882D01*
X47073Y141771D02*
Y138228D01*
Y141771D02*
X44711Y138228D01*
Y141771D02*
Y138228D01*
X43733Y141771D02*
Y138228D01*
Y141771D02*
X42552D01*
X42046Y141602D01*
X41708Y141265D01*
X41539Y140927D01*
X41371Y140421D01*
Y139578D01*
X41539Y139072D01*
X41708Y138734D01*
X42046Y138397D01*
X42552Y138228D01*
X43733D01*
X-45628Y674D02*
Y-2362D01*
X-44110Y-844D02*
X-47146D01*
X-48529Y1180D02*
X-50385D01*
X-49373Y-169D01*
X-49879D01*
X-50216Y-338D01*
X-50385Y-507D01*
X-50554Y-1013D01*
Y-1350D01*
X-50385Y-1856D01*
X-50048Y-2193D01*
X-49542Y-2362D01*
X-49036D01*
X-48529Y-2193D01*
X-48361Y-2025D01*
X-48192Y-1688D01*
X-51347Y1180D02*
X-52696Y-2362D01*
X-54046Y1180D02*
X-52696Y-2362D01*
X-54839Y1180D02*
X-56694D01*
X-55682Y-169D01*
X-56188D01*
X-56526Y-338D01*
X-56694Y-507D01*
X-56863Y-1013D01*
Y-1350D01*
X-56694Y-1856D01*
X-56357Y-2193D01*
X-55851Y-2362D01*
X-55345D01*
X-54839Y-2193D01*
X-54670Y-2025D01*
X-54501Y-1688D01*
X47882Y91560D02*
X48051Y91897D01*
X48388Y92235D01*
X48726Y92404D01*
X49400D01*
X49738Y92235D01*
X50075Y91897D01*
X50244Y91560D01*
X50413Y91054D01*
Y90211D01*
X50244Y89705D01*
X50075Y89367D01*
X49738Y89030D01*
X49400Y88861D01*
X48726D01*
X48388Y89030D01*
X48051Y89367D01*
X47882Y89705D01*
Y90211D01*
X48726D02*
X47882D01*
X47073Y92404D02*
Y88861D01*
Y92404D02*
X44711Y88861D01*
Y92404D02*
Y88861D01*
X43733Y92404D02*
Y88861D01*
Y92404D02*
X42552D01*
X42046Y92235D01*
X41708Y91897D01*
X41539Y91560D01*
X41371Y91054D01*
Y90211D01*
X41539Y89705D01*
X41708Y89367D01*
X42046Y89030D01*
X42552Y88861D01*
X43733D01*
X58915Y2839D02*
Y-197D01*
X60433Y1321D02*
X57397D01*
X56013Y3345D02*
X54158D01*
X55170Y1996D01*
X54664D01*
X54326Y1827D01*
X54158Y1658D01*
X53989Y1152D01*
Y815D01*
X54158Y309D01*
X54495Y-28D01*
X55001Y-197D01*
X55507D01*
X56013Y-28D01*
X56182Y140D01*
X56351Y478D01*
X53196Y3345D02*
X51847Y-197D01*
X50497Y3345D02*
X51847Y-197D01*
X49704Y3345D02*
X47849D01*
X48861Y1996D01*
X48355D01*
X48017Y1827D01*
X47849Y1658D01*
X47680Y1152D01*
Y815D01*
X47849Y309D01*
X48186Y-28D01*
X48692Y-197D01*
X49198D01*
X49704Y-28D01*
X49873Y140D01*
X50042Y478D01*
X46887Y-1378D02*
X44188D01*
X41371Y2839D02*
X41708Y3177D01*
X42214Y3345D01*
X42889D01*
X43395Y3177D01*
X43733Y2839D01*
Y2502D01*
X43564Y2165D01*
X43395Y1996D01*
X43058Y1827D01*
X42046Y1490D01*
X41708Y1321D01*
X41539Y1152D01*
X41371Y815D01*
Y309D01*
X41708Y-28D01*
X42214Y-197D01*
X42889D01*
X43395Y-28D01*
X43733Y309D01*
X47882Y42193D02*
X48051Y42530D01*
X48388Y42868D01*
X48726Y43036D01*
X49400D01*
X49738Y42868D01*
X50075Y42530D01*
X50244Y42193D01*
X50413Y41687D01*
Y40843D01*
X50244Y40337D01*
X50075Y40000D01*
X49738Y39663D01*
X49400Y39494D01*
X48726D01*
X48388Y39663D01*
X48051Y40000D01*
X47882Y40337D01*
Y40843D01*
X48726D02*
X47882D01*
X47073Y43036D02*
Y39494D01*
Y43036D02*
X44711Y39494D01*
Y43036D02*
Y39494D01*
X43733Y43036D02*
Y39494D01*
Y43036D02*
X42552D01*
X42046Y42868D01*
X41708Y42530D01*
X41539Y42193D01*
X41371Y41687D01*
Y40843D01*
X41539Y40337D01*
X41708Y40000D01*
X42046Y39663D01*
X42552Y39494D01*
X43733D01*
X-46640Y140927D02*
X-46472Y141265D01*
X-46134Y141602D01*
X-45797Y141771D01*
X-45122D01*
X-44785Y141602D01*
X-44447Y141265D01*
X-44278Y140927D01*
X-44110Y140421D01*
Y139578D01*
X-44278Y139072D01*
X-44447Y138734D01*
X-44785Y138397D01*
X-45122Y138228D01*
X-45797D01*
X-46134Y138397D01*
X-46472Y138734D01*
X-46640Y139072D01*
Y139578D01*
X-45797D02*
X-46640D01*
X-47450Y141771D02*
Y138228D01*
Y141771D02*
X-49812Y138228D01*
Y141771D02*
Y138228D01*
X-50790Y141771D02*
Y138228D01*
Y141771D02*
X-51971D01*
X-52477Y141602D01*
X-52814Y141265D01*
X-52983Y140927D01*
X-53152Y140421D01*
Y139578D01*
X-52983Y139072D01*
X-52814Y138734D01*
X-52477Y138397D01*
X-51971Y138228D01*
X-50790D01*
X-46640Y90716D02*
X-46472Y91054D01*
X-46134Y91391D01*
X-45797Y91560D01*
X-45122D01*
X-44785Y91391D01*
X-44447Y91054D01*
X-44278Y90716D01*
X-44110Y90210D01*
Y89367D01*
X-44278Y88861D01*
X-44447Y88524D01*
X-44785Y88186D01*
X-45122Y88017D01*
X-45797D01*
X-46134Y88186D01*
X-46472Y88524D01*
X-46640Y88861D01*
Y89367D01*
X-45797D02*
X-46640D01*
X-47450Y91560D02*
Y88017D01*
Y91560D02*
X-49812Y88017D01*
Y91560D02*
Y88017D01*
X-50790Y91560D02*
Y88017D01*
Y91560D02*
X-51971D01*
X-52477Y91391D01*
X-52814Y91054D01*
X-52983Y90716D01*
X-53152Y90210D01*
Y89367D01*
X-52983Y88861D01*
X-52814Y88524D01*
X-52477Y88186D01*
X-51971Y88017D01*
X-50790D01*
X-46640Y40506D02*
X-46472Y40843D01*
X-46134Y41180D01*
X-45797Y41349D01*
X-45122D01*
X-44785Y41180D01*
X-44447Y40843D01*
X-44278Y40506D01*
X-44110Y39999D01*
Y39156D01*
X-44278Y38650D01*
X-44447Y38313D01*
X-44785Y37975D01*
X-45122Y37806D01*
X-45797D01*
X-46134Y37975D01*
X-46472Y38313D01*
X-46640Y38650D01*
Y39156D01*
X-45797D02*
X-46640D01*
X-47450Y41349D02*
Y37806D01*
Y41349D02*
X-49812Y37806D01*
Y41349D02*
Y37806D01*
X-50790Y41349D02*
Y37806D01*
Y41349D02*
X-51971D01*
X-52477Y41180D01*
X-52814Y40843D01*
X-52983Y40506D01*
X-53152Y39999D01*
Y39156D01*
X-52983Y38650D01*
X-52814Y38313D01*
X-52477Y37975D01*
X-51971Y37806D01*
X-50790D01*
X-32087Y10152D02*
X-33605D01*
X-34111Y10320D01*
X-34280Y10489D01*
X-34448Y10826D01*
Y11332D01*
X-34280Y11670D01*
X-34111Y11838D01*
X-33605Y12007D01*
X-32087D01*
Y8465D01*
X-37940D02*
X-36591Y12007D01*
X-35241Y8465D01*
X-35747Y9645D02*
X-37434D01*
X-38767Y11332D02*
X-39104Y11501D01*
X-39610Y12007D01*
Y8465D01*
X-41365Y11332D02*
X-41702Y11501D01*
X-42208Y12007D01*
Y8465D01*
X-32087Y18025D02*
X-33605D01*
X-34111Y18194D01*
X-34280Y18363D01*
X-34448Y18700D01*
Y19206D01*
X-34280Y19544D01*
X-34111Y19712D01*
X-33605Y19881D01*
X-32087D01*
Y16339D01*
X-37940D02*
X-36591Y19881D01*
X-35241Y16339D01*
X-35747Y17519D02*
X-37434D01*
X-38767Y19206D02*
X-39104Y19375D01*
X-39610Y19881D01*
Y16339D01*
X-41533Y19038D02*
Y19206D01*
X-41702Y19544D01*
X-41871Y19712D01*
X-42208Y19881D01*
X-42883D01*
X-43220Y19712D01*
X-43389Y19544D01*
X-43558Y19206D01*
Y18869D01*
X-43389Y18532D01*
X-43052Y18025D01*
X-41365Y16339D01*
X-43726D01*
X-44110Y29451D02*
X-45628D01*
X-46134Y29620D01*
X-46303Y29789D01*
X-46472Y30126D01*
Y30632D01*
X-46303Y30970D01*
X-46134Y31138D01*
X-45628Y31307D01*
X-44110D01*
Y27764D01*
X-49963D02*
X-48614Y31307D01*
X-47264Y27764D01*
X-47770Y28945D02*
X-49457D01*
X-50790Y30632D02*
X-51127Y30801D01*
X-51634Y31307D01*
Y27764D01*
X-55075Y31307D02*
X-53388Y28945D01*
X-55918D01*
X-55075Y31307D02*
Y27764D01*
X-44110Y49536D02*
X-45628D01*
X-46134Y49704D01*
X-46303Y49873D01*
X-46472Y50210D01*
Y50717D01*
X-46303Y51054D01*
X-46134Y51222D01*
X-45628Y51391D01*
X-44110D01*
Y47849D01*
X-49963D02*
X-48614Y51391D01*
X-47264Y47849D01*
X-47770Y49029D02*
X-49457D01*
X-50790Y50717D02*
X-51127Y50885D01*
X-51634Y51391D01*
Y47849D01*
X-53725Y51391D02*
X-55581D01*
X-54569Y50042D01*
X-55075D01*
X-55412Y49873D01*
X-55581Y49704D01*
X-55750Y49198D01*
Y48861D01*
X-55581Y48355D01*
X-55243Y48017D01*
X-54737Y47849D01*
X-54231D01*
X-53725Y48017D01*
X-53557Y48186D01*
X-53388Y48524D01*
X-44110Y59578D02*
X-45628D01*
X-46134Y59746D01*
X-46303Y59915D01*
X-46472Y60253D01*
Y60759D01*
X-46303Y61096D01*
X-46134Y61265D01*
X-45628Y61433D01*
X-44110D01*
Y57891D01*
X-47264Y61433D02*
Y57891D01*
Y61433D02*
X-48783D01*
X-49289Y61265D01*
X-49457Y61096D01*
X-49626Y60759D01*
Y60421D01*
X-49457Y60084D01*
X-49289Y59915D01*
X-48783Y59746D01*
X-47264D02*
X-48783D01*
X-49289Y59578D01*
X-49457Y59409D01*
X-49626Y59072D01*
Y58566D01*
X-49457Y58228D01*
X-49289Y58060D01*
X-48783Y57891D01*
X-47264D01*
X-52443Y61433D02*
X-50756D01*
X-50588Y59915D01*
X-50756Y60084D01*
X-51262Y60253D01*
X-51768D01*
X-52275Y60084D01*
X-52612Y59746D01*
X-52781Y59240D01*
Y58903D01*
X-52612Y58397D01*
X-52275Y58060D01*
X-51768Y57891D01*
X-51262D01*
X-50756Y58060D01*
X-50588Y58228D01*
X-50419Y58566D01*
X-44110Y69620D02*
X-45628D01*
X-46134Y69789D01*
X-46303Y69957D01*
X-46472Y70295D01*
Y70801D01*
X-46303Y71138D01*
X-46134Y71307D01*
X-45628Y71476D01*
X-44110D01*
Y67933D01*
X-47264Y71476D02*
Y67933D01*
Y71476D02*
X-48783D01*
X-49289Y71307D01*
X-49457Y71138D01*
X-49626Y70801D01*
Y70463D01*
X-49457Y70126D01*
X-49289Y69957D01*
X-48783Y69789D01*
X-47264D02*
X-48783D01*
X-49289Y69620D01*
X-49457Y69451D01*
X-49626Y69114D01*
Y68608D01*
X-49457Y68270D01*
X-49289Y68102D01*
X-48783Y67933D01*
X-47264D01*
X-52443Y70969D02*
X-52275Y71307D01*
X-51768Y71476D01*
X-51431D01*
X-50925Y71307D01*
X-50588Y70801D01*
X-50419Y69957D01*
Y69114D01*
X-50588Y68439D01*
X-50925Y68102D01*
X-51431Y67933D01*
X-51600D01*
X-52106Y68102D01*
X-52443Y68439D01*
X-52612Y68945D01*
Y69114D01*
X-52443Y69620D01*
X-52106Y69957D01*
X-51600Y70126D01*
X-51431D01*
X-50925Y69957D01*
X-50588Y69620D01*
X-50419Y69114D01*
X-44110Y79662D02*
X-45628D01*
X-46134Y79831D01*
X-46303Y80000D01*
X-46472Y80337D01*
Y80843D01*
X-46303Y81180D01*
X-46134Y81349D01*
X-45628Y81518D01*
X-44110D01*
Y77975D01*
X-47264Y81518D02*
Y77975D01*
Y81518D02*
X-48783D01*
X-49289Y81349D01*
X-49457Y81180D01*
X-49626Y80843D01*
Y80506D01*
X-49457Y80168D01*
X-49289Y80000D01*
X-48783Y79831D01*
X-47264D02*
X-48783D01*
X-49289Y79662D01*
X-49457Y79493D01*
X-49626Y79156D01*
Y78650D01*
X-49457Y78313D01*
X-49289Y78144D01*
X-48783Y77975D01*
X-47264D01*
X-52781Y81518D02*
X-51094Y77975D01*
X-50419Y81518D02*
X-52781D01*
X-44110Y99747D02*
X-45628D01*
X-46134Y99915D01*
X-46303Y100084D01*
X-46472Y100421D01*
Y100927D01*
X-46303Y101265D01*
X-46134Y101433D01*
X-45628Y101602D01*
X-44110D01*
Y98060D01*
X-47264Y101602D02*
Y98060D01*
Y101602D02*
X-48783D01*
X-49289Y101433D01*
X-49457Y101265D01*
X-49626Y100927D01*
Y100590D01*
X-49457Y100253D01*
X-49289Y100084D01*
X-48783Y99915D01*
X-47264D02*
X-48783D01*
X-49289Y99747D01*
X-49457Y99578D01*
X-49626Y99240D01*
Y98734D01*
X-49457Y98397D01*
X-49289Y98228D01*
X-48783Y98060D01*
X-47264D01*
X-50588Y100759D02*
Y100927D01*
X-50756Y101265D01*
X-50925Y101433D01*
X-51262Y101602D01*
X-51937D01*
X-52275Y101433D01*
X-52443Y101265D01*
X-52612Y100927D01*
Y100590D01*
X-52443Y100253D01*
X-52106Y99747D01*
X-50419Y98060D01*
X-52781D01*
X-44110Y109789D02*
X-45628D01*
X-46134Y109957D01*
X-46303Y110126D01*
X-46472Y110464D01*
Y110969D01*
X-46303Y111307D01*
X-46134Y111476D01*
X-45628Y111644D01*
X-44110D01*
Y108102D01*
X-47264Y111644D02*
Y108102D01*
Y111644D02*
X-48783D01*
X-49289Y111476D01*
X-49457Y111307D01*
X-49626Y110969D01*
Y110632D01*
X-49457Y110295D01*
X-49289Y110126D01*
X-48783Y109957D01*
X-47264D02*
X-48783D01*
X-49289Y109789D01*
X-49457Y109620D01*
X-49626Y109283D01*
Y108776D01*
X-49457Y108439D01*
X-49289Y108271D01*
X-48783Y108102D01*
X-47264D01*
X-52612Y110464D02*
X-52443Y109957D01*
X-52106Y109620D01*
X-51600Y109451D01*
X-51431D01*
X-50925Y109620D01*
X-50588Y109957D01*
X-50419Y110464D01*
Y110632D01*
X-50588Y111138D01*
X-50925Y111476D01*
X-51431Y111644D01*
X-51600D01*
X-52106Y111476D01*
X-52443Y111138D01*
X-52612Y110464D01*
Y109620D01*
X-52443Y108776D01*
X-52106Y108271D01*
X-51600Y108102D01*
X-51262D01*
X-50756Y108271D01*
X-50588Y108608D01*
X-44110Y119831D02*
X-45628D01*
X-46134Y120000D01*
X-46303Y120168D01*
X-46472Y120506D01*
Y121012D01*
X-46303Y121349D01*
X-46134Y121518D01*
X-45628Y121686D01*
X-44110D01*
Y118144D01*
X-47264Y121686D02*
Y118144D01*
Y121686D02*
X-48783D01*
X-49289Y121518D01*
X-49457Y121349D01*
X-49626Y121012D01*
Y120674D01*
X-49457Y120337D01*
X-49289Y120168D01*
X-48783Y120000D01*
X-47264D02*
X-48783D01*
X-49289Y119831D01*
X-49457Y119662D01*
X-49626Y119325D01*
Y118819D01*
X-49457Y118481D01*
X-49289Y118313D01*
X-48783Y118144D01*
X-47264D01*
X-51262Y121686D02*
X-50756Y121518D01*
X-50588Y121180D01*
Y120843D01*
X-50756Y120506D01*
X-51094Y120337D01*
X-51768Y120168D01*
X-52275Y120000D01*
X-52612Y119662D01*
X-52781Y119325D01*
Y118819D01*
X-52612Y118481D01*
X-52443Y118313D01*
X-51937Y118144D01*
X-51262D01*
X-50756Y118313D01*
X-50588Y118481D01*
X-50419Y118819D01*
Y119325D01*
X-50588Y119662D01*
X-50925Y120000D01*
X-51431Y120168D01*
X-52106Y120337D01*
X-52443Y120506D01*
X-52612Y120843D01*
Y121180D01*
X-52443Y121518D01*
X-51937Y121686D01*
X-51262D01*
X-44110Y129873D02*
X-45628D01*
X-46134Y130042D01*
X-46303Y130210D01*
X-46472Y130548D01*
Y131054D01*
X-46303Y131391D01*
X-46134Y131560D01*
X-45628Y131729D01*
X-44110D01*
Y128186D01*
X-49963D02*
X-48614Y131729D01*
X-47264Y128186D01*
X-47770Y129367D02*
X-49457D01*
X-51802Y131729D02*
X-51296Y131560D01*
X-50959Y131054D01*
X-50790Y130210D01*
Y129704D01*
X-50959Y128861D01*
X-51296Y128355D01*
X-51802Y128186D01*
X-52140D01*
X-52646Y128355D01*
X-52983Y128861D01*
X-53152Y129704D01*
Y130210D01*
X-52983Y131054D01*
X-52646Y131560D01*
X-52140Y131729D01*
X-51802D01*
X52640Y11560D02*
X51121D01*
X50615Y11729D01*
X50446Y11898D01*
X50278Y12235D01*
Y12741D01*
X50446Y13079D01*
X50615Y13247D01*
X51121Y13416D01*
X52640D01*
Y9873D01*
X49485Y13416D02*
Y9873D01*
Y13416D02*
X47967D01*
X47461Y13247D01*
X47292Y13079D01*
X47123Y12741D01*
Y12404D01*
X47292Y12066D01*
X47461Y11898D01*
X47967Y11729D01*
X49485D02*
X47967D01*
X47461Y11560D01*
X47292Y11392D01*
X47123Y11054D01*
Y10548D01*
X47292Y10211D01*
X47461Y10042D01*
X47967Y9873D01*
X49485D01*
X46330Y12741D02*
X45993Y12910D01*
X45487Y13416D01*
Y9873D01*
X41708Y13416D02*
X43395D01*
X43564Y11898D01*
X43395Y12066D01*
X42889Y12235D01*
X42383D01*
X41877Y12066D01*
X41539Y11729D01*
X41371Y11223D01*
Y10886D01*
X41539Y10379D01*
X41877Y10042D01*
X42383Y9873D01*
X42889D01*
X43395Y10042D01*
X43564Y10211D01*
X43733Y10548D01*
X52808Y21434D02*
X51290D01*
X50784Y21602D01*
X50615Y21771D01*
X50446Y22109D01*
Y22615D01*
X50615Y22952D01*
X50784Y23121D01*
X51290Y23289D01*
X52808D01*
Y19747D01*
X49654Y23289D02*
Y19747D01*
Y23289D02*
X48135D01*
X47629Y23121D01*
X47461Y22952D01*
X47292Y22615D01*
Y22277D01*
X47461Y21940D01*
X47629Y21771D01*
X48135Y21602D01*
X49654D02*
X48135D01*
X47629Y21434D01*
X47461Y21265D01*
X47292Y20928D01*
Y20422D01*
X47461Y20084D01*
X47629Y19916D01*
X48135Y19747D01*
X49654D01*
X46499Y22615D02*
X46162Y22783D01*
X45656Y23289D01*
Y19747D01*
X42214Y23289D02*
X43901Y20928D01*
X41371D01*
X42214Y23289D02*
Y19747D01*
X52640Y31307D02*
X51121D01*
X50615Y31476D01*
X50446Y31645D01*
X50278Y31982D01*
Y32488D01*
X50446Y32825D01*
X50615Y32994D01*
X51121Y33163D01*
X52640D01*
Y29620D01*
X49485Y33163D02*
Y29620D01*
Y33163D02*
X47967D01*
X47461Y32994D01*
X47292Y32825D01*
X47123Y32488D01*
Y32151D01*
X47292Y31813D01*
X47461Y31645D01*
X47967Y31476D01*
X49485D02*
X47967D01*
X47461Y31307D01*
X47292Y31139D01*
X47123Y30801D01*
Y30295D01*
X47292Y29958D01*
X47461Y29789D01*
X47967Y29620D01*
X49485D01*
X46330Y32488D02*
X45993Y32657D01*
X45487Y33163D01*
Y29620D01*
X43395Y33163D02*
X41539D01*
X42552Y31813D01*
X42046D01*
X41708Y31645D01*
X41539Y31476D01*
X41371Y30970D01*
Y30632D01*
X41539Y30126D01*
X41877Y29789D01*
X42383Y29620D01*
X42889D01*
X43395Y29789D01*
X43564Y29958D01*
X43733Y30295D01*
X52640Y51054D02*
X51121D01*
X50615Y51223D01*
X50446Y51392D01*
X50278Y51729D01*
Y52235D01*
X50446Y52572D01*
X50615Y52741D01*
X51121Y52910D01*
X52640D01*
Y49367D01*
X49485Y52910D02*
Y49367D01*
Y52910D02*
X47967D01*
X47461Y52741D01*
X47292Y52572D01*
X47123Y52235D01*
Y51898D01*
X47292Y51560D01*
X47461Y51392D01*
X47967Y51223D01*
X49485D02*
X47967D01*
X47461Y51054D01*
X47292Y50885D01*
X47123Y50548D01*
Y50042D01*
X47292Y49705D01*
X47461Y49536D01*
X47967Y49367D01*
X49485D01*
X46330Y52235D02*
X45993Y52404D01*
X45487Y52910D01*
Y49367D01*
X43564Y52066D02*
Y52235D01*
X43395Y52572D01*
X43226Y52741D01*
X42889Y52910D01*
X42214D01*
X41877Y52741D01*
X41708Y52572D01*
X41539Y52235D01*
Y51898D01*
X41708Y51560D01*
X42046Y51054D01*
X43733Y49367D01*
X41371D01*
X53011Y60928D02*
X51492D01*
X50986Y61096D01*
X50818Y61265D01*
X50649Y61602D01*
Y62108D01*
X50818Y62446D01*
X50986Y62615D01*
X51492Y62783D01*
X53011D01*
Y59241D01*
X47157D02*
X48507Y62783D01*
X49856Y59241D01*
X49350Y60422D02*
X47663D01*
X46330Y62108D02*
X45993Y62277D01*
X45487Y62783D01*
Y59241D01*
X42720Y62783D02*
X43226Y62615D01*
X43564Y62108D01*
X43733Y61265D01*
Y60759D01*
X43564Y59916D01*
X43226Y59409D01*
X42720Y59241D01*
X42383D01*
X41877Y59409D01*
X41539Y59916D01*
X41371Y60759D01*
Y61265D01*
X41539Y62108D01*
X41877Y62615D01*
X42383Y62783D01*
X42720D01*
X50244Y70801D02*
X48726D01*
X48220Y70970D01*
X48051Y71139D01*
X47882Y71476D01*
Y71982D01*
X48051Y72319D01*
X48220Y72488D01*
X48726Y72657D01*
X50244D01*
Y69114D01*
X44390D02*
X45740Y72657D01*
X47089Y69114D01*
X46583Y70295D02*
X44896D01*
X41371Y71476D02*
X41539Y70970D01*
X41877Y70632D01*
X42383Y70464D01*
X42552D01*
X43058Y70632D01*
X43395Y70970D01*
X43564Y71476D01*
Y71645D01*
X43395Y72151D01*
X43058Y72488D01*
X42552Y72657D01*
X42383D01*
X41877Y72488D01*
X41539Y72151D01*
X41371Y71476D01*
Y70632D01*
X41539Y69789D01*
X41877Y69283D01*
X42383Y69114D01*
X42720D01*
X43226Y69283D01*
X43395Y69620D01*
X50413Y80674D02*
X48895D01*
X48388Y80843D01*
X48220Y81012D01*
X48051Y81349D01*
Y81855D01*
X48220Y82193D01*
X48388Y82362D01*
X48895Y82530D01*
X50413D01*
Y78988D01*
X44559D02*
X45909Y82530D01*
X47258Y78988D01*
X46752Y80168D02*
X45065D01*
X42889Y82530D02*
X43395Y82362D01*
X43564Y82024D01*
Y81687D01*
X43395Y81349D01*
X43058Y81181D01*
X42383Y81012D01*
X41877Y80843D01*
X41539Y80506D01*
X41371Y80168D01*
Y79662D01*
X41539Y79325D01*
X41708Y79156D01*
X42214Y78988D01*
X42889D01*
X43395Y79156D01*
X43564Y79325D01*
X43733Y79662D01*
Y80168D01*
X43564Y80506D01*
X43226Y80843D01*
X42720Y81012D01*
X42046Y81181D01*
X41708Y81349D01*
X41539Y81687D01*
Y82024D01*
X41708Y82362D01*
X42214Y82530D01*
X42889D01*
X50413Y100421D02*
X48895D01*
X48388Y100590D01*
X48220Y100759D01*
X48051Y101096D01*
Y101602D01*
X48220Y101940D01*
X48388Y102108D01*
X48895Y102277D01*
X50413D01*
Y98734D01*
X44559D02*
X45909Y102277D01*
X47258Y98734D01*
X46752Y99915D02*
X45065D01*
X41708Y102277D02*
X43395D01*
X43564Y100759D01*
X43395Y100927D01*
X42889Y101096D01*
X42383D01*
X41877Y100927D01*
X41539Y100590D01*
X41371Y100084D01*
Y99747D01*
X41539Y99241D01*
X41877Y98903D01*
X42383Y98734D01*
X42889D01*
X43395Y98903D01*
X43564Y99072D01*
X43733Y99409D01*
X50581Y110295D02*
X49063D01*
X48557Y110464D01*
X48388Y110632D01*
X48220Y110970D01*
Y111476D01*
X48388Y111813D01*
X48557Y111982D01*
X49063Y112151D01*
X50581D01*
Y108608D01*
X44728D02*
X46077Y112151D01*
X47427Y108608D01*
X46921Y109789D02*
X45234D01*
X42214Y112151D02*
X43901Y109789D01*
X41371D01*
X42214Y112151D02*
Y108608D01*
X50413Y120168D02*
X48895D01*
X48388Y120337D01*
X48220Y120506D01*
X48051Y120843D01*
Y121349D01*
X48220Y121687D01*
X48388Y121855D01*
X48895Y122024D01*
X50413D01*
Y118481D01*
X44559D02*
X45909Y122024D01*
X47258Y118481D01*
X46752Y119662D02*
X45065D01*
X43395Y122024D02*
X41539D01*
X42552Y120674D01*
X42046D01*
X41708Y120506D01*
X41539Y120337D01*
X41371Y119831D01*
Y119494D01*
X41539Y118988D01*
X41877Y118650D01*
X42383Y118481D01*
X42889D01*
X43395Y118650D01*
X43564Y118819D01*
X43733Y119156D01*
X50413Y130042D02*
X48895D01*
X48388Y130210D01*
X48220Y130379D01*
X48051Y130717D01*
Y131223D01*
X48220Y131560D01*
X48388Y131729D01*
X48895Y131897D01*
X50413D01*
Y128355D01*
X44559D02*
X45909Y131897D01*
X47258Y128355D01*
X46752Y129536D02*
X45065D01*
X43564Y131054D02*
Y131223D01*
X43395Y131560D01*
X43226Y131729D01*
X42889Y131897D01*
X42214D01*
X41877Y131729D01*
X41708Y131560D01*
X41539Y131223D01*
Y130885D01*
X41708Y130548D01*
X42046Y130042D01*
X43733Y128355D01*
X41371D01*
X-67914Y-9645D02*
Y-6103D01*
X-69685D01*
X-70276Y-6693D01*
Y-7874D01*
X-69685Y-8464D01*
X-67914D01*
X-71456Y-6693D02*
X-72047Y-6103D01*
X-73228D01*
X-73818Y-6693D01*
Y-7284D01*
X-73228Y-7874D01*
X-72637D01*
X-73228D01*
X-73818Y-8464D01*
Y-9055D01*
X-73228Y-9645D01*
X-72047D01*
X-71456Y-9055D01*
X88385Y2952D02*
X84843D01*
Y1181D01*
X85434Y590D01*
X86614D01*
X87204Y1181D01*
Y2952D01*
X88385Y-2952D02*
Y-590D01*
X86024Y-2952D01*
X85434D01*
X84843Y-2361D01*
Y-1181D01*
X85434Y-590D01*
X57677Y-19312D02*
X58858D01*
X58267D01*
Y-22264D01*
X58858Y-22854D01*
X59448D01*
X60038Y-22264D01*
X54135Y-19312D02*
X55316Y-19902D01*
X56496Y-21083D01*
Y-22264D01*
X55906Y-22854D01*
X54725D01*
X54135Y-22264D01*
Y-21673D01*
X54725Y-21083D01*
X56496D01*
X57677Y-8958D02*
X58858D01*
X58267D01*
Y-11910D01*
X58858Y-12500D01*
X59448D01*
X60038Y-11910D01*
X54135Y-8958D02*
X56496D01*
Y-10729D01*
X55316Y-10139D01*
X54725D01*
X54135Y-10729D01*
Y-11910D01*
X54725Y-12500D01*
X55906D01*
X56496Y-11910D01*
X57677Y-29725D02*
X58858D01*
X58267D01*
Y-32677D01*
X58858Y-33267D01*
X59448D01*
X60038Y-32677D01*
X54725Y-33267D02*
Y-29725D01*
X56496Y-31496D01*
X54135D01*
D15*
X65000Y-5000D02*
X74700D01*
X65000D02*
Y145000D01*
X74700D01*
Y-5000D02*
Y145000D01*
X-75000Y-5000D02*
X-65300D01*
X-75000D02*
Y145000D01*
X-65300D01*
Y-5000D02*
Y145000D01*
D40*
X77300Y139100D02*
D03*
X-62700D02*
D03*
M02*
