G04*
G04 #@! TF.GenerationSoftware,Altium Limited,Altium Designer,21.0.8 (223)*
G04*
G04 Layer_Color=255*
%FSLAX25Y25*%
%MOIN*%
G70*
G04*
G04 #@! TF.SameCoordinates,33316FA8-22EC-4851-BF61-47935A3E7C20*
G04*
G04*
G04 #@! TF.FilePolarity,Positive*
G04*
G01*
G75*
%ADD22R,0.04134X0.03937*%
%ADD25R,0.03740X0.03937*%
%ADD26C,0.03937*%
%ADD83C,0.17717*%
%ADD89R,0.09449X0.02992*%
%ADD90R,0.01000X0.01000*%
D22*
X55849Y123622D02*
D03*
X49944D02*
D03*
D25*
X52661Y104440D02*
D03*
Y98731D02*
D03*
D26*
X76378Y57480D02*
D03*
X85003Y89570D02*
D03*
X87402Y94499D02*
D03*
X82174D02*
D03*
X80074Y89570D02*
D03*
X69574D02*
D03*
X62205Y123622D02*
D03*
X74803D02*
D03*
X51968Y111024D02*
D03*
X74774Y89570D02*
D03*
X68504Y123622D02*
D03*
X71653Y133071D02*
D03*
X81890Y55118D02*
D03*
D83*
X11811Y11811D02*
D03*
D89*
X117913Y133425D02*
D03*
X102559D02*
D03*
X117913Y128425D02*
D03*
X102559D02*
D03*
X117913Y123425D02*
D03*
X102559D02*
D03*
X117913Y118425D02*
D03*
X102559D02*
D03*
X117913Y113425D02*
D03*
X102559D02*
D03*
X117913Y108425D02*
D03*
X102559D02*
D03*
X117913Y103425D02*
D03*
X102559D02*
D03*
X117913Y98425D02*
D03*
X102559D02*
D03*
X117913Y93425D02*
D03*
X102559D02*
D03*
X117913Y88425D02*
D03*
X102559D02*
D03*
X117913Y83425D02*
D03*
X102559D02*
D03*
X117913Y78425D02*
D03*
X102559D02*
D03*
X117913Y73425D02*
D03*
X102559D02*
D03*
X117913Y68425D02*
D03*
X102559D02*
D03*
X117913Y63425D02*
D03*
X102559D02*
D03*
X31299Y133425D02*
D03*
X15945D02*
D03*
X31299Y128425D02*
D03*
X15945D02*
D03*
X31299Y123425D02*
D03*
X15945D02*
D03*
X31299Y118425D02*
D03*
X15945D02*
D03*
X31299Y113425D02*
D03*
X15945D02*
D03*
X31299Y108425D02*
D03*
X15945D02*
D03*
X31299Y103425D02*
D03*
X15945D02*
D03*
X31299Y98425D02*
D03*
X15945D02*
D03*
X31299Y93425D02*
D03*
X15945D02*
D03*
X31299Y88425D02*
D03*
X15945D02*
D03*
X31299Y83425D02*
D03*
X15945D02*
D03*
X31299Y78425D02*
D03*
X15945D02*
D03*
X31299Y73425D02*
D03*
X15945D02*
D03*
X31299Y68425D02*
D03*
X15945D02*
D03*
X31299Y63425D02*
D03*
X15945D02*
D03*
D90*
X58906Y91936D02*
D03*
X52418D02*
D03*
X58381Y84055D02*
D03*
X49606D02*
D03*
X53994D02*
D03*
M02*
