G04*
G04 #@! TF.GenerationSoftware,Altium Limited,Altium Designer,21.0.8 (223)*
G04*
G04 Layer_Physical_Order=4*
G04 Layer_Color=16711680*
%FSLAX25Y25*%
%MOIN*%
G70*
G04*
G04 #@! TF.SameCoordinates,33316FA8-22EC-4851-BF61-47935A3E7C20*
G04*
G04*
G04 #@! TF.FilePolarity,Positive*
G04*
G01*
G75*
%ADD11C,0.00787*%
%ADD22R,0.04134X0.03937*%
%ADD25R,0.03740X0.03937*%
%ADD26C,0.03937*%
%ADD81C,0.00951*%
%ADD83C,0.17717*%
%ADD84C,0.02362*%
%ADD85C,0.02677*%
%ADD89R,0.09449X0.02992*%
%ADD90R,0.01000X0.01000*%
%ADD91C,0.00400*%
%ADD92C,0.03937*%
G36*
X133055Y3937D02*
Y3628D01*
X132935Y3023D01*
X132699Y2452D01*
X132356Y1939D01*
X131919Y1503D01*
X131406Y1159D01*
X130835Y923D01*
X130230Y803D01*
X3628D01*
X3023Y923D01*
X2452Y1159D01*
X1939Y1503D01*
X1503Y1939D01*
X1159Y2452D01*
X923Y3023D01*
X803Y3628D01*
Y3937D01*
Y145669D01*
X133055D01*
Y3937D01*
D02*
G37*
%LPC*%
G36*
X60274Y134379D02*
X60274Y134379D01*
X56174D01*
X56174Y134379D01*
X55864Y134318D01*
X55602Y134142D01*
X55602Y134142D01*
X53139Y131679D01*
X36524D01*
Y133031D01*
X31299D01*
X26075D01*
Y131679D01*
X24974D01*
X24664Y131618D01*
X24402Y131442D01*
X24402Y131442D01*
X22194Y129234D01*
X21069D01*
Y130321D01*
X10820D01*
Y126529D01*
X21069D01*
Y127616D01*
X22529D01*
X22529Y127616D01*
X22839Y127678D01*
X23101Y127853D01*
X25309Y130061D01*
X26175D01*
Y126579D01*
X23720D01*
X23410Y126518D01*
X23148Y126342D01*
X21531Y124726D01*
X21069Y124917D01*
Y125321D01*
X10820D01*
Y124234D01*
X7029D01*
X6719Y124173D01*
X6457Y123997D01*
X6457Y123997D01*
X2577Y120118D01*
X2402Y119855D01*
X2340Y119546D01*
X2340Y119546D01*
Y48094D01*
X2340Y48094D01*
X2402Y47785D01*
X2577Y47522D01*
X13202Y36898D01*
X13202Y36898D01*
X13464Y36722D01*
X13774Y36661D01*
X26107D01*
X26260Y36292D01*
X26733Y35819D01*
X27351Y35563D01*
X28019D01*
X28637Y35819D01*
X29110Y36292D01*
X29366Y36910D01*
Y37578D01*
X29110Y38196D01*
X28637Y38669D01*
X28019Y38925D01*
X27351D01*
X26733Y38669D01*
X26343Y38279D01*
X14109D01*
X3959Y48430D01*
Y119211D01*
X7364Y122616D01*
X10820D01*
Y121529D01*
X21069D01*
Y121973D01*
X21200Y122441D01*
X21510Y122502D01*
X21772Y122678D01*
X22738Y123644D01*
X23238Y123437D01*
Y123116D01*
X23494Y122498D01*
X23967Y122025D01*
X24585Y121769D01*
X25254D01*
X25675Y121943D01*
X26175Y121675D01*
Y121529D01*
X36424D01*
Y124961D01*
X39113D01*
X39189Y124777D01*
X39662Y124304D01*
X40280Y124048D01*
X40949D01*
X41567Y124304D01*
X42040Y124777D01*
X42296Y125395D01*
Y126064D01*
X42040Y126682D01*
X41606Y127116D01*
X41625Y127295D01*
X41759Y127616D01*
X56329D01*
X56329Y127616D01*
X56639Y127678D01*
X56901Y127853D01*
X58546Y129498D01*
X58689Y129438D01*
X59358D01*
X59976Y129694D01*
X60448Y130167D01*
X60704Y130785D01*
Y130956D01*
X61204Y131213D01*
X61396Y131076D01*
Y125850D01*
X60863Y125630D01*
X60197Y124964D01*
X59976Y124431D01*
X58316D01*
Y125991D01*
X53382D01*
Y121254D01*
X58316D01*
Y122813D01*
X59976D01*
X60197Y122280D01*
X60863Y121614D01*
X61734Y121254D01*
X62676D01*
X63546Y121614D01*
X64213Y122280D01*
X64573Y123151D01*
Y124093D01*
X64213Y124964D01*
X63546Y125630D01*
X63014Y125850D01*
Y131639D01*
X63014Y131639D01*
X62952Y131949D01*
X62777Y132212D01*
X62777Y132212D01*
X60846Y134142D01*
X60584Y134318D01*
X60274Y134379D01*
D02*
G37*
G36*
X123138Y135421D02*
X118307D01*
Y133819D01*
X123138D01*
Y135421D01*
D02*
G37*
G36*
X117520D02*
X112689D01*
Y133819D01*
X117520D01*
Y135421D01*
D02*
G37*
G36*
X21169D02*
X16339D01*
Y133819D01*
X21169D01*
Y135421D01*
D02*
G37*
G36*
X15551D02*
X10721D01*
Y133819D01*
X15551D01*
Y135421D01*
D02*
G37*
G36*
X107783D02*
X102953D01*
Y133819D01*
X107783D01*
Y135421D01*
D02*
G37*
G36*
X102165D02*
X97335D01*
Y133819D01*
X102165D01*
Y135421D01*
D02*
G37*
G36*
X36524D02*
X31693D01*
Y133819D01*
X36524D01*
Y135421D01*
D02*
G37*
G36*
X30906D02*
X26075D01*
Y133819D01*
X30906D01*
Y135421D01*
D02*
G37*
G36*
X123138Y133031D02*
X118307D01*
Y131429D01*
X123138D01*
Y133031D01*
D02*
G37*
G36*
X117520D02*
X112689D01*
Y131429D01*
X117520D01*
Y133031D01*
D02*
G37*
G36*
X107783Y133031D02*
X102953D01*
Y131429D01*
X107783D01*
Y133031D01*
D02*
G37*
G36*
X102165D02*
X97335D01*
Y131429D01*
X102165D01*
Y133031D01*
D02*
G37*
G36*
X21169Y133031D02*
X16339D01*
Y131429D01*
X21169D01*
Y133031D01*
D02*
G37*
G36*
X15551D02*
X10721D01*
Y131429D01*
X15551D01*
Y133031D01*
D02*
G37*
G36*
X72125Y135439D02*
X71182D01*
X70312Y135079D01*
X69646Y134413D01*
X69285Y133542D01*
Y132600D01*
X69646Y131729D01*
X70312Y131063D01*
X71182Y130702D01*
X72125D01*
X72995Y131063D01*
X73662Y131729D01*
X74022Y132600D01*
Y133542D01*
X73662Y134413D01*
X72995Y135079D01*
X72125Y135439D01*
D02*
G37*
G36*
X123038Y130321D02*
X112789D01*
Y129156D01*
X107683D01*
Y130321D01*
X97435D01*
Y126529D01*
X107683D01*
Y127537D01*
X112789D01*
Y126529D01*
X123038D01*
Y127616D01*
X125964D01*
X127931Y125649D01*
Y120382D01*
X127788Y120323D01*
X127315Y119850D01*
X127059Y119232D01*
Y118563D01*
X127315Y117945D01*
X127788Y117473D01*
X128406Y117217D01*
X129075D01*
X129692Y117473D01*
X130165Y117945D01*
X130421Y118563D01*
Y119232D01*
X130165Y119850D01*
X129692Y120323D01*
X129549Y120382D01*
Y125984D01*
X129488Y126294D01*
X129312Y126557D01*
X129312Y126557D01*
X126871Y128997D01*
X126609Y129173D01*
X126299Y129235D01*
X126299Y129234D01*
X123038D01*
Y130321D01*
D02*
G37*
G36*
Y125321D02*
X112789D01*
Y124179D01*
X107725D01*
X107724Y124181D01*
X107683Y124222D01*
Y125321D01*
X97435D01*
Y121529D01*
X107683D01*
Y122235D01*
X107724Y122276D01*
X107842Y122561D01*
X112789D01*
Y121529D01*
X123038D01*
Y122616D01*
X123877D01*
X124781Y121712D01*
Y110539D01*
X124638Y110480D01*
X124165Y110007D01*
X123909Y109389D01*
Y108721D01*
X124165Y108103D01*
X124638Y107630D01*
X125256Y107374D01*
X125925D01*
X126543Y107630D01*
X127016Y108103D01*
X127272Y108721D01*
Y109389D01*
X127016Y110007D01*
X126543Y110480D01*
X126400Y110539D01*
Y122047D01*
X126400Y122047D01*
X126338Y122357D01*
X126163Y122619D01*
X124785Y123997D01*
X124522Y124173D01*
X124213Y124234D01*
X124213Y124234D01*
X123038D01*
Y125321D01*
D02*
G37*
G36*
X52510Y126091D02*
X50337D01*
Y124016D01*
X52510D01*
Y126091D01*
D02*
G37*
G36*
X49550D02*
X47377D01*
Y124016D01*
X49550D01*
Y126091D01*
D02*
G37*
G36*
X75274Y125991D02*
X74332D01*
X73462Y125630D01*
X72795Y124964D01*
X72435Y124093D01*
Y123151D01*
X72795Y122280D01*
X73462Y121614D01*
X74332Y121254D01*
X75274D01*
X76145Y121614D01*
X76811Y122280D01*
X77172Y123151D01*
Y124093D01*
X76811Y124964D01*
X76145Y125630D01*
X75274Y125991D01*
D02*
G37*
G36*
X68975D02*
X68033D01*
X67162Y125630D01*
X66496Y124964D01*
X66135Y124093D01*
Y123151D01*
X66496Y122280D01*
X67162Y121614D01*
X68033Y121254D01*
X68975D01*
X69846Y121614D01*
X70512Y122280D01*
X70872Y123151D01*
Y124093D01*
X70512Y124964D01*
X69846Y125630D01*
X68975Y125991D01*
D02*
G37*
G36*
X52510Y123228D02*
X50337D01*
Y121153D01*
X52510D01*
Y123228D01*
D02*
G37*
G36*
X49550D02*
X47377D01*
Y121153D01*
X49550D01*
Y123228D01*
D02*
G37*
G36*
X36424Y120321D02*
X26175D01*
Y120125D01*
X25675Y119857D01*
X25254Y120031D01*
X24585D01*
X23967Y119775D01*
X23494Y119302D01*
X23466Y119234D01*
X21069D01*
Y120321D01*
X10820D01*
Y119209D01*
X10200D01*
X10200Y119209D01*
X9890Y119148D01*
X9628Y118972D01*
X9417Y118762D01*
X8925Y118977D01*
X8699Y119522D01*
X8226Y119995D01*
X7608Y120251D01*
X6940D01*
X6322Y119995D01*
X5849Y119522D01*
X5593Y118904D01*
Y118236D01*
X5849Y117618D01*
X6322Y117145D01*
X6867Y116919D01*
X7083Y116427D01*
X6605Y115950D01*
X6430Y115687D01*
X6368Y115377D01*
X6368Y115377D01*
Y114346D01*
X6198Y114275D01*
X5725Y113802D01*
X5469Y113184D01*
Y112516D01*
X5725Y111898D01*
X6198Y111425D01*
X6816Y111169D01*
X7484D01*
X8102Y111425D01*
X8575Y111898D01*
X8831Y112516D01*
Y113184D01*
X8575Y113802D01*
X8102Y114275D01*
X7987Y114323D01*
Y115042D01*
X10321Y117376D01*
X10820Y117169D01*
Y116529D01*
X21069D01*
Y117616D01*
X23404D01*
X23494Y117398D01*
X23967Y116925D01*
X24585Y116669D01*
X25254D01*
X25675Y116843D01*
X26175Y116575D01*
Y116529D01*
X36424D01*
Y120321D01*
D02*
G37*
G36*
X106470Y120551D02*
X105801D01*
X105246Y120321D01*
X97435D01*
Y119234D01*
X95984D01*
X95984Y119235D01*
X95675Y119173D01*
X95412Y118997D01*
X90766Y114352D01*
X90591Y114089D01*
X90529Y113779D01*
X90529Y113779D01*
Y55453D01*
X87854Y52778D01*
X83606D01*
X83399Y53278D01*
X83898Y53777D01*
X84258Y54647D01*
Y55589D01*
X83898Y56460D01*
X83231Y57126D01*
X82361Y57487D01*
X81419D01*
X80548Y57126D01*
X79882Y56460D01*
X79521Y55589D01*
Y54647D01*
X79882Y53777D01*
X80381Y53278D01*
X80173Y52778D01*
X66467D01*
X66157Y52716D01*
X65894Y52541D01*
X65894Y52541D01*
X63714Y50360D01*
X63571Y50419D01*
X62902D01*
X62284Y50163D01*
X61811Y49690D01*
X61555Y49073D01*
Y48404D01*
X61811Y47786D01*
X62284Y47313D01*
X62902Y47057D01*
X63571D01*
X64188Y47313D01*
X64661Y47786D01*
X64917Y48404D01*
Y49073D01*
X64858Y49215D01*
X66802Y51159D01*
X88189D01*
X88189Y51159D01*
X88499Y51221D01*
X88761Y51396D01*
X91911Y54546D01*
X92086Y54808D01*
X92148Y55118D01*
Y113444D01*
X96320Y117616D01*
X97435D01*
Y116529D01*
X107683D01*
Y117561D01*
X112789D01*
Y116529D01*
X123038D01*
Y120321D01*
X112789D01*
Y119179D01*
X107817D01*
Y119204D01*
X107683Y119526D01*
Y120321D01*
X107025D01*
X106470Y120551D01*
D02*
G37*
G36*
X36424Y115321D02*
X26175D01*
Y115145D01*
X25675Y114877D01*
X25254Y115051D01*
X24585D01*
X23967Y114795D01*
X23494Y114322D01*
X23458Y114234D01*
X21069D01*
Y115321D01*
X10820D01*
Y111529D01*
X21069D01*
Y112616D01*
X23412D01*
X23494Y112418D01*
X23967Y111945D01*
X24585Y111689D01*
X25254D01*
X25675Y111863D01*
X26175Y111595D01*
Y111529D01*
X36424D01*
Y115321D01*
D02*
G37*
G36*
X123038D02*
X112789D01*
Y114179D01*
X107702D01*
X107683Y114224D01*
Y115321D01*
X97435D01*
Y111529D01*
X107683D01*
Y112561D01*
X112789D01*
Y111529D01*
X123038D01*
Y115321D01*
D02*
G37*
G36*
X123138Y110421D02*
X118307D01*
Y108819D01*
X123138D01*
Y110421D01*
D02*
G37*
G36*
X117520D02*
X112689D01*
Y108819D01*
X117520D01*
Y110421D01*
D02*
G37*
G36*
X21169D02*
X16339D01*
Y108819D01*
X21169D01*
Y110421D01*
D02*
G37*
G36*
X15551D02*
X10721D01*
Y108819D01*
X15551D01*
Y110421D01*
D02*
G37*
G36*
X107783D02*
X102953D01*
Y108819D01*
X107783D01*
Y110421D01*
D02*
G37*
G36*
X102165D02*
X97335D01*
Y108819D01*
X102165D01*
Y110421D01*
D02*
G37*
G36*
X36524D02*
X31693D01*
Y108819D01*
X36524D01*
Y110421D01*
D02*
G37*
G36*
X30906D02*
X26075D01*
Y108819D01*
X30906D01*
Y110421D01*
D02*
G37*
G36*
X52440Y113392D02*
X51497D01*
X50627Y113031D01*
X49961Y112365D01*
X49600Y111495D01*
Y110553D01*
X49961Y109682D01*
X50627Y109016D01*
X51497Y108655D01*
X52440D01*
X53310Y109016D01*
X53976Y109682D01*
X54337Y110553D01*
Y111495D01*
X53976Y112365D01*
X53310Y113031D01*
X52440Y113392D01*
D02*
G37*
G36*
X123138Y108031D02*
X118307D01*
Y106429D01*
X123138D01*
Y108031D01*
D02*
G37*
G36*
X117520D02*
X112689D01*
Y106429D01*
X117520D01*
Y108031D01*
D02*
G37*
G36*
X107783Y108031D02*
X102953D01*
Y106429D01*
X107783D01*
Y108031D01*
D02*
G37*
G36*
X102165D02*
X97335D01*
Y106429D01*
X102165D01*
Y108031D01*
D02*
G37*
G36*
X36524Y108031D02*
X31693D01*
Y106429D01*
X36524D01*
Y108031D01*
D02*
G37*
G36*
X30906D02*
X26075D01*
Y106429D01*
X30906D01*
Y108031D01*
D02*
G37*
G36*
X21169Y108031D02*
X16339D01*
Y106429D01*
X21169D01*
Y108031D01*
D02*
G37*
G36*
X15551D02*
X10721D01*
Y106429D01*
X15551D01*
Y108031D01*
D02*
G37*
G36*
X54931Y106808D02*
X50391D01*
Y106577D01*
X49891Y106263D01*
X49547Y106405D01*
X48878D01*
X48260Y106150D01*
X47787Y105677D01*
X47532Y105059D01*
Y104390D01*
X47787Y103772D01*
X48260Y103299D01*
X48878Y103043D01*
X49547D01*
X49891Y103186D01*
X50391Y102872D01*
Y102071D01*
X54931D01*
Y106808D01*
D02*
G37*
G36*
X36424Y105321D02*
X26175D01*
Y105054D01*
X25675Y104847D01*
X25626Y104895D01*
X25008Y105151D01*
X24340D01*
X23722Y104895D01*
X23249Y104422D01*
X23171Y104234D01*
X21069D01*
Y105321D01*
X10820D01*
Y101529D01*
X21069D01*
Y102616D01*
X23208D01*
X23249Y102518D01*
X23722Y102045D01*
X24340Y101789D01*
X25008D01*
X25626Y102045D01*
X25675Y102093D01*
X26175Y101886D01*
Y101529D01*
X36424D01*
Y105321D01*
D02*
G37*
G36*
X123038D02*
X112789D01*
Y104234D01*
X107683D01*
Y105321D01*
X97435D01*
Y104234D01*
X95669D01*
X95669Y104235D01*
X95360Y104173D01*
X95097Y103997D01*
X95097Y103997D01*
X93522Y102423D01*
X93347Y102160D01*
X93285Y101850D01*
X93285Y101850D01*
Y53091D01*
X89822Y49628D01*
X71707D01*
X71648Y49771D01*
X71175Y50244D01*
X70557Y50500D01*
X69888D01*
X69270Y50244D01*
X68797Y49771D01*
X68541Y49153D01*
Y48485D01*
X68797Y47867D01*
X69270Y47394D01*
X69888Y47138D01*
X70557D01*
X71175Y47394D01*
X71648Y47867D01*
X71707Y48010D01*
X81146D01*
X81353Y47510D01*
X81252Y47409D01*
X80996Y46791D01*
Y46122D01*
X81252Y45504D01*
X81725Y45031D01*
X82343Y44776D01*
X83012D01*
X83629Y45031D01*
X84102Y45504D01*
X84358Y46122D01*
Y46791D01*
X84102Y47409D01*
X84002Y47510D01*
X84209Y48010D01*
X90157D01*
X90158Y48010D01*
X90467Y48071D01*
X90730Y48247D01*
X94667Y52184D01*
X94667Y52184D01*
X94842Y52446D01*
X94904Y52756D01*
Y101515D01*
X96004Y102616D01*
X97435D01*
Y101529D01*
X107683D01*
Y102616D01*
X112789D01*
Y101529D01*
X123038D01*
Y105321D01*
D02*
G37*
G36*
Y100321D02*
X112789D01*
Y99234D01*
X107683D01*
Y100321D01*
X97435D01*
Y96529D01*
X107683D01*
Y97616D01*
X112789D01*
Y96529D01*
X123038D01*
Y100321D01*
D02*
G37*
G36*
X27308Y100351D02*
X26640D01*
X26567Y100321D01*
X26175D01*
Y100159D01*
X26022Y100095D01*
X25549Y99622D01*
X25388Y99234D01*
X21069D01*
Y100321D01*
X10820D01*
Y96529D01*
X21069D01*
Y97616D01*
X25651D01*
X26022Y97245D01*
X26175Y97181D01*
Y96529D01*
X36424D01*
Y100321D01*
X27381D01*
X27308Y100351D01*
D02*
G37*
G36*
X7421Y102469D02*
X6752D01*
X6134Y102213D01*
X5661Y101740D01*
X5406Y101122D01*
Y100453D01*
X5661Y99835D01*
X6134Y99362D01*
X6752Y99106D01*
X7421D01*
X8039Y99362D01*
X8512Y99835D01*
X8768Y100453D01*
Y101122D01*
X8512Y101740D01*
X8039Y102213D01*
X7421Y102469D01*
D02*
G37*
G36*
X54931Y101100D02*
X50391D01*
Y96363D01*
X50677D01*
X50831Y95991D01*
X51304Y95518D01*
X51921Y95262D01*
X52590D01*
X53208Y95518D01*
X53681Y95991D01*
X53835Y96363D01*
X54931D01*
Y101100D01*
D02*
G37*
G36*
X87873Y96867D02*
X86931D01*
X86060Y96507D01*
X85394Y95840D01*
X85033Y94970D01*
X84543D01*
X84182Y95840D01*
X83516Y96507D01*
X82645Y96867D01*
X81703D01*
X80832Y96507D01*
X80166Y95840D01*
X79805Y94970D01*
Y94028D01*
X80166Y93157D01*
X80832Y92491D01*
X81703Y92130D01*
X82645D01*
X83516Y92491D01*
X84182Y93157D01*
X84543Y94028D01*
X85033D01*
X85394Y93157D01*
X86060Y92491D01*
X86931Y92130D01*
X87873D01*
X88167Y91711D01*
Y86924D01*
X86757Y85514D01*
X86312D01*
X85694Y85258D01*
X85222Y84785D01*
X84966Y84168D01*
Y83499D01*
X85222Y82881D01*
X85694Y82408D01*
X86312Y82152D01*
X86981D01*
X87599Y82408D01*
X88072Y82881D01*
X88328Y83499D01*
Y84168D01*
X88144Y84612D01*
X89549Y86017D01*
X89549Y86017D01*
X89724Y86279D01*
X89786Y86589D01*
Y92463D01*
X89724Y92772D01*
X89549Y93035D01*
X89549Y93035D01*
X89415Y93169D01*
X89770Y94028D01*
Y94970D01*
X89410Y95840D01*
X88743Y96507D01*
X87873Y96867D01*
D02*
G37*
G36*
X123038Y95321D02*
X112789D01*
Y94235D01*
X107683D01*
Y95321D01*
X97435D01*
Y91529D01*
X107683D01*
Y92616D01*
X112789D01*
Y91529D01*
X123038D01*
Y95321D01*
D02*
G37*
G36*
X29408Y95751D02*
X28740D01*
X28122Y95495D01*
X27948Y95321D01*
X26175D01*
Y94235D01*
X21069D01*
Y95321D01*
X10820D01*
Y91529D01*
X21069D01*
Y92616D01*
X21815D01*
X22022Y92116D01*
X21803Y91897D01*
X21547Y91279D01*
Y90610D01*
X21803Y89993D01*
X21816Y89979D01*
X21609Y89479D01*
X21069D01*
Y90321D01*
X10820D01*
Y86529D01*
X21069D01*
Y87861D01*
X26175D01*
Y86529D01*
X36424D01*
Y87380D01*
X39035D01*
X40332Y86082D01*
Y51319D01*
X39035Y50022D01*
X20808D01*
X18132Y52697D01*
Y55177D01*
X19390Y56435D01*
X26201D01*
X26260Y56292D01*
X26733Y55819D01*
X27351Y55563D01*
X28019D01*
X28637Y55819D01*
X29110Y56292D01*
X29366Y56910D01*
Y57578D01*
X29110Y58196D01*
X28637Y58669D01*
X28019Y58925D01*
X27351D01*
X26733Y58669D01*
X26260Y58196D01*
X26201Y58053D01*
X23017D01*
X22874Y58268D01*
Y66929D01*
X22819Y67061D01*
X23075Y67561D01*
X26175D01*
Y66529D01*
X36424D01*
Y70321D01*
X26175D01*
Y69179D01*
X21069D01*
Y70321D01*
X10820D01*
Y69235D01*
X8976D01*
X8976Y69235D01*
X8667Y69173D01*
X8404Y68997D01*
X8404Y68997D01*
X4940Y65533D01*
X4764Y65270D01*
X4703Y64961D01*
X4703Y64961D01*
Y48819D01*
X4703Y48819D01*
X4764Y48509D01*
X4940Y48247D01*
X13207Y39979D01*
X13207Y39979D01*
X13470Y39803D01*
X13780Y39742D01*
X13780Y39742D01*
X35917D01*
X35976Y39599D01*
X36449Y39126D01*
X37067Y38870D01*
X37736D01*
X38354Y39126D01*
X38827Y39599D01*
X39083Y40217D01*
Y40886D01*
X38827Y41503D01*
X38354Y41976D01*
X37736Y42232D01*
X37067D01*
X36449Y41976D01*
X35976Y41503D01*
X35917Y41360D01*
X14115D01*
X6321Y49154D01*
Y57835D01*
X17794D01*
X18001Y57335D01*
X16751Y56084D01*
X16575Y55822D01*
X16514Y55512D01*
X16514Y55512D01*
Y52362D01*
X16514Y52362D01*
X16575Y52052D01*
X16751Y51790D01*
X19900Y48640D01*
X20163Y48465D01*
X20472Y48403D01*
X39370D01*
X39370Y48403D01*
X39680Y48465D01*
X39942Y48640D01*
X41714Y50412D01*
X41714Y50412D01*
X41889Y50675D01*
X41951Y50984D01*
X41951Y50984D01*
Y59349D01*
X42451Y59559D01*
X42973Y59342D01*
X43641D01*
X44259Y59598D01*
X44732Y60071D01*
X44754Y60123D01*
X45254Y60024D01*
Y51516D01*
X41554Y47816D01*
X41378Y47554D01*
X41317Y47244D01*
X41317Y47244D01*
Y34587D01*
X35098Y28368D01*
X32160D01*
X32125Y28452D01*
X31652Y28925D01*
X31034Y29181D01*
X30366D01*
X29748Y28925D01*
X29275Y28452D01*
X29019Y27834D01*
Y27166D01*
X29275Y26548D01*
X29748Y26075D01*
X30366Y25819D01*
X31034D01*
X31652Y26075D01*
X32125Y26548D01*
X32209Y26750D01*
X35433D01*
X35433Y26750D01*
X35743Y26811D01*
X36005Y26987D01*
X42698Y33680D01*
X42698Y33680D01*
X42874Y33942D01*
X42935Y34252D01*
Y46909D01*
X46635Y50609D01*
X46635Y50609D01*
X46811Y50871D01*
X46872Y51181D01*
Y89764D01*
X46872Y89764D01*
X46811Y90074D01*
X46635Y90336D01*
X42974Y93997D01*
X42711Y94173D01*
X42402Y94235D01*
X42401Y94235D01*
X36424D01*
Y95321D01*
X30200D01*
X30026Y95495D01*
X29408Y95751D01*
D02*
G37*
G36*
X7421Y97350D02*
X6752D01*
X6134Y97094D01*
X5661Y96622D01*
X5406Y96004D01*
Y95335D01*
X5661Y94717D01*
X6134Y94244D01*
X6752Y93988D01*
X7421D01*
X8039Y94244D01*
X8512Y94717D01*
X8768Y95335D01*
Y96004D01*
X8512Y96622D01*
X8039Y97094D01*
X7421Y97350D01*
D02*
G37*
G36*
X85474Y91939D02*
X84531D01*
X83661Y91578D01*
X82995Y90912D01*
X82809Y90463D01*
X82268D01*
X82082Y90912D01*
X81416Y91578D01*
X80545Y91939D01*
X79603D01*
X78732Y91578D01*
X78419Y91265D01*
X78372Y91245D01*
X77899Y90772D01*
X77643Y90154D01*
Y89486D01*
X77706Y89335D01*
Y89099D01*
X78066Y88228D01*
X78732Y87562D01*
X79603Y87202D01*
X80545D01*
X80950Y87369D01*
X81234Y86945D01*
X80402Y86114D01*
X80226Y85851D01*
X80165Y85541D01*
X80165Y85541D01*
Y82555D01*
X80022Y82495D01*
X79549Y82022D01*
X79293Y81405D01*
Y80736D01*
X79549Y80118D01*
X80022Y79645D01*
X80640Y79389D01*
X81308D01*
X81926Y79645D01*
X82399Y80118D01*
X82655Y80736D01*
Y81405D01*
X82399Y82022D01*
X81926Y82495D01*
X81783Y82555D01*
Y85206D01*
X83999Y87422D01*
X84531Y87202D01*
X85474D01*
X86344Y87562D01*
X87011Y88228D01*
X87371Y89099D01*
Y90041D01*
X87011Y90912D01*
X86344Y91578D01*
X85474Y91939D01*
D02*
G37*
G36*
X75245D02*
X74303D01*
X73432Y91578D01*
X72766Y90912D01*
X72405Y90041D01*
X71943D01*
X71582Y90912D01*
X70916Y91578D01*
X70045Y91939D01*
X69103D01*
X68232Y91578D01*
X67566Y90912D01*
X67206Y90041D01*
Y89099D01*
X67566Y88228D01*
X68232Y87562D01*
X69103Y87202D01*
X70045D01*
X70916Y87562D01*
X71582Y88228D01*
X71943Y89099D01*
X72405D01*
X72766Y88228D01*
X73432Y87562D01*
X74303Y87202D01*
X75245D01*
X76116Y87562D01*
X76782Y88228D01*
X77143Y89099D01*
Y90041D01*
X76782Y90912D01*
X76116Y91578D01*
X75245Y91939D01*
D02*
G37*
G36*
X53779Y94701D02*
X53110D01*
X52552Y94469D01*
X50787D01*
X50481Y94343D01*
X50354Y94036D01*
Y89836D01*
X50481Y89530D01*
X50787Y89403D01*
X52223D01*
X52449Y88922D01*
X52193Y88305D01*
Y87636D01*
X52420Y87088D01*
X52225Y86588D01*
X51894D01*
X51588Y86461D01*
X51568Y86413D01*
X50999Y86275D01*
X50813Y86461D01*
X50506Y86588D01*
X48106D01*
X47800Y86461D01*
X47673Y86155D01*
Y81955D01*
X47800Y81649D01*
X48106Y81522D01*
X50506D01*
X50813Y81649D01*
X50999Y81835D01*
X51568Y81697D01*
X51588Y81649D01*
X51894Y81522D01*
X56094D01*
X56400Y81649D01*
X56420Y81697D01*
X56989Y81835D01*
X57175Y81649D01*
X57481Y81522D01*
X59371D01*
X59601Y81178D01*
Y80509D01*
X59857Y79891D01*
X60330Y79418D01*
X60948Y79163D01*
X61617D01*
X62235Y79418D01*
X62708Y79891D01*
X62963Y80509D01*
Y81178D01*
X62708Y81796D01*
X62235Y82269D01*
X61905Y82405D01*
Y83381D01*
X61905Y83381D01*
X61837Y83723D01*
X61643Y84012D01*
X61299Y84356D01*
X61291Y84397D01*
X61098Y84686D01*
X60808Y84880D01*
X60467Y84948D01*
X60314D01*
Y86155D01*
X60187Y86461D01*
X59881Y86588D01*
X57481D01*
X57175Y86461D01*
X56989Y86275D01*
X56420Y86413D01*
X56400Y86461D01*
X56094Y86588D01*
X55523D01*
X55328Y87088D01*
X55555Y87636D01*
Y88305D01*
X55299Y88922D01*
X55525Y89403D01*
X56018D01*
X56324Y89530D01*
X56344Y89578D01*
X56913Y89717D01*
X57099Y89530D01*
X57406Y89403D01*
X58777D01*
X59114Y89264D01*
X59783D01*
X60120Y89403D01*
X61006D01*
X61312Y89530D01*
X61439Y89836D01*
Y94036D01*
X61312Y94343D01*
X61006Y94469D01*
X57406D01*
X57099Y94343D01*
X56913Y94156D01*
X56344Y94295D01*
X56324Y94343D01*
X56018Y94469D01*
X54338D01*
X53779Y94701D01*
D02*
G37*
G36*
X123038Y90321D02*
X112789D01*
Y89235D01*
X107683D01*
Y90321D01*
X97435D01*
Y86529D01*
X107683D01*
Y87616D01*
X112789D01*
Y86529D01*
X123038D01*
Y90321D01*
D02*
G37*
G36*
X7421Y91051D02*
X6752D01*
X6134Y90795D01*
X5661Y90322D01*
X5406Y89705D01*
Y89036D01*
X5661Y88418D01*
X6134Y87945D01*
X6752Y87689D01*
X7421D01*
X8039Y87945D01*
X8512Y88418D01*
X8768Y89036D01*
Y89705D01*
X8512Y90322D01*
X8039Y90795D01*
X7421Y91051D01*
D02*
G37*
G36*
X123138Y85421D02*
X118307D01*
Y83819D01*
X123138D01*
Y85421D01*
D02*
G37*
G36*
X117520D02*
X112689D01*
Y83819D01*
X117520D01*
Y85421D01*
D02*
G37*
G36*
X21169D02*
X16339D01*
Y83819D01*
X21169D01*
Y85421D01*
D02*
G37*
G36*
X15551D02*
X10721D01*
Y83819D01*
X15551D01*
Y85421D01*
D02*
G37*
G36*
X107783D02*
X102953D01*
Y83819D01*
X107783D01*
Y85421D01*
D02*
G37*
G36*
X102165D02*
X97335D01*
Y83819D01*
X102165D01*
Y85421D01*
D02*
G37*
G36*
X36524D02*
X31693D01*
Y83819D01*
X36524D01*
Y85421D01*
D02*
G37*
G36*
X30906D02*
X26075D01*
Y83819D01*
X30906D01*
Y85421D01*
D02*
G37*
G36*
X123138Y83031D02*
X118307D01*
Y81429D01*
X123138D01*
Y83031D01*
D02*
G37*
G36*
X117520D02*
X112689D01*
Y81429D01*
X117520D01*
Y83031D01*
D02*
G37*
G36*
X107783Y83031D02*
X102953D01*
Y81429D01*
X107783D01*
Y83031D01*
D02*
G37*
G36*
X102165D02*
X97335D01*
Y81429D01*
X102165D01*
Y83031D01*
D02*
G37*
G36*
X36524Y83031D02*
X31693D01*
Y81429D01*
X36524D01*
Y83031D01*
D02*
G37*
G36*
X30906D02*
X26075D01*
Y81429D01*
X30906D01*
Y83031D01*
D02*
G37*
G36*
X21169Y83031D02*
X16339D01*
Y81429D01*
X21169D01*
Y83031D01*
D02*
G37*
G36*
X15551D02*
X10721D01*
Y81429D01*
X15551D01*
Y83031D01*
D02*
G37*
G36*
X123038Y80321D02*
X112789D01*
Y79234D01*
X107683D01*
Y80321D01*
X97435D01*
Y76529D01*
X107683D01*
Y77616D01*
X112789D01*
Y76529D01*
X123038D01*
Y80321D01*
D02*
G37*
G36*
X36424D02*
X26175D01*
Y79234D01*
X21069D01*
Y80321D01*
X10820D01*
Y76529D01*
X21069D01*
Y77616D01*
X26175D01*
Y76529D01*
X36424D01*
Y77537D01*
X37854D01*
X38167Y77224D01*
Y54272D01*
X37066Y53171D01*
X29437D01*
X29378Y53315D01*
X28905Y53787D01*
X28287Y54043D01*
X27618D01*
X27000Y53787D01*
X26528Y53315D01*
X26272Y52697D01*
Y52028D01*
X26528Y51410D01*
X27000Y50937D01*
X27618Y50681D01*
X28287D01*
X28905Y50937D01*
X29378Y51410D01*
X29437Y51553D01*
X37402D01*
X37402Y51553D01*
X37711Y51615D01*
X37974Y51790D01*
X39549Y53365D01*
X39724Y53627D01*
X39786Y53937D01*
X39786Y53937D01*
Y77559D01*
X39724Y77869D01*
X39549Y78131D01*
X39549Y78131D01*
X38761Y78919D01*
X38499Y79094D01*
X38189Y79156D01*
X38189Y79156D01*
X36424D01*
Y80321D01*
D02*
G37*
G36*
X123038Y75321D02*
X112789D01*
Y74234D01*
X107683D01*
Y75321D01*
X97435D01*
Y71529D01*
X107683D01*
Y72616D01*
X112789D01*
Y71529D01*
X123038D01*
Y75321D01*
D02*
G37*
G36*
X36424D02*
X26175D01*
Y74234D01*
X21069D01*
Y75321D01*
X10820D01*
Y71529D01*
X21069D01*
Y72616D01*
X26175D01*
Y71529D01*
X36424D01*
Y75321D01*
D02*
G37*
G36*
X131890Y70354D02*
X123038D01*
X122958Y70321D01*
X112789D01*
Y69235D01*
X107683D01*
Y70321D01*
X97435D01*
Y66575D01*
X96457D01*
X96150Y66448D01*
X96024Y66142D01*
Y51968D01*
X96150Y51662D01*
X96457Y51536D01*
X109055D01*
X109361Y51662D01*
X109488Y51968D01*
Y57561D01*
X109988Y57895D01*
X110295Y57768D01*
X110964D01*
X111582Y58024D01*
X112055Y58497D01*
X112311Y59114D01*
Y59783D01*
X112055Y60401D01*
X111582Y60874D01*
X110964Y61130D01*
X110295D01*
X109988Y61003D01*
X109488Y61337D01*
Y66142D01*
X109361Y66448D01*
X109055Y66575D01*
X107683D01*
Y67616D01*
X111772D01*
Y65459D01*
X111829Y65321D01*
X111875Y65178D01*
X111892Y65170D01*
X111899Y65153D01*
X112037Y65096D01*
X112171Y65028D01*
X112655Y64990D01*
X112789Y64516D01*
Y61529D01*
X122243D01*
X122705Y61524D01*
X122705Y61429D01*
X122747Y61327D01*
X122760Y61217D01*
X122988Y60811D01*
X123036Y60774D01*
X123060Y60717D01*
X123162Y60675D01*
X123249Y60607D01*
X123310Y60614D01*
X123366Y60591D01*
X131890D01*
X132196Y60717D01*
X132323Y61024D01*
X132323Y69921D01*
X132196Y70227D01*
X131890Y70354D01*
D02*
G37*
G36*
X86555Y67823D02*
X85886D01*
X85268Y67567D01*
X84795Y67094D01*
X84539Y66476D01*
Y65919D01*
X84406Y65671D01*
X84252Y65514D01*
X83965Y65807D01*
Y66476D01*
X83709Y67094D01*
X83236Y67567D01*
X82618Y67823D01*
X81949D01*
X81331Y67567D01*
X80858Y67094D01*
X80602Y66476D01*
Y65807D01*
X80858Y65189D01*
X81331Y64717D01*
X81949Y64461D01*
X82336D01*
X82681Y63987D01*
X82571Y63720D01*
Y63051D01*
X82827Y62434D01*
X83300Y61961D01*
X83918Y61705D01*
X84586D01*
X85204Y61961D01*
X85677Y62434D01*
X85933Y63051D01*
Y63720D01*
X85823Y63987D01*
X86168Y64461D01*
X86555D01*
X87173Y64717D01*
X87646Y65189D01*
X87902Y65807D01*
Y66476D01*
X87646Y67094D01*
X87173Y67567D01*
X86555Y67823D01*
D02*
G37*
G36*
X36424Y65321D02*
X26175D01*
Y64379D01*
X26134Y64338D01*
X25878Y63720D01*
Y63051D01*
X26134Y62434D01*
X26175Y62393D01*
Y61529D01*
X36424D01*
Y65321D01*
D02*
G37*
G36*
X76849Y59849D02*
X75907D01*
X75036Y59488D01*
X74370Y58822D01*
X74010Y57951D01*
Y57009D01*
X74370Y56139D01*
X75036Y55472D01*
X75907Y55112D01*
X76849D01*
X77720Y55472D01*
X78386Y56139D01*
X78746Y57009D01*
Y57951D01*
X78386Y58822D01*
X77720Y59488D01*
X76849Y59849D01*
D02*
G37*
G36*
X99311Y50185D02*
X98642D01*
X98024Y49929D01*
X97551Y49456D01*
X97295Y48838D01*
Y48169D01*
X97551Y47552D01*
X98024Y47079D01*
X98642Y46823D01*
X99311D01*
X99929Y47079D01*
X100401Y47552D01*
X100657Y48169D01*
Y48838D01*
X100401Y49456D01*
X99929Y49929D01*
X99311Y50185D01*
D02*
G37*
G36*
X55846Y50106D02*
X55177D01*
X54560Y49850D01*
X54087Y49378D01*
X53831Y48760D01*
Y48091D01*
X54087Y47473D01*
X54560Y47000D01*
X55177Y46744D01*
X55846D01*
X56464Y47000D01*
X56937Y47473D01*
X57193Y48091D01*
Y48760D01*
X56937Y49378D01*
X56464Y49850D01*
X55846Y50106D01*
D02*
G37*
G36*
X59783Y46957D02*
X59114D01*
X58497Y46701D01*
X58024Y46228D01*
X57768Y45610D01*
Y44941D01*
X58024Y44323D01*
X58497Y43850D01*
X59114Y43595D01*
X59783D01*
X60401Y43850D01*
X60874Y44323D01*
X61130Y44941D01*
Y45610D01*
X60874Y46228D01*
X60401Y46701D01*
X59783Y46957D01*
D02*
G37*
G36*
X106634Y45303D02*
X105965D01*
X105347Y45047D01*
X104874Y44574D01*
X104618Y43956D01*
Y43288D01*
X104874Y42670D01*
X105347Y42197D01*
X105965Y41941D01*
X106634D01*
X107252Y42197D01*
X107724Y42670D01*
X107980Y43288D01*
Y43956D01*
X107724Y44574D01*
X107252Y45047D01*
X106634Y45303D01*
D02*
G37*
G36*
X96870D02*
X96201D01*
X95583Y45047D01*
X95110Y44574D01*
X94854Y43956D01*
Y43288D01*
X95110Y42670D01*
X95583Y42197D01*
X96201Y41941D01*
X96870D01*
X97488Y42197D01*
X97961Y42670D01*
X98216Y43288D01*
Y43956D01*
X97961Y44574D01*
X97488Y45047D01*
X96870Y45303D01*
D02*
G37*
G36*
X85768Y44988D02*
X85099D01*
X84481Y44732D01*
X84008Y44259D01*
X83752Y43641D01*
Y42973D01*
X84008Y42355D01*
X84481Y41882D01*
X85099Y41626D01*
X85768D01*
X86385Y41882D01*
X86858Y42355D01*
X87114Y42973D01*
Y43641D01*
X86858Y44259D01*
X86385Y44732D01*
X85768Y44988D01*
D02*
G37*
G36*
X79862D02*
X79193D01*
X78575Y44732D01*
X78102Y44259D01*
X77846Y43641D01*
Y42973D01*
X78102Y42355D01*
X78575Y41882D01*
X79193Y41626D01*
X79862D01*
X80480Y41882D01*
X80953Y42355D01*
X81209Y42973D01*
Y43641D01*
X80953Y44259D01*
X80480Y44732D01*
X79862Y44988D01*
D02*
G37*
G36*
X55846Y43413D02*
X55177D01*
X54560Y43157D01*
X54087Y42685D01*
X53831Y42067D01*
Y41398D01*
X54087Y40780D01*
X54560Y40307D01*
X55177Y40051D01*
X55846D01*
X56464Y40307D01*
X56937Y40780D01*
X57193Y41398D01*
Y42067D01*
X56937Y42685D01*
X56464Y43157D01*
X55846Y43413D01*
D02*
G37*
G36*
X75925Y41445D02*
X75256D01*
X74638Y41189D01*
X74165Y40716D01*
X73909Y40098D01*
Y39429D01*
X74165Y38811D01*
X74638Y38339D01*
X75256Y38083D01*
X75925D01*
X76543Y38339D01*
X77016Y38811D01*
X77272Y39429D01*
Y40098D01*
X77016Y40716D01*
X76543Y41189D01*
X75925Y41445D01*
D02*
G37*
G36*
X104193Y40421D02*
X103524D01*
X102906Y40165D01*
X102433Y39692D01*
X102177Y39075D01*
Y38406D01*
X102433Y37788D01*
X102906Y37315D01*
X103524Y37059D01*
X104193D01*
X104811Y37315D01*
X105283Y37788D01*
X105539Y38406D01*
Y39075D01*
X105283Y39692D01*
X104811Y40165D01*
X104193Y40421D01*
D02*
G37*
G36*
X99311D02*
X98642D01*
X98024Y40165D01*
X97551Y39692D01*
X97295Y39075D01*
Y38406D01*
X97551Y37788D01*
X98024Y37315D01*
X98642Y37059D01*
X99311D01*
X99929Y37315D01*
X100401Y37788D01*
X100657Y38406D01*
Y39075D01*
X100401Y39692D01*
X99929Y40165D01*
X99311Y40421D01*
D02*
G37*
G36*
X59390Y39870D02*
X58721D01*
X58103Y39614D01*
X57630Y39141D01*
X57374Y38523D01*
Y37855D01*
X57630Y37237D01*
X58103Y36764D01*
X58721Y36508D01*
X59390D01*
X60007Y36764D01*
X60480Y37237D01*
X60736Y37855D01*
Y38523D01*
X60480Y39141D01*
X60007Y39614D01*
X59390Y39870D01*
D02*
G37*
G36*
X79862Y37902D02*
X79193D01*
X78575Y37646D01*
X78102Y37173D01*
X77846Y36555D01*
Y35886D01*
X78102Y35268D01*
X78575Y34795D01*
X79193Y34539D01*
X79862D01*
X80480Y34795D01*
X80953Y35268D01*
X81209Y35886D01*
Y36555D01*
X80953Y37173D01*
X80480Y37646D01*
X79862Y37902D01*
D02*
G37*
G36*
X55846Y36327D02*
X55177D01*
X54560Y36071D01*
X54087Y35598D01*
X53831Y34980D01*
Y34311D01*
X54087Y33693D01*
X54560Y33220D01*
X55177Y32965D01*
X55846D01*
X56464Y33220D01*
X56937Y33693D01*
X57193Y34311D01*
Y34980D01*
X56937Y35598D01*
X56464Y36071D01*
X55846Y36327D01*
D02*
G37*
G36*
X106634Y35539D02*
X105965D01*
X105347Y35283D01*
X104874Y34811D01*
X104618Y34193D01*
Y33524D01*
X104874Y32906D01*
X105347Y32433D01*
X105965Y32177D01*
X106634D01*
X107252Y32433D01*
X107724Y32906D01*
X107980Y33524D01*
Y34193D01*
X107724Y34811D01*
X107252Y35283D01*
X106634Y35539D01*
D02*
G37*
G36*
X101752D02*
X101083D01*
X100465Y35283D01*
X99992Y34811D01*
X99736Y34193D01*
Y33524D01*
X99992Y32906D01*
X100465Y32433D01*
X101083Y32177D01*
X101752D01*
X102370Y32433D01*
X102842Y32906D01*
X103098Y33524D01*
Y34193D01*
X102842Y34811D01*
X102370Y35283D01*
X101752Y35539D01*
D02*
G37*
G36*
X96870D02*
X96201D01*
X95583Y35283D01*
X95110Y34811D01*
X94854Y34193D01*
Y33524D01*
X95110Y32906D01*
X95583Y32433D01*
X96201Y32177D01*
X96870D01*
X97488Y32433D01*
X97961Y32906D01*
X98216Y33524D01*
Y34193D01*
X97961Y34811D01*
X97488Y35283D01*
X96870Y35539D01*
D02*
G37*
G36*
X75531Y34358D02*
X74862D01*
X74245Y34102D01*
X73772Y33629D01*
X73516Y33012D01*
Y32343D01*
X73772Y31725D01*
X74245Y31252D01*
X74862Y30996D01*
X75531D01*
X76149Y31252D01*
X76622Y31725D01*
X76878Y32343D01*
Y33012D01*
X76622Y33629D01*
X76149Y34102D01*
X75531Y34358D01*
D02*
G37*
G36*
X59783Y33177D02*
X59114D01*
X58497Y32921D01*
X58024Y32448D01*
X57768Y31830D01*
Y31162D01*
X58024Y30544D01*
X58497Y30071D01*
X59114Y29815D01*
X59783D01*
X60401Y30071D01*
X60874Y30544D01*
X61130Y31162D01*
Y31830D01*
X60874Y32448D01*
X60401Y32921D01*
X59783Y33177D01*
D02*
G37*
G36*
X75531Y28846D02*
X74862D01*
X74245Y28591D01*
X73772Y28118D01*
X73516Y27500D01*
Y26831D01*
X73772Y26213D01*
X74245Y25740D01*
X74862Y25484D01*
X75531D01*
X76149Y25740D01*
X76622Y26213D01*
X76878Y26831D01*
Y27500D01*
X76622Y28118D01*
X76149Y28591D01*
X75531Y28846D01*
D02*
G37*
G36*
X55846D02*
X55177D01*
X54560Y28591D01*
X54087Y28118D01*
X53831Y27500D01*
Y26831D01*
X54087Y26213D01*
X54560Y25740D01*
X55177Y25484D01*
X55846D01*
X56464Y25740D01*
X56937Y26213D01*
X57193Y26831D01*
Y27500D01*
X56937Y28118D01*
X56464Y28591D01*
X55846Y28846D01*
D02*
G37*
G36*
X79862Y30421D02*
X79193D01*
X78575Y30165D01*
X78102Y29692D01*
X77846Y29074D01*
Y28406D01*
X78102Y27788D01*
X78575Y27315D01*
X78759Y27239D01*
Y26698D01*
X78575Y26622D01*
X78102Y26149D01*
X77846Y25531D01*
Y24862D01*
X78102Y24245D01*
X78575Y23772D01*
X79193Y23516D01*
X79862D01*
X80480Y23772D01*
X80953Y24245D01*
X81209Y24862D01*
Y25531D01*
X80953Y26149D01*
X80480Y26622D01*
X80297Y26698D01*
Y27239D01*
X80480Y27315D01*
X80953Y27788D01*
X81209Y28406D01*
Y29074D01*
X80953Y29692D01*
X80480Y30165D01*
X79862Y30421D01*
D02*
G37*
G36*
X59390Y24909D02*
X58721D01*
X58103Y24654D01*
X57630Y24181D01*
X57374Y23563D01*
Y22894D01*
X57630Y22276D01*
X58103Y21803D01*
X58721Y21547D01*
X59390D01*
X60007Y21803D01*
X60480Y22276D01*
X60736Y22894D01*
Y23563D01*
X60480Y24181D01*
X60007Y24654D01*
X59390Y24909D01*
D02*
G37*
G36*
X50728D02*
X50059D01*
X49441Y24654D01*
X48968Y24181D01*
X48713Y23563D01*
Y22894D01*
X48968Y22276D01*
X49441Y21803D01*
X50059Y21547D01*
X50728D01*
X51346Y21803D01*
X51819Y22276D01*
X52075Y22894D01*
Y23563D01*
X51819Y24181D01*
X51346Y24654D01*
X50728Y24909D01*
D02*
G37*
G36*
Y20972D02*
X50059D01*
X49441Y20717D01*
X48968Y20244D01*
X48713Y19626D01*
Y18957D01*
X48968Y18339D01*
X49441Y17866D01*
X50059Y17610D01*
X50728D01*
X51346Y17866D01*
X51819Y18339D01*
X52075Y18957D01*
Y19626D01*
X51819Y20244D01*
X51346Y20717D01*
X50728Y20972D01*
D02*
G37*
G36*
Y16642D02*
X50059D01*
X49441Y16386D01*
X48968Y15913D01*
X48713Y15295D01*
Y14626D01*
X48812Y14386D01*
X48485Y13886D01*
X47867Y13630D01*
X47394Y13157D01*
X47138Y12539D01*
Y11870D01*
X47394Y11253D01*
X47867Y10780D01*
X48485Y10524D01*
X49153D01*
X49771Y10780D01*
X50244Y11253D01*
X50500Y11870D01*
Y12539D01*
X50400Y12779D01*
X50728Y13280D01*
X51346Y13535D01*
X51819Y14008D01*
X52075Y14626D01*
Y15295D01*
X51819Y15913D01*
X51346Y16386D01*
X50728Y16642D01*
D02*
G37*
G36*
X32618Y19791D02*
X31949D01*
X31331Y19535D01*
X30858Y19062D01*
X30602Y18445D01*
Y17776D01*
X30858Y17158D01*
X30874Y17142D01*
X30667Y16642D01*
X30374D01*
X29756Y16386D01*
X29283Y15913D01*
X29028Y15295D01*
Y14626D01*
X29283Y14008D01*
X29756Y13535D01*
X30374Y13280D01*
X30667D01*
X30875Y12779D01*
X30858Y12763D01*
X30602Y12145D01*
Y11477D01*
X30858Y10859D01*
X31331Y10386D01*
X31949Y10130D01*
X32618D01*
X33236Y10386D01*
X33709Y10859D01*
X33965Y11477D01*
Y12145D01*
X33709Y12763D01*
X33236Y13236D01*
X32618Y13492D01*
X32325D01*
X32118Y13992D01*
X32134Y14008D01*
X32390Y14626D01*
Y15295D01*
X32134Y15913D01*
X32118Y15929D01*
X32325Y16429D01*
X32618D01*
X33236Y16685D01*
X33709Y17158D01*
X33965Y17776D01*
Y18445D01*
X33709Y19062D01*
X33236Y19535D01*
X32618Y19791D01*
D02*
G37*
G36*
X57027Y10736D02*
X56358D01*
X55741Y10480D01*
X55268Y10007D01*
X55192Y9824D01*
X54651D01*
X54575Y10007D01*
X54102Y10480D01*
X53484Y10736D01*
X52815D01*
X52197Y10480D01*
X51724Y10007D01*
X51468Y9390D01*
Y8721D01*
X51724Y8103D01*
X52197Y7630D01*
X52815Y7374D01*
X53202D01*
X53548Y6900D01*
X53437Y6634D01*
Y5965D01*
X53548Y5698D01*
X53202Y5224D01*
X52815D01*
X52197Y4969D01*
X51724Y4496D01*
X51468Y3878D01*
Y3209D01*
X51724Y2591D01*
X52197Y2118D01*
X52815Y1862D01*
X53484D01*
X54102Y2118D01*
X54575Y2591D01*
X54651Y2774D01*
X55192D01*
X55268Y2591D01*
X55741Y2118D01*
X56358Y1862D01*
X57027D01*
X57645Y2118D01*
X58118Y2591D01*
X58374Y3209D01*
Y3878D01*
X58118Y4496D01*
X57645Y4969D01*
X57027Y5224D01*
X56700Y5724D01*
X56799Y5965D01*
Y6634D01*
X56700Y6874D01*
X57027Y7374D01*
X57645Y7630D01*
X58118Y8103D01*
X58374Y8721D01*
Y9390D01*
X58118Y10007D01*
X57645Y10480D01*
X57027Y10736D01*
D02*
G37*
G36*
X12723Y21069D02*
X10899D01*
X9110Y20714D01*
X7426Y20016D01*
X5909Y19002D01*
X4620Y17713D01*
X3606Y16196D01*
X2908Y14512D01*
X2553Y12723D01*
Y10899D01*
X2908Y9110D01*
X3606Y7426D01*
X4620Y5909D01*
X5909Y4620D01*
X7426Y3606D01*
X9110Y2908D01*
X10899Y2553D01*
X12723D01*
X14512Y2908D01*
X16196Y3606D01*
X17713Y4620D01*
X19002Y5909D01*
X20016Y7426D01*
X20714Y9110D01*
X21069Y10899D01*
Y12723D01*
X20714Y14512D01*
X20016Y16196D01*
X19002Y17713D01*
X17713Y19002D01*
X16196Y20016D01*
X14512Y20714D01*
X12723Y21069D01*
D02*
G37*
%LPD*%
G36*
X45254Y89429D02*
Y67535D01*
X44754Y67436D01*
X44732Y67488D01*
X44259Y67961D01*
X43641Y68217D01*
X42973D01*
X42451Y68000D01*
X41951Y68210D01*
Y86417D01*
X41951Y86417D01*
X41889Y86727D01*
X41714Y86989D01*
X41714Y86990D01*
X39942Y88761D01*
X39680Y88937D01*
X39370Y88998D01*
X39370Y88998D01*
X36424D01*
Y90321D01*
X32181D01*
X32108Y90351D01*
X31440D01*
X31367Y90321D01*
X26175D01*
Y89479D01*
X24847D01*
X24640Y89979D01*
X24654Y89993D01*
X24909Y90610D01*
Y91279D01*
X24654Y91897D01*
X24435Y92116D01*
X24642Y92616D01*
X26175D01*
Y91529D01*
X36424D01*
Y92616D01*
X42066D01*
X45254Y89429D01*
D02*
G37*
G36*
X22441Y58268D02*
X6321D01*
Y64625D01*
X8625Y66929D01*
X10820D01*
Y66529D01*
X21069D01*
Y66929D01*
X22441D01*
Y58268D01*
D02*
G37*
%LPC*%
G36*
X21169Y65421D02*
X16339D01*
Y63819D01*
X21169D01*
Y65421D01*
D02*
G37*
G36*
X15551D02*
X10721D01*
Y63819D01*
X15551D01*
Y65421D01*
D02*
G37*
G36*
X21169Y63032D02*
X16339D01*
Y61429D01*
X21169D01*
Y63032D01*
D02*
G37*
G36*
X15551D02*
X10721D01*
Y61429D01*
X15551D01*
Y63032D01*
D02*
G37*
%LPD*%
G36*
X61006Y89836D02*
X57406D01*
X56205Y91036D01*
Y92836D01*
X57406Y94036D01*
X61006D01*
Y89836D01*
D02*
G37*
G36*
X54818Y92836D02*
Y91036D01*
X56018Y89836D01*
X50787Y89836D01*
Y94036D01*
X56018Y94036D01*
X54818Y92836D01*
D02*
G37*
G36*
X59881Y81955D02*
X57481D01*
X56881Y82555D01*
Y85555D01*
X57481Y86155D01*
X59881D01*
Y81955D01*
D02*
G37*
G36*
X55494Y85555D02*
Y82555D01*
X56094Y81955D01*
X51894D01*
X52494Y82555D01*
Y85555D01*
X51894Y86155D01*
X56094D01*
X55494Y85555D01*
D02*
G37*
G36*
X51106D02*
Y82555D01*
X50506Y81955D01*
X48106D01*
Y86155D01*
X50506D01*
X51106Y85555D01*
D02*
G37*
G36*
X131890Y61024D02*
X123366D01*
X123138Y61429D01*
X123138Y61524D01*
Y63032D01*
X117913D01*
Y63425D01*
X117520D01*
Y65421D01*
X112705D01*
X112689Y65421D01*
X112205Y65459D01*
Y67616D01*
X112789D01*
Y66529D01*
X123038D01*
Y69921D01*
X131890D01*
X131890Y61024D01*
D02*
G37*
G36*
X109055Y60040D02*
X108949Y59783D01*
Y59114D01*
X109055Y58858D01*
Y51968D01*
X96457D01*
Y66142D01*
X109055D01*
Y60040D01*
D02*
G37*
%LPC*%
G36*
X118307Y65421D02*
Y63819D01*
X123138D01*
Y65421D01*
X118307D01*
D02*
G37*
%LPD*%
D11*
X30759Y27559D02*
X35433D01*
X30700Y27500D02*
X30759Y27559D01*
X35433D02*
X42126Y34252D01*
X23720Y125770D02*
X40574D01*
X40615Y125730D01*
X15945Y118425D02*
X31299D01*
X21200Y123250D02*
X23720Y125770D01*
X16120Y123250D02*
X21200D01*
X15945Y123425D02*
X16120Y123250D01*
X24919Y118350D02*
X31224D01*
X31299Y118425D01*
X24919Y123450D02*
X31274D01*
X31299Y123425D01*
X7177Y115377D02*
X10200Y118400D01*
X15920D01*
X7177Y112878D02*
Y115377D01*
X15920Y118400D02*
X15945Y118425D01*
X7150Y112850D02*
X7177Y112878D01*
X7029Y123425D02*
X15945D01*
Y113425D02*
X31299D01*
X56329Y128425D02*
X59023Y131119D01*
X80974Y85541D02*
X85003Y89570D01*
X80974Y81070D02*
Y85541D01*
X102559Y133425D02*
X103020Y132965D01*
X117453D02*
X117913Y133425D01*
X103020Y132965D02*
X117453D01*
X128740Y118898D02*
Y125984D01*
X106102Y123425D02*
X106158Y123370D01*
X125591Y109055D02*
Y122047D01*
X105905Y128425D02*
X105984Y128347D01*
X105512Y128740D02*
X105905Y128347D01*
X126299Y128425D02*
X128740Y125984D01*
X124213Y123425D02*
X125591Y122047D01*
X53054Y97742D02*
Y98731D01*
X52256Y96943D02*
X53054Y97742D01*
X53934Y84115D02*
X53994Y84055D01*
X53874Y87970D02*
X53934Y87910D01*
Y84115D02*
Y87910D01*
X106158Y123370D02*
X117858D01*
X117913Y123425D02*
X124213D01*
X102559Y128425D02*
X105512D01*
X105984Y128347D02*
X117835D01*
X117913Y128425D01*
X106102Y123425D02*
X106299Y123228D01*
X102559Y123425D02*
X106102D01*
X117858Y123370D02*
X117913Y123425D01*
X103114Y118870D02*
X106135D01*
X102669Y118425D02*
X103114Y118870D01*
X117913Y128425D02*
X126299D01*
X46063Y51181D02*
Y89764D01*
X15945Y93425D02*
X31299D01*
X42402D02*
X46063Y89764D01*
X42126Y34252D02*
Y47244D01*
X46063Y51181D01*
X49544Y84055D02*
X49606D01*
X31299Y93425D02*
X42402D01*
X3150Y48094D02*
X13774Y37470D01*
X3150Y119546D02*
X7029Y123425D01*
X3150Y48094D02*
Y119546D01*
X16000Y68370D02*
X31299D01*
X13780Y40551D02*
X37402D01*
X5512Y48819D02*
X13780Y40551D01*
X5512Y48819D02*
Y64961D01*
X8976Y68425D01*
X15945D01*
X17323Y55512D02*
X19055Y57244D01*
X27685D01*
X17323Y52362D02*
Y55512D01*
Y52362D02*
X20472Y49213D01*
X39370D02*
X41142Y50984D01*
X32255Y88189D02*
X39370D01*
X41142Y50984D02*
Y86417D01*
X39370Y88189D02*
X41142Y86417D01*
X20472Y49213D02*
X39370D01*
X16190Y88670D02*
X31774D01*
X32255Y88189D01*
X37402Y52362D02*
X38976Y53937D01*
X27953Y52362D02*
X37402D01*
X38976Y53937D02*
Y77559D01*
X31102Y78347D02*
X38189D01*
X38976Y77559D01*
X15945Y78425D02*
X31299D01*
X49213Y104724D02*
X52770D01*
X53054Y104440D01*
X91339Y55118D02*
Y113779D01*
X95984Y118425D02*
X102559D01*
X91339Y113779D02*
X95984Y118425D01*
X70223Y48819D02*
X90158D01*
X102669Y118425D02*
X106135D01*
X66467Y51968D02*
X88189D01*
X63236Y48738D02*
X66467Y51968D01*
X88189D02*
X91339Y55118D01*
X94095Y52756D02*
Y101850D01*
X95669Y103425D01*
X90158Y48819D02*
X94095Y52756D01*
X87402Y94037D02*
X88976Y92463D01*
Y86589D02*
Y92463D01*
X86647Y84259D02*
X88976Y86589D01*
X87402Y94037D02*
Y94499D01*
X86647Y83833D02*
Y84259D01*
X102559Y103425D02*
X116074D01*
X117913D01*
X95669D02*
X102559D01*
Y118425D02*
X102669D01*
X102559Y98425D02*
X117913D01*
X31499Y68570D02*
X34074D01*
X31299Y68370D02*
X31499Y68570D01*
X102559Y68425D02*
X117913D01*
X102559Y73425D02*
X117913D01*
X102559Y78425D02*
X117913D01*
X102559Y83425D02*
X117913D01*
X102559Y88425D02*
X117913D01*
X102559Y93425D02*
X117913D01*
X102559Y108425D02*
X117913D01*
X106135Y113425D02*
X106190Y113370D01*
X102559Y113425D02*
X102669D01*
X102559D02*
X106135D01*
X102669D02*
X102814Y113570D01*
X106135D01*
X106190Y113370D02*
X117858D01*
X117913Y113425D01*
X106191Y118370D02*
X117858D01*
X106135Y118425D02*
X106191Y118370D01*
X117858D02*
X117913Y118425D01*
X27459Y37470D02*
X27685Y37244D01*
X13774Y37470D02*
X27459D01*
X15945Y68425D02*
X16000Y68370D01*
X15945Y73425D02*
X31299D01*
X15945Y98425D02*
X31299D01*
X15945Y103425D02*
X31299D01*
X55849Y123622D02*
X62205D01*
X60274Y133570D02*
X62205Y131639D01*
Y123622D02*
Y131639D01*
X56174Y133570D02*
X60274D01*
X53474Y130870D02*
X56174Y133570D01*
X24974Y130870D02*
X53474D01*
X22529Y128425D02*
X24974Y130870D01*
X15945Y128425D02*
X22529D01*
X31299D02*
X56329D01*
D22*
X55849Y123622D02*
D03*
X49944D02*
D03*
D25*
X52661Y104440D02*
D03*
Y98731D02*
D03*
D26*
X76378Y57480D02*
D03*
X85003Y89570D02*
D03*
X87402Y94499D02*
D03*
X82174D02*
D03*
X80074Y89570D02*
D03*
X69574D02*
D03*
X62205Y123622D02*
D03*
X74803D02*
D03*
X51968Y111024D02*
D03*
X74774Y89570D02*
D03*
X68504Y123622D02*
D03*
X71653Y133071D02*
D03*
X81890Y55118D02*
D03*
D81*
X60467Y83927D02*
Y84055D01*
X61012Y81114D02*
Y83381D01*
Y81114D02*
X61282Y80844D01*
X60467Y83927D02*
X61012Y83381D01*
X58381Y84055D02*
X60467D01*
D83*
X11811Y11811D02*
D03*
D84*
X125985Y133858D02*
D03*
Y102362D02*
D03*
X129921Y94488D02*
D03*
X125985Y86614D02*
D03*
X129921Y78740D02*
D03*
Y47244D02*
D03*
X125985Y23622D02*
D03*
X129921Y15748D02*
D03*
X122047Y47244D02*
D03*
X118110Y23622D02*
D03*
X122047Y15748D02*
D03*
X110236Y70866D02*
D03*
X114173Y31496D02*
D03*
Y15748D02*
D03*
X110236Y7874D02*
D03*
X102362D02*
D03*
X86614Y133858D02*
D03*
X90551Y125984D02*
D03*
X82677Y110236D02*
D03*
X74803Y62992D02*
D03*
X66929D02*
D03*
X59055D02*
D03*
X55118Y55118D02*
D03*
X47244Y133858D02*
D03*
X51181Y62992D02*
D03*
X47244Y7874D02*
D03*
X39370D02*
D03*
X35433Y31496D02*
D03*
X31496Y7874D02*
D03*
X23622Y70866D02*
D03*
X27559Y31496D02*
D03*
X23622Y7874D02*
D03*
X19685Y47244D02*
D03*
Y31496D02*
D03*
X15748Y23622D02*
D03*
X7874Y133858D02*
D03*
Y23622D02*
D03*
X30700Y27500D02*
D03*
X13950Y136300D02*
D03*
X84200Y131850D02*
D03*
X28723Y144697D02*
D03*
X38525Y134621D02*
D03*
X38412Y137981D02*
D03*
X41774D02*
D03*
X45136D02*
D03*
X55179Y137319D02*
D03*
X58541D02*
D03*
X68520Y137868D02*
D03*
X71882Y137815D02*
D03*
X75058Y136713D02*
D03*
X77366Y134269D02*
D03*
X79747Y124818D02*
D03*
X83120Y134779D02*
D03*
X81601Y137779D02*
D03*
X79342Y140269D02*
D03*
X76526Y142105D02*
D03*
X73325Y143133D02*
D03*
X69969Y143345D02*
D03*
X66628Y143719D02*
D03*
X63282Y144050D02*
D03*
X59923Y144208D02*
D03*
X56561D02*
D03*
X53214Y143888D02*
D03*
X49867Y144208D02*
D03*
X46590Y143458D02*
D03*
X43228D02*
D03*
X39865D02*
D03*
X36567Y144112D02*
D03*
X40615Y125730D02*
D03*
X24919Y118350D02*
D03*
Y123450D02*
D03*
X7150Y112850D02*
D03*
X24919Y113370D02*
D03*
X59023Y131119D02*
D03*
X31496Y192913D02*
D03*
X39370D02*
D03*
X47244D02*
D03*
X55118D02*
D03*
X62992D02*
D03*
X70866D02*
D03*
X78740D02*
D03*
X86614D02*
D03*
X94488D02*
D03*
X102362Y173228D02*
D03*
X94488D02*
D03*
X86614D02*
D03*
X78740D02*
D03*
X70866D02*
D03*
X62992D02*
D03*
X55118D02*
D03*
X47244D02*
D03*
X39370D02*
D03*
X57087Y106299D02*
D03*
X79324Y89820D02*
D03*
X61282Y80844D02*
D03*
X62263Y34764D02*
D03*
Y38764D02*
D03*
X70263D02*
D03*
Y34764D02*
D03*
X66263Y36764D02*
D03*
X96457Y83465D02*
D03*
X124803D02*
D03*
X110351Y132965D02*
D03*
X128740Y118898D02*
D03*
X125591Y109055D02*
D03*
X106299Y55118D02*
D03*
X98819D02*
D03*
X102756D02*
D03*
X51968Y111024D02*
D03*
X52256Y96943D02*
D03*
X53445Y93020D02*
D03*
X53874Y87970D02*
D03*
X20716Y141591D02*
D03*
X7330Y129977D02*
D03*
Y141591D02*
D03*
X94980Y128740D02*
D03*
X34646Y63386D02*
D03*
X31299Y63425D02*
D03*
X27559Y63386D02*
D03*
X55478Y13453D02*
D03*
X9449Y64173D02*
D03*
X18504Y60236D02*
D03*
X14961D02*
D03*
X11417D02*
D03*
X7874D02*
D03*
X81890Y55118D02*
D03*
X76378Y57480D02*
D03*
X105905Y128347D02*
D03*
X106299Y123228D02*
D03*
X106135Y118870D02*
D03*
X49544Y84055D02*
D03*
X43307Y66535D02*
D03*
X37402Y40551D02*
D03*
X27685Y57244D02*
D03*
X7229Y83524D02*
D03*
X49434Y65692D02*
D03*
X27953Y52362D02*
D03*
X31102Y78347D02*
D03*
X22843Y83524D02*
D03*
X30709Y14961D02*
D03*
X32283Y11811D02*
D03*
X32283Y18110D02*
D03*
X42913Y101575D02*
D03*
X38974Y90377D02*
D03*
X6890Y74705D02*
D03*
X23678Y95509D02*
D03*
X6473Y104958D02*
D03*
X11685Y33406D02*
D03*
X47305Y14968D02*
D03*
X88386Y63681D02*
D03*
X77038Y65692D02*
D03*
X70137D02*
D03*
X63236D02*
D03*
X56335D02*
D03*
X49573Y27587D02*
D03*
Y49066D02*
D03*
X45734Y45228D02*
D03*
Y38326D02*
D03*
Y31425D02*
D03*
X70137Y58382D02*
D03*
X63236Y58482D02*
D03*
X85316Y36189D02*
D03*
Y28894D02*
D03*
X77067Y13386D02*
D03*
X103347Y14862D02*
D03*
X113091Y44579D02*
D03*
X115157Y49213D02*
D03*
X127362Y65748D02*
D03*
X124803Y68504D02*
D03*
X129921Y68504D02*
D03*
X124803Y62992D02*
D03*
X129921D02*
D03*
X49213Y104724D02*
D03*
X59449Y90945D02*
D03*
X110630Y59449D02*
D03*
X23228Y90945D02*
D03*
X7087Y100787D02*
D03*
Y95669D02*
D03*
Y89370D02*
D03*
X106299Y43622D02*
D03*
Y33858D02*
D03*
X103858Y38740D02*
D03*
X101417Y33858D02*
D03*
X98976Y48504D02*
D03*
X96535Y43622D02*
D03*
X98976Y38740D02*
D03*
X96535Y33858D02*
D03*
X55118Y6299D02*
D03*
X53150Y3543D02*
D03*
Y9055D02*
D03*
X56693Y3543D02*
D03*
Y9055D02*
D03*
X50394Y19291D02*
D03*
Y14961D02*
D03*
X48819Y12205D02*
D03*
X50394Y23228D02*
D03*
X82677Y46457D02*
D03*
X85433Y43307D02*
D03*
X75197Y27165D02*
D03*
X79528Y25197D02*
D03*
X75197Y32677D02*
D03*
X75591Y39764D02*
D03*
X79528Y43307D02*
D03*
Y36220D02*
D03*
Y28740D02*
D03*
X59055Y23228D02*
D03*
X59449Y31496D02*
D03*
X59055Y38189D02*
D03*
X59449Y45276D02*
D03*
X55512Y48425D02*
D03*
Y41732D02*
D03*
Y34646D02*
D03*
Y27165D02*
D03*
X43307Y61024D02*
D03*
Y63779D02*
D03*
X86221Y66142D02*
D03*
X84252Y63386D02*
D03*
X82284Y66142D02*
D03*
X70223Y48819D02*
D03*
X63236Y48738D02*
D03*
X86647Y83833D02*
D03*
X34074Y68570D02*
D03*
X106135Y113570D02*
D03*
X120374Y68270D02*
D03*
X120474Y73270D02*
D03*
X120574Y78470D02*
D03*
X116174Y88370D02*
D03*
X116074Y103470D02*
D03*
Y98570D02*
D03*
Y93270D02*
D03*
X74803Y123622D02*
D03*
X68504D02*
D03*
X71674Y133070D02*
D03*
X82724Y94499D02*
D03*
X80974Y81070D02*
D03*
X69574Y89570D02*
D03*
X74774D02*
D03*
X27685Y37244D02*
D03*
X7274Y118570D02*
D03*
X31774Y88670D02*
D03*
X29074Y94070D02*
D03*
X26974Y98670D02*
D03*
X24674Y103470D02*
D03*
X62205Y123622D02*
D03*
X31299Y73425D02*
D03*
D85*
X76772Y96457D02*
D03*
Y106299D02*
D03*
Y116142D02*
D03*
X66929Y96457D02*
D03*
Y106299D02*
D03*
Y116142D02*
D03*
X57087D02*
D03*
Y96457D02*
D03*
D89*
X117913Y133425D02*
D03*
X102559D02*
D03*
X117913Y128425D02*
D03*
X102559D02*
D03*
X117913Y123425D02*
D03*
X102559D02*
D03*
X117913Y118425D02*
D03*
X102559D02*
D03*
X117913Y113425D02*
D03*
X102559D02*
D03*
X117913Y108425D02*
D03*
X102559D02*
D03*
X117913Y103425D02*
D03*
X102559D02*
D03*
X117913Y98425D02*
D03*
X102559D02*
D03*
X117913Y93425D02*
D03*
X102559D02*
D03*
X117913Y88425D02*
D03*
X102559D02*
D03*
X117913Y83425D02*
D03*
X102559D02*
D03*
X117913Y78425D02*
D03*
X102559D02*
D03*
X117913Y73425D02*
D03*
X102559D02*
D03*
X117913Y68425D02*
D03*
X102559D02*
D03*
X117913Y63425D02*
D03*
X102559D02*
D03*
X31299Y133425D02*
D03*
X15945D02*
D03*
X31299Y128425D02*
D03*
X15945D02*
D03*
X31299Y123425D02*
D03*
X15945D02*
D03*
X31299Y118425D02*
D03*
X15945D02*
D03*
X31299Y113425D02*
D03*
X15945D02*
D03*
X31299Y108425D02*
D03*
X15945D02*
D03*
X31299Y103425D02*
D03*
X15945D02*
D03*
X31299Y98425D02*
D03*
X15945D02*
D03*
X31299Y93425D02*
D03*
X15945D02*
D03*
X31299Y88425D02*
D03*
X15945D02*
D03*
X31299Y83425D02*
D03*
X15945D02*
D03*
X31299Y78425D02*
D03*
X15945D02*
D03*
X31299Y73425D02*
D03*
X15945D02*
D03*
X31299Y68425D02*
D03*
X15945D02*
D03*
X31299Y63425D02*
D03*
X15945D02*
D03*
D90*
X58906Y91936D02*
D03*
X52418D02*
D03*
X58381Y84055D02*
D03*
X49606D02*
D03*
X53994D02*
D03*
D91*
X15546Y133425D02*
X15945D01*
X14250Y134721D02*
X15546Y133425D01*
X51181Y111417D02*
X51575D01*
X51968Y111024D01*
X53445Y92963D02*
Y93020D01*
X52418Y91936D02*
X53445Y92963D01*
D92*
X35433Y177165D02*
X39370Y173228D01*
X35433Y177165D02*
Y188976D01*
X31496Y192913D02*
X35433Y188976D01*
X43307Y177165D02*
X47244Y173228D01*
X43307Y177165D02*
Y188976D01*
X39370Y192913D02*
X43307Y188976D01*
X51181Y177165D02*
X55118Y173228D01*
X51181Y177165D02*
Y188976D01*
X47244Y192913D02*
X51181Y188976D01*
X59055Y177165D02*
X62992Y173228D01*
X59055Y177165D02*
Y188976D01*
X55118Y192913D02*
X59055Y188976D01*
X66929Y177165D02*
X70866Y173228D01*
X66929Y177165D02*
Y188976D01*
X62992Y192913D02*
X66929Y188976D01*
X74803Y177165D02*
X78740Y173228D01*
X74803Y177165D02*
Y188976D01*
X70866Y192913D02*
X74803Y188976D01*
X82677Y177165D02*
X86614Y173228D01*
X82677Y177165D02*
Y188976D01*
X78740Y192913D02*
X82677Y188976D01*
X90551Y177165D02*
X94488Y173228D01*
X90551Y177165D02*
Y188976D01*
X86614Y192913D02*
X90551Y188976D01*
X98425Y177165D02*
X102362Y173228D01*
X98425Y177165D02*
Y188976D01*
X94488Y192913D02*
X98425Y188976D01*
M02*
