G04*
G04 #@! TF.GenerationSoftware,Altium Limited,Altium Designer,21.0.8 (223)*
G04*
G04 Layer_Color=65535*
%FSLAX25Y25*%
%MOIN*%
G70*
G04*
G04 #@! TF.SameCoordinates,33316FA8-22EC-4851-BF61-47935A3E7C20*
G04*
G04*
G04 #@! TF.FilePolarity,Positive*
G04*
G01*
G75*
%ADD10C,0.00591*%
%ADD11C,0.00787*%
%ADD12C,0.00984*%
%ADD13C,0.00394*%
%ADD14C,0.00000*%
%ADD15C,0.01000*%
%ADD16C,0.00500*%
%ADD17C,0.00197*%
G36*
X122693Y103998D02*
X122908D01*
Y103955D01*
X123081D01*
Y103912D01*
X123210D01*
Y103869D01*
X123296D01*
Y103826D01*
X123425D01*
Y103783D01*
X123511D01*
Y103740D01*
X123554D01*
Y103697D01*
X123641D01*
Y103654D01*
X123727D01*
Y103611D01*
X123770D01*
Y103568D01*
X123856D01*
Y103525D01*
X123899D01*
Y103482D01*
X123942D01*
Y103439D01*
X123985D01*
Y103396D01*
X124028D01*
Y103353D01*
X124071D01*
Y103310D01*
X124114D01*
Y103267D01*
X124157D01*
Y103223D01*
X124200D01*
Y103180D01*
X124243D01*
Y103137D01*
X124286D01*
Y103094D01*
Y103051D01*
X124329D01*
Y103008D01*
X124373D01*
Y102965D01*
X124416D01*
Y102922D01*
Y102879D01*
X124459D01*
Y102836D01*
Y102793D01*
X124502D01*
Y102750D01*
X124545D01*
Y102707D01*
Y102664D01*
X124588D01*
Y102621D01*
Y102577D01*
Y102534D01*
X124631D01*
Y102491D01*
Y102448D01*
X124674D01*
Y102405D01*
Y102362D01*
Y102319D01*
X124717D01*
Y102276D01*
Y102233D01*
Y102190D01*
Y102147D01*
X124760D01*
Y102104D01*
Y102061D01*
Y102018D01*
Y101975D01*
Y101932D01*
X124803D01*
Y101889D01*
Y101846D01*
Y101802D01*
Y101759D01*
Y101716D01*
Y101673D01*
Y101630D01*
Y101587D01*
Y101544D01*
Y101501D01*
Y101458D01*
Y101415D01*
Y101372D01*
Y101329D01*
Y101286D01*
X124760D01*
Y101243D01*
Y101200D01*
Y101156D01*
Y101113D01*
Y101070D01*
X124717D01*
Y101027D01*
Y100984D01*
Y100941D01*
Y100898D01*
X124674D01*
Y100855D01*
Y100812D01*
Y100769D01*
X124631D01*
Y100726D01*
Y100683D01*
Y100640D01*
X124588D01*
Y100597D01*
Y100554D01*
X124545D01*
Y100511D01*
Y100468D01*
X124502D01*
Y100425D01*
Y100381D01*
X124459D01*
Y100338D01*
X124416D01*
Y100295D01*
Y100252D01*
X124373D01*
Y100209D01*
X124329D01*
Y100166D01*
Y100123D01*
X124286D01*
Y100080D01*
X124243D01*
Y100037D01*
X124200D01*
Y99994D01*
X124157D01*
Y99951D01*
X124114D01*
Y99908D01*
X124071D01*
Y99865D01*
X124028D01*
Y99822D01*
X123985D01*
Y99778D01*
X123942D01*
Y99735D01*
X123899D01*
Y99692D01*
X123856D01*
Y99649D01*
X123770D01*
Y99606D01*
X123727D01*
Y99563D01*
X123641D01*
Y99520D01*
X123598D01*
Y99477D01*
X123511D01*
Y99434D01*
X123425D01*
Y99391D01*
X123339D01*
Y99348D01*
X123210D01*
Y99305D01*
X123124D01*
Y99262D01*
X122951D01*
Y99219D01*
X122736D01*
Y99176D01*
X122004D01*
Y99219D01*
X121789D01*
Y99262D01*
X121617D01*
Y99305D01*
X121487D01*
Y99348D01*
X121401D01*
Y99391D01*
X121315D01*
Y99434D01*
X121229D01*
Y99477D01*
X121143D01*
Y99434D01*
X121100D01*
Y99391D01*
X121057D01*
Y99348D01*
X121014D01*
Y99305D01*
X120971D01*
Y99262D01*
X120928D01*
Y99219D01*
X120885D01*
Y99176D01*
X120842D01*
Y99133D01*
X120799D01*
Y99090D01*
X120755D01*
Y99046D01*
X120712D01*
Y99003D01*
X120669D01*
Y98960D01*
X120626D01*
Y98917D01*
X120583D01*
Y98874D01*
X120540D01*
Y98831D01*
X120497D01*
Y98788D01*
X120454D01*
Y98745D01*
X120411D01*
Y98702D01*
X120368D01*
Y98659D01*
X120325D01*
Y98616D01*
X120282D01*
Y98573D01*
X120239D01*
Y98530D01*
X120196D01*
Y98487D01*
X120153D01*
Y98444D01*
X120109D01*
Y98401D01*
X120066D01*
Y98357D01*
X120023D01*
Y98314D01*
X119980D01*
Y98271D01*
X119937D01*
Y98228D01*
X119894D01*
Y98185D01*
X119851D01*
Y98142D01*
X119808D01*
Y98099D01*
X119765D01*
Y98056D01*
X119722D01*
Y98013D01*
X119679D01*
Y97970D01*
X119636D01*
Y97927D01*
X119593D01*
Y97884D01*
X119550D01*
Y97841D01*
X119507D01*
Y97798D01*
X119464D01*
Y97755D01*
X119421D01*
Y97712D01*
X119378D01*
Y97669D01*
X119334D01*
Y97625D01*
X119291D01*
Y97582D01*
X119248D01*
Y97539D01*
X119205D01*
Y97496D01*
X119162D01*
Y97453D01*
X119119D01*
Y97410D01*
X119076D01*
Y97367D01*
X119033D01*
Y97324D01*
X118990D01*
Y97281D01*
X118947D01*
Y97238D01*
X118904D01*
Y97195D01*
X118861D01*
Y97152D01*
X118818D01*
Y97109D01*
X118775D01*
Y97066D01*
X118731D01*
Y97023D01*
X118688D01*
Y96980D01*
X118645D01*
Y96937D01*
X118602D01*
Y96894D01*
Y96850D01*
Y96807D01*
X118645D01*
Y96764D01*
X118688D01*
Y96721D01*
X118731D01*
Y96678D01*
Y96635D01*
X118775D01*
Y96592D01*
X118818D01*
Y96549D01*
Y96506D01*
X118861D01*
Y96463D01*
X118904D01*
Y96420D01*
X118947D01*
Y96377D01*
Y96334D01*
X118990D01*
Y96291D01*
Y96248D01*
X119033D01*
Y96205D01*
X119076D01*
Y96161D01*
Y96118D01*
X119119D01*
Y96075D01*
Y96032D01*
X119162D01*
Y95989D01*
X119205D01*
Y95946D01*
Y95903D01*
X119248D01*
Y95860D01*
Y95817D01*
X119291D01*
Y95774D01*
Y95731D01*
X119334D01*
Y95688D01*
Y95645D01*
X119378D01*
Y95602D01*
Y95559D01*
X119421D01*
Y95516D01*
Y95472D01*
Y95429D01*
X119464D01*
Y95386D01*
Y95343D01*
X119507D01*
Y95300D01*
Y95257D01*
Y95214D01*
X119550D01*
Y95171D01*
Y95128D01*
X119593D01*
Y95085D01*
Y95042D01*
Y94999D01*
X119636D01*
Y94956D01*
Y94913D01*
Y94870D01*
X119679D01*
Y94827D01*
Y94784D01*
Y94740D01*
Y94697D01*
X119722D01*
Y94654D01*
Y94611D01*
Y94568D01*
X119765D01*
Y94525D01*
Y94482D01*
Y94439D01*
Y94396D01*
X119808D01*
Y94353D01*
Y94310D01*
Y94267D01*
Y94224D01*
Y94181D01*
X119851D01*
Y94138D01*
Y94095D01*
Y94051D01*
Y94008D01*
Y93965D01*
Y93922D01*
X119894D01*
Y93879D01*
Y93836D01*
Y93793D01*
Y93750D01*
Y93707D01*
Y93664D01*
X120971D01*
Y93707D01*
X121014D01*
Y93750D01*
Y93793D01*
X121057D01*
Y93836D01*
Y93879D01*
X121100D01*
Y93922D01*
Y93965D01*
X121143D01*
Y94008D01*
Y94051D01*
X121186D01*
Y94095D01*
X121229D01*
Y94138D01*
Y94181D01*
X121272D01*
Y94224D01*
X121315D01*
Y94267D01*
X121358D01*
Y94310D01*
Y94353D01*
X121401D01*
Y94396D01*
X121444D01*
Y94439D01*
X121487D01*
Y94482D01*
X121530D01*
Y94525D01*
X121617D01*
Y94568D01*
X121660D01*
Y94611D01*
X121703D01*
Y94654D01*
X121789D01*
Y94697D01*
X121832D01*
Y94740D01*
X121918D01*
Y94784D01*
X122004D01*
Y94827D01*
X122133D01*
Y94870D01*
X122220D01*
Y94913D01*
X122392D01*
Y94956D01*
X122650D01*
Y94999D01*
X122995D01*
Y94956D01*
X123296D01*
Y94913D01*
X123425D01*
Y94870D01*
X123554D01*
Y94827D01*
X123641D01*
Y94784D01*
X123727D01*
Y94740D01*
X123813D01*
Y94697D01*
X123899D01*
Y94654D01*
X123942D01*
Y94611D01*
X124028D01*
Y94568D01*
X124071D01*
Y94525D01*
X124114D01*
Y94482D01*
X124157D01*
Y94439D01*
X124200D01*
Y94396D01*
X124243D01*
Y94353D01*
X124286D01*
Y94310D01*
X124329D01*
Y94267D01*
X124373D01*
Y94224D01*
X124416D01*
Y94181D01*
Y94138D01*
X124459D01*
Y94095D01*
X124502D01*
Y94051D01*
Y94008D01*
X124545D01*
Y93965D01*
X124588D01*
Y93922D01*
Y93879D01*
X124631D01*
Y93836D01*
Y93793D01*
X124674D01*
Y93750D01*
Y93707D01*
Y93664D01*
X124717D01*
Y93621D01*
Y93578D01*
Y93535D01*
Y93492D01*
X124760D01*
Y93449D01*
Y93405D01*
Y93362D01*
Y93319D01*
Y93276D01*
X124803D01*
Y93233D01*
Y93190D01*
Y93147D01*
Y93104D01*
Y93061D01*
Y93018D01*
Y92975D01*
Y92932D01*
Y92889D01*
Y92846D01*
Y92803D01*
Y92760D01*
X124760D01*
Y92716D01*
Y92673D01*
Y92630D01*
Y92587D01*
Y92544D01*
X124717D01*
Y92501D01*
Y92458D01*
Y92415D01*
Y92372D01*
X124674D01*
Y92329D01*
Y92286D01*
X124631D01*
Y92243D01*
Y92200D01*
Y92157D01*
X124588D01*
Y92114D01*
Y92071D01*
X124545D01*
Y92028D01*
X124502D01*
Y91984D01*
Y91941D01*
X124459D01*
Y91898D01*
X124416D01*
Y91855D01*
Y91812D01*
X124373D01*
Y91769D01*
X124329D01*
Y91726D01*
X124286D01*
Y91683D01*
X124243D01*
Y91640D01*
X124200D01*
Y91597D01*
X124157D01*
Y91554D01*
X124114D01*
Y91511D01*
X124071D01*
Y91468D01*
X124028D01*
Y91425D01*
X123942D01*
Y91382D01*
X123899D01*
Y91339D01*
X123813D01*
Y91295D01*
X123727D01*
Y91252D01*
X123641D01*
Y91209D01*
X123554D01*
Y91166D01*
X123425D01*
Y91123D01*
X123253D01*
Y91080D01*
X122908D01*
Y91037D01*
X122779D01*
Y91080D01*
X122435D01*
Y91123D01*
X122263D01*
Y91166D01*
X122133D01*
Y91209D01*
X122047D01*
Y91252D01*
X121961D01*
Y91295D01*
X121875D01*
Y91339D01*
X121789D01*
Y91382D01*
X121746D01*
Y91425D01*
X121660D01*
Y91468D01*
X121617D01*
Y91511D01*
X121574D01*
Y91554D01*
X121530D01*
Y91597D01*
X121444D01*
Y91640D01*
X121401D01*
Y91683D01*
Y91726D01*
X121358D01*
Y91769D01*
X121315D01*
Y91812D01*
X121272D01*
Y91855D01*
X121229D01*
Y91898D01*
Y91941D01*
X121186D01*
Y91984D01*
X121143D01*
Y92028D01*
Y92071D01*
X121100D01*
Y92114D01*
Y92157D01*
X121057D01*
Y92200D01*
Y92243D01*
X121014D01*
Y92286D01*
Y92329D01*
X120971D01*
Y92372D01*
X119894D01*
Y92329D01*
Y92286D01*
Y92243D01*
Y92200D01*
Y92157D01*
Y92114D01*
X119851D01*
Y92071D01*
Y92028D01*
Y91984D01*
Y91941D01*
Y91898D01*
Y91855D01*
X119808D01*
Y91812D01*
Y91769D01*
Y91726D01*
Y91683D01*
Y91640D01*
X119765D01*
Y91597D01*
Y91554D01*
Y91511D01*
Y91468D01*
X119722D01*
Y91425D01*
Y91382D01*
Y91339D01*
X119679D01*
Y91295D01*
Y91252D01*
Y91209D01*
Y91166D01*
X119636D01*
Y91123D01*
Y91080D01*
Y91037D01*
X119593D01*
Y90994D01*
Y90951D01*
Y90908D01*
X119550D01*
Y90865D01*
Y90822D01*
X119507D01*
Y90779D01*
Y90736D01*
Y90693D01*
X119464D01*
Y90650D01*
Y90607D01*
X119421D01*
Y90563D01*
Y90520D01*
Y90477D01*
X119378D01*
Y90434D01*
Y90391D01*
X119334D01*
Y90348D01*
Y90305D01*
X119291D01*
Y90262D01*
Y90219D01*
X119248D01*
Y90176D01*
Y90133D01*
X119205D01*
Y90090D01*
Y90047D01*
X119162D01*
Y90004D01*
X119119D01*
Y89961D01*
Y89918D01*
X119076D01*
Y89875D01*
Y89831D01*
X119033D01*
Y89788D01*
X118990D01*
Y89745D01*
Y89702D01*
X118947D01*
Y89659D01*
X118904D01*
Y89616D01*
Y89573D01*
X118861D01*
Y89530D01*
X118818D01*
Y89487D01*
Y89444D01*
X118775D01*
Y89401D01*
X118731D01*
Y89358D01*
Y89315D01*
X118688D01*
Y89272D01*
X118645D01*
Y89229D01*
X118602D01*
Y89186D01*
Y89143D01*
X118645D01*
Y89099D01*
X118688D01*
Y89056D01*
X118731D01*
Y89013D01*
X118775D01*
Y88970D01*
X118818D01*
Y88927D01*
X118861D01*
Y88884D01*
X118904D01*
Y88841D01*
X118947D01*
Y88798D01*
X118990D01*
Y88755D01*
X119033D01*
Y88712D01*
X119076D01*
Y88669D01*
X119119D01*
Y88626D01*
X119162D01*
Y88583D01*
X119205D01*
Y88540D01*
X119248D01*
Y88497D01*
X119291D01*
Y88454D01*
X119334D01*
Y88410D01*
X119378D01*
Y88367D01*
X119421D01*
Y88324D01*
X119464D01*
Y88281D01*
X119507D01*
Y88238D01*
X119550D01*
Y88195D01*
X119593D01*
Y88152D01*
X119636D01*
Y88109D01*
X119679D01*
Y88066D01*
X119722D01*
Y88023D01*
X119765D01*
Y87980D01*
X119808D01*
Y87937D01*
X119851D01*
Y87894D01*
X119894D01*
Y87851D01*
X119937D01*
Y87808D01*
X119980D01*
Y87765D01*
X120023D01*
Y87722D01*
X120066D01*
Y87678D01*
X120109D01*
Y87635D01*
X120153D01*
Y87592D01*
X120196D01*
Y87549D01*
X120239D01*
Y87506D01*
X120282D01*
Y87463D01*
X120325D01*
Y87420D01*
X120368D01*
Y87377D01*
X120411D01*
Y87334D01*
X120454D01*
Y87291D01*
X120497D01*
Y87248D01*
X120540D01*
Y87205D01*
X120583D01*
Y87162D01*
X120626D01*
Y87119D01*
X120669D01*
Y87076D01*
X120712D01*
Y87033D01*
X120755D01*
Y86989D01*
X120799D01*
Y86946D01*
X120842D01*
Y86903D01*
X120885D01*
Y86860D01*
X120928D01*
Y86817D01*
X120971D01*
Y86774D01*
X121014D01*
Y86731D01*
X121057D01*
Y86688D01*
X121100D01*
Y86645D01*
X121143D01*
Y86602D01*
X121186D01*
Y86559D01*
X121229D01*
Y86602D01*
X121315D01*
Y86645D01*
X121401D01*
Y86688D01*
X121487D01*
Y86731D01*
X121617D01*
Y86774D01*
X121789D01*
Y86817D01*
X122004D01*
Y86860D01*
X122736D01*
Y86817D01*
X122951D01*
Y86774D01*
X123124D01*
Y86731D01*
X123210D01*
Y86688D01*
X123339D01*
Y86645D01*
X123425D01*
Y86602D01*
X123511D01*
Y86559D01*
X123598D01*
Y86516D01*
X123684D01*
Y86473D01*
X123727D01*
Y86430D01*
X123770D01*
Y86387D01*
X123856D01*
Y86343D01*
X123899D01*
Y86300D01*
X123942D01*
Y86257D01*
X123985D01*
Y86214D01*
X124028D01*
Y86171D01*
X124071D01*
Y86128D01*
X124114D01*
Y86085D01*
X124157D01*
Y86042D01*
X124200D01*
Y85999D01*
X124243D01*
Y85956D01*
X124286D01*
Y85913D01*
X124329D01*
Y85870D01*
Y85827D01*
X124373D01*
Y85784D01*
X124416D01*
Y85741D01*
Y85698D01*
X124459D01*
Y85654D01*
X124502D01*
Y85611D01*
Y85568D01*
X124545D01*
Y85525D01*
Y85482D01*
X124588D01*
Y85439D01*
Y85396D01*
X124631D01*
Y85353D01*
Y85310D01*
Y85267D01*
X124674D01*
Y85224D01*
Y85181D01*
Y85138D01*
X124717D01*
Y85095D01*
Y85052D01*
Y85009D01*
Y84965D01*
X124760D01*
Y84922D01*
Y84879D01*
Y84836D01*
Y84793D01*
Y84750D01*
X124803D01*
Y84707D01*
Y84664D01*
Y84621D01*
Y84578D01*
Y84535D01*
Y84492D01*
Y84449D01*
Y84406D01*
Y84363D01*
Y84320D01*
Y84277D01*
Y84233D01*
Y84190D01*
Y84147D01*
Y84104D01*
X124760D01*
Y84061D01*
Y84018D01*
Y83975D01*
Y83932D01*
Y83889D01*
X124717D01*
Y83846D01*
Y83803D01*
Y83760D01*
Y83717D01*
X124674D01*
Y83674D01*
Y83631D01*
Y83588D01*
X124631D01*
Y83544D01*
Y83501D01*
X124588D01*
Y83458D01*
Y83415D01*
Y83372D01*
X124545D01*
Y83329D01*
Y83286D01*
X124502D01*
Y83243D01*
X124459D01*
Y83200D01*
Y83157D01*
X124416D01*
Y83114D01*
Y83071D01*
X124373D01*
Y83028D01*
X124329D01*
Y82985D01*
X124286D01*
Y82942D01*
Y82899D01*
X124243D01*
Y82856D01*
X124200D01*
Y82812D01*
X124157D01*
Y82769D01*
X124114D01*
Y82726D01*
X124071D01*
Y82683D01*
X124028D01*
Y82640D01*
X123985D01*
Y82597D01*
X123942D01*
Y82554D01*
X123899D01*
Y82511D01*
X123856D01*
Y82468D01*
X123770D01*
Y82425D01*
X123727D01*
Y82382D01*
X123641D01*
Y82339D01*
X123554D01*
Y82296D01*
X123511D01*
Y82253D01*
X123425D01*
Y82210D01*
X123296D01*
Y82167D01*
X123210D01*
Y82124D01*
X123081D01*
Y82081D01*
X122908D01*
Y82037D01*
X122693D01*
Y81994D01*
X122047D01*
Y82037D01*
X121832D01*
Y82081D01*
X121660D01*
Y82124D01*
X121530D01*
Y82167D01*
X121401D01*
Y82210D01*
X121315D01*
Y82253D01*
X121229D01*
Y82296D01*
X121143D01*
Y82339D01*
X121100D01*
Y82382D01*
X121014D01*
Y82425D01*
X120971D01*
Y82468D01*
X120885D01*
Y82511D01*
X120842D01*
Y82554D01*
X120799D01*
Y82597D01*
X120755D01*
Y82640D01*
X120712D01*
Y82683D01*
X120669D01*
Y82726D01*
X120626D01*
Y82769D01*
X120583D01*
Y82812D01*
X120540D01*
Y82856D01*
X120497D01*
Y82899D01*
X120454D01*
Y82942D01*
X120411D01*
Y82985D01*
Y83028D01*
X120368D01*
Y83071D01*
X120325D01*
Y83114D01*
Y83157D01*
X120282D01*
Y83200D01*
X120239D01*
Y83243D01*
Y83286D01*
X120196D01*
Y83329D01*
Y83372D01*
X120153D01*
Y83415D01*
Y83458D01*
X120109D01*
Y83501D01*
Y83544D01*
Y83588D01*
X120066D01*
Y83631D01*
Y83674D01*
X120023D01*
Y83717D01*
Y83760D01*
Y83803D01*
Y83846D01*
X119980D01*
Y83889D01*
Y83932D01*
Y83975D01*
Y84018D01*
Y84061D01*
X119937D01*
Y84104D01*
Y84147D01*
Y84190D01*
Y84233D01*
Y84277D01*
Y84320D01*
Y84363D01*
Y84406D01*
Y84449D01*
Y84492D01*
Y84535D01*
Y84578D01*
Y84621D01*
Y84664D01*
Y84707D01*
Y84750D01*
Y84793D01*
X119980D01*
Y84836D01*
Y84879D01*
Y84922D01*
Y84965D01*
Y85009D01*
X120023D01*
Y85052D01*
Y85095D01*
Y85138D01*
Y85181D01*
X120066D01*
Y85224D01*
Y85267D01*
Y85310D01*
X120109D01*
Y85353D01*
Y85396D01*
X120153D01*
Y85439D01*
Y85482D01*
X120196D01*
Y85525D01*
Y85568D01*
X120239D01*
Y85611D01*
Y85654D01*
Y85698D01*
X120196D01*
Y85741D01*
X120153D01*
Y85784D01*
X120109D01*
Y85827D01*
X120066D01*
Y85870D01*
X120023D01*
Y85913D01*
X119980D01*
Y85956D01*
X119937D01*
Y85999D01*
X119894D01*
Y86042D01*
X119851D01*
Y86085D01*
X119808D01*
Y86128D01*
X119765D01*
Y86171D01*
X119722D01*
Y86214D01*
X119679D01*
Y86257D01*
X119636D01*
Y86300D01*
X119593D01*
Y86343D01*
X119550D01*
Y86387D01*
X119507D01*
Y86430D01*
X119464D01*
Y86473D01*
X119421D01*
Y86516D01*
X119378D01*
Y86559D01*
X119334D01*
Y86602D01*
X119291D01*
Y86645D01*
X119248D01*
Y86688D01*
X119205D01*
Y86731D01*
X119162D01*
Y86774D01*
X119119D01*
Y86817D01*
X119076D01*
Y86860D01*
X119033D01*
Y86903D01*
X118990D01*
Y86946D01*
X118947D01*
Y86989D01*
X118904D01*
Y87033D01*
X118861D01*
Y87076D01*
X118818D01*
Y87119D01*
X118775D01*
Y87162D01*
X118731D01*
Y87205D01*
X118688D01*
Y87248D01*
X118645D01*
Y87291D01*
X118602D01*
Y87334D01*
X118559D01*
Y87377D01*
X118516D01*
Y87420D01*
X118473D01*
Y87463D01*
X118430D01*
Y87506D01*
X118387D01*
Y87549D01*
X118344D01*
Y87592D01*
X118301D01*
Y87635D01*
X118258D01*
Y87678D01*
X118215D01*
Y87722D01*
X118172D01*
Y87765D01*
X118129D01*
Y87808D01*
X118086D01*
Y87851D01*
X118043D01*
Y87894D01*
X117999D01*
Y87937D01*
X117956D01*
Y87980D01*
X117913D01*
Y88023D01*
X117870D01*
Y88066D01*
X117827D01*
Y88109D01*
X117784D01*
Y88152D01*
X117741D01*
Y88195D01*
X117698D01*
Y88238D01*
X117655D01*
Y88195D01*
X117569D01*
Y88152D01*
X117526D01*
Y88109D01*
X117483D01*
Y88066D01*
X117397D01*
Y88023D01*
X117354D01*
Y87980D01*
X117311D01*
Y87937D01*
X117224D01*
Y87894D01*
X117181D01*
Y87851D01*
X117095D01*
Y87808D01*
X117009D01*
Y87765D01*
X116966D01*
Y87722D01*
X116880D01*
Y87678D01*
X116794D01*
Y87635D01*
X116751D01*
Y87592D01*
X116665D01*
Y87549D01*
X116578D01*
Y87506D01*
X116492D01*
Y87463D01*
X116406D01*
Y87420D01*
X116320D01*
Y87377D01*
X116191D01*
Y87334D01*
X116105D01*
Y87291D01*
X115976D01*
Y87248D01*
X115890D01*
Y87205D01*
X115760D01*
Y87162D01*
X115631D01*
Y87119D01*
X115459D01*
Y87076D01*
X115330D01*
Y87033D01*
X115157D01*
Y86989D01*
X114942D01*
Y86946D01*
X114684D01*
Y86903D01*
X114426D01*
Y86860D01*
Y86817D01*
Y86774D01*
Y86731D01*
Y86688D01*
Y86645D01*
Y86602D01*
Y86559D01*
Y86516D01*
Y86473D01*
Y86430D01*
Y86387D01*
Y86343D01*
Y86300D01*
Y86257D01*
Y86214D01*
Y86171D01*
Y86128D01*
Y86085D01*
Y86042D01*
Y85999D01*
Y85956D01*
Y85913D01*
Y85870D01*
Y85827D01*
X114469D01*
Y85784D01*
X114555D01*
Y85741D01*
X114684D01*
Y85698D01*
X114727D01*
Y85654D01*
X114813D01*
Y85611D01*
X114899D01*
Y85568D01*
X114942D01*
Y85525D01*
X114985D01*
Y85482D01*
X115071D01*
Y85439D01*
X115114D01*
Y85396D01*
X115157D01*
Y85353D01*
X115200D01*
Y85310D01*
X115244D01*
Y85267D01*
X115287D01*
Y85224D01*
X115330D01*
Y85181D01*
Y85138D01*
X115373D01*
Y85095D01*
X115416D01*
Y85052D01*
Y85009D01*
X115459D01*
Y84965D01*
X115502D01*
Y84922D01*
Y84879D01*
X115545D01*
Y84836D01*
Y84793D01*
X115588D01*
Y84750D01*
Y84707D01*
X115631D01*
Y84664D01*
Y84621D01*
Y84578D01*
X115674D01*
Y84535D01*
Y84492D01*
Y84449D01*
X115717D01*
Y84406D01*
Y84363D01*
Y84320D01*
Y84277D01*
Y84233D01*
Y84190D01*
X115760D01*
Y84147D01*
Y84104D01*
Y84061D01*
Y84018D01*
Y83975D01*
Y83932D01*
Y83889D01*
Y83846D01*
Y83803D01*
Y83760D01*
Y83717D01*
X115717D01*
Y83674D01*
Y83631D01*
Y83588D01*
Y83544D01*
Y83501D01*
X115674D01*
Y83458D01*
Y83415D01*
Y83372D01*
Y83329D01*
X115631D01*
Y83286D01*
Y83243D01*
X115588D01*
Y83200D01*
Y83157D01*
Y83114D01*
X115545D01*
Y83071D01*
Y83028D01*
X115502D01*
Y82985D01*
X115459D01*
Y82942D01*
Y82899D01*
X115416D01*
Y82856D01*
Y82812D01*
X115373D01*
Y82769D01*
X115330D01*
Y82726D01*
X115287D01*
Y82683D01*
X115244D01*
Y82640D01*
X115200D01*
Y82597D01*
Y82554D01*
X115114D01*
Y82511D01*
X115071D01*
Y82468D01*
X115028D01*
Y82425D01*
X114985D01*
Y82382D01*
X114942D01*
Y82339D01*
X114856D01*
Y82296D01*
X114813D01*
Y82253D01*
X114727D01*
Y82210D01*
X114641D01*
Y82167D01*
X114555D01*
Y82124D01*
X114426D01*
Y82081D01*
X114296D01*
Y82037D01*
X114081D01*
Y81994D01*
X113521D01*
Y82037D01*
X113306D01*
Y82081D01*
X113134D01*
Y82124D01*
X113048D01*
Y82167D01*
X112961D01*
Y82210D01*
X112875D01*
Y82253D01*
X112789D01*
Y82296D01*
X112703D01*
Y82339D01*
X112660D01*
Y82382D01*
X112574D01*
Y82425D01*
X112531D01*
Y82468D01*
X112488D01*
Y82511D01*
X112445D01*
Y82554D01*
X112402D01*
Y82597D01*
X112358D01*
Y82640D01*
X112315D01*
Y82683D01*
X112272D01*
Y82726D01*
X112229D01*
Y82769D01*
Y82812D01*
X112186D01*
Y82856D01*
X112143D01*
Y82899D01*
Y82942D01*
X112100D01*
Y82985D01*
X112057D01*
Y83028D01*
Y83071D01*
X112014D01*
Y83114D01*
Y83157D01*
X111971D01*
Y83200D01*
Y83243D01*
Y83286D01*
X111928D01*
Y83329D01*
Y83372D01*
Y83415D01*
X111885D01*
Y83458D01*
Y83501D01*
Y83544D01*
Y83588D01*
X111842D01*
Y83631D01*
Y83674D01*
Y83717D01*
Y83760D01*
Y83803D01*
Y83846D01*
Y83889D01*
Y83932D01*
Y83975D01*
Y84018D01*
Y84061D01*
Y84104D01*
Y84147D01*
Y84190D01*
Y84233D01*
Y84277D01*
Y84320D01*
Y84363D01*
X111885D01*
Y84406D01*
Y84449D01*
Y84492D01*
Y84535D01*
X111928D01*
Y84578D01*
Y84621D01*
Y84664D01*
X111971D01*
Y84707D01*
Y84750D01*
X112014D01*
Y84793D01*
Y84836D01*
X112057D01*
Y84879D01*
Y84922D01*
X112100D01*
Y84965D01*
Y85009D01*
X112143D01*
Y85052D01*
X112186D01*
Y85095D01*
Y85138D01*
X112229D01*
Y85181D01*
X112272D01*
Y85224D01*
X112315D01*
Y85267D01*
X112358D01*
Y85310D01*
X112402D01*
Y85353D01*
X112445D01*
Y85396D01*
X112488D01*
Y85439D01*
X112531D01*
Y85482D01*
X112574D01*
Y85525D01*
X112617D01*
Y85568D01*
X112703D01*
Y85611D01*
X112746D01*
Y85654D01*
X112832D01*
Y85698D01*
X112918D01*
Y85741D01*
X113004D01*
Y85784D01*
X113134D01*
Y85827D01*
Y85870D01*
Y85913D01*
Y85956D01*
Y85999D01*
Y86042D01*
Y86085D01*
Y86128D01*
Y86171D01*
Y86214D01*
Y86257D01*
Y86300D01*
Y86343D01*
Y86387D01*
Y86430D01*
Y86473D01*
Y86516D01*
Y86559D01*
Y86602D01*
Y86645D01*
Y86688D01*
Y86731D01*
Y86774D01*
Y86817D01*
Y86860D01*
Y86903D01*
X112875D01*
Y86946D01*
X112617D01*
Y86989D01*
X112402D01*
Y87033D01*
X112229D01*
Y87076D01*
X112100D01*
Y87119D01*
X111928D01*
Y87162D01*
X111799D01*
Y87205D01*
X111670D01*
Y87248D01*
X111583D01*
Y87291D01*
X111454D01*
Y87334D01*
X111368D01*
Y87377D01*
X111239D01*
Y87420D01*
X111153D01*
Y87463D01*
X111067D01*
Y87506D01*
X110981D01*
Y87549D01*
X110895D01*
Y87592D01*
X110808D01*
Y87635D01*
X110765D01*
Y87678D01*
X110679D01*
Y87722D01*
X110593D01*
Y87765D01*
X110550D01*
Y87808D01*
X110464D01*
Y87851D01*
X110378D01*
Y87894D01*
X110335D01*
Y87937D01*
X110292D01*
Y87980D01*
X110205D01*
Y88023D01*
X110162D01*
Y88066D01*
X110076D01*
Y88109D01*
X110033D01*
Y88152D01*
X109990D01*
Y88195D01*
X109947D01*
Y88238D01*
X109861D01*
Y88195D01*
X109818D01*
Y88152D01*
X109775D01*
Y88109D01*
X109732D01*
Y88066D01*
X109689D01*
Y88023D01*
X109646D01*
Y87980D01*
X109603D01*
Y87937D01*
X109560D01*
Y87894D01*
X109517D01*
Y87851D01*
X109473D01*
Y87808D01*
X109430D01*
Y87765D01*
X109387D01*
Y87722D01*
X109344D01*
Y87678D01*
X109301D01*
Y87635D01*
X109258D01*
Y87592D01*
X109215D01*
Y87549D01*
X109172D01*
Y87506D01*
X109129D01*
Y87463D01*
X109086D01*
Y87420D01*
X109043D01*
Y87377D01*
X109000D01*
Y87334D01*
X108957D01*
Y87291D01*
X108914D01*
Y87248D01*
X108871D01*
Y87205D01*
X108827D01*
Y87162D01*
X108784D01*
Y87119D01*
X108741D01*
Y87076D01*
X108698D01*
Y87033D01*
X108655D01*
Y86989D01*
X108612D01*
Y86946D01*
X108569D01*
Y86903D01*
X108526D01*
Y86860D01*
X108483D01*
Y86817D01*
X108440D01*
Y86774D01*
X108397D01*
Y86731D01*
X108354D01*
Y86688D01*
X108311D01*
Y86645D01*
X108268D01*
Y86602D01*
X108225D01*
Y86559D01*
X108182D01*
Y86516D01*
X108139D01*
Y86473D01*
X108096D01*
Y86430D01*
X108052D01*
Y86387D01*
X108009D01*
Y86343D01*
X107966D01*
Y86300D01*
X107923D01*
Y86257D01*
X107880D01*
Y86214D01*
X107837D01*
Y86171D01*
X107794D01*
Y86128D01*
X107751D01*
Y86085D01*
X107708D01*
Y86042D01*
X107665D01*
Y85999D01*
X107622D01*
Y85956D01*
X107579D01*
Y85913D01*
X107536D01*
Y85870D01*
X107493D01*
Y85827D01*
X107450D01*
Y85784D01*
X107406D01*
Y85741D01*
X107363D01*
Y85698D01*
X107320D01*
Y85654D01*
Y85611D01*
Y85568D01*
X107363D01*
Y85525D01*
Y85482D01*
X107406D01*
Y85439D01*
Y85396D01*
X107450D01*
Y85353D01*
Y85310D01*
X107493D01*
Y85267D01*
Y85224D01*
Y85181D01*
X107536D01*
Y85138D01*
Y85095D01*
Y85052D01*
Y85009D01*
X107579D01*
Y84965D01*
Y84922D01*
Y84879D01*
Y84836D01*
Y84793D01*
X107622D01*
Y84750D01*
Y84707D01*
Y84664D01*
Y84621D01*
Y84578D01*
Y84535D01*
Y84492D01*
Y84449D01*
Y84406D01*
Y84363D01*
Y84320D01*
Y84277D01*
Y84233D01*
Y84190D01*
Y84147D01*
Y84104D01*
Y84061D01*
X107579D01*
Y84018D01*
Y83975D01*
Y83932D01*
Y83889D01*
Y83846D01*
X107536D01*
Y83803D01*
Y83760D01*
Y83717D01*
Y83674D01*
X107493D01*
Y83631D01*
Y83588D01*
X107450D01*
Y83544D01*
Y83501D01*
Y83458D01*
X107406D01*
Y83415D01*
Y83372D01*
X107363D01*
Y83329D01*
Y83286D01*
X107320D01*
Y83243D01*
Y83200D01*
X107277D01*
Y83157D01*
X107234D01*
Y83114D01*
Y83071D01*
X107191D01*
Y83028D01*
X107148D01*
Y82985D01*
Y82942D01*
X107105D01*
Y82899D01*
X107062D01*
Y82856D01*
X107019D01*
Y82812D01*
X106976D01*
Y82769D01*
X106933D01*
Y82726D01*
X106890D01*
Y82683D01*
X106847D01*
Y82640D01*
X106804D01*
Y82597D01*
X106761D01*
Y82554D01*
X106718D01*
Y82511D01*
X106675D01*
Y82468D01*
X106588D01*
Y82425D01*
X106545D01*
Y82382D01*
X106459D01*
Y82339D01*
X106416D01*
Y82296D01*
X106330D01*
Y82253D01*
X106244D01*
Y82210D01*
X106158D01*
Y82167D01*
X106028D01*
Y82124D01*
X105899D01*
Y82081D01*
X105727D01*
Y82037D01*
X105512D01*
Y81994D01*
X104866D01*
Y82037D01*
X104651D01*
Y82081D01*
X104478D01*
Y82124D01*
X104349D01*
Y82167D01*
X104263D01*
Y82210D01*
X104134D01*
Y82253D01*
X104048D01*
Y82296D01*
X104005D01*
Y82339D01*
X103919D01*
Y82382D01*
X103832D01*
Y82425D01*
X103789D01*
Y82468D01*
X103746D01*
Y82511D01*
X103660D01*
Y82554D01*
X103617D01*
Y82597D01*
X103574D01*
Y82640D01*
X103531D01*
Y82683D01*
X103488D01*
Y82726D01*
X103445D01*
Y82769D01*
X103402D01*
Y82812D01*
X103359D01*
Y82856D01*
X103316D01*
Y82899D01*
X103273D01*
Y82942D01*
Y82985D01*
X103230D01*
Y83028D01*
X103187D01*
Y83071D01*
X103144D01*
Y83114D01*
Y83157D01*
X103100D01*
Y83200D01*
Y83243D01*
X103057D01*
Y83286D01*
X103014D01*
Y83329D01*
Y83372D01*
X102971D01*
Y83415D01*
Y83458D01*
Y83501D01*
X102928D01*
Y83544D01*
Y83588D01*
X102885D01*
Y83631D01*
Y83674D01*
Y83717D01*
X102842D01*
Y83760D01*
Y83803D01*
Y83846D01*
Y83889D01*
X102799D01*
Y83932D01*
Y83975D01*
Y84018D01*
Y84061D01*
Y84104D01*
X102756D01*
Y84147D01*
Y84190D01*
Y84233D01*
Y84277D01*
Y84320D01*
Y84363D01*
Y84406D01*
Y84449D01*
Y84492D01*
Y84535D01*
Y84578D01*
Y84621D01*
Y84664D01*
Y84707D01*
Y84750D01*
X102799D01*
Y84793D01*
Y84836D01*
Y84879D01*
Y84922D01*
Y84965D01*
X102842D01*
Y85009D01*
Y85052D01*
Y85095D01*
Y85138D01*
X102885D01*
Y85181D01*
Y85224D01*
Y85267D01*
X102928D01*
Y85310D01*
Y85353D01*
Y85396D01*
X102971D01*
Y85439D01*
Y85482D01*
X103014D01*
Y85525D01*
Y85568D01*
X103057D01*
Y85611D01*
Y85654D01*
X103100D01*
Y85698D01*
X103144D01*
Y85741D01*
Y85784D01*
X103187D01*
Y85827D01*
X103230D01*
Y85870D01*
Y85913D01*
X103273D01*
Y85956D01*
X103316D01*
Y85999D01*
X103359D01*
Y86042D01*
X103402D01*
Y86085D01*
X103445D01*
Y86128D01*
X103488D01*
Y86171D01*
X103531D01*
Y86214D01*
X103574D01*
Y86257D01*
X103617D01*
Y86300D01*
X103660D01*
Y86343D01*
X103703D01*
Y86387D01*
X103789D01*
Y86430D01*
X103832D01*
Y86473D01*
X103919D01*
Y86516D01*
X103962D01*
Y86559D01*
X104048D01*
Y86602D01*
X104134D01*
Y86645D01*
X104220D01*
Y86688D01*
X104349D01*
Y86731D01*
X104435D01*
Y86774D01*
X104607D01*
Y86817D01*
X104823D01*
Y86860D01*
X105555D01*
Y86817D01*
X105770D01*
Y86774D01*
X105942D01*
Y86731D01*
X106072D01*
Y86688D01*
X106158D01*
Y86645D01*
X106244D01*
Y86602D01*
X106330D01*
Y86559D01*
X106373D01*
Y86602D01*
X106416D01*
Y86645D01*
X106459D01*
Y86688D01*
X106502D01*
Y86731D01*
X106545D01*
Y86774D01*
X106588D01*
Y86817D01*
X106631D01*
Y86860D01*
X106675D01*
Y86903D01*
X106718D01*
Y86946D01*
X106761D01*
Y86989D01*
X106804D01*
Y87033D01*
X106847D01*
Y87076D01*
X106890D01*
Y87119D01*
X106933D01*
Y87162D01*
X106976D01*
Y87205D01*
X107019D01*
Y87248D01*
X107062D01*
Y87291D01*
X107105D01*
Y87334D01*
X107148D01*
Y87377D01*
X107191D01*
Y87420D01*
X107234D01*
Y87463D01*
X107277D01*
Y87506D01*
X107320D01*
Y87549D01*
X107363D01*
Y87592D01*
X107406D01*
Y87635D01*
X107450D01*
Y87678D01*
X107493D01*
Y87722D01*
X107536D01*
Y87765D01*
X107579D01*
Y87808D01*
X107622D01*
Y87851D01*
X107665D01*
Y87894D01*
X107708D01*
Y87937D01*
X107751D01*
Y87980D01*
X107794D01*
Y88023D01*
X107837D01*
Y88066D01*
X107880D01*
Y88109D01*
X107923D01*
Y88152D01*
X107966D01*
Y88195D01*
X108009D01*
Y88238D01*
X108052D01*
Y88281D01*
X108096D01*
Y88324D01*
X108139D01*
Y88367D01*
X108182D01*
Y88410D01*
X108225D01*
Y88454D01*
X108268D01*
Y88497D01*
X108311D01*
Y88540D01*
X108354D01*
Y88583D01*
X108397D01*
Y88626D01*
X108440D01*
Y88669D01*
X108483D01*
Y88712D01*
X108526D01*
Y88755D01*
X108569D01*
Y88798D01*
X108612D01*
Y88841D01*
X108655D01*
Y88884D01*
X108698D01*
Y88927D01*
X108741D01*
Y88970D01*
X108784D01*
Y89013D01*
X108827D01*
Y89056D01*
X108871D01*
Y89099D01*
X108914D01*
Y89143D01*
X108957D01*
Y89186D01*
Y89229D01*
X108914D01*
Y89272D01*
X108871D01*
Y89315D01*
X108827D01*
Y89358D01*
Y89401D01*
X108784D01*
Y89444D01*
X108741D01*
Y89487D01*
X108698D01*
Y89530D01*
Y89573D01*
X108655D01*
Y89616D01*
X108612D01*
Y89659D01*
Y89702D01*
X108569D01*
Y89745D01*
Y89788D01*
X108526D01*
Y89831D01*
X108483D01*
Y89875D01*
Y89918D01*
X108440D01*
Y89961D01*
Y90004D01*
X108397D01*
Y90047D01*
X108354D01*
Y90090D01*
Y90133D01*
X108311D01*
Y90176D01*
Y90219D01*
X108268D01*
Y90262D01*
Y90305D01*
X108225D01*
Y90348D01*
Y90391D01*
X108182D01*
Y90434D01*
Y90477D01*
X108139D01*
Y90520D01*
Y90563D01*
Y90607D01*
X108096D01*
Y90650D01*
Y90693D01*
X108052D01*
Y90736D01*
Y90779D01*
Y90822D01*
X108009D01*
Y90865D01*
Y90908D01*
X107966D01*
Y90951D01*
Y90994D01*
Y91037D01*
X107923D01*
Y91080D01*
Y91123D01*
Y91166D01*
X107880D01*
Y91209D01*
Y91252D01*
Y91295D01*
X107837D01*
Y91339D01*
Y91382D01*
Y91425D01*
Y91468D01*
X107794D01*
Y91511D01*
Y91554D01*
Y91597D01*
Y91640D01*
X107751D01*
Y91683D01*
Y91726D01*
Y91769D01*
Y91812D01*
Y91855D01*
X107708D01*
Y91898D01*
Y91941D01*
Y91984D01*
Y92028D01*
Y92071D01*
Y92114D01*
X107665D01*
Y92157D01*
Y92200D01*
Y92243D01*
Y92286D01*
Y92329D01*
Y92372D01*
X106588D01*
Y92329D01*
X106545D01*
Y92286D01*
Y92243D01*
X106502D01*
Y92200D01*
Y92157D01*
X106459D01*
Y92114D01*
Y92071D01*
X106416D01*
Y92028D01*
Y91984D01*
X106373D01*
Y91941D01*
X106330D01*
Y91898D01*
Y91855D01*
X106287D01*
Y91812D01*
X106244D01*
Y91769D01*
X106201D01*
Y91726D01*
X106158D01*
Y91683D01*
Y91640D01*
X106115D01*
Y91597D01*
X106072D01*
Y91554D01*
X105985D01*
Y91511D01*
X105942D01*
Y91468D01*
X105899D01*
Y91425D01*
X105813D01*
Y91382D01*
X105770D01*
Y91339D01*
X105684D01*
Y91295D01*
X105598D01*
Y91252D01*
X105555D01*
Y91209D01*
X105426D01*
Y91166D01*
X105297D01*
Y91123D01*
X105124D01*
Y91080D01*
X104780D01*
Y91037D01*
X104651D01*
Y91080D01*
X104306D01*
Y91123D01*
X104134D01*
Y91166D01*
X104005D01*
Y91209D01*
X103919D01*
Y91252D01*
X103832D01*
Y91295D01*
X103746D01*
Y91339D01*
X103660D01*
Y91382D01*
X103617D01*
Y91425D01*
X103531D01*
Y91468D01*
X103488D01*
Y91511D01*
X103445D01*
Y91554D01*
X103402D01*
Y91597D01*
X103359D01*
Y91640D01*
X103316D01*
Y91683D01*
X103273D01*
Y91726D01*
X103230D01*
Y91769D01*
X103187D01*
Y91812D01*
X103144D01*
Y91855D01*
Y91898D01*
X103100D01*
Y91941D01*
X103057D01*
Y91984D01*
Y92028D01*
X103014D01*
Y92071D01*
X102971D01*
Y92114D01*
Y92157D01*
X102928D01*
Y92200D01*
Y92243D01*
Y92286D01*
X102885D01*
Y92329D01*
Y92372D01*
X102842D01*
Y92415D01*
Y92458D01*
Y92501D01*
Y92544D01*
X102799D01*
Y92587D01*
Y92630D01*
Y92673D01*
Y92716D01*
Y92760D01*
X102756D01*
Y92803D01*
Y92846D01*
Y92889D01*
Y92932D01*
Y92975D01*
Y93018D01*
Y93061D01*
Y93104D01*
Y93147D01*
Y93190D01*
Y93233D01*
Y93276D01*
X102799D01*
Y93319D01*
Y93362D01*
Y93405D01*
Y93449D01*
Y93492D01*
X102842D01*
Y93535D01*
Y93578D01*
Y93621D01*
Y93664D01*
X102885D01*
Y93707D01*
Y93750D01*
Y93793D01*
X102928D01*
Y93836D01*
Y93879D01*
X102971D01*
Y93922D01*
Y93965D01*
X103014D01*
Y94008D01*
X103057D01*
Y94051D01*
Y94095D01*
X103100D01*
Y94138D01*
Y94181D01*
X103144D01*
Y94224D01*
X103187D01*
Y94267D01*
X103230D01*
Y94310D01*
X103273D01*
Y94353D01*
X103316D01*
Y94396D01*
X103359D01*
Y94439D01*
X103402D01*
Y94482D01*
X103445D01*
Y94525D01*
X103488D01*
Y94568D01*
X103531D01*
Y94611D01*
X103617D01*
Y94654D01*
X103660D01*
Y94697D01*
X103746D01*
Y94740D01*
X103832D01*
Y94784D01*
X103919D01*
Y94827D01*
X104005D01*
Y94870D01*
X104134D01*
Y94913D01*
X104263D01*
Y94956D01*
X104564D01*
Y94999D01*
X104909D01*
Y94956D01*
X105167D01*
Y94913D01*
X105340D01*
Y94870D01*
X105426D01*
Y94827D01*
X105555D01*
Y94784D01*
X105641D01*
Y94740D01*
X105727D01*
Y94697D01*
X105770D01*
Y94654D01*
X105856D01*
Y94611D01*
X105899D01*
Y94568D01*
X105942D01*
Y94525D01*
X106028D01*
Y94482D01*
X106072D01*
Y94439D01*
X106115D01*
Y94396D01*
X106158D01*
Y94353D01*
X106201D01*
Y94310D01*
Y94267D01*
X106244D01*
Y94224D01*
X106287D01*
Y94181D01*
X106330D01*
Y94138D01*
Y94095D01*
X106373D01*
Y94051D01*
X106416D01*
Y94008D01*
Y93965D01*
X106459D01*
Y93922D01*
Y93879D01*
X106502D01*
Y93836D01*
Y93793D01*
X106545D01*
Y93750D01*
Y93707D01*
X106588D01*
Y93664D01*
X107665D01*
Y93707D01*
Y93750D01*
Y93793D01*
Y93836D01*
Y93879D01*
Y93922D01*
X107708D01*
Y93965D01*
Y94008D01*
Y94051D01*
Y94095D01*
Y94138D01*
Y94181D01*
X107751D01*
Y94224D01*
Y94267D01*
Y94310D01*
Y94353D01*
Y94396D01*
X107794D01*
Y94439D01*
Y94482D01*
Y94525D01*
Y94568D01*
X107837D01*
Y94611D01*
Y94654D01*
Y94697D01*
Y94740D01*
X107880D01*
Y94784D01*
Y94827D01*
Y94870D01*
X107923D01*
Y94913D01*
Y94956D01*
Y94999D01*
X107966D01*
Y95042D01*
Y95085D01*
Y95128D01*
X108009D01*
Y95171D01*
Y95214D01*
X108052D01*
Y95257D01*
Y95300D01*
Y95343D01*
X108096D01*
Y95386D01*
Y95429D01*
X108139D01*
Y95472D01*
Y95516D01*
Y95559D01*
X108182D01*
Y95602D01*
Y95645D01*
X108225D01*
Y95688D01*
Y95731D01*
X108268D01*
Y95774D01*
Y95817D01*
X108311D01*
Y95860D01*
Y95903D01*
X108354D01*
Y95946D01*
Y95989D01*
X108397D01*
Y96032D01*
X108440D01*
Y96075D01*
Y96118D01*
X108483D01*
Y96161D01*
Y96205D01*
X108526D01*
Y96248D01*
X108569D01*
Y96291D01*
Y96334D01*
X108612D01*
Y96377D01*
Y96420D01*
X108655D01*
Y96463D01*
X108698D01*
Y96506D01*
Y96549D01*
X108741D01*
Y96592D01*
X108784D01*
Y96635D01*
X108827D01*
Y96678D01*
Y96721D01*
X108871D01*
Y96764D01*
X108914D01*
Y96807D01*
X108957D01*
Y96850D01*
Y96894D01*
X108914D01*
Y96937D01*
X108871D01*
Y96980D01*
X108827D01*
Y97023D01*
X108784D01*
Y97066D01*
X108741D01*
Y97109D01*
X108698D01*
Y97152D01*
X108655D01*
Y97195D01*
X108612D01*
Y97238D01*
X108569D01*
Y97281D01*
X108526D01*
Y97324D01*
X108483D01*
Y97367D01*
X108440D01*
Y97410D01*
X108397D01*
Y97453D01*
X108354D01*
Y97496D01*
X108311D01*
Y97539D01*
X108268D01*
Y97582D01*
X108225D01*
Y97625D01*
X108182D01*
Y97669D01*
X108139D01*
Y97712D01*
X108096D01*
Y97755D01*
X108052D01*
Y97798D01*
X108009D01*
Y97841D01*
X107966D01*
Y97884D01*
X107923D01*
Y97927D01*
X107880D01*
Y97970D01*
X107837D01*
Y98013D01*
X107794D01*
Y98056D01*
X107751D01*
Y98099D01*
X107708D01*
Y98142D01*
X107665D01*
Y98185D01*
X107622D01*
Y98228D01*
X107579D01*
Y98271D01*
X107536D01*
Y98314D01*
X107493D01*
Y98357D01*
X107450D01*
Y98401D01*
X107406D01*
Y98444D01*
X107363D01*
Y98487D01*
X107320D01*
Y98530D01*
X107277D01*
Y98573D01*
X107234D01*
Y98616D01*
X107191D01*
Y98659D01*
X107148D01*
Y98702D01*
X107105D01*
Y98745D01*
X107062D01*
Y98788D01*
X107019D01*
Y98831D01*
X106976D01*
Y98874D01*
X106933D01*
Y98917D01*
X106890D01*
Y98960D01*
X106847D01*
Y99003D01*
X106804D01*
Y99046D01*
X106761D01*
Y99090D01*
X106718D01*
Y99133D01*
X106675D01*
Y99176D01*
X106631D01*
Y99219D01*
X106588D01*
Y99262D01*
X106545D01*
Y99305D01*
X106502D01*
Y99348D01*
X106459D01*
Y99391D01*
X106416D01*
Y99434D01*
X106373D01*
Y99477D01*
X106330D01*
Y99434D01*
X106244D01*
Y99391D01*
X106158D01*
Y99348D01*
X106072D01*
Y99305D01*
X105942D01*
Y99262D01*
X105770D01*
Y99219D01*
X105555D01*
Y99176D01*
X104823D01*
Y99219D01*
X104607D01*
Y99262D01*
X104435D01*
Y99305D01*
X104349D01*
Y99348D01*
X104220D01*
Y99391D01*
X104134D01*
Y99434D01*
X104048D01*
Y99477D01*
X103962D01*
Y99520D01*
X103919D01*
Y99563D01*
X103832D01*
Y99606D01*
X103789D01*
Y99649D01*
X103703D01*
Y99692D01*
X103660D01*
Y99735D01*
X103617D01*
Y99778D01*
X103574D01*
Y99822D01*
X103531D01*
Y99865D01*
X103488D01*
Y99908D01*
X103445D01*
Y99951D01*
X103402D01*
Y99994D01*
X103359D01*
Y100037D01*
X103316D01*
Y100080D01*
X103273D01*
Y100123D01*
X103230D01*
Y100166D01*
Y100209D01*
X103187D01*
Y100252D01*
X103144D01*
Y100295D01*
Y100338D01*
X103100D01*
Y100381D01*
X103057D01*
Y100425D01*
Y100468D01*
X103014D01*
Y100511D01*
Y100554D01*
X102971D01*
Y100597D01*
Y100640D01*
X102928D01*
Y100683D01*
Y100726D01*
Y100769D01*
X102885D01*
Y100812D01*
Y100855D01*
Y100898D01*
X102842D01*
Y100941D01*
Y100984D01*
Y101027D01*
Y101070D01*
X102799D01*
Y101113D01*
Y101156D01*
Y101200D01*
Y101243D01*
Y101286D01*
X102756D01*
Y101329D01*
Y101372D01*
Y101415D01*
Y101458D01*
Y101501D01*
Y101544D01*
Y101587D01*
Y101630D01*
Y101673D01*
Y101716D01*
Y101759D01*
Y101802D01*
Y101846D01*
Y101889D01*
Y101932D01*
X102799D01*
Y101975D01*
Y102018D01*
Y102061D01*
Y102104D01*
Y102147D01*
X102842D01*
Y102190D01*
Y102233D01*
Y102276D01*
Y102319D01*
X102885D01*
Y102362D01*
Y102405D01*
Y102448D01*
X102928D01*
Y102491D01*
Y102534D01*
X102971D01*
Y102577D01*
Y102621D01*
Y102664D01*
X103014D01*
Y102707D01*
Y102750D01*
X103057D01*
Y102793D01*
X103100D01*
Y102836D01*
Y102879D01*
X103144D01*
Y102922D01*
Y102965D01*
X103187D01*
Y103008D01*
X103230D01*
Y103051D01*
X103273D01*
Y103094D01*
Y103137D01*
X103316D01*
Y103180D01*
X103359D01*
Y103223D01*
X103402D01*
Y103267D01*
X103445D01*
Y103310D01*
X103488D01*
Y103353D01*
X103531D01*
Y103396D01*
X103574D01*
Y103439D01*
X103617D01*
Y103482D01*
X103660D01*
Y103525D01*
X103746D01*
Y103568D01*
X103789D01*
Y103611D01*
X103832D01*
Y103654D01*
X103919D01*
Y103697D01*
X104005D01*
Y103740D01*
X104048D01*
Y103783D01*
X104134D01*
Y103826D01*
X104263D01*
Y103869D01*
X104349D01*
Y103912D01*
X104478D01*
Y103955D01*
X104651D01*
Y103998D01*
X104866D01*
Y104042D01*
X105512D01*
Y103998D01*
X105727D01*
Y103955D01*
X105899D01*
Y103912D01*
X106028D01*
Y103869D01*
X106158D01*
Y103826D01*
X106244D01*
Y103783D01*
X106330D01*
Y103740D01*
X106416D01*
Y103697D01*
X106459D01*
Y103654D01*
X106545D01*
Y103611D01*
X106588D01*
Y103568D01*
X106675D01*
Y103525D01*
X106718D01*
Y103482D01*
X106761D01*
Y103439D01*
X106804D01*
Y103396D01*
X106847D01*
Y103353D01*
X106890D01*
Y103310D01*
X106933D01*
Y103267D01*
X106976D01*
Y103223D01*
X107019D01*
Y103180D01*
X107062D01*
Y103137D01*
X107105D01*
Y103094D01*
X107148D01*
Y103051D01*
Y103008D01*
X107191D01*
Y102965D01*
X107234D01*
Y102922D01*
Y102879D01*
X107277D01*
Y102836D01*
X107320D01*
Y102793D01*
Y102750D01*
X107363D01*
Y102707D01*
Y102664D01*
X107406D01*
Y102621D01*
Y102577D01*
X107450D01*
Y102534D01*
Y102491D01*
Y102448D01*
X107493D01*
Y102405D01*
Y102362D01*
X107536D01*
Y102319D01*
Y102276D01*
Y102233D01*
Y102190D01*
X107579D01*
Y102147D01*
Y102104D01*
Y102061D01*
Y102018D01*
Y101975D01*
X107622D01*
Y101932D01*
Y101889D01*
Y101846D01*
Y101802D01*
Y101759D01*
Y101716D01*
Y101673D01*
Y101630D01*
Y101587D01*
Y101544D01*
Y101501D01*
Y101458D01*
Y101415D01*
Y101372D01*
Y101329D01*
Y101286D01*
Y101243D01*
X107579D01*
Y101200D01*
Y101156D01*
Y101113D01*
Y101070D01*
Y101027D01*
X107536D01*
Y100984D01*
Y100941D01*
Y100898D01*
Y100855D01*
X107493D01*
Y100812D01*
Y100769D01*
Y100726D01*
X107450D01*
Y100683D01*
Y100640D01*
X107406D01*
Y100597D01*
Y100554D01*
X107363D01*
Y100511D01*
Y100468D01*
X107320D01*
Y100425D01*
Y100381D01*
Y100338D01*
X107363D01*
Y100295D01*
X107406D01*
Y100252D01*
X107450D01*
Y100209D01*
X107493D01*
Y100166D01*
X107536D01*
Y100123D01*
X107579D01*
Y100080D01*
X107622D01*
Y100037D01*
X107665D01*
Y99994D01*
X107708D01*
Y99951D01*
X107751D01*
Y99908D01*
X107794D01*
Y99865D01*
X107837D01*
Y99822D01*
X107880D01*
Y99778D01*
X107923D01*
Y99735D01*
X107966D01*
Y99692D01*
X108009D01*
Y99649D01*
X108052D01*
Y99606D01*
X108096D01*
Y99563D01*
X108139D01*
Y99520D01*
X108182D01*
Y99477D01*
X108225D01*
Y99434D01*
X108268D01*
Y99391D01*
X108311D01*
Y99348D01*
X108354D01*
Y99305D01*
X108397D01*
Y99262D01*
X108440D01*
Y99219D01*
X108483D01*
Y99176D01*
X108526D01*
Y99133D01*
X108569D01*
Y99090D01*
X108612D01*
Y99046D01*
X108655D01*
Y99003D01*
X108698D01*
Y98960D01*
X108741D01*
Y98917D01*
X108784D01*
Y98874D01*
X108827D01*
Y98831D01*
X108871D01*
Y98788D01*
X108914D01*
Y98745D01*
X108957D01*
Y98702D01*
X109000D01*
Y98659D01*
X109043D01*
Y98616D01*
X109086D01*
Y98573D01*
X109129D01*
Y98530D01*
X109172D01*
Y98487D01*
X109215D01*
Y98444D01*
X109258D01*
Y98401D01*
X109301D01*
Y98357D01*
X109344D01*
Y98314D01*
X109387D01*
Y98271D01*
X109430D01*
Y98228D01*
X109473D01*
Y98185D01*
X109517D01*
Y98142D01*
X109560D01*
Y98099D01*
X109603D01*
Y98056D01*
X109646D01*
Y98013D01*
X109689D01*
Y97970D01*
X109732D01*
Y97927D01*
X109775D01*
Y97884D01*
X109818D01*
Y97841D01*
X109861D01*
Y97798D01*
X109947D01*
Y97841D01*
X109990D01*
Y97884D01*
X110033D01*
Y97927D01*
X110076D01*
Y97970D01*
X110162D01*
Y98013D01*
X110205D01*
Y98056D01*
X110292D01*
Y98099D01*
X110335D01*
Y98142D01*
X110378D01*
Y98185D01*
X110464D01*
Y98228D01*
X110550D01*
Y98271D01*
X110593D01*
Y98314D01*
X110679D01*
Y98357D01*
X110765D01*
Y98401D01*
X110808D01*
Y98444D01*
X110895D01*
Y98487D01*
X110981D01*
Y98530D01*
X111067D01*
Y98573D01*
X111153D01*
Y98616D01*
X111239D01*
Y98659D01*
X111368D01*
Y98702D01*
X111454D01*
Y98745D01*
X111583D01*
Y98788D01*
X111670D01*
Y98831D01*
X111799D01*
Y98874D01*
X111928D01*
Y98917D01*
X112057D01*
Y98960D01*
X112229D01*
Y99003D01*
X112402D01*
Y99046D01*
X112617D01*
Y99090D01*
X112875D01*
Y99133D01*
X113134D01*
Y99176D01*
Y99219D01*
Y99262D01*
Y99305D01*
Y99348D01*
Y99391D01*
Y99434D01*
Y99477D01*
Y99520D01*
Y99563D01*
Y99606D01*
Y99649D01*
Y99692D01*
Y99735D01*
Y99778D01*
Y99822D01*
Y99865D01*
Y99908D01*
Y99951D01*
Y99994D01*
Y100037D01*
Y100080D01*
Y100123D01*
Y100166D01*
Y100209D01*
Y100252D01*
X113004D01*
Y100295D01*
X112918D01*
Y100338D01*
X112832D01*
Y100381D01*
X112746D01*
Y100425D01*
X112703D01*
Y100468D01*
X112617D01*
Y100511D01*
X112574D01*
Y100554D01*
X112531D01*
Y100597D01*
X112488D01*
Y100640D01*
X112445D01*
Y100683D01*
X112402D01*
Y100726D01*
X112358D01*
Y100769D01*
X112315D01*
Y100812D01*
X112272D01*
Y100855D01*
X112229D01*
Y100898D01*
X112186D01*
Y100941D01*
Y100984D01*
X112143D01*
Y101027D01*
X112100D01*
Y101070D01*
Y101113D01*
X112057D01*
Y101156D01*
Y101200D01*
X112014D01*
Y101243D01*
Y101286D01*
X111971D01*
Y101329D01*
Y101372D01*
X111928D01*
Y101415D01*
Y101458D01*
Y101501D01*
X111885D01*
Y101544D01*
Y101587D01*
Y101630D01*
Y101673D01*
X111842D01*
Y101716D01*
Y101759D01*
Y101802D01*
Y101846D01*
Y101889D01*
Y101932D01*
Y101975D01*
Y102018D01*
Y102061D01*
Y102104D01*
Y102147D01*
Y102190D01*
Y102233D01*
Y102276D01*
Y102319D01*
Y102362D01*
Y102405D01*
Y102448D01*
X111885D01*
Y102491D01*
Y102534D01*
Y102577D01*
Y102621D01*
X111928D01*
Y102664D01*
Y102707D01*
Y102750D01*
X111971D01*
Y102793D01*
Y102836D01*
Y102879D01*
X112014D01*
Y102922D01*
Y102965D01*
X112057D01*
Y103008D01*
Y103051D01*
X112100D01*
Y103094D01*
X112143D01*
Y103137D01*
Y103180D01*
X112186D01*
Y103223D01*
X112229D01*
Y103267D01*
Y103310D01*
X112272D01*
Y103353D01*
X112315D01*
Y103396D01*
X112358D01*
Y103439D01*
X112402D01*
Y103482D01*
X112445D01*
Y103525D01*
X112488D01*
Y103568D01*
X112531D01*
Y103611D01*
X112574D01*
Y103654D01*
X112660D01*
Y103697D01*
X112703D01*
Y103740D01*
X112789D01*
Y103783D01*
X112875D01*
Y103826D01*
X112961D01*
Y103869D01*
X113048D01*
Y103912D01*
X113134D01*
Y103955D01*
X113306D01*
Y103998D01*
X113521D01*
Y104042D01*
X114081D01*
Y103998D01*
X114296D01*
Y103955D01*
X114426D01*
Y103912D01*
X114555D01*
Y103869D01*
X114641D01*
Y103826D01*
X114727D01*
Y103783D01*
X114813D01*
Y103740D01*
X114856D01*
Y103697D01*
X114942D01*
Y103654D01*
X114985D01*
Y103611D01*
X115028D01*
Y103568D01*
X115071D01*
Y103525D01*
X115157D01*
Y103482D01*
X115200D01*
Y103439D01*
Y103396D01*
X115244D01*
Y103353D01*
X115287D01*
Y103310D01*
X115330D01*
Y103267D01*
X115373D01*
Y103223D01*
X115416D01*
Y103180D01*
Y103137D01*
X115459D01*
Y103094D01*
Y103051D01*
X115502D01*
Y103008D01*
X115545D01*
Y102965D01*
Y102922D01*
X115588D01*
Y102879D01*
Y102836D01*
Y102793D01*
X115631D01*
Y102750D01*
Y102707D01*
X115674D01*
Y102664D01*
Y102621D01*
Y102577D01*
Y102534D01*
X115717D01*
Y102491D01*
Y102448D01*
Y102405D01*
Y102362D01*
Y102319D01*
X115760D01*
Y102276D01*
Y102233D01*
Y102190D01*
Y102147D01*
Y102104D01*
Y102061D01*
Y102018D01*
Y101975D01*
Y101932D01*
Y101889D01*
Y101846D01*
X115717D01*
Y101802D01*
Y101759D01*
Y101716D01*
Y101673D01*
Y101630D01*
Y101587D01*
X115674D01*
Y101544D01*
Y101501D01*
Y101458D01*
X115631D01*
Y101415D01*
Y101372D01*
Y101329D01*
X115588D01*
Y101286D01*
Y101243D01*
X115545D01*
Y101200D01*
Y101156D01*
X115502D01*
Y101113D01*
Y101070D01*
X115459D01*
Y101027D01*
X115416D01*
Y100984D01*
Y100941D01*
X115373D01*
Y100898D01*
X115330D01*
Y100855D01*
X115287D01*
Y100812D01*
Y100769D01*
X115244D01*
Y100726D01*
X115200D01*
Y100683D01*
X115157D01*
Y100640D01*
X115114D01*
Y100597D01*
X115071D01*
Y100554D01*
X114985D01*
Y100511D01*
X114942D01*
Y100468D01*
X114899D01*
Y100425D01*
X114813D01*
Y100381D01*
X114727D01*
Y100338D01*
X114684D01*
Y100295D01*
X114555D01*
Y100252D01*
X114469D01*
Y100209D01*
X114426D01*
Y100166D01*
Y100123D01*
Y100080D01*
Y100037D01*
Y99994D01*
Y99951D01*
Y99908D01*
Y99865D01*
Y99822D01*
Y99778D01*
Y99735D01*
Y99692D01*
Y99649D01*
Y99606D01*
Y99563D01*
Y99520D01*
Y99477D01*
Y99434D01*
Y99391D01*
Y99348D01*
Y99305D01*
Y99262D01*
Y99219D01*
Y99176D01*
Y99133D01*
X114684D01*
Y99090D01*
X114942D01*
Y99046D01*
X115157D01*
Y99003D01*
X115330D01*
Y98960D01*
X115459D01*
Y98917D01*
X115631D01*
Y98874D01*
X115760D01*
Y98831D01*
X115890D01*
Y98788D01*
X115976D01*
Y98745D01*
X116105D01*
Y98702D01*
X116191D01*
Y98659D01*
X116320D01*
Y98616D01*
X116406D01*
Y98573D01*
X116492D01*
Y98530D01*
X116578D01*
Y98487D01*
X116665D01*
Y98444D01*
X116751D01*
Y98401D01*
X116794D01*
Y98357D01*
X116880D01*
Y98314D01*
X116966D01*
Y98271D01*
X117009D01*
Y98228D01*
X117095D01*
Y98185D01*
X117181D01*
Y98142D01*
X117224D01*
Y98099D01*
X117311D01*
Y98056D01*
X117354D01*
Y98013D01*
X117397D01*
Y97970D01*
X117483D01*
Y97927D01*
X117526D01*
Y97884D01*
X117569D01*
Y97841D01*
X117655D01*
Y97798D01*
X117698D01*
Y97841D01*
X117741D01*
Y97884D01*
X117784D01*
Y97927D01*
X117827D01*
Y97970D01*
X117870D01*
Y98013D01*
X117913D01*
Y98056D01*
X117956D01*
Y98099D01*
X117999D01*
Y98142D01*
X118043D01*
Y98185D01*
X118086D01*
Y98228D01*
X118129D01*
Y98271D01*
X118172D01*
Y98314D01*
X118215D01*
Y98357D01*
X118258D01*
Y98401D01*
X118301D01*
Y98444D01*
X118344D01*
Y98487D01*
X118387D01*
Y98530D01*
X118430D01*
Y98573D01*
X118473D01*
Y98616D01*
X118516D01*
Y98659D01*
X118559D01*
Y98702D01*
X118602D01*
Y98745D01*
X118645D01*
Y98788D01*
X118688D01*
Y98831D01*
X118731D01*
Y98874D01*
X118775D01*
Y98917D01*
X118818D01*
Y98960D01*
X118861D01*
Y99003D01*
X118904D01*
Y99046D01*
X118947D01*
Y99090D01*
X118990D01*
Y99133D01*
X119033D01*
Y99176D01*
X119076D01*
Y99219D01*
X119119D01*
Y99262D01*
X119162D01*
Y99305D01*
X119205D01*
Y99348D01*
X119248D01*
Y99391D01*
X119291D01*
Y99434D01*
X119334D01*
Y99477D01*
X119378D01*
Y99520D01*
X119421D01*
Y99563D01*
X119464D01*
Y99606D01*
X119507D01*
Y99649D01*
X119550D01*
Y99692D01*
X119593D01*
Y99735D01*
X119636D01*
Y99778D01*
X119679D01*
Y99822D01*
X119722D01*
Y99865D01*
X119765D01*
Y99908D01*
X119808D01*
Y99951D01*
X119851D01*
Y99994D01*
X119894D01*
Y100037D01*
X119937D01*
Y100080D01*
X119980D01*
Y100123D01*
X120023D01*
Y100166D01*
X120066D01*
Y100209D01*
X120109D01*
Y100252D01*
X120153D01*
Y100295D01*
X120196D01*
Y100338D01*
X120239D01*
Y100381D01*
Y100425D01*
Y100468D01*
X120196D01*
Y100511D01*
Y100554D01*
X120153D01*
Y100597D01*
Y100640D01*
X120109D01*
Y100683D01*
Y100726D01*
X120066D01*
Y100769D01*
Y100812D01*
Y100855D01*
X120023D01*
Y100898D01*
Y100941D01*
Y100984D01*
Y101027D01*
X119980D01*
Y101070D01*
Y101113D01*
Y101156D01*
Y101200D01*
Y101243D01*
X119937D01*
Y101286D01*
Y101329D01*
Y101372D01*
Y101415D01*
Y101458D01*
Y101501D01*
Y101544D01*
Y101587D01*
Y101630D01*
Y101673D01*
Y101716D01*
Y101759D01*
Y101802D01*
Y101846D01*
Y101889D01*
Y101932D01*
Y101975D01*
X119980D01*
Y102018D01*
Y102061D01*
Y102104D01*
Y102147D01*
Y102190D01*
X120023D01*
Y102233D01*
Y102276D01*
Y102319D01*
Y102362D01*
X120066D01*
Y102405D01*
Y102448D01*
X120109D01*
Y102491D01*
Y102534D01*
Y102577D01*
X120153D01*
Y102621D01*
Y102664D01*
X120196D01*
Y102707D01*
Y102750D01*
X120239D01*
Y102793D01*
Y102836D01*
X120282D01*
Y102879D01*
X120325D01*
Y102922D01*
Y102965D01*
X120368D01*
Y103008D01*
X120411D01*
Y103051D01*
Y103094D01*
X120454D01*
Y103137D01*
X120497D01*
Y103180D01*
X120540D01*
Y103223D01*
X120583D01*
Y103267D01*
X120626D01*
Y103310D01*
X120669D01*
Y103353D01*
X120712D01*
Y103396D01*
X120755D01*
Y103439D01*
X120799D01*
Y103482D01*
X120842D01*
Y103525D01*
X120885D01*
Y103568D01*
X120971D01*
Y103611D01*
X121014D01*
Y103654D01*
X121100D01*
Y103697D01*
X121143D01*
Y103740D01*
X121229D01*
Y103783D01*
X121315D01*
Y103826D01*
X121401D01*
Y103869D01*
X121530D01*
Y103912D01*
X121660D01*
Y103955D01*
X121832D01*
Y103998D01*
X122047D01*
Y104042D01*
X122693D01*
Y103998D01*
D02*
G37*
G36*
X122773Y79074D02*
X122693D01*
Y78995D01*
Y78915D01*
Y78836D01*
X122614D01*
Y78757D01*
Y78678D01*
Y78599D01*
X122535D01*
Y78520D01*
Y78441D01*
Y78361D01*
Y78282D01*
X122456D01*
Y78203D01*
Y78124D01*
X119687D01*
Y78203D01*
Y78282D01*
X119766D01*
Y78361D01*
X119845D01*
Y78441D01*
Y78520D01*
X119924D01*
Y78599D01*
X120003D01*
Y78678D01*
Y78757D01*
X120082D01*
Y78836D01*
Y78915D01*
X120162D01*
Y78995D01*
X120241D01*
Y79074D01*
Y79153D01*
X122773D01*
Y79074D01*
D02*
G37*
G36*
X105525D02*
X105683D01*
Y78995D01*
X105762D01*
Y78915D01*
X105842D01*
Y78836D01*
Y78757D01*
X105921D01*
Y78678D01*
Y78599D01*
Y78520D01*
X105842D01*
Y78441D01*
Y78361D01*
Y78282D01*
Y78203D01*
X105762D01*
Y78124D01*
Y78045D01*
Y77966D01*
Y77887D01*
X105683D01*
Y77808D01*
Y77729D01*
Y77649D01*
X105604D01*
Y77570D01*
Y77491D01*
Y77412D01*
X105525D01*
Y77333D01*
Y77254D01*
Y77175D01*
Y77096D01*
X105446D01*
Y77017D01*
Y76937D01*
Y76858D01*
X105367D01*
Y76779D01*
Y76700D01*
Y76621D01*
X105288D01*
Y76542D01*
Y76463D01*
Y76384D01*
Y76305D01*
X105209D01*
Y76225D01*
Y76146D01*
Y76067D01*
X105129D01*
Y75988D01*
Y75909D01*
Y75830D01*
X105050D01*
Y75751D01*
Y75672D01*
Y75592D01*
X104971D01*
Y75513D01*
X104892D01*
Y75434D01*
X104734D01*
Y75355D01*
X104655D01*
Y75276D01*
X104734D01*
Y75197D01*
X104813D01*
Y75118D01*
Y75039D01*
Y74959D01*
Y74880D01*
Y74801D01*
Y74722D01*
Y74643D01*
X104734D01*
Y74564D01*
Y74485D01*
Y74406D01*
X104655D01*
Y74327D01*
Y74247D01*
Y74168D01*
Y74089D01*
X104576D01*
Y74010D01*
Y73931D01*
Y73852D01*
X104497D01*
Y73773D01*
Y73694D01*
Y73615D01*
Y73535D01*
X104417D01*
Y73456D01*
Y73377D01*
Y73298D01*
X104338D01*
Y73219D01*
Y73140D01*
Y73061D01*
X104259D01*
Y72982D01*
Y72903D01*
Y72823D01*
Y72744D01*
X104180D01*
Y72665D01*
Y72586D01*
Y72507D01*
X104101D01*
Y72428D01*
Y72349D01*
Y72269D01*
Y72190D01*
X104022D01*
Y72111D01*
X102914D01*
Y72190D01*
Y72269D01*
Y72349D01*
X102993D01*
Y72428D01*
Y72507D01*
Y72586D01*
Y72665D01*
X103072D01*
Y72744D01*
Y72823D01*
Y72903D01*
X103152D01*
Y72982D01*
Y73061D01*
Y73140D01*
Y73219D01*
X103231D01*
Y73298D01*
Y73377D01*
Y73456D01*
X103310D01*
Y73535D01*
Y73615D01*
Y73694D01*
X103389D01*
Y73773D01*
Y73852D01*
Y73931D01*
Y74010D01*
X103468D01*
Y74089D01*
Y74168D01*
Y74247D01*
X103547D01*
Y74327D01*
Y74406D01*
Y74485D01*
Y74564D01*
X103626D01*
Y74643D01*
Y74722D01*
Y74801D01*
X103705D01*
Y74880D01*
Y74959D01*
X103626D01*
Y75039D01*
X103152D01*
Y74959D01*
Y74880D01*
Y74801D01*
X103072D01*
Y74722D01*
Y74643D01*
Y74564D01*
X102993D01*
Y74485D01*
Y74406D01*
Y74327D01*
Y74247D01*
X102914D01*
Y74168D01*
Y74089D01*
Y74010D01*
X102835D01*
Y73931D01*
Y73852D01*
Y73773D01*
Y73694D01*
X102756D01*
Y73615D01*
Y73535D01*
Y73456D01*
X102677D01*
Y73377D01*
Y73298D01*
Y73219D01*
X102598D01*
Y73140D01*
Y73061D01*
Y72982D01*
Y72903D01*
X102519D01*
Y72823D01*
Y72744D01*
Y72665D01*
X102439D01*
Y72586D01*
Y72507D01*
Y72428D01*
Y72349D01*
X102360D01*
Y72269D01*
Y72190D01*
Y72111D01*
X101174D01*
Y72190D01*
Y72269D01*
X101253D01*
Y72349D01*
Y72428D01*
Y72507D01*
X101332D01*
Y72586D01*
Y72665D01*
Y72744D01*
Y72823D01*
X101411D01*
Y72903D01*
Y72982D01*
Y73061D01*
X101490D01*
Y73140D01*
Y73219D01*
Y73298D01*
X101569D01*
Y73377D01*
Y73456D01*
Y73535D01*
Y73615D01*
X101648D01*
Y73694D01*
Y73773D01*
Y73852D01*
X101727D01*
Y73931D01*
Y74010D01*
Y74089D01*
Y74168D01*
X101806D01*
Y74247D01*
Y74327D01*
Y74406D01*
X101886D01*
Y74485D01*
Y74564D01*
Y74643D01*
X101965D01*
Y74722D01*
Y74801D01*
Y74880D01*
Y74959D01*
X102044D01*
Y75039D01*
Y75118D01*
Y75197D01*
X102123D01*
Y75276D01*
Y75355D01*
Y75434D01*
Y75513D01*
X102202D01*
Y75592D01*
Y75672D01*
Y75751D01*
X102281D01*
Y75830D01*
Y75909D01*
Y75988D01*
X102360D01*
Y76067D01*
Y76146D01*
Y76225D01*
Y76305D01*
X102439D01*
Y76384D01*
Y76463D01*
Y76542D01*
X102519D01*
Y76621D01*
Y76700D01*
Y76779D01*
Y76858D01*
X102598D01*
Y76937D01*
Y77017D01*
Y77096D01*
X102677D01*
Y77175D01*
Y77254D01*
Y77333D01*
X102756D01*
Y77412D01*
Y77491D01*
Y77570D01*
Y77649D01*
X102835D01*
Y77729D01*
Y77808D01*
Y77887D01*
X102914D01*
Y77966D01*
X104022D01*
Y77887D01*
Y77808D01*
Y77729D01*
X103943D01*
Y77649D01*
Y77570D01*
Y77491D01*
X103864D01*
Y77412D01*
Y77333D01*
Y77254D01*
X103784D01*
Y77175D01*
Y77096D01*
Y77017D01*
Y76937D01*
X103705D01*
Y76858D01*
Y76779D01*
Y76700D01*
X103626D01*
Y76621D01*
Y76542D01*
Y76463D01*
Y76384D01*
X103547D01*
Y76305D01*
Y76225D01*
Y76146D01*
X103468D01*
Y76067D01*
Y75988D01*
Y75909D01*
X104022D01*
Y75988D01*
X104101D01*
Y76067D01*
Y76146D01*
X104180D01*
Y76225D01*
Y76305D01*
Y76384D01*
Y76463D01*
X104259D01*
Y76542D01*
Y76621D01*
Y76700D01*
X104338D01*
Y76779D01*
Y76858D01*
Y76937D01*
X104417D01*
Y77017D01*
Y77096D01*
Y77175D01*
Y77254D01*
X104497D01*
Y77333D01*
Y77412D01*
Y77491D01*
X104576D01*
Y77570D01*
Y77649D01*
Y77729D01*
X104655D01*
Y77808D01*
Y77887D01*
Y77966D01*
Y78045D01*
Y78124D01*
X102439D01*
Y78203D01*
Y78282D01*
X102519D01*
Y78361D01*
Y78441D01*
X102598D01*
Y78520D01*
X102677D01*
Y78599D01*
Y78678D01*
X102756D01*
Y78757D01*
X102835D01*
Y78836D01*
Y78915D01*
X102914D01*
Y78995D01*
X102993D01*
Y79074D01*
Y79153D01*
X105525D01*
Y79074D01*
D02*
G37*
G36*
X127045D02*
Y78995D01*
Y78915D01*
X126966D01*
Y78836D01*
Y78757D01*
X126887D01*
Y78678D01*
Y78599D01*
X126807D01*
Y78520D01*
Y78441D01*
Y78361D01*
X126728D01*
Y78282D01*
Y78203D01*
X126649D01*
Y78124D01*
Y78045D01*
X126570D01*
Y77966D01*
Y77887D01*
Y77808D01*
X126491D01*
Y77729D01*
Y77649D01*
X126412D01*
Y77570D01*
Y77491D01*
X126333D01*
Y77412D01*
Y77333D01*
Y77254D01*
X126254D01*
Y77175D01*
Y77096D01*
X126174D01*
Y77017D01*
Y76937D01*
X126095D01*
Y76858D01*
Y76779D01*
Y76700D01*
X126016D01*
Y76621D01*
Y76542D01*
X125937D01*
Y76463D01*
Y76384D01*
X125858D01*
Y76305D01*
Y76225D01*
Y76146D01*
X125779D01*
Y76067D01*
Y75988D01*
X125700D01*
Y75909D01*
Y75830D01*
Y75751D01*
X125621D01*
Y75672D01*
Y75592D01*
X125542D01*
Y75513D01*
Y75434D01*
X125462D01*
Y75355D01*
Y75276D01*
Y75197D01*
X125383D01*
Y75118D01*
Y75039D01*
X125304D01*
Y74959D01*
Y74880D01*
X125225D01*
Y74801D01*
Y74722D01*
Y74643D01*
X125146D01*
Y74564D01*
Y74485D01*
X125067D01*
Y74406D01*
Y74327D01*
X124988D01*
Y74247D01*
Y74168D01*
Y74089D01*
X124909D01*
Y74010D01*
Y73931D01*
X124829D01*
Y73852D01*
Y73773D01*
X124750D01*
Y73694D01*
Y73615D01*
Y73535D01*
X124671D01*
Y73456D01*
Y73377D01*
X124592D01*
Y73298D01*
Y73219D01*
X124513D01*
Y73140D01*
Y73061D01*
Y72982D01*
X124434D01*
Y72903D01*
Y72823D01*
X124355D01*
Y72744D01*
Y72665D01*
X124276D01*
Y72586D01*
Y72507D01*
Y72428D01*
X124197D01*
Y72349D01*
Y72269D01*
X124118D01*
Y72190D01*
Y72111D01*
X123010D01*
Y72190D01*
Y72269D01*
Y72349D01*
Y72428D01*
Y72507D01*
X123089D01*
Y72586D01*
Y72665D01*
Y72744D01*
Y72823D01*
Y72903D01*
Y72982D01*
Y73061D01*
Y73140D01*
X123168D01*
Y73219D01*
Y73298D01*
Y73377D01*
Y73456D01*
Y73535D01*
Y73615D01*
Y73694D01*
X123247D01*
Y73773D01*
Y73852D01*
Y73931D01*
Y74010D01*
Y74089D01*
Y74168D01*
Y74247D01*
X123326D01*
Y74327D01*
Y74406D01*
Y74485D01*
Y74564D01*
Y74643D01*
Y74722D01*
Y74801D01*
X123405D01*
Y74880D01*
Y74959D01*
Y75039D01*
Y75118D01*
Y75197D01*
Y75276D01*
Y75355D01*
Y75434D01*
X123485D01*
Y75513D01*
Y75592D01*
Y75672D01*
Y75751D01*
Y75830D01*
Y75909D01*
Y75988D01*
X123564D01*
Y76067D01*
Y76146D01*
Y76225D01*
Y76305D01*
Y76384D01*
Y76463D01*
Y76542D01*
X123643D01*
Y76621D01*
Y76700D01*
Y76779D01*
Y76858D01*
Y76937D01*
Y77017D01*
Y77096D01*
Y77175D01*
X123722D01*
Y77254D01*
Y77333D01*
Y77412D01*
Y77491D01*
Y77570D01*
Y77649D01*
Y77729D01*
X123801D01*
Y77808D01*
Y77887D01*
Y77966D01*
Y78045D01*
Y78124D01*
Y78203D01*
Y78282D01*
X123880D01*
Y78361D01*
Y78441D01*
Y78520D01*
Y78599D01*
Y78678D01*
Y78757D01*
Y78836D01*
X123959D01*
Y78915D01*
Y78995D01*
Y79074D01*
Y79153D01*
X125067D01*
Y79074D01*
Y78995D01*
Y78915D01*
Y78836D01*
Y78757D01*
X124988D01*
Y78678D01*
Y78599D01*
Y78520D01*
Y78441D01*
Y78361D01*
Y78282D01*
X124909D01*
Y78203D01*
Y78124D01*
Y78045D01*
Y77966D01*
Y77887D01*
X124829D01*
Y77808D01*
Y77729D01*
Y77649D01*
Y77570D01*
Y77491D01*
Y77412D01*
X124750D01*
Y77333D01*
Y77254D01*
Y77175D01*
Y77096D01*
Y77017D01*
Y76937D01*
X124671D01*
Y76858D01*
Y76779D01*
Y76700D01*
Y76621D01*
Y76542D01*
Y76463D01*
X124592D01*
Y76384D01*
Y76305D01*
Y76225D01*
Y76146D01*
Y76067D01*
Y75988D01*
X124513D01*
Y75909D01*
Y75830D01*
Y75751D01*
Y75672D01*
Y75592D01*
X124592D01*
Y75672D01*
Y75751D01*
X124671D01*
Y75830D01*
Y75909D01*
Y75988D01*
X124750D01*
Y76067D01*
Y76146D01*
X124829D01*
Y76225D01*
Y76305D01*
Y76384D01*
X124909D01*
Y76463D01*
Y76542D01*
Y76621D01*
X124988D01*
Y76700D01*
Y76779D01*
X125067D01*
Y76858D01*
Y76937D01*
Y77017D01*
X125146D01*
Y77096D01*
Y77175D01*
X125225D01*
Y77254D01*
Y77333D01*
Y77412D01*
X125304D01*
Y77491D01*
Y77570D01*
Y77649D01*
X125383D01*
Y77729D01*
Y77808D01*
X125462D01*
Y77887D01*
Y77966D01*
Y78045D01*
X125542D01*
Y78124D01*
Y78203D01*
X125621D01*
Y78282D01*
Y78361D01*
Y78441D01*
X125700D01*
Y78520D01*
Y78599D01*
Y78678D01*
X125779D01*
Y78757D01*
Y78836D01*
X125858D01*
Y78915D01*
Y78995D01*
Y79074D01*
X125937D01*
Y79153D01*
X127045D01*
Y79074D01*
D02*
G37*
G36*
X119133D02*
X119291D01*
Y78995D01*
X119370D01*
Y78915D01*
X119450D01*
Y78836D01*
X119529D01*
Y78757D01*
Y78678D01*
Y78599D01*
Y78520D01*
Y78441D01*
Y78361D01*
Y78282D01*
X119450D01*
Y78203D01*
Y78124D01*
Y78045D01*
X119370D01*
Y77966D01*
Y77887D01*
Y77808D01*
X119291D01*
Y77729D01*
Y77649D01*
Y77570D01*
Y77491D01*
X119212D01*
Y77412D01*
Y77333D01*
Y77254D01*
X119133D01*
Y77175D01*
Y77096D01*
Y77017D01*
X119054D01*
Y76937D01*
Y76858D01*
Y76779D01*
Y76700D01*
X118975D01*
Y76621D01*
Y76542D01*
Y76463D01*
X118896D01*
Y76384D01*
Y76305D01*
Y76225D01*
Y76146D01*
X118817D01*
Y76067D01*
Y75988D01*
Y75909D01*
X118737D01*
Y75830D01*
Y75751D01*
Y75672D01*
X118658D01*
Y75592D01*
Y75513D01*
Y75434D01*
Y75355D01*
X118579D01*
Y75276D01*
Y75197D01*
Y75118D01*
X118500D01*
Y75039D01*
Y74959D01*
Y74880D01*
Y74801D01*
X118421D01*
Y74722D01*
Y74643D01*
Y74564D01*
X118342D01*
Y74485D01*
Y74406D01*
Y74327D01*
X118263D01*
Y74247D01*
Y74168D01*
Y74089D01*
Y74010D01*
X118184D01*
Y73931D01*
Y73852D01*
Y73773D01*
X118105D01*
Y73694D01*
Y73615D01*
Y73535D01*
Y73456D01*
X118026D01*
Y73377D01*
Y73298D01*
Y73219D01*
X117946D01*
Y73140D01*
Y73061D01*
Y72982D01*
X117867D01*
Y72903D01*
Y72823D01*
Y72744D01*
X117788D01*
Y72665D01*
Y72586D01*
X117709D01*
Y72507D01*
X117630D01*
Y72428D01*
X117551D01*
Y72349D01*
X117472D01*
Y72269D01*
X117313D01*
Y72190D01*
X117155D01*
Y72111D01*
X114782D01*
Y72190D01*
Y72269D01*
X114861D01*
Y72349D01*
Y72428D01*
Y72507D01*
X114940D01*
Y72586D01*
Y72665D01*
Y72744D01*
X115019D01*
Y72823D01*
Y72903D01*
Y72982D01*
Y73061D01*
X115098D01*
Y73140D01*
Y73219D01*
Y73298D01*
X115177D01*
Y73377D01*
Y73456D01*
Y73535D01*
Y73615D01*
X115256D01*
Y73694D01*
Y73773D01*
Y73852D01*
X115336D01*
Y73931D01*
Y74010D01*
Y74089D01*
X115415D01*
Y74168D01*
Y74247D01*
Y74327D01*
Y74406D01*
X115494D01*
Y74485D01*
Y74564D01*
Y74643D01*
X115573D01*
Y74722D01*
Y74801D01*
Y74880D01*
Y74959D01*
X115652D01*
Y75039D01*
Y75118D01*
Y75197D01*
X115731D01*
Y75276D01*
Y75355D01*
Y75434D01*
X115810D01*
Y75513D01*
Y75592D01*
Y75672D01*
Y75751D01*
X115889D01*
Y75830D01*
Y75909D01*
Y75988D01*
X115968D01*
Y76067D01*
Y76146D01*
Y76225D01*
Y76305D01*
X116048D01*
Y76384D01*
Y76463D01*
Y76542D01*
X116127D01*
Y76621D01*
Y76700D01*
Y76779D01*
X116206D01*
Y76858D01*
Y76937D01*
Y77017D01*
Y77096D01*
X116285D01*
Y77175D01*
Y77254D01*
Y77333D01*
X116364D01*
Y77412D01*
Y77491D01*
Y77570D01*
Y77649D01*
X116443D01*
Y77729D01*
Y77808D01*
Y77887D01*
X116522D01*
Y77966D01*
X117630D01*
Y77887D01*
Y77808D01*
Y77729D01*
X117551D01*
Y77649D01*
Y77570D01*
Y77491D01*
X117472D01*
Y77412D01*
Y77333D01*
Y77254D01*
Y77175D01*
X117393D01*
Y77096D01*
Y77017D01*
Y76937D01*
X117313D01*
Y76858D01*
Y76779D01*
Y76700D01*
X117234D01*
Y76621D01*
Y76542D01*
Y76463D01*
Y76384D01*
X117155D01*
Y76305D01*
Y76225D01*
Y76146D01*
X117076D01*
Y76067D01*
Y75988D01*
Y75909D01*
Y75830D01*
X116997D01*
Y75751D01*
Y75672D01*
Y75592D01*
X116918D01*
Y75513D01*
Y75434D01*
Y75355D01*
X116839D01*
Y75276D01*
Y75197D01*
Y75118D01*
Y75039D01*
X116760D01*
Y74959D01*
Y74880D01*
Y74801D01*
X116681D01*
Y74722D01*
Y74643D01*
Y74564D01*
X116601D01*
Y74485D01*
Y74406D01*
Y74327D01*
Y74247D01*
X116522D01*
Y74168D01*
Y74089D01*
Y74010D01*
X116443D01*
Y73931D01*
Y73852D01*
Y73773D01*
Y73694D01*
X116364D01*
Y73615D01*
Y73535D01*
Y73456D01*
X116285D01*
Y73377D01*
Y73298D01*
Y73219D01*
X116206D01*
Y73140D01*
X116760D01*
Y73219D01*
X116839D01*
Y73298D01*
Y73377D01*
X116918D01*
Y73456D01*
Y73535D01*
Y73615D01*
X116997D01*
Y73694D01*
Y73773D01*
Y73852D01*
Y73931D01*
X117076D01*
Y74010D01*
Y74089D01*
Y74168D01*
X117155D01*
Y74247D01*
Y74327D01*
Y74406D01*
X117234D01*
Y74485D01*
Y74564D01*
Y74643D01*
Y74722D01*
X117313D01*
Y74801D01*
Y74880D01*
Y74959D01*
X117393D01*
Y75039D01*
Y75118D01*
Y75197D01*
Y75276D01*
X117472D01*
Y75355D01*
Y75434D01*
Y75513D01*
X117551D01*
Y75592D01*
Y75672D01*
Y75751D01*
X117630D01*
Y75830D01*
Y75909D01*
Y75988D01*
Y76067D01*
X117709D01*
Y76146D01*
Y76225D01*
Y76305D01*
X117788D01*
Y76384D01*
Y76463D01*
Y76542D01*
Y76621D01*
X117867D01*
Y76700D01*
Y76779D01*
Y76858D01*
X117946D01*
Y76937D01*
Y77017D01*
Y77096D01*
X118026D01*
Y77175D01*
Y77254D01*
Y77333D01*
Y77412D01*
X118105D01*
Y77491D01*
Y77570D01*
Y77649D01*
X118184D01*
Y77729D01*
Y77808D01*
Y77887D01*
Y77966D01*
X118263D01*
Y78045D01*
X118184D01*
Y78124D01*
X116048D01*
Y78203D01*
Y78282D01*
X116127D01*
Y78361D01*
X116206D01*
Y78441D01*
Y78520D01*
X116285D01*
Y78599D01*
Y78678D01*
X116364D01*
Y78757D01*
X116443D01*
Y78836D01*
Y78915D01*
X116522D01*
Y78995D01*
X116601D01*
Y79074D01*
Y79153D01*
X119133D01*
Y79074D01*
D02*
G37*
G36*
X115494D02*
X115652D01*
Y78995D01*
X115731D01*
Y78915D01*
X115810D01*
Y78836D01*
X115889D01*
Y78757D01*
Y78678D01*
Y78599D01*
Y78520D01*
Y78441D01*
Y78361D01*
X115810D01*
Y78282D01*
Y78203D01*
Y78124D01*
Y78045D01*
X115731D01*
Y77966D01*
Y77887D01*
Y77808D01*
X115652D01*
Y77729D01*
Y77649D01*
Y77570D01*
X115573D01*
Y77491D01*
Y77412D01*
Y77333D01*
Y77254D01*
X115494D01*
Y77175D01*
Y77096D01*
Y77017D01*
X115415D01*
Y76937D01*
Y76858D01*
Y76779D01*
Y76700D01*
X115336D01*
Y76621D01*
Y76542D01*
Y76463D01*
X115256D01*
Y76384D01*
Y76305D01*
Y76225D01*
Y76146D01*
X115177D01*
Y76067D01*
Y75988D01*
Y75909D01*
X115098D01*
Y75830D01*
Y75751D01*
Y75672D01*
X115019D01*
Y75592D01*
Y75513D01*
Y75434D01*
Y75355D01*
X114940D01*
Y75276D01*
Y75197D01*
Y75118D01*
X114861D01*
Y75039D01*
Y74959D01*
Y74880D01*
Y74801D01*
X114782D01*
Y74722D01*
Y74643D01*
Y74564D01*
X114703D01*
Y74485D01*
Y74406D01*
Y74327D01*
Y74247D01*
X114623D01*
Y74168D01*
Y74089D01*
Y74010D01*
X114544D01*
Y73931D01*
Y73852D01*
Y73773D01*
Y73694D01*
X114465D01*
Y73615D01*
Y73535D01*
Y73456D01*
X114386D01*
Y73377D01*
Y73298D01*
Y73219D01*
X114307D01*
Y73140D01*
Y73061D01*
Y72982D01*
Y72903D01*
X114228D01*
Y72823D01*
Y72744D01*
Y72665D01*
X114149D01*
Y72586D01*
X114070D01*
Y72507D01*
Y72428D01*
X113990D01*
Y72349D01*
X113832D01*
Y72269D01*
X113753D01*
Y72190D01*
X113516D01*
Y72111D01*
X111775D01*
Y72190D01*
X111617D01*
Y72269D01*
X111538D01*
Y72349D01*
X111459D01*
Y72428D01*
X111380D01*
Y72507D01*
Y72586D01*
Y72665D01*
Y72744D01*
Y72823D01*
Y72903D01*
Y72982D01*
Y73061D01*
Y73140D01*
X111459D01*
Y73219D01*
Y73298D01*
Y73377D01*
X111538D01*
Y73456D01*
Y73535D01*
Y73615D01*
Y73694D01*
X111617D01*
Y73773D01*
Y73852D01*
Y73931D01*
X111696D01*
Y74010D01*
Y74089D01*
Y74168D01*
Y74247D01*
X111775D01*
Y74327D01*
Y74406D01*
Y74485D01*
X111854D01*
Y74564D01*
Y74643D01*
Y74722D01*
X111934D01*
Y74801D01*
Y74880D01*
Y74959D01*
Y75039D01*
X112013D01*
Y75118D01*
Y75197D01*
Y75276D01*
X112092D01*
Y75355D01*
Y75434D01*
Y75513D01*
Y75592D01*
X112171D01*
Y75672D01*
Y75751D01*
Y75830D01*
X112250D01*
Y75909D01*
Y75988D01*
Y76067D01*
X112329D01*
Y76146D01*
Y76225D01*
Y76305D01*
Y76384D01*
X112408D01*
Y76463D01*
Y76542D01*
Y76621D01*
X112487D01*
Y76700D01*
Y76779D01*
Y76858D01*
X112566D01*
Y76937D01*
Y77017D01*
Y77096D01*
Y77175D01*
X112645D01*
Y77254D01*
Y77333D01*
Y77412D01*
X112725D01*
Y77491D01*
Y77570D01*
Y77649D01*
Y77729D01*
X112804D01*
Y77808D01*
Y77887D01*
Y77966D01*
X113990D01*
Y77887D01*
Y77808D01*
X113911D01*
Y77729D01*
Y77649D01*
Y77570D01*
X113832D01*
Y77491D01*
Y77412D01*
Y77333D01*
Y77254D01*
X113753D01*
Y77175D01*
Y77096D01*
Y77017D01*
X113674D01*
Y76937D01*
Y76858D01*
Y76779D01*
X113595D01*
Y76700D01*
Y76621D01*
Y76542D01*
Y76463D01*
X113516D01*
Y76384D01*
Y76305D01*
Y76225D01*
X113437D01*
Y76146D01*
Y76067D01*
Y75988D01*
Y75909D01*
X113358D01*
Y75830D01*
Y75751D01*
Y75672D01*
X113278D01*
Y75592D01*
Y75513D01*
Y75434D01*
X113199D01*
Y75355D01*
Y75276D01*
Y75197D01*
Y75118D01*
X113120D01*
Y75039D01*
Y74959D01*
Y74880D01*
X113041D01*
Y74801D01*
Y74722D01*
Y74643D01*
Y74564D01*
X112962D01*
Y74485D01*
Y74406D01*
Y74327D01*
X112883D01*
Y74247D01*
Y74168D01*
Y74089D01*
X112804D01*
Y74010D01*
Y73931D01*
Y73852D01*
Y73773D01*
X112725D01*
Y73694D01*
Y73615D01*
Y73535D01*
X112645D01*
Y73456D01*
Y73377D01*
Y73298D01*
Y73219D01*
Y73140D01*
X113199D01*
Y73219D01*
Y73298D01*
Y73377D01*
X113278D01*
Y73456D01*
Y73535D01*
Y73615D01*
X113358D01*
Y73694D01*
Y73773D01*
Y73852D01*
X113437D01*
Y73931D01*
Y74010D01*
Y74089D01*
Y74168D01*
X113516D01*
Y74247D01*
Y74327D01*
Y74406D01*
X113595D01*
Y74485D01*
Y74564D01*
Y74643D01*
Y74722D01*
X113674D01*
Y74801D01*
Y74880D01*
Y74959D01*
X113753D01*
Y75039D01*
Y75118D01*
Y75197D01*
Y75276D01*
X113832D01*
Y75355D01*
Y75434D01*
Y75513D01*
X113911D01*
Y75592D01*
Y75672D01*
Y75751D01*
X113990D01*
Y75830D01*
Y75909D01*
Y75988D01*
Y76067D01*
X114070D01*
Y76146D01*
Y76225D01*
Y76305D01*
X114149D01*
Y76384D01*
Y76463D01*
Y76542D01*
Y76621D01*
X114228D01*
Y76700D01*
Y76779D01*
Y76858D01*
X114307D01*
Y76937D01*
Y77017D01*
Y77096D01*
Y77175D01*
X114386D01*
Y77254D01*
Y77333D01*
Y77412D01*
X114465D01*
Y77491D01*
Y77570D01*
Y77649D01*
X114544D01*
Y77729D01*
Y77808D01*
Y77887D01*
Y77966D01*
X114623D01*
Y78045D01*
X114544D01*
Y78124D01*
X112408D01*
Y78203D01*
Y78282D01*
X112487D01*
Y78361D01*
Y78441D01*
X112566D01*
Y78520D01*
Y78599D01*
X112645D01*
Y78678D01*
X112725D01*
Y78757D01*
Y78836D01*
X112804D01*
Y78915D01*
X112883D01*
Y78995D01*
Y79074D01*
X112962D01*
Y79153D01*
X115494D01*
Y79074D01*
D02*
G37*
G36*
X128469Y77017D02*
X128548D01*
Y76937D01*
X128627D01*
Y76858D01*
X128706D01*
Y76779D01*
Y76700D01*
Y76621D01*
Y76542D01*
Y76463D01*
Y76384D01*
Y76305D01*
Y76225D01*
X128627D01*
Y76146D01*
Y76067D01*
Y75988D01*
X128548D01*
Y75909D01*
Y75830D01*
Y75751D01*
Y75672D01*
X128469D01*
Y75592D01*
Y75513D01*
Y75434D01*
X128390D01*
Y75355D01*
Y75276D01*
Y75197D01*
X128311D01*
Y75118D01*
Y75039D01*
Y74959D01*
X128232D01*
Y74880D01*
X128152D01*
Y74801D01*
Y74722D01*
X128073D01*
Y74643D01*
X127994D01*
Y74564D01*
X127915D01*
Y74485D01*
X127836D01*
Y74406D01*
X127678D01*
Y74327D01*
X127599D01*
Y74247D01*
X127520D01*
Y74168D01*
X127440D01*
Y74089D01*
X127282D01*
Y74010D01*
X127203D01*
Y73931D01*
X127124D01*
Y73852D01*
X127045D01*
Y73773D01*
X126966D01*
Y73694D01*
X126807D01*
Y73615D01*
X126728D01*
Y73535D01*
X126649D01*
Y73456D01*
X126570D01*
Y73377D01*
Y73298D01*
X126491D01*
Y73219D01*
X126412D01*
Y73140D01*
Y73061D01*
X127757D01*
Y72982D01*
X127678D01*
Y72903D01*
Y72823D01*
X127599D01*
Y72744D01*
Y72665D01*
Y72586D01*
X127520D01*
Y72507D01*
Y72428D01*
Y72349D01*
X127440D01*
Y72269D01*
Y72190D01*
Y72111D01*
X125067D01*
Y72190D01*
Y72269D01*
Y72349D01*
X125146D01*
Y72428D01*
Y72507D01*
Y72586D01*
Y72665D01*
X125225D01*
Y72744D01*
Y72823D01*
Y72903D01*
Y72982D01*
X125304D01*
Y73061D01*
Y73140D01*
Y73219D01*
X125383D01*
Y73298D01*
Y73377D01*
X125462D01*
Y73456D01*
Y73535D01*
X125542D01*
Y73615D01*
Y73694D01*
X125621D01*
Y73773D01*
X125700D01*
Y73852D01*
X125779D01*
Y73931D01*
X125858D01*
Y74010D01*
X125937D01*
Y74089D01*
X126016D01*
Y74168D01*
X126095D01*
Y74247D01*
X126174D01*
Y74327D01*
X126254D01*
Y74406D01*
X126333D01*
Y74485D01*
X126491D01*
Y74564D01*
X126570D01*
Y74643D01*
X126649D01*
Y74722D01*
X126728D01*
Y74801D01*
X126887D01*
Y74880D01*
X126966D01*
Y74959D01*
X127045D01*
Y75039D01*
X127124D01*
Y75118D01*
X127203D01*
Y75197D01*
X127282D01*
Y75276D01*
X127361D01*
Y75355D01*
X127440D01*
Y75434D01*
Y75513D01*
Y75592D01*
X127520D01*
Y75672D01*
Y75751D01*
Y75830D01*
Y75909D01*
X127599D01*
Y75988D01*
Y76067D01*
Y76146D01*
X127678D01*
Y76225D01*
X127599D01*
Y76305D01*
X127203D01*
Y76225D01*
X127124D01*
Y76146D01*
Y76067D01*
Y75988D01*
X127045D01*
Y75909D01*
Y75830D01*
Y75751D01*
Y75672D01*
X126966D01*
Y75592D01*
X126016D01*
Y75672D01*
X126095D01*
Y75751D01*
Y75830D01*
Y75909D01*
Y75988D01*
X126174D01*
Y76067D01*
Y76146D01*
Y76225D01*
X126254D01*
Y76305D01*
Y76384D01*
Y76463D01*
Y76542D01*
X126333D01*
Y76621D01*
Y76700D01*
Y76779D01*
X126412D01*
Y76858D01*
Y76937D01*
Y77017D01*
X126491D01*
Y77096D01*
X128469D01*
Y77017D01*
D02*
G37*
G36*
X121269Y77887D02*
Y77808D01*
Y77729D01*
X121190D01*
Y77649D01*
Y77570D01*
Y77491D01*
Y77412D01*
X121111D01*
Y77333D01*
Y77254D01*
Y77175D01*
X121032D01*
Y77096D01*
Y77017D01*
Y76937D01*
X120953D01*
Y76858D01*
Y76779D01*
Y76700D01*
Y76621D01*
X120874D01*
Y76542D01*
Y76463D01*
Y76384D01*
X120795D01*
Y76305D01*
Y76225D01*
X121902D01*
Y76146D01*
X121823D01*
Y76067D01*
Y75988D01*
Y75909D01*
Y75830D01*
X121744D01*
Y75751D01*
Y75672D01*
Y75592D01*
X121665D01*
Y75513D01*
Y75434D01*
Y75355D01*
Y75276D01*
X121586D01*
Y75197D01*
X120478D01*
Y75118D01*
Y75039D01*
X120399D01*
Y74959D01*
Y74880D01*
Y74801D01*
X120320D01*
Y74722D01*
Y74643D01*
Y74564D01*
Y74485D01*
X120241D01*
Y74406D01*
Y74327D01*
Y74247D01*
X120162D01*
Y74168D01*
Y74089D01*
Y74010D01*
Y73931D01*
X120082D01*
Y73852D01*
Y73773D01*
Y73694D01*
X120003D01*
Y73615D01*
Y73535D01*
Y73456D01*
Y73377D01*
X119924D01*
Y73298D01*
Y73219D01*
Y73140D01*
X121111D01*
Y73061D01*
X121032D01*
Y72982D01*
Y72903D01*
X120953D01*
Y72823D01*
X120874D01*
Y72744D01*
Y72665D01*
X120795D01*
Y72586D01*
Y72507D01*
X120715D01*
Y72428D01*
Y72349D01*
X120636D01*
Y72269D01*
Y72190D01*
X120557D01*
Y72111D01*
X118421D01*
Y72190D01*
X118500D01*
Y72269D01*
Y72349D01*
Y72428D01*
Y72507D01*
X118579D01*
Y72586D01*
Y72665D01*
Y72744D01*
X118658D01*
Y72823D01*
Y72903D01*
Y72982D01*
Y73061D01*
X118737D01*
Y73140D01*
Y73219D01*
Y73298D01*
X118817D01*
Y73377D01*
Y73456D01*
Y73535D01*
X118896D01*
Y73615D01*
Y73694D01*
Y73773D01*
Y73852D01*
X118975D01*
Y73931D01*
Y74010D01*
Y74089D01*
X119054D01*
Y74168D01*
Y74247D01*
Y74327D01*
Y74406D01*
X119133D01*
Y74485D01*
Y74564D01*
Y74643D01*
X119212D01*
Y74722D01*
Y74801D01*
Y74880D01*
X119291D01*
Y74959D01*
Y75039D01*
Y75118D01*
Y75197D01*
X119370D01*
Y75276D01*
Y75355D01*
Y75434D01*
X119450D01*
Y75513D01*
Y75592D01*
Y75672D01*
Y75751D01*
X119529D01*
Y75830D01*
Y75909D01*
Y75988D01*
X119608D01*
Y76067D01*
Y76146D01*
Y76225D01*
X119687D01*
Y76305D01*
Y76384D01*
Y76463D01*
Y76542D01*
X119766D01*
Y76621D01*
Y76700D01*
Y76779D01*
X119845D01*
Y76858D01*
Y76937D01*
Y77017D01*
Y77096D01*
X119924D01*
Y77175D01*
Y77254D01*
Y77333D01*
X120003D01*
Y77412D01*
Y77491D01*
Y77570D01*
X120082D01*
Y77649D01*
Y77729D01*
Y77808D01*
Y77887D01*
X120162D01*
Y77966D01*
X121269D01*
Y77887D01*
D02*
G37*
G36*
X111854Y79074D02*
X112013D01*
Y78995D01*
X112092D01*
Y78915D01*
X112171D01*
Y78836D01*
Y78757D01*
X112250D01*
Y78678D01*
Y78599D01*
Y78520D01*
Y78441D01*
X112171D01*
Y78361D01*
Y78282D01*
Y78203D01*
Y78124D01*
X112092D01*
Y78045D01*
Y77966D01*
Y77887D01*
X112013D01*
Y77808D01*
Y77729D01*
Y77649D01*
X111934D01*
Y77570D01*
Y77491D01*
Y77412D01*
Y77333D01*
X111854D01*
Y77254D01*
Y77175D01*
Y77096D01*
X111775D01*
Y77017D01*
Y76937D01*
Y76858D01*
Y76779D01*
X111696D01*
Y76700D01*
Y76621D01*
Y76542D01*
X111617D01*
Y76463D01*
Y76384D01*
Y76305D01*
X111538D01*
Y76225D01*
Y76146D01*
Y76067D01*
Y75988D01*
X111459D01*
Y75909D01*
Y75830D01*
Y75751D01*
X111380D01*
Y75672D01*
Y75592D01*
Y75513D01*
Y75434D01*
X111301D01*
Y75355D01*
Y75276D01*
Y75197D01*
X111221D01*
Y75118D01*
Y75039D01*
Y74959D01*
X111142D01*
Y74880D01*
Y74801D01*
Y74722D01*
Y74643D01*
X111063D01*
Y74564D01*
Y74485D01*
Y74406D01*
X110984D01*
Y74327D01*
Y74247D01*
Y74168D01*
X110905D01*
Y74089D01*
Y74010D01*
Y73931D01*
Y73852D01*
X110826D01*
Y73773D01*
Y73694D01*
Y73615D01*
X110747D01*
Y73535D01*
Y73456D01*
Y73377D01*
Y73298D01*
X110668D01*
Y73219D01*
Y73140D01*
Y73061D01*
X110589D01*
Y72982D01*
Y72903D01*
Y72823D01*
X110509D01*
Y72744D01*
Y72665D01*
Y72586D01*
Y72507D01*
X110430D01*
Y72428D01*
Y72349D01*
Y72269D01*
X110351D01*
Y72190D01*
Y72111D01*
X109244D01*
Y72190D01*
Y72269D01*
Y72349D01*
Y72428D01*
X109323D01*
Y72507D01*
Y72586D01*
Y72665D01*
X109402D01*
Y72744D01*
Y72823D01*
Y72903D01*
X109481D01*
Y72982D01*
Y73061D01*
Y73140D01*
Y73219D01*
X109560D01*
Y73298D01*
Y73377D01*
Y73456D01*
X109639D01*
Y73535D01*
Y73615D01*
Y73694D01*
Y73773D01*
X109718D01*
Y73852D01*
Y73931D01*
Y74010D01*
X109797D01*
Y74089D01*
Y74168D01*
Y74247D01*
X109876D01*
Y74327D01*
Y74406D01*
Y74485D01*
Y74564D01*
X109956D01*
Y74643D01*
Y74722D01*
Y74801D01*
X110035D01*
Y74880D01*
Y74959D01*
Y75039D01*
Y75118D01*
X110114D01*
Y75197D01*
Y75276D01*
Y75355D01*
X110193D01*
Y75434D01*
Y75513D01*
Y75592D01*
X110272D01*
Y75672D01*
Y75751D01*
Y75830D01*
Y75909D01*
X110351D01*
Y75988D01*
Y76067D01*
Y76146D01*
X110430D01*
Y76225D01*
Y76305D01*
Y76384D01*
Y76463D01*
X110509D01*
Y76542D01*
Y76621D01*
Y76700D01*
X110589D01*
Y76779D01*
Y76858D01*
Y76937D01*
X110668D01*
Y77017D01*
Y77096D01*
Y77175D01*
Y77254D01*
X110747D01*
Y77333D01*
Y77412D01*
Y77491D01*
X110826D01*
Y77570D01*
Y77649D01*
Y77729D01*
X110905D01*
Y77808D01*
Y77887D01*
Y77966D01*
Y78045D01*
Y78124D01*
X108769D01*
Y78203D01*
Y78282D01*
X108848D01*
Y78361D01*
Y78441D01*
X108927D01*
Y78520D01*
X109006D01*
Y78599D01*
Y78678D01*
X109085D01*
Y78757D01*
X109164D01*
Y78836D01*
Y78915D01*
X109244D01*
Y78995D01*
Y79074D01*
X109323D01*
Y79153D01*
X111854D01*
Y79074D01*
D02*
G37*
G36*
X110351Y77966D02*
Y77887D01*
Y77808D01*
X110272D01*
Y77729D01*
Y77649D01*
Y77570D01*
Y77491D01*
X110193D01*
Y77412D01*
Y77333D01*
Y77254D01*
X110114D01*
Y77175D01*
Y77096D01*
Y77017D01*
X110035D01*
Y76937D01*
Y76858D01*
Y76779D01*
Y76700D01*
X109956D01*
Y76621D01*
Y76542D01*
Y76463D01*
X109876D01*
Y76384D01*
Y76305D01*
Y76225D01*
Y76146D01*
X109797D01*
Y76067D01*
Y75988D01*
Y75909D01*
X109718D01*
Y75830D01*
Y75751D01*
Y75672D01*
X109639D01*
Y75592D01*
Y75513D01*
Y75434D01*
Y75355D01*
X109560D01*
Y75276D01*
Y75197D01*
Y75118D01*
X109481D01*
Y75039D01*
Y74959D01*
Y74880D01*
Y74801D01*
X109402D01*
Y74722D01*
Y74643D01*
Y74564D01*
X109323D01*
Y74485D01*
Y74406D01*
Y74327D01*
X109244D01*
Y74247D01*
Y74168D01*
Y74089D01*
Y74010D01*
X109164D01*
Y73931D01*
Y73852D01*
Y73773D01*
X109085D01*
Y73694D01*
Y73615D01*
Y73535D01*
Y73456D01*
X109006D01*
Y73377D01*
Y73298D01*
Y73219D01*
X108927D01*
Y73140D01*
Y73061D01*
Y72982D01*
X108848D01*
Y72903D01*
Y72823D01*
Y72744D01*
Y72665D01*
X108769D01*
Y72586D01*
Y72507D01*
Y72428D01*
X108690D01*
Y72349D01*
Y72269D01*
Y72190D01*
Y72111D01*
X107503D01*
Y72190D01*
Y72269D01*
X107582D01*
Y72349D01*
Y72428D01*
Y72507D01*
Y72586D01*
X107661D01*
Y72665D01*
Y72744D01*
Y72823D01*
X107740D01*
Y72903D01*
Y72982D01*
Y73061D01*
X107819D01*
Y73140D01*
Y73219D01*
Y73298D01*
Y73377D01*
X107898D01*
Y73456D01*
Y73535D01*
Y73615D01*
X107978D01*
Y73694D01*
Y73773D01*
Y73852D01*
Y73931D01*
X108057D01*
Y74010D01*
Y74089D01*
Y74168D01*
X108136D01*
Y74247D01*
Y74327D01*
Y74406D01*
X108215D01*
Y74485D01*
Y74564D01*
Y74643D01*
Y74722D01*
X108294D01*
Y74801D01*
Y74880D01*
Y74959D01*
X108373D01*
Y75039D01*
Y75118D01*
Y75197D01*
Y75276D01*
X108452D01*
Y75355D01*
Y75434D01*
Y75513D01*
X108531D01*
Y75592D01*
Y75672D01*
Y75751D01*
X108611D01*
Y75830D01*
Y75909D01*
Y75988D01*
Y76067D01*
X108690D01*
Y76146D01*
Y76225D01*
Y76305D01*
X108769D01*
Y76384D01*
Y76463D01*
Y76542D01*
Y76621D01*
X108848D01*
Y76700D01*
Y76779D01*
Y76858D01*
X108927D01*
Y76937D01*
Y77017D01*
Y77096D01*
X109006D01*
Y77175D01*
Y77254D01*
Y77333D01*
Y77412D01*
X109085D01*
Y77491D01*
Y77570D01*
Y77649D01*
X109164D01*
Y77729D01*
Y77808D01*
Y77887D01*
Y77966D01*
X109244D01*
Y78045D01*
X110351D01*
Y77966D01*
D02*
G37*
G36*
X107898Y77017D02*
Y76937D01*
Y76858D01*
Y76779D01*
Y76700D01*
Y76621D01*
Y76542D01*
X107819D01*
Y76463D01*
Y76384D01*
Y76305D01*
Y76225D01*
Y76146D01*
Y76067D01*
Y75988D01*
X107740D01*
Y75909D01*
Y75830D01*
Y75751D01*
Y75672D01*
Y75592D01*
Y75513D01*
Y75434D01*
Y75355D01*
X107661D01*
Y75276D01*
Y75197D01*
Y75118D01*
Y75039D01*
Y74959D01*
Y74880D01*
Y74801D01*
X107582D01*
Y74722D01*
Y74643D01*
Y74564D01*
Y74485D01*
Y74406D01*
Y74327D01*
Y74247D01*
X107503D01*
Y74168D01*
Y74089D01*
Y74010D01*
Y73931D01*
Y73852D01*
Y73773D01*
Y73694D01*
Y73615D01*
X107424D01*
Y73535D01*
Y73456D01*
Y73377D01*
Y73298D01*
Y73219D01*
Y73140D01*
Y73061D01*
X107345D01*
Y72982D01*
Y72903D01*
Y72823D01*
Y72744D01*
Y72665D01*
Y72586D01*
Y72507D01*
Y72428D01*
X107266D01*
Y72349D01*
Y72269D01*
Y72190D01*
Y72111D01*
X106237D01*
Y72190D01*
Y72269D01*
Y72349D01*
Y72428D01*
X106316D01*
Y72507D01*
Y72586D01*
Y72665D01*
Y72744D01*
Y72823D01*
X106395D01*
Y72903D01*
Y72982D01*
X106316D01*
Y73061D01*
X105762D01*
Y72982D01*
X105683D01*
Y72903D01*
Y72823D01*
X105604D01*
Y72744D01*
Y72665D01*
X105525D01*
Y72586D01*
Y72507D01*
Y72428D01*
X105446D01*
Y72349D01*
Y72269D01*
X105367D01*
Y72190D01*
Y72111D01*
X104259D01*
Y72190D01*
X104338D01*
Y72269D01*
Y72349D01*
X104417D01*
Y72428D01*
Y72507D01*
X104497D01*
Y72586D01*
Y72665D01*
Y72744D01*
X104576D01*
Y72823D01*
Y72903D01*
X104655D01*
Y72982D01*
Y73061D01*
X104734D01*
Y73140D01*
Y73219D01*
X104813D01*
Y73298D01*
Y73377D01*
Y73456D01*
X104892D01*
Y73535D01*
Y73615D01*
X104971D01*
Y73694D01*
Y73773D01*
X105050D01*
Y73852D01*
Y73931D01*
X105129D01*
Y74010D01*
Y74089D01*
Y74168D01*
X105209D01*
Y74247D01*
Y74327D01*
X105288D01*
Y74406D01*
Y74485D01*
X105367D01*
Y74564D01*
Y74643D01*
Y74722D01*
X105446D01*
Y74801D01*
Y74880D01*
X105525D01*
Y74959D01*
Y75039D01*
X105604D01*
Y75118D01*
Y75197D01*
X105683D01*
Y75276D01*
Y75355D01*
Y75434D01*
X105762D01*
Y75513D01*
Y75592D01*
X105842D01*
Y75672D01*
Y75751D01*
X105921D01*
Y75830D01*
Y75909D01*
Y75988D01*
X106000D01*
Y76067D01*
Y76146D01*
X106079D01*
Y76225D01*
Y76305D01*
X106158D01*
Y76384D01*
Y76463D01*
X106237D01*
Y76542D01*
Y76621D01*
Y76700D01*
X106316D01*
Y76779D01*
Y76858D01*
X106395D01*
Y76937D01*
Y77017D01*
X106474D01*
Y77096D01*
X107898D01*
Y77017D01*
D02*
G37*
G36*
X101886D02*
X102044D01*
Y76937D01*
X102123D01*
Y76858D01*
Y76779D01*
Y76700D01*
Y76621D01*
Y76542D01*
Y76463D01*
Y76384D01*
X102044D01*
Y76305D01*
Y76225D01*
Y76146D01*
X101965D01*
Y76067D01*
Y75988D01*
Y75909D01*
Y75830D01*
X101886D01*
Y75751D01*
Y75672D01*
Y75592D01*
X101806D01*
Y75513D01*
Y75434D01*
Y75355D01*
Y75276D01*
X101727D01*
Y75197D01*
Y75118D01*
Y75039D01*
X101648D01*
Y74959D01*
Y74880D01*
Y74801D01*
X101569D01*
Y74722D01*
Y74643D01*
Y74564D01*
Y74485D01*
X101490D01*
Y74406D01*
Y74327D01*
Y74247D01*
X101411D01*
Y74168D01*
Y74089D01*
Y74010D01*
Y73931D01*
X101332D01*
Y73852D01*
Y73773D01*
Y73694D01*
X101253D01*
Y73615D01*
Y73535D01*
Y73456D01*
X101174D01*
Y73377D01*
Y73298D01*
Y73219D01*
Y73140D01*
X101094D01*
Y73061D01*
Y72982D01*
Y72903D01*
X101015D01*
Y72823D01*
Y72744D01*
Y72665D01*
Y72586D01*
X100936D01*
Y72507D01*
Y72428D01*
X100857D01*
Y72349D01*
X100778D01*
Y72269D01*
X100699D01*
Y72190D01*
X100461D01*
Y72111D01*
X98721D01*
Y72190D01*
X98563D01*
Y72269D01*
X98484D01*
Y72349D01*
Y72428D01*
Y72507D01*
X98405D01*
Y72586D01*
Y72665D01*
Y72744D01*
X98484D01*
Y72823D01*
Y72903D01*
Y72982D01*
X98563D01*
Y73061D01*
Y73140D01*
Y73219D01*
Y73298D01*
X98642D01*
Y73377D01*
Y73456D01*
Y73535D01*
X98721D01*
Y73615D01*
Y73694D01*
Y73773D01*
Y73852D01*
X98800D01*
Y73931D01*
Y74010D01*
Y74089D01*
X98879D01*
Y74168D01*
Y74247D01*
Y74327D01*
X98958D01*
Y74406D01*
Y74485D01*
Y74564D01*
Y74643D01*
X99037D01*
Y74722D01*
Y74801D01*
Y74880D01*
X99116D01*
Y74959D01*
Y75039D01*
Y75118D01*
Y75197D01*
X99196D01*
Y75276D01*
Y75355D01*
Y75434D01*
X99275D01*
Y75513D01*
Y75592D01*
Y75672D01*
X99354D01*
Y75751D01*
Y75830D01*
Y75909D01*
Y75988D01*
X99433D01*
Y76067D01*
Y76146D01*
Y76225D01*
X99512D01*
Y76305D01*
Y76384D01*
Y76463D01*
X99591D01*
Y76542D01*
Y76621D01*
Y76700D01*
X99670D01*
Y76779D01*
Y76858D01*
X99749D01*
Y76937D01*
X99829D01*
Y77017D01*
X99987D01*
Y77096D01*
X101886D01*
Y77017D01*
D02*
G37*
G36*
X98879Y79074D02*
Y78995D01*
X98800D01*
Y78915D01*
Y78836D01*
Y78757D01*
Y78678D01*
X98721D01*
Y78599D01*
Y78520D01*
Y78441D01*
X98642D01*
Y78361D01*
Y78282D01*
Y78203D01*
Y78124D01*
X98563D01*
Y78045D01*
Y77966D01*
Y77887D01*
X98484D01*
Y77808D01*
Y77729D01*
Y77649D01*
X98405D01*
Y77570D01*
Y77491D01*
Y77412D01*
Y77333D01*
X98325D01*
Y77254D01*
Y77175D01*
Y77096D01*
X98246D01*
Y77017D01*
Y76937D01*
Y76858D01*
Y76779D01*
X98167D01*
Y76700D01*
Y76621D01*
Y76542D01*
X98088D01*
Y76463D01*
Y76384D01*
Y76305D01*
X98009D01*
Y76225D01*
Y76146D01*
Y76067D01*
Y75988D01*
X97930D01*
Y75909D01*
Y75830D01*
Y75751D01*
X97851D01*
Y75672D01*
Y75592D01*
Y75513D01*
Y75434D01*
X97772D01*
Y75355D01*
Y75276D01*
Y75197D01*
X97692D01*
Y75118D01*
Y75039D01*
Y74959D01*
X97613D01*
Y74880D01*
Y74801D01*
Y74722D01*
Y74643D01*
X97534D01*
Y74564D01*
Y74485D01*
Y74406D01*
X97455D01*
Y74327D01*
Y74247D01*
Y74168D01*
Y74089D01*
X97376D01*
Y74010D01*
Y73931D01*
Y73852D01*
X97297D01*
Y73773D01*
Y73694D01*
Y73615D01*
X97218D01*
Y73535D01*
Y73456D01*
Y73377D01*
Y73298D01*
X97139D01*
Y73219D01*
Y73140D01*
X98325D01*
Y73061D01*
X98246D01*
Y72982D01*
Y72903D01*
X98167D01*
Y72823D01*
Y72744D01*
X98088D01*
Y72665D01*
X98009D01*
Y72586D01*
Y72507D01*
X97930D01*
Y72428D01*
Y72349D01*
X97851D01*
Y72269D01*
Y72190D01*
X97772D01*
Y72111D01*
X96031D01*
Y72190D01*
X95873D01*
Y72269D01*
Y72349D01*
X95794D01*
Y72428D01*
Y72507D01*
Y72586D01*
Y72665D01*
Y72744D01*
X95873D01*
Y72823D01*
Y72903D01*
Y72982D01*
X95952D01*
Y73061D01*
Y73140D01*
Y73219D01*
Y73298D01*
X96031D01*
Y73377D01*
Y73456D01*
Y73535D01*
X96110D01*
Y73615D01*
Y73694D01*
Y73773D01*
Y73852D01*
X96189D01*
Y73931D01*
Y74010D01*
Y74089D01*
X96268D01*
Y74168D01*
Y74247D01*
Y74327D01*
X96347D01*
Y74406D01*
Y74485D01*
Y74564D01*
Y74643D01*
X96426D01*
Y74722D01*
Y74801D01*
Y74880D01*
X96506D01*
Y74959D01*
Y75039D01*
Y75118D01*
X96585D01*
Y75197D01*
Y75276D01*
Y75355D01*
Y75434D01*
X96664D01*
Y75513D01*
Y75592D01*
Y75672D01*
X96743D01*
Y75751D01*
Y75830D01*
Y75909D01*
Y75988D01*
X96822D01*
Y76067D01*
Y76146D01*
Y76225D01*
X96901D01*
Y76305D01*
Y76384D01*
Y76463D01*
X96980D01*
Y76542D01*
Y76621D01*
Y76700D01*
Y76779D01*
X97060D01*
Y76858D01*
Y76937D01*
Y77017D01*
X97139D01*
Y77096D01*
Y77175D01*
Y77254D01*
Y77333D01*
X97218D01*
Y77412D01*
Y77491D01*
Y77570D01*
X97297D01*
Y77649D01*
Y77729D01*
Y77808D01*
X97376D01*
Y77887D01*
Y77966D01*
Y78045D01*
Y78124D01*
X97455D01*
Y78203D01*
Y78282D01*
Y78361D01*
X97534D01*
Y78441D01*
Y78520D01*
Y78599D01*
X97613D01*
Y78678D01*
Y78757D01*
Y78836D01*
Y78915D01*
X97692D01*
Y78995D01*
Y79074D01*
Y79153D01*
X98879D01*
Y79074D01*
D02*
G37*
%LPC*%
G36*
X113952Y102750D02*
X113607D01*
Y102707D01*
X113521D01*
Y102664D01*
X113435D01*
Y102621D01*
X113349D01*
Y102577D01*
X113306D01*
Y102534D01*
X113263D01*
Y102491D01*
Y102448D01*
X113220D01*
Y102405D01*
X113177D01*
Y102362D01*
Y102319D01*
X113134D01*
Y102276D01*
Y102233D01*
Y102190D01*
Y102147D01*
Y102104D01*
Y102061D01*
Y102018D01*
Y101975D01*
Y101932D01*
Y101889D01*
Y101846D01*
X113177D01*
Y101802D01*
Y101759D01*
X113220D01*
Y101716D01*
Y101673D01*
X113263D01*
Y101630D01*
X113306D01*
Y101587D01*
X113349D01*
Y101544D01*
X113392D01*
Y101501D01*
X113478D01*
Y101458D01*
X113564D01*
Y101415D01*
X113995D01*
Y101458D01*
X114081D01*
Y101501D01*
X114167D01*
Y101544D01*
X114210D01*
Y101587D01*
X114253D01*
Y101630D01*
X114296D01*
Y101673D01*
X114339D01*
Y101716D01*
X114382D01*
Y101759D01*
Y101802D01*
X114426D01*
Y101846D01*
Y101889D01*
Y101932D01*
X114469D01*
Y101975D01*
Y102018D01*
Y102061D01*
Y102104D01*
Y102147D01*
Y102190D01*
Y102233D01*
X114426D01*
Y102276D01*
Y102319D01*
Y102362D01*
X114382D01*
Y102405D01*
Y102448D01*
X114339D01*
Y102491D01*
X114296D01*
Y102534D01*
X114253D01*
Y102577D01*
X114210D01*
Y102621D01*
X114167D01*
Y102664D01*
X114081D01*
Y102707D01*
X113952D01*
Y102750D01*
D02*
G37*
G36*
X122564D02*
X122133D01*
Y102707D01*
X122004D01*
Y102664D01*
X121875D01*
Y102621D01*
X121789D01*
Y102577D01*
X121746D01*
Y102534D01*
X121660D01*
Y102491D01*
X121617D01*
Y102448D01*
X121574D01*
Y102405D01*
X121530D01*
Y102362D01*
X121487D01*
Y102319D01*
X121444D01*
Y102276D01*
Y102233D01*
X121401D01*
Y102190D01*
X121358D01*
Y102147D01*
Y102104D01*
X121315D01*
Y102061D01*
Y102018D01*
X121272D01*
Y101975D01*
Y101932D01*
Y101889D01*
Y101846D01*
X121229D01*
Y101802D01*
Y101759D01*
Y101716D01*
Y101673D01*
Y101630D01*
Y101587D01*
Y101544D01*
Y101501D01*
Y101458D01*
Y101415D01*
Y101372D01*
Y101329D01*
X121272D01*
Y101286D01*
Y101243D01*
Y101200D01*
X121315D01*
Y101156D01*
Y101113D01*
X121358D01*
Y101070D01*
Y101027D01*
X121401D01*
Y100984D01*
Y100941D01*
X121444D01*
Y100898D01*
X121487D01*
Y100855D01*
X121530D01*
Y100812D01*
X121574D01*
Y100769D01*
X121617D01*
Y100726D01*
X121660D01*
Y100683D01*
X121703D01*
Y100640D01*
X121789D01*
Y100597D01*
X121875D01*
Y100554D01*
X121961D01*
Y100511D01*
X122090D01*
Y100468D01*
X122607D01*
Y100511D01*
X122779D01*
Y100554D01*
X122865D01*
Y100597D01*
X122951D01*
Y100640D01*
X122995D01*
Y100683D01*
X123081D01*
Y100726D01*
X123124D01*
Y100769D01*
X123167D01*
Y100812D01*
X123210D01*
Y100855D01*
X123253D01*
Y100898D01*
X123296D01*
Y100941D01*
Y100984D01*
X123339D01*
Y101027D01*
X123382D01*
Y101070D01*
Y101113D01*
X123425D01*
Y101156D01*
Y101200D01*
Y101243D01*
X123468D01*
Y101286D01*
Y101329D01*
Y101372D01*
X123511D01*
Y101415D01*
Y101458D01*
Y101501D01*
Y101544D01*
Y101587D01*
Y101630D01*
Y101673D01*
Y101716D01*
Y101759D01*
Y101802D01*
X123468D01*
Y101846D01*
Y101889D01*
Y101932D01*
Y101975D01*
X123425D01*
Y102018D01*
Y102061D01*
Y102104D01*
X123382D01*
Y102147D01*
Y102190D01*
X123339D01*
Y102233D01*
X123296D01*
Y102276D01*
Y102319D01*
X123253D01*
Y102362D01*
X123210D01*
Y102405D01*
X123167D01*
Y102448D01*
X123124D01*
Y102491D01*
X123081D01*
Y102534D01*
X122995D01*
Y102577D01*
X122951D01*
Y102621D01*
X122865D01*
Y102664D01*
X122736D01*
Y102707D01*
X122564D01*
Y102750D01*
D02*
G37*
G36*
X105426D02*
X104952D01*
Y102707D01*
X104823D01*
Y102664D01*
X104694D01*
Y102621D01*
X104607D01*
Y102577D01*
X104564D01*
Y102534D01*
X104521D01*
Y102491D01*
X104435D01*
Y102448D01*
X104392D01*
Y102405D01*
X104349D01*
Y102362D01*
X104306D01*
Y102319D01*
X104263D01*
Y102276D01*
Y102233D01*
X104220D01*
Y102190D01*
X104177D01*
Y102147D01*
Y102104D01*
X104134D01*
Y102061D01*
Y102018D01*
Y101975D01*
X104091D01*
Y101932D01*
Y101889D01*
Y101846D01*
X104048D01*
Y101802D01*
Y101759D01*
Y101716D01*
Y101673D01*
Y101630D01*
Y101587D01*
Y101544D01*
Y101501D01*
Y101458D01*
Y101415D01*
Y101372D01*
X104091D01*
Y101329D01*
Y101286D01*
Y101243D01*
X104134D01*
Y101200D01*
Y101156D01*
Y101113D01*
X104177D01*
Y101070D01*
Y101027D01*
X104220D01*
Y100984D01*
X104263D01*
Y100941D01*
Y100898D01*
X104306D01*
Y100855D01*
X104349D01*
Y100812D01*
X104392D01*
Y100769D01*
X104435D01*
Y100726D01*
X104478D01*
Y100683D01*
X104564D01*
Y100640D01*
X104607D01*
Y100597D01*
X104694D01*
Y100554D01*
X104780D01*
Y100511D01*
X104952D01*
Y100468D01*
X105469D01*
Y100511D01*
X105598D01*
Y100554D01*
X105684D01*
Y100597D01*
X105770D01*
Y100640D01*
X105856D01*
Y100683D01*
X105899D01*
Y100726D01*
X105942D01*
Y100769D01*
X105985D01*
Y100812D01*
X106028D01*
Y100855D01*
X106072D01*
Y100898D01*
X106115D01*
Y100941D01*
X106158D01*
Y100984D01*
Y101027D01*
X106201D01*
Y101070D01*
Y101113D01*
X106244D01*
Y101156D01*
Y101200D01*
X106287D01*
Y101243D01*
Y101286D01*
Y101329D01*
X106330D01*
Y101372D01*
Y101415D01*
Y101458D01*
Y101501D01*
Y101544D01*
Y101587D01*
Y101630D01*
Y101673D01*
Y101716D01*
Y101759D01*
Y101802D01*
Y101846D01*
X106287D01*
Y101889D01*
Y101932D01*
Y101975D01*
Y102018D01*
X106244D01*
Y102061D01*
Y102104D01*
X106201D01*
Y102147D01*
Y102190D01*
X106158D01*
Y102233D01*
X106115D01*
Y102276D01*
Y102319D01*
X106072D01*
Y102362D01*
X106028D01*
Y102405D01*
X105985D01*
Y102448D01*
X105942D01*
Y102491D01*
X105899D01*
Y102534D01*
X105813D01*
Y102577D01*
X105770D01*
Y102621D01*
X105684D01*
Y102664D01*
X105555D01*
Y102707D01*
X105426D01*
Y102750D01*
D02*
G37*
G36*
X115287Y97669D02*
X115157D01*
Y97625D01*
X115200D01*
Y97582D01*
Y97539D01*
X115244D01*
Y97496D01*
Y97453D01*
X115287D01*
Y97410D01*
Y97367D01*
X115330D01*
Y97324D01*
Y97281D01*
X115373D01*
Y97238D01*
Y97195D01*
X115416D01*
Y97152D01*
Y97109D01*
X115459D01*
Y97066D01*
Y97023D01*
X115502D01*
Y96980D01*
Y96937D01*
X115545D01*
Y96894D01*
Y96850D01*
Y96807D01*
X115588D01*
Y96764D01*
Y96721D01*
X115631D01*
Y96678D01*
Y96635D01*
Y96592D01*
X115674D01*
Y96549D01*
Y96506D01*
X115717D01*
Y96463D01*
Y96420D01*
Y96377D01*
X115760D01*
Y96334D01*
Y96291D01*
Y96248D01*
X115803D01*
Y96205D01*
Y96161D01*
Y96118D01*
X115847D01*
Y96075D01*
Y96032D01*
Y95989D01*
X115890D01*
Y95946D01*
Y95903D01*
Y95860D01*
X115933D01*
Y95817D01*
Y95774D01*
Y95731D01*
Y95688D01*
X115976D01*
Y95645D01*
Y95602D01*
Y95559D01*
Y95516D01*
X116019D01*
Y95472D01*
Y95429D01*
Y95386D01*
X117999D01*
Y95429D01*
Y95472D01*
X117956D01*
Y95516D01*
Y95559D01*
X117913D01*
Y95602D01*
X117870D01*
Y95645D01*
Y95688D01*
X117827D01*
Y95731D01*
X117784D01*
Y95774D01*
Y95817D01*
X117741D01*
Y95860D01*
X117698D01*
Y95903D01*
Y95946D01*
X117655D01*
Y95989D01*
X117612D01*
Y96032D01*
X117569D01*
Y96075D01*
X117526D01*
Y96118D01*
Y96161D01*
X117483D01*
Y96205D01*
X117440D01*
Y96248D01*
X117397D01*
Y96291D01*
X117354D01*
Y96334D01*
X117311D01*
Y96377D01*
X117268D01*
Y96420D01*
X117224D01*
Y96463D01*
X117181D01*
Y96506D01*
X117138D01*
Y96549D01*
X117095D01*
Y96592D01*
X117052D01*
Y96635D01*
X117009D01*
Y96678D01*
X116966D01*
Y96721D01*
X116923D01*
Y96764D01*
X116837D01*
Y96807D01*
X116794D01*
Y96850D01*
X116751D01*
Y96894D01*
X116708D01*
Y96937D01*
X116622D01*
Y96980D01*
X116578D01*
Y97023D01*
X116492D01*
Y97066D01*
X116449D01*
Y97109D01*
X116363D01*
Y97152D01*
X116320D01*
Y97195D01*
X116234D01*
Y97238D01*
X116148D01*
Y97281D01*
X116105D01*
Y97324D01*
X116019D01*
Y97367D01*
X115933D01*
Y97410D01*
X115847D01*
Y97453D01*
X115717D01*
Y97496D01*
X115631D01*
Y97539D01*
X115545D01*
Y97582D01*
X115416D01*
Y97625D01*
X115287D01*
Y97669D01*
D02*
G37*
G36*
X113823Y97410D02*
X113736D01*
Y97367D01*
Y97324D01*
X113693D01*
Y97281D01*
X113650D01*
Y97238D01*
Y97195D01*
X113607D01*
Y97152D01*
Y97109D01*
X113564D01*
Y97066D01*
X113521D01*
Y97023D01*
Y96980D01*
X113478D01*
Y96937D01*
Y96894D01*
X113435D01*
Y96850D01*
Y96807D01*
X113392D01*
Y96764D01*
Y96721D01*
X113349D01*
Y96678D01*
Y96635D01*
X113306D01*
Y96592D01*
Y96549D01*
X113263D01*
Y96506D01*
Y96463D01*
X113220D01*
Y96420D01*
Y96377D01*
X113177D01*
Y96334D01*
Y96291D01*
Y96248D01*
X113134D01*
Y96205D01*
Y96161D01*
X113091D01*
Y96118D01*
Y96075D01*
Y96032D01*
X113048D01*
Y95989D01*
Y95946D01*
Y95903D01*
X113004D01*
Y95860D01*
Y95817D01*
Y95774D01*
X112961D01*
Y95731D01*
Y95688D01*
Y95645D01*
X112918D01*
Y95602D01*
Y95559D01*
Y95516D01*
X112875D01*
Y95472D01*
Y95429D01*
Y95386D01*
X114684D01*
Y95429D01*
Y95472D01*
Y95516D01*
X114641D01*
Y95559D01*
Y95602D01*
Y95645D01*
X114598D01*
Y95688D01*
Y95731D01*
Y95774D01*
X114555D01*
Y95817D01*
Y95860D01*
Y95903D01*
X114512D01*
Y95946D01*
Y95989D01*
Y96032D01*
X114469D01*
Y96075D01*
Y96118D01*
Y96161D01*
X114426D01*
Y96205D01*
Y96248D01*
X114382D01*
Y96291D01*
Y96334D01*
Y96377D01*
X114339D01*
Y96420D01*
Y96463D01*
X114296D01*
Y96506D01*
Y96549D01*
X114253D01*
Y96592D01*
Y96635D01*
X114210D01*
Y96678D01*
Y96721D01*
X114167D01*
Y96764D01*
Y96807D01*
X114124D01*
Y96850D01*
Y96894D01*
X114081D01*
Y96937D01*
Y96980D01*
X114038D01*
Y97023D01*
Y97066D01*
X113995D01*
Y97109D01*
X113952D01*
Y97152D01*
Y97195D01*
X113909D01*
Y97238D01*
Y97281D01*
X113866D01*
Y97324D01*
X113823D01*
Y97367D01*
Y97410D01*
D02*
G37*
G36*
X112402Y97669D02*
X112272D01*
Y97625D01*
X112143D01*
Y97582D01*
X112057D01*
Y97539D01*
X111928D01*
Y97496D01*
X111842D01*
Y97453D01*
X111713D01*
Y97410D01*
X111627D01*
Y97367D01*
X111540D01*
Y97324D01*
X111454D01*
Y97281D01*
X111411D01*
Y97238D01*
X111325D01*
Y97195D01*
X111239D01*
Y97152D01*
X111196D01*
Y97109D01*
X111110D01*
Y97066D01*
X111067D01*
Y97023D01*
X110981D01*
Y96980D01*
X110938D01*
Y96937D01*
X110851D01*
Y96894D01*
X110808D01*
Y96850D01*
X110765D01*
Y96807D01*
X110722D01*
Y96764D01*
X110636D01*
Y96721D01*
X110593D01*
Y96678D01*
X110550D01*
Y96635D01*
X110507D01*
Y96592D01*
X110464D01*
Y96549D01*
X110421D01*
Y96506D01*
X110378D01*
Y96463D01*
X110335D01*
Y96420D01*
X110292D01*
Y96377D01*
X110248D01*
Y96334D01*
X110205D01*
Y96291D01*
X110162D01*
Y96248D01*
X110119D01*
Y96205D01*
X110076D01*
Y96161D01*
X110033D01*
Y96118D01*
Y96075D01*
X109990D01*
Y96032D01*
X109947D01*
Y95989D01*
X109904D01*
Y95946D01*
X109861D01*
Y95903D01*
Y95860D01*
X109818D01*
Y95817D01*
X109775D01*
Y95774D01*
Y95731D01*
X109732D01*
Y95688D01*
X109689D01*
Y95645D01*
Y95602D01*
X109646D01*
Y95559D01*
X109603D01*
Y95516D01*
Y95472D01*
X109560D01*
Y95429D01*
Y95386D01*
X111540D01*
Y95429D01*
Y95472D01*
Y95516D01*
X111583D01*
Y95559D01*
Y95602D01*
Y95645D01*
Y95688D01*
X111627D01*
Y95731D01*
Y95774D01*
Y95817D01*
Y95860D01*
X111670D01*
Y95903D01*
Y95946D01*
Y95989D01*
X111713D01*
Y96032D01*
Y96075D01*
Y96118D01*
X111756D01*
Y96161D01*
Y96205D01*
Y96248D01*
X111799D01*
Y96291D01*
Y96334D01*
Y96377D01*
X111842D01*
Y96420D01*
Y96463D01*
Y96506D01*
X111885D01*
Y96549D01*
Y96592D01*
X111928D01*
Y96635D01*
Y96678D01*
Y96721D01*
X111971D01*
Y96764D01*
Y96807D01*
X112014D01*
Y96850D01*
Y96894D01*
Y96937D01*
X112057D01*
Y96980D01*
Y97023D01*
X112100D01*
Y97066D01*
Y97109D01*
X112143D01*
Y97152D01*
Y97195D01*
X112186D01*
Y97238D01*
Y97281D01*
X112229D01*
Y97324D01*
Y97367D01*
X112272D01*
Y97410D01*
Y97453D01*
X112315D01*
Y97496D01*
Y97539D01*
X112358D01*
Y97582D01*
Y97625D01*
X112402D01*
Y97669D01*
D02*
G37*
G36*
X122951Y93707D02*
X122736D01*
Y93664D01*
X122564D01*
Y93621D01*
X122478D01*
Y93578D01*
X122435D01*
Y93535D01*
X122392D01*
Y93492D01*
X122349D01*
Y93449D01*
X122306D01*
Y93405D01*
X122263D01*
Y93362D01*
Y93319D01*
X122220D01*
Y93276D01*
Y93233D01*
X122176D01*
Y93190D01*
Y93147D01*
Y93104D01*
Y93061D01*
Y93018D01*
Y92975D01*
Y92932D01*
Y92889D01*
Y92846D01*
Y92803D01*
X122220D01*
Y92760D01*
Y92716D01*
X122263D01*
Y92673D01*
Y92630D01*
X122306D01*
Y92587D01*
X122349D01*
Y92544D01*
X122392D01*
Y92501D01*
X122435D01*
Y92458D01*
X122521D01*
Y92415D01*
X122607D01*
Y92372D01*
X122779D01*
Y92329D01*
X122908D01*
Y92372D01*
X123081D01*
Y92415D01*
X123167D01*
Y92458D01*
X123253D01*
Y92501D01*
X123296D01*
Y92544D01*
X123339D01*
Y92587D01*
X123382D01*
Y92630D01*
Y92673D01*
X123425D01*
Y92716D01*
Y92760D01*
X123468D01*
Y92803D01*
Y92846D01*
X123511D01*
Y92889D01*
Y92932D01*
Y92975D01*
Y93018D01*
Y93061D01*
Y93104D01*
Y93147D01*
Y93190D01*
X123468D01*
Y93233D01*
Y93276D01*
Y93319D01*
X123425D01*
Y93362D01*
X123382D01*
Y93405D01*
Y93449D01*
X123339D01*
Y93492D01*
X123296D01*
Y93535D01*
X123253D01*
Y93578D01*
X123167D01*
Y93621D01*
X123081D01*
Y93664D01*
X122951D01*
Y93707D01*
D02*
G37*
G36*
X104823D02*
X104607D01*
Y93664D01*
X104478D01*
Y93621D01*
X104392D01*
Y93578D01*
X104306D01*
Y93535D01*
X104263D01*
Y93492D01*
X104220D01*
Y93449D01*
X104177D01*
Y93405D01*
Y93362D01*
X104134D01*
Y93319D01*
X104091D01*
Y93276D01*
Y93233D01*
Y93190D01*
X104048D01*
Y93147D01*
Y93104D01*
Y93061D01*
Y93018D01*
Y92975D01*
Y92932D01*
Y92889D01*
Y92846D01*
X104091D01*
Y92803D01*
Y92760D01*
Y92716D01*
X104134D01*
Y92673D01*
X104177D01*
Y92630D01*
Y92587D01*
X104220D01*
Y92544D01*
X104263D01*
Y92501D01*
X104306D01*
Y92458D01*
X104392D01*
Y92415D01*
X104478D01*
Y92372D01*
X104651D01*
Y92329D01*
X104780D01*
Y92372D01*
X104952D01*
Y92415D01*
X105038D01*
Y92458D01*
X105124D01*
Y92501D01*
X105167D01*
Y92544D01*
X105210D01*
Y92587D01*
X105253D01*
Y92630D01*
X105297D01*
Y92673D01*
Y92716D01*
X105340D01*
Y92760D01*
Y92803D01*
X105383D01*
Y92846D01*
Y92889D01*
Y92932D01*
Y92975D01*
Y93018D01*
Y93061D01*
Y93104D01*
Y93147D01*
Y93190D01*
Y93233D01*
X105340D01*
Y93276D01*
Y93319D01*
X105297D01*
Y93362D01*
Y93405D01*
X105253D01*
Y93449D01*
X105210D01*
Y93492D01*
X105167D01*
Y93535D01*
X105124D01*
Y93578D01*
X105081D01*
Y93621D01*
X104995D01*
Y93664D01*
X104823D01*
Y93707D01*
D02*
G37*
G36*
X118516Y94095D02*
X116234D01*
Y94051D01*
Y94008D01*
X116277D01*
Y93965D01*
Y93922D01*
Y93879D01*
Y93836D01*
Y93793D01*
Y93750D01*
Y93707D01*
Y93664D01*
Y93621D01*
Y93578D01*
Y93535D01*
Y93492D01*
Y93449D01*
Y93405D01*
Y93362D01*
Y93319D01*
X116320D01*
Y93276D01*
Y93233D01*
Y93190D01*
Y93147D01*
Y93104D01*
Y93061D01*
Y93018D01*
Y92975D01*
Y92932D01*
Y92889D01*
Y92846D01*
Y92803D01*
Y92760D01*
X116277D01*
Y92716D01*
Y92673D01*
Y92630D01*
Y92587D01*
Y92544D01*
Y92501D01*
Y92458D01*
Y92415D01*
Y92372D01*
Y92329D01*
Y92286D01*
Y92243D01*
Y92200D01*
Y92157D01*
Y92114D01*
Y92071D01*
Y92028D01*
Y91984D01*
X116234D01*
Y91941D01*
X118516D01*
Y91984D01*
X118559D01*
Y92028D01*
Y92071D01*
Y92114D01*
Y92157D01*
Y92200D01*
X118602D01*
Y92243D01*
Y92286D01*
Y92329D01*
Y92372D01*
Y92415D01*
Y92458D01*
Y92501D01*
Y92544D01*
X118645D01*
Y92587D01*
Y92630D01*
Y92673D01*
Y92716D01*
Y92760D01*
Y92803D01*
Y92846D01*
Y92889D01*
Y92932D01*
Y92975D01*
Y93018D01*
Y93061D01*
Y93104D01*
Y93147D01*
Y93190D01*
Y93233D01*
Y93276D01*
Y93319D01*
Y93362D01*
Y93405D01*
Y93449D01*
Y93492D01*
X118602D01*
Y93535D01*
Y93578D01*
Y93621D01*
Y93664D01*
Y93707D01*
Y93750D01*
Y93793D01*
Y93836D01*
X118559D01*
Y93879D01*
Y93922D01*
Y93965D01*
Y94008D01*
Y94051D01*
X118516D01*
Y94095D01*
D02*
G37*
G36*
X114942D02*
X112617D01*
Y94051D01*
Y94008D01*
Y93965D01*
X112574D01*
Y93922D01*
Y93879D01*
Y93836D01*
Y93793D01*
Y93750D01*
Y93707D01*
Y93664D01*
Y93621D01*
Y93578D01*
Y93535D01*
Y93492D01*
Y93449D01*
Y93405D01*
Y93362D01*
Y93319D01*
Y93276D01*
X112531D01*
Y93233D01*
Y93190D01*
Y93147D01*
Y93104D01*
Y93061D01*
Y93018D01*
Y92975D01*
Y92932D01*
Y92889D01*
Y92846D01*
Y92803D01*
Y92760D01*
Y92716D01*
Y92673D01*
X112574D01*
Y92630D01*
Y92587D01*
Y92544D01*
Y92501D01*
Y92458D01*
Y92415D01*
Y92372D01*
Y92329D01*
Y92286D01*
Y92243D01*
Y92200D01*
Y92157D01*
Y92114D01*
Y92071D01*
Y92028D01*
X112617D01*
Y91984D01*
Y91941D01*
X114942D01*
Y91984D01*
Y92028D01*
X114985D01*
Y92071D01*
Y92114D01*
Y92157D01*
Y92200D01*
Y92243D01*
Y92286D01*
Y92329D01*
Y92372D01*
Y92415D01*
Y92458D01*
Y92501D01*
Y92544D01*
Y92587D01*
Y92630D01*
Y92673D01*
X115028D01*
Y92716D01*
Y92760D01*
Y92803D01*
Y92846D01*
Y92889D01*
Y92932D01*
Y92975D01*
Y93018D01*
Y93061D01*
Y93104D01*
Y93147D01*
Y93190D01*
Y93233D01*
Y93276D01*
Y93319D01*
X114985D01*
Y93362D01*
Y93405D01*
Y93449D01*
Y93492D01*
Y93535D01*
Y93578D01*
Y93621D01*
Y93664D01*
Y93707D01*
Y93750D01*
Y93793D01*
Y93836D01*
Y93879D01*
Y93922D01*
Y93965D01*
X114942D01*
Y94008D01*
Y94051D01*
Y94095D01*
D02*
G37*
G36*
X111325D02*
X109043D01*
Y94051D01*
X109000D01*
Y94008D01*
Y93965D01*
Y93922D01*
Y93879D01*
Y93836D01*
X108957D01*
Y93793D01*
Y93750D01*
Y93707D01*
Y93664D01*
Y93621D01*
Y93578D01*
Y93535D01*
Y93492D01*
X108914D01*
Y93449D01*
Y93405D01*
Y93362D01*
Y93319D01*
Y93276D01*
Y93233D01*
Y93190D01*
Y93147D01*
Y93104D01*
Y93061D01*
Y93018D01*
Y92975D01*
Y92932D01*
Y92889D01*
Y92846D01*
Y92803D01*
Y92760D01*
Y92716D01*
Y92673D01*
Y92630D01*
Y92587D01*
Y92544D01*
X108957D01*
Y92501D01*
Y92458D01*
Y92415D01*
Y92372D01*
Y92329D01*
Y92286D01*
Y92243D01*
Y92200D01*
X109000D01*
Y92157D01*
Y92114D01*
Y92071D01*
Y92028D01*
Y91984D01*
X109043D01*
Y91941D01*
X111325D01*
Y91984D01*
X111282D01*
Y92028D01*
Y92071D01*
Y92114D01*
Y92157D01*
Y92200D01*
Y92243D01*
Y92286D01*
Y92329D01*
Y92372D01*
Y92415D01*
Y92458D01*
Y92501D01*
Y92544D01*
Y92587D01*
Y92630D01*
Y92673D01*
Y92716D01*
Y92760D01*
X111239D01*
Y92803D01*
Y92846D01*
Y92889D01*
Y92932D01*
Y92975D01*
Y93018D01*
Y93061D01*
Y93104D01*
Y93147D01*
Y93190D01*
Y93233D01*
Y93276D01*
Y93319D01*
X111282D01*
Y93362D01*
Y93405D01*
Y93449D01*
Y93492D01*
Y93535D01*
Y93578D01*
Y93621D01*
Y93664D01*
Y93707D01*
Y93750D01*
Y93793D01*
Y93836D01*
Y93879D01*
Y93922D01*
Y93965D01*
Y94008D01*
X111325D01*
Y94051D01*
Y94095D01*
D02*
G37*
G36*
X114727Y90650D02*
X112832D01*
Y90607D01*
X112875D01*
Y90563D01*
Y90520D01*
Y90477D01*
Y90434D01*
X112918D01*
Y90391D01*
Y90348D01*
Y90305D01*
X112961D01*
Y90262D01*
Y90219D01*
Y90176D01*
X113004D01*
Y90133D01*
Y90090D01*
Y90047D01*
X113048D01*
Y90004D01*
Y89961D01*
Y89918D01*
X113091D01*
Y89875D01*
Y89831D01*
X113134D01*
Y89788D01*
Y89745D01*
Y89702D01*
X113177D01*
Y89659D01*
Y89616D01*
X113220D01*
Y89573D01*
Y89530D01*
X113263D01*
Y89487D01*
Y89444D01*
Y89401D01*
X113306D01*
Y89358D01*
Y89315D01*
X113349D01*
Y89272D01*
Y89229D01*
X113392D01*
Y89186D01*
Y89143D01*
X113435D01*
Y89099D01*
Y89056D01*
X113478D01*
Y89013D01*
X113521D01*
Y88970D01*
Y88927D01*
X113564D01*
Y88884D01*
Y88841D01*
X113607D01*
Y88798D01*
Y88755D01*
X113650D01*
Y88712D01*
X113693D01*
Y88669D01*
Y88626D01*
X113736D01*
Y88583D01*
X113823D01*
Y88626D01*
X113866D01*
Y88669D01*
Y88712D01*
X113909D01*
Y88755D01*
X113952D01*
Y88798D01*
Y88841D01*
X113995D01*
Y88884D01*
Y88927D01*
X114038D01*
Y88970D01*
Y89013D01*
X114081D01*
Y89056D01*
X114124D01*
Y89099D01*
Y89143D01*
X114167D01*
Y89186D01*
Y89229D01*
X114210D01*
Y89272D01*
Y89315D01*
X114253D01*
Y89358D01*
Y89401D01*
X114296D01*
Y89444D01*
Y89487D01*
Y89530D01*
X114339D01*
Y89573D01*
Y89616D01*
X114382D01*
Y89659D01*
Y89702D01*
X114426D01*
Y89745D01*
Y89788D01*
Y89831D01*
X114469D01*
Y89875D01*
Y89918D01*
X114512D01*
Y89961D01*
Y90004D01*
Y90047D01*
X114555D01*
Y90090D01*
Y90133D01*
Y90176D01*
X114598D01*
Y90219D01*
Y90262D01*
Y90305D01*
X114641D01*
Y90348D01*
Y90391D01*
Y90434D01*
X114684D01*
Y90477D01*
Y90520D01*
Y90563D01*
Y90607D01*
X114727D01*
Y90650D01*
D02*
G37*
G36*
X117999D02*
X116062D01*
Y90607D01*
X116019D01*
Y90563D01*
Y90520D01*
Y90477D01*
Y90434D01*
X115976D01*
Y90391D01*
Y90348D01*
Y90305D01*
Y90262D01*
X115933D01*
Y90219D01*
Y90176D01*
Y90133D01*
X115890D01*
Y90090D01*
Y90047D01*
Y90004D01*
X115847D01*
Y89961D01*
Y89918D01*
Y89875D01*
Y89831D01*
X115803D01*
Y89788D01*
Y89745D01*
Y89702D01*
X115760D01*
Y89659D01*
Y89616D01*
X115717D01*
Y89573D01*
Y89530D01*
Y89487D01*
X115674D01*
Y89444D01*
Y89401D01*
Y89358D01*
X115631D01*
Y89315D01*
Y89272D01*
X115588D01*
Y89229D01*
Y89186D01*
Y89143D01*
X115545D01*
Y89099D01*
Y89056D01*
X115502D01*
Y89013D01*
Y88970D01*
X115459D01*
Y88927D01*
Y88884D01*
Y88841D01*
X115416D01*
Y88798D01*
Y88755D01*
X115373D01*
Y88712D01*
Y88669D01*
X115330D01*
Y88626D01*
Y88583D01*
X115287D01*
Y88540D01*
Y88497D01*
X115244D01*
Y88454D01*
Y88410D01*
X115200D01*
Y88367D01*
X115287D01*
Y88410D01*
X115416D01*
Y88454D01*
X115545D01*
Y88497D01*
X115631D01*
Y88540D01*
X115717D01*
Y88583D01*
X115847D01*
Y88626D01*
X115933D01*
Y88669D01*
X116019D01*
Y88712D01*
X116105D01*
Y88755D01*
X116148D01*
Y88798D01*
X116234D01*
Y88841D01*
X116320D01*
Y88884D01*
X116363D01*
Y88927D01*
X116449D01*
Y88970D01*
X116492D01*
Y89013D01*
X116578D01*
Y89056D01*
X116622D01*
Y89099D01*
X116708D01*
Y89143D01*
X116751D01*
Y89186D01*
X116794D01*
Y89229D01*
X116837D01*
Y89272D01*
X116923D01*
Y89315D01*
X116966D01*
Y89358D01*
X117009D01*
Y89401D01*
X117052D01*
Y89444D01*
X117095D01*
Y89487D01*
X117138D01*
Y89530D01*
X117181D01*
Y89573D01*
X117224D01*
Y89616D01*
X117268D01*
Y89659D01*
X117311D01*
Y89702D01*
X117354D01*
Y89745D01*
X117397D01*
Y89788D01*
X117440D01*
Y89831D01*
X117483D01*
Y89875D01*
X117526D01*
Y89918D01*
Y89961D01*
X117569D01*
Y90004D01*
X117612D01*
Y90047D01*
X117655D01*
Y90090D01*
X117698D01*
Y90133D01*
Y90176D01*
X117741D01*
Y90219D01*
X117784D01*
Y90262D01*
Y90305D01*
X117827D01*
Y90348D01*
X117870D01*
Y90391D01*
Y90434D01*
X117913D01*
Y90477D01*
X117956D01*
Y90520D01*
Y90563D01*
X117999D01*
Y90607D01*
Y90650D01*
D02*
G37*
G36*
X111497D02*
X109560D01*
Y90607D01*
Y90563D01*
X109603D01*
Y90520D01*
Y90477D01*
X109646D01*
Y90434D01*
X109689D01*
Y90391D01*
Y90348D01*
X109732D01*
Y90305D01*
X109775D01*
Y90262D01*
Y90219D01*
X109818D01*
Y90176D01*
X109861D01*
Y90133D01*
Y90090D01*
X109904D01*
Y90047D01*
X109947D01*
Y90004D01*
X109990D01*
Y89961D01*
X110033D01*
Y89918D01*
Y89875D01*
X110076D01*
Y89831D01*
X110119D01*
Y89788D01*
X110162D01*
Y89745D01*
X110205D01*
Y89702D01*
X110248D01*
Y89659D01*
X110292D01*
Y89616D01*
X110335D01*
Y89573D01*
X110378D01*
Y89530D01*
X110421D01*
Y89487D01*
X110464D01*
Y89444D01*
X110507D01*
Y89401D01*
X110550D01*
Y89358D01*
X110593D01*
Y89315D01*
X110636D01*
Y89272D01*
X110722D01*
Y89229D01*
X110765D01*
Y89186D01*
X110808D01*
Y89143D01*
X110851D01*
Y89099D01*
X110938D01*
Y89056D01*
X110981D01*
Y89013D01*
X111067D01*
Y88970D01*
X111110D01*
Y88927D01*
X111196D01*
Y88884D01*
X111239D01*
Y88841D01*
X111325D01*
Y88798D01*
X111411D01*
Y88755D01*
X111454D01*
Y88712D01*
X111540D01*
Y88669D01*
X111627D01*
Y88626D01*
X111713D01*
Y88583D01*
X111842D01*
Y88540D01*
X111928D01*
Y88497D01*
X112057D01*
Y88454D01*
X112143D01*
Y88410D01*
X112272D01*
Y88367D01*
X112358D01*
Y88410D01*
Y88454D01*
X112315D01*
Y88497D01*
X112272D01*
Y88540D01*
Y88583D01*
X112229D01*
Y88626D01*
Y88669D01*
X112186D01*
Y88712D01*
Y88755D01*
X112143D01*
Y88798D01*
Y88841D01*
X112100D01*
Y88884D01*
Y88927D01*
Y88970D01*
X112057D01*
Y89013D01*
Y89056D01*
X112014D01*
Y89099D01*
Y89143D01*
X111971D01*
Y89186D01*
Y89229D01*
Y89272D01*
X111928D01*
Y89315D01*
Y89358D01*
X111885D01*
Y89401D01*
Y89444D01*
Y89487D01*
X111842D01*
Y89530D01*
Y89573D01*
X111799D01*
Y89616D01*
Y89659D01*
Y89702D01*
X111756D01*
Y89745D01*
Y89788D01*
Y89831D01*
X111713D01*
Y89875D01*
Y89918D01*
Y89961D01*
X111670D01*
Y90004D01*
Y90047D01*
Y90090D01*
Y90133D01*
X111627D01*
Y90176D01*
Y90219D01*
Y90262D01*
X111583D01*
Y90305D01*
Y90348D01*
Y90391D01*
Y90434D01*
X111540D01*
Y90477D01*
Y90520D01*
Y90563D01*
Y90607D01*
X111497D01*
Y90650D01*
D02*
G37*
G36*
X122607Y85568D02*
X122090D01*
Y85525D01*
X121961D01*
Y85482D01*
X121875D01*
Y85439D01*
X121789D01*
Y85396D01*
X121703D01*
Y85353D01*
X121660D01*
Y85310D01*
X121617D01*
Y85267D01*
X121574D01*
Y85224D01*
X121530D01*
Y85181D01*
X121487D01*
Y85138D01*
X121444D01*
Y85095D01*
X121401D01*
Y85052D01*
Y85009D01*
X121358D01*
Y84965D01*
Y84922D01*
X121315D01*
Y84879D01*
Y84836D01*
X121272D01*
Y84793D01*
Y84750D01*
Y84707D01*
X121229D01*
Y84664D01*
Y84621D01*
Y84578D01*
Y84535D01*
Y84492D01*
Y84449D01*
Y84406D01*
Y84363D01*
Y84320D01*
Y84277D01*
Y84233D01*
Y84190D01*
X121272D01*
Y84147D01*
Y84104D01*
Y84061D01*
Y84018D01*
X121315D01*
Y83975D01*
Y83932D01*
X121358D01*
Y83889D01*
Y83846D01*
X121401D01*
Y83803D01*
X121444D01*
Y83760D01*
Y83717D01*
X121487D01*
Y83674D01*
X121530D01*
Y83631D01*
X121574D01*
Y83588D01*
X121617D01*
Y83544D01*
X121660D01*
Y83501D01*
X121746D01*
Y83458D01*
X121789D01*
Y83415D01*
X121875D01*
Y83372D01*
X122004D01*
Y83329D01*
X122133D01*
Y83286D01*
X122564D01*
Y83329D01*
X122736D01*
Y83372D01*
X122865D01*
Y83415D01*
X122951D01*
Y83458D01*
X122995D01*
Y83501D01*
X123081D01*
Y83544D01*
X123124D01*
Y83588D01*
X123167D01*
Y83631D01*
X123210D01*
Y83674D01*
X123253D01*
Y83717D01*
X123296D01*
Y83760D01*
Y83803D01*
X123339D01*
Y83846D01*
X123382D01*
Y83889D01*
Y83932D01*
X123425D01*
Y83975D01*
Y84018D01*
Y84061D01*
X123468D01*
Y84104D01*
Y84147D01*
Y84190D01*
Y84233D01*
X123511D01*
Y84277D01*
Y84320D01*
Y84363D01*
Y84406D01*
Y84449D01*
Y84492D01*
Y84535D01*
Y84578D01*
Y84621D01*
Y84664D01*
X123468D01*
Y84707D01*
Y84750D01*
Y84793D01*
X123425D01*
Y84836D01*
Y84879D01*
Y84922D01*
X123382D01*
Y84965D01*
Y85009D01*
X123339D01*
Y85052D01*
X123296D01*
Y85095D01*
Y85138D01*
X123253D01*
Y85181D01*
X123210D01*
Y85224D01*
X123167D01*
Y85267D01*
X123124D01*
Y85310D01*
X123081D01*
Y85353D01*
X122995D01*
Y85396D01*
X122951D01*
Y85439D01*
X122865D01*
Y85482D01*
X122779D01*
Y85525D01*
X122607D01*
Y85568D01*
D02*
G37*
G36*
X113995Y84621D02*
X113564D01*
Y84578D01*
X113478D01*
Y84535D01*
X113392D01*
Y84492D01*
X113349D01*
Y84449D01*
X113306D01*
Y84406D01*
X113263D01*
Y84363D01*
X113220D01*
Y84320D01*
Y84277D01*
X113177D01*
Y84233D01*
Y84190D01*
X113134D01*
Y84147D01*
Y84104D01*
Y84061D01*
Y84018D01*
Y83975D01*
Y83932D01*
Y83889D01*
Y83846D01*
Y83803D01*
Y83760D01*
Y83717D01*
X113177D01*
Y83674D01*
Y83631D01*
X113220D01*
Y83588D01*
X113263D01*
Y83544D01*
Y83501D01*
X113306D01*
Y83458D01*
X113349D01*
Y83415D01*
X113435D01*
Y83372D01*
X113521D01*
Y83329D01*
X113607D01*
Y83286D01*
X113952D01*
Y83329D01*
X114081D01*
Y83372D01*
X114167D01*
Y83415D01*
X114210D01*
Y83458D01*
X114253D01*
Y83501D01*
X114296D01*
Y83544D01*
X114339D01*
Y83588D01*
X114382D01*
Y83631D01*
Y83674D01*
X114426D01*
Y83717D01*
Y83760D01*
Y83803D01*
X114469D01*
Y83846D01*
Y83889D01*
Y83932D01*
Y83975D01*
Y84018D01*
Y84061D01*
Y84104D01*
X114426D01*
Y84147D01*
Y84190D01*
Y84233D01*
X114382D01*
Y84277D01*
Y84320D01*
X114339D01*
Y84363D01*
X114296D01*
Y84406D01*
X114253D01*
Y84449D01*
X114210D01*
Y84492D01*
X114167D01*
Y84535D01*
X114081D01*
Y84578D01*
X113995D01*
Y84621D01*
D02*
G37*
G36*
X105469Y85568D02*
X104952D01*
Y85525D01*
X104780D01*
Y85482D01*
X104694D01*
Y85439D01*
X104607D01*
Y85396D01*
X104564D01*
Y85353D01*
X104478D01*
Y85310D01*
X104435D01*
Y85267D01*
X104392D01*
Y85224D01*
X104349D01*
Y85181D01*
X104306D01*
Y85138D01*
X104263D01*
Y85095D01*
Y85052D01*
X104220D01*
Y85009D01*
X104177D01*
Y84965D01*
Y84922D01*
X104134D01*
Y84879D01*
Y84836D01*
Y84793D01*
X104091D01*
Y84750D01*
Y84707D01*
Y84664D01*
X104048D01*
Y84621D01*
Y84578D01*
Y84535D01*
Y84492D01*
Y84449D01*
Y84406D01*
Y84363D01*
Y84320D01*
Y84277D01*
Y84233D01*
X104091D01*
Y84190D01*
Y84147D01*
Y84104D01*
Y84061D01*
X104134D01*
Y84018D01*
Y83975D01*
Y83932D01*
X104177D01*
Y83889D01*
Y83846D01*
X104220D01*
Y83803D01*
X104263D01*
Y83760D01*
Y83717D01*
X104306D01*
Y83674D01*
X104349D01*
Y83631D01*
X104392D01*
Y83588D01*
X104435D01*
Y83544D01*
X104521D01*
Y83501D01*
X104564D01*
Y83458D01*
X104607D01*
Y83415D01*
X104694D01*
Y83372D01*
X104823D01*
Y83329D01*
X104995D01*
Y83286D01*
X105426D01*
Y83329D01*
X105555D01*
Y83372D01*
X105684D01*
Y83415D01*
X105770D01*
Y83458D01*
X105813D01*
Y83501D01*
X105899D01*
Y83544D01*
X105942D01*
Y83588D01*
X105985D01*
Y83631D01*
X106028D01*
Y83674D01*
X106072D01*
Y83717D01*
X106115D01*
Y83760D01*
Y83803D01*
X106158D01*
Y83846D01*
X106201D01*
Y83889D01*
Y83932D01*
X106244D01*
Y83975D01*
Y84018D01*
X106287D01*
Y84061D01*
Y84104D01*
Y84147D01*
Y84190D01*
X106330D01*
Y84233D01*
Y84277D01*
Y84320D01*
Y84363D01*
Y84406D01*
Y84449D01*
Y84492D01*
Y84535D01*
Y84578D01*
Y84621D01*
Y84664D01*
Y84707D01*
X106287D01*
Y84750D01*
Y84793D01*
Y84836D01*
X106244D01*
Y84879D01*
Y84922D01*
X106201D01*
Y84965D01*
Y85009D01*
X106158D01*
Y85052D01*
Y85095D01*
X106115D01*
Y85138D01*
X106072D01*
Y85181D01*
X106028D01*
Y85224D01*
X105985D01*
Y85267D01*
X105942D01*
Y85310D01*
X105899D01*
Y85353D01*
X105856D01*
Y85396D01*
X105770D01*
Y85439D01*
X105684D01*
Y85482D01*
X105598D01*
Y85525D01*
X105469D01*
Y85568D01*
D02*
G37*
G36*
X124513Y75513D02*
X124434D01*
Y75434D01*
X124513D01*
Y75513D01*
D02*
G37*
G36*
X106870Y75830D02*
X106791D01*
Y75751D01*
Y75672D01*
X106870D01*
Y75751D01*
Y75830D01*
D02*
G37*
G36*
X106791Y75672D02*
X106712D01*
Y75592D01*
Y75513D01*
X106633D01*
Y75434D01*
Y75355D01*
Y75276D01*
X106553D01*
Y75197D01*
Y75118D01*
X106474D01*
Y75039D01*
Y74959D01*
Y74880D01*
X106395D01*
Y74801D01*
Y74722D01*
X106316D01*
Y74643D01*
Y74564D01*
Y74485D01*
X106237D01*
Y74406D01*
Y74327D01*
X106158D01*
Y74247D01*
Y74168D01*
Y74089D01*
X106079D01*
Y74010D01*
Y73931D01*
X106000D01*
Y73852D01*
Y73773D01*
X106474D01*
Y73852D01*
X106553D01*
Y73931D01*
Y74010D01*
Y74089D01*
Y74168D01*
Y74247D01*
Y74327D01*
X106633D01*
Y74406D01*
Y74485D01*
Y74564D01*
Y74643D01*
Y74722D01*
X106712D01*
Y74801D01*
Y74880D01*
Y74959D01*
Y75039D01*
Y75118D01*
Y75197D01*
X106791D01*
Y75276D01*
Y75355D01*
Y75434D01*
Y75513D01*
Y75592D01*
Y75672D01*
D02*
G37*
G36*
X101015Y76305D02*
X100541D01*
Y76225D01*
X100461D01*
Y76146D01*
Y76067D01*
Y75988D01*
Y75909D01*
X100382D01*
Y75830D01*
Y75751D01*
Y75672D01*
X100303D01*
Y75592D01*
Y75513D01*
Y75434D01*
X100224D01*
Y75355D01*
Y75276D01*
Y75197D01*
Y75118D01*
X100145D01*
Y75039D01*
Y74959D01*
Y74880D01*
X100066D01*
Y74801D01*
Y74722D01*
Y74643D01*
X99987D01*
Y74564D01*
Y74485D01*
Y74406D01*
Y74327D01*
X99908D01*
Y74247D01*
Y74168D01*
Y74089D01*
X99829D01*
Y74010D01*
Y73931D01*
Y73852D01*
Y73773D01*
X99749D01*
Y73694D01*
Y73615D01*
Y73535D01*
X99670D01*
Y73456D01*
Y73377D01*
Y73298D01*
X99591D01*
Y73219D01*
Y73140D01*
Y73061D01*
Y72982D01*
X99670D01*
Y72903D01*
X99908D01*
Y72982D01*
X100066D01*
Y73061D01*
X100145D01*
Y73140D01*
Y73219D01*
Y73298D01*
Y73377D01*
X100224D01*
Y73456D01*
Y73535D01*
Y73615D01*
X100303D01*
Y73694D01*
Y73773D01*
Y73852D01*
Y73931D01*
X100382D01*
Y74010D01*
Y74089D01*
Y74168D01*
X100461D01*
Y74247D01*
Y74327D01*
Y74406D01*
X100541D01*
Y74485D01*
Y74564D01*
Y74643D01*
Y74722D01*
X100620D01*
Y74801D01*
Y74880D01*
Y74959D01*
X100699D01*
Y75039D01*
Y75118D01*
Y75197D01*
Y75276D01*
X100778D01*
Y75355D01*
Y75434D01*
Y75513D01*
X100857D01*
Y75592D01*
Y75672D01*
Y75751D01*
X100936D01*
Y75830D01*
Y75909D01*
Y75988D01*
Y76067D01*
X101015D01*
Y76146D01*
Y76225D01*
Y76305D01*
D02*
G37*
%LPD*%
D10*
X79724Y145669D02*
X79180Y146418D01*
X78300Y146132D01*
Y145206D01*
X79180Y144920D01*
X79724Y145669D01*
X115945Y156693D02*
X115401Y157442D01*
X114521Y157156D01*
Y156230D01*
X115401Y155944D01*
X115945Y156693D01*
X100984Y154724D02*
X100440Y155473D01*
X99560Y155187D01*
Y154262D01*
X100440Y153975D01*
X100984Y154724D01*
X97835Y155905D02*
X97291Y156654D01*
X96410Y156368D01*
Y155443D01*
X97291Y155157D01*
X97835Y155905D01*
X83661Y155512D02*
X83117Y156261D01*
X82237Y155975D01*
Y155049D01*
X83117Y154763D01*
X83661Y155512D01*
X87992Y155905D02*
X87448Y156654D01*
X86568Y156368D01*
Y155443D01*
X87448Y155157D01*
X87992Y155905D01*
X86811Y161024D02*
X86267Y161773D01*
X85387Y161486D01*
Y160561D01*
X86267Y160275D01*
X86811Y161024D01*
X91142Y159055D02*
X90598Y159804D01*
X89717Y159518D01*
Y158592D01*
X90598Y158306D01*
X91142Y159055D01*
X82874Y150000D02*
X82330Y150749D01*
X81450Y150463D01*
Y149537D01*
X82330Y149251D01*
X82874Y150000D01*
X79331Y150394D02*
X78787Y151143D01*
X77906Y150856D01*
Y149931D01*
X78787Y149645D01*
X79331Y150394D01*
X102165Y148425D02*
X101621Y149174D01*
X100741Y148888D01*
Y147962D01*
X101621Y147676D01*
X102165Y148425D01*
X112157Y62004D02*
X118157D01*
Y59004D02*
Y62004D01*
X112157Y59004D02*
Y62004D01*
X29272Y142720D02*
X32272D01*
X29272Y138720D02*
Y142720D01*
Y138720D02*
X32272D01*
X67137Y57591D02*
X73137D01*
Y54591D02*
Y57591D01*
X67137Y54591D02*
Y57591D01*
Y45788D02*
X73137D01*
X67137D02*
Y48788D01*
X73137Y45788D02*
Y48788D01*
X66314Y134795D02*
Y137795D01*
X62314Y134795D02*
X66314D01*
X62314D02*
Y137795D01*
X48331Y134953D02*
Y137953D01*
Y134953D02*
X52331D01*
Y137953D01*
X34804Y21079D02*
Y27079D01*
X37804D01*
X34804Y21079D02*
X37804D01*
X46608D02*
Y27079D01*
X43608Y21079D02*
X46608D01*
X43608Y27079D02*
X46608D01*
X24100Y21052D02*
X30100D01*
Y18052D02*
Y21052D01*
X24100Y18052D02*
Y21052D01*
Y9248D02*
X30100D01*
X24100D02*
Y12248D01*
X30100Y9248D02*
Y12248D01*
X15009Y109768D02*
X21009D01*
X15009D02*
Y112768D01*
X21009Y109768D02*
Y112768D01*
X15009Y121572D02*
X21009D01*
Y118572D02*
Y121572D01*
X15009Y118572D02*
Y121572D01*
X34272Y133852D02*
X37272D01*
Y137852D01*
X34272D02*
X37272D01*
X29272D02*
X32272D01*
X29272Y133852D02*
Y137852D01*
Y133852D02*
X32272D01*
X66314Y139795D02*
Y142795D01*
X62314D02*
X66314D01*
X62314Y139795D02*
Y142795D01*
X48331Y139953D02*
Y142953D01*
X52331D01*
Y139953D02*
Y142953D01*
X35974Y102972D02*
X41974D01*
Y99972D02*
Y102972D01*
X35974Y99972D02*
Y102972D01*
Y91168D02*
X41974D01*
X35974D02*
Y94169D01*
X41974Y91168D02*
Y94169D01*
X8113Y109768D02*
X14113D01*
X8113D02*
Y112768D01*
X14113Y109768D02*
Y112768D01*
X8113Y121572D02*
X14113D01*
Y118572D02*
Y121572D01*
X8113Y118572D02*
Y121572D01*
X112157Y50201D02*
X118157D01*
X112157D02*
Y53201D01*
X118157Y50201D02*
Y53201D01*
X34272Y138720D02*
X37272D01*
Y142720D01*
X34272D02*
X37272D01*
X53323Y138764D02*
X56323D01*
X53323D02*
Y142764D01*
X56323D01*
X58323D02*
X61323D01*
Y138764D02*
Y142764D01*
X58323Y138764D02*
X61323D01*
X113976Y121062D02*
X116338D01*
X115157D01*
Y117520D01*
X117518Y121062D02*
X119880Y117520D01*
Y121062D02*
X117518Y117520D01*
X114764Y112007D02*
Y108465D01*
Y112007D02*
X116282D01*
X116788Y111838D01*
X116957Y111670D01*
X117125Y111332D01*
Y110995D01*
X116957Y110658D01*
X116788Y110489D01*
X116282Y110320D01*
X114764D01*
X115945D02*
X117125Y108465D01*
X117918Y112007D02*
X120280Y108465D01*
Y112007D02*
X117918Y108465D01*
X23819Y84034D02*
X23229Y83443D01*
Y82263D01*
X23819Y81672D01*
X26181D01*
X26771Y82263D01*
Y83443D01*
X26181Y84034D01*
X26771Y85215D02*
Y86395D01*
Y85805D01*
X23229D01*
X23819Y85215D01*
X23229Y90528D02*
X23819Y89347D01*
X25000Y88166D01*
X26181D01*
X26771Y88757D01*
Y89937D01*
X26181Y90528D01*
X25590D01*
X25000Y89937D01*
Y88166D01*
X48426Y61614D02*
X47835Y61024D01*
Y59843D01*
X48426Y59253D01*
X50787D01*
X51377Y59843D01*
Y61024D01*
X50787Y61614D01*
X47835Y65157D02*
Y62795D01*
X49606D01*
X49016Y63976D01*
Y64566D01*
X49606Y65157D01*
X50787D01*
X51377Y64566D01*
Y63385D01*
X50787Y62795D01*
X77558Y46161D02*
X74016D01*
Y47932D01*
X74607Y48522D01*
X75787D01*
X76378Y47932D01*
Y46161D01*
Y47341D02*
X77558Y48522D01*
X74016Y52064D02*
Y49703D01*
X75787D01*
X75197Y50884D01*
Y51474D01*
X75787Y52064D01*
X76968D01*
X77558Y51474D01*
Y50293D01*
X76968Y49703D01*
X55291Y12008D02*
X54700Y12598D01*
X53519D01*
X52929Y12008D01*
Y9646D01*
X53519Y9056D01*
X54700D01*
X55291Y9646D01*
X56471Y9056D02*
X57652D01*
X57062D01*
Y12598D01*
X56471Y12008D01*
X68093Y137004D02*
X67503Y136414D01*
Y135233D01*
X68093Y134642D01*
X70455D01*
X71045Y135233D01*
Y136414D01*
X70455Y137004D01*
X71045Y138184D02*
Y139365D01*
Y138775D01*
X67503D01*
X68093Y138184D01*
X70455Y141136D02*
X71045Y141727D01*
Y142907D01*
X70455Y143498D01*
X68093D01*
X67503Y142907D01*
Y141727D01*
X68093Y141136D01*
X68684D01*
X69274Y141727D01*
Y143498D01*
X63977Y27921D02*
Y24969D01*
X64568Y24378D01*
X65748D01*
X66339Y24969D01*
Y27921D01*
X67519Y27330D02*
X68110Y27921D01*
X69291D01*
X69881Y27330D01*
Y26740D01*
X69291Y26150D01*
X68700D01*
X69291D01*
X69881Y25559D01*
Y24969D01*
X69291Y24378D01*
X68110D01*
X67519Y24969D01*
X35433Y70079D02*
X34843Y69489D01*
Y68308D01*
X35433Y67718D01*
X36024D01*
X36614Y68308D01*
Y69489D01*
X37205Y70079D01*
X37795D01*
X38385Y69489D01*
Y68308D01*
X37795Y67718D01*
X34843Y71260D02*
X38385D01*
Y73031D01*
X37795Y73622D01*
X37205D01*
X36614Y73031D01*
Y71260D01*
Y73031D01*
X36024Y73622D01*
X35433D01*
X34843Y73031D01*
Y71260D01*
X38385Y77164D02*
Y74802D01*
X36024Y77164D01*
X35433D01*
X34843Y76573D01*
Y75393D01*
X35433Y74802D01*
X65552Y13582D02*
Y10040D01*
X67913D01*
X69094D02*
X70275D01*
X69684D01*
Y13582D01*
X69094Y12992D01*
X91510Y40481D02*
X90919Y41071D01*
X89739D01*
X89148Y40481D01*
Y38119D01*
X89739Y37529D01*
X90919D01*
X91510Y38119D01*
X92690D02*
X93281Y37529D01*
X94461D01*
X95052Y38119D01*
Y40481D01*
X94461Y41071D01*
X93281D01*
X92690Y40481D01*
Y39890D01*
X93281Y39300D01*
X95052D01*
X38879Y39838D02*
X38288Y40429D01*
X37108D01*
X36517Y39838D01*
Y37477D01*
X37108Y36886D01*
X38288D01*
X38879Y37477D01*
X40059Y36886D02*
X41240D01*
X40650D01*
Y40429D01*
X40059Y39838D01*
X45373Y36886D02*
X43011D01*
X45373Y39248D01*
Y39838D01*
X44782Y40429D01*
X43602D01*
X43011Y39838D01*
X28419Y118436D02*
X30089Y116766D01*
X29254Y117601D01*
X26749Y115096D01*
X28419Y113426D02*
X30924Y115931D01*
X32176Y114679D01*
Y113844D01*
X31341Y113009D01*
X30506D01*
X29254Y114261D01*
X30924Y110922D02*
X31759Y110087D01*
X31341Y110504D01*
X33846Y113009D01*
X33011D01*
X37185Y109669D02*
X35516Y111339D01*
X34263Y110087D01*
X35516Y109669D01*
X35933Y109252D01*
Y108417D01*
X35098Y107582D01*
X34263D01*
X33428Y108417D01*
Y109252D01*
X125788Y123032D02*
Y126574D01*
X127559D01*
X128150Y125984D01*
Y124803D01*
X127559Y124213D01*
X125788D01*
X129331Y125984D02*
X129921Y126574D01*
X131102D01*
X131692Y125984D01*
Y125393D01*
X131102Y124803D01*
X130511D01*
X131102D01*
X131692Y124213D01*
Y123622D01*
X131102Y123032D01*
X129921D01*
X129331Y123622D01*
X51321Y20348D02*
X47779D01*
Y22119D01*
X48369Y22710D01*
X49550D01*
X50140Y22119D01*
Y20348D01*
Y21529D02*
X51321Y22710D01*
Y26252D02*
Y23890D01*
X48960Y26252D01*
X48369D01*
X47779Y25661D01*
Y24481D01*
X48369Y23890D01*
X3519Y84334D02*
X2929Y83743D01*
Y82563D01*
X3519Y81972D01*
X5881D01*
X6471Y82563D01*
Y83743D01*
X5881Y84334D01*
X6471Y85514D02*
Y86695D01*
Y86105D01*
X2929D01*
X3519Y85514D01*
X2929Y90828D02*
Y88466D01*
X4700D01*
X4110Y89647D01*
Y90237D01*
X4700Y90828D01*
X5881D01*
X6471Y90237D01*
Y89057D01*
X5881Y88466D01*
X103864Y63740D02*
Y66102D01*
X103273Y66692D01*
X102093D01*
X101502Y66102D01*
Y63740D01*
X102093Y63150D01*
X103273D01*
X102683Y64331D02*
X103864Y63150D01*
X103273D02*
X103864Y63740D01*
X105044Y63150D02*
X106225D01*
X105635D01*
Y66692D01*
X105044Y66102D01*
X120375Y142913D02*
X119784Y143503D01*
X118604D01*
X118013Y142913D01*
Y140552D01*
X118604Y139961D01*
X119784D01*
X120375Y140552D01*
X121555Y139961D02*
X122736D01*
X122146D01*
Y143503D01*
X121555Y142913D01*
X124507Y143503D02*
X126869D01*
Y142913D01*
X124507Y140552D01*
Y139961D01*
X89568Y47047D02*
Y44095D01*
X90158Y43505D01*
X91339D01*
X91929Y44095D01*
Y47047D01*
X94881Y43505D02*
Y47047D01*
X93110Y45276D01*
X95472D01*
X54725Y62008D02*
X54134Y61418D01*
Y60237D01*
X54725Y59647D01*
X57086D01*
X57677Y60237D01*
Y61418D01*
X57086Y62008D01*
X54725Y63189D02*
X54134Y63779D01*
Y64960D01*
X54725Y65550D01*
X55315D01*
X55905Y64960D01*
Y64369D01*
Y64960D01*
X56496Y65550D01*
X57086D01*
X57677Y64960D01*
Y63779D01*
X57086Y63189D01*
X68504Y62008D02*
X67914Y61418D01*
Y60237D01*
X68504Y59647D01*
X70866D01*
X71456Y60237D01*
Y61418D01*
X70866Y62008D01*
X71456Y64960D02*
X67914D01*
X69685Y63189D01*
Y65550D01*
X13848Y26171D02*
Y22629D01*
X15619D01*
X16210Y23219D01*
Y25581D01*
X15619Y26171D01*
X13848D01*
X19161Y22629D02*
Y26171D01*
X17390Y24400D01*
X19752D01*
X91535Y29330D02*
X89174D01*
Y27559D01*
X90355D01*
X89174D01*
Y25788D01*
X92716D02*
X93897D01*
X93306D01*
Y29330D01*
X92716Y28740D01*
X49804Y6692D02*
Y3150D01*
X51575D01*
X52165Y3740D01*
Y6102D01*
X51575Y6692D01*
X49804D01*
X53346Y3150D02*
X54527D01*
X53936D01*
Y6692D01*
X53346Y6102D01*
X16348Y122679D02*
Y126221D01*
X18119D01*
X18710Y125631D01*
Y124450D01*
X18119Y123860D01*
X16348D01*
X17529D02*
X18710Y122679D01*
X19890Y126221D02*
X22252D01*
Y125631D01*
X19890Y123269D01*
Y122679D01*
X10040Y74606D02*
Y71064D01*
X11811D01*
X12402Y71654D01*
Y74015D01*
X11811Y74606D01*
X10040D01*
X15944Y71064D02*
X13582D01*
X15944Y73425D01*
Y74015D01*
X15354Y74606D01*
X14173D01*
X13582Y74015D01*
X61811Y62008D02*
X61221Y61418D01*
Y60237D01*
X61811Y59647D01*
X64173D01*
X64763Y60237D01*
Y61418D01*
X64173Y62008D01*
X64763Y65550D02*
Y63189D01*
X62402Y65550D01*
X61811D01*
X61221Y64960D01*
Y63779D01*
X61811Y63189D01*
X74410Y61614D02*
X73820Y61024D01*
Y59843D01*
X74410Y59253D01*
X76771D01*
X77362Y59843D01*
Y61024D01*
X76771Y61614D01*
X73820Y65157D02*
X74410Y63976D01*
X75590Y62795D01*
X76771D01*
X77362Y63385D01*
Y64566D01*
X76771Y65157D01*
X76181D01*
X75590Y64566D01*
Y62795D01*
X79122Y139841D02*
Y136889D01*
X79713Y136299D01*
X80893D01*
X81484Y136889D01*
Y139841D01*
X85026Y136299D02*
X82664D01*
X85026Y138660D01*
Y139251D01*
X84435Y139841D01*
X83255D01*
X82664Y139251D01*
X83810Y7981D02*
X83219Y8571D01*
X82039D01*
X81448Y7981D01*
Y5619D01*
X82039Y5029D01*
X83219D01*
X83810Y5619D01*
X84990Y8571D02*
X87352D01*
Y7981D01*
X84990Y5619D01*
Y5029D01*
X5598Y27779D02*
Y31321D01*
X7369D01*
X7960Y30731D01*
Y29550D01*
X7369Y28960D01*
X5598D01*
X11502Y31321D02*
X9140D01*
Y29550D01*
X10321Y30140D01*
X10911D01*
X11502Y29550D01*
Y28369D01*
X10911Y27779D01*
X9731D01*
X9140Y28369D01*
X38879Y34326D02*
X38288Y34917D01*
X37108D01*
X36517Y34326D01*
Y31965D01*
X37108Y31375D01*
X38288D01*
X38879Y31965D01*
X40059Y31375D02*
X41240D01*
X40650D01*
Y34917D01*
X40059Y34326D01*
X43011D02*
X43602Y34917D01*
X44782D01*
X45373Y34326D01*
Y33736D01*
X44782Y33146D01*
X44192D01*
X44782D01*
X45373Y32555D01*
Y31965D01*
X44782Y31375D01*
X43602D01*
X43011Y31965D01*
X37009Y6692D02*
Y3740D01*
X37599Y3150D01*
X38780D01*
X39370Y3740D01*
Y6692D01*
X40551Y3150D02*
X41732D01*
X41141D01*
Y6692D01*
X40551Y6102D01*
X91831Y33933D02*
X91241Y34523D01*
X90060D01*
X89470Y33933D01*
Y31571D01*
X90060Y30981D01*
X91241D01*
X91831Y31571D01*
X93012Y30981D02*
X94193D01*
X93603D01*
Y34523D01*
X93012Y33933D01*
X95964D02*
X96554Y34523D01*
X97735D01*
X98325Y33933D01*
Y31571D01*
X97735Y30981D01*
X96554D01*
X95964Y31571D01*
Y33933D01*
X50712Y53815D02*
X50122Y54405D01*
X48941D01*
X48351Y53815D01*
Y51453D01*
X48941Y50863D01*
X50122D01*
X50712Y51453D01*
X51893Y50863D02*
X53074D01*
X52483D01*
Y54405D01*
X51893Y53815D01*
X56616Y50863D02*
Y54405D01*
X54845Y52634D01*
X57206D01*
X39469Y46137D02*
X38879Y46728D01*
X37698D01*
X37108Y46137D01*
Y43776D01*
X37698Y43186D01*
X38879D01*
X39469Y43776D01*
X40650Y43186D02*
X41830D01*
X41240D01*
Y46728D01*
X40650Y46137D01*
X43602Y43186D02*
X44782D01*
X44192D01*
Y46728D01*
X43602Y46137D01*
X29619Y124686D02*
X31289Y123016D01*
X30454Y123851D01*
X27949Y121346D01*
X29619Y119676D02*
X32124Y122181D01*
X33376Y120929D01*
Y120094D01*
X32541Y119259D01*
X31706D01*
X30454Y120511D01*
X32124Y117172D02*
X32959Y116337D01*
X32541Y116754D01*
X35046Y119259D01*
X34211D01*
X35463Y113832D02*
X37968Y116337D01*
X35463D01*
X37133Y114667D01*
X88583Y69686D02*
X87993Y69095D01*
Y67915D01*
X88583Y67324D01*
X89173D01*
X89764Y67915D01*
Y69095D01*
X90354Y69686D01*
X90944D01*
X91535Y69095D01*
Y67915D01*
X90944Y67324D01*
X87993Y70867D02*
X91535D01*
Y72638D01*
X90944Y73228D01*
X90354D01*
X89764Y72638D01*
Y70867D01*
Y72638D01*
X89173Y73228D01*
X88583D01*
X87993Y72638D01*
Y70867D01*
X88583Y74409D02*
X87993Y74999D01*
Y76180D01*
X88583Y76770D01*
X89173D01*
X89764Y76180D01*
Y75589D01*
Y76180D01*
X90354Y76770D01*
X90944D01*
X91535Y76180D01*
Y74999D01*
X90944Y74409D01*
X38136Y134081D02*
Y137623D01*
X39907D01*
X40497Y137032D01*
Y135852D01*
X39907Y135261D01*
X38136D01*
X39316D02*
X40497Y134081D01*
X41678D02*
X42859D01*
X42268D01*
Y137623D01*
X41678Y137032D01*
X44630D02*
X45220Y137623D01*
X46401D01*
X46991Y137032D01*
Y134671D01*
X46401Y134081D01*
X45220D01*
X44630Y134671D01*
Y137032D01*
X55122Y137041D02*
Y133499D01*
X57484D01*
X61026D02*
X58664D01*
X61026Y135860D01*
Y136451D01*
X60435Y137041D01*
X59255D01*
X58664Y136451D01*
X97442Y2166D02*
Y5708D01*
X99213D01*
X99803Y5118D01*
Y3937D01*
X99213Y3347D01*
X97442D01*
X103346Y2166D02*
X100984D01*
X103346Y4527D01*
Y5118D01*
X102755Y5708D01*
X101574D01*
X100984Y5118D01*
X102174Y143751D02*
X101584Y144341D01*
X100403D01*
X99813Y143751D01*
Y143160D01*
X100403Y142570D01*
X101584D01*
X102174Y141980D01*
Y141389D01*
X101584Y140799D01*
X100403D01*
X99813Y141389D01*
X103355Y140799D02*
X104535D01*
X103945D01*
Y144341D01*
X103355Y143751D01*
X5521Y132498D02*
X1979D01*
Y134269D01*
X2569Y134860D01*
X3750D01*
X4340Y134269D01*
Y132498D01*
X1979Y138402D02*
X2569Y137221D01*
X3750Y136040D01*
X4931D01*
X5521Y136631D01*
Y137811D01*
X4931Y138402D01*
X4340D01*
X3750Y137811D01*
Y136040D01*
X50508Y148151D02*
X49917Y148741D01*
X48737D01*
X48146Y148151D01*
Y145789D01*
X48737Y145199D01*
X49917D01*
X50508Y145789D01*
X51688Y145199D02*
X52869D01*
X52279D01*
Y148741D01*
X51688Y148151D01*
X54640D02*
X55231Y148741D01*
X56411D01*
X57002Y148151D01*
Y147560D01*
X56411Y146970D01*
X57002Y146380D01*
Y145789D01*
X56411Y145199D01*
X55231D01*
X54640Y145789D01*
Y146380D01*
X55231Y146970D01*
X54640Y147560D01*
Y148151D01*
X55231Y146970D02*
X56411D01*
X3103Y96618D02*
X6055D01*
X6645Y97209D01*
Y98389D01*
X6055Y98980D01*
X3103D01*
Y102522D02*
Y100160D01*
X4874D01*
X4284Y101341D01*
Y101932D01*
X4874Y102522D01*
X6055D01*
X6645Y101932D01*
Y100751D01*
X6055Y100160D01*
X26398Y3929D02*
Y7471D01*
X28169D01*
X28760Y6881D01*
Y5700D01*
X28169Y5110D01*
X26398D01*
X27579D02*
X28760Y3929D01*
X29940Y4519D02*
X30531Y3929D01*
X31711D01*
X32302Y4519D01*
Y6881D01*
X31711Y7471D01*
X30531D01*
X29940Y6881D01*
Y6290D01*
X30531Y5700D01*
X32302D01*
X38037Y139342D02*
Y142885D01*
X39808D01*
X40398Y142294D01*
Y141113D01*
X39808Y140523D01*
X38037D01*
X39217D02*
X40398Y139342D01*
X41579Y142294D02*
X42169Y142885D01*
X43350D01*
X43940Y142294D01*
Y141704D01*
X43350Y141113D01*
X43940Y140523D01*
Y139933D01*
X43350Y139342D01*
X42169D01*
X41579Y139933D01*
Y140523D01*
X42169Y141113D01*
X41579Y141704D01*
Y142294D01*
X42169Y141113D02*
X43350D01*
X5848Y123129D02*
Y126671D01*
X7619D01*
X8210Y126081D01*
Y124900D01*
X7619Y124310D01*
X5848D01*
X7029D02*
X8210Y123129D01*
X11752Y126671D02*
X10571Y126081D01*
X9390Y124900D01*
Y123719D01*
X9981Y123129D01*
X11161D01*
X11752Y123719D01*
Y124310D01*
X11161Y124900D01*
X9390D01*
X37203Y90179D02*
X40745D01*
Y88408D01*
X40155Y87818D01*
X38974D01*
X38384Y88408D01*
Y90179D01*
Y88999D02*
X37203Y87818D01*
Y84866D02*
X40745D01*
X38974Y86637D01*
Y84276D01*
X113302Y63150D02*
Y66692D01*
X115073D01*
X115663Y66102D01*
Y64921D01*
X115073Y64331D01*
X113302D01*
X114482D02*
X115663Y63150D01*
X116844D02*
X118025D01*
X117434D01*
Y66692D01*
X116844Y66102D01*
X112206Y46062D02*
Y42520D01*
X113977D01*
X114567Y43111D01*
Y45472D01*
X113977Y46062D01*
X112206D01*
X115748Y45472D02*
X116338Y46062D01*
X117519D01*
X118109Y45472D01*
Y44882D01*
X117519Y44291D01*
X116929D01*
X117519D01*
X118109Y43701D01*
Y43111D01*
X117519Y42520D01*
X116338D01*
X115748Y43111D01*
D11*
X119095Y154724D02*
X118550Y155473D01*
X117670Y155187D01*
Y154262D01*
X118550Y153976D01*
X119095Y154724D01*
X10705Y108285D02*
X9918D01*
X10705D01*
X117717Y154724D02*
X131496D01*
X66339Y22646D02*
X69095D01*
X66339Y14693D02*
X69095D01*
X97485Y52362D02*
X100634D01*
X97485D02*
Y56299D01*
X106146Y52362D02*
X109296D01*
Y56299D01*
X78740Y52362D02*
X81890D01*
X78740D02*
Y56299D01*
X87402Y52362D02*
X90551D01*
Y56299D01*
X82579Y17863D02*
X84350D01*
X61417Y9252D02*
X72441D01*
X61417Y2559D02*
X72441D01*
X61417Y8661D02*
Y9252D01*
X72441Y8661D02*
Y9252D01*
X61417Y2559D02*
Y3150D01*
X72441Y2559D02*
Y3150D01*
X36103Y19889D02*
X44371D01*
X36103Y10047D02*
X44371D01*
X101969Y7087D02*
X117717D01*
X101969D02*
Y10236D01*
X108268D01*
Y15157D01*
Y30118D02*
Y35039D01*
X101969D02*
X108268D01*
X101969D02*
Y38189D01*
X117717D01*
X131890Y13976D02*
Y31299D01*
X82579Y23768D02*
X84350D01*
D12*
X104921Y150787D02*
X104377Y151536D01*
X103497Y151250D01*
Y150325D01*
X104377Y150039D01*
X104921Y150787D01*
X74235Y43556D02*
X73497Y43982D01*
Y43129D01*
X74235Y43556D01*
X110969Y59842D02*
X110231Y60269D01*
Y59416D01*
X110969Y59842D01*
X92224D02*
X91486Y60269D01*
Y59416D01*
X92224Y59842D01*
X49194Y12409D02*
X48456Y12835D01*
Y11983D01*
X49194Y12409D01*
X94784Y18701D02*
X94045Y19127D01*
Y18275D01*
X94784Y18701D01*
X107283Y148425D02*
X119095D01*
X117717Y148425D02*
X131496D01*
X104921Y150787D02*
X107283Y148425D01*
X2500Y52300D02*
X4600D01*
X2500Y42300D02*
X4600D01*
X2500D02*
Y52300D01*
D13*
X102559Y42611D02*
D03*
X34054Y21275D02*
D03*
X75433Y3150D02*
D03*
X9055Y63976D02*
D03*
D14*
X49803Y79724D02*
X49213Y80315D01*
X48622Y79724D01*
X49213Y79134D01*
X49803Y79724D01*
D15*
X4685Y61744D02*
X34685D01*
X4685Y32744D02*
Y61744D01*
Y32744D02*
X34685D01*
Y61744D01*
D16*
X117717Y145669D02*
X131496D01*
X79724Y145669D02*
X119095D01*
X115945Y156693D02*
X119095D01*
X117717Y158661D02*
X131496D01*
X105709Y156693D02*
X109646Y152756D01*
X117717Y156693D02*
X131496D01*
X87992Y155905D02*
X96260D01*
X85236Y152756D02*
X89961D01*
X83268Y154724D02*
X85236Y152756D01*
X97441D02*
X99410Y154724D01*
X89961Y152756D02*
X97441D01*
X101378Y161024D02*
X103740Y158661D01*
X101772Y156693D02*
X105709D01*
X86811Y161024D02*
X101378D01*
X99410Y159055D02*
X101772Y156693D01*
X103740Y158661D02*
X119095D01*
X95472Y159055D02*
X99410D01*
X91142D02*
X95472D01*
X117717Y150787D02*
X131496D01*
X109646Y152756D02*
X119095D01*
X98622Y150394D02*
X100984Y152756D01*
X106890D02*
X108858Y150787D01*
X119095D01*
X100984Y152756D02*
X106890D01*
X117717Y152756D02*
X131496D01*
X92716Y148425D02*
X92716D01*
X79134Y149803D02*
X81693Y147244D01*
X82874Y150394D02*
X98622D01*
X92716Y148425D02*
X100591D01*
X91535Y147244D02*
X92716Y148425D01*
X82087Y147244D02*
X91535D01*
X81693D02*
X82087D01*
X22005Y94210D02*
Y106257D01*
X46434Y78483D02*
X52434D01*
Y75483D02*
Y78483D01*
X46434Y75483D02*
Y78483D01*
Y66483D02*
X52434D01*
X46434D02*
Y69483D01*
X52434Y66483D02*
Y69483D01*
X58478Y14244D02*
Y17244D01*
X52478Y14244D02*
Y17244D01*
Y14244D02*
X58478D01*
X52478Y23244D02*
Y26244D01*
X58478Y23244D02*
Y26244D01*
X52478D02*
X58478D01*
X85363Y42634D02*
X88363D01*
X85363Y36634D02*
X88363D01*
Y42634D01*
X76363Y36634D02*
X79363D01*
X76363Y42634D02*
X79363D01*
X76363Y36634D02*
Y42634D01*
X46525Y35326D02*
X49525D01*
X46525Y41326D02*
X49525D01*
X46525Y35326D02*
Y41326D01*
X55525D02*
X58525D01*
X55525Y35326D02*
X58525D01*
Y41326D01*
X19523Y143284D02*
X20523D01*
Y138784D02*
Y143284D01*
X19523Y128284D02*
X20523D01*
Y132284D01*
X53335Y78483D02*
X59335D01*
Y75483D02*
Y78483D01*
X53335Y75483D02*
Y78483D01*
Y66483D02*
X59335D01*
X53335D02*
Y69483D01*
X59335Y66483D02*
Y69483D01*
X67137Y78483D02*
X73137D01*
Y75483D02*
Y78483D01*
X67137Y75483D02*
Y78483D01*
Y66483D02*
X73137D01*
X67137D02*
Y69483D01*
X73137Y66483D02*
Y69483D01*
X60236Y78483D02*
X66236D01*
Y75483D02*
Y78483D01*
X60236Y75483D02*
Y78483D01*
Y66483D02*
X66236D01*
X60236D02*
Y69483D01*
X66236Y66483D02*
Y69483D01*
X74038Y78483D02*
X80038D01*
Y75483D02*
Y78483D01*
X74038Y75483D02*
Y78483D01*
Y66483D02*
X80038D01*
X74038D02*
Y69483D01*
X80038Y66483D02*
Y69483D01*
X90929Y80299D02*
Y81087D01*
X89929Y80299D02*
X90929D01*
X88929Y132299D02*
X90929D01*
Y130299D02*
Y132299D01*
X42929D02*
X43760D01*
X42929Y130799D02*
Y132299D01*
Y80299D02*
X44260D01*
X42929D02*
Y81587D01*
X90929Y81087D02*
Y130299D01*
X44260Y80299D02*
X89929D01*
X42929Y81587D02*
Y130799D01*
X43760Y132299D02*
X89429D01*
X77858Y10386D02*
X80858D01*
X77858Y16386D02*
X80858D01*
X77858Y10386D02*
Y16386D01*
X86858D02*
X89858D01*
X86858Y10386D02*
X89858D01*
Y16386D01*
X46525Y28425D02*
X49525D01*
X46525Y34426D02*
X49525D01*
X46525Y28425D02*
Y34426D01*
X55525D02*
X58525D01*
X55525Y28425D02*
X58525D01*
Y34426D01*
X85363Y35733D02*
X88363D01*
X85363Y29733D02*
X88363D01*
Y35733D01*
X76363Y29733D02*
X79363D01*
X76363Y35733D02*
X79363D01*
X76363Y29733D02*
Y35733D01*
X60236Y54691D02*
Y57691D01*
X66236Y54691D02*
Y57691D01*
X60236D02*
X66236D01*
Y45691D02*
Y48691D01*
X60236Y45691D02*
Y48691D01*
Y45691D02*
X66236D01*
X46525Y42228D02*
X49525D01*
X46525Y48228D02*
X49525D01*
X46525Y42228D02*
Y48228D01*
X55525D02*
X58525D01*
X55525Y42228D02*
X58525D01*
Y48228D01*
X7523Y128284D02*
Y143284D01*
X8523D01*
X7523Y128284D02*
Y143284D01*
Y128284D02*
X8523D01*
X8067Y94210D02*
Y106257D01*
X14067Y80476D02*
Y83476D01*
X8067Y80476D02*
Y83476D01*
Y80476D02*
X14067D01*
X8067Y89476D02*
Y92476D01*
X14067Y89476D02*
Y92476D01*
X8067D02*
X14067D01*
X16004D02*
X22005D01*
Y89476D02*
Y92476D01*
X16004Y89476D02*
Y92476D01*
Y80476D02*
X22005D01*
X16004D02*
Y83476D01*
X22005Y80476D02*
Y83476D01*
X118664Y126087D02*
X124664D01*
X118664D02*
Y129087D01*
X124664Y126087D02*
Y129087D01*
X118664Y138087D02*
X124664D01*
Y135087D02*
Y138087D01*
X118664Y135087D02*
Y138087D01*
D17*
X39779Y66823D02*
Y78634D01*
X45685Y66823D02*
Y78634D01*
X39779D02*
X45685D01*
X39779Y66823D02*
X45685D01*
X80788Y66633D02*
Y78444D01*
X86693Y66633D02*
Y78444D01*
X80788D02*
X86693D01*
X80788Y66633D02*
X86693D01*
M02*
