G04*
G04 #@! TF.GenerationSoftware,Altium Limited,Altium Designer,21.0.8 (223)*
G04*
G04 Layer_Color=32768*
%FSLAX25Y25*%
%MOIN*%
G70*
G04*
G04 #@! TF.SameCoordinates,33316FA8-22EC-4851-BF61-47935A3E7C20*
G04*
G04*
G04 #@! TF.FilePolarity,Positive*
G04*
G01*
G75*
%ADD11C,0.00787*%
%ADD17C,0.00197*%
%ADD97C,0.00394*%
%ADD99C,0.00200*%
D11*
X90158Y17469D02*
Y24162D01*
X76772D02*
X90158D01*
X76772Y17469D02*
Y24162D01*
Y17469D02*
X90158D01*
X33143Y10047D02*
X47332D01*
X33143D02*
Y19889D01*
X47332D01*
Y10047D02*
Y19889D01*
D17*
X62346Y135055D02*
X66283D01*
X62346Y142535D02*
X66283D01*
X62346Y135055D02*
Y142535D01*
X66283Y135055D02*
Y142535D01*
X52300Y135212D02*
Y142693D01*
X48363Y135212D02*
Y142693D01*
X52300D01*
X48363Y135212D02*
X52300D01*
X49708Y107491D02*
X55614D01*
X49708Y95680D02*
X55614D01*
X49708D02*
Y107491D01*
X55614Y95680D02*
Y107491D01*
X59275Y44442D02*
X73251D01*
X59275Y29087D02*
Y44442D01*
Y29087D02*
X73251D01*
Y44442D01*
X36021Y91165D02*
Y102976D01*
X41927Y91165D02*
Y102976D01*
X36021Y91165D02*
X41927D01*
X36021Y102976D02*
X41927D01*
X67185Y45784D02*
Y57595D01*
X73090Y45784D02*
Y57595D01*
X67185Y45784D02*
X73090D01*
X67185Y57595D02*
X73090D01*
X88268Y29780D02*
Y35686D01*
X76457Y29780D02*
Y35686D01*
Y29780D02*
X88268D01*
X76457Y35686D02*
X88268D01*
Y36681D02*
Y42587D01*
X76457Y36681D02*
Y42587D01*
Y36681D02*
X88268D01*
X76457Y42587D02*
X88268D01*
X133071Y6102D02*
Y39173D01*
X96063D02*
X133071D01*
X96063Y6102D02*
Y39173D01*
Y6102D02*
X133071D01*
X14065Y109765D02*
Y121576D01*
X8160Y109765D02*
Y121576D01*
X14065D01*
X8160Y109765D02*
X14065D01*
X20962D02*
Y121576D01*
X15056Y109765D02*
Y121576D01*
X20962D01*
X15056Y109765D02*
X20962D01*
X50000Y88984D02*
X61811D01*
X50000Y94889D02*
X61811D01*
X50000Y88984D02*
Y94889D01*
X61811Y88984D02*
Y94889D01*
X46620Y35374D02*
Y41279D01*
X58431Y35374D02*
Y41279D01*
X46620D02*
X58431D01*
X46620Y35374D02*
X58431D01*
X52525Y14339D02*
X58431D01*
X52525Y26150D02*
X58431D01*
X52525Y14339D02*
Y26150D01*
X58431Y14339D02*
Y26150D01*
X34800Y21126D02*
X46611D01*
X34800Y27032D02*
X46611D01*
Y21126D02*
Y27032D01*
X34800Y21126D02*
Y27032D01*
X46620Y28473D02*
Y34378D01*
X58431Y28473D02*
Y34378D01*
X46620D02*
X58431D01*
X46620Y28473D02*
X58431D01*
X60039Y24181D02*
X75394D01*
X60039Y13158D02*
X75394D01*
X60039D02*
Y24181D01*
X75394Y13158D02*
Y24181D01*
X96501Y47539D02*
Y62697D01*
X110280Y47539D02*
Y62697D01*
X96501Y47539D02*
X110280D01*
X96501Y62697D02*
X110280D01*
X77953Y10433D02*
Y16339D01*
X89764Y10433D02*
Y16339D01*
X77953D02*
X89764D01*
X77953Y10433D02*
X89764D01*
X112205Y50197D02*
Y62008D01*
X118110Y50197D02*
Y62008D01*
X112205Y50197D02*
X118110D01*
X112205Y62008D02*
X118110D01*
X58169Y1969D02*
Y9843D01*
X75689Y1969D02*
Y9843D01*
X58169D02*
X75689D01*
X58169Y1969D02*
X75689D01*
X22097Y21126D02*
Y27032D01*
X33908Y21126D02*
Y27032D01*
X22097D02*
X33908D01*
X22097Y21126D02*
X33908D01*
X24147Y9245D02*
Y21056D01*
X30053Y9245D02*
Y21056D01*
X24147Y9245D02*
X30053D01*
X24147Y21056D02*
X30053D01*
X77756Y47539D02*
Y62697D01*
X91535Y47539D02*
Y62697D01*
X77756Y47539D02*
X91535D01*
X77756Y62697D02*
X91535D01*
X46620Y42275D02*
Y48180D01*
X58431Y42275D02*
Y48180D01*
X46620D02*
X58431D01*
X46620Y42275D02*
X58431D01*
X60283Y57596D02*
X66189D01*
X60283Y45785D02*
X66189D01*
Y57596D01*
X60283Y45785D02*
Y57596D01*
X47301Y81102D02*
Y87008D01*
X60687D01*
X47301Y81102D02*
X60687D01*
Y87008D01*
X58802Y120669D02*
Y126575D01*
X46991Y120669D02*
Y126575D01*
X58802D01*
X46991Y120669D02*
X58802D01*
X29532Y133883D02*
Y137820D01*
X37012Y133883D02*
Y137820D01*
X29532D02*
X37012D01*
X29532Y133883D02*
X37012D01*
X29532Y138751D02*
Y142688D01*
X37012Y138751D02*
Y142688D01*
X29532D02*
X37012D01*
X29532Y138751D02*
X37012D01*
X8028Y93226D02*
Y107242D01*
X22044D01*
Y93226D02*
Y107242D01*
X8028Y93226D02*
X22044D01*
X8115Y80571D02*
X14020D01*
X8115Y92382D02*
X14020D01*
X8115Y80571D02*
Y92382D01*
X14020Y80571D02*
Y92382D01*
X39779Y66823D02*
X45685D01*
X39779Y78634D02*
X45685D01*
X39779Y66823D02*
Y78634D01*
X45685Y66823D02*
Y78634D01*
X73090Y66577D02*
Y78388D01*
X67185Y66577D02*
Y78388D01*
X73090D01*
X67185Y66577D02*
X73090D01*
X59288D02*
Y78388D01*
X53382Y66577D02*
Y78388D01*
X59288D01*
X53382Y66577D02*
X59288D01*
X66189D02*
Y78388D01*
X60283Y66577D02*
Y78388D01*
X66189D01*
X60283Y66577D02*
X66189D01*
X79991D02*
Y78388D01*
X74085Y66577D02*
Y78388D01*
X79991D01*
X74085Y66577D02*
X79991D01*
X52387D02*
Y78388D01*
X46481Y66577D02*
Y78388D01*
X52387D01*
X46481Y66577D02*
X52387D01*
X80788Y66633D02*
X86693D01*
X80788Y78444D02*
X86693D01*
X80788Y66633D02*
Y78444D01*
X86693Y66633D02*
Y78444D01*
X21957Y80571D02*
Y92382D01*
X16052Y80571D02*
Y92382D01*
X21957D01*
X16052Y80571D02*
X21957D01*
X53583Y138795D02*
X61063D01*
X53583Y142732D02*
X61063D01*
Y138795D02*
Y142732D01*
X53583Y138795D02*
Y142732D01*
X118712Y126181D02*
Y137992D01*
X124617Y126181D02*
Y137992D01*
X118712Y126181D02*
X124617D01*
X118712Y137992D02*
X124617D01*
D97*
X64314Y137712D02*
Y139878D01*
X63232Y138795D02*
X65397D01*
X49249Y138953D02*
X51414D01*
X50331Y137870D02*
Y140035D01*
X52661Y99715D02*
Y103455D01*
X50791Y101585D02*
X54531D01*
X37104Y97070D02*
X40844D01*
X38974Y95200D02*
Y98940D01*
X68267Y51689D02*
X72007D01*
X70137Y49819D02*
Y53559D01*
X80493Y32733D02*
X84233D01*
X82363Y30863D02*
Y34603D01*
X80493Y39634D02*
X84233D01*
X82363Y37764D02*
Y41504D01*
X114961Y22638D02*
X118898D01*
X116929Y20669D02*
Y24606D01*
X9243Y115670D02*
X12983D01*
X11113Y113800D02*
Y117540D01*
X16139Y115670D02*
X19879D01*
X18009Y113800D02*
Y117540D01*
X55905Y90066D02*
Y93806D01*
X54035Y91936D02*
X57776D01*
X50655Y38326D02*
X54395D01*
X52525Y36456D02*
Y40197D01*
X55478Y18374D02*
Y22114D01*
X53608Y20244D02*
X57348D01*
X40706Y22209D02*
Y25949D01*
X38836Y24079D02*
X42576D01*
X50655Y31425D02*
X54395D01*
X52525Y29555D02*
Y33296D01*
X67716Y16701D02*
Y20638D01*
X65748Y18669D02*
X69685D01*
X101422Y55118D02*
X105359D01*
X103390Y53150D02*
Y57087D01*
X81988Y13386D02*
X85728D01*
X83858Y11516D02*
Y15256D01*
X113287Y56102D02*
X117028D01*
X115157Y54232D02*
Y57972D01*
X64961Y5906D02*
X68898D01*
X66929Y3937D02*
Y7874D01*
X26133Y24079D02*
X29873D01*
X28003Y22209D02*
Y25949D01*
X25230Y15150D02*
X28970D01*
X27100Y13280D02*
Y17020D01*
X82677Y55118D02*
X86614D01*
X84646Y53150D02*
Y57087D01*
X50655Y45228D02*
X54395D01*
X52525Y43357D02*
Y47098D01*
X63236Y49821D02*
Y53561D01*
X61366Y51691D02*
X65106D01*
X52124Y84055D02*
X55864D01*
X53994Y82185D02*
Y85925D01*
X51026Y123622D02*
X54766D01*
X52896Y121752D02*
Y125492D01*
X32189Y135852D02*
X34355D01*
X33272Y134769D02*
Y136934D01*
X32189Y140720D02*
X34355D01*
X33272Y139637D02*
Y141802D01*
X11067Y84606D02*
Y88346D01*
X9197Y86476D02*
X12937D01*
X42732Y70859D02*
Y74599D01*
X40862Y72729D02*
X44602D01*
X68267Y72483D02*
X72007D01*
X70137Y70613D02*
Y74353D01*
X54465Y72483D02*
X58205D01*
X56335Y70613D02*
Y74353D01*
X61366Y72483D02*
X65106D01*
X63236Y70613D02*
Y74353D01*
X75168Y72483D02*
X78908D01*
X77038Y70613D02*
Y74353D01*
X47564Y72483D02*
X51304D01*
X49434Y70613D02*
Y74353D01*
X83740Y70669D02*
Y74409D01*
X81870Y72539D02*
X85611D01*
X17134Y86476D02*
X20875D01*
X19004Y84606D02*
Y88346D01*
X57323Y139681D02*
Y141846D01*
X56240Y140764D02*
X58406D01*
X119794Y132087D02*
X123535D01*
X121664Y130217D02*
Y133957D01*
D99*
X117913Y125591D02*
Y139764D01*
X95866D02*
X117913D01*
X95866Y125591D02*
X117913D01*
X95866D02*
Y139764D01*
M02*
