G04*
G04 #@! TF.GenerationSoftware,Altium Limited,Altium Designer,21.0.8 (223)*
G04*
G04 Layer_Color=8388736*
%FSLAX25Y25*%
%MOIN*%
G70*
G04*
G04 #@! TF.SameCoordinates,33316FA8-22EC-4851-BF61-47935A3E7C20*
G04*
G04*
G04 #@! TF.FilePolarity,Positive*
G04*
G01*
G75*
%ADD96C,0.00100*%
%ADD97C,0.00394*%
D96*
X50805Y89836D02*
Y94036D01*
X61006Y89836D02*
Y94036D01*
X56205Y91036D02*
X57406Y89836D01*
X56205Y92836D02*
X57406Y94036D01*
X56205Y91036D02*
Y92836D01*
X55606Y91036D02*
Y92836D01*
X56805Y94036D01*
X55606Y92836D02*
X56805Y94036D01*
X55606Y91036D02*
Y92836D01*
Y91036D02*
X56805Y89836D01*
X57406Y94036D02*
X61006D01*
X57406Y89836D02*
X61006D01*
X50805D02*
X56805D01*
X50805Y94036D02*
X56805D01*
X59094Y81955D02*
Y86155D01*
X48894Y81955D02*
Y86155D01*
X51894Y81955D02*
X52494Y82555D01*
Y85555D01*
X51894Y86155D02*
X52494Y85555D01*
X55494D02*
X56094Y86155D01*
X55494Y82555D02*
Y85555D01*
Y82555D02*
X56094Y81955D01*
Y85555D02*
X56694Y86155D01*
X56094Y85555D02*
X56694Y86155D01*
X56094Y82555D02*
Y85555D01*
Y82555D02*
X56694Y81955D01*
X51294Y86155D02*
X51894Y85555D01*
Y82555D02*
Y85555D01*
X51294Y81955D02*
X51894Y82555D01*
Y81955D02*
X56094D01*
X51894Y86155D02*
X56094D01*
X48894D02*
X51294D01*
X48894Y81955D02*
X51294D01*
X56694D02*
X59094D01*
X56694Y86155D02*
X59094D01*
X40632Y71829D02*
Y77829D01*
X44832Y71829D02*
Y77829D01*
Y67629D02*
Y71229D01*
X40632Y67629D02*
Y71229D01*
X43632Y73029D02*
X44832Y71829D01*
X41832Y73029D02*
X43632D01*
X40632Y71829D02*
X41832Y73029D01*
X40632Y71829D02*
X41832Y73029D01*
X43632D01*
X41832Y72429D02*
X43632D01*
X40632Y71229D02*
X41832Y72429D01*
X43632D02*
X44832Y71229D01*
X40632Y67629D02*
X44832D01*
X40632Y77829D02*
X44832D01*
X81640Y71639D02*
Y77639D01*
X85840Y71639D02*
Y77639D01*
Y67439D02*
Y71039D01*
X81640Y67439D02*
Y71039D01*
X84640Y72839D02*
X85840Y71639D01*
X82840Y72839D02*
X84640D01*
X81640Y71639D02*
X82840Y72839D01*
X81640Y71639D02*
X82840Y72839D01*
X84640D01*
X82840Y72239D02*
X84640D01*
X81640Y71039D02*
X82840Y72239D01*
X84640D02*
X85840Y71039D01*
X81640Y67439D02*
X85840D01*
X81640Y77639D02*
X85840D01*
D97*
X29528Y147638D02*
Y194882D01*
Y147638D02*
Y149606D01*
Y192913D02*
Y194882D01*
X33465Y147638D02*
Y194882D01*
X37402D01*
X29528D02*
X33465D01*
Y192913D02*
Y194882D01*
X29528Y147638D02*
X33465D01*
Y171260D01*
Y147638D02*
Y149606D01*
Y171260D02*
X37402D01*
Y194882D01*
Y192913D02*
Y194882D01*
X33465Y171260D02*
Y173228D01*
X37402Y171260D02*
Y173228D01*
Y194882D02*
X41339D01*
X37402Y192913D02*
Y194882D01*
Y171260D02*
X41339D01*
Y194882D01*
Y192913D02*
Y194882D01*
X37402Y171260D02*
Y173228D01*
X41339Y171260D02*
Y173228D01*
Y194882D02*
X45276D01*
X41339Y192913D02*
Y194882D01*
Y171260D02*
X45276D01*
Y194882D01*
Y192913D02*
Y194882D01*
X41339Y171260D02*
Y173228D01*
X45276Y171260D02*
Y173228D01*
Y194882D02*
X49213D01*
X45276Y192913D02*
Y194882D01*
Y171260D02*
X49213D01*
Y194882D01*
Y192913D02*
Y194882D01*
X45276Y171260D02*
Y173228D01*
X49213Y171260D02*
Y173228D01*
Y194882D02*
X53150D01*
X49213Y192913D02*
Y194882D01*
Y171260D02*
X53150D01*
Y194882D01*
Y192913D02*
Y194882D01*
X49213Y171260D02*
Y173228D01*
X53150Y171260D02*
Y173228D01*
Y194882D02*
X57087D01*
X53150Y192913D02*
Y194882D01*
Y171260D02*
X57087D01*
Y194882D01*
Y192913D02*
Y194882D01*
X53150Y171260D02*
Y173228D01*
X57087Y171260D02*
Y173228D01*
Y194882D02*
X61024D01*
X57087Y192913D02*
Y194882D01*
Y171260D02*
X61024D01*
Y194882D01*
Y192913D02*
Y194882D01*
X57087Y171260D02*
Y173228D01*
X61024Y171260D02*
Y173228D01*
Y194882D02*
X64961D01*
X61024Y192913D02*
Y194882D01*
Y171260D02*
X64961D01*
Y194882D01*
Y192913D02*
Y194882D01*
X61024Y171260D02*
Y173228D01*
X64961Y171260D02*
Y173228D01*
Y194882D02*
X68898D01*
X64961Y192913D02*
Y194882D01*
Y171260D02*
X68898D01*
Y194882D01*
Y192913D02*
Y194882D01*
X64961Y171260D02*
Y173228D01*
X68898Y171260D02*
Y173228D01*
Y194882D02*
X72835D01*
X68898Y192913D02*
Y194882D01*
Y171260D02*
X72835D01*
Y194882D01*
Y192913D02*
Y194882D01*
X68898Y171260D02*
Y173228D01*
X72835Y171260D02*
Y173228D01*
Y194882D02*
X76772D01*
X72835Y192913D02*
Y194882D01*
Y171260D02*
X76772D01*
Y194882D01*
Y192913D02*
Y194882D01*
X72835Y171260D02*
Y173228D01*
X76772Y171260D02*
Y173228D01*
Y194882D02*
X80709D01*
X76772Y192913D02*
Y194882D01*
Y171260D02*
X80709D01*
Y194882D01*
Y192913D02*
Y194882D01*
X76772Y171260D02*
Y173228D01*
X80709Y171260D02*
Y173228D01*
Y194882D02*
X84646D01*
X80709Y192913D02*
Y194882D01*
Y171260D02*
X84646D01*
Y194882D01*
Y192913D02*
Y194882D01*
X80709Y171260D02*
Y173228D01*
X84646Y171260D02*
Y173228D01*
Y194882D02*
X88583D01*
X84646Y192913D02*
Y194882D01*
Y171260D02*
X88583D01*
Y194882D01*
Y192913D02*
Y194882D01*
X84646Y171260D02*
Y173228D01*
X88583Y171260D02*
Y173228D01*
Y194882D02*
X92520D01*
X88583Y192913D02*
Y194882D01*
Y171260D02*
X92520D01*
Y194882D01*
Y192913D02*
Y194882D01*
X88583Y171260D02*
Y173228D01*
X92520Y171260D02*
Y173228D01*
Y194882D02*
X96457D01*
X92520Y192913D02*
Y194882D01*
Y171260D02*
X96457D01*
Y194882D01*
Y192913D02*
Y194882D01*
X92520Y171260D02*
Y173228D01*
X96457Y171260D02*
Y173228D01*
Y194882D02*
X100394D01*
X96457Y192913D02*
Y194882D01*
Y171260D02*
X100394D01*
Y194882D01*
Y192913D02*
Y194882D01*
X96457Y171260D02*
Y173228D01*
X100394Y171260D02*
Y173228D01*
Y194882D02*
X104331D01*
X100394Y192913D02*
Y194882D01*
Y171260D02*
X104331D01*
Y194882D01*
Y192913D02*
Y194882D01*
X100394Y171260D02*
Y173228D01*
X104331Y171260D02*
Y173228D01*
Y192913D02*
Y194882D01*
Y171260D02*
Y173228D01*
X29528Y192913D02*
X33465D01*
X31496D02*
Y194882D01*
X33465Y192913D02*
X37402D01*
X35433D02*
Y194882D01*
X37402Y192913D02*
X41339D01*
X39370D02*
Y194882D01*
X41339Y192913D02*
X45276D01*
X43307D02*
Y194882D01*
X45276Y192913D02*
X49213D01*
X47244D02*
Y194882D01*
X49213Y192913D02*
Y194882D01*
X53150D02*
X57087D01*
X49213D02*
X53150D01*
Y192913D02*
Y194882D01*
X57087Y192913D02*
Y194882D01*
X61024D01*
X57087Y192913D02*
Y194882D01*
X61024Y192913D02*
Y194882D01*
X64961D01*
X61024Y192913D02*
Y194882D01*
X64961Y192913D02*
Y194882D01*
X68898D01*
X64961Y192913D02*
Y194882D01*
X68898Y192913D02*
Y194882D01*
Y192913D02*
Y194882D01*
X49213Y192913D02*
X53150D01*
X51181D02*
Y194882D01*
X53150Y192913D02*
X57087D01*
X55118D02*
Y194882D01*
X57087Y192913D02*
X61024D01*
X59055D02*
Y194882D01*
X61024Y192913D02*
X64961D01*
X62992D02*
Y194882D01*
X64961Y192913D02*
X68898D01*
X66929D02*
Y194882D01*
X68898Y192913D02*
Y194882D01*
X72835D02*
X76772D01*
X68898D02*
X72835D01*
Y192913D02*
Y194882D01*
X76772Y192913D02*
Y194882D01*
X80709D01*
X76772Y192913D02*
Y194882D01*
X80709Y192913D02*
Y194882D01*
X84646D01*
X80709Y192913D02*
Y194882D01*
X84646Y192913D02*
Y194882D01*
X88583D01*
X84646Y192913D02*
Y194882D01*
X88583Y192913D02*
Y194882D01*
Y192913D02*
Y194882D01*
X68898Y192913D02*
X72835D01*
X70866D02*
Y194882D01*
X72835Y192913D02*
X76772D01*
X74803D02*
Y194882D01*
X76772Y192913D02*
X80709D01*
X78740D02*
Y194882D01*
X80709Y192913D02*
X84646D01*
X82677D02*
Y194882D01*
X84646Y192913D02*
X88583D01*
X86614D02*
Y194882D01*
X88583Y192913D02*
Y194882D01*
X92520D02*
X96457D01*
X88583D02*
X92520D01*
Y192913D02*
Y194882D01*
X96457Y192913D02*
Y194882D01*
X100394D01*
X96457Y192913D02*
Y194882D01*
X100394Y192913D02*
Y194882D01*
X104331D01*
X100394Y192913D02*
Y194882D01*
X104331Y192913D02*
Y194882D01*
Y192913D02*
Y194882D01*
X88583Y192913D02*
X92520D01*
X90551D02*
Y194882D01*
X92520Y192913D02*
X96457D01*
X94488D02*
Y194882D01*
X96457Y192913D02*
X100394D01*
X98425D02*
Y194882D01*
X100394Y192913D02*
X104331D01*
X102362D02*
Y194882D01*
X33465Y173228D02*
X37402D01*
X33465Y171260D02*
Y173228D01*
X37402Y171260D02*
Y173228D01*
X41339D01*
X37402Y171260D02*
Y173228D01*
X41339Y171260D02*
Y173228D01*
X45276D01*
X41339Y171260D02*
Y173228D01*
X45276Y171260D02*
Y173228D01*
X49213D01*
X45276Y171260D02*
Y173228D01*
X49213Y171260D02*
Y173228D01*
X53150D01*
X49213Y171260D02*
Y173228D01*
X53150Y171260D02*
Y173228D01*
X57087D01*
X53150Y171260D02*
Y173228D01*
X57087Y171260D02*
Y173228D01*
X61024D01*
X57087Y171260D02*
Y173228D01*
X61024Y171260D02*
Y173228D01*
X64961D01*
X61024Y171260D02*
Y173228D01*
X64961Y171260D02*
Y173228D01*
X68898D01*
X64961Y171260D02*
Y173228D01*
X68898Y171260D02*
Y173228D01*
X72835D01*
X68898Y171260D02*
Y173228D01*
X72835Y171260D02*
Y173228D01*
X76772D01*
X72835Y171260D02*
Y173228D01*
X76772Y171260D02*
Y173228D01*
X80709D01*
X76772Y171260D02*
Y173228D01*
X80709Y171260D02*
Y173228D01*
X84646D01*
X80709Y171260D02*
Y173228D01*
X84646Y171260D02*
Y173228D01*
X88583D01*
X84646Y171260D02*
Y173228D01*
X88583Y171260D02*
Y173228D01*
X92520D01*
X88583Y171260D02*
Y173228D01*
X92520Y171260D02*
Y173228D01*
X96457D01*
X92520Y171260D02*
Y173228D01*
X96457Y171260D02*
Y173228D01*
X100394D01*
X96457Y171260D02*
Y173228D01*
X100394Y171260D02*
Y173228D01*
X104331D01*
X100394Y171260D02*
Y173228D01*
X104331Y171260D02*
Y173228D01*
Y171260D02*
Y173228D01*
X33465Y171260D02*
X37402D01*
X35433D02*
Y173228D01*
X37402Y171260D02*
X41339D01*
X39370D02*
Y173228D01*
X41339Y171260D02*
X45276D01*
X43307D02*
Y173228D01*
X45276Y171260D02*
X49213D01*
X47244D02*
Y173228D01*
X49213Y171260D02*
Y173228D01*
X53150D02*
X57087D01*
X49213D02*
X53150D01*
Y171260D02*
Y173228D01*
X57087Y171260D02*
Y173228D01*
X61024D01*
X57087Y171260D02*
Y173228D01*
X61024Y171260D02*
Y173228D01*
X64961D01*
X61024Y171260D02*
Y173228D01*
X64961Y171260D02*
Y173228D01*
X68898D01*
X64961Y171260D02*
Y173228D01*
X68898Y171260D02*
Y173228D01*
Y171260D02*
Y173228D01*
X49213Y171260D02*
X53150D01*
X51181D02*
Y173228D01*
X53150Y171260D02*
X57087D01*
X55118D02*
Y173228D01*
X57087Y171260D02*
X61024D01*
X59055D02*
Y173228D01*
X61024Y171260D02*
X64961D01*
X62992D02*
Y173228D01*
X64961Y171260D02*
X68898D01*
X66929D02*
Y173228D01*
X68898Y171260D02*
Y173228D01*
X72835D02*
X76772D01*
X68898D02*
X72835D01*
Y171260D02*
Y173228D01*
X76772Y171260D02*
Y173228D01*
X80709D01*
X76772Y171260D02*
Y173228D01*
X80709Y171260D02*
Y173228D01*
X84646D01*
X80709Y171260D02*
Y173228D01*
X84646Y171260D02*
Y173228D01*
X88583D01*
X84646Y171260D02*
Y173228D01*
X88583Y171260D02*
Y173228D01*
Y171260D02*
Y173228D01*
X68898Y171260D02*
X72835D01*
X70866D02*
Y173228D01*
X72835Y171260D02*
X76772D01*
X74803D02*
Y173228D01*
X76772Y171260D02*
X80709D01*
X78740D02*
Y173228D01*
X80709Y171260D02*
X84646D01*
X82677D02*
Y173228D01*
X84646Y171260D02*
X88583D01*
X86614D02*
Y173228D01*
X88583Y171260D02*
Y173228D01*
X92520D02*
X96457D01*
X88583D02*
X92520D01*
Y171260D02*
Y173228D01*
X96457Y171260D02*
Y173228D01*
X100394D01*
X96457Y171260D02*
Y173228D01*
X100394Y171260D02*
Y173228D01*
X104331D01*
X100394Y171260D02*
Y173228D01*
X104331Y171260D02*
Y173228D01*
Y171260D02*
Y173228D01*
X88583Y171260D02*
X92520D01*
X90551D02*
Y173228D01*
X92520Y171260D02*
X96457D01*
X94488D02*
Y173228D01*
X96457Y171260D02*
X100394D01*
X98425D02*
Y173228D01*
X100394Y171260D02*
X104331D01*
X102362D02*
Y173228D01*
X100394Y175197D02*
X104331D01*
Y173228D02*
Y175197D01*
X100394Y173228D02*
Y175197D01*
X96457D02*
X100394D01*
Y173228D02*
Y175197D01*
X96457Y173228D02*
Y175197D01*
X92520D02*
X96457D01*
Y173228D02*
Y175197D01*
X92520Y173228D02*
Y175197D01*
X88583D02*
X92520D01*
Y173228D02*
Y175197D01*
X88583Y173228D02*
Y175197D01*
X84646D02*
X88583D01*
Y173228D02*
Y175197D01*
X84646Y173228D02*
Y175197D01*
X80709D02*
X84646D01*
Y173228D02*
Y175197D01*
X80709Y173228D02*
Y175197D01*
X76772D02*
X80709D01*
Y173228D02*
Y175197D01*
X76772Y173228D02*
Y175197D01*
X72835D02*
X76772D01*
Y173228D02*
Y175197D01*
X72835Y173228D02*
Y175197D01*
X68898D02*
X72835D01*
Y173228D02*
Y175197D01*
X68898Y173228D02*
Y175197D01*
X64961D02*
X68898D01*
Y173228D02*
Y175197D01*
X64961Y173228D02*
Y175197D01*
X61024D02*
X64961D01*
Y173228D02*
Y175197D01*
X61024Y173228D02*
Y175197D01*
X57087D02*
X61024D01*
Y173228D02*
Y175197D01*
X57087Y173228D02*
Y175197D01*
X53150D02*
X57087D01*
Y173228D02*
Y175197D01*
X53150Y173228D02*
Y175197D01*
X49213D02*
X53150D01*
Y173228D02*
Y175197D01*
X49213Y173228D02*
Y175197D01*
X45276D02*
X49213D01*
Y173228D02*
Y175197D01*
X45276Y173228D02*
Y175197D01*
X41339D02*
X45276D01*
Y173228D02*
Y175197D01*
X41339Y173228D02*
Y175197D01*
X37402D02*
X41339D01*
Y173228D02*
Y175197D01*
X37402Y173228D02*
Y175197D01*
X33465D02*
X37402D01*
Y173228D02*
Y175197D01*
X33465Y173228D02*
Y175197D01*
Y173228D02*
Y175197D01*
X100394Y173228D02*
X104331D01*
Y175197D01*
X100394Y173228D02*
Y175197D01*
X96457Y173228D02*
X100394D01*
Y175197D01*
X96457Y173228D02*
Y175197D01*
X92520Y173228D02*
X96457D01*
Y175197D01*
X92520Y173228D02*
Y175197D01*
X88583Y173228D02*
X92520D01*
Y175197D01*
X88583Y173228D02*
Y175197D01*
X84646Y173228D02*
X88583D01*
Y175197D01*
X84646Y173228D02*
Y175197D01*
X80709Y173228D02*
X84646D01*
Y175197D01*
X80709Y173228D02*
Y175197D01*
X76772Y173228D02*
X80709D01*
Y175197D01*
X76772Y173228D02*
Y175197D01*
X72835Y173228D02*
X76772D01*
Y175197D01*
X72835Y173228D02*
Y175197D01*
X68898Y173228D02*
X72835D01*
Y175197D01*
X68898Y173228D02*
Y175197D01*
X64961Y173228D02*
X68898D01*
Y175197D01*
X64961Y173228D02*
Y175197D01*
X61024Y173228D02*
X64961D01*
Y175197D01*
X61024Y173228D02*
Y175197D01*
X57087Y173228D02*
X61024D01*
Y175197D01*
X57087Y173228D02*
Y175197D01*
X53150Y173228D02*
X57087D01*
Y175197D01*
X53150Y173228D02*
Y175197D01*
X49213Y173228D02*
X53150D01*
Y175197D01*
X49213Y173228D02*
Y175197D01*
X45276Y173228D02*
X49213D01*
Y175197D01*
X45276Y173228D02*
Y175197D01*
X41339Y173228D02*
X45276D01*
Y175197D01*
X41339Y173228D02*
Y175197D01*
X37402Y173228D02*
X41339D01*
Y175197D01*
X37402Y173228D02*
Y175197D01*
X33465Y173228D02*
X37402D01*
Y175197D01*
X33465Y173228D02*
Y175197D01*
Y173228D02*
Y175197D01*
X100394D02*
X104331D01*
X102362Y173228D02*
Y175197D01*
X96457D02*
X100394D01*
X98425Y173228D02*
Y175197D01*
X92520D02*
X96457D01*
X94488Y173228D02*
Y175197D01*
X88583D02*
X92520D01*
X90551Y173228D02*
Y175197D01*
X88583Y173228D02*
Y175197D01*
X80709Y173228D02*
X84646D01*
X88583D01*
X84646D02*
Y175197D01*
X80709Y173228D02*
Y175197D01*
X76772Y173228D02*
X80709D01*
Y175197D01*
X76772Y173228D02*
Y175197D01*
X72835Y173228D02*
X76772D01*
Y175197D01*
X72835Y173228D02*
Y175197D01*
X68898Y173228D02*
X72835D01*
Y175197D01*
X68898Y173228D02*
Y175197D01*
Y173228D02*
Y175197D01*
X84646D02*
X88583D01*
X86614Y173228D02*
Y175197D01*
X80709D02*
X84646D01*
X82677Y173228D02*
Y175197D01*
X76772D02*
X80709D01*
X78740Y173228D02*
Y175197D01*
X72835D02*
X76772D01*
X74803Y173228D02*
Y175197D01*
X68898D02*
X72835D01*
X70866Y173228D02*
Y175197D01*
X68898Y173228D02*
Y175197D01*
X61024Y173228D02*
X64961D01*
X68898D01*
X64961D02*
Y175197D01*
X61024Y173228D02*
Y175197D01*
X57087Y173228D02*
X61024D01*
Y175197D01*
X57087Y173228D02*
Y175197D01*
X53150Y173228D02*
X57087D01*
Y175197D01*
X53150Y173228D02*
Y175197D01*
X49213Y173228D02*
X53150D01*
Y175197D01*
X49213Y173228D02*
Y175197D01*
Y173228D02*
Y175197D01*
X64961D02*
X68898D01*
X66929Y173228D02*
Y175197D01*
X61024D02*
X64961D01*
X62992Y173228D02*
Y175197D01*
X57087D02*
X61024D01*
X59055Y173228D02*
Y175197D01*
X53150D02*
X57087D01*
X55118Y173228D02*
Y175197D01*
X49213D02*
X53150D01*
X51181Y173228D02*
Y175197D01*
X49213Y173228D02*
Y175197D01*
X41339Y173228D02*
X45276D01*
X49213D01*
X45276D02*
Y175197D01*
X41339Y173228D02*
Y175197D01*
X37402Y173228D02*
X41339D01*
Y175197D01*
X37402Y173228D02*
Y175197D01*
X33465Y173228D02*
X37402D01*
Y175197D01*
X33465Y173228D02*
Y175197D01*
Y173228D02*
Y175197D01*
X45276D02*
X49213D01*
X47244Y173228D02*
Y175197D01*
X41339D02*
X45276D01*
X43307Y173228D02*
Y175197D01*
X37402D02*
X41339D01*
X39370Y173228D02*
Y175197D01*
X33465D02*
X37402D01*
X35433Y173228D02*
Y175197D01*
X33465Y190945D02*
X37402D01*
X33465D02*
Y192913D01*
X37402Y190945D02*
Y192913D01*
Y190945D02*
X41339D01*
X37402D02*
Y192913D01*
X41339Y190945D02*
Y192913D01*
Y190945D02*
X45276D01*
X41339D02*
Y192913D01*
X45276Y190945D02*
Y192913D01*
Y190945D02*
X49213D01*
X45276D02*
Y192913D01*
X49213Y190945D02*
Y192913D01*
Y190945D02*
X53150D01*
X49213D02*
Y192913D01*
X53150Y190945D02*
Y192913D01*
Y190945D02*
X57087D01*
X53150D02*
Y192913D01*
X57087Y190945D02*
Y192913D01*
Y190945D02*
X61024D01*
X57087D02*
Y192913D01*
X61024Y190945D02*
Y192913D01*
Y190945D02*
X64961D01*
X61024D02*
Y192913D01*
X64961Y190945D02*
Y192913D01*
Y190945D02*
X68898D01*
X64961D02*
Y192913D01*
X68898Y190945D02*
Y192913D01*
Y190945D02*
X72835D01*
X68898D02*
Y192913D01*
X72835Y190945D02*
Y192913D01*
Y190945D02*
X76772D01*
X72835D02*
Y192913D01*
X76772Y190945D02*
Y192913D01*
Y190945D02*
X80709D01*
X76772D02*
Y192913D01*
X80709Y190945D02*
Y192913D01*
Y190945D02*
X84646D01*
X80709D02*
Y192913D01*
X84646Y190945D02*
Y192913D01*
Y190945D02*
X88583D01*
X84646D02*
Y192913D01*
X88583Y190945D02*
Y192913D01*
Y190945D02*
X92520D01*
X88583D02*
Y192913D01*
X92520Y190945D02*
Y192913D01*
Y190945D02*
X96457D01*
X92520D02*
Y192913D01*
X96457Y190945D02*
Y192913D01*
Y190945D02*
X100394D01*
X96457D02*
Y192913D01*
X100394Y190945D02*
Y192913D01*
Y190945D02*
X104331D01*
X100394D02*
Y192913D01*
X104331Y190945D02*
Y192913D01*
Y190945D02*
Y192913D01*
X33465D02*
X37402D01*
X33465Y190945D02*
Y192913D01*
X37402Y190945D02*
Y192913D01*
X41339D01*
X37402Y190945D02*
Y192913D01*
X41339Y190945D02*
Y192913D01*
X45276D01*
X41339Y190945D02*
Y192913D01*
X45276Y190945D02*
Y192913D01*
X49213D01*
X45276Y190945D02*
Y192913D01*
X49213Y190945D02*
Y192913D01*
X53150D01*
X49213Y190945D02*
Y192913D01*
X53150Y190945D02*
Y192913D01*
X57087D01*
X53150Y190945D02*
Y192913D01*
X57087Y190945D02*
Y192913D01*
X61024D01*
X57087Y190945D02*
Y192913D01*
X61024Y190945D02*
Y192913D01*
X64961D01*
X61024Y190945D02*
Y192913D01*
X64961Y190945D02*
Y192913D01*
X68898D01*
X64961Y190945D02*
Y192913D01*
X68898Y190945D02*
Y192913D01*
X72835D01*
X68898Y190945D02*
Y192913D01*
X72835Y190945D02*
Y192913D01*
X76772D01*
X72835Y190945D02*
Y192913D01*
X76772Y190945D02*
Y192913D01*
X80709D01*
X76772Y190945D02*
Y192913D01*
X80709Y190945D02*
Y192913D01*
X84646D01*
X80709Y190945D02*
Y192913D01*
X84646Y190945D02*
Y192913D01*
X88583D01*
X84646Y190945D02*
Y192913D01*
X88583Y190945D02*
Y192913D01*
X92520D01*
X88583Y190945D02*
Y192913D01*
X92520Y190945D02*
Y192913D01*
X96457D01*
X92520Y190945D02*
Y192913D01*
X96457Y190945D02*
Y192913D01*
X100394D01*
X96457Y190945D02*
Y192913D01*
X100394Y190945D02*
Y192913D01*
X104331D01*
X100394Y190945D02*
Y192913D01*
X104331Y190945D02*
Y192913D01*
Y190945D02*
Y192913D01*
X33465Y190945D02*
X37402D01*
X35433D02*
Y192913D01*
X37402Y190945D02*
X41339D01*
X39370D02*
Y192913D01*
X41339Y190945D02*
X45276D01*
X43307D02*
Y192913D01*
X45276Y190945D02*
X49213D01*
X47244D02*
Y192913D01*
X49213Y190945D02*
Y192913D01*
X53150D02*
X57087D01*
X49213D02*
X53150D01*
Y190945D02*
Y192913D01*
X57087Y190945D02*
Y192913D01*
X61024D01*
X57087Y190945D02*
Y192913D01*
X61024Y190945D02*
Y192913D01*
X64961D01*
X61024Y190945D02*
Y192913D01*
X64961Y190945D02*
Y192913D01*
X68898D01*
X64961Y190945D02*
Y192913D01*
X68898Y190945D02*
Y192913D01*
Y190945D02*
Y192913D01*
X49213Y190945D02*
X53150D01*
X51181D02*
Y192913D01*
X53150Y190945D02*
X57087D01*
X55118D02*
Y192913D01*
X57087Y190945D02*
X61024D01*
X59055D02*
Y192913D01*
X61024Y190945D02*
X64961D01*
X62992D02*
Y192913D01*
X64961Y190945D02*
X68898D01*
X66929D02*
Y192913D01*
X68898Y190945D02*
Y192913D01*
X72835D02*
X76772D01*
X68898D02*
X72835D01*
Y190945D02*
Y192913D01*
X76772Y190945D02*
Y192913D01*
X80709D01*
X76772Y190945D02*
Y192913D01*
X80709Y190945D02*
Y192913D01*
X84646D01*
X80709Y190945D02*
Y192913D01*
X84646Y190945D02*
Y192913D01*
X88583D01*
X84646Y190945D02*
Y192913D01*
X88583Y190945D02*
Y192913D01*
Y190945D02*
Y192913D01*
X68898Y190945D02*
X72835D01*
X70866D02*
Y192913D01*
X72835Y190945D02*
X76772D01*
X74803D02*
Y192913D01*
X76772Y190945D02*
X80709D01*
X78740D02*
Y192913D01*
X80709Y190945D02*
X84646D01*
X82677D02*
Y192913D01*
X84646Y190945D02*
X88583D01*
X86614D02*
Y192913D01*
X88583Y190945D02*
Y192913D01*
X92520D02*
X96457D01*
X88583D02*
X92520D01*
Y190945D02*
Y192913D01*
X96457Y190945D02*
Y192913D01*
X100394D01*
X96457Y190945D02*
Y192913D01*
X100394Y190945D02*
Y192913D01*
X104331D01*
X100394Y190945D02*
Y192913D01*
X104331Y190945D02*
Y192913D01*
Y190945D02*
Y192913D01*
X88583Y190945D02*
X92520D01*
X90551D02*
Y192913D01*
X92520Y190945D02*
X96457D01*
X94488D02*
Y192913D01*
X96457Y190945D02*
X100394D01*
X98425D02*
Y192913D01*
X100394Y190945D02*
X104331D01*
X102362D02*
Y192913D01*
X33465Y147638D02*
Y149606D01*
X27559Y145669D02*
Y196850D01*
X106299D01*
X27559Y145669D02*
X106299D01*
Y196850D01*
M02*
