G04*
G04 #@! TF.GenerationSoftware,Altium Limited,Altium Designer,21.0.8 (223)*
G04*
G04 Layer_Color=16711935*
%FSLAX25Y25*%
%MOIN*%
G70*
G04*
G04 #@! TF.SameCoordinates,33316FA8-22EC-4851-BF61-47935A3E7C20*
G04*
G04*
G04 #@! TF.FilePolarity,Negative*
G04*
G01*
G75*
%ADD54R,0.04724X0.04528*%
%ADD57R,0.04331X0.04528*%
%ADD58C,0.04528*%
%ADD78C,0.18307*%
%ADD79C,0.00591*%
%ADD80C,0.02953*%
%ADD93R,0.10039X0.03583*%
%ADD94R,0.01591X0.01591*%
G36*
X61052Y94329D02*
X61097Y94318D01*
X61140Y94300D01*
X61180Y94276D01*
X61215Y94246D01*
X61245Y94210D01*
X61269Y94171D01*
X61287Y94128D01*
X61298Y94083D01*
X61302Y94036D01*
Y89836D01*
X61298Y89790D01*
X61287Y89745D01*
X61269Y89702D01*
X61245Y89662D01*
X61215Y89627D01*
X61180Y89597D01*
X61140Y89573D01*
X61097Y89555D01*
X61052Y89544D01*
X61006Y89540D01*
X57406D01*
X57406Y89540D01*
X57359Y89544D01*
X57314Y89555D01*
X57284Y89567D01*
X57271Y89573D01*
X57231Y89597D01*
X57196Y89627D01*
X55996Y90827D01*
X55966Y90862D01*
X55942Y90902D01*
X55936Y90914D01*
X55924Y90945D01*
X55913Y90990D01*
X55909Y91036D01*
Y92836D01*
X55909Y92836D01*
X55913Y92883D01*
X55924Y92928D01*
X55936Y92958D01*
X55942Y92971D01*
X55966Y93010D01*
X55996Y93046D01*
X57196Y94246D01*
X57231Y94276D01*
X57271Y94300D01*
X57284Y94306D01*
X57314Y94318D01*
X57359Y94329D01*
X57406Y94333D01*
X61006D01*
X61052Y94329D01*
D02*
G37*
G36*
X56064Y94329D02*
X56110Y94318D01*
X56153Y94300D01*
X56192Y94276D01*
X56228Y94246D01*
X56258Y94210D01*
X56282Y94171D01*
X56300Y94128D01*
X56311Y94083D01*
X56314Y94036D01*
X56311Y93990D01*
X56300Y93945D01*
X56287Y93915D01*
X56282Y93902D01*
X56258Y93862D01*
X56228Y93827D01*
X55114Y92714D01*
Y91159D01*
X56228Y90046D01*
X56258Y90010D01*
X56282Y89971D01*
X56287Y89958D01*
X56300Y89928D01*
X56311Y89883D01*
X56314Y89836D01*
X56311Y89790D01*
X56300Y89745D01*
X56287Y89714D01*
X56282Y89702D01*
X56258Y89662D01*
X56228Y89627D01*
X56192Y89597D01*
X56153Y89573D01*
X56140Y89567D01*
X56110Y89555D01*
X56064Y89544D01*
X56018Y89540D01*
X50787Y89540D01*
X50741Y89544D01*
X50696Y89555D01*
X50653Y89573D01*
X50613Y89597D01*
X50578Y89627D01*
X50548Y89662D01*
X50524Y89702D01*
X50506Y89745D01*
X50495Y89790D01*
X50491Y89836D01*
Y94036D01*
X50495Y94083D01*
X50506Y94128D01*
X50524Y94171D01*
X50548Y94210D01*
X50578Y94246D01*
X50613Y94276D01*
X50653Y94300D01*
X50696Y94318D01*
X50741Y94329D01*
X50787Y94333D01*
X56018Y94333D01*
X56018Y94333D01*
X56064Y94329D01*
D02*
G37*
G36*
X59927Y86448D02*
X59973Y86437D01*
X60016Y86419D01*
X60055Y86395D01*
X60091Y86365D01*
X60121Y86329D01*
X60145Y86290D01*
X60163Y86247D01*
X60174Y86201D01*
X60177Y86155D01*
Y81955D01*
X60174Y81909D01*
X60163Y81864D01*
X60145Y81821D01*
X60121Y81781D01*
X60091Y81746D01*
X60055Y81716D01*
X60016Y81691D01*
X59973Y81673D01*
X59927Y81663D01*
X59881Y81659D01*
X57481D01*
X57435Y81663D01*
X57390Y81673D01*
X57359Y81686D01*
X57347Y81691D01*
X57307Y81716D01*
X57272Y81746D01*
X56672Y82346D01*
X56642Y82381D01*
X56617Y82421D01*
X56612Y82433D01*
X56599Y82464D01*
X56589Y82509D01*
X56585Y82555D01*
Y85555D01*
X56589Y85601D01*
X56599Y85647D01*
X56612Y85677D01*
X56617Y85690D01*
X56642Y85729D01*
X56672Y85765D01*
X57272Y86365D01*
X57307Y86395D01*
X57347Y86419D01*
X57359Y86424D01*
X57390Y86437D01*
X57435Y86448D01*
X57481Y86451D01*
X59881D01*
X59927Y86448D01*
D02*
G37*
G36*
X56140D02*
X56185Y86437D01*
X56216Y86424D01*
X56228Y86419D01*
X56268Y86395D01*
X56303Y86365D01*
X56333Y86329D01*
X56358Y86290D01*
X56363Y86277D01*
X56375Y86247D01*
X56386Y86201D01*
X56390Y86155D01*
X56386Y86109D01*
X56375Y86064D01*
X56363Y86033D01*
X56358Y86021D01*
X56333Y85981D01*
X56303Y85946D01*
X55790Y85432D01*
Y82678D01*
X56303Y82165D01*
X56333Y82129D01*
X56358Y82090D01*
X56363Y82077D01*
X56375Y82047D01*
X56386Y82001D01*
X56390Y81955D01*
X56386Y81909D01*
X56375Y81864D01*
X56363Y81833D01*
X56358Y81821D01*
X56333Y81781D01*
X56303Y81746D01*
X56268Y81716D01*
X56228Y81691D01*
X56216Y81686D01*
X56185Y81673D01*
X56140Y81663D01*
X56094Y81659D01*
X51894D01*
X51847Y81663D01*
X51802Y81673D01*
X51772Y81686D01*
X51759Y81691D01*
X51720Y81716D01*
X51684Y81746D01*
X51654Y81781D01*
X51630Y81821D01*
X51625Y81833D01*
X51612Y81864D01*
X51601Y81909D01*
X51597Y81955D01*
X51601Y82001D01*
X51612Y82047D01*
X51625Y82077D01*
X51630Y82090D01*
X51654Y82129D01*
X51684Y82165D01*
X52197Y82678D01*
Y85432D01*
X51684Y85946D01*
X51654Y85981D01*
X51630Y86021D01*
X51625Y86033D01*
X51612Y86064D01*
X51601Y86109D01*
X51597Y86155D01*
X51601Y86201D01*
X51612Y86247D01*
X51625Y86277D01*
X51630Y86290D01*
X51654Y86329D01*
X51684Y86365D01*
X51720Y86395D01*
X51759Y86419D01*
X51772Y86424D01*
X51802Y86437D01*
X51847Y86448D01*
X51894Y86451D01*
X56094D01*
X56140Y86448D01*
D02*
G37*
G36*
X50553D02*
X50598Y86437D01*
X50628Y86424D01*
X50641Y86419D01*
X50680Y86395D01*
X50716Y86365D01*
X51316Y85765D01*
X51346Y85729D01*
X51370Y85690D01*
X51375Y85677D01*
X51388Y85647D01*
X51399Y85601D01*
X51402Y85555D01*
Y82555D01*
X51399Y82509D01*
X51388Y82464D01*
X51375Y82433D01*
X51370Y82421D01*
X51346Y82381D01*
X51316Y82346D01*
X50716Y81746D01*
X50680Y81716D01*
X50641Y81691D01*
X50628Y81686D01*
X50598Y81673D01*
X50553Y81663D01*
X50506Y81659D01*
X48106D01*
X48060Y81663D01*
X48015Y81673D01*
X47972Y81691D01*
X47932Y81716D01*
X47897Y81746D01*
X47867Y81781D01*
X47842Y81821D01*
X47825Y81864D01*
X47814Y81909D01*
X47810Y81955D01*
Y86155D01*
X47814Y86201D01*
X47825Y86247D01*
X47842Y86290D01*
X47867Y86329D01*
X47897Y86365D01*
X47932Y86395D01*
X47972Y86419D01*
X48015Y86437D01*
X48060Y86448D01*
X48106Y86451D01*
X50506D01*
X50553Y86448D01*
D02*
G37*
D54*
X55849Y123622D02*
D03*
X49944D02*
D03*
D57*
X52661Y104440D02*
D03*
Y98731D02*
D03*
D58*
X76378Y57480D02*
D03*
X85003Y89570D02*
D03*
X87402Y94499D02*
D03*
X82174D02*
D03*
X80074Y89570D02*
D03*
X69574D02*
D03*
X62205Y123622D02*
D03*
X74803D02*
D03*
X51968Y111024D02*
D03*
X74774Y89570D02*
D03*
X68504Y123622D02*
D03*
X71653Y133071D02*
D03*
X81890Y55118D02*
D03*
D78*
X11811Y11811D02*
D03*
D79*
Y153543D02*
D03*
X122047D02*
D03*
D80*
X31496Y192913D02*
D03*
X39370D02*
D03*
X47244D02*
D03*
X55118D02*
D03*
X62992D02*
D03*
X70866D02*
D03*
X78740D02*
D03*
X86614D02*
D03*
X94488D02*
D03*
X102362Y173228D02*
D03*
X94488D02*
D03*
X86614D02*
D03*
X78740D02*
D03*
X70866D02*
D03*
X62992D02*
D03*
X55118D02*
D03*
X47244D02*
D03*
X39370D02*
D03*
X57087Y106299D02*
D03*
X61282Y80844D02*
D03*
D93*
X117913Y133425D02*
D03*
X102559D02*
D03*
X117913Y128425D02*
D03*
X102559D02*
D03*
X117913Y123425D02*
D03*
X102559D02*
D03*
X117913Y118425D02*
D03*
X102559D02*
D03*
X117913Y113425D02*
D03*
X102559D02*
D03*
X117913Y108425D02*
D03*
X102559D02*
D03*
X117913Y103425D02*
D03*
X102559D02*
D03*
X117913Y98425D02*
D03*
X102559D02*
D03*
X117913Y93425D02*
D03*
X102559D02*
D03*
X117913Y88425D02*
D03*
X102559D02*
D03*
X117913Y83425D02*
D03*
X102559D02*
D03*
X117913Y78425D02*
D03*
X102559D02*
D03*
X117913Y73425D02*
D03*
X102559D02*
D03*
X117913Y68425D02*
D03*
X102559D02*
D03*
X117913Y63425D02*
D03*
X102559D02*
D03*
X31299Y133425D02*
D03*
X15945D02*
D03*
X31299Y128425D02*
D03*
X15945D02*
D03*
X31299Y123425D02*
D03*
X15945D02*
D03*
X31299Y118425D02*
D03*
X15945D02*
D03*
X31299Y113425D02*
D03*
X15945D02*
D03*
X31299Y108425D02*
D03*
X15945D02*
D03*
X31299Y103425D02*
D03*
X15945D02*
D03*
X31299Y98425D02*
D03*
X15945D02*
D03*
X31299Y93425D02*
D03*
X15945D02*
D03*
X31299Y88425D02*
D03*
X15945D02*
D03*
X31299Y83425D02*
D03*
X15945D02*
D03*
X31299Y78425D02*
D03*
X15945D02*
D03*
X31299Y73425D02*
D03*
X15945D02*
D03*
X31299Y68425D02*
D03*
X15945D02*
D03*
X31299Y63425D02*
D03*
X15945D02*
D03*
D94*
X58906Y91936D02*
D03*
X52418D02*
D03*
X58381Y84055D02*
D03*
X49606D02*
D03*
X53994D02*
D03*
M02*
