G04*
G04 #@! TF.GenerationSoftware,Altium Limited,Altium Designer,21.0.8 (223)*
G04*
G04 Layer_Color=255*
%FSLAX25Y25*%
%MOIN*%
G70*
G04*
G04 #@! TF.SameCoordinates,33316FA8-22EC-4851-BF61-47935A3E7C20*
G04*
G04*
G04 #@! TF.FilePolarity,Positive*
G04*
G01*
G75*
%ADD18R,0.11000X0.02900*%
%ADD19R,0.09449X0.03937*%
%ADD20O,0.09449X0.03937*%
%ADD21R,0.08661X0.04134*%
%ADD22R,0.04134X0.03937*%
%ADD23R,0.02441X0.02441*%
%ADD24R,0.01968X0.03150*%
%ADD25R,0.03740X0.03937*%
%ADD26C,0.03937*%
G04:AMPARAMS|DCode=27|XSize=19.68mil|YSize=19.68mil|CornerRadius=2.46mil|HoleSize=0mil|Usage=FLASHONLY|Rotation=90.000|XOffset=0mil|YOffset=0mil|HoleType=Round|Shape=RoundedRectangle|*
%AMROUNDEDRECTD27*
21,1,0.01968,0.01476,0,0,90.0*
21,1,0.01476,0.01968,0,0,90.0*
1,1,0.00492,0.00738,0.00738*
1,1,0.00492,0.00738,-0.00738*
1,1,0.00492,-0.00738,-0.00738*
1,1,0.00492,-0.00738,0.00738*
%
%ADD27ROUNDEDRECTD27*%
%ADD28R,0.01968X0.01968*%
%ADD29R,0.06299X0.06299*%
%ADD30R,0.03937X0.03937*%
%ADD31R,0.03150X0.01968*%
%ADD32R,0.10827X0.06890*%
%ADD33R,0.01181X0.02559*%
%ADD34R,0.03543X0.03937*%
%ADD35R,0.06693X0.02165*%
%ADD36R,0.02441X0.02441*%
%ADD37R,0.03937X0.04134*%
%ADD38R,0.13780X0.03937*%
%ADD39R,0.13386X0.05906*%
%ADD40R,0.03937X0.03740*%
%ADD41R,0.03780X0.08740*%
%ADD42R,0.02362X0.03937*%
%ADD43R,0.03937X0.05906*%
%ADD44R,0.04409X0.03150*%
%ADD45R,0.05764X0.01480*%
G04:AMPARAMS|DCode=46|XSize=57.64mil|YSize=14.8mil|CornerRadius=7.4mil|HoleSize=0mil|Usage=FLASHONLY|Rotation=180.000|XOffset=0mil|YOffset=0mil|HoleType=Round|Shape=RoundedRectangle|*
%AMROUNDEDRECTD46*
21,1,0.05764,0.00000,0,0,180.0*
21,1,0.04284,0.01480,0,0,180.0*
1,1,0.01480,-0.02142,0.00000*
1,1,0.01480,0.02142,0.00000*
1,1,0.01480,0.02142,0.00000*
1,1,0.01480,-0.02142,0.00000*
%
%ADD46ROUNDEDRECTD46*%
%ADD47R,0.01000X0.01000*%
%ADD48R,0.02559X0.01575*%
%ADD49R,0.01575X0.02559*%
%ADD83C,0.17717*%
D18*
X27685Y37244D02*
D03*
X11685D02*
D03*
X27685Y42244D02*
D03*
X11685D02*
D03*
X27685Y47244D02*
D03*
X11685D02*
D03*
X27685Y52244D02*
D03*
X11685D02*
D03*
X27685Y57244D02*
D03*
X11685D02*
D03*
D19*
X127953Y119252D02*
D03*
D20*
Y109252D02*
D03*
D21*
X14023Y129977D02*
D03*
Y141591D02*
D03*
D22*
X20027Y135784D02*
D03*
X85316Y32733D02*
D03*
X79410D02*
D03*
X85316Y39634D02*
D03*
X79410D02*
D03*
X49573Y38326D02*
D03*
X55478D02*
D03*
X49573Y31425D02*
D03*
X55478D02*
D03*
X80905Y13386D02*
D03*
X86811D02*
D03*
X25050Y24079D02*
D03*
X30955D02*
D03*
X49573Y45228D02*
D03*
X55478D02*
D03*
D23*
X64314Y136984D02*
D03*
Y140606D02*
D03*
X50331Y140764D02*
D03*
Y137142D02*
D03*
D24*
X52756Y128543D02*
D03*
X49606D02*
D03*
X55905D02*
D03*
X59055D02*
D03*
X62205D02*
D03*
X65354D02*
D03*
X68504D02*
D03*
X71653D02*
D03*
X74803D02*
D03*
X77953D02*
D03*
X81102D02*
D03*
X84252D02*
D03*
Y84055D02*
D03*
X81102D02*
D03*
X77953D02*
D03*
X74803D02*
D03*
X71653D02*
D03*
X68504D02*
D03*
X65354D02*
D03*
X62205D02*
D03*
X59055D02*
D03*
X55905D02*
D03*
X52756D02*
D03*
X49606D02*
D03*
D25*
X18009Y112816D02*
D03*
X11113D02*
D03*
X115157Y53248D02*
D03*
Y58957D02*
D03*
X38974Y94216D02*
D03*
Y99924D02*
D03*
X70137Y48835D02*
D03*
Y54544D02*
D03*
X11113Y118524D02*
D03*
X18009D02*
D03*
X27100Y12296D02*
D03*
Y18004D02*
D03*
D26*
X24919Y123600D02*
D03*
Y118350D02*
D03*
D27*
X19760Y104958D02*
D03*
X16611D02*
D03*
X10311D02*
D03*
X19839Y95509D02*
D03*
X13461D02*
D03*
Y104958D02*
D03*
X16611Y95509D02*
D03*
X10311D02*
D03*
D28*
X31496Y149606D02*
D03*
D29*
X66929Y96457D02*
D03*
X76772Y116142D02*
D03*
Y106299D02*
D03*
Y96457D02*
D03*
X66929Y116142D02*
D03*
Y106299D02*
D03*
X57087Y116142D02*
D03*
X57097Y106299D02*
D03*
D30*
X57087Y96457D02*
D03*
D31*
X46457Y88976D02*
D03*
Y92126D02*
D03*
Y95276D02*
D03*
Y98425D02*
D03*
Y101575D02*
D03*
Y104724D02*
D03*
Y107874D02*
D03*
Y111024D02*
D03*
Y114173D02*
D03*
Y117323D02*
D03*
Y120472D02*
D03*
Y123622D02*
D03*
X87402D02*
D03*
Y120472D02*
D03*
Y117323D02*
D03*
Y114173D02*
D03*
Y111024D02*
D03*
Y107874D02*
D03*
Y104724D02*
D03*
Y101575D02*
D03*
Y98425D02*
D03*
Y95276D02*
D03*
Y92126D02*
D03*
Y88976D02*
D03*
D32*
X66263Y36764D02*
D03*
D33*
X71184Y31253D02*
D03*
X69216D02*
D03*
X67247D02*
D03*
X65279D02*
D03*
X63310D02*
D03*
X61342D02*
D03*
Y42276D02*
D03*
X63310D02*
D03*
X65279D02*
D03*
X67247D02*
D03*
X69216D02*
D03*
X71184D02*
D03*
D34*
X98819Y128740D02*
D03*
X114961Y135039D02*
D03*
X98819D02*
D03*
X114961Y128740D02*
D03*
D35*
X106888Y137500D02*
D03*
D36*
X31461Y135852D02*
D03*
X35083D02*
D03*
X31461Y140720D02*
D03*
X35083D02*
D03*
X55512Y140764D02*
D03*
X59134D02*
D03*
D37*
X11067Y83524D02*
D03*
X55478Y17291D02*
D03*
Y23197D02*
D03*
X63236Y54644D02*
D03*
Y48738D02*
D03*
X11067Y89429D02*
D03*
X70137Y75436D02*
D03*
Y69530D02*
D03*
X56335Y75436D02*
D03*
Y69530D02*
D03*
X63236Y75436D02*
D03*
Y69530D02*
D03*
X77038Y75436D02*
D03*
Y69530D02*
D03*
X49434Y75436D02*
D03*
Y69530D02*
D03*
X19004Y89429D02*
D03*
Y83524D02*
D03*
X121664Y129134D02*
D03*
Y135039D02*
D03*
D38*
X103347Y18701D02*
D03*
Y26575D02*
D03*
D39*
X125984Y9449D02*
D03*
Y35827D02*
D03*
D40*
X43560Y24079D02*
D03*
X37852D02*
D03*
D41*
X62894Y18669D02*
D03*
X72539D02*
D03*
D42*
X103390Y50394D02*
D03*
X99650Y59842D02*
D03*
X107131D02*
D03*
X84646Y50394D02*
D03*
X80905Y59842D02*
D03*
X88386D02*
D03*
D43*
X79134Y20816D02*
D03*
X87795D02*
D03*
D44*
X60433Y5906D02*
D03*
X73425D02*
D03*
D45*
X43466Y12409D02*
D03*
D46*
Y14968D02*
D03*
Y17527D02*
D03*
X37009D02*
D03*
Y14968D02*
D03*
Y12409D02*
D03*
D47*
X42732Y76216D02*
D03*
Y69729D02*
D03*
X83740Y76026D02*
D03*
Y69539D02*
D03*
D48*
X109252Y44579D02*
D03*
X103347D02*
D03*
D49*
X6890Y70866D02*
D03*
Y64961D02*
D03*
D83*
X11811Y11811D02*
D03*
M02*
