G04*
G04 #@! TF.GenerationSoftware,Altium Limited,Altium Designer,21.0.8 (223)*
G04*
G04 Layer_Color=16711935*
%FSLAX25Y25*%
%MOIN*%
G70*
G04*
G04 #@! TF.SameCoordinates,33316FA8-22EC-4851-BF61-47935A3E7C20*
G04*
G04*
G04 #@! TF.FilePolarity,Positive*
G04*
G01*
G75*
%ADD12C,0.00984*%
%ADD15C,0.01000*%
%ADD16C,0.00500*%
D12*
X0Y3937D02*
X134Y2918D01*
X527Y1969D01*
X1153Y1153D01*
X1969Y527D01*
X2918Y134D01*
X3937Y0D01*
X129921D02*
X130940Y134D01*
X131890Y527D01*
X132705Y1153D01*
X133331Y1969D01*
X133724Y2918D01*
X133858Y3937D01*
Y192913D02*
X133724Y193932D01*
X133331Y194882D01*
X132705Y195697D01*
X131890Y196323D01*
X130940Y196716D01*
X129921Y196850D01*
X5000D02*
X4025Y196754D01*
X3087Y196470D01*
X2222Y196008D01*
X1464Y195386D01*
X843Y194628D01*
X381Y193764D01*
X96Y192826D01*
X0Y191850D01*
X133858Y145669D02*
Y192913D01*
X0Y145669D02*
Y191850D01*
X532Y51181D02*
X134390Y51181D01*
X0Y3937D02*
Y191850D01*
X3937Y0D02*
X66929D01*
X133858Y3937D02*
Y192913D01*
X5000Y196850D02*
X129921D01*
X66929Y0D02*
X129921D01*
X0Y145669D02*
X133858Y145669D01*
D15*
X12935Y59744D02*
X26435D01*
X12935Y57244D02*
Y59744D01*
X9685Y57244D02*
X12935D01*
X9685Y37244D02*
Y57244D01*
Y37244D02*
X12935D01*
Y34744D02*
Y37244D01*
Y34744D02*
X26435D01*
Y37244D01*
X29685D01*
Y57244D01*
X26435D02*
X29685D01*
X26435D02*
Y59744D01*
D16*
X20435Y47768D02*
X18530D01*
X18173Y47887D01*
X18054Y48006D01*
X17935Y48244D01*
Y48482D01*
X18054Y48720D01*
X18173Y48839D01*
X18530Y48958D01*
X18768D01*
X19959Y47125D02*
X20078Y46887D01*
X20435Y46530D01*
X17935D01*
M02*
