G04*
G04 #@! TF.GenerationSoftware,Altium Limited,Altium Designer,21.0.8 (223)*
G04*
G04 Layer_Physical_Order=3*
G04 Layer_Color=128*
%FSLAX25Y25*%
%MOIN*%
G70*
G04*
G04 #@! TF.SameCoordinates,33316FA8-22EC-4851-BF61-47935A3E7C20*
G04*
G04*
G04 #@! TF.FilePolarity,Negative*
G04*
G01*
G75*
%ADD12C,0.00984*%
%ADD86C,0.04000*%
%ADD87C,0.10055*%
%ADD88C,0.02181*%
G36*
X0Y145669D02*
Y191850D01*
Y192343D01*
X192Y193309D01*
X569Y194219D01*
X1116Y195038D01*
X1813Y195734D01*
X2632Y196281D01*
X3542Y196658D01*
X4507Y196850D01*
X5000D01*
D01*
X129921D01*
X130309D01*
X131070Y196699D01*
X131786Y196402D01*
X132431Y195972D01*
X132979Y195423D01*
X133410Y194778D01*
X133707Y194062D01*
X133858Y193301D01*
Y192913D01*
D01*
Y145669D01*
X0Y145669D01*
D02*
G37*
D12*
X109774Y61270D02*
Y67596D01*
X109596Y61270D02*
X109774D01*
X103270Y67596D02*
X109774D01*
X93274Y61417D02*
Y67596D01*
X103270D01*
X93274D02*
Y133175D01*
X39779D02*
X93274D01*
X39779Y66823D02*
Y133175D01*
X39779Y10775D02*
Y66823D01*
X0Y145669D02*
X133858D01*
X70574Y10670D02*
X70874Y10970D01*
Y61417D01*
X93274D01*
X93174Y10570D02*
X93274Y10670D01*
Y61417D01*
X109596Y61270D02*
X133574D01*
X109774Y10670D02*
Y61270D01*
X20866Y10670D02*
X109774D01*
X20866D02*
Y66162D01*
X21174Y66470D01*
X-126D02*
X21174D01*
D86*
X5000Y196850D02*
X4025Y196754D01*
X3087Y196470D01*
X2222Y196008D01*
X1464Y195386D01*
X843Y194628D01*
X381Y193764D01*
X96Y192826D01*
X0Y191850D01*
X133858Y192913D02*
X133724Y193932D01*
X133331Y194882D01*
X132705Y195697D01*
X131890Y196323D01*
X130940Y196716D01*
X129921Y196850D01*
X129921Y0D02*
X130940Y134D01*
X131890Y527D01*
X132705Y1153D01*
X133331Y1969D01*
X133724Y2918D01*
X133858Y3937D01*
X0D02*
X134Y2918D01*
X527Y1969D01*
X1153Y1153D01*
X1969Y527D01*
X2918Y134D01*
X3937Y0D01*
X0Y3937D02*
Y191850D01*
X5000Y196850D02*
X129921D01*
X133858Y3937D02*
Y192913D01*
X3937Y0D02*
X129921D01*
D87*
X11811Y11811D02*
D03*
Y153543D02*
D03*
X122047D02*
D03*
D88*
X125985Y133858D02*
D03*
Y102362D02*
D03*
X129921Y94488D02*
D03*
X125985Y86614D02*
D03*
X129921Y78740D02*
D03*
Y47244D02*
D03*
X125985Y23622D02*
D03*
X129921Y15748D02*
D03*
X122047Y47244D02*
D03*
X118110Y23622D02*
D03*
X122047Y15748D02*
D03*
X110236Y70866D02*
D03*
X114173Y31496D02*
D03*
Y15748D02*
D03*
X110236Y7874D02*
D03*
X102362D02*
D03*
X86614Y133858D02*
D03*
X90551Y125984D02*
D03*
X82677Y110236D02*
D03*
X74803Y62992D02*
D03*
X66929D02*
D03*
X59055D02*
D03*
X55118Y55118D02*
D03*
X47244Y133858D02*
D03*
X51181Y62992D02*
D03*
X47244Y7874D02*
D03*
X39370D02*
D03*
X35433Y31496D02*
D03*
X31496Y7874D02*
D03*
X23622Y70866D02*
D03*
X27559Y31496D02*
D03*
X23622Y7874D02*
D03*
X19685Y47244D02*
D03*
Y31496D02*
D03*
X15748Y23622D02*
D03*
X7874Y133858D02*
D03*
Y23622D02*
D03*
X30700Y27500D02*
D03*
X13950Y136300D02*
D03*
X84200Y131850D02*
D03*
X28723Y144697D02*
D03*
X38525Y134621D02*
D03*
X38412Y137981D02*
D03*
X41774D02*
D03*
X45136D02*
D03*
X55179Y137319D02*
D03*
X58541D02*
D03*
X68520Y137868D02*
D03*
X71882Y137815D02*
D03*
X75058Y136713D02*
D03*
X77366Y134269D02*
D03*
X79747Y124818D02*
D03*
X83120Y134779D02*
D03*
X81601Y137779D02*
D03*
X79342Y140269D02*
D03*
X76526Y142105D02*
D03*
X73325Y143133D02*
D03*
X69969Y143345D02*
D03*
X66628Y143719D02*
D03*
X63282Y144050D02*
D03*
X59923Y144208D02*
D03*
X56561D02*
D03*
X53214Y143888D02*
D03*
X49867Y144208D02*
D03*
X46590Y143458D02*
D03*
X43228D02*
D03*
X39865D02*
D03*
X36567Y144112D02*
D03*
X40615Y125730D02*
D03*
X24919Y118350D02*
D03*
Y123450D02*
D03*
X7150Y112850D02*
D03*
X24919Y113370D02*
D03*
X59023Y131119D02*
D03*
X31496Y192913D02*
D03*
X39370D02*
D03*
X47244D02*
D03*
X55118D02*
D03*
X62992D02*
D03*
X70866D02*
D03*
X78740D02*
D03*
X86614D02*
D03*
X94488D02*
D03*
X102362Y173228D02*
D03*
X94488D02*
D03*
X86614D02*
D03*
X78740D02*
D03*
X70866D02*
D03*
X62992D02*
D03*
X55118D02*
D03*
X47244D02*
D03*
X39370D02*
D03*
X57087Y106299D02*
D03*
X76772Y96457D02*
D03*
Y106299D02*
D03*
Y116142D02*
D03*
X66929Y96457D02*
D03*
Y106299D02*
D03*
Y116142D02*
D03*
X57087D02*
D03*
Y96457D02*
D03*
X79324Y89820D02*
D03*
X61282Y80844D02*
D03*
X62263Y34764D02*
D03*
Y38764D02*
D03*
X70263D02*
D03*
Y34764D02*
D03*
X66263Y36764D02*
D03*
X96457Y83465D02*
D03*
X124803D02*
D03*
X110351Y132965D02*
D03*
X128740Y118898D02*
D03*
X125591Y109055D02*
D03*
X51968Y111024D02*
D03*
X53445Y93020D02*
D03*
X53874Y87970D02*
D03*
X20716Y141591D02*
D03*
X7330Y129977D02*
D03*
Y141591D02*
D03*
X94980Y128740D02*
D03*
X34646Y63386D02*
D03*
X31299Y63425D02*
D03*
X27559Y63386D02*
D03*
X55478Y13453D02*
D03*
X76378Y57480D02*
D03*
X105905Y128347D02*
D03*
X106299Y123228D02*
D03*
X106135Y118870D02*
D03*
X49544Y84055D02*
D03*
X37402Y40551D02*
D03*
X27685Y57244D02*
D03*
X7229Y83524D02*
D03*
X49434Y65692D02*
D03*
X27953Y52362D02*
D03*
X31102Y78347D02*
D03*
X22843Y83524D02*
D03*
X42913Y101575D02*
D03*
X38974Y90377D02*
D03*
X6890Y74705D02*
D03*
X23678Y95509D02*
D03*
X6473Y104958D02*
D03*
X11685Y33406D02*
D03*
X47305Y14968D02*
D03*
X88386Y63681D02*
D03*
X77038Y65692D02*
D03*
X70137D02*
D03*
X63236D02*
D03*
X56335D02*
D03*
X49573Y27587D02*
D03*
Y49066D02*
D03*
X45734Y45228D02*
D03*
Y38326D02*
D03*
Y31425D02*
D03*
X70137Y58382D02*
D03*
X63236Y58482D02*
D03*
X85316Y36189D02*
D03*
Y28894D02*
D03*
X77067Y13386D02*
D03*
X103347Y14862D02*
D03*
X113091Y44579D02*
D03*
X115157Y49213D02*
D03*
X49213Y104724D02*
D03*
X59449Y90945D02*
D03*
X70223Y48819D02*
D03*
X63236Y48738D02*
D03*
X86647Y83833D02*
D03*
X34074Y68570D02*
D03*
X106135Y113570D02*
D03*
X120374Y68270D02*
D03*
X120474Y73270D02*
D03*
X120574Y78470D02*
D03*
X116174Y88370D02*
D03*
X116074Y103470D02*
D03*
Y98570D02*
D03*
Y93270D02*
D03*
X74803Y123622D02*
D03*
X68504D02*
D03*
X71674Y133070D02*
D03*
X82724Y94499D02*
D03*
X80974Y81070D02*
D03*
X69574Y89570D02*
D03*
X74774D02*
D03*
X27685Y37244D02*
D03*
X31774Y88670D02*
D03*
X29074Y94070D02*
D03*
X26974Y98670D02*
D03*
X24674Y103470D02*
D03*
X62205Y123622D02*
D03*
X31299Y73425D02*
D03*
M02*
