G04*
G04 #@! TF.GenerationSoftware,Altium Limited,Altium Designer,21.0.8 (223)*
G04*
G04 Layer_Color=32896*
%FSLAX25Y25*%
%MOIN*%
G70*
G04*
G04 #@! TF.SameCoordinates,33316FA8-22EC-4851-BF61-47935A3E7C20*
G04*
G04*
G04 #@! TF.FilePolarity,Positive*
G04*
G01*
G75*
%ADD10C,0.00591*%
%ADD11C,0.00787*%
%ADD12C,0.00984*%
%ADD16C,0.00500*%
%ADD17C,0.00197*%
%ADD95C,0.00591*%
%ADD96C,0.00100*%
G36*
X32775Y14058D02*
X32891D01*
Y14028D01*
X32979D01*
Y13999D01*
X33096D01*
Y13970D01*
X33212D01*
Y13941D01*
X33300D01*
Y13912D01*
X33387D01*
Y13883D01*
X33504D01*
Y13853D01*
X33562D01*
Y13824D01*
X33679D01*
Y13795D01*
X33737D01*
Y13766D01*
X33825D01*
Y13737D01*
X33941D01*
Y13708D01*
X33970D01*
Y13679D01*
X34087D01*
Y13649D01*
X34116D01*
Y13620D01*
X34233D01*
Y13591D01*
X34291D01*
Y13562D01*
X34350D01*
Y13533D01*
X34437D01*
Y13503D01*
X34525D01*
Y13474D01*
X34554D01*
Y13445D01*
X34641D01*
Y13416D01*
X34699D01*
Y13387D01*
X34787D01*
Y13358D01*
X34845D01*
Y13329D01*
X34904D01*
Y13299D01*
X34962D01*
Y13270D01*
X35020D01*
Y13241D01*
X35078D01*
Y13212D01*
X35166D01*
Y13183D01*
X35224D01*
Y13154D01*
X35254D01*
Y13124D01*
X35341D01*
Y13095D01*
X35399D01*
Y13066D01*
X35458D01*
Y13037D01*
X35516D01*
Y13008D01*
X35574D01*
Y12979D01*
X35633D01*
Y12949D01*
X35662D01*
Y12920D01*
X35720D01*
Y12891D01*
X35807D01*
Y12862D01*
X35837D01*
Y12833D01*
X35895D01*
Y12804D01*
X35953D01*
Y12775D01*
X35982D01*
Y12745D01*
X36041D01*
Y12716D01*
X36099D01*
Y12687D01*
X36158D01*
Y12658D01*
X36187D01*
Y12629D01*
X36245D01*
Y12599D01*
X36303D01*
Y12570D01*
X36362D01*
Y12541D01*
X36391D01*
Y12512D01*
X36449D01*
Y12483D01*
X36507D01*
Y12454D01*
X36536D01*
Y12425D01*
X36595D01*
Y12395D01*
X36624D01*
Y12366D01*
X36682D01*
Y12337D01*
X36711D01*
Y12308D01*
X36770D01*
Y12279D01*
X36828D01*
Y12250D01*
X36857D01*
Y12220D01*
X36916D01*
Y12191D01*
X36945D01*
Y12162D01*
X37003D01*
Y12133D01*
X37032D01*
Y12104D01*
X37062D01*
Y12075D01*
X37120D01*
Y12045D01*
X37149D01*
Y12016D01*
X37207D01*
Y11987D01*
X37236D01*
Y11958D01*
X37295D01*
Y11929D01*
X37324D01*
Y11900D01*
X37382D01*
Y11870D01*
X37411D01*
Y11841D01*
X37440D01*
Y11812D01*
X37499D01*
Y11783D01*
X37528D01*
Y11754D01*
X37557D01*
Y11725D01*
X37615D01*
Y11695D01*
X37645D01*
Y11666D01*
X37674D01*
Y11637D01*
X37703D01*
Y11608D01*
X37761D01*
Y11579D01*
X37791D01*
Y11550D01*
X37820D01*
Y11521D01*
X37849D01*
Y11491D01*
X37907D01*
Y11462D01*
X37936D01*
Y11433D01*
X37965D01*
Y11404D01*
X37995D01*
Y11375D01*
X38053D01*
Y11346D01*
X38082D01*
Y11316D01*
X38111D01*
Y11287D01*
X38140D01*
Y11258D01*
X38170D01*
Y11229D01*
X38199D01*
Y11200D01*
X38257D01*
Y11171D01*
X38286D01*
Y11141D01*
X38315D01*
Y11112D01*
X38344D01*
Y11083D01*
X38374D01*
Y11054D01*
X38403D01*
Y11025D01*
X38432D01*
Y10996D01*
X38461D01*
Y10966D01*
X38490D01*
Y10937D01*
X38549D01*
Y10908D01*
X38578D01*
Y10879D01*
X38607D01*
Y10850D01*
X38636D01*
Y10821D01*
X38665D01*
Y10791D01*
X38695D01*
Y10762D01*
X38724D01*
Y10733D01*
X38753D01*
Y10704D01*
X38782D01*
Y10675D01*
X38811D01*
Y10646D01*
X38840D01*
Y10617D01*
X38869D01*
Y10587D01*
X38899D01*
Y10558D01*
X38928D01*
Y10529D01*
X38957D01*
Y10500D01*
X38986D01*
Y10471D01*
X39015D01*
Y10442D01*
X39044D01*
Y10412D01*
X39074D01*
Y10383D01*
X39103D01*
Y10354D01*
X39132D01*
Y10325D01*
X39161D01*
Y10296D01*
X39190D01*
Y10267D01*
Y10238D01*
X39248D01*
Y10208D01*
Y10179D01*
X39278D01*
Y10150D01*
X39307D01*
Y10121D01*
X39336D01*
Y10092D01*
X39365D01*
Y10063D01*
X39394D01*
Y10033D01*
X39423D01*
Y10004D01*
X39453D01*
Y9975D01*
X39482D01*
Y9946D01*
Y9917D01*
X39511D01*
Y9888D01*
X39540D01*
Y9858D01*
X39569D01*
Y9829D01*
X39598D01*
Y9800D01*
Y9771D01*
X39628D01*
Y9742D01*
X39686D01*
Y9713D01*
Y9683D01*
X39715D01*
Y9654D01*
X39744D01*
Y9625D01*
X39773D01*
Y9596D01*
Y9567D01*
X39803D01*
Y9538D01*
X39832D01*
Y9509D01*
X39861D01*
Y9479D01*
Y9450D01*
X39890D01*
Y9421D01*
X39919D01*
Y9392D01*
X39948D01*
Y9363D01*
Y9334D01*
X39977D01*
Y9304D01*
X40007D01*
Y9275D01*
X40036D01*
Y9246D01*
Y9217D01*
X40065D01*
Y9188D01*
X40094D01*
Y9159D01*
X40123D01*
Y9129D01*
Y9100D01*
X40152D01*
Y9071D01*
X40182D01*
Y9042D01*
Y9013D01*
X40211D01*
Y8984D01*
X40240D01*
Y8954D01*
Y8925D01*
X40269D01*
Y8896D01*
X40298D01*
Y8867D01*
Y8838D01*
X40327D01*
Y8809D01*
X40357D01*
Y8779D01*
Y8750D01*
X40386D01*
Y8721D01*
X40415D01*
Y8692D01*
Y8663D01*
X40444D01*
Y8634D01*
X40473D01*
Y8604D01*
Y8575D01*
Y8546D01*
X40502D01*
Y8517D01*
X40532D01*
Y8488D01*
Y8459D01*
X40561D01*
Y8429D01*
Y8400D01*
X40590D01*
Y8371D01*
X40619D01*
Y8342D01*
X40648D01*
Y8313D01*
Y8284D01*
Y8255D01*
Y8225D01*
Y8196D01*
X40619D01*
Y8167D01*
Y8138D01*
Y8109D01*
Y8080D01*
X40590D01*
Y8050D01*
Y8021D01*
X40561D01*
Y7992D01*
Y7963D01*
Y7934D01*
Y7905D01*
X40532D01*
Y7875D01*
Y7846D01*
Y7817D01*
X40502D01*
Y7788D01*
Y7759D01*
X40473D01*
Y7730D01*
Y7700D01*
Y7671D01*
Y7642D01*
X40444D01*
Y7613D01*
Y7584D01*
X40415D01*
Y7555D01*
Y7525D01*
X40386D01*
Y7496D01*
Y7467D01*
Y7438D01*
Y7409D01*
X40357D01*
Y7380D01*
Y7351D01*
X40327D01*
Y7321D01*
Y7292D01*
X40298D01*
Y7263D01*
Y7234D01*
X40269D01*
Y7205D01*
Y7176D01*
Y7146D01*
X40240D01*
Y7117D01*
Y7088D01*
X40211D01*
Y7059D01*
Y7030D01*
X40182D01*
Y7001D01*
Y6972D01*
Y6942D01*
X40152D01*
Y6913D01*
Y6884D01*
X40123D01*
Y6855D01*
Y6826D01*
X40094D01*
Y6797D01*
Y6767D01*
X40065D01*
Y6738D01*
Y6709D01*
X40036D01*
Y6680D01*
Y6651D01*
X40007D01*
Y6622D01*
Y6592D01*
X39977D01*
Y6563D01*
Y6534D01*
X39948D01*
Y6505D01*
Y6476D01*
X39919D01*
Y6447D01*
Y6417D01*
X39890D01*
Y6388D01*
X39861D01*
Y6359D01*
Y6330D01*
X39832D01*
Y6301D01*
Y6272D01*
X39803D01*
Y6242D01*
Y6213D01*
X39773D01*
Y6184D01*
Y6155D01*
X39744D01*
Y6126D01*
X39715D01*
Y6097D01*
Y6067D01*
X39686D01*
Y6038D01*
Y6009D01*
X39657D01*
Y5980D01*
Y5951D01*
X39628D01*
Y5922D01*
X39598D01*
Y5892D01*
Y5863D01*
X39569D01*
Y5834D01*
X39540D01*
Y5805D01*
Y5776D01*
Y5747D01*
X39511D01*
Y5718D01*
X39482D01*
Y5688D01*
X39453D01*
Y5659D01*
Y5630D01*
X39423D01*
Y5601D01*
X39394D01*
Y5572D01*
Y5543D01*
X39365D01*
Y5513D01*
Y5484D01*
X39336D01*
Y5455D01*
X39307D01*
Y5426D01*
Y5397D01*
X39278D01*
Y5368D01*
X39248D01*
Y5339D01*
Y5309D01*
X39219D01*
Y5280D01*
X39190D01*
Y5251D01*
X39161D01*
Y5222D01*
Y5193D01*
X39132D01*
Y5164D01*
X39103D01*
Y5134D01*
X39074D01*
Y5105D01*
Y5076D01*
X39044D01*
Y5047D01*
X39015D01*
Y5018D01*
Y4989D01*
X38986D01*
Y4959D01*
X38957D01*
Y4930D01*
Y4901D01*
X38928D01*
Y4872D01*
X38899D01*
Y4843D01*
X38869D01*
Y4814D01*
X38840D01*
Y4784D01*
Y4755D01*
X38811D01*
Y4726D01*
X38782D01*
Y4697D01*
X38753D01*
Y4668D01*
X38724D01*
Y4639D01*
Y4609D01*
X38695D01*
Y4580D01*
X38665D01*
Y4551D01*
X38636D01*
Y4522D01*
X38607D01*
Y4493D01*
Y4464D01*
X38578D01*
Y4434D01*
X38549D01*
Y4405D01*
X38519D01*
Y4376D01*
X38490D01*
Y4347D01*
Y4318D01*
X38461D01*
Y4289D01*
X38432D01*
Y4259D01*
X38403D01*
Y4230D01*
X38374D01*
Y4201D01*
X38344D01*
Y4172D01*
X38315D01*
Y4143D01*
X38286D01*
Y4114D01*
Y4085D01*
X38257D01*
Y4055D01*
X38228D01*
Y4026D01*
X38199D01*
Y3997D01*
X38170D01*
Y3968D01*
X38140D01*
Y3939D01*
X38111D01*
Y3910D01*
X38082D01*
Y3880D01*
X38053D01*
Y3851D01*
X38024D01*
Y3822D01*
X37995D01*
Y3793D01*
X37965D01*
Y3764D01*
X37936D01*
Y3735D01*
X37907D01*
Y3706D01*
Y3676D01*
X37849D01*
Y3647D01*
Y3618D01*
X37791D01*
Y3589D01*
X37761D01*
Y3560D01*
X37732D01*
Y3531D01*
X37703D01*
Y3501D01*
X37674D01*
Y3472D01*
X37645D01*
Y3443D01*
X37615D01*
Y3414D01*
X37586D01*
Y3385D01*
X37557D01*
Y3356D01*
X37528D01*
Y3326D01*
X37499D01*
Y3297D01*
X37470D01*
Y3268D01*
X37440D01*
Y3239D01*
X37382D01*
Y3210D01*
Y3181D01*
X37324D01*
Y3151D01*
X37295D01*
Y3122D01*
X37266D01*
Y3093D01*
X37236D01*
Y3064D01*
X37207D01*
Y3035D01*
X37149D01*
Y3006D01*
Y2977D01*
X37091D01*
Y2947D01*
X37062D01*
Y2918D01*
X37032D01*
Y2889D01*
X37003D01*
Y2860D01*
X36974D01*
Y2831D01*
X36916D01*
Y2802D01*
X36887D01*
Y2772D01*
X36857D01*
Y2743D01*
X36828D01*
Y2714D01*
X36770D01*
Y2685D01*
X36741D01*
Y2656D01*
X36711D01*
Y2627D01*
X36653D01*
Y2597D01*
X36624D01*
Y2568D01*
X36595D01*
Y2539D01*
X36536D01*
Y2510D01*
X36507D01*
Y2481D01*
X36478D01*
Y2452D01*
X36420D01*
Y2422D01*
X36391D01*
Y2393D01*
X36362D01*
Y2364D01*
X36303D01*
Y2335D01*
X36274D01*
Y2306D01*
X36216D01*
Y2277D01*
X36187D01*
Y2247D01*
X36128D01*
Y2218D01*
X36099D01*
Y2189D01*
X36070D01*
Y2160D01*
X36012D01*
Y2131D01*
X35982D01*
Y2102D01*
X35924D01*
Y2073D01*
X35866D01*
Y2043D01*
X35837D01*
Y2014D01*
X35807D01*
Y1985D01*
X35749D01*
Y1956D01*
X35691D01*
Y1927D01*
X35662D01*
Y1898D01*
X35603D01*
Y1868D01*
X35545D01*
Y1839D01*
X35516D01*
Y1810D01*
X35487D01*
Y1781D01*
X35399D01*
Y1752D01*
X35370D01*
Y1723D01*
X35312D01*
Y1693D01*
X35254D01*
Y1664D01*
X35224D01*
Y1635D01*
X35166D01*
Y1606D01*
X35108D01*
Y1577D01*
X35049D01*
Y1548D01*
X34991D01*
Y1518D01*
X34933D01*
Y1489D01*
X34904D01*
Y1460D01*
X33883D01*
Y1489D01*
X33941D01*
Y1518D01*
X34000D01*
Y1548D01*
X34029D01*
Y1577D01*
X34087D01*
Y1606D01*
X34145D01*
Y1635D01*
X34204D01*
Y1664D01*
X34233D01*
Y1693D01*
X34291D01*
Y1723D01*
X34350D01*
Y1752D01*
X34379D01*
Y1781D01*
X34437D01*
Y1810D01*
X34466D01*
Y1839D01*
X34525D01*
Y1868D01*
X34554D01*
Y1898D01*
X34612D01*
Y1927D01*
X34641D01*
Y1956D01*
X34699D01*
Y1985D01*
X34729D01*
Y2014D01*
X34787D01*
Y2043D01*
X34816D01*
Y2073D01*
X34845D01*
Y2102D01*
X34904D01*
Y2131D01*
X34933D01*
Y2160D01*
X34962D01*
Y2189D01*
X34991D01*
Y2218D01*
X35049D01*
Y2247D01*
X35078D01*
Y2277D01*
X35108D01*
Y2306D01*
X35137D01*
Y2335D01*
X35166D01*
Y2364D01*
X35224D01*
Y2393D01*
X35254D01*
Y2422D01*
X35283D01*
Y2452D01*
X35312D01*
Y2481D01*
X35341D01*
Y2510D01*
X35370D01*
Y2539D01*
X35399D01*
Y2568D01*
X35428D01*
Y2597D01*
X35458D01*
Y2627D01*
X35516D01*
Y2656D01*
Y2685D01*
X35574D01*
Y2714D01*
Y2743D01*
X35633D01*
Y2772D01*
Y2802D01*
X35662D01*
Y2831D01*
X35691D01*
Y2860D01*
X35720D01*
Y2889D01*
X35749D01*
Y2918D01*
X35778D01*
Y2947D01*
X35807D01*
Y2977D01*
X35837D01*
Y3006D01*
X35866D01*
Y3035D01*
X35895D01*
Y3064D01*
Y3093D01*
X35924D01*
Y3122D01*
X35953D01*
Y3151D01*
X35982D01*
Y3181D01*
X36012D01*
Y3210D01*
X36041D01*
Y3239D01*
Y3268D01*
X36070D01*
Y3297D01*
X36099D01*
Y3326D01*
X36128D01*
Y3356D01*
Y3385D01*
X36158D01*
Y3414D01*
X36187D01*
Y3443D01*
X36216D01*
Y3472D01*
Y3501D01*
X36245D01*
Y3531D01*
X36274D01*
Y3560D01*
Y3589D01*
X36303D01*
Y3618D01*
X36332D01*
Y3647D01*
Y3676D01*
X36362D01*
Y3706D01*
X36391D01*
Y3735D01*
Y3764D01*
X36420D01*
Y3793D01*
Y3822D01*
X36449D01*
Y3851D01*
X36478D01*
Y3880D01*
Y3910D01*
X36507D01*
Y3939D01*
Y3968D01*
X36536D01*
Y3997D01*
X36566D01*
Y4026D01*
Y4055D01*
X36595D01*
Y4085D01*
Y4114D01*
X36624D01*
Y4143D01*
Y4172D01*
X36653D01*
Y4201D01*
Y4230D01*
X36682D01*
Y4259D01*
Y4289D01*
X36711D01*
Y4318D01*
Y4347D01*
X36741D01*
Y4376D01*
Y4405D01*
Y4434D01*
X36770D01*
Y4464D01*
Y4493D01*
X36799D01*
Y4522D01*
Y4551D01*
X36828D01*
Y4580D01*
Y4609D01*
Y4639D01*
X36857D01*
Y4668D01*
Y4697D01*
X36887D01*
Y4726D01*
Y4755D01*
Y4784D01*
X36916D01*
Y4814D01*
Y4843D01*
X36945D01*
Y4872D01*
Y4901D01*
Y4930D01*
X36974D01*
Y4959D01*
Y4989D01*
Y5018D01*
Y5047D01*
X37003D01*
Y5076D01*
Y5105D01*
Y5134D01*
Y5164D01*
X37032D01*
Y5193D01*
Y5222D01*
Y5251D01*
X37062D01*
Y5280D01*
Y5309D01*
Y5339D01*
Y5368D01*
Y5397D01*
X37091D01*
Y5426D01*
Y5455D01*
Y5484D01*
Y5513D01*
X37120D01*
Y5543D01*
Y5572D01*
Y5601D01*
Y5630D01*
Y5659D01*
Y5688D01*
Y5718D01*
Y5747D01*
Y5776D01*
Y5805D01*
Y5834D01*
Y5863D01*
Y5892D01*
Y5922D01*
Y5951D01*
Y5980D01*
Y6009D01*
Y6038D01*
Y6067D01*
Y6097D01*
Y6126D01*
Y6155D01*
Y6184D01*
Y6213D01*
Y6242D01*
Y6272D01*
Y6301D01*
Y6330D01*
Y6359D01*
Y6388D01*
Y6417D01*
X37091D01*
Y6447D01*
Y6476D01*
Y6505D01*
Y6534D01*
Y6563D01*
Y6592D01*
X37062D01*
Y6622D01*
Y6651D01*
Y6680D01*
Y6709D01*
Y6738D01*
Y6767D01*
X37032D01*
Y6797D01*
Y6826D01*
Y6855D01*
Y6884D01*
X37003D01*
Y6913D01*
Y6942D01*
Y6972D01*
Y7001D01*
X36974D01*
Y7030D01*
Y7059D01*
Y7088D01*
Y7117D01*
X36945D01*
Y7146D01*
Y7176D01*
Y7205D01*
X36916D01*
Y7234D01*
Y7263D01*
Y7292D01*
Y7321D01*
X36887D01*
Y7351D01*
Y7380D01*
Y7409D01*
X36857D01*
Y7438D01*
Y7467D01*
X36828D01*
Y7496D01*
Y7525D01*
Y7555D01*
Y7584D01*
X36799D01*
Y7613D01*
Y7642D01*
X36770D01*
Y7671D01*
Y7700D01*
Y7730D01*
X36741D01*
Y7759D01*
Y7788D01*
X36711D01*
Y7817D01*
Y7846D01*
Y7875D01*
X36682D01*
Y7905D01*
Y7934D01*
X36653D01*
Y7963D01*
Y7992D01*
X36624D01*
Y8021D01*
Y8050D01*
X36595D01*
Y8080D01*
Y8109D01*
Y8138D01*
X36566D01*
Y8167D01*
Y8196D01*
X36536D01*
Y8225D01*
Y8255D01*
X36507D01*
Y8284D01*
Y8313D01*
X36478D01*
Y8342D01*
Y8371D01*
X36449D01*
Y8400D01*
Y8429D01*
X36420D01*
Y8459D01*
Y8488D01*
X36391D01*
Y8517D01*
Y8546D01*
X36362D01*
Y8575D01*
Y8604D01*
X36332D01*
Y8634D01*
Y8663D01*
X36303D01*
Y8692D01*
Y8721D01*
X36274D01*
Y8750D01*
Y8779D01*
X36245D01*
Y8809D01*
X36216D01*
Y8838D01*
Y8867D01*
X36187D01*
Y8896D01*
Y8925D01*
X36158D01*
Y8954D01*
X36128D01*
Y8984D01*
Y9013D01*
X36099D01*
Y9042D01*
Y9071D01*
X36070D01*
Y9100D01*
X36041D01*
Y9129D01*
Y9159D01*
X36012D01*
Y9188D01*
X35982D01*
Y9217D01*
X35195D01*
Y9188D01*
X34874D01*
Y9159D01*
X34612D01*
Y9129D01*
X34408D01*
Y9100D01*
X34174D01*
Y9071D01*
X34058D01*
Y9042D01*
X33854D01*
Y9013D01*
X33708D01*
Y8984D01*
X33562D01*
Y8954D01*
X33416D01*
Y8925D01*
X33270D01*
Y8896D01*
X33154D01*
Y8867D01*
X33037D01*
Y8896D01*
Y8925D01*
X33008D01*
Y8954D01*
Y8984D01*
X32979D01*
Y9013D01*
Y9042D01*
X32950D01*
Y9071D01*
Y9100D01*
X32921D01*
Y9129D01*
X32891D01*
Y9159D01*
Y9188D01*
X32862D01*
Y9217D01*
Y9246D01*
X32833D01*
Y9275D01*
X32804D01*
Y9304D01*
Y9334D01*
X32775D01*
Y9363D01*
X32746D01*
Y9392D01*
X32717D01*
Y9421D01*
Y9450D01*
X32687D01*
Y9479D01*
X32658D01*
Y9509D01*
X32629D01*
Y9538D01*
Y9567D01*
X32600D01*
Y9596D01*
X32571D01*
Y9625D01*
X32541D01*
Y9654D01*
X32512D01*
Y9683D01*
X32483D01*
Y9713D01*
X32454D01*
Y9742D01*
X32425D01*
Y9771D01*
X32396D01*
Y9800D01*
X32367D01*
Y9829D01*
X32308D01*
Y9858D01*
Y9888D01*
X32279D01*
Y9917D01*
X32221D01*
Y9946D01*
X32192D01*
Y9975D01*
X32162D01*
Y10004D01*
X32133D01*
Y10033D01*
X32075D01*
Y10063D01*
X32046D01*
Y10092D01*
X32017D01*
Y10121D01*
X31958D01*
Y10150D01*
X31900D01*
Y10121D01*
Y10092D01*
X31929D01*
Y10063D01*
Y10033D01*
X31958D01*
Y10004D01*
X31988D01*
Y9975D01*
X32017D01*
Y9946D01*
Y9917D01*
X32046D01*
Y9888D01*
X32075D01*
Y9858D01*
Y9829D01*
X32104D01*
Y9800D01*
X32133D01*
Y9771D01*
Y9742D01*
X32162D01*
Y9713D01*
Y9683D01*
X32192D01*
Y9654D01*
Y9625D01*
X32221D01*
Y9596D01*
Y9567D01*
X32250D01*
Y9538D01*
Y9509D01*
X32279D01*
Y9479D01*
Y9450D01*
X32308D01*
Y9421D01*
Y9392D01*
Y9363D01*
X32337D01*
Y9334D01*
Y9304D01*
X32367D01*
Y9275D01*
Y9246D01*
Y9217D01*
X32396D01*
Y9188D01*
Y9159D01*
Y9129D01*
X32425D01*
Y9100D01*
Y9071D01*
Y9042D01*
X32454D01*
Y9013D01*
Y8984D01*
Y8954D01*
Y8925D01*
Y8896D01*
X32483D01*
Y8867D01*
X32454D01*
Y8838D01*
X32425D01*
Y8809D01*
X32250D01*
Y8779D01*
X32104D01*
Y8750D01*
X32017D01*
Y8721D01*
X31871D01*
Y8692D01*
X31783D01*
Y8663D01*
X31667D01*
Y8634D01*
X31550D01*
Y8604D01*
X31463D01*
Y8575D01*
X31375D01*
Y8546D01*
X31258D01*
Y8517D01*
X31171D01*
Y8488D01*
X31084D01*
Y8459D01*
X30996D01*
Y8429D01*
X30909D01*
Y8400D01*
X30821D01*
Y8371D01*
X30734D01*
Y8342D01*
X30646D01*
Y8313D01*
X30559D01*
Y8284D01*
X30500D01*
Y8255D01*
X30413D01*
Y8225D01*
X30325D01*
Y8196D01*
X30267D01*
Y8167D01*
X30150D01*
Y8138D01*
X30092D01*
Y8109D01*
X30005D01*
Y8080D01*
X29917D01*
Y8050D01*
X29859D01*
Y8021D01*
X29800D01*
Y7992D01*
X29713D01*
Y7963D01*
X29655D01*
Y7934D01*
X29567D01*
Y7905D01*
X29509D01*
Y7875D01*
X29421D01*
Y7846D01*
X29334D01*
Y7817D01*
X29276D01*
Y7788D01*
X29217D01*
Y7759D01*
X29130D01*
Y7730D01*
X29071D01*
Y7700D01*
X28984D01*
Y7671D01*
X28926D01*
Y7642D01*
X28867D01*
Y7613D01*
X28780D01*
Y7584D01*
X28721D01*
Y7555D01*
X28634D01*
Y7525D01*
X28576D01*
Y7496D01*
X28517D01*
Y7467D01*
X28459D01*
Y7438D01*
X28401D01*
Y7409D01*
X28313D01*
Y7380D01*
X28255D01*
Y7351D01*
X28197D01*
Y7321D01*
X28109D01*
Y7292D01*
X28051D01*
Y7263D01*
X27992D01*
Y7234D01*
X27934D01*
Y7205D01*
X27876D01*
Y7176D01*
X27759D01*
Y7205D01*
X27730D01*
Y7234D01*
X27701D01*
Y7263D01*
X27672D01*
Y7292D01*
Y7321D01*
X27643D01*
Y7351D01*
Y7380D01*
X27613D01*
Y7409D01*
X27584D01*
Y7438D01*
Y7467D01*
X27555D01*
Y7496D01*
Y7525D01*
X27526D01*
Y7555D01*
Y7584D01*
X27497D01*
Y7613D01*
Y7642D01*
X27468D01*
Y7671D01*
Y7700D01*
Y7730D01*
X27438D01*
Y7759D01*
Y7788D01*
Y7817D01*
X27409D01*
Y7846D01*
Y7875D01*
Y7905D01*
Y7934D01*
X27380D01*
Y7963D01*
Y7992D01*
Y8021D01*
X27351D01*
Y8050D01*
Y8080D01*
Y8109D01*
X27322D01*
Y8138D01*
Y8167D01*
Y8196D01*
Y8225D01*
Y8255D01*
Y8284D01*
X27293D01*
Y8313D01*
Y8342D01*
Y8371D01*
Y8400D01*
Y8429D01*
Y8459D01*
X27263D01*
Y8488D01*
Y8517D01*
Y8546D01*
Y8575D01*
X27205D01*
Y8546D01*
Y8517D01*
Y8488D01*
Y8459D01*
Y8429D01*
X27176D01*
Y8400D01*
Y8371D01*
Y8342D01*
Y8313D01*
Y8284D01*
X27147D01*
Y8255D01*
Y8225D01*
Y8196D01*
Y8167D01*
Y8138D01*
Y8109D01*
Y8080D01*
Y8050D01*
Y8021D01*
Y7992D01*
Y7963D01*
Y7934D01*
Y7905D01*
Y7875D01*
X27118D01*
Y7846D01*
Y7817D01*
Y7788D01*
Y7759D01*
Y7730D01*
Y7700D01*
Y7671D01*
Y7642D01*
X27147D01*
Y7613D01*
Y7584D01*
Y7555D01*
Y7525D01*
Y7496D01*
Y7467D01*
Y7438D01*
Y7409D01*
Y7380D01*
Y7351D01*
Y7321D01*
X27176D01*
Y7292D01*
Y7263D01*
Y7234D01*
Y7205D01*
Y7176D01*
Y7146D01*
Y7117D01*
X27205D01*
Y7088D01*
Y7059D01*
Y7030D01*
Y7001D01*
Y6972D01*
X27234D01*
Y6942D01*
Y6913D01*
X27205D01*
Y6884D01*
X27176D01*
Y6855D01*
X27118D01*
Y6826D01*
X27059D01*
Y6797D01*
X27030D01*
Y6767D01*
X26972D01*
Y6738D01*
X26943D01*
Y6709D01*
X26884D01*
Y6680D01*
X26855D01*
Y6651D01*
X26797D01*
Y6622D01*
X26768D01*
Y6592D01*
X26709D01*
Y6563D01*
X26680D01*
Y6534D01*
X26622D01*
Y6505D01*
Y6476D01*
X26564D01*
Y6447D01*
X26534D01*
Y6417D01*
X26476D01*
Y6388D01*
X26447D01*
Y6359D01*
X26389D01*
Y6330D01*
X26360D01*
Y6301D01*
X26301D01*
Y6272D01*
X26272D01*
Y6242D01*
X26243D01*
Y6213D01*
X26184D01*
Y6184D01*
X26155D01*
Y6155D01*
X26126D01*
Y6126D01*
X26097D01*
Y6097D01*
X26039D01*
Y6067D01*
X26010D01*
Y6038D01*
X25980D01*
Y6009D01*
X25922D01*
Y5980D01*
X25893D01*
Y5951D01*
X25835D01*
Y5922D01*
X25805D01*
Y5892D01*
X25776D01*
Y5863D01*
X25747D01*
Y5834D01*
X25689D01*
Y5805D01*
X25660D01*
Y5776D01*
X25630D01*
Y5747D01*
X25601D01*
Y5718D01*
X25543D01*
Y5688D01*
X25514D01*
Y5659D01*
X25485D01*
Y5630D01*
X25426D01*
Y5601D01*
X25397D01*
Y5572D01*
X25368D01*
Y5543D01*
X25310D01*
Y5513D01*
X25280D01*
Y5484D01*
X25251D01*
Y5455D01*
X25222D01*
Y5426D01*
X25193D01*
Y5397D01*
X25135D01*
Y5368D01*
X25106D01*
Y5339D01*
X25076D01*
Y5309D01*
Y5280D01*
Y5251D01*
Y5222D01*
Y5193D01*
Y5164D01*
X25047D01*
Y5134D01*
Y5105D01*
Y5076D01*
Y5047D01*
Y5018D01*
Y4989D01*
Y4959D01*
Y4930D01*
Y4901D01*
X25018D01*
Y4872D01*
Y4843D01*
Y4814D01*
Y4784D01*
Y4755D01*
Y4726D01*
X24989D01*
Y4697D01*
Y4668D01*
Y4639D01*
Y4609D01*
Y4580D01*
Y4551D01*
Y4522D01*
Y4493D01*
Y4464D01*
Y4434D01*
Y4405D01*
Y4376D01*
Y4347D01*
X25018D01*
Y4318D01*
Y4289D01*
Y4259D01*
Y4230D01*
Y4201D01*
X25047D01*
Y4172D01*
Y4143D01*
Y4114D01*
Y4085D01*
Y4055D01*
Y4026D01*
X25076D01*
Y3997D01*
Y3968D01*
Y3939D01*
Y3910D01*
X25106D01*
Y3880D01*
Y3851D01*
Y3822D01*
Y3793D01*
Y3764D01*
Y3735D01*
X25135D01*
Y3706D01*
Y3676D01*
Y3647D01*
Y3618D01*
X25164D01*
Y3589D01*
Y3560D01*
Y3531D01*
Y3501D01*
X25193D01*
Y3472D01*
Y3443D01*
Y3414D01*
Y3385D01*
X25222D01*
Y3356D01*
Y3326D01*
Y3297D01*
X25251D01*
Y3268D01*
Y3239D01*
Y3210D01*
X25280D01*
Y3181D01*
Y3151D01*
Y3122D01*
X25310D01*
Y3093D01*
Y3064D01*
X25339D01*
Y3035D01*
Y3006D01*
Y2977D01*
X25368D01*
Y2947D01*
Y2918D01*
X25397D01*
Y2889D01*
Y2860D01*
X25426D01*
Y2831D01*
Y2802D01*
Y2772D01*
X25455D01*
Y2743D01*
Y2714D01*
X25485D01*
Y2685D01*
Y2656D01*
X25514D01*
Y2627D01*
Y2597D01*
X25543D01*
Y2568D01*
X25572D01*
Y2539D01*
Y2510D01*
X25601D01*
Y2481D01*
Y2452D01*
X25630D01*
Y2422D01*
Y2393D01*
X25660D01*
Y2364D01*
X25689D01*
Y2335D01*
Y2306D01*
X25718D01*
Y2277D01*
X25747D01*
Y2247D01*
Y2218D01*
X25776D01*
Y2189D01*
Y2160D01*
X25805D01*
Y2131D01*
X25835D01*
Y2102D01*
X25864D01*
Y2073D01*
X25893D01*
Y2043D01*
X25922D01*
Y2014D01*
Y1985D01*
X25951D01*
Y1956D01*
X25980D01*
Y1927D01*
X26010D01*
Y1898D01*
X26039D01*
Y1868D01*
X26068D01*
Y1839D01*
X26097D01*
Y1810D01*
X26126D01*
Y1781D01*
X26155D01*
Y1752D01*
X26184D01*
Y1723D01*
X26214D01*
Y1693D01*
X26243D01*
Y1664D01*
X26301D01*
Y1635D01*
X26330D01*
Y1606D01*
X26360D01*
Y1577D01*
X26389D01*
Y1548D01*
X26447D01*
Y1518D01*
X26476D01*
Y1489D01*
X26534D01*
Y1460D01*
X22248D01*
Y1489D01*
X22189D01*
Y1518D01*
X22131D01*
Y1548D01*
X22073D01*
Y1577D01*
X22044D01*
Y1606D01*
X21985D01*
Y1635D01*
X21927D01*
Y1664D01*
X21869D01*
Y1693D01*
X21839D01*
Y1723D01*
X21781D01*
Y1752D01*
X21723D01*
Y1781D01*
X21694D01*
Y1810D01*
X21635D01*
Y1839D01*
X21606D01*
Y1868D01*
X21548D01*
Y1898D01*
X21490D01*
Y1927D01*
X21461D01*
Y1956D01*
X21402D01*
Y1985D01*
X21373D01*
Y2014D01*
X21315D01*
Y2043D01*
X21285D01*
Y2073D01*
X21256D01*
Y2102D01*
X21198D01*
Y2131D01*
X21169D01*
Y2160D01*
X21111D01*
Y2189D01*
X21081D01*
Y2218D01*
X21023D01*
Y2247D01*
X20994D01*
Y2277D01*
X20936D01*
Y2306D01*
X20906D01*
Y2335D01*
X20848D01*
Y2364D01*
X20819D01*
Y2393D01*
X20790D01*
Y2422D01*
X20761D01*
Y2452D01*
X20702D01*
Y2481D01*
X20673D01*
Y2510D01*
X20644D01*
Y2539D01*
X20586D01*
Y2568D01*
X20557D01*
Y2597D01*
X20527D01*
Y2627D01*
X20469D01*
Y2656D01*
X20440D01*
Y2685D01*
X20411D01*
Y2714D01*
X20381D01*
Y2743D01*
X20323D01*
Y2772D01*
X20294D01*
Y2802D01*
X20265D01*
Y2831D01*
X20236D01*
Y2860D01*
Y2889D01*
Y2918D01*
Y2947D01*
X20265D01*
Y2977D01*
Y3006D01*
Y3035D01*
Y3064D01*
Y3093D01*
Y3122D01*
X20294D01*
Y3151D01*
Y3181D01*
Y3210D01*
Y3239D01*
Y3268D01*
X20323D01*
Y3297D01*
Y3326D01*
Y3356D01*
Y3385D01*
Y3414D01*
Y3443D01*
X20352D01*
Y3472D01*
Y3501D01*
Y3531D01*
Y3560D01*
Y3589D01*
X20381D01*
Y3618D01*
Y3647D01*
Y3676D01*
Y3706D01*
X20411D01*
Y3735D01*
Y3764D01*
Y3793D01*
Y3822D01*
Y3851D01*
Y3880D01*
Y3910D01*
X20440D01*
Y3939D01*
Y3968D01*
X20469D01*
Y3997D01*
Y4026D01*
Y4055D01*
Y4085D01*
Y4114D01*
Y4143D01*
X20498D01*
Y4172D01*
Y4201D01*
Y4230D01*
Y4259D01*
X20527D01*
Y4289D01*
Y4318D01*
Y4347D01*
X20557D01*
Y4376D01*
Y4405D01*
Y4434D01*
Y4464D01*
Y4493D01*
X20586D01*
Y4522D01*
Y4551D01*
X20615D01*
Y4580D01*
Y4609D01*
Y4639D01*
Y4668D01*
Y4697D01*
X20644D01*
Y4726D01*
Y4755D01*
Y4784D01*
Y4814D01*
Y4843D01*
X20673D01*
Y4872D01*
Y4901D01*
X20702D01*
Y4930D01*
Y4959D01*
Y4989D01*
Y5018D01*
X20731D01*
Y5047D01*
Y5076D01*
Y5105D01*
Y5134D01*
X20761D01*
Y5164D01*
Y5193D01*
Y5222D01*
X20790D01*
Y5251D01*
Y5280D01*
Y5309D01*
Y5339D01*
X20819D01*
Y5368D01*
Y5397D01*
X20848D01*
Y5426D01*
Y5455D01*
Y5484D01*
Y5513D01*
X20877D01*
Y5543D01*
Y5572D01*
Y5601D01*
Y5630D01*
X20906D01*
Y5659D01*
Y5688D01*
X20936D01*
Y5718D01*
Y5747D01*
Y5776D01*
Y5805D01*
X20965D01*
Y5834D01*
Y5863D01*
X20994D01*
Y5892D01*
Y5922D01*
Y5951D01*
X21023D01*
Y5980D01*
Y6009D01*
Y6038D01*
Y6067D01*
X21052D01*
Y6097D01*
X21081D01*
Y6126D01*
Y6155D01*
Y6184D01*
X21111D01*
Y6213D01*
Y6242D01*
Y6272D01*
Y6301D01*
X21140D01*
Y6330D01*
X21169D01*
Y6359D01*
Y6388D01*
Y6417D01*
Y6447D01*
X21198D01*
Y6476D01*
Y6505D01*
Y6534D01*
X21227D01*
Y6563D01*
Y6592D01*
X21256D01*
Y6622D01*
Y6651D01*
Y6680D01*
X21285D01*
Y6709D01*
Y6738D01*
X21315D01*
Y6767D01*
Y6797D01*
Y6826D01*
X21344D01*
Y6855D01*
Y6884D01*
X21373D01*
Y6913D01*
Y6942D01*
X21402D01*
Y6972D01*
Y7001D01*
Y7030D01*
X21431D01*
Y7059D01*
Y7088D01*
X21461D01*
Y7117D01*
Y7146D01*
Y7176D01*
X21490D01*
Y7205D01*
Y7234D01*
X21519D01*
Y7263D01*
Y7292D01*
X21548D01*
Y7321D01*
Y7351D01*
X21577D01*
Y7380D01*
Y7409D01*
Y7438D01*
X21606D01*
Y7467D01*
Y7496D01*
X21635D01*
Y7525D01*
Y7555D01*
X21665D01*
Y7584D01*
Y7613D01*
X21694D01*
Y7642D01*
Y7671D01*
X21723D01*
Y7700D01*
Y7730D01*
Y7759D01*
X21752D01*
Y7788D01*
X21781D01*
Y7817D01*
Y7846D01*
Y7875D01*
X21810D01*
Y7905D01*
Y7934D01*
X21839D01*
Y7963D01*
X21869D01*
Y7992D01*
Y8021D01*
Y8050D01*
X21898D01*
Y8080D01*
X21927D01*
Y8109D01*
Y8138D01*
Y8167D01*
X21956D01*
Y8196D01*
Y8225D01*
X21985D01*
Y8255D01*
X22015D01*
Y8284D01*
Y8313D01*
X22044D01*
Y8342D01*
Y8371D01*
X22073D01*
Y8400D01*
Y8429D01*
X22102D01*
Y8459D01*
Y8488D01*
X22131D01*
Y8517D01*
X22160D01*
Y8546D01*
Y8575D01*
X22189D01*
Y8604D01*
Y8634D01*
X22219D01*
Y8663D01*
Y8692D01*
X22248D01*
Y8721D01*
Y8750D01*
X22277D01*
Y8779D01*
Y8809D01*
X22306D01*
Y8838D01*
X22335D01*
Y8867D01*
Y8896D01*
X22364D01*
Y8925D01*
X22394D01*
Y8954D01*
Y8984D01*
X22423D01*
Y9013D01*
Y9042D01*
X22452D01*
Y9071D01*
Y9100D01*
X22481D01*
Y9129D01*
X22510D01*
Y9159D01*
Y9188D01*
X22539D01*
Y9217D01*
X22569D01*
Y9246D01*
Y9275D01*
X22598D01*
Y9304D01*
X22627D01*
Y9334D01*
Y9363D01*
X22656D01*
Y9392D01*
Y9421D01*
X22685D01*
Y9450D01*
X22714D01*
Y9479D01*
Y9509D01*
X22743D01*
Y9538D01*
X22773D01*
Y9567D01*
X22802D01*
Y9596D01*
Y9625D01*
X22831D01*
Y9654D01*
X22860D01*
Y9683D01*
Y9713D01*
X22889D01*
Y9742D01*
X22919D01*
Y9771D01*
Y9800D01*
X22948D01*
Y9829D01*
X22977D01*
Y9858D01*
Y9888D01*
X23006D01*
Y9917D01*
X23035D01*
Y9946D01*
X23064D01*
Y9975D01*
Y10004D01*
X23094D01*
Y10033D01*
X23123D01*
Y10063D01*
X23152D01*
Y10092D01*
Y10121D01*
X23181D01*
Y10150D01*
X23210D01*
Y10179D01*
Y10208D01*
X23268D01*
Y10238D01*
Y10267D01*
X23298D01*
Y10296D01*
X23327D01*
Y10325D01*
X23356D01*
Y10354D01*
Y10383D01*
X23385D01*
Y10412D01*
X23414D01*
Y10442D01*
X23443D01*
Y10471D01*
X23472D01*
Y10500D01*
X23502D01*
Y10529D01*
Y10558D01*
X23531D01*
Y10587D01*
X23560D01*
Y10617D01*
X23589D01*
Y10646D01*
X23618D01*
Y10675D01*
Y10704D01*
X23648D01*
Y10733D01*
X23677D01*
Y10762D01*
X23706D01*
Y10791D01*
X23735D01*
Y10821D01*
X23764D01*
Y10850D01*
X23793D01*
Y10879D01*
X23822D01*
Y10908D01*
X23852D01*
Y10937D01*
X23881D01*
Y10966D01*
Y10996D01*
X23910D01*
Y11025D01*
X23939D01*
Y11054D01*
X23968D01*
Y11083D01*
X23997D01*
Y11112D01*
X24027D01*
Y11141D01*
X24056D01*
Y11171D01*
X24085D01*
Y11200D01*
X24114D01*
Y11229D01*
X24143D01*
Y11258D01*
X24172D01*
Y11287D01*
X24202D01*
Y11316D01*
X24231D01*
Y11346D01*
X24260D01*
Y11375D01*
X24289D01*
Y11404D01*
X24318D01*
Y11433D01*
X24347D01*
Y11462D01*
X24376D01*
Y11491D01*
X24406D01*
Y11521D01*
X24435D01*
Y11550D01*
X24493D01*
Y11579D01*
X24522D01*
Y11608D01*
X24552D01*
Y11637D01*
X24581D01*
Y11666D01*
X24610D01*
Y11695D01*
X24639D01*
Y11725D01*
X24668D01*
Y11754D01*
X24697D01*
Y11783D01*
X24756D01*
Y11812D01*
X24785D01*
Y11841D01*
X24814D01*
Y11870D01*
X24843D01*
Y11900D01*
X24872D01*
Y11929D01*
X24901D01*
Y11958D01*
X24960D01*
Y11987D01*
X24989D01*
Y12016D01*
X25018D01*
Y12045D01*
X25076D01*
Y12075D01*
X25164D01*
Y12104D01*
X25251D01*
Y12133D01*
X25543D01*
Y12162D01*
X26797D01*
Y12133D01*
X27351D01*
Y12162D01*
X27380D01*
Y12191D01*
X27351D01*
Y12220D01*
X27322D01*
Y12250D01*
X27293D01*
Y12279D01*
X27263D01*
Y12308D01*
X27234D01*
Y12337D01*
Y12366D01*
X27176D01*
Y12395D01*
Y12425D01*
X27147D01*
Y12454D01*
X27118D01*
Y12483D01*
X27088D01*
Y12512D01*
X27059D01*
Y12541D01*
X27030D01*
Y12570D01*
Y12599D01*
X27001D01*
Y12629D01*
X26972D01*
Y12658D01*
Y12687D01*
X26943D01*
Y12716D01*
X26913D01*
Y12745D01*
Y12775D01*
X26884D01*
Y12804D01*
X26855D01*
Y12833D01*
Y12862D01*
X26826D01*
Y12891D01*
Y12920D01*
X26797D01*
Y12949D01*
Y12979D01*
X26768D01*
Y13008D01*
Y13037D01*
X26739D01*
Y13066D01*
Y13095D01*
X26709D01*
Y13124D01*
Y13154D01*
Y13183D01*
X26680D01*
Y13212D01*
Y13241D01*
X26651D01*
Y13270D01*
Y13299D01*
Y13329D01*
X26622D01*
Y13358D01*
Y13387D01*
Y13416D01*
X26593D01*
Y13445D01*
Y13474D01*
Y13503D01*
Y13533D01*
X26564D01*
Y13562D01*
Y13591D01*
Y13620D01*
Y13649D01*
Y13679D01*
Y13708D01*
X26593D01*
Y13679D01*
Y13649D01*
Y13620D01*
X26622D01*
Y13591D01*
Y13562D01*
Y13533D01*
X26651D01*
Y13503D01*
Y13474D01*
X26680D01*
Y13445D01*
Y13416D01*
X26709D01*
Y13387D01*
Y13358D01*
X26739D01*
Y13329D01*
Y13299D01*
Y13270D01*
X26768D01*
Y13241D01*
X26797D01*
Y13212D01*
Y13183D01*
X26826D01*
Y13154D01*
Y13124D01*
X26855D01*
Y13095D01*
Y13066D01*
X26884D01*
Y13037D01*
Y13008D01*
X26913D01*
Y12979D01*
X26943D01*
Y12949D01*
Y12920D01*
X26972D01*
Y12891D01*
Y12862D01*
X27001D01*
Y12833D01*
X27030D01*
Y12804D01*
Y12775D01*
X27059D01*
Y12745D01*
X27088D01*
Y12716D01*
Y12687D01*
X27118D01*
Y12658D01*
X27147D01*
Y12629D01*
Y12599D01*
X27176D01*
Y12570D01*
X27205D01*
Y12541D01*
X27234D01*
Y12512D01*
X27263D01*
Y12483D01*
X27293D01*
Y12454D01*
Y12425D01*
X27322D01*
Y12395D01*
X27351D01*
Y12366D01*
X27380D01*
Y12337D01*
X27409D01*
Y12308D01*
X27438D01*
Y12279D01*
X27468D01*
Y12250D01*
X27526D01*
Y12279D01*
Y12308D01*
Y12337D01*
Y12366D01*
Y12395D01*
Y12425D01*
Y12454D01*
X27497D01*
Y12483D01*
Y12512D01*
Y12541D01*
Y12570D01*
Y12599D01*
Y12629D01*
Y12658D01*
Y12687D01*
Y12716D01*
X27468D01*
Y12745D01*
Y12775D01*
Y12804D01*
Y12833D01*
Y12862D01*
Y12891D01*
Y12920D01*
Y12949D01*
Y12979D01*
Y13008D01*
Y13037D01*
Y13066D01*
X27438D01*
Y13095D01*
Y13124D01*
Y13154D01*
Y13183D01*
Y13212D01*
Y13241D01*
Y13270D01*
Y13299D01*
Y13329D01*
Y13358D01*
Y13387D01*
Y13416D01*
Y13445D01*
Y13474D01*
Y13503D01*
Y13533D01*
Y13562D01*
Y13591D01*
Y13620D01*
X27468D01*
Y13649D01*
Y13679D01*
Y13708D01*
Y13737D01*
Y13766D01*
Y13795D01*
Y13824D01*
Y13853D01*
Y13883D01*
X27497D01*
Y13912D01*
Y13941D01*
Y13970D01*
Y13999D01*
Y14028D01*
Y14058D01*
Y14087D01*
X27613D01*
Y14058D01*
Y14028D01*
Y13999D01*
Y13970D01*
Y13941D01*
Y13912D01*
X27584D01*
Y13883D01*
Y13853D01*
Y13824D01*
Y13795D01*
Y13766D01*
Y13737D01*
Y13708D01*
Y13679D01*
Y13649D01*
Y13620D01*
Y13591D01*
Y13562D01*
Y13533D01*
Y13503D01*
Y13474D01*
Y13445D01*
Y13416D01*
Y13387D01*
Y13358D01*
Y13329D01*
Y13299D01*
Y13270D01*
Y13241D01*
Y13212D01*
Y13183D01*
Y13154D01*
Y13124D01*
Y13095D01*
Y13066D01*
Y13037D01*
Y13008D01*
Y12979D01*
Y12949D01*
Y12920D01*
Y12891D01*
Y12862D01*
X27613D01*
Y12833D01*
Y12804D01*
Y12775D01*
Y12745D01*
Y12716D01*
Y12687D01*
Y12658D01*
Y12629D01*
Y12599D01*
Y12570D01*
Y12541D01*
Y12512D01*
Y12483D01*
Y12454D01*
Y12425D01*
X27643D01*
Y12395D01*
Y12366D01*
X27672D01*
Y12337D01*
X27701D01*
Y12366D01*
X27730D01*
Y12395D01*
X27759D01*
Y12425D01*
Y12454D01*
X27788D01*
Y12483D01*
X27817D01*
Y12512D01*
Y12541D01*
X27847D01*
Y12570D01*
Y12599D01*
X27876D01*
Y12629D01*
Y12658D01*
X27905D01*
Y12687D01*
X27934D01*
Y12716D01*
Y12745D01*
X27963D01*
Y12775D01*
Y12804D01*
X27992D01*
Y12833D01*
X28022D01*
Y12862D01*
Y12891D01*
X28051D01*
Y12920D01*
X28080D01*
Y12949D01*
X28109D01*
Y12979D01*
Y13008D01*
X28138D01*
Y13037D01*
X28167D01*
Y13066D01*
Y13095D01*
X28197D01*
Y13124D01*
X28226D01*
Y13154D01*
Y13183D01*
X28255D01*
Y13212D01*
X28284D01*
Y13241D01*
X28313D01*
Y13270D01*
X28342D01*
Y13299D01*
Y13329D01*
X28372D01*
Y13358D01*
X28401D01*
Y13387D01*
X28430D01*
Y13416D01*
X28459D01*
Y13445D01*
X28488D01*
Y13474D01*
Y13503D01*
X28517D01*
Y13533D01*
X28547D01*
Y13562D01*
X28576D01*
Y13591D01*
X28634D01*
Y13620D01*
Y13649D01*
X28663D01*
Y13679D01*
X28692D01*
Y13708D01*
X28721D01*
Y13737D01*
X28780D01*
Y13766D01*
X28809D01*
Y13795D01*
X28838D01*
Y13824D01*
X28867D01*
Y13853D01*
X28926D01*
Y13883D01*
X28955D01*
Y13912D01*
X29013D01*
Y13941D01*
X29042D01*
Y13970D01*
X29101D01*
Y13999D01*
X29159D01*
Y14028D01*
X29217D01*
Y14058D01*
X29305D01*
Y14087D01*
X32775D01*
Y14058D01*
D02*
G37*
G36*
X34408Y8604D02*
X34525D01*
Y8575D01*
X34641D01*
Y8546D01*
X34729D01*
Y8517D01*
X34787D01*
Y8488D01*
X34874D01*
Y8459D01*
X34933D01*
Y8429D01*
X34962D01*
Y8400D01*
X35020D01*
Y8371D01*
X35049D01*
Y8342D01*
X35108D01*
Y8313D01*
X35137D01*
Y8284D01*
X35166D01*
Y8255D01*
X35224D01*
Y8225D01*
X35254D01*
Y8196D01*
X35283D01*
Y8167D01*
X35312D01*
Y8138D01*
X35341D01*
Y8109D01*
X35370D01*
Y8080D01*
X35399D01*
Y8050D01*
Y8021D01*
X35428D01*
Y7992D01*
X35458D01*
Y7963D01*
X35487D01*
Y7934D01*
Y7905D01*
X35516D01*
Y7875D01*
Y7846D01*
X35545D01*
Y7817D01*
X35574D01*
Y7788D01*
Y7759D01*
X35603D01*
Y7730D01*
Y7700D01*
X35633D01*
Y7671D01*
Y7642D01*
Y7613D01*
X35662D01*
Y7584D01*
Y7555D01*
Y7525D01*
Y7496D01*
X35691D01*
Y7467D01*
Y7438D01*
Y7409D01*
Y7380D01*
X35720D01*
Y7351D01*
Y7321D01*
Y7292D01*
Y7263D01*
Y7234D01*
Y7205D01*
Y7176D01*
Y7146D01*
Y7117D01*
Y7088D01*
Y7059D01*
Y7030D01*
Y7001D01*
Y6972D01*
Y6942D01*
Y6913D01*
Y6884D01*
Y6855D01*
X35691D01*
Y6826D01*
Y6797D01*
X35662D01*
Y6767D01*
X35603D01*
Y6738D01*
X35574D01*
Y6709D01*
X35516D01*
Y6680D01*
X35487D01*
Y6651D01*
X35428D01*
Y6622D01*
X35370D01*
Y6592D01*
X35341D01*
Y6563D01*
X35283D01*
Y6534D01*
X35224D01*
Y6505D01*
X35166D01*
Y6476D01*
X35108D01*
Y6447D01*
X35049D01*
Y6417D01*
X34991D01*
Y6388D01*
X34933D01*
Y6359D01*
X34845D01*
Y6330D01*
X34787D01*
Y6301D01*
X34699D01*
Y6272D01*
X34612D01*
Y6242D01*
X34554D01*
Y6213D01*
X34466D01*
Y6184D01*
X34350D01*
Y6155D01*
X34262D01*
Y6126D01*
X34174D01*
Y6097D01*
X34029D01*
Y6067D01*
X33912D01*
Y6038D01*
X33737D01*
Y6009D01*
X33562D01*
Y5980D01*
X33329D01*
Y5951D01*
X33212D01*
Y5980D01*
X33125D01*
Y6009D01*
X33066D01*
Y6038D01*
X33037D01*
Y6067D01*
X33008D01*
Y6097D01*
Y6126D01*
X32979D01*
Y6155D01*
X32950D01*
Y6184D01*
Y6213D01*
X32921D01*
Y6242D01*
Y6272D01*
Y6301D01*
X32891D01*
Y6330D01*
Y6359D01*
X32862D01*
Y6388D01*
Y6417D01*
Y6447D01*
X32833D01*
Y6476D01*
Y6505D01*
Y6534D01*
Y6563D01*
X32804D01*
Y6592D01*
Y6622D01*
Y6651D01*
Y6680D01*
Y6709D01*
X32775D01*
Y6738D01*
Y6767D01*
Y6797D01*
Y6826D01*
Y6855D01*
Y6884D01*
Y6913D01*
Y6942D01*
Y6972D01*
Y7001D01*
Y7030D01*
X32746D01*
Y7059D01*
Y7088D01*
X32775D01*
Y7117D01*
Y7146D01*
Y7176D01*
Y7205D01*
Y7234D01*
Y7263D01*
Y7292D01*
Y7321D01*
Y7351D01*
X32804D01*
Y7380D01*
Y7409D01*
Y7438D01*
Y7467D01*
Y7496D01*
X32833D01*
Y7525D01*
Y7555D01*
Y7584D01*
Y7613D01*
Y7642D01*
X32862D01*
Y7671D01*
X32891D01*
Y7700D01*
Y7730D01*
Y7759D01*
X32921D01*
Y7788D01*
Y7817D01*
X32950D01*
Y7846D01*
Y7875D01*
X32979D01*
Y7905D01*
Y7934D01*
X33008D01*
Y7963D01*
Y7992D01*
X33037D01*
Y8021D01*
X33066D01*
Y8050D01*
X33096D01*
Y8080D01*
X33125D01*
Y8109D01*
Y8138D01*
X33154D01*
Y8167D01*
X33183D01*
Y8196D01*
X33241D01*
Y8225D01*
X33270D01*
Y8255D01*
X33300D01*
Y8284D01*
X33329D01*
Y8313D01*
X33358D01*
Y8342D01*
X33416D01*
Y8371D01*
X33475D01*
Y8400D01*
X33504D01*
Y8429D01*
X33562D01*
Y8459D01*
X33621D01*
Y8488D01*
X33679D01*
Y8517D01*
X33737D01*
Y8546D01*
X33825D01*
Y8575D01*
X33970D01*
Y8604D01*
X34116D01*
Y8634D01*
X34408D01*
Y8604D01*
D02*
G37*
G36*
X32717Y5018D02*
X32746D01*
Y4989D01*
Y4959D01*
Y4930D01*
Y4901D01*
Y4872D01*
Y4843D01*
Y4814D01*
Y4784D01*
X32717D01*
Y4755D01*
Y4726D01*
Y4697D01*
X32687D01*
Y4668D01*
Y4639D01*
X32658D01*
Y4609D01*
X32629D01*
Y4580D01*
Y4551D01*
X32600D01*
Y4522D01*
X32541D01*
Y4493D01*
X32512D01*
Y4464D01*
X32454D01*
Y4434D01*
X32367D01*
Y4405D01*
X32279D01*
Y4434D01*
X32308D01*
Y4464D01*
X32337D01*
Y4493D01*
X32367D01*
Y4522D01*
X32396D01*
Y4551D01*
X32425D01*
Y4580D01*
X32454D01*
Y4609D01*
X32483D01*
Y4639D01*
Y4668D01*
X32512D01*
Y4697D01*
X32541D01*
Y4726D01*
Y4755D01*
X32571D01*
Y4784D01*
X32600D01*
Y4814D01*
Y4843D01*
Y4872D01*
X32629D01*
Y4901D01*
Y4930D01*
Y4959D01*
X32658D01*
Y4989D01*
Y5018D01*
X32687D01*
Y5047D01*
X32717D01*
Y5018D01*
D02*
G37*
G36*
X28576Y6651D02*
X28751D01*
Y6622D01*
X28838D01*
Y6592D01*
X28926D01*
Y6563D01*
X28984D01*
Y6534D01*
X29042D01*
Y6505D01*
X29130D01*
Y6476D01*
X29159D01*
Y6447D01*
X29217D01*
Y6417D01*
X29276D01*
Y6388D01*
X29305D01*
Y6359D01*
X29334D01*
Y6330D01*
X29363D01*
Y6301D01*
X29421D01*
Y6272D01*
X29451D01*
Y6242D01*
X29480D01*
Y6213D01*
X29509D01*
Y6184D01*
X29538D01*
Y6155D01*
X29567D01*
Y6126D01*
Y6097D01*
X29596D01*
Y6067D01*
X29625D01*
Y6038D01*
X29655D01*
Y6009D01*
X29684D01*
Y5980D01*
Y5951D01*
X29713D01*
Y5922D01*
X29742D01*
Y5892D01*
Y5863D01*
X29771D01*
Y5834D01*
X29800D01*
Y5805D01*
Y5776D01*
X29830D01*
Y5747D01*
Y5718D01*
X29859D01*
Y5688D01*
X29888D01*
Y5659D01*
Y5630D01*
X29917D01*
Y5601D01*
Y5572D01*
Y5543D01*
X29946D01*
Y5513D01*
Y5484D01*
X29975D01*
Y5455D01*
Y5426D01*
Y5397D01*
X30005D01*
Y5368D01*
Y5339D01*
Y5309D01*
X30034D01*
Y5280D01*
Y5251D01*
Y5222D01*
Y5193D01*
X30063D01*
Y5164D01*
Y5134D01*
Y5105D01*
Y5076D01*
X30034D01*
Y5047D01*
Y5018D01*
X30005D01*
Y4989D01*
X29975D01*
Y4959D01*
X29946D01*
Y4930D01*
X29917D01*
Y4901D01*
X29888D01*
Y4872D01*
X29859D01*
Y4843D01*
X29800D01*
Y4814D01*
X29771D01*
Y4784D01*
X29713D01*
Y4755D01*
X29684D01*
Y4726D01*
X29625D01*
Y4697D01*
X29596D01*
Y4668D01*
X29538D01*
Y4639D01*
X29480D01*
Y4609D01*
X29421D01*
Y4580D01*
X29392D01*
Y4551D01*
X29334D01*
Y4522D01*
X29276D01*
Y4493D01*
X29217D01*
Y4464D01*
X29130D01*
Y4434D01*
X29071D01*
Y4405D01*
X29013D01*
Y4376D01*
X28926D01*
Y4347D01*
X28867D01*
Y4318D01*
X28780D01*
Y4289D01*
X28692D01*
Y4259D01*
X28605D01*
Y4230D01*
X28488D01*
Y4201D01*
X28401D01*
Y4172D01*
X28255D01*
Y4143D01*
X28109D01*
Y4114D01*
X27905D01*
Y4085D01*
X27643D01*
Y4055D01*
X27263D01*
Y4085D01*
X27205D01*
Y4114D01*
X27176D01*
Y4143D01*
X27147D01*
Y4172D01*
X27118D01*
Y4201D01*
X27088D01*
Y4230D01*
X27059D01*
Y4259D01*
X27030D01*
Y4289D01*
Y4318D01*
X27001D01*
Y4347D01*
Y4376D01*
X26972D01*
Y4405D01*
Y4434D01*
X26943D01*
Y4464D01*
X26913D01*
Y4493D01*
Y4522D01*
X26884D01*
Y4551D01*
Y4580D01*
Y4609D01*
X26855D01*
Y4639D01*
Y4668D01*
Y4697D01*
X26826D01*
Y4726D01*
Y4755D01*
Y4784D01*
Y4814D01*
Y4843D01*
X26797D01*
Y4872D01*
Y4901D01*
Y4930D01*
Y4959D01*
Y4989D01*
Y5018D01*
Y5047D01*
Y5076D01*
Y5105D01*
Y5134D01*
Y5164D01*
X26768D01*
Y5193D01*
Y5222D01*
X26797D01*
Y5251D01*
Y5280D01*
Y5309D01*
Y5339D01*
Y5368D01*
Y5397D01*
Y5426D01*
Y5455D01*
Y5484D01*
Y5513D01*
X26826D01*
Y5543D01*
Y5572D01*
Y5601D01*
Y5630D01*
Y5659D01*
X26855D01*
Y5688D01*
Y5718D01*
X26884D01*
Y5747D01*
Y5776D01*
Y5805D01*
X26913D01*
Y5834D01*
Y5863D01*
X26943D01*
Y5892D01*
Y5922D01*
X26972D01*
Y5951D01*
Y5980D01*
X27001D01*
Y6009D01*
X27030D01*
Y6038D01*
Y6067D01*
X27059D01*
Y6097D01*
X27088D01*
Y6126D01*
X27118D01*
Y6155D01*
X27147D01*
Y6184D01*
X27176D01*
Y6213D01*
X27205D01*
Y6242D01*
X27234D01*
Y6272D01*
X27263D01*
Y6301D01*
X27293D01*
Y6330D01*
X27351D01*
Y6359D01*
X27380D01*
Y6388D01*
X27438D01*
Y6417D01*
X27468D01*
Y6447D01*
X27526D01*
Y6476D01*
X27584D01*
Y6505D01*
X27643D01*
Y6534D01*
X27701D01*
Y6563D01*
X27759D01*
Y6592D01*
X27847D01*
Y6622D01*
X27963D01*
Y6651D01*
X28109D01*
Y6680D01*
X28576D01*
Y6651D01*
D02*
G37*
G36*
X33446Y3822D02*
Y3793D01*
Y3764D01*
Y3735D01*
X33416D01*
Y3706D01*
Y3676D01*
X33387D01*
Y3647D01*
Y3618D01*
X33358D01*
Y3589D01*
Y3560D01*
X33329D01*
Y3531D01*
X33300D01*
Y3501D01*
X33270D01*
Y3472D01*
Y3443D01*
X33241D01*
Y3414D01*
X33212D01*
Y3385D01*
X33183D01*
Y3356D01*
X33154D01*
Y3326D01*
X33125D01*
Y3297D01*
X33096D01*
Y3268D01*
X33037D01*
Y3239D01*
X33008D01*
Y3210D01*
X32979D01*
Y3181D01*
X32921D01*
Y3151D01*
X32891D01*
Y3122D01*
X32833D01*
Y3093D01*
X32775D01*
Y3064D01*
X32717D01*
Y3035D01*
X32658D01*
Y3006D01*
X32600D01*
Y2977D01*
X32541D01*
Y2947D01*
X32454D01*
Y2918D01*
X32367D01*
Y2889D01*
X32308D01*
Y2860D01*
X32192D01*
Y2831D01*
X32075D01*
Y2802D01*
X31958D01*
Y2772D01*
X31813D01*
Y2743D01*
X31608D01*
Y2714D01*
X30967D01*
Y2743D01*
X30792D01*
Y2772D01*
X30675D01*
Y2802D01*
X30588D01*
Y2831D01*
X30500D01*
Y2860D01*
X30442D01*
Y2889D01*
X30384D01*
Y2918D01*
X30267D01*
Y2889D01*
Y2860D01*
X30238D01*
Y2831D01*
X30209D01*
Y2802D01*
X30180D01*
Y2831D01*
X30150D01*
Y2860D01*
Y2889D01*
Y2918D01*
Y2947D01*
Y2977D01*
Y3006D01*
X30180D01*
Y3035D01*
Y3064D01*
X30209D01*
Y3093D01*
X30267D01*
Y3122D01*
X30296D01*
Y3151D01*
X30442D01*
Y3122D01*
Y3093D01*
X30413D01*
Y3064D01*
Y3035D01*
X30442D01*
Y3006D01*
X30471D01*
Y2977D01*
X30559D01*
Y2947D01*
X30617D01*
Y2918D01*
X30704D01*
Y2889D01*
X30821D01*
Y2860D01*
X30996D01*
Y2831D01*
X31608D01*
Y2860D01*
X31813D01*
Y2889D01*
X31929D01*
Y2918D01*
X32046D01*
Y2947D01*
X32162D01*
Y2977D01*
X32221D01*
Y3006D01*
X32308D01*
Y3035D01*
X32396D01*
Y3064D01*
X32483D01*
Y3093D01*
X32541D01*
Y3122D01*
X32600D01*
Y3151D01*
X32658D01*
Y3181D01*
X32717D01*
Y3210D01*
X32775D01*
Y3239D01*
X32804D01*
Y3268D01*
X32862D01*
Y3297D01*
X32921D01*
Y3326D01*
X32950D01*
Y3356D01*
X32979D01*
Y3385D01*
X33037D01*
Y3414D01*
X33066D01*
Y3443D01*
X33096D01*
Y3472D01*
X33125D01*
Y3501D01*
X33154D01*
Y3531D01*
X33183D01*
Y3560D01*
X33212D01*
Y3589D01*
X33241D01*
Y3618D01*
X33270D01*
Y3647D01*
X33300D01*
Y3676D01*
X33329D01*
Y3706D01*
Y3735D01*
X33358D01*
Y3764D01*
X33387D01*
Y3793D01*
Y3822D01*
X33416D01*
Y3851D01*
X33446D01*
Y3822D01*
D02*
G37*
G36*
X32629Y2364D02*
Y2335D01*
X32600D01*
Y2306D01*
X32571D01*
Y2277D01*
X32541D01*
Y2247D01*
X32512D01*
Y2218D01*
X32483D01*
Y2189D01*
X32425D01*
Y2160D01*
X32337D01*
Y2131D01*
X32162D01*
Y2160D01*
X32104D01*
Y2189D01*
X32046D01*
Y2218D01*
X32017D01*
Y2247D01*
X32250D01*
Y2277D01*
X32396D01*
Y2306D01*
X32454D01*
Y2335D01*
X32541D01*
Y2364D01*
X32600D01*
Y2393D01*
X32629D01*
Y2364D01*
D02*
G37*
%LPC*%
G36*
X33066Y7730D02*
X33037D01*
Y7700D01*
Y7671D01*
Y7642D01*
X33066D01*
Y7671D01*
Y7700D01*
Y7730D01*
D02*
G37*
G36*
X32979Y7496D02*
X32950D01*
Y7467D01*
Y7438D01*
Y7409D01*
X32979D01*
Y7438D01*
Y7467D01*
Y7496D01*
D02*
G37*
G36*
X34320Y7788D02*
X34233D01*
Y7759D01*
X34145D01*
Y7730D01*
X34087D01*
Y7700D01*
X34058D01*
Y7671D01*
Y7642D01*
Y7613D01*
X34029D01*
Y7584D01*
Y7555D01*
Y7525D01*
Y7496D01*
Y7467D01*
X34058D01*
Y7438D01*
Y7409D01*
X34087D01*
Y7380D01*
X34116D01*
Y7351D01*
X34145D01*
Y7321D01*
X34233D01*
Y7292D01*
X34291D01*
Y7321D01*
X34379D01*
Y7351D01*
X34408D01*
Y7380D01*
X34437D01*
Y7409D01*
X34466D01*
Y7438D01*
X34495D01*
Y7467D01*
X34525D01*
Y7496D01*
Y7525D01*
Y7555D01*
Y7584D01*
X34495D01*
Y7613D01*
Y7642D01*
X34466D01*
Y7671D01*
Y7700D01*
X34437D01*
Y7730D01*
X34379D01*
Y7759D01*
X34320D01*
Y7788D01*
D02*
G37*
G36*
X34379Y8488D02*
X34145D01*
Y8459D01*
X34000D01*
Y8429D01*
X33883D01*
Y8400D01*
X33795D01*
Y8371D01*
X33708D01*
Y8342D01*
X33650D01*
Y8313D01*
X33591D01*
Y8284D01*
X33562D01*
Y8255D01*
X33504D01*
Y8225D01*
X33446D01*
Y8196D01*
X33416D01*
Y8167D01*
X33387D01*
Y8138D01*
X33358D01*
Y8109D01*
X33329D01*
Y8080D01*
X33300D01*
Y8050D01*
X33270D01*
Y8021D01*
X33241D01*
Y7992D01*
X33212D01*
Y7963D01*
X33183D01*
Y7934D01*
X33154D01*
Y7905D01*
Y7875D01*
X33125D01*
Y7846D01*
X33096D01*
Y7817D01*
Y7788D01*
X33066D01*
Y7759D01*
Y7730D01*
X33096D01*
Y7759D01*
X33125D01*
Y7788D01*
X33154D01*
Y7817D01*
X33183D01*
Y7846D01*
Y7875D01*
X33212D01*
Y7905D01*
X33241D01*
Y7934D01*
X33270D01*
Y7963D01*
X33300D01*
Y7992D01*
X33358D01*
Y8021D01*
X33387D01*
Y8050D01*
X33416D01*
Y8080D01*
X33475D01*
Y8109D01*
X33533D01*
Y8138D01*
X33562D01*
Y8167D01*
X33621D01*
Y8196D01*
X33708D01*
Y8225D01*
X33795D01*
Y8255D01*
X34029D01*
Y8284D01*
X34174D01*
Y8255D01*
X34350D01*
Y8225D01*
X34466D01*
Y8196D01*
X34554D01*
Y8167D01*
X34612D01*
Y8138D01*
X34670D01*
Y8109D01*
X34729D01*
Y8080D01*
X34758D01*
Y8050D01*
X34787D01*
Y8021D01*
X34845D01*
Y7992D01*
X34874D01*
Y7963D01*
X34904D01*
Y7934D01*
X34933D01*
Y7905D01*
X34962D01*
Y7875D01*
X34991D01*
Y7846D01*
Y7817D01*
X35020D01*
Y7788D01*
X35049D01*
Y7759D01*
X35078D01*
Y7730D01*
Y7700D01*
X35108D01*
Y7671D01*
Y7642D01*
X35137D01*
Y7613D01*
Y7584D01*
X35166D01*
Y7555D01*
Y7525D01*
Y7496D01*
X35195D01*
Y7467D01*
Y7438D01*
Y7409D01*
X35224D01*
Y7380D01*
Y7351D01*
Y7321D01*
Y7292D01*
Y7263D01*
Y7234D01*
Y7205D01*
Y7176D01*
Y7146D01*
Y7117D01*
Y7088D01*
Y7059D01*
Y7030D01*
Y7001D01*
Y6972D01*
Y6942D01*
Y6913D01*
X35195D01*
Y6884D01*
Y6855D01*
Y6826D01*
X35166D01*
Y6797D01*
Y6767D01*
X35137D01*
Y6738D01*
Y6709D01*
Y6680D01*
X35108D01*
Y6651D01*
Y6622D01*
X35195D01*
Y6651D01*
X35254D01*
Y6680D01*
X35283D01*
Y6709D01*
X35341D01*
Y6738D01*
X35399D01*
Y6767D01*
X35458D01*
Y6797D01*
X35487D01*
Y6826D01*
X35545D01*
Y6855D01*
X35574D01*
Y6884D01*
Y6913D01*
X35603D01*
Y6942D01*
Y6972D01*
Y7001D01*
Y7030D01*
Y7059D01*
Y7088D01*
Y7117D01*
Y7146D01*
Y7176D01*
Y7205D01*
Y7234D01*
Y7263D01*
Y7292D01*
Y7321D01*
Y7351D01*
X35574D01*
Y7380D01*
Y7409D01*
Y7438D01*
Y7467D01*
Y7496D01*
X35545D01*
Y7525D01*
Y7555D01*
Y7584D01*
X35516D01*
Y7613D01*
Y7642D01*
Y7671D01*
X35487D01*
Y7700D01*
Y7730D01*
X35458D01*
Y7759D01*
X35428D01*
Y7788D01*
Y7817D01*
X35399D01*
Y7846D01*
Y7875D01*
X35370D01*
Y7905D01*
X35341D01*
Y7934D01*
X35312D01*
Y7963D01*
X35283D01*
Y7992D01*
X35254D01*
Y8021D01*
X35224D01*
Y8050D01*
X35195D01*
Y8080D01*
X35166D01*
Y8109D01*
X35137D01*
Y8138D01*
X35108D01*
Y8167D01*
X35078D01*
Y8196D01*
X35020D01*
Y8225D01*
X34991D01*
Y8255D01*
X34933D01*
Y8284D01*
X34904D01*
Y8313D01*
X34845D01*
Y8342D01*
X34787D01*
Y8371D01*
X34729D01*
Y8400D01*
X34641D01*
Y8429D01*
X34525D01*
Y8459D01*
X34379D01*
Y8488D01*
D02*
G37*
G36*
X32921Y7351D02*
X32891D01*
Y7321D01*
Y7292D01*
Y7263D01*
Y7234D01*
Y7205D01*
Y7176D01*
Y7146D01*
Y7117D01*
X32862D01*
Y7088D01*
Y7059D01*
Y7030D01*
Y7001D01*
Y6972D01*
Y6942D01*
Y6913D01*
Y6884D01*
Y6855D01*
Y6826D01*
Y6797D01*
X32891D01*
Y6767D01*
Y6738D01*
Y6709D01*
Y6680D01*
Y6651D01*
Y6622D01*
Y6592D01*
X32921D01*
Y6563D01*
Y6534D01*
Y6505D01*
Y6476D01*
X32950D01*
Y6447D01*
Y6417D01*
Y6388D01*
X32979D01*
Y6359D01*
Y6330D01*
Y6301D01*
X33008D01*
Y6272D01*
Y6242D01*
X33037D01*
Y6213D01*
X33066D01*
Y6184D01*
X33096D01*
Y6155D01*
Y6126D01*
X33154D01*
Y6097D01*
X33183D01*
Y6067D01*
X33358D01*
Y6097D01*
X33562D01*
Y6126D01*
Y6155D01*
X33533D01*
Y6184D01*
X33475D01*
Y6213D01*
X33446D01*
Y6242D01*
X33387D01*
Y6272D01*
X33358D01*
Y6301D01*
X33329D01*
Y6330D01*
X33300D01*
Y6359D01*
X33241D01*
Y6388D01*
X33212D01*
Y6417D01*
Y6447D01*
X33183D01*
Y6476D01*
X33154D01*
Y6505D01*
X33125D01*
Y6534D01*
Y6563D01*
X33096D01*
Y6592D01*
X33066D01*
Y6622D01*
Y6651D01*
X33037D01*
Y6680D01*
Y6709D01*
X33008D01*
Y6738D01*
Y6767D01*
Y6797D01*
X32979D01*
Y6826D01*
Y6855D01*
Y6884D01*
X32950D01*
Y6913D01*
Y6942D01*
Y6972D01*
Y7001D01*
Y7030D01*
Y7059D01*
Y7088D01*
X32921D01*
Y7117D01*
Y7146D01*
Y7176D01*
Y7205D01*
Y7234D01*
Y7263D01*
Y7292D01*
Y7321D01*
Y7351D01*
D02*
G37*
G36*
X28605Y5922D02*
X28576D01*
Y5892D01*
X28488D01*
Y5863D01*
X28430D01*
Y5834D01*
X28401D01*
Y5805D01*
X28372D01*
Y5776D01*
Y5747D01*
Y5718D01*
X28342D01*
Y5688D01*
Y5659D01*
Y5630D01*
Y5601D01*
X28372D01*
Y5572D01*
Y5543D01*
Y5513D01*
X28401D01*
Y5484D01*
X28430D01*
Y5455D01*
X28488D01*
Y5426D01*
X28692D01*
Y5455D01*
X28751D01*
Y5484D01*
X28780D01*
Y5513D01*
X28809D01*
Y5543D01*
X28838D01*
Y5572D01*
Y5601D01*
Y5630D01*
Y5659D01*
Y5688D01*
Y5718D01*
Y5747D01*
X28809D01*
Y5776D01*
Y5805D01*
X28780D01*
Y5834D01*
X28751D01*
Y5863D01*
X28663D01*
Y5892D01*
X28605D01*
Y5922D01*
D02*
G37*
G36*
X28634Y6534D02*
X28138D01*
Y6505D01*
X28022D01*
Y6476D01*
X27905D01*
Y6447D01*
X27847D01*
Y6417D01*
X27759D01*
Y6388D01*
X27701D01*
Y6359D01*
X27643D01*
Y6330D01*
X27584D01*
Y6301D01*
X27555D01*
Y6272D01*
X27497D01*
Y6242D01*
X27438D01*
Y6213D01*
X27409D01*
Y6184D01*
X27380D01*
Y6155D01*
X27351D01*
Y6126D01*
X27322D01*
Y6097D01*
X27263D01*
Y6067D01*
X27234D01*
Y6038D01*
Y6009D01*
X27205D01*
Y5980D01*
X27176D01*
Y5951D01*
X27147D01*
Y5922D01*
X27118D01*
Y5892D01*
X27088D01*
Y5863D01*
Y5834D01*
X27059D01*
Y5805D01*
Y5776D01*
X27030D01*
Y5747D01*
Y5718D01*
X27001D01*
Y5688D01*
Y5659D01*
X26972D01*
Y5630D01*
Y5601D01*
Y5572D01*
X26943D01*
Y5543D01*
Y5513D01*
Y5484D01*
X26913D01*
Y5455D01*
Y5426D01*
Y5397D01*
Y5368D01*
Y5339D01*
Y5309D01*
Y5280D01*
Y5251D01*
X26884D01*
Y5222D01*
Y5193D01*
Y5164D01*
Y5134D01*
Y5105D01*
Y5076D01*
Y5047D01*
X26913D01*
Y5018D01*
Y4989D01*
Y4959D01*
Y4930D01*
Y4901D01*
Y4872D01*
Y4843D01*
Y4814D01*
X26943D01*
Y4784D01*
Y4755D01*
Y4726D01*
X26972D01*
Y4697D01*
Y4668D01*
Y4639D01*
Y4609D01*
X27001D01*
Y4580D01*
Y4551D01*
X27030D01*
Y4522D01*
Y4493D01*
X27059D01*
Y4464D01*
Y4434D01*
X27088D01*
Y4405D01*
X27118D01*
Y4376D01*
Y4347D01*
X27147D01*
Y4318D01*
Y4289D01*
X27176D01*
Y4259D01*
X27205D01*
Y4230D01*
X27234D01*
Y4201D01*
X27263D01*
Y4172D01*
X27730D01*
Y4201D01*
X27788D01*
Y4230D01*
Y4259D01*
X27730D01*
Y4289D01*
X27701D01*
Y4318D01*
X27643D01*
Y4347D01*
X27613D01*
Y4376D01*
X27584D01*
Y4405D01*
X27555D01*
Y4434D01*
X27497D01*
Y4464D01*
X27468D01*
Y4493D01*
Y4522D01*
X27438D01*
Y4551D01*
X27409D01*
Y4580D01*
X27380D01*
Y4609D01*
X27351D01*
Y4639D01*
Y4668D01*
X27322D01*
Y4697D01*
Y4726D01*
X27293D01*
Y4755D01*
X27263D01*
Y4784D01*
Y4814D01*
Y4843D01*
X27234D01*
Y4872D01*
Y4901D01*
X27205D01*
Y4930D01*
Y4959D01*
Y4989D01*
Y5018D01*
X27176D01*
Y5047D01*
Y5076D01*
Y5105D01*
Y5134D01*
Y5164D01*
Y5193D01*
Y5222D01*
Y5251D01*
Y5280D01*
Y5309D01*
Y5339D01*
Y5368D01*
Y5397D01*
Y5426D01*
Y5455D01*
Y5484D01*
Y5513D01*
X27205D01*
Y5543D01*
Y5572D01*
Y5601D01*
Y5630D01*
X27234D01*
Y5659D01*
Y5688D01*
X27263D01*
Y5718D01*
Y5747D01*
Y5776D01*
X27293D01*
Y5805D01*
X27322D01*
Y5834D01*
Y5863D01*
X27351D01*
Y5892D01*
X27380D01*
Y5922D01*
Y5951D01*
X27409D01*
Y5980D01*
X27438D01*
Y6009D01*
X27468D01*
Y6038D01*
X27497D01*
Y6067D01*
X27526D01*
Y6097D01*
X27555D01*
Y6126D01*
X27584D01*
Y6155D01*
X27643D01*
Y6184D01*
X27672D01*
Y6213D01*
X27701D01*
Y6242D01*
X27759D01*
Y6272D01*
X27817D01*
Y6301D01*
X27876D01*
Y6330D01*
X27963D01*
Y6359D01*
X28080D01*
Y6388D01*
X28226D01*
Y6417D01*
X28517D01*
Y6388D01*
X28634D01*
Y6359D01*
X28751D01*
Y6330D01*
X28838D01*
Y6301D01*
X28896D01*
Y6272D01*
X28955D01*
Y6242D01*
X29013D01*
Y6213D01*
X29042D01*
Y6184D01*
X29101D01*
Y6155D01*
X29130D01*
Y6126D01*
X29159D01*
Y6097D01*
X29188D01*
Y6067D01*
X29217D01*
Y6038D01*
X29246D01*
Y6009D01*
X29276D01*
Y5980D01*
X29305D01*
Y5951D01*
X29334D01*
Y5922D01*
X29363D01*
Y5892D01*
Y5863D01*
X29392D01*
Y5834D01*
Y5805D01*
X29421D01*
Y5776D01*
X29451D01*
Y5747D01*
Y5718D01*
X29480D01*
Y5688D01*
Y5659D01*
Y5630D01*
X29509D01*
Y5601D01*
Y5572D01*
Y5543D01*
X29538D01*
Y5513D01*
Y5484D01*
Y5455D01*
Y5426D01*
Y5397D01*
Y5368D01*
X29567D01*
Y5339D01*
Y5309D01*
Y5280D01*
Y5251D01*
Y5222D01*
Y5193D01*
Y5164D01*
X29538D01*
Y5134D01*
Y5105D01*
Y5076D01*
Y5047D01*
Y5018D01*
Y4989D01*
X29509D01*
Y4959D01*
Y4930D01*
Y4901D01*
X29480D01*
Y4872D01*
Y4843D01*
Y4814D01*
Y4784D01*
X29538D01*
Y4814D01*
X29596D01*
Y4843D01*
X29625D01*
Y4872D01*
X29684D01*
Y4901D01*
X29713D01*
Y4930D01*
X29771D01*
Y4959D01*
X29800D01*
Y4989D01*
X29859D01*
Y5018D01*
X29888D01*
Y5047D01*
X29917D01*
Y5076D01*
Y5105D01*
Y5134D01*
X29946D01*
Y5164D01*
Y5193D01*
Y5222D01*
X29917D01*
Y5251D01*
Y5280D01*
Y5309D01*
X29888D01*
Y5339D01*
Y5368D01*
Y5397D01*
X29859D01*
Y5426D01*
Y5455D01*
Y5484D01*
X29830D01*
Y5513D01*
Y5543D01*
X29800D01*
Y5572D01*
Y5601D01*
X29771D01*
Y5630D01*
Y5659D01*
X29742D01*
Y5688D01*
Y5718D01*
X29713D01*
Y5747D01*
Y5776D01*
X29684D01*
Y5805D01*
X29655D01*
Y5834D01*
Y5863D01*
X29625D01*
Y5892D01*
X29596D01*
Y5922D01*
X29567D01*
Y5951D01*
Y5980D01*
X29538D01*
Y6009D01*
X29509D01*
Y6038D01*
X29480D01*
Y6067D01*
X29451D01*
Y6097D01*
X29421D01*
Y6126D01*
X29392D01*
Y6155D01*
X29363D01*
Y6184D01*
X29334D01*
Y6213D01*
X29305D01*
Y6242D01*
X29246D01*
Y6272D01*
X29217D01*
Y6301D01*
X29159D01*
Y6330D01*
X29101D01*
Y6359D01*
X29071D01*
Y6388D01*
X29013D01*
Y6417D01*
X28926D01*
Y6447D01*
X28867D01*
Y6476D01*
X28751D01*
Y6505D01*
X28634D01*
Y6534D01*
D02*
G37*
%LPD*%
D10*
X127269Y55551D02*
X126725Y56300D01*
X125845Y56014D01*
Y55088D01*
X126725Y54802D01*
X127269Y55551D01*
X122151Y51221D02*
X121607Y51969D01*
X120726Y51683D01*
Y50758D01*
X121607Y50472D01*
X122151Y51221D01*
X127663Y52008D02*
X127119Y52757D01*
X126238Y52471D01*
Y51545D01*
X127119Y51259D01*
X127663Y52008D01*
X121757Y37047D02*
X121213Y37796D01*
X120333Y37510D01*
Y36584D01*
X121213Y36298D01*
X121757Y37047D01*
Y46890D02*
X121213Y47639D01*
X120333Y47353D01*
Y46427D01*
X121213Y46141D01*
X121757Y46890D01*
X122938Y33898D02*
X122394Y34646D01*
X121514Y34360D01*
Y33435D01*
X122394Y33149D01*
X122938Y33898D01*
X116639Y48071D02*
X116095Y48820D01*
X115215Y48534D01*
Y47608D01*
X116095Y47322D01*
X116639Y48071D01*
X118607Y43740D02*
X118063Y44489D01*
X117183Y44203D01*
Y43277D01*
X118063Y42991D01*
X118607Y43740D01*
X120970Y18937D02*
X120426Y19686D01*
X119545Y19400D01*
Y18474D01*
X120426Y18188D01*
X120970Y18937D01*
X131993Y55158D02*
X131449Y55906D01*
X130569Y55620D01*
Y54695D01*
X131449Y54409D01*
X131993Y55158D01*
X129237Y32717D02*
X128693Y33465D01*
X127813Y33179D01*
Y32254D01*
X128693Y31968D01*
X129237Y32717D01*
X56299Y150000D02*
X55755Y150749D01*
X54875Y150463D01*
Y149537D01*
X55755Y149251D01*
X56299Y150000D01*
X48819Y160630D02*
X48275Y161379D01*
X47394Y161093D01*
Y160167D01*
X48275Y159881D01*
X48819Y160630D01*
X55905Y145276D02*
X55361Y146024D01*
X54481Y145738D01*
Y144813D01*
X55361Y144527D01*
X55905Y145276D01*
X44488Y158661D02*
X43944Y159410D01*
X43064Y159124D01*
Y158199D01*
X43944Y157913D01*
X44488Y158661D01*
X47638Y155512D02*
X47094Y156261D01*
X46213Y155975D01*
Y155049D01*
X47094Y154763D01*
X47638Y155512D01*
X51968Y155118D02*
X51424Y155867D01*
X50544Y155581D01*
Y154655D01*
X51424Y154369D01*
X51968Y155118D01*
X52756Y149606D02*
X52212Y150355D01*
X51332Y150069D01*
Y149144D01*
X52212Y148857D01*
X52756Y149606D01*
X19685Y156299D02*
X19141Y157048D01*
X18261Y156762D01*
Y155836D01*
X19141Y155550D01*
X19685Y156299D01*
X34646Y154331D02*
X34102Y155079D01*
X33221Y154794D01*
Y153868D01*
X34102Y153582D01*
X34646Y154331D01*
X37795Y155512D02*
X37251Y156261D01*
X36371Y155975D01*
Y155049D01*
X37251Y154763D01*
X37795Y155512D01*
X33465Y148031D02*
X32921Y148780D01*
X32040Y148494D01*
Y147569D01*
X32921Y147283D01*
X33465Y148031D01*
X49661Y95684D02*
Y98684D01*
X55661Y95684D02*
Y98684D01*
X49661Y95684D02*
X55661D01*
Y104487D02*
Y107487D01*
X49661Y104487D02*
Y107487D01*
X55661D01*
X62221Y104502D02*
X58679D01*
Y102731D01*
X59269Y102140D01*
X60450D01*
X61040Y102731D01*
Y104502D01*
Y103321D02*
X62221Y102140D01*
X59269Y100960D02*
X58679Y100369D01*
Y99189D01*
X59269Y98598D01*
X59860D01*
X60450Y99189D01*
Y99779D01*
Y99189D01*
X61040Y98598D01*
X61631D01*
X62221Y99189D01*
Y100369D01*
X61631Y100960D01*
X66803Y121569D02*
Y119207D01*
Y120388D01*
X70345D01*
Y118027D02*
X66803D01*
Y116256D01*
X67393Y115665D01*
X68574D01*
X69164Y116256D01*
Y118027D01*
X70345Y114485D02*
Y113304D01*
Y113894D01*
X66803D01*
X67393Y114485D01*
Y111533D02*
X66803Y110942D01*
Y109762D01*
X67393Y109171D01*
X67984D01*
X68574Y109762D01*
Y110352D01*
Y109762D01*
X69164Y109171D01*
X69755D01*
X70345Y109762D01*
Y110942D01*
X69755Y111533D01*
X73303Y120869D02*
Y118507D01*
Y119688D01*
X76845D01*
Y117327D02*
X73303D01*
Y115556D01*
X73893Y114965D01*
X75074D01*
X75664Y115556D01*
Y117327D01*
X76845Y113785D02*
Y112604D01*
Y113194D01*
X73303D01*
X73893Y113785D01*
X76845Y108471D02*
Y110833D01*
X74484Y108471D01*
X73893D01*
X73303Y109062D01*
Y110242D01*
X73893Y110833D01*
X43779Y118058D02*
Y115697D01*
Y116878D01*
X47321D01*
Y114516D02*
X43779D01*
Y112745D01*
X44369Y112155D01*
X45550D01*
X46140Y112745D01*
Y114516D01*
X47321Y110974D02*
Y109793D01*
Y110384D01*
X43779D01*
X44369Y110974D01*
X47321Y108022D02*
Y106842D01*
Y107432D01*
X43779D01*
X44369Y108022D01*
X69903Y148969D02*
Y146607D01*
Y147788D01*
X73445D01*
Y145427D02*
X69903D01*
Y143656D01*
X70493Y143065D01*
X71674D01*
X72264Y143656D01*
Y145427D01*
X73445Y141885D02*
Y140704D01*
Y141294D01*
X69903D01*
X70493Y141885D01*
Y138933D02*
X69903Y138342D01*
Y137162D01*
X70493Y136571D01*
X72855D01*
X73445Y137162D01*
Y138342D01*
X72855Y138933D01*
X70493D01*
X78203Y85793D02*
Y83432D01*
Y84612D01*
X81745D01*
Y82251D02*
X78203D01*
Y80480D01*
X78793Y79889D01*
X79974D01*
X80564Y80480D01*
Y82251D01*
X81155Y78709D02*
X81745Y78118D01*
Y76938D01*
X81155Y76347D01*
X78793D01*
X78203Y76938D01*
Y78118D01*
X78793Y78709D01*
X79384D01*
X79974Y78118D01*
Y76347D01*
X72703Y86093D02*
Y83732D01*
Y84912D01*
X76245D01*
Y82551D02*
X72703D01*
Y80780D01*
X73293Y80189D01*
X74474D01*
X75064Y80780D01*
Y82551D01*
X73293Y79009D02*
X72703Y78418D01*
Y77238D01*
X73293Y76647D01*
X73884D01*
X74474Y77238D01*
X75064Y76647D01*
X75655D01*
X76245Y77238D01*
Y78418D01*
X75655Y79009D01*
X75064D01*
X74474Y78418D01*
X73884Y79009D01*
X73293D01*
X74474Y78418D02*
Y77238D01*
X67503Y86093D02*
Y83732D01*
Y84912D01*
X71045D01*
Y82551D02*
X67503D01*
Y80780D01*
X68093Y80189D01*
X69274D01*
X69864Y80780D01*
Y82551D01*
X67503Y79009D02*
Y76647D01*
X68093D01*
X70455Y79009D01*
X71045D01*
X82803Y85693D02*
Y83332D01*
Y84512D01*
X86345D01*
Y82151D02*
X82803D01*
Y80380D01*
X83393Y79789D01*
X84574D01*
X85164Y80380D01*
Y82151D01*
X82803Y76247D02*
X83393Y77428D01*
X84574Y78609D01*
X85755D01*
X86345Y78018D01*
Y76838D01*
X85755Y76247D01*
X85164D01*
X84574Y76838D01*
Y78609D01*
X80703Y107493D02*
Y105131D01*
Y106312D01*
X84245D01*
Y103951D02*
X80703D01*
Y102180D01*
X81293Y101589D01*
X82474D01*
X83064Y102180D01*
Y103951D01*
X80703Y98047D02*
Y100409D01*
X82474D01*
X81884Y99228D01*
Y98638D01*
X82474Y98047D01*
X83655D01*
X84245Y98638D01*
Y99818D01*
X83655Y100409D01*
X86431Y107793D02*
Y105431D01*
Y106612D01*
X89973D01*
Y104251D02*
X86431D01*
Y102480D01*
X87021Y101889D01*
X88202D01*
X88792Y102480D01*
Y104251D01*
X89973Y98938D02*
X86431D01*
X88202Y100709D01*
Y98347D01*
X75034Y70193D02*
Y67831D01*
Y69012D01*
X78577D01*
Y66651D02*
X75034D01*
Y64880D01*
X75625Y64289D01*
X76806D01*
X77396Y64880D01*
Y66651D01*
X75625Y63109D02*
X75034Y62518D01*
Y61338D01*
X75625Y60747D01*
X76215D01*
X76806Y61338D01*
Y61928D01*
Y61338D01*
X77396Y60747D01*
X77986D01*
X78577Y61338D01*
Y62518D01*
X77986Y63109D01*
X80553Y67871D02*
Y65509D01*
Y66690D01*
X84095D01*
Y64329D02*
X80553D01*
Y62558D01*
X81143Y61967D01*
X82324D01*
X82914Y62558D01*
Y64329D01*
X84095Y58425D02*
Y60787D01*
X81733Y58425D01*
X81143D01*
X80553Y59016D01*
Y60196D01*
X81143Y60787D01*
X60703Y120903D02*
Y118541D01*
Y119722D01*
X64245D01*
Y117360D02*
X60703D01*
Y115589D01*
X61293Y114999D01*
X62474D01*
X63064Y115589D01*
Y117360D01*
X64245Y113818D02*
Y112638D01*
Y113228D01*
X60703D01*
X61293Y113818D01*
X44419Y95061D02*
X43829Y95652D01*
Y96833D01*
X44419Y97423D01*
X45010D01*
X45600Y96833D01*
Y95652D01*
X46190Y95061D01*
X46781D01*
X47371Y95652D01*
Y96833D01*
X46781Y97423D01*
X43829Y93881D02*
X47371D01*
Y92110D01*
X46781Y91519D01*
X46190D01*
X45600Y92110D01*
Y93881D01*
Y92110D01*
X45010Y91519D01*
X44419D01*
X43829Y92110D01*
Y93881D01*
X47371Y88568D02*
X43829D01*
X45600Y90339D01*
Y87977D01*
X52769Y76221D02*
X52179Y76811D01*
Y77992D01*
X52769Y78583D01*
X53360D01*
X53950Y77992D01*
Y76811D01*
X54540Y76221D01*
X55131D01*
X55721Y76811D01*
Y77992D01*
X55131Y78583D01*
X52179Y75040D02*
X55721D01*
Y73269D01*
X55131Y72679D01*
X54540D01*
X53950Y73269D01*
Y75040D01*
Y73269D01*
X53360Y72679D01*
X52769D01*
X52179Y73269D01*
Y75040D01*
X55721Y71498D02*
Y70318D01*
Y70908D01*
X52179D01*
X52769Y71498D01*
X26574Y139567D02*
Y143110D01*
X24803D01*
X24212Y142519D01*
Y141339D01*
X24803Y140748D01*
X26574D01*
X21261Y139567D02*
Y143110D01*
X23032Y141339D01*
X20670D01*
X113779Y139567D02*
Y143110D01*
X112008D01*
X111417Y142519D01*
Y141339D01*
X112008Y140748D01*
X113779D01*
X110237Y139567D02*
X109056D01*
X109646D01*
Y143110D01*
X110237Y142519D01*
X51393Y131160D02*
X50803Y131751D01*
Y132931D01*
X51393Y133522D01*
X53755D01*
X54345Y132931D01*
Y131751D01*
X53755Y131160D01*
X51393Y129980D02*
X50803Y129389D01*
Y128209D01*
X51393Y127618D01*
X51984D01*
X52574Y128209D01*
X53164Y127618D01*
X53755D01*
X54345Y128209D01*
Y129389D01*
X53755Y129980D01*
X53164D01*
X52574Y129389D01*
X51984Y129980D01*
X51393D01*
X52574Y129389D02*
Y128209D01*
D11*
X122938Y15787D02*
X122394Y16536D01*
X121514Y16250D01*
Y15325D01*
X122394Y15039D01*
X122938Y15787D01*
X16535Y154331D02*
X15991Y155080D01*
X15111Y154794D01*
Y153868D01*
X15991Y153582D01*
X16535Y154331D01*
X122151Y1417D02*
Y15984D01*
X1969Y154331D02*
X16535D01*
X119095Y139764D02*
X117783D01*
X118438D01*
Y143700D01*
X119095Y143044D01*
X99738Y139764D02*
X102362D01*
X99738Y142388D01*
Y143044D01*
X100394Y143700D01*
X101706D01*
X102362Y143044D01*
X120408Y53150D02*
X123031D01*
X120408Y55773D01*
Y56429D01*
X121064Y57085D01*
X122376D01*
X123031Y56429D01*
X119096Y53806D02*
X118440Y53150D01*
X117128D01*
X116472Y53806D01*
Y56429D01*
X117128Y57085D01*
X118440D01*
X119096Y56429D01*
Y55773D01*
X118440Y55117D01*
X116472D01*
X107283Y56429D02*
X106628Y57085D01*
X105316D01*
X104660Y56429D01*
Y55773D01*
X105316Y55117D01*
X105972D01*
X105316D01*
X104660Y54461D01*
Y53806D01*
X105316Y53150D01*
X106628D01*
X107283Y53806D01*
X103348Y56429D02*
X102692Y57085D01*
X101380D01*
X100724Y56429D01*
Y53806D01*
X101380Y53150D01*
X102692D01*
X103348Y53806D01*
Y56429D01*
X32480Y139764D02*
X31168D01*
X31824D01*
Y143700D01*
X32480Y143044D01*
X13124Y139764D02*
X15748D01*
X13124Y142388D01*
Y143044D01*
X13780Y143700D01*
X15092D01*
X15748Y143044D01*
X33794Y53150D02*
X36417D01*
X33794Y55773D01*
Y56429D01*
X34449Y57085D01*
X35761D01*
X36417Y56429D01*
X32482Y53806D02*
X31826Y53150D01*
X30514D01*
X29858Y53806D01*
Y56429D01*
X30514Y57085D01*
X31826D01*
X32482Y56429D01*
Y55773D01*
X31826Y55117D01*
X29858D01*
X20669Y56429D02*
X20013Y57085D01*
X18701D01*
X18045Y56429D01*
Y55773D01*
X18701Y55117D01*
X19357D01*
X18701D01*
X18045Y54461D01*
Y53806D01*
X18701Y53150D01*
X20013D01*
X20669Y53806D01*
X16734Y56429D02*
X16078Y57085D01*
X14766D01*
X14110Y56429D01*
Y53806D01*
X14766Y53150D01*
X16078D01*
X16734Y53806D01*
Y56429D01*
X81344Y11054D02*
Y14989D01*
X78720Y11054D01*
Y14989D01*
X76752Y11054D02*
X75441D01*
X74784Y11710D01*
Y13022D01*
X75441Y13678D01*
X76752D01*
X77408Y13022D01*
Y11710D01*
X76752Y11054D01*
X70849Y14989D02*
Y11054D01*
X72817D01*
X73473Y11710D01*
Y13022D01*
X72817Y13678D01*
X70849D01*
X67569Y11054D02*
X68881D01*
X69537Y11710D01*
Y13022D01*
X68881Y13678D01*
X67569D01*
X66913Y13022D01*
Y12366D01*
X69537D01*
X61665Y11054D02*
Y13678D01*
X60353Y14989D01*
X59042Y13678D01*
Y11054D01*
Y13022D01*
X61665D01*
X57730Y14989D02*
Y11054D01*
X55762D01*
X55106Y11710D01*
Y12366D01*
X55762Y13022D01*
X57730D01*
X55762D01*
X55106Y13678D01*
Y14334D01*
X55762Y14989D01*
X57730D01*
X53794D02*
X51170D01*
Y14334D01*
X53794Y11710D01*
Y11054D01*
X51170D01*
D12*
X126875Y29961D02*
X126331Y30709D01*
X125451Y30424D01*
Y29498D01*
X126331Y29212D01*
X126875Y29961D01*
X30709Y150394D02*
X30165Y151143D01*
X29284Y150856D01*
Y149931D01*
X30165Y149645D01*
X30709Y150394D01*
X128450Y1811D02*
Y15984D01*
X128450Y15000D02*
Y26811D01*
X126088Y29173D02*
X128450Y26811D01*
X2126Y148031D02*
X16535D01*
X26772Y148031D02*
X29134Y150394D01*
X14961Y148031D02*
X26772D01*
D16*
X95236Y63425D02*
Y133425D01*
Y59055D02*
Y63425D01*
Y59055D02*
X125236D01*
Y137795D01*
X95236D02*
X125236D01*
X95236Y133425D02*
Y137795D01*
X8622Y63425D02*
Y133425D01*
Y59055D02*
Y63425D01*
Y59055D02*
X38622D01*
Y137795D01*
X8622D02*
X38622D01*
X8622Y133425D02*
Y137795D01*
X129631Y52008D02*
Y52402D01*
X127072Y54961D02*
X129631Y52402D01*
X128450Y33504D02*
Y41378D01*
X124119Y36654D02*
Y44134D01*
X128450Y41378D02*
Y41378D01*
X120970Y37835D02*
Y46102D01*
X128450Y41378D02*
X129631Y42559D01*
X126481Y35472D02*
Y51221D01*
X124119Y44134D02*
Y48858D01*
X122151Y50827D02*
X124119Y48858D01*
X122151Y34685D02*
X124119Y36654D01*
Y33110D02*
X126481Y35472D01*
X115852Y32717D02*
Y47284D01*
X117820Y38622D02*
Y42953D01*
Y34685D02*
Y38622D01*
X126088Y1417D02*
Y15984D01*
X120182Y1417D02*
Y15984D01*
X118214Y1417D02*
Y15984D01*
X124119Y1417D02*
Y15984D01*
X120182Y15000D02*
Y18150D01*
X117820Y34685D02*
X120182Y32323D01*
X124119Y27205D02*
Y33110D01*
X118214Y15000D02*
Y30354D01*
X124119Y15000D02*
Y24449D01*
X126088Y15000D02*
Y25236D01*
X120182Y28386D02*
Y32323D01*
X124119Y27205D02*
X126088Y25236D01*
X120182Y28386D02*
X124119Y24449D01*
X115852Y32717D02*
X118214Y30354D01*
X131206Y1417D02*
Y15984D01*
X129631Y42559D02*
Y52008D01*
X131206Y15000D02*
Y54370D01*
X1969Y156299D02*
X16535D01*
X14961Y145276D02*
X54331D01*
X1969Y145276D02*
X16535D01*
X1850Y150394D02*
X16535D01*
X1850Y152362D02*
X16535D01*
X1969Y158268D02*
X16535D01*
X37795Y155512D02*
X46063D01*
X42520Y146850D02*
X51968D01*
X41339Y148031D02*
X42520Y146850D01*
X35433Y150000D02*
X51181D01*
X36614Y152362D02*
X44094D01*
X48819D02*
X50787Y154331D01*
X44094Y152362D02*
X48819D01*
X52362Y146850D02*
X54921Y149409D01*
X51968Y146850D02*
X52362D01*
X14961Y156299D02*
X18110D01*
X14961Y150394D02*
X25197D01*
X27165Y152362D01*
X33071D01*
X14961D02*
X24409D01*
X28346Y156299D01*
X14961Y158268D02*
X30315D01*
X38583Y158661D02*
X42913D01*
X33465Y148031D02*
X41339D01*
X28346Y156299D02*
X32283D01*
X41339Y148031D02*
X41339D01*
X33071Y152362D02*
X35433Y150000D01*
X34646Y154331D02*
X36614Y152362D01*
X34646Y158661D02*
X38583D01*
X32283Y156299D02*
X34646Y158661D01*
X32677Y160630D02*
X47244D01*
X30315Y158268D02*
X32677Y160630D01*
X55896Y120622D02*
X58896D01*
X55896Y126622D02*
X58896D01*
Y120622D02*
Y126622D01*
X46896D02*
X49896D01*
X46896Y120622D02*
X49896D01*
X46896D02*
Y126622D01*
D17*
X61811Y88984D02*
Y94889D01*
X50000Y88984D02*
Y94889D01*
Y88984D02*
X61811D01*
X50000Y94889D02*
X61811D01*
X47301Y81102D02*
X60687D01*
X47301Y87008D02*
X60687D01*
X47301Y81102D02*
Y87008D01*
X60687Y81102D02*
Y87008D01*
D95*
X59309Y87992D02*
D03*
D96*
X68018Y24287D02*
X98518D01*
X67718Y26487D02*
X97118D01*
X68118Y24387D02*
X98518D01*
X68118Y24587D02*
X98418D01*
X68118Y24687D02*
X98318D01*
X68118Y24787D02*
X98218D01*
X68118Y24887D02*
X98218D01*
X68118Y24987D02*
X98118D01*
X68118Y25087D02*
X98018D01*
X68118Y25187D02*
X98018D01*
X68118Y25287D02*
X97918D01*
X68118Y25387D02*
X97818D01*
X68118Y25487D02*
X97818D01*
X68118Y25587D02*
X97718D01*
X68018Y25687D02*
X97618D01*
X68018Y25787D02*
X97618D01*
X68018Y25887D02*
X97518D01*
X68018Y25987D02*
X97418D01*
X67918Y26087D02*
X97418D01*
X67918Y26187D02*
X97318D01*
X67918Y26287D02*
X97218D01*
X67818Y26387D02*
X97218D01*
X67718Y26587D02*
X97118D01*
X67718Y26687D02*
X97018D01*
X67818Y23787D02*
X98818D01*
X67918Y23887D02*
X98818D01*
X67918Y23987D02*
X98718D01*
X68018Y24087D02*
X98718D01*
X68018Y24187D02*
X98618D01*
X93218Y48287D02*
X103118D01*
X29218Y40287D02*
X39818D01*
X28918Y32287D02*
X39818D01*
X21218Y24287D02*
X33118D01*
X93518Y48387D02*
X102818D01*
X93818Y48487D02*
X102518D01*
X94118Y48587D02*
X102018D01*
X89618Y46487D02*
X106918D01*
X92418Y44887D02*
X109118D01*
X87718Y44987D02*
X109018D01*
X87718Y45087D02*
X108918D01*
X87818Y45187D02*
X108718D01*
X87918Y45287D02*
X108518D01*
X88018Y45387D02*
X108418D01*
X88118Y45487D02*
X108318D01*
X88318Y45587D02*
X108218D01*
X88518Y45687D02*
X108118D01*
X88618Y45787D02*
X108018D01*
X88718Y45887D02*
X107818D01*
X88818Y45987D02*
X107718D01*
X89018Y46087D02*
X107618D01*
X89118Y46187D02*
X107418D01*
X89218Y46287D02*
X107318D01*
X89418Y46387D02*
X107118D01*
X94518Y44087D02*
X109818D01*
X94418Y44187D02*
X109718D01*
X94218Y44287D02*
X109618D01*
X94018Y44387D02*
X109518D01*
X93818Y44487D02*
X109418D01*
X93518Y44587D02*
X109318D01*
X93218Y44687D02*
X109218D01*
X92918Y44787D02*
X109218D01*
X89718Y46587D02*
X106818D01*
X89818Y46687D02*
X106718D01*
X90018Y46787D02*
X106518D01*
X90118Y46887D02*
X106418D01*
X90318Y46987D02*
X106118D01*
X90418Y47087D02*
X106018D01*
X90718Y47187D02*
X105818D01*
X90918Y47287D02*
X105618D01*
X91118Y47387D02*
X105418D01*
X91318Y47487D02*
X105218D01*
X91518Y47587D02*
X105018D01*
X91718Y47687D02*
X104818D01*
X91818Y47787D02*
X104618D01*
X92218Y47887D02*
X104218D01*
X92518Y47987D02*
X104018D01*
X92718Y48087D02*
X103818D01*
X92918Y48187D02*
X103518D01*
X82618Y30487D02*
X94518D01*
X81418Y26787D02*
X96918D01*
X82518Y26887D02*
X96918D01*
X83518Y26987D02*
X96818D01*
X83518Y27087D02*
X96718D01*
X83518Y27187D02*
X96718D01*
X83418Y27287D02*
X96618D01*
X83418Y27387D02*
X96518D01*
X83318Y27487D02*
X96518D01*
X83318Y27587D02*
X96418D01*
X83318Y27687D02*
X96318D01*
X83318Y27787D02*
X96318D01*
X83218Y27887D02*
X96218D01*
X83218Y27987D02*
X96118D01*
X83118Y28087D02*
X96118D01*
X83118Y28187D02*
X96018D01*
X83118Y28287D02*
X95918D01*
X83018Y28387D02*
X95918D01*
X83018Y28487D02*
X95818D01*
X83018Y28587D02*
X95818D01*
X83018Y28687D02*
X95718D01*
X83018Y28787D02*
X95618D01*
X82918Y28887D02*
X95618D01*
X82918Y28987D02*
X95518D01*
X82818Y29087D02*
X95418D01*
X82818Y29187D02*
X95418D01*
X82818Y29287D02*
X95318D01*
X82818Y29387D02*
X95218D01*
X82718Y29487D02*
X95218D01*
X82718Y29587D02*
X95118D01*
X82718Y29687D02*
X95018D01*
X82718Y29787D02*
X95018D01*
X82718Y29887D02*
X94918D01*
X82718Y29987D02*
X94818D01*
X82718Y30087D02*
X94818D01*
X82618Y30187D02*
X94718D01*
X82618Y30287D02*
X94618D01*
X82618Y30387D02*
X94618D01*
X86318Y22487D02*
X110118D01*
X86218Y22587D02*
X110218D01*
X86118Y22687D02*
X110318D01*
X86118Y22787D02*
X110418D01*
X86018Y22887D02*
X110418D01*
X85918Y22987D02*
X110518D01*
X85818Y23087D02*
X110618D01*
X85718Y23187D02*
X110718D01*
X85618Y23287D02*
X110818D01*
X85518Y23387D02*
X110918D01*
X85418Y23487D02*
X111018D01*
X85418Y23587D02*
X111018D01*
X85318Y23687D02*
X111118D01*
X89518Y19687D02*
X106918D01*
X89418Y19787D02*
X107018D01*
X89318Y19887D02*
X107218D01*
X89018Y19987D02*
X107318D01*
X88918Y20087D02*
X107418D01*
X88818Y20187D02*
X107518D01*
X88718Y20287D02*
X107718D01*
X88618Y20387D02*
X107918D01*
X88418Y20487D02*
X108018D01*
X88318Y20587D02*
X108118D01*
X88218Y20687D02*
X108218D01*
X88118Y20787D02*
X108318D01*
X88018Y20887D02*
X108518D01*
X87918Y20987D02*
X108618D01*
X87718Y21087D02*
X108718D01*
X87618Y21187D02*
X108818D01*
X87518Y21287D02*
X108918D01*
X87418Y21387D02*
X109118D01*
X87318Y21487D02*
X109118D01*
X87218Y21587D02*
X109218D01*
X87118Y21687D02*
X109318D01*
X87018Y21787D02*
X109418D01*
X86918Y21887D02*
X109518D01*
X86818Y21987D02*
X109618D01*
X86718Y22087D02*
X109718D01*
X86618Y22187D02*
X109818D01*
X86518Y22287D02*
X109918D01*
X86418Y22387D02*
X110018D01*
X91818Y18487D02*
X104718D01*
X92418Y18187D02*
X104018D01*
X92218Y18287D02*
X104218D01*
X92018Y18387D02*
X104518D01*
X91518Y18587D02*
X104918D01*
X91318Y18687D02*
X105218D01*
X91118Y18787D02*
X105318D01*
X90818Y18887D02*
X105518D01*
X90718Y18987D02*
X105718D01*
X90518Y19087D02*
X105918D01*
X90418Y19187D02*
X106018D01*
X90218Y19287D02*
X106218D01*
X90018Y19387D02*
X106418D01*
X89918Y19487D02*
X106618D01*
X89718Y19587D02*
X106818D01*
X94418Y17587D02*
X102118D01*
X94018Y17687D02*
X102418D01*
X93618Y17787D02*
X102718D01*
X93318Y17887D02*
X103118D01*
X93018Y17987D02*
X103418D01*
X92818Y18087D02*
X103618D01*
X22418Y44887D02*
X49818D01*
X58518Y43287D02*
X64818D01*
X58418Y43387D02*
X64818D01*
X58418Y43487D02*
X64818D01*
X58318Y43587D02*
X64818D01*
X58318Y43687D02*
X64818D01*
X58218Y43787D02*
X64918D01*
X58118Y43887D02*
X64918D01*
X58118Y43987D02*
X64918D01*
X58018Y44087D02*
X65018D01*
X57918Y44187D02*
X65018D01*
X57818Y44287D02*
X65118D01*
X57818Y44387D02*
X65118D01*
X57718Y44487D02*
X65118D01*
X57618Y44587D02*
X65218D01*
X57618Y44687D02*
X65318D01*
X57718Y44787D02*
X65318D01*
X18718Y42487D02*
X39818D01*
X18318Y41887D02*
X39818D01*
X18418Y41987D02*
X39818D01*
X18518Y42087D02*
X39818D01*
X18518Y42187D02*
X39818D01*
X18518Y42287D02*
X39818D01*
X18618Y42387D02*
X39818D01*
X18818Y42587D02*
X39818D01*
X18918Y42687D02*
X39818D01*
X19018Y42787D02*
X39818D01*
X19018Y42887D02*
X39818D01*
X19118Y42987D02*
X39818D01*
X19218Y43087D02*
X39818D01*
X19318Y43187D02*
X39818D01*
X19418Y43287D02*
X39818D01*
X19518Y43387D02*
X39818D01*
X19618Y43487D02*
X39818D01*
X19818Y43587D02*
X39818D01*
X19918Y43687D02*
X39918D01*
X20018Y43787D02*
X39918D01*
X20118Y43887D02*
X39918D01*
X20218Y43987D02*
X40018D01*
X20418Y44087D02*
X40118D01*
X20618Y44187D02*
X40118D01*
X20718Y44287D02*
X40218D01*
X20918Y44387D02*
X40318D01*
X21218Y44487D02*
X40418D01*
X21418Y44587D02*
X40618D01*
X21718Y44687D02*
X40818D01*
X22018Y44787D02*
X40918D01*
X29318Y40387D02*
X39818D01*
X29418Y40487D02*
X39818D01*
X29418Y40587D02*
X39818D01*
X29418Y40687D02*
X39818D01*
X29418Y40787D02*
X39818D01*
X29518Y40887D02*
X39818D01*
X29518Y40987D02*
X39818D01*
X29518Y41087D02*
X39818D01*
X29618Y41187D02*
X39818D01*
X29618Y41287D02*
X39818D01*
X29618Y41387D02*
X39818D01*
X29718Y41487D02*
X39818D01*
X29718Y41587D02*
X39818D01*
X29818Y41687D02*
X39818D01*
X29818Y41787D02*
X39818D01*
X28918Y38487D02*
X39818D01*
X60418Y34487D02*
X71418D01*
X60318Y32887D02*
X71718D01*
X60318Y32987D02*
X71718D01*
X60318Y33087D02*
X71618D01*
X60318Y33187D02*
X71618D01*
X60318Y33287D02*
X71518D01*
X60318Y33387D02*
X71518D01*
X60418Y33487D02*
X71518D01*
X60418Y33587D02*
X71418D01*
X60418Y33687D02*
X71418D01*
X60418Y33787D02*
X71418D01*
X60418Y33887D02*
X71418D01*
X60418Y33987D02*
X71418D01*
X60418Y34087D02*
X71418D01*
X60418Y34187D02*
X71418D01*
X60418Y34387D02*
X71418D01*
X60418Y34587D02*
X71418D01*
X60418Y34687D02*
X71418D01*
X60518Y34287D02*
X71418D01*
X60518Y34787D02*
X71418D01*
X60518Y34887D02*
X71418D01*
X60518Y34987D02*
X71418D01*
X60518Y35087D02*
X71518D01*
X60518Y35187D02*
X71518D01*
X60518Y35287D02*
X71518D01*
X60518Y35387D02*
X71618D01*
X60518Y35487D02*
X71618D01*
X60518Y35587D02*
X71718D01*
X60518Y35687D02*
X71718D01*
X60518Y35787D02*
X71718D01*
X28918Y38587D02*
X39818D01*
X28918Y38687D02*
X39818D01*
X28918Y38787D02*
X39818D01*
X28918Y38887D02*
X39818D01*
X28918Y38987D02*
X39818D01*
X29018Y39087D02*
X39818D01*
X29018Y39187D02*
X39818D01*
X29018Y39287D02*
X39818D01*
X29018Y39387D02*
X39818D01*
X29118Y39487D02*
X39818D01*
X29118Y39587D02*
X39818D01*
X29118Y39687D02*
X39818D01*
X29118Y39787D02*
X39818D01*
X29218Y39887D02*
X39818D01*
X29218Y39987D02*
X39818D01*
X29218Y40087D02*
X39818D01*
X29218Y40187D02*
X39818D01*
X19418Y34487D02*
X39818D01*
X18418Y32987D02*
X39818D01*
X18518Y33087D02*
X39818D01*
X18518Y33187D02*
X39818D01*
X18618Y33287D02*
X39818D01*
X18718Y33387D02*
X39818D01*
X18818Y33487D02*
X39818D01*
X18918Y33587D02*
X39818D01*
X19018Y33687D02*
X39818D01*
X19118Y33787D02*
X39818D01*
X19218Y33887D02*
X39818D01*
X19318Y33987D02*
X39818D01*
X19418Y34087D02*
X39818D01*
X19418Y34187D02*
X39818D01*
X19518Y34287D02*
X39818D01*
X19518Y34387D02*
X39818D01*
X19318Y34587D02*
X39818D01*
X19218Y34687D02*
X39818D01*
X19218Y34787D02*
X39818D01*
X19118Y34887D02*
X39818D01*
X19018Y34987D02*
X39818D01*
X18918Y35087D02*
X39818D01*
X18818Y35187D02*
X39818D01*
X18718Y35287D02*
X39818D01*
X18618Y35387D02*
X39818D01*
X18518Y35487D02*
X39818D01*
X18518Y35587D02*
X39818D01*
X18418Y35687D02*
X39818D01*
X18318Y35787D02*
X39818D01*
X18318Y35887D02*
X39818D01*
X18218Y35987D02*
X39818D01*
X28918Y32387D02*
X39818D01*
X28918Y32487D02*
X39818D01*
X28818Y32587D02*
X39818D01*
X28818Y32687D02*
X39818D01*
X28818Y32787D02*
X39818D01*
X28818Y32887D02*
X39818D01*
X28618Y36087D02*
X39818D01*
X28618Y36187D02*
X39818D01*
X28618Y36287D02*
X39818D01*
X28618Y36387D02*
X39818D01*
X28618Y36487D02*
X39818D01*
X28618Y36587D02*
X39818D01*
X28618Y36687D02*
X39818D01*
X28618Y36787D02*
X39818D01*
X28618Y36887D02*
X39818D01*
X28618Y36987D02*
X39818D01*
X28618Y37087D02*
X39818D01*
X28618Y37187D02*
X39818D01*
X28718Y37287D02*
X39818D01*
X28718Y37387D02*
X39818D01*
X28718Y37487D02*
X39818D01*
X28718Y37587D02*
X39818D01*
X28718Y37687D02*
X39818D01*
X28718Y37787D02*
X39818D01*
X28718Y37887D02*
X39818D01*
X28718Y37987D02*
X39818D01*
X28818Y38087D02*
X39818D01*
X28818Y38187D02*
X39818D01*
X28818Y38287D02*
X39818D01*
X28918Y38387D02*
X39818D01*
X29418Y30487D02*
X39818D01*
X61818Y28287D02*
X68218D01*
X61918Y28387D02*
X68118D01*
X62018Y28487D02*
X68018D01*
X62118Y28587D02*
X67918D01*
X62218Y28687D02*
X67818D01*
X62318Y28787D02*
X67718D01*
X62418Y28887D02*
X67518D01*
X29418Y30587D02*
X39818D01*
X29318Y30687D02*
X39818D01*
X29318Y30787D02*
X39818D01*
X29318Y30887D02*
X39818D01*
X29218Y30987D02*
X39818D01*
X29218Y31087D02*
X39818D01*
X29218Y31187D02*
X39818D01*
X29218Y31287D02*
X39818D01*
X29118Y31387D02*
X39818D01*
X29118Y31487D02*
X39818D01*
X29118Y31587D02*
X39818D01*
X29118Y31687D02*
X39818D01*
X29018Y31787D02*
X39818D01*
X29018Y31887D02*
X39818D01*
X29018Y31987D02*
X39818D01*
X28918Y32087D02*
X39818D01*
X28918Y32187D02*
X39818D01*
X18518Y26487D02*
X31318D01*
X21018Y24387D02*
X33018D01*
X20818Y24487D02*
X32918D01*
X20718Y24587D02*
X32818D01*
X20418Y24687D02*
X32718D01*
X20318Y24787D02*
X32718D01*
X20218Y24887D02*
X32618D01*
X20018Y24987D02*
X32518D01*
X19918Y25087D02*
X32418D01*
X19818Y25187D02*
X32318D01*
X19718Y25287D02*
X32218D01*
X19618Y25387D02*
X32118D01*
X19518Y25487D02*
X32118D01*
X19418Y25587D02*
X32018D01*
X19318Y25687D02*
X31918D01*
X19218Y25787D02*
X31818D01*
X19118Y25887D02*
X31718D01*
X19018Y25987D02*
X31718D01*
X18918Y26087D02*
X31618D01*
X18818Y26187D02*
X31618D01*
X18718Y26287D02*
X31518D01*
X18618Y26387D02*
X31418D01*
X18518Y26587D02*
X31318D01*
X18418Y26687D02*
X31218D01*
X18318Y26787D02*
X31118D01*
X18318Y26887D02*
X31018D01*
X30518Y27587D02*
X39418D01*
X30518Y27687D02*
X39518D01*
X30418Y27787D02*
X39518D01*
X30418Y27887D02*
X39618D01*
X30418Y27987D02*
X39718D01*
X30318Y28087D02*
X39718D01*
X30318Y28187D02*
X39718D01*
X30218Y28287D02*
X39818D01*
X30218Y28387D02*
X39818D01*
X30218Y28487D02*
X39818D01*
X30118Y28587D02*
X39818D01*
X30018Y28687D02*
X39818D01*
X30018Y28787D02*
X39818D01*
X30018Y28887D02*
X39818D01*
X29918Y28987D02*
X39818D01*
X29918Y29087D02*
X39818D01*
X29918Y29187D02*
X39818D01*
X29818Y29287D02*
X39818D01*
X29818Y29387D02*
X39818D01*
X29818Y29487D02*
X39818D01*
X29718Y29587D02*
X39818D01*
X29718Y29687D02*
X39818D01*
X29618Y29787D02*
X39818D01*
X29618Y29887D02*
X39818D01*
X29518Y29987D02*
X39818D01*
X29518Y30087D02*
X39818D01*
X29518Y30187D02*
X39818D01*
X29518Y30287D02*
X39818D01*
X29418Y30387D02*
X39818D01*
X62418Y21287D02*
X67518D01*
X62218Y21387D02*
X67618D01*
X62118Y21487D02*
X67918D01*
X62018Y21587D02*
X68018D01*
X61918Y21687D02*
X68118D01*
X61818Y21787D02*
X68218D01*
X61718Y21887D02*
X68318D01*
X22518Y23787D02*
X33818D01*
X22418Y23887D02*
X33618D01*
X22018Y23987D02*
X33518D01*
X21718Y24087D02*
X33418D01*
X21518Y24187D02*
X33318D01*
X97318Y40287D02*
X112418D01*
X96918Y32287D02*
X114118D01*
X102918Y24287D02*
X111518D01*
X84018Y40287D02*
X93818D01*
X82418Y32287D02*
X93118D01*
X64218Y40287D02*
X66618D01*
X35018Y48287D02*
X54018D01*
X47918Y40287D02*
X59718D01*
X48918Y32287D02*
X60118D01*
X55818Y24287D02*
X61918D01*
X17718Y40287D02*
X20918D01*
X18118Y32287D02*
X21718D01*
X94718Y48687D02*
X101718D01*
X95018Y48787D02*
X101118D01*
X95618Y48887D02*
X100418D01*
X97018Y48987D02*
X99618D01*
X96218Y42487D02*
X111118D01*
X97318Y40387D02*
X112418D01*
X97218Y40487D02*
X112418D01*
X97218Y40587D02*
X112318D01*
X97218Y40687D02*
X112318D01*
X97218Y40787D02*
X112218D01*
X97118Y40887D02*
X112118D01*
X97118Y40987D02*
X112118D01*
X97018Y41087D02*
X112118D01*
X97018Y41187D02*
X112018D01*
X97018Y41287D02*
X111918D01*
X96918Y41387D02*
X111818D01*
X96918Y41487D02*
X111818D01*
X96818Y41587D02*
X111718D01*
X96718Y41687D02*
X111618D01*
X96718Y41787D02*
X111618D01*
X96618Y41887D02*
X111518D01*
X96518Y41987D02*
X111418D01*
X96518Y42087D02*
X111418D01*
X96418Y42187D02*
X111318D01*
X96418Y42287D02*
X111318D01*
X96318Y42387D02*
X111218D01*
X96118Y42587D02*
X111018D01*
X96018Y42687D02*
X111018D01*
X95918Y42787D02*
X110918D01*
X95818Y42887D02*
X110818D01*
X95718Y42987D02*
X110718D01*
X95618Y43087D02*
X110618D01*
X95518Y43187D02*
X110518D01*
X95418Y43287D02*
X110418D01*
X95418Y43387D02*
X110418D01*
X95318Y43487D02*
X110318D01*
X95218Y43587D02*
X110318D01*
X95118Y43687D02*
X110218D01*
X95018Y43787D02*
X110118D01*
X94718Y43887D02*
X110018D01*
X94618Y43987D02*
X109918D01*
X97418Y38487D02*
X113218D01*
X97518Y38587D02*
X113218D01*
X97418Y38687D02*
X113118D01*
X97518Y38787D02*
X113118D01*
X97518Y38887D02*
X113118D01*
X97418Y38987D02*
X113018D01*
X97418Y39087D02*
X113018D01*
X97418Y39187D02*
X113018D01*
X97418Y39287D02*
X112918D01*
X97418Y39387D02*
X112918D01*
X97418Y39487D02*
X112818D01*
X97418Y39587D02*
X112818D01*
X97418Y39687D02*
X112818D01*
X97418Y39787D02*
X112718D01*
X97418Y39887D02*
X112718D01*
X97318Y39987D02*
X112618D01*
X97318Y40087D02*
X112518D01*
X97318Y40187D02*
X112518D01*
X95518Y34487D02*
X114118D01*
X96918Y32387D02*
X114118D01*
X96818Y32487D02*
X114218D01*
X96718Y32587D02*
X114218D01*
X96618Y32687D02*
X114218D01*
X96618Y32787D02*
X114218D01*
X96518Y32887D02*
X114218D01*
X96418Y32987D02*
X114218D01*
X96318Y33087D02*
X114218D01*
X96318Y33187D02*
X114218D01*
X96218Y33287D02*
X114218D01*
X96118Y33387D02*
X114218D01*
X96018Y33487D02*
X114118D01*
X96018Y33587D02*
X114118D01*
X95918Y33687D02*
X114118D01*
X95818Y33787D02*
X114118D01*
X95718Y33887D02*
X114118D01*
X95718Y33987D02*
X114118D01*
X95618Y34087D02*
X114118D01*
X95518Y34187D02*
X114118D01*
X95418Y34287D02*
X114118D01*
X95418Y34387D02*
X114118D01*
X95618Y34587D02*
X114118D01*
X95818Y34687D02*
X114118D01*
X95918Y34787D02*
X114118D01*
X96018Y34887D02*
X114118D01*
X96118Y34987D02*
X114118D01*
X96118Y35087D02*
X114018D01*
X96218Y35187D02*
X114018D01*
X96318Y35287D02*
X114018D01*
X96418Y35387D02*
X114018D01*
X96418Y35487D02*
X114018D01*
X96518Y35587D02*
X114018D01*
X96518Y35687D02*
X113918D01*
X96618Y35787D02*
X113918D01*
X96618Y35887D02*
X113918D01*
X96718Y35987D02*
X113918D01*
X96818Y36087D02*
X113918D01*
X96818Y36187D02*
X113918D01*
X96818Y36287D02*
X113918D01*
X96918Y36387D02*
X113818D01*
X96918Y36487D02*
X113818D01*
X97018Y36587D02*
X113818D01*
X97018Y36687D02*
X113818D01*
X97018Y36787D02*
X113718D01*
X97118Y36887D02*
X113718D01*
X97118Y36987D02*
X113718D01*
X97218Y37087D02*
X113718D01*
X97218Y37187D02*
X113618D01*
X97218Y37287D02*
X113618D01*
X97218Y37387D02*
X113618D01*
X97318Y37487D02*
X113518D01*
X97318Y37587D02*
X113518D01*
X97318Y37687D02*
X113518D01*
X97318Y37787D02*
X113418D01*
X97418Y37887D02*
X113418D01*
X97418Y37987D02*
X113418D01*
X97418Y38087D02*
X113418D01*
X97418Y38187D02*
X113418D01*
X97418Y38287D02*
X113318D01*
X97418Y38387D02*
X113318D01*
X98318Y30487D02*
X114018D01*
X98218Y30587D02*
X114018D01*
X98118Y30687D02*
X114018D01*
X98118Y30787D02*
X114018D01*
X98018Y30887D02*
X114018D01*
X97918Y30987D02*
X114018D01*
X97818Y31087D02*
X114118D01*
X97818Y31187D02*
X114118D01*
X97718Y31287D02*
X114118D01*
X97618Y31387D02*
X114118D01*
X97518Y31487D02*
X114118D01*
X97518Y31587D02*
X114118D01*
X97418Y31687D02*
X114118D01*
X97318Y31787D02*
X114118D01*
X97218Y31887D02*
X114118D01*
X97218Y31987D02*
X114118D01*
X97118Y32087D02*
X114118D01*
X97018Y32187D02*
X114118D01*
X101318Y26487D02*
X112718D01*
X102818Y24387D02*
X111618D01*
X102818Y24487D02*
X111718D01*
X102718Y24587D02*
X111818D01*
X102618Y24687D02*
X111818D01*
X102518Y24787D02*
X111818D01*
X102518Y24887D02*
X111918D01*
X102418Y24987D02*
X112018D01*
X102318Y25087D02*
X112018D01*
X102218Y25187D02*
X112118D01*
X102218Y25287D02*
X112118D01*
X102118Y25387D02*
X112218D01*
X102018Y25487D02*
X112318D01*
X101918Y25587D02*
X112318D01*
X101918Y25687D02*
X112318D01*
X101818Y25787D02*
X112418D01*
X101718Y25887D02*
X112518D01*
X101618Y25987D02*
X112518D01*
X101618Y26087D02*
X112618D01*
X101518Y26187D02*
X112718D01*
X101418Y26287D02*
X112718D01*
X101318Y26387D02*
X112718D01*
X101218Y26587D02*
X112818D01*
X101118Y26687D02*
X112818D01*
X101018Y26787D02*
X112918D01*
X101018Y26887D02*
X112918D01*
X100918Y26987D02*
X113018D01*
X100818Y27087D02*
X113018D01*
X100718Y27187D02*
X113018D01*
X100718Y27287D02*
X113118D01*
X100618Y27387D02*
X113118D01*
X100518Y27487D02*
X113118D01*
X100418Y27587D02*
X113218D01*
X100418Y27687D02*
X113218D01*
X100318Y27787D02*
X113218D01*
X100218Y27887D02*
X113318D01*
X100118Y27987D02*
X113318D01*
X100118Y28087D02*
X113418D01*
X100018Y28187D02*
X113418D01*
X99918Y28287D02*
X113418D01*
X99818Y28387D02*
X113518D01*
X99818Y28487D02*
X113518D01*
X99718Y28587D02*
X113518D01*
X99618Y28687D02*
X113518D01*
X99618Y28787D02*
X113618D01*
X99518Y28887D02*
X113618D01*
X99418Y28987D02*
X113618D01*
X99318Y29087D02*
X113618D01*
X99318Y29187D02*
X113718D01*
X99218Y29287D02*
X113718D01*
X99118Y29387D02*
X113718D01*
X99018Y29487D02*
X113718D01*
X99018Y29587D02*
X113818D01*
X98918Y29687D02*
X113818D01*
X98818Y29787D02*
X113818D01*
X98718Y29887D02*
X113818D01*
X98718Y29987D02*
X113918D01*
X98618Y30087D02*
X113918D01*
X98518Y30187D02*
X113918D01*
X98418Y30287D02*
X113918D01*
X98418Y30387D02*
X113918D01*
X103318Y23787D02*
X111118D01*
X103218Y23887D02*
X111218D01*
X103118Y23987D02*
X111318D01*
X103118Y24087D02*
X111418D01*
X103018Y24187D02*
X111518D01*
X94918Y17487D02*
X101618D01*
X96018Y17287D02*
X100418D01*
X95218Y17387D02*
X101218D01*
X96818Y17187D02*
X99718D01*
X70918Y42487D02*
X85218D01*
X70818Y41887D02*
X84818D01*
X70818Y41987D02*
X84918D01*
X70918Y42087D02*
X84918D01*
X70918Y42187D02*
X85018D01*
X70918Y42287D02*
X85118D01*
X70918Y42387D02*
X85118D01*
X71018Y42587D02*
X85318D01*
X71018Y42687D02*
X85418D01*
X71018Y42787D02*
X85518D01*
X71018Y42887D02*
X85518D01*
X71018Y42987D02*
X85618D01*
X71018Y43087D02*
X85718D01*
X71018Y43187D02*
X85818D01*
X71018Y43287D02*
X85918D01*
X71018Y43387D02*
X85918D01*
X71018Y43487D02*
X86018D01*
X70918Y43587D02*
X86118D01*
X70918Y43687D02*
X86218D01*
X70918Y43787D02*
X86218D01*
X70918Y43887D02*
X86318D01*
X70918Y43987D02*
X86418D01*
X70818Y44087D02*
X86518D01*
X70818Y44187D02*
X86618D01*
X70818Y44287D02*
X86718D01*
X70718Y44387D02*
X86818D01*
X70618Y44487D02*
X86918D01*
X70618Y44587D02*
X87018D01*
X70618Y44687D02*
X87118D01*
X70518Y44787D02*
X87318D01*
X64818Y46487D02*
X71018D01*
X84118Y40387D02*
X93818D01*
X84118Y40487D02*
X93718D01*
X84118Y40587D02*
X93718D01*
X84218Y40687D02*
X93618D01*
X84218Y40787D02*
X93518D01*
X84318Y40887D02*
X93418D01*
X84318Y40987D02*
X93318D01*
X84418Y41087D02*
X93218D01*
X84418Y41187D02*
X93018D01*
X84518Y41287D02*
X92918D01*
X84618Y41387D02*
X92818D01*
X84618Y41487D02*
X92618D01*
X84718Y41587D02*
X92418D01*
X84818Y41687D02*
X92118D01*
X84918Y41787D02*
X91718D01*
X64918Y46587D02*
X70918D01*
X64618Y46287D02*
X71218D01*
X64718Y46387D02*
X71118D01*
X65018Y46687D02*
X70818D01*
X65118Y46787D02*
X70718D01*
X65218Y46887D02*
X70618D01*
X65418Y46987D02*
X70418D01*
X65618Y47087D02*
X70218D01*
X65818Y47187D02*
X70018D01*
X66018Y47287D02*
X69818D01*
X66318Y47387D02*
X69618D01*
X66518Y47487D02*
X69318D01*
X64218Y45887D02*
X66618D01*
X64318Y45987D02*
X66818D01*
X64418Y46087D02*
X67118D01*
X64518Y46187D02*
X67718D01*
X83318Y38487D02*
X94418D01*
X83318Y38587D02*
X94418D01*
X83418Y38687D02*
X94418D01*
X83518Y38787D02*
X94418D01*
X83518Y38887D02*
X94418D01*
X83518Y38987D02*
X94418D01*
X83518Y39087D02*
X94418D01*
X83518Y39187D02*
X94418D01*
X83518Y39287D02*
X94418D01*
X83518Y39387D02*
X94318D01*
X83618Y39487D02*
X94318D01*
X83618Y39587D02*
X94318D01*
X83718Y39687D02*
X94218D01*
X83718Y39787D02*
X94218D01*
X83818Y39887D02*
X94118D01*
X83818Y39987D02*
X94118D01*
X83918Y40087D02*
X94018D01*
X83918Y40187D02*
X93918D01*
X77518Y34487D02*
X82618D01*
X82418Y32387D02*
X92918D01*
X82418Y32487D02*
X92718D01*
X82418Y32587D02*
X92518D01*
X82718Y35887D02*
X92418D01*
X82718Y35987D02*
X92618D01*
X82718Y36087D02*
X92818D01*
X82718Y36187D02*
X92918D01*
X82718Y36287D02*
X93018D01*
X82718Y36387D02*
X93118D01*
X82718Y36487D02*
X93318D01*
X82818Y36587D02*
X93418D01*
X82818Y36687D02*
X93518D01*
X82818Y36787D02*
X93518D01*
X82818Y36887D02*
X93618D01*
X82918Y36987D02*
X93618D01*
X82918Y37087D02*
X93718D01*
X82918Y37187D02*
X93818D01*
X82918Y37287D02*
X93918D01*
X83018Y37387D02*
X93918D01*
X83018Y37487D02*
X94018D01*
X83018Y37587D02*
X94118D01*
X83018Y37687D02*
X94118D01*
X83118Y37787D02*
X94118D01*
X83118Y37887D02*
X94218D01*
X83218Y37987D02*
X94218D01*
X83218Y38087D02*
X94318D01*
X83218Y38187D02*
X94318D01*
X83218Y38287D02*
X94418D01*
X83318Y38387D02*
X94418D01*
X77218Y32787D02*
X82618D01*
X77218Y32887D02*
X82618D01*
X77318Y32987D02*
X82618D01*
X77318Y33087D02*
X82618D01*
X77318Y33187D02*
X82618D01*
X77418Y33287D02*
X82618D01*
X77418Y33387D02*
X82618D01*
X77418Y33487D02*
X82618D01*
X77518Y33587D02*
X82618D01*
X77518Y33687D02*
X82618D01*
X77518Y33787D02*
X82618D01*
X77518Y33887D02*
X82618D01*
X77518Y33987D02*
X82618D01*
X77518Y34087D02*
X82618D01*
X77518Y34187D02*
X82618D01*
X77518Y34287D02*
X82618D01*
X77518Y34387D02*
X82618D01*
X77518Y34587D02*
X82618D01*
X77518Y34687D02*
X82618D01*
X77518Y34787D02*
X82618D01*
X77518Y34887D02*
X82618D01*
X77518Y34987D02*
X82618D01*
X77418Y35087D02*
X82618D01*
X77418Y35187D02*
X82618D01*
X77418Y35287D02*
X82618D01*
X77318Y35387D02*
X82618D01*
X77318Y35487D02*
X82618D01*
X77218Y35587D02*
X82618D01*
X77218Y35687D02*
X82618D01*
X82718Y35787D02*
X92218D01*
X64918Y39587D02*
X70918D01*
X64818Y39687D02*
X71018D01*
X64718Y39787D02*
X71118D01*
X64618Y39887D02*
X71218D01*
X64518Y39987D02*
X71318D01*
X72418Y38487D02*
X76618D01*
X79018Y32687D02*
X82618D01*
X81018Y35787D02*
X82618D01*
X72618Y38587D02*
X76318D01*
X72918Y38687D02*
X76118D01*
X73218Y38787D02*
X75718D01*
X73518Y38887D02*
X75318D01*
X74318Y38987D02*
X74718D01*
X71118Y37487D02*
X77918D01*
X71218Y37587D02*
X77818D01*
X71318Y37687D02*
X77718D01*
X71418Y37787D02*
X77618D01*
X71518Y37887D02*
X77518D01*
X71618Y37987D02*
X77418D01*
X71718Y38087D02*
X77218D01*
X71918Y38187D02*
X77018D01*
X72118Y38287D02*
X76818D01*
X72318Y38387D02*
X76718D01*
X64418Y40087D02*
X67218D01*
X64318Y40187D02*
X66918D01*
X66318Y38787D02*
X69518D01*
X66118Y38887D02*
X69818D01*
X65818Y38987D02*
X70018D01*
X65618Y39087D02*
X70218D01*
X65518Y39187D02*
X70318D01*
X65318Y39287D02*
X70518D01*
X65118Y39387D02*
X70718D01*
X65018Y39487D02*
X70818D01*
X82618Y30587D02*
X94418D01*
X82518Y30687D02*
X94418D01*
X82518Y30787D02*
X94318D01*
X82518Y30887D02*
X94218D01*
X82518Y30987D02*
X94218D01*
X82518Y31087D02*
X94118D01*
X82518Y31187D02*
X94118D01*
X82518Y31287D02*
X94018D01*
X82518Y31387D02*
X93918D01*
X82518Y31487D02*
X93918D01*
X82518Y31587D02*
X93818D01*
X82418Y31687D02*
X93818D01*
X82418Y31787D02*
X93718D01*
X82418Y31887D02*
X93618D01*
X82418Y31987D02*
X93518D01*
X82418Y32087D02*
X93418D01*
X82418Y32187D02*
X93318D01*
X62618Y28987D02*
X67418D01*
X62718Y29087D02*
X67318D01*
X71818Y30487D02*
X77018D01*
X71718Y30587D02*
X77218D01*
X71618Y30687D02*
X77318D01*
X71418Y30787D02*
X77418D01*
X71318Y30887D02*
X77518D01*
X71218Y30987D02*
X77618D01*
X71118Y31087D02*
X77718D01*
X71018Y31187D02*
X77818D01*
X72318Y30187D02*
X76618D01*
X72218Y30287D02*
X76718D01*
X72018Y30387D02*
X76918D01*
X74218Y29687D02*
X74618D01*
X73518Y29787D02*
X75418D01*
X73118Y29887D02*
X75818D01*
X72818Y29987D02*
X76118D01*
X72518Y30087D02*
X76318D01*
X63018Y29187D02*
X67018D01*
X63218Y29287D02*
X66818D01*
X63418Y29387D02*
X66518D01*
X66318Y27887D02*
X68618D01*
X66218Y27987D02*
X68518D01*
X66018Y28087D02*
X68418D01*
X65618Y28187D02*
X68318D01*
X62818Y21087D02*
X67218D01*
X62618Y21187D02*
X67318D01*
X63418Y20787D02*
X66518D01*
X63218Y20887D02*
X66718D01*
X63018Y20987D02*
X67018D01*
X65218Y21987D02*
X68418D01*
X65918Y22087D02*
X68518D01*
X66118Y22187D02*
X68618D01*
X66418Y22287D02*
X68618D01*
X66518Y22387D02*
X68618D01*
X39118Y50487D02*
X49918D01*
X35118Y48387D02*
X53918D01*
X35218Y48487D02*
X53818D01*
X35318Y48587D02*
X53718D01*
X35518Y48687D02*
X53418D01*
X35718Y48787D02*
X53318D01*
X35818Y48887D02*
X53218D01*
X35918Y48987D02*
X53018D01*
X36118Y49087D02*
X52918D01*
X36318Y49187D02*
X52718D01*
X36518Y49287D02*
X52518D01*
X36718Y49387D02*
X52318D01*
X36818Y49487D02*
X52218D01*
X37018Y49587D02*
X52018D01*
X37218Y49687D02*
X51918D01*
X37418Y49787D02*
X51618D01*
X37518Y49887D02*
X51418D01*
X37818Y49987D02*
X51218D01*
X38018Y50087D02*
X50918D01*
X38218Y50187D02*
X50718D01*
X38518Y50287D02*
X50518D01*
X38718Y50387D02*
X50318D01*
X39318Y50587D02*
X49718D01*
X39618Y50687D02*
X49418D01*
X40018Y50787D02*
X49118D01*
X40318Y50887D02*
X48718D01*
X40618Y50987D02*
X48318D01*
X41118Y51087D02*
X47818D01*
X41518Y51187D02*
X47518D01*
X42318Y51287D02*
X46718D01*
X32818Y46487D02*
X56018D01*
X32918Y46587D02*
X55918D01*
X33118Y46687D02*
X55918D01*
X33218Y46787D02*
X55718D01*
X33318Y46887D02*
X55618D01*
X33418Y46987D02*
X55518D01*
X33518Y47087D02*
X55518D01*
X33618Y47187D02*
X55318D01*
X33718Y47287D02*
X55218D01*
X33818Y47387D02*
X55118D01*
X33918Y47487D02*
X55018D01*
X34118Y47587D02*
X54818D01*
X34218Y47687D02*
X54718D01*
X34318Y47787D02*
X54618D01*
X34518Y47887D02*
X54518D01*
X34618Y47987D02*
X54418D01*
X34718Y48087D02*
X54318D01*
X34818Y48187D02*
X54118D01*
X42518Y44687D02*
X48918D01*
X42218Y44787D02*
X49218D01*
X31818Y44987D02*
X57318D01*
X31918Y45087D02*
X57318D01*
X31918Y45187D02*
X57218D01*
X32018Y45287D02*
X57118D01*
X32118Y45387D02*
X57018D01*
X32118Y45487D02*
X56918D01*
X32218Y45587D02*
X56818D01*
X32318Y45687D02*
X56718D01*
X32418Y45787D02*
X56618D01*
X32418Y45887D02*
X56618D01*
X32518Y45987D02*
X56518D01*
X32518Y46087D02*
X56418D01*
X32618Y46187D02*
X56318D01*
X32718Y46287D02*
X56218D01*
X32818Y46387D02*
X56118D01*
X48018Y40387D02*
X59718D01*
X48018Y40487D02*
X59718D01*
X48118Y40587D02*
X59618D01*
X48118Y40687D02*
X59618D01*
X48218Y40787D02*
X59518D01*
X48318Y40887D02*
X59518D01*
X48418Y40987D02*
X59518D01*
X48518Y41087D02*
X59518D01*
X48718Y41187D02*
X59418D01*
X48918Y41287D02*
X59418D01*
X49018Y41387D02*
X59318D01*
X49218Y41487D02*
X59318D01*
X49618Y41587D02*
X59318D01*
X50118Y41687D02*
X59218D01*
X50118Y44887D02*
X57418D01*
X47518Y38487D02*
X60118D01*
X47418Y38587D02*
X60118D01*
X47418Y38687D02*
X60118D01*
X47418Y38787D02*
X60118D01*
X47418Y38887D02*
X60118D01*
X47418Y38987D02*
X60118D01*
X47418Y39087D02*
X60118D01*
X47418Y39187D02*
X60018D01*
X47518Y39287D02*
X60018D01*
X47518Y39387D02*
X60018D01*
X47518Y39487D02*
X59918D01*
X47618Y39587D02*
X59918D01*
X47618Y39687D02*
X59918D01*
X47618Y39787D02*
X59818D01*
X47718Y39887D02*
X59818D01*
X47718Y39987D02*
X59818D01*
X47818Y40087D02*
X59818D01*
X47818Y40187D02*
X59818D01*
X49718Y35987D02*
X60418D01*
X49518Y36087D02*
X60418D01*
X49218Y36187D02*
X60418D01*
X49018Y36287D02*
X60418D01*
X48918Y36387D02*
X60418D01*
X48818Y36487D02*
X60418D01*
X48618Y36587D02*
X60418D01*
X48418Y36687D02*
X60418D01*
X48318Y36787D02*
X60418D01*
X48218Y36887D02*
X60418D01*
X49018Y32387D02*
X60118D01*
X49218Y32487D02*
X60118D01*
X49518Y32587D02*
X60118D01*
X49918Y32687D02*
X60118D01*
X50118Y32787D02*
X60118D01*
X48118Y36987D02*
X60318D01*
X48018Y37087D02*
X60318D01*
X48018Y37187D02*
X60318D01*
X48018Y37287D02*
X60318D01*
X47918Y37387D02*
X60318D01*
X47818Y37487D02*
X60318D01*
X47818Y37587D02*
X60318D01*
X47718Y37687D02*
X60318D01*
X47718Y37787D02*
X60318D01*
X47718Y37887D02*
X60318D01*
X47618Y37987D02*
X60218D01*
X47618Y38087D02*
X60218D01*
X47518Y38187D02*
X60218D01*
X47518Y38287D02*
X60218D01*
X47518Y38387D02*
X60218D01*
X47518Y30487D02*
X59618D01*
X47618Y30587D02*
X59618D01*
X47618Y30687D02*
X59618D01*
X47618Y30787D02*
X59718D01*
X47718Y30887D02*
X59718D01*
X47718Y30987D02*
X59818D01*
X47718Y31087D02*
X59818D01*
X47818Y31187D02*
X59818D01*
X47918Y31287D02*
X59818D01*
X48018Y31387D02*
X59918D01*
X48018Y31487D02*
X59918D01*
X48118Y31587D02*
X59918D01*
X48218Y31687D02*
X59918D01*
X48318Y31787D02*
X60018D01*
X48418Y31887D02*
X60018D01*
X48518Y31987D02*
X60018D01*
X48618Y32087D02*
X60018D01*
X48718Y32187D02*
X60118D01*
X50218Y26887D02*
X57818D01*
X49718Y26987D02*
X57918D01*
X49418Y27087D02*
X58018D01*
X49218Y27187D02*
X58118D01*
X49118Y27287D02*
X58118D01*
X49018Y27387D02*
X58218D01*
X48818Y27487D02*
X58318D01*
X48618Y27587D02*
X58318D01*
X48518Y27687D02*
X58418D01*
X48418Y27787D02*
X58418D01*
X48318Y27887D02*
X58518D01*
X48218Y27987D02*
X58518D01*
X48118Y28087D02*
X58618D01*
X48118Y28187D02*
X58618D01*
X48018Y28287D02*
X58618D01*
X48018Y28387D02*
X58718D01*
X47918Y28487D02*
X58818D01*
X47818Y28587D02*
X58818D01*
X47818Y28687D02*
X58918D01*
X47718Y28787D02*
X58918D01*
X47618Y28887D02*
X59018D01*
X47618Y28987D02*
X59018D01*
X47618Y29087D02*
X59118D01*
X47518Y29187D02*
X59118D01*
X47518Y29287D02*
X59218D01*
X47518Y29387D02*
X59218D01*
X47518Y29487D02*
X59218D01*
X47518Y29587D02*
X59218D01*
X47418Y29687D02*
X59318D01*
X47418Y29787D02*
X59318D01*
X47418Y29887D02*
X59418D01*
X47418Y29987D02*
X59418D01*
X47418Y30087D02*
X59518D01*
X47418Y30187D02*
X59518D01*
X47518Y30287D02*
X59518D01*
X47518Y30387D02*
X59618D01*
X30918Y26987D02*
X38418D01*
X30818Y27087D02*
X38718D01*
X30718Y27187D02*
X38918D01*
X30718Y27287D02*
X39118D01*
X30618Y27387D02*
X39218D01*
X30618Y27487D02*
X39318D01*
X57618Y26487D02*
X62118D01*
X55918Y24387D02*
X61918D01*
X56018Y24487D02*
X61918D01*
X56118Y24587D02*
X61918D01*
X56218Y24687D02*
X61918D01*
X56318Y24787D02*
X61818D01*
X56418Y24887D02*
X61818D01*
X56518Y24987D02*
X61818D01*
X56518Y25087D02*
X61818D01*
X56618Y25187D02*
X61818D01*
X56718Y25287D02*
X61818D01*
X56818Y25387D02*
X61818D01*
X56918Y25487D02*
X61918D01*
X57018Y25587D02*
X61918D01*
X57118Y25687D02*
X61918D01*
X57118Y25787D02*
X61918D01*
X57218Y25887D02*
X61918D01*
X57318Y25987D02*
X61918D01*
X57418Y26087D02*
X62018D01*
X57518Y26187D02*
X62018D01*
X57518Y26287D02*
X62118D01*
X57618Y26387D02*
X62118D01*
X57718Y26587D02*
X62218D01*
X57818Y26687D02*
X62318D01*
X57918Y26787D02*
X62418D01*
X35418Y22487D02*
X53718D01*
X35318Y22587D02*
X53818D01*
X35218Y22687D02*
X54018D01*
X35018Y22787D02*
X54118D01*
X34818Y22887D02*
X54218D01*
X34718Y22987D02*
X54318D01*
X34618Y23087D02*
X54518D01*
X34418Y23187D02*
X54718D01*
X34318Y23287D02*
X54818D01*
X34218Y23387D02*
X54918D01*
X34118Y23487D02*
X55018D01*
X34118Y23587D02*
X55118D01*
X34018Y23687D02*
X55118D01*
X42418Y23787D02*
X49518D01*
X40318Y20087D02*
X48718D01*
X40018Y20187D02*
X49018D01*
X39818Y20287D02*
X49318D01*
X39618Y20387D02*
X49618D01*
X39218Y20487D02*
X49918D01*
X39018Y20587D02*
X50118D01*
X38718Y20687D02*
X50318D01*
X38518Y20787D02*
X50618D01*
X38218Y20887D02*
X51018D01*
X37818Y20987D02*
X51118D01*
X37818Y21087D02*
X51318D01*
X37518Y21187D02*
X51518D01*
X37418Y21287D02*
X51718D01*
X37218Y21387D02*
X51918D01*
X37018Y21487D02*
X52118D01*
X36718Y21587D02*
X52418D01*
X36618Y21687D02*
X52518D01*
X36318Y21787D02*
X52718D01*
X36218Y21887D02*
X52818D01*
X36218Y21987D02*
X52918D01*
X35918Y22087D02*
X53118D01*
X35818Y22187D02*
X53218D01*
X35718Y22287D02*
X53418D01*
X35518Y22387D02*
X53518D01*
X41818Y19787D02*
X47218D01*
X41218Y19887D02*
X47818D01*
X40818Y19987D02*
X48118D01*
X55518Y23887D02*
X62018D01*
X55518Y23987D02*
X62018D01*
X55618Y24087D02*
X62018D01*
X55718Y24187D02*
X61918D01*
X42418Y19687D02*
X46518D01*
X18218Y41787D02*
X23018D01*
X17718Y40387D02*
X20918D01*
X17718Y40487D02*
X21018D01*
X17718Y40587D02*
X21118D01*
X17818Y40687D02*
X21118D01*
X17818Y40787D02*
X21218D01*
X17918Y40887D02*
X21318D01*
X17918Y40987D02*
X21418D01*
X17918Y41087D02*
X21518D01*
X18018Y41187D02*
X21618D01*
X18018Y41287D02*
X21818D01*
X18018Y41387D02*
X21918D01*
X18118Y41487D02*
X22118D01*
X18118Y41587D02*
X22218D01*
X18218Y41687D02*
X22518D01*
X18418Y32887D02*
X23018D01*
X17418Y38487D02*
X20618D01*
X17418Y38587D02*
X20618D01*
X17418Y38687D02*
X20618D01*
X17418Y38787D02*
X20618D01*
X17418Y38887D02*
X20618D01*
X17418Y38987D02*
X20518D01*
X17418Y39087D02*
X20518D01*
X17418Y39187D02*
X20518D01*
X17518Y39287D02*
X20518D01*
X17518Y39387D02*
X20518D01*
X17518Y39487D02*
X20618D01*
X17518Y39587D02*
X20618D01*
X17518Y39687D02*
X20618D01*
X17518Y39787D02*
X20718D01*
X17618Y39887D02*
X20718D01*
X17618Y39987D02*
X20718D01*
X17618Y40087D02*
X20818D01*
X17618Y40187D02*
X20818D01*
X18118Y32387D02*
X21818D01*
X18118Y32487D02*
X22018D01*
X18218Y32587D02*
X22118D01*
X18318Y32687D02*
X22318D01*
X18318Y32787D02*
X22718D01*
X18218Y36087D02*
X22818D01*
X18118Y36187D02*
X22618D01*
X18118Y36287D02*
X22518D01*
X18018Y36387D02*
X22318D01*
X18018Y36487D02*
X22118D01*
X18018Y36587D02*
X22018D01*
X17918Y36687D02*
X21818D01*
X17918Y36787D02*
X21718D01*
X17818Y36887D02*
X21618D01*
X17818Y36987D02*
X21418D01*
X17818Y37087D02*
X21318D01*
X17718Y37187D02*
X21218D01*
X17718Y37287D02*
X21118D01*
X17618Y37387D02*
X21018D01*
X17618Y37487D02*
X21018D01*
X17618Y37587D02*
X20918D01*
X17618Y37687D02*
X20918D01*
X17518Y37787D02*
X20818D01*
X17518Y37887D02*
X20818D01*
X17518Y37987D02*
X20718D01*
X17518Y38087D02*
X20718D01*
X17518Y38187D02*
X20718D01*
X17418Y38287D02*
X20618D01*
X17418Y38387D02*
X20618D01*
X18218Y26987D02*
X22918D01*
X17518Y30487D02*
X20618D01*
X17618Y30587D02*
X20618D01*
X17618Y30687D02*
X20618D01*
X17618Y30787D02*
X20618D01*
X17618Y30887D02*
X20718D01*
X17718Y30987D02*
X20718D01*
X17618Y31087D02*
X20718D01*
X17718Y31187D02*
X20818D01*
X17718Y31287D02*
X20918D01*
X17718Y31387D02*
X20918D01*
X17818Y31487D02*
X21018D01*
X17818Y31587D02*
X21018D01*
X17818Y31687D02*
X21118D01*
X17918Y31787D02*
X21218D01*
X17918Y31887D02*
X21318D01*
X18018Y31987D02*
X21418D01*
X18018Y32087D02*
X21518D01*
X18018Y32187D02*
X21618D01*
X18218Y27087D02*
X22518D01*
X18118Y27187D02*
X22418D01*
X18018Y27287D02*
X22218D01*
X18018Y27387D02*
X22118D01*
X17918Y27487D02*
X21918D01*
X17918Y27587D02*
X21818D01*
X17918Y27687D02*
X21718D01*
X17818Y27787D02*
X21518D01*
X17818Y27887D02*
X21418D01*
X17818Y27987D02*
X21318D01*
X17818Y28087D02*
X21218D01*
X17718Y28187D02*
X21118D01*
X17718Y28287D02*
X21118D01*
X17718Y28387D02*
X21018D01*
X17618Y28487D02*
X21018D01*
X17618Y28587D02*
X20918D01*
X17618Y28687D02*
X20818D01*
X17618Y28787D02*
X20818D01*
X17618Y28887D02*
X20718D01*
X17618Y28987D02*
X20618D01*
X17618Y29087D02*
X20618D01*
X17518Y29187D02*
X20618D01*
X17518Y29287D02*
X20518D01*
X17518Y29387D02*
X20518D01*
X17518Y29487D02*
X20518D01*
X17518Y29587D02*
X20518D01*
X17518Y29687D02*
X20518D01*
X17518Y29787D02*
X20518D01*
X17518Y29887D02*
X20518D01*
X17518Y29987D02*
X20518D01*
X17518Y30087D02*
X20518D01*
X17518Y30187D02*
X20518D01*
X17518Y30287D02*
X20518D01*
X17518Y30387D02*
X20518D01*
X76818Y32287D02*
X78618D01*
X69218Y40287D02*
X71618D01*
X70318Y32287D02*
X72118D01*
X43618Y40287D02*
X44518D01*
X43618Y32287D02*
X45018D01*
X43218Y24287D02*
X47818D01*
X96318Y48987D02*
X96418D01*
X96518D02*
X96618D01*
X96718D02*
X96818D01*
X80318Y35787D02*
X80718D01*
X79618D02*
X80018D01*
X76918Y32387D02*
X78618D01*
X76918Y32487D02*
X78718D01*
X77018Y32587D02*
X78718D01*
X77118Y32687D02*
X78818D01*
X77218Y35787D02*
X78818D01*
X77118Y35887D02*
X78818D01*
X77018Y35987D02*
X78718D01*
X77018Y36087D02*
X78718D01*
X76918Y36187D02*
X78718D01*
X76818Y36287D02*
X78618D01*
X76718Y36387D02*
X78618D01*
X76618Y36487D02*
X78518D01*
X76518Y36587D02*
X78518D01*
X76418Y36687D02*
X78418D01*
X76318Y36787D02*
X78418D01*
X76218Y36887D02*
X78318D01*
X76118Y36987D02*
X78218D01*
X75918Y37087D02*
X78218D01*
X75618Y37187D02*
X78218D01*
X75418Y37287D02*
X78118D01*
X75018Y37387D02*
X78018D01*
X75218Y31287D02*
X77918D01*
X75518Y31387D02*
X78018D01*
X75718Y31487D02*
X78118D01*
X75918Y31587D02*
X78218D01*
X76118Y31687D02*
X78318D01*
X76318Y31787D02*
X78418D01*
X76418Y31887D02*
X78418D01*
X76518Y31987D02*
X78518D01*
X76618Y32087D02*
X78518D01*
X76718Y32187D02*
X78618D01*
X69318Y40387D02*
X71618D01*
X69518Y40487D02*
X71718D01*
X69718Y40587D02*
X71818D01*
X69818Y40687D02*
X71918D01*
X69918Y40787D02*
X71918D01*
X70018Y40887D02*
X72018D01*
X70118Y40987D02*
X72018D01*
X70218Y41087D02*
X72018D01*
X70318Y41187D02*
X72118D01*
X70418Y41287D02*
X72118D01*
X70418Y41387D02*
X72318D01*
X70518Y41487D02*
X72318D01*
X70618Y41587D02*
X72318D01*
X70618Y41687D02*
X72318D01*
X70718Y41787D02*
X72318D01*
X70418Y44887D02*
X72218D01*
X70318Y44987D02*
X72118D01*
X70318Y45087D02*
X72118D01*
X70218Y45187D02*
X72018D01*
X70118Y45287D02*
X71918D01*
X70018Y45387D02*
X71918D01*
X69918Y45487D02*
X71918D01*
X69718Y45587D02*
X71818D01*
X69618Y45687D02*
X71818D01*
X69518Y45787D02*
X71718D01*
X69318Y45887D02*
X71618D01*
X69018Y45987D02*
X71518D01*
X68718Y46087D02*
X71418D01*
X68118Y46187D02*
X71318D01*
X66818Y47587D02*
X69018D01*
X67418Y47687D02*
X68418D01*
X67218Y46087D02*
X67318D01*
X68618Y40087D02*
X71418D01*
X68918Y40187D02*
X71518D01*
X70518Y36687D02*
X72418D01*
X70518Y36787D02*
X72518D01*
X70618Y36887D02*
X72718D01*
X70718Y36987D02*
X72818D01*
X70818Y37087D02*
X73118D01*
X70818Y37187D02*
X73318D01*
X70918Y37287D02*
X73618D01*
X70318Y32387D02*
X72018D01*
X70218Y32487D02*
X71918D01*
X70218Y32587D02*
X71918D01*
X70118Y32687D02*
X71818D01*
X70118Y32787D02*
X71718D01*
X70118Y35887D02*
X71818D01*
X70218Y35987D02*
X71918D01*
X70218Y36087D02*
X72018D01*
X70218Y36187D02*
X72018D01*
X70318Y36287D02*
X72018D01*
X70318Y36387D02*
X72118D01*
X70418Y36487D02*
X72218D01*
X70518Y36587D02*
X72318D01*
X67218Y38487D02*
X67318D01*
X67518D02*
X67918D01*
X68118D02*
X68218D01*
X71018Y37387D02*
X74018D01*
X66918Y38587D02*
X68718D01*
X66618Y38687D02*
X69218D01*
X70918Y31287D02*
X73718D01*
X70818Y31387D02*
X73418D01*
X70818Y31487D02*
X73118D01*
X70718Y31587D02*
X72918D01*
X70718Y31687D02*
X72718D01*
X70618Y31787D02*
X72618D01*
X70518Y31887D02*
X72518D01*
X70518Y31987D02*
X72418D01*
X70418Y32087D02*
X72318D01*
X70418Y32187D02*
X72218D01*
X67618Y26787D02*
X69218D01*
X67518Y26887D02*
X69218D01*
X67418Y26987D02*
X69118D01*
X67418Y27087D02*
X69118D01*
X67318Y27187D02*
X69018D01*
X67218Y27287D02*
X69018D01*
X67118Y27387D02*
X68918D01*
X67018Y27487D02*
X68918D01*
X66918Y27587D02*
X68818D01*
X66718Y27687D02*
X68718D01*
X66618Y27787D02*
X68618D01*
X66718Y22487D02*
X68718D01*
X66818Y22587D02*
X68818D01*
X66918Y22687D02*
X68818D01*
X67018Y22787D02*
X68918D01*
X67118Y22887D02*
X69018D01*
X67218Y22987D02*
X69018D01*
X67318Y23087D02*
X69118D01*
X67418Y23187D02*
X69118D01*
X67518Y23287D02*
X69118D01*
X67618Y23387D02*
X69218D01*
X67618Y23487D02*
X69318D01*
X67718Y23587D02*
X69318D01*
X67818Y23687D02*
X69318D01*
X58918Y42487D02*
X64918D01*
X59218Y41787D02*
X65118D01*
X59218Y41887D02*
X65118D01*
X59118Y41987D02*
X65018D01*
X59118Y42087D02*
X65018D01*
X59118Y42187D02*
X65018D01*
X59018Y42287D02*
X64918D01*
X59018Y42387D02*
X64918D01*
X58818Y42587D02*
X64918D01*
X58818Y42687D02*
X64818D01*
X58818Y42787D02*
X64818D01*
X58718Y42887D02*
X64818D01*
X58718Y42987D02*
X64818D01*
X58618Y43087D02*
X64818D01*
X58618Y43187D02*
X64818D01*
X64218Y40387D02*
X66418D01*
X64118Y40487D02*
X66318D01*
X64118Y40587D02*
X66118D01*
X64018Y40687D02*
X65918D01*
X63918Y40787D02*
X65818D01*
X63918Y40887D02*
X65718D01*
X63818Y40987D02*
X65618D01*
X63718Y41087D02*
X65518D01*
X63718Y41187D02*
X65518D01*
X63718Y41287D02*
X65418D01*
X63618Y41387D02*
X65318D01*
X63618Y41487D02*
X65318D01*
X63518Y41587D02*
X65218D01*
X63518Y41687D02*
X65218D01*
X63618Y44887D02*
X65418D01*
X63718Y44987D02*
X65518D01*
X63718Y45087D02*
X65618D01*
X63818Y45187D02*
X65718D01*
X63818Y45287D02*
X65818D01*
X63918Y45387D02*
X65918D01*
X63918Y45487D02*
X66018D01*
X64018Y45587D02*
X66118D01*
X64018Y45687D02*
X66218D01*
X64118Y45787D02*
X66418D01*
X64818Y32787D02*
X64918D01*
X60618D02*
X60718D01*
X60618Y35887D02*
X60718D01*
X61718Y28187D02*
X64518D01*
X61018Y27387D02*
X62918D01*
X61018Y27487D02*
X63018D01*
X61118Y27587D02*
X63118D01*
X61218Y27687D02*
X63318D01*
X61318Y27787D02*
X63418D01*
X61418Y27887D02*
X63618D01*
X61518Y27987D02*
X63818D01*
X61618Y28087D02*
X64118D01*
X63718Y29487D02*
X66318D01*
X64318Y29587D02*
X65818D01*
X60818Y26887D02*
X62418D01*
X60818Y26987D02*
X62518D01*
X60918Y27087D02*
X62618D01*
X60918Y27187D02*
X62718D01*
X61018Y27287D02*
X62818D01*
X61218Y22487D02*
X63318D01*
X61118Y22587D02*
X63118D01*
X61118Y22687D02*
X62918D01*
X61618Y21987D02*
X64718D01*
X61518Y22087D02*
X64118D01*
X61418Y22187D02*
X63818D01*
X61318Y22287D02*
X63618D01*
X61218Y22387D02*
X63418D01*
X64218Y20587D02*
X65718D01*
X63718Y20687D02*
X66218D01*
X61018Y22787D02*
X62818D01*
X61018Y22887D02*
X62718D01*
X60918Y22987D02*
X62618D01*
X60918Y23087D02*
X62518D01*
X60818Y23187D02*
X62518D01*
X60818Y23287D02*
X62418D01*
X60718Y23387D02*
X62418D01*
X60718Y23487D02*
X62318D01*
X60618Y23587D02*
X62218D01*
X60618Y23687D02*
X62118D01*
X60618Y23787D02*
X62118D01*
X43018Y51387D02*
X45918D01*
X42718Y44587D02*
X48518D01*
X42918Y44487D02*
X48218D01*
X43518Y43687D02*
X46918D01*
X43518Y43787D02*
X47018D01*
X43418Y43887D02*
X47118D01*
X43418Y43987D02*
X47318D01*
X43318Y44087D02*
X47418D01*
X43218Y44187D02*
X47618D01*
X43118Y44287D02*
X47818D01*
X43018Y44387D02*
X48018D01*
X43618Y42487D02*
X45718D01*
X43618Y40387D02*
X44618D01*
X43618Y40487D02*
X44618D01*
X43618Y40587D02*
X44618D01*
X43618Y40687D02*
X44718D01*
X43618Y40787D02*
X44718D01*
X43618Y40887D02*
X44818D01*
X43618Y40987D02*
X44818D01*
X43618Y41087D02*
X44818D01*
X43618Y41187D02*
X44818D01*
X43618Y41287D02*
X44918D01*
X43618Y41387D02*
X44918D01*
X43618Y41487D02*
X45018D01*
X43618Y41587D02*
X45118D01*
X43618Y41687D02*
X45118D01*
X43618Y41787D02*
X45118D01*
X43618Y41887D02*
X45218D01*
X43618Y41987D02*
X45318D01*
X43618Y42087D02*
X45418D01*
X43618Y42187D02*
X45418D01*
X43618Y42287D02*
X45518D01*
X43618Y42387D02*
X45618D01*
X43618Y42587D02*
X45818D01*
X43618Y42687D02*
X45818D01*
X43618Y42787D02*
X45918D01*
X43618Y42887D02*
X46018D01*
X43618Y42987D02*
X46118D01*
X43618Y43087D02*
X46118D01*
X43618Y43187D02*
X46318D01*
X43618Y43287D02*
X46418D01*
X43618Y43387D02*
X46518D01*
X43618Y43487D02*
X46618D01*
X43518Y43587D02*
X46818D01*
X43618Y38487D02*
X44318D01*
X43618Y38587D02*
X44318D01*
X43618Y38687D02*
X44318D01*
X43618Y38787D02*
X44418D01*
X43618Y38887D02*
X44418D01*
X43618Y38987D02*
X44418D01*
X43618Y39087D02*
X44418D01*
X43618Y39187D02*
X44418D01*
X43618Y39287D02*
X44418D01*
X43618Y39387D02*
X44418D01*
X43618Y39487D02*
X44418D01*
X43618Y39587D02*
X44418D01*
X43618Y39687D02*
X44418D01*
X43618Y39787D02*
X44418D01*
X43618Y39887D02*
X44518D01*
X43618Y39987D02*
X44518D01*
X43618Y40087D02*
X44518D01*
X43618Y40187D02*
X44518D01*
X43618Y34487D02*
X46218D01*
X43618Y32387D02*
X45018D01*
X43618Y32487D02*
X45018D01*
X43618Y32587D02*
X45118D01*
X43618Y32687D02*
X45218D01*
X43618Y32787D02*
X45218D01*
X43618Y32887D02*
X45318D01*
X43618Y32987D02*
X45318D01*
X43618Y33087D02*
X45418D01*
X43618Y33187D02*
X45418D01*
X43618Y33287D02*
X45518D01*
X43618Y33387D02*
X45618D01*
X43618Y33487D02*
X45718D01*
X43618Y33587D02*
X45718D01*
X43618Y33687D02*
X45818D01*
X43618Y33787D02*
X45918D01*
X43618Y33887D02*
X46018D01*
X43618Y33987D02*
X46218D01*
X43618Y34087D02*
X46318D01*
X43618Y34187D02*
X46418D01*
X43618Y34287D02*
X46418D01*
X43618Y34387D02*
X46318D01*
X43618Y34587D02*
X46118D01*
X43618Y34687D02*
X46018D01*
X43618Y34787D02*
X45918D01*
X43618Y34887D02*
X45918D01*
X43618Y34987D02*
X45818D01*
X43618Y35087D02*
X45718D01*
X43618Y35187D02*
X45618D01*
X43618Y35287D02*
X45518D01*
X43618Y35387D02*
X45418D01*
X43618Y35487D02*
X45418D01*
X43618Y35587D02*
X45318D01*
X43618Y35687D02*
X45218D01*
X43618Y35787D02*
X45118D01*
X43618Y35887D02*
X45118D01*
X43618Y35987D02*
X45118D01*
X43618Y36087D02*
X45118D01*
X43618Y36187D02*
X45018D01*
X43618Y36287D02*
X45018D01*
X43618Y36387D02*
X44918D01*
X43618Y36487D02*
X44918D01*
X43618Y36587D02*
X44818D01*
X43618Y36687D02*
X44818D01*
X43618Y36787D02*
X44718D01*
X43618Y36887D02*
X44718D01*
X43618Y36987D02*
X44618D01*
X43618Y37087D02*
X44618D01*
X43618Y37187D02*
X44618D01*
X43618Y37287D02*
X44518D01*
X43618Y37387D02*
X44518D01*
X43618Y37487D02*
X44518D01*
X43618Y37587D02*
X44518D01*
X43618Y37687D02*
X44418D01*
X43618Y37787D02*
X44418D01*
X43618Y37887D02*
X44418D01*
X43618Y37987D02*
X44418D01*
X43618Y38087D02*
X44418D01*
X43618Y38187D02*
X44418D01*
X43618Y38287D02*
X44318D01*
X43618Y38387D02*
X44318D01*
X43318Y24387D02*
X47618D01*
X43318Y24487D02*
X47418D01*
X43418Y24587D02*
X47318D01*
X43418Y24687D02*
X47218D01*
X43518Y24787D02*
X47118D01*
X43618Y30487D02*
X44418D01*
X43618Y30587D02*
X44418D01*
X43618Y30687D02*
X44518D01*
X43618Y30787D02*
X44518D01*
X43618Y30887D02*
X44518D01*
X43618Y30987D02*
X44518D01*
X43618Y31087D02*
X44518D01*
X43618Y31187D02*
X44518D01*
X43618Y31287D02*
X44618D01*
X43618Y31387D02*
X44618D01*
X43618Y31487D02*
X44618D01*
X43618Y31587D02*
X44718D01*
X43618Y31687D02*
X44718D01*
X43618Y31787D02*
X44818D01*
X43618Y31887D02*
X44818D01*
X43618Y31987D02*
X44818D01*
X43618Y32087D02*
X44918D01*
X43618Y32187D02*
X44918D01*
X43618Y26487D02*
X45318D01*
X43518Y24887D02*
X46818D01*
X43618Y24987D02*
X46718D01*
X43618Y25087D02*
X46618D01*
X43618Y25187D02*
X46518D01*
X43618Y25287D02*
X46418D01*
X43618Y25387D02*
X46318D01*
X43618Y25487D02*
X46218D01*
X43618Y25587D02*
X46118D01*
X43618Y25687D02*
X46018D01*
X43618Y25787D02*
X45918D01*
X43618Y25887D02*
X45818D01*
X43618Y25987D02*
X45718D01*
X43618Y26087D02*
X45618D01*
X43618Y26187D02*
X45518D01*
X43618Y26287D02*
X45418D01*
X43618Y26387D02*
X45418D01*
X43618Y26587D02*
X45318D01*
X43618Y26687D02*
X45218D01*
X43618Y26787D02*
X45118D01*
X43618Y26887D02*
X45118D01*
X43618Y26987D02*
X45018D01*
X43618Y27087D02*
X44918D01*
X43618Y27187D02*
X44918D01*
X43618Y27287D02*
X44818D01*
X43618Y27387D02*
X44818D01*
X43618Y27487D02*
X44818D01*
X43618Y27587D02*
X44718D01*
X43618Y27687D02*
X44718D01*
X43618Y27787D02*
X44618D01*
X43618Y27887D02*
X44618D01*
X43618Y27987D02*
X44618D01*
X43618Y28087D02*
X44618D01*
X43618Y28187D02*
X44518D01*
X43618Y28287D02*
X44518D01*
X43618Y28387D02*
X44518D01*
X43618Y28487D02*
X44518D01*
X43618Y28587D02*
X44518D01*
X43618Y28687D02*
X44418D01*
X43618Y28787D02*
X44418D01*
X43618Y28887D02*
X44418D01*
X43618Y28987D02*
X44418D01*
X43618Y29087D02*
X44418D01*
X43618Y29187D02*
X44418D01*
X43618Y29287D02*
X44418D01*
X43618Y29387D02*
X44418D01*
X43618Y29487D02*
X44418D01*
X43618Y29587D02*
X44418D01*
X43618Y29687D02*
X44318D01*
X43618Y29787D02*
X44418D01*
X43618Y29887D02*
X44418D01*
X43618Y29987D02*
X44418D01*
X43618Y30087D02*
X44418D01*
X43618Y30187D02*
X44418D01*
X43618Y30287D02*
X44418D01*
X43618Y30387D02*
X44418D01*
X42718Y23887D02*
X49018D01*
X42818Y23987D02*
X48618D01*
X43018Y24087D02*
X48318D01*
X43118Y24187D02*
X48018D01*
X43218Y19587D02*
X45818D01*
X68118Y24487D02*
X98418D01*
M02*
