G04*
G04 #@! TF.GenerationSoftware,Altium Limited,Altium Designer,21.0.8 (223)*
G04*
G04 Layer_Color=16711935*
%FSLAX25Y25*%
%MOIN*%
G70*
G04*
G04 #@! TF.SameCoordinates,33316FA8-22EC-4851-BF61-47935A3E7C20*
G04*
G04*
G04 #@! TF.FilePolarity,Positive*
G04*
G01*
G75*
%ADD11C,0.00787*%
%ADD16C,0.00500*%
%ADD97C,0.00394*%
%ADD98C,0.00700*%
D11*
X10705Y108285D02*
X9918D01*
X10705D01*
X87992Y17863D02*
Y23768D01*
X78937D02*
X87992D01*
X78937Y17863D02*
Y23768D01*
Y17863D02*
X87992D01*
X37777Y11031D02*
X42698D01*
X37777D02*
Y18905D01*
X42698D01*
Y11031D02*
Y18905D01*
D16*
X9012Y94210D02*
X21060D01*
Y106257D01*
X9012D02*
X21060D01*
X9012Y94210D02*
Y106257D01*
D97*
X63232Y136728D02*
X65397D01*
X63232Y140862D02*
X65397D01*
X63232Y136728D02*
Y140862D01*
X65397Y136728D02*
Y140862D01*
X51414Y136886D02*
Y141019D01*
X49249Y136886D02*
Y141019D01*
X51414D01*
X49249Y136886D02*
X51414D01*
X50791Y105030D02*
X54531D01*
X50791Y98141D02*
X54531D01*
X50791D02*
Y105030D01*
X54531Y98141D02*
Y105030D01*
X69511Y42079D02*
X72168Y39422D01*
X60357Y42079D02*
X72168D01*
X60357Y31449D02*
Y42079D01*
Y31449D02*
X72168D01*
Y42079D01*
X37104Y93625D02*
Y100515D01*
X40844Y93625D02*
Y100515D01*
X37104Y93625D02*
X40844D01*
X37104Y100515D02*
X40844D01*
X68267Y48244D02*
Y55134D01*
X72007Y48244D02*
Y55134D01*
X68267Y48244D02*
X72007D01*
X68267Y55134D02*
X72007D01*
X85808Y30863D02*
Y34603D01*
X78918Y30863D02*
Y34603D01*
Y30863D02*
X85808D01*
X78918Y34603D02*
X85808D01*
Y37764D02*
Y41504D01*
X78918Y37764D02*
Y41504D01*
Y37764D02*
X85808D01*
X78918Y41504D02*
X85808D01*
X101969Y7087D02*
X128740D01*
X101969D02*
Y10236D01*
X128740Y7087D02*
Y9055D01*
Y9055D02*
X131890D01*
Y9055D02*
Y36220D01*
X128740D02*
Y38189D01*
Y36220D02*
X131890D01*
X101969Y10236D02*
X108268D01*
Y10236D02*
Y35039D01*
X101969Y35039D02*
X108268D01*
X101969Y38189D02*
X128740D01*
X101969Y35039D02*
Y38189D01*
X12983Y112225D02*
Y119115D01*
X9243Y112225D02*
Y119115D01*
X12983D01*
X9243Y112225D02*
X12983D01*
X19879D02*
Y119115D01*
X16139Y112225D02*
Y119115D01*
X19879D01*
X16139Y112225D02*
X19879D01*
X49080Y36456D02*
Y40197D01*
X55970Y36456D02*
Y40197D01*
X49080D02*
X55970D01*
X49080Y36456D02*
X55970D01*
X53608Y16799D02*
X57348D01*
X53608Y23689D02*
X57348D01*
X53608Y16799D02*
Y23689D01*
X57348Y16799D02*
Y23689D01*
X37261Y22209D02*
X44151D01*
X37261Y25949D02*
X44151D01*
Y22209D02*
Y25949D01*
X37261Y22209D02*
Y25949D01*
X49080Y29555D02*
Y33296D01*
X55970Y29555D02*
Y33296D01*
X49080D02*
X55970D01*
X49080Y29555D02*
X55970D01*
X62402Y23000D02*
X73032D01*
X62402Y14339D02*
X73032D01*
X62402D02*
Y23000D01*
X73032Y14339D02*
Y23000D01*
X97406Y52362D02*
Y57874D01*
X109375Y52362D02*
Y57874D01*
X97406Y52362D02*
X109375D01*
X97406Y57874D02*
X109375D01*
X80413Y11516D02*
Y15256D01*
X87303Y11516D02*
Y15256D01*
X80413D02*
X87303D01*
X80413Y11516D02*
X87303D01*
X113287Y52658D02*
Y59547D01*
X117028Y52658D02*
Y59547D01*
X113287Y52658D02*
X117028D01*
X113287Y59547D02*
X117028D01*
X61417Y2559D02*
Y9252D01*
X72441Y2559D02*
Y9252D01*
X61417D02*
X72441D01*
X61417Y2559D02*
X72441D01*
X24558Y22209D02*
Y25949D01*
X31448Y22209D02*
Y25949D01*
X24558D02*
X31448D01*
X24558Y22209D02*
X31448D01*
X25230Y11705D02*
Y18595D01*
X28970Y11705D02*
Y18595D01*
X25230Y11705D02*
X28970D01*
X25230Y18595D02*
X28970D01*
X78661Y52362D02*
Y57874D01*
X90630Y52362D02*
Y57874D01*
X78661Y52362D02*
X90630D01*
X78661Y57874D02*
X90630D01*
X49080Y43357D02*
Y47098D01*
X55970Y43357D02*
Y47098D01*
X49080D02*
X55970D01*
X49080Y43357D02*
X55970D01*
X61366Y55136D02*
X65106D01*
X61366Y48246D02*
X65106D01*
Y55136D01*
X61366Y48246D02*
Y55136D01*
X56341Y121752D02*
Y125492D01*
X49451Y121752D02*
Y125492D01*
X56341D01*
X49451Y121752D02*
X56341D01*
X31205Y134769D02*
Y136934D01*
X35339Y134769D02*
Y136934D01*
X31205D02*
X35339D01*
X31205Y134769D02*
X35339D01*
X31205Y139637D02*
Y141802D01*
X35339Y139637D02*
Y141802D01*
X31205D02*
X35339D01*
X31205Y139637D02*
X35339D01*
X9197Y83031D02*
X12937D01*
X9197Y89921D02*
X12937D01*
X9197Y83031D02*
Y89921D01*
X12937Y83031D02*
Y89921D01*
X72007Y69038D02*
Y75928D01*
X68267Y69038D02*
Y75928D01*
X72007D01*
X68267Y69038D02*
X72007D01*
X58205D02*
Y75928D01*
X54465Y69038D02*
Y75928D01*
X58205D01*
X54465Y69038D02*
X58205D01*
X65106D02*
Y75928D01*
X61366Y69038D02*
Y75928D01*
X65106D01*
X61366Y69038D02*
X65106D01*
X78908D02*
Y75928D01*
X75168Y69038D02*
Y75928D01*
X78908D01*
X75168Y69038D02*
X78908D01*
X51304D02*
Y75928D01*
X47564Y69038D02*
Y75928D01*
X51304D01*
X47564Y69038D02*
X51304D01*
X20875Y83031D02*
Y89921D01*
X17134Y83031D02*
Y89921D01*
X20875D01*
X17134Y83031D02*
X20875D01*
X55256Y139681D02*
X59390D01*
X55256Y141846D02*
X59390D01*
Y139681D02*
Y141846D01*
X55256Y139681D02*
Y141846D01*
X119794Y128642D02*
Y135531D01*
X123535Y128642D02*
Y135531D01*
X119794Y128642D02*
X123535D01*
X119794Y135531D02*
X123535D01*
D98*
X98622Y126378D02*
X115157D01*
Y137402D01*
X98622D02*
X115157D01*
X98622Y126378D02*
Y137402D01*
M02*
